<svg version="1.1" xmlns="http://www.w3.org/2000/svg" xmlns:xlink="http://www.w3.org/1999/xlink" width="529" height="892"><defs><clipPath id="RrwqZzpqcASO"><path fill="none" stroke="none" d=" M 0 0 L 529 0 L 529 892 L 0 892 L 0 0 Z"/></clipPath></defs><g transform="scale(1,1)" clip-path="url(#RrwqZzpqcASO)"><g><rect fill="rgb(255,255,255)" stroke="none" x="0" y="0" width="529" height="892" fill-opacity="1"/><path fill="none" stroke="rgb(192,192,192)" paint-order="fill stroke markers" d=" M 0.5 0.5 L 0.5 892.5 M 0.5 0.5 L 0.5 892.5 M 66.5 0.5 L 66.5 892.5 M 132.5 0.5 L 132.5 892.5 M 198.5 0.5 L 198.5 892.5 M 330.5 0.5 L 330.5 892.5 M 396.5 0.5 L 396.5 892.5 M 462.5 0.5 L 462.5 892.5 M 528.5 0.5 L 528.5 892.5" stroke-opacity="1" stroke-linecap="round" stroke-linejoin="round" stroke-miterlimit="10"/><path fill="none" stroke="rgb(192,192,192)" paint-order="fill stroke markers" d=" M 13.5 0.5 L 13.5 892.5 M 26.5 0.5 L 26.5 892.5 M 39.5 0.5 L 39.5 892.5 M 52.5 0.5 L 52.5 892.5 M 79.5 0.5 L 79.5 892.5 M 92.5 0.5 L 92.5 892.5 M 105.5 0.5 L 105.5 892.5 M 119.5 0.5 L 119.5 892.5 M 145.5 0.5 L 145.5 892.5 M 158.5 0.5 L 158.5 892.5 M 171.5 0.5 L 171.5 892.5 M 185.5 0.5 L 185.5 892.5 M 211.5 0.5 L 211.5 892.5 M 224.5 0.5 L 224.5 892.5 M 238.5 0.5 L 238.5 892.5 M 251.5 0.5 L 251.5 892.5 M 277.5 0.5 L 277.5 892.5 M 290.5 0.5 L 290.5 892.5 M 304.5 0.5 L 304.5 892.5 M 317.5 0.5 L 317.5 892.5 M 343.5 0.5 L 343.5 892.5 M 357.5 0.5 L 357.5 892.5 M 370.5 0.5 L 370.5 892.5 M 383.5 0.5 L 383.5 892.5 M 409.5 0.5 L 409.5 892.5 M 423.5 0.5 L 423.5 892.5 M 436.5 0.5 L 436.5 892.5 M 449.5 0.5 L 449.5 892.5 M 476.5 0.5 L 476.5 892.5 M 489.5 0.5 L 489.5 892.5 M 502.5 0.5 L 502.5 892.5 M 515.5 0.5 L 515.5 892.5" stroke-opacity="0.23529411764705882" stroke-linecap="round" stroke-linejoin="round" stroke-miterlimit="10"/><path fill="none" stroke="rgb(192,192,192)" paint-order="fill stroke markers" d=" M 0.5 49.5 L 529.5 49.5 M 0.5 49.5 L 529.5 49.5 M 0.5 115.5 L 529.5 115.5 M 0.5 181.5 L 529.5 181.5 M 0.5 247.5 L 529.5 247.5 M 0.5 313.5 L 529.5 313.5 M 0.5 379.5 L 529.5 379.5 M 0.5 445.5 L 529.5 445.5 M 0.5 578.5 L 529.5 578.5 M 0.5 644.5 L 529.5 644.5 M 0.5 710.5 L 529.5 710.5 M 0.5 776.5 L 529.5 776.5 M 0.5 842.5 L 529.5 842.5" stroke-opacity="1" stroke-linecap="round" stroke-linejoin="round" stroke-miterlimit="10"/><path fill="none" stroke="rgb(192,192,192)" paint-order="fill stroke markers" d=" M 0.5 9.5 L 529.5 9.5 M 0.5 9.5 L 529.5 9.5 M 0.5 22.5 L 529.5 22.5 M 0.5 35.5 L 529.5 35.5 M 0.5 62.5 L 529.5 62.5 M 0.5 75.5 L 529.5 75.5 M 0.5 88.5 L 529.5 88.5 M 0.5 102.5 L 529.5 102.5 M 0.5 128.5 L 529.5 128.5 M 0.5 141.5 L 529.5 141.5 M 0.5 155.5 L 529.5 155.5 M 0.5 168.5 L 529.5 168.5 M 0.5 194.5 L 529.5 194.5 M 0.5 207.5 L 529.5 207.5 M 0.5 221.5 L 529.5 221.5 M 0.5 234.5 L 529.5 234.5 M 0.5 260.5 L 529.5 260.5 M 0.5 274.5 L 529.5 274.5 M 0.5 287.5 L 529.5 287.5 M 0.5 300.5 L 529.5 300.5 M 0.5 326.5 L 529.5 326.5 M 0.5 340.5 L 529.5 340.5 M 0.5 353.5 L 529.5 353.5 M 0.5 366.5 L 529.5 366.5 M 0.5 393.5 L 529.5 393.5 M 0.5 406.5 L 529.5 406.5 M 0.5 419.5 L 529.5 419.5 M 0.5 432.5 L 529.5 432.5 M 0.5 459.5 L 529.5 459.5 M 0.5 472.5 L 529.5 472.5 M 0.5 485.5 L 529.5 485.5 M 0.5 498.5 L 529.5 498.5 M 0.5 525.5 L 529.5 525.5 M 0.5 538.5 L 529.5 538.5 M 0.5 551.5 L 529.5 551.5 M 0.5 564.5 L 529.5 564.5 M 0.5 591.5 L 529.5 591.5 M 0.5 604.5 L 529.5 604.5 M 0.5 617.5 L 529.5 617.5 M 0.5 631.5 L 529.5 631.5 M 0.5 657.5 L 529.5 657.5 M 0.5 670.5 L 529.5 670.5 M 0.5 684.5 L 529.5 684.5 M 0.5 697.5 L 529.5 697.5 M 0.5 723.5 L 529.5 723.5 M 0.5 736.5 L 529.5 736.5 M 0.5 750.5 L 529.5 750.5 M 0.5 763.5 L 529.5 763.5 M 0.5 789.5 L 529.5 789.5 M 0.5 803.5 L 529.5 803.5 M 0.5 816.5 L 529.5 816.5 M 0.5 829.5 L 529.5 829.5 M 0.5 855.5 L 529.5 855.5 M 0.5 869.5 L 529.5 869.5 M 0.5 882.5 L 529.5 882.5" stroke-opacity="0.23529411764705882" stroke-linecap="round" stroke-linejoin="round" stroke-miterlimit="10"/><path fill="none" stroke="rgb(37,37,37)" paint-order="fill stroke markers" d=" M 264.5 2.5 L 264.5 892.5" stroke-opacity="1" stroke-miterlimit="10"/><path fill="none" stroke="rgb(37,37,37)" paint-order="fill stroke markers" d=" M 264.5 1.5 L 260.5 5.5" stroke-opacity="1" stroke-miterlimit="10"/><path fill="none" stroke="rgb(37,37,37)" paint-order="fill stroke markers" d=" M 264.5 1.5 L 268.5 5.5" stroke-opacity="1" stroke-miterlimit="10"/><path fill="none" stroke="rgb(37,37,37)" paint-order="fill stroke markers" d=" M 0.5 512.5 L 527.5 512.5" stroke-opacity="1" stroke-miterlimit="10"/><path fill="none" stroke="rgb(37,37,37)" paint-order="fill stroke markers" d=" M 528.5 512.5 L 524.5 508.5" stroke-opacity="1" stroke-miterlimit="10"/><path fill="none" stroke="rgb(37,37,37)" paint-order="fill stroke markers" d=" M 528.5 512.5 L 524.5 516.5" stroke-opacity="1" stroke-miterlimit="10"/><text fill="rgb(37,37,37)" stroke="none" font-family="geogebra-sans-serif, sans-serif" font-size="12px" font-style="normal" font-weight="normal" text-decoration="normal" x="55" y="528" text-anchor="start" dominant-baseline="alphabetic" fill-opacity="1">–1.5</text><text fill="none" stroke="rgb(255,255,255)" font-family="geogebra-sans-serif, sans-serif" font-size="12px" font-style="normal" font-weight="normal" text-decoration="normal" x="55" y="528" text-anchor="start" dominant-baseline="alphabetic" stroke-opacity="1" stroke-linejoin="bevel" stroke-miterlimit="10" stroke-width="3">–1.5</text><text fill="rgb(37,37,37)" stroke="none" font-family="geogebra-sans-serif, sans-serif" font-size="12px" font-style="normal" font-weight="normal" text-decoration="normal" x="55" y="528" text-anchor="start" dominant-baseline="alphabetic" fill-opacity="1">–1.5</text><text fill="rgb(37,37,37)" stroke="none" font-family="geogebra-sans-serif, sans-serif" font-size="12px" font-style="normal" font-weight="normal" text-decoration="normal" x="127" y="528" text-anchor="start" dominant-baseline="alphabetic" fill-opacity="1">–1</text><text fill="none" stroke="rgb(255,255,255)" font-family="geogebra-sans-serif, sans-serif" font-size="12px" font-style="normal" font-weight="normal" text-decoration="normal" x="127" y="528" text-anchor="start" dominant-baseline="alphabetic" stroke-opacity="1" stroke-linejoin="bevel" stroke-miterlimit="10" stroke-width="3">–1</text><text fill="rgb(37,37,37)" stroke="none" font-family="geogebra-sans-serif, sans-serif" font-size="12px" font-style="normal" font-weight="normal" text-decoration="normal" x="127" y="528" text-anchor="start" dominant-baseline="alphabetic" fill-opacity="1">–1</text><text fill="rgb(37,37,37)" stroke="none" font-family="geogebra-sans-serif, sans-serif" font-size="12px" font-style="normal" font-weight="normal" text-decoration="normal" x="187" y="528" text-anchor="start" dominant-baseline="alphabetic" fill-opacity="1">–0.5</text><text fill="none" stroke="rgb(255,255,255)" font-family="geogebra-sans-serif, sans-serif" font-size="12px" font-style="normal" font-weight="normal" text-decoration="normal" x="187" y="528" text-anchor="start" dominant-baseline="alphabetic" stroke-opacity="1" stroke-linejoin="bevel" stroke-miterlimit="10" stroke-width="3">–0.5</text><text fill="rgb(37,37,37)" stroke="none" font-family="geogebra-sans-serif, sans-serif" font-size="12px" font-style="normal" font-weight="normal" text-decoration="normal" x="187" y="528" text-anchor="start" dominant-baseline="alphabetic" fill-opacity="1">–0.5</text><text fill="rgb(37,37,37)" stroke="none" font-family="geogebra-sans-serif, sans-serif" font-size="12px" font-style="normal" font-weight="normal" text-decoration="normal" x="322" y="528" text-anchor="start" dominant-baseline="alphabetic" fill-opacity="1">0.5</text><text fill="none" stroke="rgb(255,255,255)" font-family="geogebra-sans-serif, sans-serif" font-size="12px" font-style="normal" font-weight="normal" text-decoration="normal" x="322" y="528" text-anchor="start" dominant-baseline="alphabetic" stroke-opacity="1" stroke-linejoin="bevel" stroke-miterlimit="10" stroke-width="3">0.5</text><text fill="rgb(37,37,37)" stroke="none" font-family="geogebra-sans-serif, sans-serif" font-size="12px" font-style="normal" font-weight="normal" text-decoration="normal" x="322" y="528" text-anchor="start" dominant-baseline="alphabetic" fill-opacity="1">0.5</text><text fill="rgb(37,37,37)" stroke="none" font-family="geogebra-sans-serif, sans-serif" font-size="12px" font-style="normal" font-weight="normal" text-decoration="normal" x="394" y="528" text-anchor="start" dominant-baseline="alphabetic" fill-opacity="1">1</text><text fill="none" stroke="rgb(255,255,255)" font-family="geogebra-sans-serif, sans-serif" font-size="12px" font-style="normal" font-weight="normal" text-decoration="normal" x="394" y="528" text-anchor="start" dominant-baseline="alphabetic" stroke-opacity="1" stroke-linejoin="bevel" stroke-miterlimit="10" stroke-width="3">1</text><text fill="rgb(37,37,37)" stroke="none" font-family="geogebra-sans-serif, sans-serif" font-size="12px" font-style="normal" font-weight="normal" text-decoration="normal" x="394" y="528" text-anchor="start" dominant-baseline="alphabetic" fill-opacity="1">1</text><text fill="rgb(37,37,37)" stroke="none" font-family="geogebra-sans-serif, sans-serif" font-size="12px" font-style="normal" font-weight="normal" text-decoration="normal" x="454" y="528" text-anchor="start" dominant-baseline="alphabetic" fill-opacity="1">1.5</text><text fill="none" stroke="rgb(255,255,255)" font-family="geogebra-sans-serif, sans-serif" font-size="12px" font-style="normal" font-weight="normal" text-decoration="normal" x="454" y="528" text-anchor="start" dominant-baseline="alphabetic" stroke-opacity="1" stroke-linejoin="bevel" stroke-miterlimit="10" stroke-width="3">1.5</text><text fill="rgb(37,37,37)" stroke="none" font-family="geogebra-sans-serif, sans-serif" font-size="12px" font-style="normal" font-weight="normal" text-decoration="normal" x="454" y="528" text-anchor="start" dominant-baseline="alphabetic" fill-opacity="1">1.5</text><text fill="rgb(37,37,37)" stroke="none" font-family="geogebra-sans-serif, sans-serif" font-size="12px" font-style="normal" font-weight="normal" text-decoration="normal" x="234" y="847" text-anchor="start" dominant-baseline="alphabetic" fill-opacity="1">–2.5</text><text fill="none" stroke="rgb(255,255,255)" font-family="geogebra-sans-serif, sans-serif" font-size="12px" font-style="normal" font-weight="normal" text-decoration="normal" x="234" y="847" text-anchor="start" dominant-baseline="alphabetic" stroke-opacity="1" stroke-linejoin="bevel" stroke-miterlimit="10" stroke-width="3">–2.5</text><text fill="rgb(37,37,37)" stroke="none" font-family="geogebra-sans-serif, sans-serif" font-size="12px" font-style="normal" font-weight="normal" text-decoration="normal" x="234" y="847" text-anchor="start" dominant-baseline="alphabetic" fill-opacity="1">–2.5</text><text fill="rgb(37,37,37)" stroke="none" font-family="geogebra-sans-serif, sans-serif" font-size="12px" font-style="normal" font-weight="normal" text-decoration="normal" x="244" y="781" text-anchor="start" dominant-baseline="alphabetic" fill-opacity="1">–2</text><text fill="none" stroke="rgb(255,255,255)" font-family="geogebra-sans-serif, sans-serif" font-size="12px" font-style="normal" font-weight="normal" text-decoration="normal" x="244" y="781" text-anchor="start" dominant-baseline="alphabetic" stroke-opacity="1" stroke-linejoin="bevel" stroke-miterlimit="10" stroke-width="3">–2</text><text fill="rgb(37,37,37)" stroke="none" font-family="geogebra-sans-serif, sans-serif" font-size="12px" font-style="normal" font-weight="normal" text-decoration="normal" x="244" y="781" text-anchor="start" dominant-baseline="alphabetic" fill-opacity="1">–2</text><text fill="rgb(37,37,37)" stroke="none" font-family="geogebra-sans-serif, sans-serif" font-size="12px" font-style="normal" font-weight="normal" text-decoration="normal" x="234" y="715" text-anchor="start" dominant-baseline="alphabetic" fill-opacity="1">–1.5</text><text fill="none" stroke="rgb(255,255,255)" font-family="geogebra-sans-serif, sans-serif" font-size="12px" font-style="normal" font-weight="normal" text-decoration="normal" x="234" y="715" text-anchor="start" dominant-baseline="alphabetic" stroke-opacity="1" stroke-linejoin="bevel" stroke-miterlimit="10" stroke-width="3">–1.5</text><text fill="rgb(37,37,37)" stroke="none" font-family="geogebra-sans-serif, sans-serif" font-size="12px" font-style="normal" font-weight="normal" text-decoration="normal" x="234" y="715" text-anchor="start" dominant-baseline="alphabetic" fill-opacity="1">–1.5</text><text fill="rgb(37,37,37)" stroke="none" font-family="geogebra-sans-serif, sans-serif" font-size="12px" font-style="normal" font-weight="normal" text-decoration="normal" x="244" y="649" text-anchor="start" dominant-baseline="alphabetic" fill-opacity="1">–1</text><text fill="none" stroke="rgb(255,255,255)" font-family="geogebra-sans-serif, sans-serif" font-size="12px" font-style="normal" font-weight="normal" text-decoration="normal" x="244" y="649" text-anchor="start" dominant-baseline="alphabetic" stroke-opacity="1" stroke-linejoin="bevel" stroke-miterlimit="10" stroke-width="3">–1</text><text fill="rgb(37,37,37)" stroke="none" font-family="geogebra-sans-serif, sans-serif" font-size="12px" font-style="normal" font-weight="normal" text-decoration="normal" x="244" y="649" text-anchor="start" dominant-baseline="alphabetic" fill-opacity="1">–1</text><text fill="rgb(37,37,37)" stroke="none" font-family="geogebra-sans-serif, sans-serif" font-size="12px" font-style="normal" font-weight="normal" text-decoration="normal" x="234" y="583" text-anchor="start" dominant-baseline="alphabetic" fill-opacity="1">–0.5</text><text fill="none" stroke="rgb(255,255,255)" font-family="geogebra-sans-serif, sans-serif" font-size="12px" font-style="normal" font-weight="normal" text-decoration="normal" x="234" y="583" text-anchor="start" dominant-baseline="alphabetic" stroke-opacity="1" stroke-linejoin="bevel" stroke-miterlimit="10" stroke-width="3">–0.5</text><text fill="rgb(37,37,37)" stroke="none" font-family="geogebra-sans-serif, sans-serif" font-size="12px" font-style="normal" font-weight="normal" text-decoration="normal" x="234" y="583" text-anchor="start" dominant-baseline="alphabetic" fill-opacity="1">–0.5</text><text fill="rgb(37,37,37)" stroke="none" font-family="geogebra-sans-serif, sans-serif" font-size="12px" font-style="normal" font-weight="normal" text-decoration="normal" x="240" y="450" text-anchor="start" dominant-baseline="alphabetic" fill-opacity="1">0.5</text><text fill="none" stroke="rgb(255,255,255)" font-family="geogebra-sans-serif, sans-serif" font-size="12px" font-style="normal" font-weight="normal" text-decoration="normal" x="240" y="450" text-anchor="start" dominant-baseline="alphabetic" stroke-opacity="1" stroke-linejoin="bevel" stroke-miterlimit="10" stroke-width="3">0.5</text><text fill="rgb(37,37,37)" stroke="none" font-family="geogebra-sans-serif, sans-serif" font-size="12px" font-style="normal" font-weight="normal" text-decoration="normal" x="240" y="450" text-anchor="start" dominant-baseline="alphabetic" fill-opacity="1">0.5</text><text fill="rgb(37,37,37)" stroke="none" font-family="geogebra-sans-serif, sans-serif" font-size="12px" font-style="normal" font-weight="normal" text-decoration="normal" x="250" y="384" text-anchor="start" dominant-baseline="alphabetic" fill-opacity="1">1</text><text fill="none" stroke="rgb(255,255,255)" font-family="geogebra-sans-serif, sans-serif" font-size="12px" font-style="normal" font-weight="normal" text-decoration="normal" x="250" y="384" text-anchor="start" dominant-baseline="alphabetic" stroke-opacity="1" stroke-linejoin="bevel" stroke-miterlimit="10" stroke-width="3">1</text><text fill="rgb(37,37,37)" stroke="none" font-family="geogebra-sans-serif, sans-serif" font-size="12px" font-style="normal" font-weight="normal" text-decoration="normal" x="250" y="384" text-anchor="start" dominant-baseline="alphabetic" fill-opacity="1">1</text><text fill="rgb(37,37,37)" stroke="none" font-family="geogebra-sans-serif, sans-serif" font-size="12px" font-style="normal" font-weight="normal" text-decoration="normal" x="240" y="318" text-anchor="start" dominant-baseline="alphabetic" fill-opacity="1">1.5</text><text fill="none" stroke="rgb(255,255,255)" font-family="geogebra-sans-serif, sans-serif" font-size="12px" font-style="normal" font-weight="normal" text-decoration="normal" x="240" y="318" text-anchor="start" dominant-baseline="alphabetic" stroke-opacity="1" stroke-linejoin="bevel" stroke-miterlimit="10" stroke-width="3">1.5</text><text fill="rgb(37,37,37)" stroke="none" font-family="geogebra-sans-serif, sans-serif" font-size="12px" font-style="normal" font-weight="normal" text-decoration="normal" x="240" y="318" text-anchor="start" dominant-baseline="alphabetic" fill-opacity="1">1.5</text><text fill="rgb(37,37,37)" stroke="none" font-family="geogebra-sans-serif, sans-serif" font-size="12px" font-style="normal" font-weight="normal" text-decoration="normal" x="250" y="252" text-anchor="start" dominant-baseline="alphabetic" fill-opacity="1">2</text><text fill="none" stroke="rgb(255,255,255)" font-family="geogebra-sans-serif, sans-serif" font-size="12px" font-style="normal" font-weight="normal" text-decoration="normal" x="250" y="252" text-anchor="start" dominant-baseline="alphabetic" stroke-opacity="1" stroke-linejoin="bevel" stroke-miterlimit="10" stroke-width="3">2</text><text fill="rgb(37,37,37)" stroke="none" font-family="geogebra-sans-serif, sans-serif" font-size="12px" font-style="normal" font-weight="normal" text-decoration="normal" x="250" y="252" text-anchor="start" dominant-baseline="alphabetic" fill-opacity="1">2</text><text fill="rgb(37,37,37)" stroke="none" font-family="geogebra-sans-serif, sans-serif" font-size="12px" font-style="normal" font-weight="normal" text-decoration="normal" x="240" y="186" text-anchor="start" dominant-baseline="alphabetic" fill-opacity="1">2.5</text><text fill="none" stroke="rgb(255,255,255)" font-family="geogebra-sans-serif, sans-serif" font-size="12px" font-style="normal" font-weight="normal" text-decoration="normal" x="240" y="186" text-anchor="start" dominant-baseline="alphabetic" stroke-opacity="1" stroke-linejoin="bevel" stroke-miterlimit="10" stroke-width="3">2.5</text><text fill="rgb(37,37,37)" stroke="none" font-family="geogebra-sans-serif, sans-serif" font-size="12px" font-style="normal" font-weight="normal" text-decoration="normal" x="240" y="186" text-anchor="start" dominant-baseline="alphabetic" fill-opacity="1">2.5</text><text fill="rgb(37,37,37)" stroke="none" font-family="geogebra-sans-serif, sans-serif" font-size="12px" font-style="normal" font-weight="normal" text-decoration="normal" x="250" y="120" text-anchor="start" dominant-baseline="alphabetic" fill-opacity="1">3</text><text fill="none" stroke="rgb(255,255,255)" font-family="geogebra-sans-serif, sans-serif" font-size="12px" font-style="normal" font-weight="normal" text-decoration="normal" x="250" y="120" text-anchor="start" dominant-baseline="alphabetic" stroke-opacity="1" stroke-linejoin="bevel" stroke-miterlimit="10" stroke-width="3">3</text><text fill="rgb(37,37,37)" stroke="none" font-family="geogebra-sans-serif, sans-serif" font-size="12px" font-style="normal" font-weight="normal" text-decoration="normal" x="250" y="120" text-anchor="start" dominant-baseline="alphabetic" fill-opacity="1">3</text><text fill="rgb(37,37,37)" stroke="none" font-family="geogebra-sans-serif, sans-serif" font-size="12px" font-style="normal" font-weight="normal" text-decoration="normal" x="240" y="54" text-anchor="start" dominant-baseline="alphabetic" fill-opacity="1">3.5</text><text fill="none" stroke="rgb(255,255,255)" font-family="geogebra-sans-serif, sans-serif" font-size="12px" font-style="normal" font-weight="normal" text-decoration="normal" x="240" y="54" text-anchor="start" dominant-baseline="alphabetic" stroke-opacity="1" stroke-linejoin="bevel" stroke-miterlimit="10" stroke-width="3">3.5</text><text fill="rgb(37,37,37)" stroke="none" font-family="geogebra-sans-serif, sans-serif" font-size="12px" font-style="normal" font-weight="normal" text-decoration="normal" x="240" y="54" text-anchor="start" dominant-baseline="alphabetic" fill-opacity="1">3.5</text><text fill="rgb(37,37,37)" stroke="none" font-family="geogebra-sans-serif, sans-serif" font-size="12px" font-style="normal" font-weight="normal" text-decoration="normal" x="250" y="528" text-anchor="start" dominant-baseline="alphabetic" fill-opacity="1">0</text><text fill="none" stroke="rgb(255,255,255)" font-family="geogebra-sans-serif, sans-serif" font-size="12px" font-style="normal" font-weight="normal" text-decoration="normal" x="250" y="528" text-anchor="start" dominant-baseline="alphabetic" stroke-opacity="1" stroke-linejoin="bevel" stroke-miterlimit="10" stroke-width="3">0</text><text fill="rgb(37,37,37)" stroke="none" font-family="geogebra-sans-serif, sans-serif" font-size="12px" font-style="normal" font-weight="normal" text-decoration="normal" x="250" y="528" text-anchor="start" dominant-baseline="alphabetic" fill-opacity="1">0</text><path fill="none" stroke="rgb(21,101,192)" paint-order="fill stroke markers" d=" M 396.75 247.59672932249345 C 396.75 320.6363874876158 337.5396581651224 379.8467293224934 264.5 379.8467293224934 C 191.4603418348776 379.8467293224934 132.25000000000003 320.6363874876158 132.25000000000003 247.59672932249345 C 132.25000000000003 174.55707115737104 191.4603418348776 115.34672932249347 264.5 115.34672932249347 C 337.5396581651224 115.34672932249347 396.75 174.55707115737104 396.75 247.59672932249345 Z" stroke-opacity="0.8" stroke-linecap="round" stroke-linejoin="round" stroke-miterlimit="10" stroke-width="2.5"/><path fill="none" stroke="rgb(255,153,51)" paint-order="fill stroke markers" d=" M -5 741.1604486234774 L 534 741.1604486234774" stroke-opacity="0.8" stroke-linecap="round" stroke-linejoin="round" stroke-miterlimit="10" stroke-width="2.5"/><path fill="none" stroke="rgb(192,192,192)" paint-order="fill stroke markers" d=" M 42.27599306237414 897 L 534 45.309036682680805" stroke-opacity="0.6980392156862745" stroke-linecap="round" stroke-linejoin="round" stroke-miterlimit="10" stroke-width="2.5"/><path fill="none" stroke="rgb(192,192,192)" paint-order="fill stroke markers" d=" M 486.72400693762586 897 L -5 45.309036682681" stroke-opacity="0.6980392156862745" stroke-linecap="round" stroke-linejoin="round" stroke-miterlimit="10" stroke-width="2.5"/><path fill="none" stroke="rgb(125,125,255)" paint-order="fill stroke markers" d=" M 132.25000000000006 741.1604486234774 L 396.75 741.1604486234774" stroke-opacity="0.6980392156862745" stroke-linecap="round" stroke-linejoin="round" stroke-miterlimit="10" stroke-width="2.5"/><path fill="rgb(97,97,97)" stroke="none" paint-order="stroke fill markers" d=" M 269.5 512.0967293224934 C 269.5 514.8581530716474 267.26142374915395 517.0967293224934 264.5 517.0967293224934 C 261.73857625084605 517.0967293224934 259.5 514.8581530716474 259.5 512.0967293224934 C 259.5 509.33530557333944 261.73857625084605 507.0967293224934 264.5 507.0967293224934 C 267.26142374915395 507.0967293224934 269.5 509.33530557333944 269.5 512.0967293224934 Z" fill-opacity="1"/><path fill="none" stroke="rgb(0,0,0)" paint-order="fill stroke markers" d=" M 269.5 512.0967293224934 C 269.5 514.8581530716474 267.26142374915395 517.0967293224934 264.5 517.0967293224934 C 261.73857625084605 517.0967293224934 259.5 514.8581530716474 259.5 512.0967293224934 C 259.5 509.33530557333944 261.73857625084605 507.0967293224934 264.5 507.0967293224934 C 267.26142374915395 507.0967293224934 269.5 509.33530557333944 269.5 512.0967293224934 Z" stroke-opacity="1" stroke-linecap="round" stroke-linejoin="round" stroke-miterlimit="10"/><text fill="rgb(97,97,97)" stroke="none" font-family="geogebra-sans-serif, sans-serif" font-size="16px" font-style="normal" font-weight="normal" text-decoration="normal" x="269" y="502" text-anchor="start" dominant-baseline="alphabetic" fill-opacity="1">O</text><text fill="none" stroke="rgb(255,255,255)" font-family="geogebra-sans-serif, sans-serif" font-size="16px" font-style="normal" font-weight="normal" text-decoration="normal" x="269" y="502" text-anchor="start" dominant-baseline="alphabetic" stroke-opacity="1" stroke-linejoin="bevel" stroke-miterlimit="10" stroke-width="3">O</text><text fill="rgb(97,97,97)" stroke="none" font-family="geogebra-sans-serif, sans-serif" font-size="16px" font-style="normal" font-weight="normal" text-decoration="normal" x="269" y="502" text-anchor="start" dominant-baseline="alphabetic" fill-opacity="1">O</text><path fill="rgb(97,97,97)" stroke="none" paint-order="stroke fill markers" d=" M 137.25000000000006 741.1604486234774 C 137.25000000000006 743.9218723726314 135.01142374915403 746.1604486234774 132.25000000000006 746.1604486234774 C 129.48857625084608 746.1604486234774 127.25000000000006 743.9218723726314 127.25000000000006 741.1604486234774 C 127.25000000000006 738.3990248743233 129.48857625084608 736.1604486234774 132.25000000000006 736.1604486234774 C 135.01142374915403 736.1604486234774 137.25000000000006 738.3990248743233 137.25000000000006 741.1604486234774 Z" fill-opacity="1"/><path fill="none" stroke="rgb(0,0,0)" paint-order="fill stroke markers" d=" M 137.25000000000006 741.1604486234774 C 137.25000000000006 743.9218723726314 135.01142374915403 746.1604486234774 132.25000000000006 746.1604486234774 C 129.48857625084608 746.1604486234774 127.25000000000006 743.9218723726314 127.25000000000006 741.1604486234774 C 127.25000000000006 738.3990248743233 129.48857625084608 736.1604486234774 132.25000000000006 736.1604486234774 C 135.01142374915403 736.1604486234774 137.25000000000006 738.3990248743233 137.25000000000006 741.1604486234774 Z" stroke-opacity="1" stroke-linecap="round" stroke-linejoin="round" stroke-miterlimit="10"/><text fill="rgb(97,97,97)" stroke="none" font-family="geogebra-sans-serif, sans-serif" font-size="16px" font-style="normal" font-weight="normal" text-decoration="normal" x="136" y="731" text-anchor="start" dominant-baseline="alphabetic" fill-opacity="1">A</text><text fill="none" stroke="rgb(255,255,255)" font-family="geogebra-sans-serif, sans-serif" font-size="16px" font-style="normal" font-weight="normal" text-decoration="normal" x="136" y="731" text-anchor="start" dominant-baseline="alphabetic" stroke-opacity="1" stroke-linejoin="bevel" stroke-miterlimit="10" stroke-width="3">A</text><text fill="rgb(97,97,97)" stroke="none" font-family="geogebra-sans-serif, sans-serif" font-size="16px" font-style="normal" font-weight="normal" text-decoration="normal" x="136" y="731" text-anchor="start" dominant-baseline="alphabetic" fill-opacity="1">A</text><path fill="rgb(97,97,97)" stroke="none" paint-order="stroke fill markers" d=" M 401.75 741.1604486234774 C 401.75 743.9218723726314 399.51142374915395 746.1604486234774 396.75 746.1604486234774 C 393.98857625084605 746.1604486234774 391.75 743.9218723726314 391.75 741.1604486234774 C 391.75 738.3990248743233 393.98857625084605 736.1604486234774 396.75 736.1604486234774 C 399.51142374915395 736.1604486234774 401.75 738.3990248743233 401.75 741.1604486234774 Z" fill-opacity="1"/><path fill="none" stroke="rgb(0,0,0)" paint-order="fill stroke markers" d=" M 401.75 741.1604486234774 C 401.75 743.9218723726314 399.51142374915395 746.1604486234774 396.75 746.1604486234774 C 393.98857625084605 746.1604486234774 391.75 743.9218723726314 391.75 741.1604486234774 C 391.75 738.3990248743233 393.98857625084605 736.1604486234774 396.75 736.1604486234774 C 399.51142374915395 736.1604486234774 401.75 738.3990248743233 401.75 741.1604486234774 Z" stroke-opacity="1" stroke-linecap="round" stroke-linejoin="round" stroke-miterlimit="10"/><text fill="rgb(97,97,97)" stroke="none" font-family="geogebra-sans-serif, sans-serif" font-size="16px" font-style="normal" font-weight="normal" text-decoration="normal" x="401" y="731" text-anchor="start" dominant-baseline="alphabetic" fill-opacity="1">B</text><text fill="none" stroke="rgb(255,255,255)" font-family="geogebra-sans-serif, sans-serif" font-size="16px" font-style="normal" font-weight="normal" text-decoration="normal" x="401" y="731" text-anchor="start" dominant-baseline="alphabetic" stroke-opacity="1" stroke-linejoin="bevel" stroke-miterlimit="10" stroke-width="3">B</text><text fill="rgb(97,97,97)" stroke="none" font-family="geogebra-sans-serif, sans-serif" font-size="16px" font-style="normal" font-weight="normal" text-decoration="normal" x="401" y="731" text-anchor="start" dominant-baseline="alphabetic" fill-opacity="1">B</text></g></g></svg>