<?xml version="1.0" encoding="UTF-8" standalone="no"?>
<svg width="2340px" height="1260px" viewBox="0 0 2340 1260"
 xmlns="http://www.w3.org/2000/svg" xmlns:xlink="http://www.w3.org/1999/xlink" version="1.2" baseProfile="tiny">
<title>和弦 (1)</title>
<desc>Generated by MuseScore Studio 4.4.4</desc>
<path class="" fill="#ffffff" fill-rule="evenodd" d="M0,0 L2340,0 L2340,1260 L0,1260 L0,0 "/>
<polyline class="StaffLines" fill="none" stroke="#000000" stroke-width="2.73" stroke-linejoin="bevel" points="212.598,386.199 2127.8,386.199"/>
<polyline class="StaffLines" fill="none" stroke="#000000" stroke-width="2.73" stroke-linejoin="bevel" points="212.598,410.999 2127.8,410.999"/>
<polyline class="StaffLines" fill="none" stroke="#000000" stroke-width="2.73" stroke-linejoin="bevel" points="212.598,435.799 2127.8,435.799"/>
<polyline class="StaffLines" fill="none" stroke="#000000" stroke-width="2.73" stroke-linejoin="bevel" points="212.598,460.599 2127.8,460.599"/>
<polyline class="StaffLines" fill="none" stroke="#000000" stroke-width="2.73" stroke-linejoin="bevel" points="212.598,485.399 2127.8,485.399"/>
<polyline class="StaffLines" fill="none" stroke="#000000" stroke-width="2.73" stroke-linejoin="bevel" points="212.598,774.601 2127.8,774.601"/>
<polyline class="StaffLines" fill="none" stroke="#000000" stroke-width="2.73" stroke-linejoin="bevel" points="212.598,799.401 2127.8,799.401"/>
<polyline class="StaffLines" fill="none" stroke="#000000" stroke-width="2.73" stroke-linejoin="bevel" points="212.598,824.201 2127.8,824.201"/>
<polyline class="StaffLines" fill="none" stroke="#000000" stroke-width="2.73" stroke-linejoin="bevel" points="212.598,849.001 2127.8,849.001"/>
<polyline class="StaffLines" fill="none" stroke="#000000" stroke-width="2.73" stroke-linejoin="bevel" points="212.598,873.801 2127.8,873.801"/>
<path class="MeasureNumber" d="M227.63,710.204 C230.755,708.72 233.676,707.079 233.676,703.079 C233.676,699.439 230.598,696.845 226.317,696.845 C221.161,696.845 217.161,700.564 217.161,705.407 C217.161,707.845 218.005,709.407 220.161,710.97 C215.442,712.767 212.911,715.689 212.911,719.329 C212.911,723.204 216.114,725.595 221.239,725.595 C227.395,725.595 231.801,721.845 231.801,716.642 C231.801,713.486 230.083,711.798 227.63,710.204 M225.911,709.251 C221.833,707.329 220.364,705.767 220.364,703.486 C220.364,700.72 222.833,698.564 225.989,698.564 C228.755,698.564 230.676,700.329 230.676,702.845 C230.676,705.845 228.598,708.204 225.911,709.251 M221.676,712.048 C223.598,712.923 224.239,713.236 225.239,713.845 C227.239,715.048 228.317,716.642 228.317,718.439 C228.317,721.517 225.442,723.845 221.676,723.845 C218.27,723.845 216.161,721.923 216.161,718.845 C216.161,715.845 218.083,713.486 221.676,712.048"/>
<polyline class="BarLine" fill="none" stroke="#000000" stroke-width="4.46" stroke-linejoin="bevel" points="609.984,384.835 609.984,486.763"/>
<polyline class="BarLine" fill="none" stroke="#000000" stroke-width="4.46" stroke-linejoin="bevel" points="581.025,773.237 581.025,875.165"/>
<polyline class="BarLine" fill="none" stroke="#000000" stroke-width="4.46" stroke-linejoin="bevel" points="1578.69,384.835 1578.69,486.763"/>
<polyline class="BarLine" fill="none" stroke="#000000" stroke-width="4.46" stroke-linejoin="bevel" points="828.242,773.237 828.242,875.165"/>
<polyline class="BarLine" fill="none" stroke="#000000" stroke-width="4.46" stroke-linejoin="bevel" points="863.637,384.835 863.637,486.763"/>
<polyline class="BarLine" fill="none" stroke="#000000" stroke-width="4.46" stroke-linejoin="bevel" points="2102.75,773.237 2102.75,875.165"/>
<polyline class="BarLine" fill="none" stroke="#000000" stroke-width="13.64" stroke-linejoin="bevel" points="2120.98,773.237 2120.98,875.165"/>
<polyline class="BarLine" fill="none" stroke="#000000" stroke-width="4.46" stroke-linejoin="bevel" points="1075.46,773.237 1075.46,875.165"/>
<polyline class="BarLine" fill="none" stroke="#000000" stroke-width="4.46" stroke-linejoin="bevel" points="2102.75,384.835 2102.75,486.763"/>
<polyline class="BarLine" fill="none" stroke="#000000" stroke-width="13.64" stroke-linejoin="bevel" points="2120.98,384.835 2120.98,486.763"/>
<polyline class="BarLine" fill="none" stroke="#000000" stroke-width="4.46" stroke-linejoin="bevel" points="1825.89,384.835 1825.89,486.763"/>
<polyline class="BarLine" fill="none" stroke="#000000" stroke-width="4.46" stroke-linejoin="bevel" points="1115.31,384.835 1115.31,486.763"/>
<polyline class="BarLine" fill="none" stroke="#000000" stroke-width="4.46" stroke-linejoin="bevel" points="1840.02,773.237 1840.02,875.165"/>
<polyline class="BarLine" fill="none" stroke="#000000" stroke-width="4.46" stroke-linejoin="bevel" points="1592.8,773.237 1592.8,875.165"/>
<polyline class="BarLine" fill="none" stroke="#000000" stroke-width="4.46" stroke-linejoin="bevel" points="1347,384.835 1347,486.763"/>
<polyline class="BarLine" fill="none" stroke="#000000" stroke-width="4.46" stroke-linejoin="bevel" points="1334.13,773.237 1334.13,875.165"/>
<path class="Accidental" transform="matrix(0.992001,0,0,0.992001,1844.25,435.799)" d="M23.2969,-10.5 C23.9063,-10.5938 24.4063,-11.2969 24.4063,-11.9063 L24.4063,-17.7969 C24.4063,-18.7969 23.7031,-19.2031 22.7969,-19.2031 L19.5,-18.5 L19.5,-33.4063 L16.7031,-33.4063 L16.7031,-17.9063 L7.79688,-16.0938 L7.79688,-30.2031 L5,-30.2031 L5,-15.5 L1.09375,-14.7031 C0.5,-14.5938 0,-13.9063 0,-13.2969 L0,-7.5 C0,-6.40625 0.796875,-6.09375 1.70313,-6.09375 L5,-6.79688 L5,9.70313 L1.09375,10.5 C0.5,10.5938 0,11.2969 0,11.9063 L0,17.7031 C0,18.7969 0.796875,19.0938 1.70313,19.0938 L5,18.4063 L5,33.2969 L7.79688,33.2969 L7.79688,17.7969 L16.7031,16 L16.7031,30.1094 L19.5,30.1094 L19.5,15.4063 L23.2969,14.7031 C23.9063,14.5938 24.4063,13.9063 24.4063,13.2969 L24.4063,7.40625 C24.4063,6.40625 23.7031,6 22.7969,6 L19.5,6.70313 L19.5,-9.79688 L23.2969,-10.5 M7.79688,-7.40625 L16.7031,-9.20313 L16.7031,7.29688 L7.79688,9.20313 L7.79688,-7.40625 "/>
<path class="Accidental" transform="matrix(0.992001,0,0,0.992001,881.989,485.399)" d="M23.2969,-10.5 C23.9063,-10.5938 24.4063,-11.2969 24.4063,-11.9063 L24.4063,-17.7969 C24.4063,-18.7969 23.7031,-19.2031 22.7969,-19.2031 L19.5,-18.5 L19.5,-33.4063 L16.7031,-33.4063 L16.7031,-17.9063 L7.79688,-16.0938 L7.79688,-30.2031 L5,-30.2031 L5,-15.5 L1.09375,-14.7031 C0.5,-14.5938 0,-13.9063 0,-13.2969 L0,-7.5 C0,-6.40625 0.796875,-6.09375 1.70313,-6.09375 L5,-6.79688 L5,9.70313 L1.09375,10.5 C0.5,10.5938 0,11.2969 0,11.9063 L0,17.7031 C0,18.7969 0.796875,19.0938 1.70313,19.0938 L5,18.4063 L5,33.2969 L7.79688,33.2969 L7.79688,17.7969 L16.7031,16 L16.7031,30.1094 L19.5,30.1094 L19.5,15.4063 L23.2969,14.7031 C23.9063,14.5938 24.4063,13.9063 24.4063,13.2969 L24.4063,7.40625 C24.4063,6.40625 23.7031,6 22.7969,6 L19.5,6.70313 L19.5,-9.79688 L23.2969,-10.5 M7.79688,-7.40625 L16.7031,-9.20313 L16.7031,7.29688 L7.79688,9.20313 L7.79688,-7.40625 "/>
<path class="Accidental" transform="matrix(0.992001,0,0,0.992001,628.336,497.799)" d="M23.2969,-10.5 C23.9063,-10.5938 24.4063,-11.2969 24.4063,-11.9063 L24.4063,-17.7969 C24.4063,-18.7969 23.7031,-19.2031 22.7969,-19.2031 L19.5,-18.5 L19.5,-33.4063 L16.7031,-33.4063 L16.7031,-17.9063 L7.79688,-16.0938 L7.79688,-30.2031 L5,-30.2031 L5,-15.5 L1.09375,-14.7031 C0.5,-14.5938 0,-13.9063 0,-13.2969 L0,-7.5 C0,-6.40625 0.796875,-6.09375 1.70313,-6.09375 L5,-6.79688 L5,9.70313 L1.09375,10.5 C0.5,10.5938 0,11.2969 0,11.9063 L0,17.7031 C0,18.7969 0.796875,19.0938 1.70313,19.0938 L5,18.4063 L5,33.2969 L7.79688,33.2969 L7.79688,17.7969 L16.7031,16 L16.7031,30.1094 L19.5,30.1094 L19.5,15.4063 L23.2969,14.7031 C23.9063,14.5938 24.4063,13.9063 24.4063,13.2969 L24.4063,7.40625 C24.4063,6.40625 23.7031,6 22.7969,6 L19.5,6.70313 L19.5,-9.79688 L23.2969,-10.5 M7.79688,-7.40625 L16.7031,-9.20313 L16.7031,7.29688 L7.79688,9.20313 L7.79688,-7.40625 "/>
<path class="Accidental" transform="matrix(0.992001,0,0,0.992001,1352.48,849.001)" d="M12,-15.5 C7,-15.5 4.09375,-12.4063 3.59375,-11.7969 L4,-43.9063 C4,-44.7031 3.40625,-45.2969 2.59375,-45.2969 L1.40625,-45.2969 C0.59375,-45.2969 0,-44.7031 0,-43.9063 L0.5,16.2031 C0.5,17 1.09375,17.5938 1.90625,17.5938 C2.09375,17.5938 2.5,17.5 2.70313,17.4063 C11.2969,13.0938 20.2969,4.90625 20.2969,-5.40625 C20.2969,-10.5938 17.9063,-15.5 12,-15.5 M3.29688,12.7031 L3.59375,-6.79688 C3.79688,-7.70313 5.29688,-10.5938 9.29688,-10.5938 C12.9063,-10.5938 13.2031,-7.20313 13.2031,-5.09375 C13.2031,3.79688 9.90625,7.5 3.29688,12.7031"/>
<path class="Accidental" transform="matrix(0.992001,0,0,0.992001,1597.04,448.199)" d="M23.2969,-10.5 C23.9063,-10.5938 24.4063,-11.2969 24.4063,-11.9063 L24.4063,-17.7969 C24.4063,-18.7969 23.7031,-19.2031 22.7969,-19.2031 L19.5,-18.5 L19.5,-33.4063 L16.7031,-33.4063 L16.7031,-17.9063 L7.79688,-16.0938 L7.79688,-30.2031 L5,-30.2031 L5,-15.5 L1.09375,-14.7031 C0.5,-14.5938 0,-13.9063 0,-13.2969 L0,-7.5 C0,-6.40625 0.796875,-6.09375 1.70313,-6.09375 L5,-6.79688 L5,9.70313 L1.09375,10.5 C0.5,10.5938 0,11.2969 0,11.9063 L0,17.7031 C0,18.7969 0.796875,19.0938 1.70313,19.0938 L5,18.4063 L5,33.2969 L7.79688,33.2969 L7.79688,17.7969 L16.7031,16 L16.7031,30.1094 L19.5,30.1094 L19.5,15.4063 L23.2969,14.7031 C23.9063,14.5938 24.4063,13.9063 24.4063,13.2969 L24.4063,7.40625 C24.4063,6.40625 23.7031,6 22.7969,6 L19.5,6.70313 L19.5,-9.79688 L23.2969,-10.5 M7.79688,-7.40625 L16.7031,-9.20313 L16.7031,7.29688 L7.79688,9.20313 L7.79688,-7.40625 "/>
<path class="Accidental" transform="matrix(0.992001,0,0,0.992001,334.258,898.601)" d="M12,-15.5 C7,-15.5 4.09375,-12.4063 3.59375,-11.7969 L4,-43.9063 C4,-44.7031 3.40625,-45.2969 2.59375,-45.2969 L1.40625,-45.2969 C0.59375,-45.2969 0,-44.7031 0,-43.9063 L0.5,16.2031 C0.5,17 1.09375,17.5938 1.90625,17.5938 C2.09375,17.5938 2.5,17.5 2.70313,17.4063 C11.2969,13.0938 20.2969,4.90625 20.2969,-5.40625 C20.2969,-10.5938 17.9063,-15.5 12,-15.5 M3.29688,12.7031 L3.59375,-6.79688 C3.79688,-7.70313 5.29688,-10.5938 9.29688,-10.5938 C12.9063,-10.5938 13.2031,-7.20313 13.2031,-5.09375 C13.2031,3.79688 9.90625,7.5 3.29688,12.7031"/>
<path class="Accidental" transform="matrix(0.992001,0,0,0.992001,1873.9,410.999)" d="M23.2969,-10.5 C23.9063,-10.5938 24.4063,-11.2969 24.4063,-11.9063 L24.4063,-17.7969 C24.4063,-18.7969 23.7031,-19.2031 22.7969,-19.2031 L19.5,-18.5 L19.5,-33.4063 L16.7031,-33.4063 L16.7031,-17.9063 L7.79688,-16.0938 L7.79688,-30.2031 L5,-30.2031 L5,-15.5 L1.09375,-14.7031 C0.5,-14.5938 0,-13.9063 0,-13.2969 L0,-7.5 C0,-6.40625 0.796875,-6.09375 1.70313,-6.09375 L5,-6.79688 L5,9.70313 L1.09375,10.5 C0.5,10.5938 0,11.2969 0,11.9063 L0,17.7031 C0,18.7969 0.796875,19.0938 1.70313,19.0938 L5,18.4063 L5,33.2969 L7.79688,33.2969 L7.79688,17.7969 L16.7031,16 L16.7031,30.1094 L19.5,30.1094 L19.5,15.4063 L23.2969,14.7031 C23.9063,14.5938 24.4063,13.9063 24.4063,13.2969 L24.4063,7.40625 C24.4063,6.40625 23.7031,6 22.7969,6 L19.5,6.70313 L19.5,-9.79688 L23.2969,-10.5 M7.79688,-7.40625 L16.7031,-9.20313 L16.7031,7.29688 L7.79688,9.20313 L7.79688,-7.40625 "/>
<path class="Accidental" transform="matrix(0.992001,0,0,0.992001,1858.37,799.401)" d="M23.2969,-10.5 C23.9063,-10.5938 24.4063,-11.2969 24.4063,-11.9063 L24.4063,-17.7969 C24.4063,-18.7969 23.7031,-19.2031 22.7969,-19.2031 L19.5,-18.5 L19.5,-33.4063 L16.7031,-33.4063 L16.7031,-17.9063 L7.79688,-16.0938 L7.79688,-30.2031 L5,-30.2031 L5,-15.5 L1.09375,-14.7031 C0.5,-14.5938 0,-13.9063 0,-13.2969 L0,-7.5 C0,-6.40625 0.796875,-6.09375 1.70313,-6.09375 L5,-6.79688 L5,9.70313 L1.09375,10.5 C0.5,10.5938 0,11.2969 0,11.9063 L0,17.7031 C0,18.7969 0.796875,19.0938 1.70313,19.0938 L5,18.4063 L5,33.2969 L7.79688,33.2969 L7.79688,17.7969 L16.7031,16 L16.7031,30.1094 L19.5,30.1094 L19.5,15.4063 L23.2969,14.7031 C23.9063,14.5938 24.4063,13.9063 24.4063,13.2969 L24.4063,7.40625 C24.4063,6.40625 23.7031,6 22.7969,6 L19.5,6.70313 L19.5,-9.79688 L23.2969,-10.5 M7.79688,-7.40625 L16.7031,-9.20313 L16.7031,7.29688 L7.79688,9.20313 L7.79688,-7.40625 "/>
<path class="Accidental" transform="matrix(0.992001,0,0,0.992001,1093.81,861.401)" d="M12,-15.5 C7,-15.5 4.09375,-12.4063 3.59375,-11.7969 L4,-43.9063 C4,-44.7031 3.40625,-45.2969 2.59375,-45.2969 L1.40625,-45.2969 C0.59375,-45.2969 0,-44.7031 0,-43.9063 L0.5,16.2031 C0.5,17 1.09375,17.5938 1.90625,17.5938 C2.09375,17.5938 2.5,17.5 2.70313,17.4063 C11.2969,13.0938 20.2969,4.90625 20.2969,-5.40625 C20.2969,-10.5938 17.9063,-15.5 12,-15.5 M3.29688,12.7031 L3.59375,-6.79688 C3.79688,-7.70313 5.29688,-10.5938 9.29688,-10.5938 C12.9063,-10.5938 13.2031,-7.20313 13.2031,-5.09375 C13.2031,3.79688 9.90625,7.5 3.29688,12.7031"/>
<polyline class="LedgerLine" fill="none" stroke="#000000" stroke-width="3.97" stroke-linejoin="bevel" points="853.29,898.601 906.657,898.601"/>
<polyline class="LedgerLine" fill="none" stroke="#000000" stroke-width="3.97" stroke-linejoin="bevel" points="1140.36,510.199 1193.72,510.199"/>
<polyline class="LedgerLine" fill="none" stroke="#000000" stroke-width="3.97" stroke-linejoin="bevel" points="1111.96,898.601 1165.33,898.601"/>
<polyline class="LedgerLine" fill="none" stroke="#000000" stroke-width="3.97" stroke-linejoin="bevel" points="403.342,510.199 456.708,510.199"/>
<polyline class="LedgerLine" fill="none" stroke="#000000" stroke-width="3.97" stroke-linejoin="bevel" points="403.342,534.999 456.708,534.999"/>
<polyline class="LedgerLine" fill="none" stroke="#000000" stroke-width="3.97" stroke-linejoin="bevel" points="358.857,898.601 412.223,898.601"/>
<polyline class="LedgerLine" fill="none" stroke="#000000" stroke-width="3.97" stroke-linejoin="bevel" points="908.665,510.199 962.032,510.199"/>
<polyline class="LedgerLine" fill="none" stroke="#000000" stroke-width="3.97" stroke-linejoin="bevel" points="358.857,923.401 412.223,923.401"/>
<polyline class="LedgerLine" fill="none" stroke="#000000" stroke-width="3.97" stroke-linejoin="bevel" points="606.073,898.601 659.44,898.601"/>
<polyline class="LedgerLine" fill="none" stroke="#000000" stroke-width="3.97" stroke-linejoin="bevel" points="656.995,510.199 710.362,510.199"/>
<path class="Note" transform="matrix(0.992001,0,0,0.992001,665.179,472.999)" d="M18.7031,-13.5938 C4.90625,-13.5938 0,-6.59375 0,-0.09375 C0,6.40625 4.90625,13.4063 18.7031,13.4063 C32.5,13.4063 37.2969,6.40625 37.2969,-0.09375 C37.2969,-6.59375 32.5,-13.5938 18.7031,-13.5938 M19.5,10.2031 C16.7031,10.2031 14.7969,9.40625 13.5,6.90625 C12.2031,4.40625 10.4063,-2.09375 10.2969,-4.70313 C10.0938,-7.40625 11.0938,-9 13.5,-9.79688 C14.7031,-10.2031 16.2969,-10.4063 17.9063,-10.4063 C20.5938,-10.4063 22.4063,-9.79688 23.7969,-7.09375 C25.2031,-4.5 27.1094,2 27.1094,4.5 C27.1094,9.40625 23.5,10.2031 19.5,10.2031"/>
<path class="Note" transform="matrix(0.992001,0,0,0.992001,1148.54,497.799)" d="M18.7031,-13.5938 C4.90625,-13.5938 0,-6.59375 0,-0.09375 C0,6.40625 4.90625,13.4063 18.7031,13.4063 C32.5,13.4063 37.2969,6.40625 37.2969,-0.09375 C37.2969,-6.59375 32.5,-13.5938 18.7031,-13.5938 M19.5,10.2031 C16.7031,10.2031 14.7969,9.40625 13.5,6.90625 C12.2031,4.40625 10.4063,-2.09375 10.2969,-4.70313 C10.0938,-7.40625 11.0938,-9 13.5,-9.79688 C14.7031,-10.2031 16.2969,-10.4063 17.9063,-10.4063 C20.5938,-10.4063 22.4063,-9.79688 23.7969,-7.09375 C25.2031,-4.5 27.1094,2 27.1094,4.5 C27.1094,9.40625 23.5,10.2031 19.5,10.2031"/>
<path class="Note" transform="matrix(0.992001,0,0,0.992001,1888.77,849.001)" d="M18.7031,-13.5938 C4.90625,-13.5938 0,-6.59375 0,-0.09375 C0,6.40625 4.90625,13.4063 18.7031,13.4063 C32.5,13.4063 37.2969,6.40625 37.2969,-0.09375 C37.2969,-6.59375 32.5,-13.5938 18.7031,-13.5938 M19.5,10.2031 C16.7031,10.2031 14.7969,9.40625 13.5,6.90625 C12.2031,4.40625 10.4063,-2.09375 10.2969,-4.70313 C10.0938,-7.40625 11.0938,-9 13.5,-9.79688 C14.7031,-10.2031 16.2969,-10.4063 17.9063,-10.4063 C20.5938,-10.4063 22.4063,-9.79688 23.7969,-7.09375 C25.2031,-4.5 27.1094,2 27.1094,4.5 C27.1094,9.40625 23.5,10.2031 19.5,10.2031"/>
<path class="Note" transform="matrix(0.992001,0,0,0.992001,411.526,534.999)" d="M18.7031,-13.5938 C4.90625,-13.5938 0,-6.59375 0,-0.09375 C0,6.40625 4.90625,13.4063 18.7031,13.4063 C32.5,13.4063 37.2969,6.40625 37.2969,-0.09375 C37.2969,-6.59375 32.5,-13.5938 18.7031,-13.5938 M19.5,10.2031 C16.7031,10.2031 14.7969,9.40625 13.5,6.90625 C12.2031,4.40625 10.4063,-2.09375 10.2969,-4.70313 C10.0938,-7.40625 11.0938,-9 13.5,-9.79688 C14.7031,-10.2031 16.2969,-10.4063 17.9063,-10.4063 C20.5938,-10.4063 22.4063,-9.79688 23.7969,-7.09375 C25.2031,-4.5 27.1094,2 27.1094,4.5 C27.1094,9.40625 23.5,10.2031 19.5,10.2031"/>
<path class="Note" transform="matrix(0.992001,0,0,0.992001,411.526,510.199)" d="M18.7031,-13.5938 C4.90625,-13.5938 0,-6.59375 0,-0.09375 C0,6.40625 4.90625,13.4063 18.7031,13.4063 C32.5,13.4063 37.2969,6.40625 37.2969,-0.09375 C37.2969,-6.59375 32.5,-13.5938 18.7031,-13.5938 M19.5,10.2031 C16.7031,10.2031 14.7969,9.40625 13.5,6.90625 C12.2031,4.40625 10.4063,-2.09375 10.2969,-4.70313 C10.0938,-7.40625 11.0938,-9 13.5,-9.79688 C14.7031,-10.2031 16.2969,-10.4063 17.9063,-10.4063 C20.5938,-10.4063 22.4063,-9.79688 23.7969,-7.09375 C25.2031,-4.5 27.1094,2 27.1094,4.5 C27.1094,9.40625 23.5,10.2031 19.5,10.2031"/>
<path class="Note" transform="matrix(0.992001,0,0,0.992001,411.526,485.399)" d="M18.7031,-13.5938 C4.90625,-13.5938 0,-6.59375 0,-0.09375 C0,6.40625 4.90625,13.4063 18.7031,13.4063 C32.5,13.4063 37.2969,6.40625 37.2969,-0.09375 C37.2969,-6.59375 32.5,-13.5938 18.7031,-13.5938 M19.5,10.2031 C16.7031,10.2031 14.7969,9.40625 13.5,6.90625 C12.2031,4.40625 10.4063,-2.09375 10.2969,-4.70313 C10.0938,-7.40625 11.0938,-9 13.5,-9.79688 C14.7031,-10.2031 16.2969,-10.4063 17.9063,-10.4063 C20.5938,-10.4063 22.4063,-9.79688 23.7969,-7.09375 C25.2031,-4.5 27.1094,2 27.1094,4.5 C27.1094,9.40625 23.5,10.2031 19.5,10.2031"/>
<path class="Note" transform="matrix(0.992001,0,0,0.992001,1627.43,423.399)" d="M18.7031,-13.5938 C4.90625,-13.5938 0,-6.59375 0,-0.09375 C0,6.40625 4.90625,13.4063 18.7031,13.4063 C32.5,13.4063 37.2969,6.40625 37.2969,-0.09375 C37.2969,-6.59375 32.5,-13.5938 18.7031,-13.5938 M19.5,10.2031 C16.7031,10.2031 14.7969,9.40625 13.5,6.90625 C12.2031,4.40625 10.4063,-2.09375 10.2969,-4.70313 C10.0938,-7.40625 11.0938,-9 13.5,-9.79688 C14.7031,-10.2031 16.2969,-10.4063 17.9063,-10.4063 C20.5938,-10.4063 22.4063,-9.79688 23.7969,-7.09375 C25.2031,-4.5 27.1094,2 27.1094,4.5 C27.1094,9.40625 23.5,10.2031 19.5,10.2031"/>
<path class="Note" transform="matrix(0.992001,0,0,0.992001,665.179,522.599)" d="M18.7031,-13.5938 C4.90625,-13.5938 0,-6.59375 0,-0.09375 C0,6.40625 4.90625,13.4063 18.7031,13.4063 C32.5,13.4063 37.2969,6.40625 37.2969,-0.09375 C37.2969,-6.59375 32.5,-13.5938 18.7031,-13.5938 M19.5,10.2031 C16.7031,10.2031 14.7969,9.40625 13.5,6.90625 C12.2031,4.40625 10.4063,-2.09375 10.2969,-4.70313 C10.0938,-7.40625 11.0938,-9 13.5,-9.79688 C14.7031,-10.2031 16.2969,-10.4063 17.9063,-10.4063 C20.5938,-10.4063 22.4063,-9.79688 23.7969,-7.09375 C25.2031,-4.5 27.1094,2 27.1094,4.5 C27.1094,9.40625 23.5,10.2031 19.5,10.2031"/>
<path class="Note" transform="matrix(0.992001,0,0,0.992001,1904.29,410.999)" d="M18.7031,-13.5938 C4.90625,-13.5938 0,-6.59375 0,-0.09375 C0,6.40625 4.90625,13.4063 18.7031,13.4063 C32.5,13.4063 37.2969,6.40625 37.2969,-0.09375 C37.2969,-6.59375 32.5,-13.5938 18.7031,-13.5938 M19.5,10.2031 C16.7031,10.2031 14.7969,9.40625 13.5,6.90625 C12.2031,4.40625 10.4063,-2.09375 10.2969,-4.70313 C10.0938,-7.40625 11.0938,-9 13.5,-9.79688 C14.7031,-10.2031 16.2969,-10.4063 17.9063,-10.4063 C20.5938,-10.4063 22.4063,-9.79688 23.7969,-7.09375 C25.2031,-4.5 27.1094,2 27.1094,4.5 C27.1094,9.40625 23.5,10.2031 19.5,10.2031"/>
<path class="Note" transform="matrix(0.992001,0,0,0.992001,861.474,873.801)" d="M18.7031,-13.5938 C4.90625,-13.5938 0,-6.59375 0,-0.09375 C0,6.40625 4.90625,13.4063 18.7031,13.4063 C32.5,13.4063 37.2969,6.40625 37.2969,-0.09375 C37.2969,-6.59375 32.5,-13.5938 18.7031,-13.5938 M19.5,10.2031 C16.7031,10.2031 14.7969,9.40625 13.5,6.90625 C12.2031,4.40625 10.4063,-2.09375 10.2969,-4.70313 C10.0938,-7.40625 11.0938,-9 13.5,-9.79688 C14.7031,-10.2031 16.2969,-10.4063 17.9063,-10.4063 C20.5938,-10.4063 22.4063,-9.79688 23.7969,-7.09375 C25.2031,-4.5 27.1094,2 27.1094,4.5 C27.1094,9.40625 23.5,10.2031 19.5,10.2031"/>
<path class="Note" transform="matrix(0.992001,0,0,0.992001,916.849,510.199)" d="M18.7031,-13.5938 C4.90625,-13.5938 0,-6.59375 0,-0.09375 C0,6.40625 4.90625,13.4063 18.7031,13.4063 C32.5,13.4063 37.2969,6.40625 37.2969,-0.09375 C37.2969,-6.59375 32.5,-13.5938 18.7031,-13.5938 M19.5,10.2031 C16.7031,10.2031 14.7969,9.40625 13.5,6.90625 C12.2031,4.40625 10.4063,-2.09375 10.2969,-4.70313 C10.0938,-7.40625 11.0938,-9 13.5,-9.79688 C14.7031,-10.2031 16.2969,-10.4063 17.9063,-10.4063 C20.5938,-10.4063 22.4063,-9.79688 23.7969,-7.09375 C25.2031,-4.5 27.1094,2 27.1094,4.5 C27.1094,9.40625 23.5,10.2031 19.5,10.2031"/>
<path class="Note" transform="matrix(0.992001,0,0,0.992001,916.849,485.399)" d="M18.7031,-13.5938 C4.90625,-13.5938 0,-6.59375 0,-0.09375 C0,6.40625 4.90625,13.4063 18.7031,13.4063 C32.5,13.4063 37.2969,6.40625 37.2969,-0.09375 C37.2969,-6.59375 32.5,-13.5938 18.7031,-13.5938 M19.5,10.2031 C16.7031,10.2031 14.7969,9.40625 13.5,6.90625 C12.2031,4.40625 10.4063,-2.09375 10.2969,-4.70313 C10.0938,-7.40625 11.0938,-9 13.5,-9.79688 C14.7031,-10.2031 16.2969,-10.4063 17.9063,-10.4063 C20.5938,-10.4063 22.4063,-9.79688 23.7969,-7.09375 C25.2031,-4.5 27.1094,2 27.1094,4.5 C27.1094,9.40625 23.5,10.2031 19.5,10.2031"/>
<path class="Note" transform="matrix(0.992001,0,0,0.992001,916.849,460.599)" d="M18.7031,-13.5938 C4.90625,-13.5938 0,-6.59375 0,-0.09375 C0,6.40625 4.90625,13.4063 18.7031,13.4063 C32.5,13.4063 37.2969,6.40625 37.2969,-0.09375 C37.2969,-6.59375 32.5,-13.5938 18.7031,-13.5938 M19.5,10.2031 C16.7031,10.2031 14.7969,9.40625 13.5,6.90625 C12.2031,4.40625 10.4063,-2.09375 10.2969,-4.70313 C10.0938,-7.40625 11.0938,-9 13.5,-9.79688 C14.7031,-10.2031 16.2969,-10.4063 17.9063,-10.4063 C20.5938,-10.4063 22.4063,-9.79688 23.7969,-7.09375 C25.2031,-4.5 27.1094,2 27.1094,4.5 C27.1094,9.40625 23.5,10.2031 19.5,10.2031"/>
<path class="Note" transform="matrix(0.992001,0,0,0.992001,1888.77,824.201)" d="M18.7031,-13.5938 C4.90625,-13.5938 0,-6.59375 0,-0.09375 C0,6.40625 4.90625,13.4063 18.7031,13.4063 C32.5,13.4063 37.2969,6.40625 37.2969,-0.09375 C37.2969,-6.59375 32.5,-13.5938 18.7031,-13.5938 M19.5,10.2031 C16.7031,10.2031 14.7969,9.40625 13.5,6.90625 C12.2031,4.40625 10.4063,-2.09375 10.2969,-4.70313 C10.0938,-7.40625 11.0938,-9 13.5,-9.79688 C14.7031,-10.2031 16.2969,-10.4063 17.9063,-10.4063 C20.5938,-10.4063 22.4063,-9.79688 23.7969,-7.09375 C25.2031,-4.5 27.1094,2 27.1094,4.5 C27.1094,9.40625 23.5,10.2031 19.5,10.2031"/>
<path class="Note" transform="matrix(0.992001,0,0,0.992001,367.041,923.401)" d="M18.7031,-13.5938 C4.90625,-13.5938 0,-6.59375 0,-0.09375 C0,6.40625 4.90625,13.4063 18.7031,13.4063 C32.5,13.4063 37.2969,6.40625 37.2969,-0.09375 C37.2969,-6.59375 32.5,-13.5938 18.7031,-13.5938 M19.5,10.2031 C16.7031,10.2031 14.7969,9.40625 13.5,6.90625 C12.2031,4.40625 10.4063,-2.09375 10.2969,-4.70313 C10.0938,-7.40625 11.0938,-9 13.5,-9.79688 C14.7031,-10.2031 16.2969,-10.4063 17.9063,-10.4063 C20.5938,-10.4063 22.4063,-9.79688 23.7969,-7.09375 C25.2031,-4.5 27.1094,2 27.1094,4.5 C27.1094,9.40625 23.5,10.2031 19.5,10.2031"/>
<path class="Note" transform="matrix(0.992001,0,0,0.992001,367.041,898.601)" d="M18.7031,-13.5938 C4.90625,-13.5938 0,-6.59375 0,-0.09375 C0,6.40625 4.90625,13.4063 18.7031,13.4063 C32.5,13.4063 37.2969,6.40625 37.2969,-0.09375 C37.2969,-6.59375 32.5,-13.5938 18.7031,-13.5938 M19.5,10.2031 C16.7031,10.2031 14.7969,9.40625 13.5,6.90625 C12.2031,4.40625 10.4063,-2.09375 10.2969,-4.70313 C10.0938,-7.40625 11.0938,-9 13.5,-9.79688 C14.7031,-10.2031 16.2969,-10.4063 17.9063,-10.4063 C20.5938,-10.4063 22.4063,-9.79688 23.7969,-7.09375 C25.2031,-4.5 27.1094,2 27.1094,4.5 C27.1094,9.40625 23.5,10.2031 19.5,10.2031"/>
<path class="Note" transform="matrix(0.992001,0,0,0.992001,1888.77,799.401)" d="M18.7031,-13.5938 C4.90625,-13.5938 0,-6.59375 0,-0.09375 C0,6.40625 4.90625,13.4063 18.7031,13.4063 C32.5,13.4063 37.2969,6.40625 37.2969,-0.09375 C37.2969,-6.59375 32.5,-13.5938 18.7031,-13.5938 M19.5,10.2031 C16.7031,10.2031 14.7969,9.40625 13.5,6.90625 C12.2031,4.40625 10.4063,-2.09375 10.2969,-4.70313 C10.0938,-7.40625 11.0938,-9 13.5,-9.79688 C14.7031,-10.2031 16.2969,-10.4063 17.9063,-10.4063 C20.5938,-10.4063 22.4063,-9.79688 23.7969,-7.09375 C25.2031,-4.5 27.1094,2 27.1094,4.5 C27.1094,9.40625 23.5,10.2031 19.5,10.2031"/>
<path class="Note" transform="matrix(0.992001,0,0,0.992001,367.041,873.801)" d="M18.7031,-13.5938 C4.90625,-13.5938 0,-6.59375 0,-0.09375 C0,6.40625 4.90625,13.4063 18.7031,13.4063 C32.5,13.4063 37.2969,6.40625 37.2969,-0.09375 C37.2969,-6.59375 32.5,-13.5938 18.7031,-13.5938 M19.5,10.2031 C16.7031,10.2031 14.7969,9.40625 13.5,6.90625 C12.2031,4.40625 10.4063,-2.09375 10.2969,-4.70313 C10.0938,-7.40625 11.0938,-9 13.5,-9.79688 C14.7031,-10.2031 16.2969,-10.4063 17.9063,-10.4063 C20.5938,-10.4063 22.4063,-9.79688 23.7969,-7.09375 C25.2031,-4.5 27.1094,2 27.1094,4.5 C27.1094,9.40625 23.5,10.2031 19.5,10.2031"/>
<path class="Note" transform="matrix(0.992001,0,0,0.992001,861.474,849.001)" d="M18.7031,-13.5938 C4.90625,-13.5938 0,-6.59375 0,-0.09375 C0,6.40625 4.90625,13.4063 18.7031,13.4063 C32.5,13.4063 37.2969,6.40625 37.2969,-0.09375 C37.2969,-6.59375 32.5,-13.5938 18.7031,-13.5938 M19.5,10.2031 C16.7031,10.2031 14.7969,9.40625 13.5,6.90625 C12.2031,4.40625 10.4063,-2.09375 10.2969,-4.70313 C10.0938,-7.40625 11.0938,-9 13.5,-9.79688 C14.7031,-10.2031 16.2969,-10.4063 17.9063,-10.4063 C20.5938,-10.4063 22.4063,-9.79688 23.7969,-7.09375 C25.2031,-4.5 27.1094,2 27.1094,4.5 C27.1094,9.40625 23.5,10.2031 19.5,10.2031"/>
<path class="Note" transform="matrix(0.992001,0,0,0.992001,1904.29,435.799)" d="M18.7031,-13.5938 C4.90625,-13.5938 0,-6.59375 0,-0.09375 C0,6.40625 4.90625,13.4063 18.7031,13.4063 C32.5,13.4063 37.2969,6.40625 37.2969,-0.09375 C37.2969,-6.59375 32.5,-13.5938 18.7031,-13.5938 M19.5,10.2031 C16.7031,10.2031 14.7969,9.40625 13.5,6.90625 C12.2031,4.40625 10.4063,-2.09375 10.2969,-4.70313 C10.0938,-7.40625 11.0938,-9 13.5,-9.79688 C14.7031,-10.2031 16.2969,-10.4063 17.9063,-10.4063 C20.5938,-10.4063 22.4063,-9.79688 23.7969,-7.09375 C25.2031,-4.5 27.1094,2 27.1094,4.5 C27.1094,9.40625 23.5,10.2031 19.5,10.2031"/>
<path class="Note" transform="matrix(0.992001,0,0,0.992001,1904.29,460.599)" d="M18.7031,-13.5938 C4.90625,-13.5938 0,-6.59375 0,-0.09375 C0,6.40625 4.90625,13.4063 18.7031,13.4063 C32.5,13.4063 37.2969,6.40625 37.2969,-0.09375 C37.2969,-6.59375 32.5,-13.5938 18.7031,-13.5938 M19.5,10.2031 C16.7031,10.2031 14.7969,9.40625 13.5,6.90625 C12.2031,4.40625 10.4063,-2.09375 10.2969,-4.70313 C10.0938,-7.40625 11.0938,-9 13.5,-9.79688 C14.7031,-10.2031 16.2969,-10.4063 17.9063,-10.4063 C20.5938,-10.4063 22.4063,-9.79688 23.7969,-7.09375 C25.2031,-4.5 27.1094,2 27.1094,4.5 C27.1094,9.40625 23.5,10.2031 19.5,10.2031"/>
<path class="Note" transform="matrix(0.992001,0,0,0.992001,665.179,497.799)" d="M18.7031,-13.5938 C4.90625,-13.5938 0,-6.59375 0,-0.09375 C0,6.40625 4.90625,13.4063 18.7031,13.4063 C32.5,13.4063 37.2969,6.40625 37.2969,-0.09375 C37.2969,-6.59375 32.5,-13.5938 18.7031,-13.5938 M19.5,10.2031 C16.7031,10.2031 14.7969,9.40625 13.5,6.90625 C12.2031,4.40625 10.4063,-2.09375 10.2969,-4.70313 C10.0938,-7.40625 11.0938,-9 13.5,-9.79688 C14.7031,-10.2031 16.2969,-10.4063 17.9063,-10.4063 C20.5938,-10.4063 22.4063,-9.79688 23.7969,-7.09375 C25.2031,-4.5 27.1094,2 27.1094,4.5 C27.1094,9.40625 23.5,10.2031 19.5,10.2031"/>
<path class="Note" transform="matrix(0.992001,0,0,0.992001,614.257,911.001)" d="M18.7031,-13.5938 C4.90625,-13.5938 0,-6.59375 0,-0.09375 C0,6.40625 4.90625,13.4063 18.7031,13.4063 C32.5,13.4063 37.2969,6.40625 37.2969,-0.09375 C37.2969,-6.59375 32.5,-13.5938 18.7031,-13.5938 M19.5,10.2031 C16.7031,10.2031 14.7969,9.40625 13.5,6.90625 C12.2031,4.40625 10.4063,-2.09375 10.2969,-4.70313 C10.0938,-7.40625 11.0938,-9 13.5,-9.79688 C14.7031,-10.2031 16.2969,-10.4063 17.9063,-10.4063 C20.5938,-10.4063 22.4063,-9.79688 23.7969,-7.09375 C25.2031,-4.5 27.1094,2 27.1094,4.5 C27.1094,9.40625 23.5,10.2031 19.5,10.2031"/>
<path class="Note" transform="matrix(0.992001,0,0,0.992001,614.257,886.201)" d="M18.7031,-13.5938 C4.90625,-13.5938 0,-6.59375 0,-0.09375 C0,6.40625 4.90625,13.4063 18.7031,13.4063 C32.5,13.4063 37.2969,6.40625 37.2969,-0.09375 C37.2969,-6.59375 32.5,-13.5938 18.7031,-13.5938 M19.5,10.2031 C16.7031,10.2031 14.7969,9.40625 13.5,6.90625 C12.2031,4.40625 10.4063,-2.09375 10.2969,-4.70313 C10.0938,-7.40625 11.0938,-9 13.5,-9.79688 C14.7031,-10.2031 16.2969,-10.4063 17.9063,-10.4063 C20.5938,-10.4063 22.4063,-9.79688 23.7969,-7.09375 C25.2031,-4.5 27.1094,2 27.1094,4.5 C27.1094,9.40625 23.5,10.2031 19.5,10.2031"/>
<path class="Note" transform="matrix(0.992001,0,0,0.992001,614.257,861.401)" d="M18.7031,-13.5938 C4.90625,-13.5938 0,-6.59375 0,-0.09375 C0,6.40625 4.90625,13.4063 18.7031,13.4063 C32.5,13.4063 37.2969,6.40625 37.2969,-0.09375 C37.2969,-6.59375 32.5,-13.5938 18.7031,-13.5938 M19.5,10.2031 C16.7031,10.2031 14.7969,9.40625 13.5,6.90625 C12.2031,4.40625 10.4063,-2.09375 10.2969,-4.70313 C10.0938,-7.40625 11.0938,-9 13.5,-9.79688 C14.7031,-10.2031 16.2969,-10.4063 17.9063,-10.4063 C20.5938,-10.4063 22.4063,-9.79688 23.7969,-7.09375 C25.2031,-4.5 27.1094,2 27.1094,4.5 C27.1094,9.40625 23.5,10.2031 19.5,10.2031"/>
<path class="Note" transform="matrix(0.992001,0,0,0.992001,861.474,898.601)" d="M18.7031,-13.5938 C4.90625,-13.5938 0,-6.59375 0,-0.09375 C0,6.40625 4.90625,13.4063 18.7031,13.4063 C32.5,13.4063 37.2969,6.40625 37.2969,-0.09375 C37.2969,-6.59375 32.5,-13.5938 18.7031,-13.5938 M19.5,10.2031 C16.7031,10.2031 14.7969,9.40625 13.5,6.90625 C12.2031,4.40625 10.4063,-2.09375 10.2969,-4.70313 C10.0938,-7.40625 11.0938,-9 13.5,-9.79688 C14.7031,-10.2031 16.2969,-10.4063 17.9063,-10.4063 C20.5938,-10.4063 22.4063,-9.79688 23.7969,-7.09375 C25.2031,-4.5 27.1094,2 27.1094,4.5 C27.1094,9.40625 23.5,10.2031 19.5,10.2031"/>
<path class="Note" transform="matrix(0.992001,0,0,0.992001,1627.43,472.999)" d="M18.7031,-13.5938 C4.90625,-13.5938 0,-6.59375 0,-0.09375 C0,6.40625 4.90625,13.4063 18.7031,13.4063 C32.5,13.4063 37.2969,6.40625 37.2969,-0.09375 C37.2969,-6.59375 32.5,-13.5938 18.7031,-13.5938 M19.5,10.2031 C16.7031,10.2031 14.7969,9.40625 13.5,6.90625 C12.2031,4.40625 10.4063,-2.09375 10.2969,-4.70313 C10.0938,-7.40625 11.0938,-9 13.5,-9.79688 C14.7031,-10.2031 16.2969,-10.4063 17.9063,-10.4063 C20.5938,-10.4063 22.4063,-9.79688 23.7969,-7.09375 C25.2031,-4.5 27.1094,2 27.1094,4.5 C27.1094,9.40625 23.5,10.2031 19.5,10.2031"/>
<path class="Note" transform="matrix(0.992001,0,0,0.992001,1120.15,886.201)" d="M18.7031,-13.5938 C4.90625,-13.5938 0,-6.59375 0,-0.09375 C0,6.40625 4.90625,13.4063 18.7031,13.4063 C32.5,13.4063 37.2969,6.40625 37.2969,-0.09375 C37.2969,-6.59375 32.5,-13.5938 18.7031,-13.5938 M19.5,10.2031 C16.7031,10.2031 14.7969,9.40625 13.5,6.90625 C12.2031,4.40625 10.4063,-2.09375 10.2969,-4.70313 C10.0938,-7.40625 11.0938,-9 13.5,-9.79688 C14.7031,-10.2031 16.2969,-10.4063 17.9063,-10.4063 C20.5938,-10.4063 22.4063,-9.79688 23.7969,-7.09375 C25.2031,-4.5 27.1094,2 27.1094,4.5 C27.1094,9.40625 23.5,10.2031 19.5,10.2031"/>
<path class="Note" transform="matrix(0.992001,0,0,0.992001,1120.15,861.401)" d="M18.7031,-13.5938 C4.90625,-13.5938 0,-6.59375 0,-0.09375 C0,6.40625 4.90625,13.4063 18.7031,13.4063 C32.5,13.4063 37.2969,6.40625 37.2969,-0.09375 C37.2969,-6.59375 32.5,-13.5938 18.7031,-13.5938 M19.5,10.2031 C16.7031,10.2031 14.7969,9.40625 13.5,6.90625 C12.2031,4.40625 10.4063,-2.09375 10.2969,-4.70313 C10.0938,-7.40625 11.0938,-9 13.5,-9.79688 C14.7031,-10.2031 16.2969,-10.4063 17.9063,-10.4063 C20.5938,-10.4063 22.4063,-9.79688 23.7969,-7.09375 C25.2031,-4.5 27.1094,2 27.1094,4.5 C27.1094,9.40625 23.5,10.2031 19.5,10.2031"/>
<path class="Note" transform="matrix(0.992001,0,0,0.992001,1380.23,435.799)" d="M18.7031,-13.5938 C4.90625,-13.5938 0,-6.59375 0,-0.09375 C0,6.40625 4.90625,13.4063 18.7031,13.4063 C32.5,13.4063 37.2969,6.40625 37.2969,-0.09375 C37.2969,-6.59375 32.5,-13.5938 18.7031,-13.5938 M19.5,10.2031 C16.7031,10.2031 14.7969,9.40625 13.5,6.90625 C12.2031,4.40625 10.4063,-2.09375 10.2969,-4.70313 C10.0938,-7.40625 11.0938,-9 13.5,-9.79688 C14.7031,-10.2031 16.2969,-10.4063 17.9063,-10.4063 C20.5938,-10.4063 22.4063,-9.79688 23.7969,-7.09375 C25.2031,-4.5 27.1094,2 27.1094,4.5 C27.1094,9.40625 23.5,10.2031 19.5,10.2031"/>
<path class="Note" transform="matrix(0.992001,0,0,0.992001,1120.15,836.601)" d="M18.7031,-13.5938 C4.90625,-13.5938 0,-6.59375 0,-0.09375 C0,6.40625 4.90625,13.4063 18.7031,13.4063 C32.5,13.4063 37.2969,6.40625 37.2969,-0.09375 C37.2969,-6.59375 32.5,-13.5938 18.7031,-13.5938 M19.5,10.2031 C16.7031,10.2031 14.7969,9.40625 13.5,6.90625 C12.2031,4.40625 10.4063,-2.09375 10.2969,-4.70313 C10.0938,-7.40625 11.0938,-9 13.5,-9.79688 C14.7031,-10.2031 16.2969,-10.4063 17.9063,-10.4063 C20.5938,-10.4063 22.4063,-9.79688 23.7969,-7.09375 C25.2031,-4.5 27.1094,2 27.1094,4.5 C27.1094,9.40625 23.5,10.2031 19.5,10.2031"/>
<path class="Note" transform="matrix(0.992001,0,0,0.992001,1380.23,460.599)" d="M18.7031,-13.5938 C4.90625,-13.5938 0,-6.59375 0,-0.09375 C0,6.40625 4.90625,13.4063 18.7031,13.4063 C32.5,13.4063 37.2969,6.40625 37.2969,-0.09375 C37.2969,-6.59375 32.5,-13.5938 18.7031,-13.5938 M19.5,10.2031 C16.7031,10.2031 14.7969,9.40625 13.5,6.90625 C12.2031,4.40625 10.4063,-2.09375 10.2969,-4.70313 C10.0938,-7.40625 11.0938,-9 13.5,-9.79688 C14.7031,-10.2031 16.2969,-10.4063 17.9063,-10.4063 C20.5938,-10.4063 22.4063,-9.79688 23.7969,-7.09375 C25.2031,-4.5 27.1094,2 27.1094,4.5 C27.1094,9.40625 23.5,10.2031 19.5,10.2031"/>
<path class="Note" transform="matrix(0.992001,0,0,0.992001,1380.23,485.399)" d="M18.7031,-13.5938 C4.90625,-13.5938 0,-6.59375 0,-0.09375 C0,6.40625 4.90625,13.4063 18.7031,13.4063 C32.5,13.4063 37.2969,6.40625 37.2969,-0.09375 C37.2969,-6.59375 32.5,-13.5938 18.7031,-13.5938 M19.5,10.2031 C16.7031,10.2031 14.7969,9.40625 13.5,6.90625 C12.2031,4.40625 10.4063,-2.09375 10.2969,-4.70313 C10.0938,-7.40625 11.0938,-9 13.5,-9.79688 C14.7031,-10.2031 16.2969,-10.4063 17.9063,-10.4063 C20.5938,-10.4063 22.4063,-9.79688 23.7969,-7.09375 C25.2031,-4.5 27.1094,2 27.1094,4.5 C27.1094,9.40625 23.5,10.2031 19.5,10.2031"/>
<path class="Note" transform="matrix(0.992001,0,0,0.992001,1378.82,873.801)" d="M18.7031,-13.5938 C4.90625,-13.5938 0,-6.59375 0,-0.09375 C0,6.40625 4.90625,13.4063 18.7031,13.4063 C32.5,13.4063 37.2969,6.40625 37.2969,-0.09375 C37.2969,-6.59375 32.5,-13.5938 18.7031,-13.5938 M19.5,10.2031 C16.7031,10.2031 14.7969,9.40625 13.5,6.90625 C12.2031,4.40625 10.4063,-2.09375 10.2969,-4.70313 C10.0938,-7.40625 11.0938,-9 13.5,-9.79688 C14.7031,-10.2031 16.2969,-10.4063 17.9063,-10.4063 C20.5938,-10.4063 22.4063,-9.79688 23.7969,-7.09375 C25.2031,-4.5 27.1094,2 27.1094,4.5 C27.1094,9.40625 23.5,10.2031 19.5,10.2031"/>
<path class="Note" transform="matrix(0.992001,0,0,0.992001,1378.82,849.001)" d="M18.7031,-13.5938 C4.90625,-13.5938 0,-6.59375 0,-0.09375 C0,6.40625 4.90625,13.4063 18.7031,13.4063 C32.5,13.4063 37.2969,6.40625 37.2969,-0.09375 C37.2969,-6.59375 32.5,-13.5938 18.7031,-13.5938 M19.5,10.2031 C16.7031,10.2031 14.7969,9.40625 13.5,6.90625 C12.2031,4.40625 10.4063,-2.09375 10.2969,-4.70313 C10.0938,-7.40625 11.0938,-9 13.5,-9.79688 C14.7031,-10.2031 16.2969,-10.4063 17.9063,-10.4063 C20.5938,-10.4063 22.4063,-9.79688 23.7969,-7.09375 C25.2031,-4.5 27.1094,2 27.1094,4.5 C27.1094,9.40625 23.5,10.2031 19.5,10.2031"/>
<path class="Note" transform="matrix(0.992001,0,0,0.992001,1378.82,824.201)" d="M18.7031,-13.5938 C4.90625,-13.5938 0,-6.59375 0,-0.09375 C0,6.40625 4.90625,13.4063 18.7031,13.4063 C32.5,13.4063 37.2969,6.40625 37.2969,-0.09375 C37.2969,-6.59375 32.5,-13.5938 18.7031,-13.5938 M19.5,10.2031 C16.7031,10.2031 14.7969,9.40625 13.5,6.90625 C12.2031,4.40625 10.4063,-2.09375 10.2969,-4.70313 C10.0938,-7.40625 11.0938,-9 13.5,-9.79688 C14.7031,-10.2031 16.2969,-10.4063 17.9063,-10.4063 C20.5938,-10.4063 22.4063,-9.79688 23.7969,-7.09375 C25.2031,-4.5 27.1094,2 27.1094,4.5 C27.1094,9.40625 23.5,10.2031 19.5,10.2031"/>
<path class="Note" transform="matrix(0.992001,0,0,0.992001,1148.54,448.199)" d="M18.7031,-13.5938 C4.90625,-13.5938 0,-6.59375 0,-0.09375 C0,6.40625 4.90625,13.4063 18.7031,13.4063 C32.5,13.4063 37.2969,6.40625 37.2969,-0.09375 C37.2969,-6.59375 32.5,-13.5938 18.7031,-13.5938 M19.5,10.2031 C16.7031,10.2031 14.7969,9.40625 13.5,6.90625 C12.2031,4.40625 10.4063,-2.09375 10.2969,-4.70313 C10.0938,-7.40625 11.0938,-9 13.5,-9.79688 C14.7031,-10.2031 16.2969,-10.4063 17.9063,-10.4063 C20.5938,-10.4063 22.4063,-9.79688 23.7969,-7.09375 C25.2031,-4.5 27.1094,2 27.1094,4.5 C27.1094,9.40625 23.5,10.2031 19.5,10.2031"/>
<path class="Note" transform="matrix(0.992001,0,0,0.992001,1627.43,448.199)" d="M18.7031,-13.5938 C4.90625,-13.5938 0,-6.59375 0,-0.09375 C0,6.40625 4.90625,13.4063 18.7031,13.4063 C32.5,13.4063 37.2969,6.40625 37.2969,-0.09375 C37.2969,-6.59375 32.5,-13.5938 18.7031,-13.5938 M19.5,10.2031 C16.7031,10.2031 14.7969,9.40625 13.5,6.90625 C12.2031,4.40625 10.4063,-2.09375 10.2969,-4.70313 C10.0938,-7.40625 11.0938,-9 13.5,-9.79688 C14.7031,-10.2031 16.2969,-10.4063 17.9063,-10.4063 C20.5938,-10.4063 22.4063,-9.79688 23.7969,-7.09375 C25.2031,-4.5 27.1094,2 27.1094,4.5 C27.1094,9.40625 23.5,10.2031 19.5,10.2031"/>
<path class="Note" transform="matrix(0.992001,0,0,0.992001,1626.03,861.401)" d="M18.7031,-13.5938 C4.90625,-13.5938 0,-6.59375 0,-0.09375 C0,6.40625 4.90625,13.4063 18.7031,13.4063 C32.5,13.4063 37.2969,6.40625 37.2969,-0.09375 C37.2969,-6.59375 32.5,-13.5938 18.7031,-13.5938 M19.5,10.2031 C16.7031,10.2031 14.7969,9.40625 13.5,6.90625 C12.2031,4.40625 10.4063,-2.09375 10.2969,-4.70313 C10.0938,-7.40625 11.0938,-9 13.5,-9.79688 C14.7031,-10.2031 16.2969,-10.4063 17.9063,-10.4063 C20.5938,-10.4063 22.4063,-9.79688 23.7969,-7.09375 C25.2031,-4.5 27.1094,2 27.1094,4.5 C27.1094,9.40625 23.5,10.2031 19.5,10.2031"/>
<path class="Note" transform="matrix(0.992001,0,0,0.992001,1626.03,836.601)" d="M18.7031,-13.5938 C4.90625,-13.5938 0,-6.59375 0,-0.09375 C0,6.40625 4.90625,13.4063 18.7031,13.4063 C32.5,13.4063 37.2969,6.40625 37.2969,-0.09375 C37.2969,-6.59375 32.5,-13.5938 18.7031,-13.5938 M19.5,10.2031 C16.7031,10.2031 14.7969,9.40625 13.5,6.90625 C12.2031,4.40625 10.4063,-2.09375 10.2969,-4.70313 C10.0938,-7.40625 11.0938,-9 13.5,-9.79688 C14.7031,-10.2031 16.2969,-10.4063 17.9063,-10.4063 C20.5938,-10.4063 22.4063,-9.79688 23.7969,-7.09375 C25.2031,-4.5 27.1094,2 27.1094,4.5 C27.1094,9.40625 23.5,10.2031 19.5,10.2031"/>
<path class="Note" transform="matrix(0.992001,0,0,0.992001,1626.03,811.801)" d="M18.7031,-13.5938 C4.90625,-13.5938 0,-6.59375 0,-0.09375 C0,6.40625 4.90625,13.4063 18.7031,13.4063 C32.5,13.4063 37.2969,6.40625 37.2969,-0.09375 C37.2969,-6.59375 32.5,-13.5938 18.7031,-13.5938 M19.5,10.2031 C16.7031,10.2031 14.7969,9.40625 13.5,6.90625 C12.2031,4.40625 10.4063,-2.09375 10.2969,-4.70313 C10.0938,-7.40625 11.0938,-9 13.5,-9.79688 C14.7031,-10.2031 16.2969,-10.4063 17.9063,-10.4063 C20.5938,-10.4063 22.4063,-9.79688 23.7969,-7.09375 C25.2031,-4.5 27.1094,2 27.1094,4.5 C27.1094,9.40625 23.5,10.2031 19.5,10.2031"/>
<path class="Note" transform="matrix(0.992001,0,0,0.992001,1148.54,472.999)" d="M18.7031,-13.5938 C4.90625,-13.5938 0,-6.59375 0,-0.09375 C0,6.40625 4.90625,13.4063 18.7031,13.4063 C32.5,13.4063 37.2969,6.40625 37.2969,-0.09375 C37.2969,-6.59375 32.5,-13.5938 18.7031,-13.5938 M19.5,10.2031 C16.7031,10.2031 14.7969,9.40625 13.5,6.90625 C12.2031,4.40625 10.4063,-2.09375 10.2969,-4.70313 C10.0938,-7.40625 11.0938,-9 13.5,-9.79688 C14.7031,-10.2031 16.2969,-10.4063 17.9063,-10.4063 C20.5938,-10.4063 22.4063,-9.79688 23.7969,-7.09375 C25.2031,-4.5 27.1094,2 27.1094,4.5 C27.1094,9.40625 23.5,10.2031 19.5,10.2031"/>
<path class="Clef" transform="matrix(0.992001,0,0,0.992001,231.198,799.401)" d="M25.4063,-25.0938 C17.7969,-25.0938 11.7031,-20.7031 11.5938,-20.7031 C5.70313,-16.4063 1.90625,-9.79688 1.90625,-2.5 C1.90625,4.79688 6.09375,10.2031 13.5,10.2031 C19.9063,10.2031 24.9063,5.90625 24.9063,-0.703125 C24.9063,-6.40625 19.9063,-11.0938 14.2969,-11.0938 C13.0938,-11.0938 12,-10.9063 11.0938,-10.5938 C10.0938,-10.2031 8.40625,-9.20313 7.59375,-8.5 C8.29688,-12.9063 11.2969,-17.2969 15.2031,-19.4063 C17.7031,-20.7969 20.9063,-21.4063 24.4063,-21.4063 C34.6094,-21.4063 39.6094,-13.2031 39.6094,3.59375 C39.6094,16.5938 31.2969,35.2969 21.5,44.1094 C11.0938,53.6094 1.29688,58.1094 1.20313,58.1094 C1.20313,58.1094 0,58.7969 0,60 C0,60.2031 0.09375,60.2969 0.09375,60.5 C0.40625,61.5 1.29688,61.7031 2,61.7031 L2.29688,61.6094 C2.5,61.6094 13.9063,56.9063 23,49.7969 C37,39.7031 52.7969,21.9063 52.7969,3.5 C52.7969,-13.9063 43.4063,-25.0938 25.4063,-25.0938 M56.7969,-12.4063 C56.7969,-9.59375 59,-7.40625 61.6094,-7.40625 C64.2031,-7.40625 66.4063,-9.59375 66.4063,-12.4063 C66.4063,-15.2031 64.2031,-17.5 61.6094,-17.5 C59,-17.5 56.7969,-15.2031 56.7969,-12.4063 M56.7969,12.2969 C56.7969,15.0938 59,17.4063 61.6094,17.4063 C64.2031,17.4063 66.4063,15.0938 66.4063,12.2969 C66.4063,9.5 64.2031,7.20313 61.6094,7.20313 C59,7.20313 56.7969,9.5 56.7969,12.2969"/>
<path class="Clef" transform="matrix(0.992001,0,0,0.992001,231.198,410.999)" d="M25.4063,-25.0938 C17.7969,-25.0938 11.7031,-20.7031 11.5938,-20.7031 C5.70313,-16.4063 1.90625,-9.79688 1.90625,-2.5 C1.90625,4.79688 6.09375,10.2031 13.5,10.2031 C19.9063,10.2031 24.9063,5.90625 24.9063,-0.703125 C24.9063,-6.40625 19.9063,-11.0938 14.2969,-11.0938 C13.0938,-11.0938 12,-10.9063 11.0938,-10.5938 C10.0938,-10.2031 8.40625,-9.20313 7.59375,-8.5 C8.29688,-12.9063 11.2969,-17.2969 15.2031,-19.4063 C17.7031,-20.7969 20.9063,-21.4063 24.4063,-21.4063 C34.6094,-21.4063 39.6094,-13.2031 39.6094,3.59375 C39.6094,16.5938 31.2969,35.2969 21.5,44.1094 C11.0938,53.6094 1.29688,58.1094 1.20313,58.1094 C1.20313,58.1094 0,58.7969 0,60 C0,60.2031 0.09375,60.2969 0.09375,60.5 C0.40625,61.5 1.29688,61.7031 2,61.7031 L2.29688,61.6094 C2.5,61.6094 13.9063,56.9063 23,49.7969 C37,39.7031 52.7969,21.9063 52.7969,3.5 C52.7969,-13.9063 43.4063,-25.0938 25.4063,-25.0938 M56.7969,-12.4063 C56.7969,-9.59375 59,-7.40625 61.6094,-7.40625 C64.2031,-7.40625 66.4063,-9.59375 66.4063,-12.4063 C66.4063,-15.2031 64.2031,-17.5 61.6094,-17.5 C59,-17.5 56.7969,-15.2031 56.7969,-12.4063 M56.7969,12.2969 C56.7969,15.0938 59,17.4063 61.6094,17.4063 C64.2031,17.4063 66.4063,15.0938 66.4063,12.2969 C66.4063,9.5 64.2031,7.20313 61.6094,7.20313 C59,7.20313 56.7969,9.5 56.7969,12.2969"/>
<path class="TimeSig" transform="matrix(0.992001,0,0,0.992001,320.478,410.999)" d="M20.7969,12.7031 L20.7969,20.0938 L12.5,20.0938 C11.7969,20.0938 11.0938,20.7031 11.0938,21.5 L11.0938,23.4063 C11.0938,24.2031 11.7969,24.7969 12.5,24.7969 L42.7969,24.7969 C43.6094,24.7969 44.2031,24.2031 44.2031,23.4063 L44.2031,21.5 C44.2031,20.7031 43.6094,20.0938 42.7969,20.0938 L33.9063,20.0938 L33.9063,12.7031 L42.7969,12.7031 C43.6094,12.7031 44.2031,12 44.2031,11.2031 L44.2031,9.29688 C44.2031,8.59375 43.6094,7.90625 42.7969,7.90625 L33.9063,7.90625 L33.9063,-8 C33.9063,-8.59375 33.6094,-9.09375 33.1094,-9.29688 L31.9063,-9.90625 C31.7031,-10 31.4063,-10.0938 31.2031,-10.0938 C30.9063,-10 30.5,-9.90625 30.2969,-9.70313 L21.2031,-1.40625 C20.9063,-1.09375 20.7969,-0.703125 20.7969,-0.296875 L20.7969,7.90625 L9.29688,7.90625 C9.29688,7.90625 20.4063,-4.09375 32.2031,-19.9063 C32.6094,-20.4063 32.7031,-20.9063 32.7031,-21.2969 C32.7031,-21.7969 32.5,-22.2031 32.4063,-22.2969 L30.2031,-24.5 C30,-24.7031 29.6094,-24.9063 29.2031,-24.9063 C28.6094,-24.9063 15.0938,-24.9063 14.4063,-24.9063 C13.5938,-24.9063 13.0938,-24.2969 13,-23.7031 C13,-23.7031 12.5,-16.2969 9.90625,-8.20313 C7.29688,-0.09375 4.29688,4.90625 1.70313,8.59375 C1.70313,8.59375 1.40625,9.09375 1.40625,9.70313 C1.40625,9.90625 1.40625,10.0938 1.5,10.2969 C1.90625,11 2.5,12.0938 2.5,12.0938 C2.5,12.0938 2.70313,12.7031 3.59375,12.7031 L20.7969,12.7031 "/>
<path class="TimeSig" transform="matrix(0.992001,0,0,0.992001,320.478,460.599)" d="M20.7969,12.7031 L20.7969,20.0938 L12.5,20.0938 C11.7969,20.0938 11.0938,20.7031 11.0938,21.5 L11.0938,23.4063 C11.0938,24.2031 11.7969,24.7969 12.5,24.7969 L42.7969,24.7969 C43.6094,24.7969 44.2031,24.2031 44.2031,23.4063 L44.2031,21.5 C44.2031,20.7031 43.6094,20.0938 42.7969,20.0938 L33.9063,20.0938 L33.9063,12.7031 L42.7969,12.7031 C43.6094,12.7031 44.2031,12 44.2031,11.2031 L44.2031,9.29688 C44.2031,8.59375 43.6094,7.90625 42.7969,7.90625 L33.9063,7.90625 L33.9063,-8 C33.9063,-8.59375 33.6094,-9.09375 33.1094,-9.29688 L31.9063,-9.90625 C31.7031,-10 31.4063,-10.0938 31.2031,-10.0938 C30.9063,-10 30.5,-9.90625 30.2969,-9.70313 L21.2031,-1.40625 C20.9063,-1.09375 20.7969,-0.703125 20.7969,-0.296875 L20.7969,7.90625 L9.29688,7.90625 C9.29688,7.90625 20.4063,-4.09375 32.2031,-19.9063 C32.6094,-20.4063 32.7031,-20.9063 32.7031,-21.2969 C32.7031,-21.7969 32.5,-22.2031 32.4063,-22.2969 L30.2031,-24.5 C30,-24.7031 29.6094,-24.9063 29.2031,-24.9063 C28.6094,-24.9063 15.0938,-24.9063 14.4063,-24.9063 C13.5938,-24.9063 13.0938,-24.2969 13,-23.7031 C13,-23.7031 12.5,-16.2969 9.90625,-8.20313 C7.29688,-0.09375 4.29688,4.90625 1.70313,8.59375 C1.70313,8.59375 1.40625,9.09375 1.40625,9.70313 C1.40625,9.90625 1.40625,10.0938 1.5,10.2969 C1.90625,11 2.5,12.0938 2.5,12.0938 C2.5,12.0938 2.70313,12.7031 3.59375,12.7031 L20.7969,12.7031 "/>
<path class="Harmony" d="M399.381,676.148 L397.474,676.148 L395.474,679.101 C391.834,676.445 389.974,675.742 386.521,675.742 C381.771,675.742 377.724,677.742 374.381,681.742 C371.178,685.554 369.678,689.757 369.678,694.898 C369.678,705.695 376.724,713.351 386.584,713.351 C394.584,713.351 399.678,708.648 400.834,700.257 L398.474,699.851 C397.131,707.304 393.334,711.007 387.178,711.007 C379.771,711.007 376.271,705.898 376.271,695.101 C376.271,689.398 377.021,685.648 378.724,682.648 C380.271,679.851 383.334,678.101 386.584,678.101 C390.084,678.101 393.178,679.945 395.084,683.148 C396.037,684.804 396.724,686.648 397.928,690.601 L400.131,690.601 L399.381,676.148 "/>
<path class="Harmony" d="M415.928,689.304 L407.037,689.851 L407.037,692.007 L409.084,692.007 C410.974,692.054 411.224,692.351 411.224,694.507 L411.224,708.804 C411.178,709.554 411.131,709.851 410.928,710.101 C410.584,710.554 409.631,710.757 407.474,710.804 L407.287,710.804 L407.287,712.601 L419.881,712.601 L419.881,710.804 L419.678,710.804 C416.381,710.695 415.928,710.445 415.928,708.601 L415.928,699.351 C415.928,694.898 418.381,691.601 421.631,691.601 C424.474,691.601 425.928,693.648 425.928,697.695 L425.928,708.851 C425.881,709.507 425.834,709.851 425.584,710.101 C425.287,710.554 424.287,710.757 422.131,710.804 L421.928,710.804 L421.928,712.601 L434.584,712.601 L434.584,710.804 L434.381,710.804 C431.084,710.695 430.631,710.445 430.631,708.648 L430.631,699.804 C430.631,694.804 432.881,691.601 436.381,691.601 C439.24,691.601 440.631,693.757 440.631,698.257 L440.631,708.804 C440.584,709.507 440.537,709.851 440.287,710.101 C439.99,710.554 438.99,710.757 436.834,710.804 L436.631,710.804 L436.631,712.601 L449.287,712.601 L449.287,710.804 L449.084,710.804 C445.787,710.695 445.334,710.445 445.334,708.601 L445.334,697.257 C445.334,694.148 445.037,693.101 443.74,691.398 C442.287,689.554 440.24,688.554 437.834,688.554 C434.584,688.554 432.178,690.101 430.037,693.554 C429.178,690.554 426.474,688.554 423.131,688.554 C420.084,688.554 417.881,690.007 415.928,693.148 L415.928,689.304 "/>
<path class="Harmony" d="M617.097,712.601 L633.894,712.601 C638.347,712.601 641.754,711.898 644.394,710.398 C649.441,707.554 652.254,701.851 652.254,694.351 C652.254,687.445 649.754,682.054 645.144,679.054 C642.394,677.304 638.691,676.492 632.988,676.492 L617.097,676.492 L617.097,678.851 L618.051,678.851 C620.847,678.898 621.801,679.054 622.191,679.554 C622.488,679.992 622.488,680.101 622.488,682.648 L622.488,706.445 C622.488,709.007 622.488,709.101 622.191,709.554 C621.801,710.054 620.847,710.195 618.051,710.257 L617.097,710.257 L617.097,712.601 M630.941,710.257 C628.394,710.257 628.097,709.945 628.097,707.507 L628.097,681.648 C628.097,679.195 628.441,678.851 630.941,678.851 L633.551,678.851 C642.097,678.851 645.644,683.492 645.644,694.554 C645.644,705.757 642.441,710.257 634.347,710.257 L630.941,710.257 "/>
<path class="Harmony" d="M667.144,689.304 L658.254,689.851 L658.254,692.007 L660.301,692.007 C662.191,692.054 662.441,692.351 662.441,694.507 L662.441,708.804 C662.394,709.554 662.347,709.851 662.144,710.101 C661.801,710.554 660.847,710.757 658.691,710.804 L658.504,710.804 L658.504,712.601 L671.097,712.601 L671.097,710.804 L670.894,710.804 C667.597,710.695 667.144,710.445 667.144,708.601 L667.144,699.351 C667.144,694.898 669.597,691.601 672.847,691.601 C675.691,691.601 677.144,693.648 677.144,697.695 L677.144,708.851 C677.097,709.507 677.051,709.851 676.801,710.101 C676.504,710.554 675.504,710.757 673.347,710.804 L673.144,710.804 L673.144,712.601 L685.801,712.601 L685.801,710.804 L685.597,710.804 C682.301,710.695 681.847,710.445 681.847,708.648 L681.847,699.804 C681.847,694.804 684.097,691.601 687.597,691.601 C690.457,691.601 691.847,693.757 691.847,698.257 L691.847,708.804 C691.801,709.507 691.754,709.851 691.504,710.101 C691.207,710.554 690.207,710.757 688.051,710.804 L687.847,710.804 L687.847,712.601 L700.504,712.601 L700.504,710.804 L700.301,710.804 C697.004,710.695 696.551,710.445 696.551,708.601 L696.551,697.257 C696.551,694.148 696.254,693.101 694.957,691.398 C693.504,689.554 691.457,688.554 689.051,688.554 C685.801,688.554 683.394,690.101 681.254,693.554 C680.394,690.554 677.691,688.554 674.347,688.554 C671.301,688.554 669.097,690.007 667.144,693.148 L667.144,689.304 "/>
<path class="Harmony" d="M1649.73,287.402 L1647.62,287.402 L1636.12,316.542 C1634.78,320.449 1633.48,321.652 1630.62,321.855 L1630.42,321.855 L1630.42,324.199 L1643.67,324.199 L1643.67,321.855 L1642.67,321.855 C1639.98,321.855 1638.62,320.902 1638.62,318.995 C1638.62,318.355 1638.78,317.745 1639.07,316.902 L1640.73,312.495 L1653.98,312.495 L1656.68,319.199 C1656.98,319.995 1657.07,320.292 1657.07,320.542 C1657.07,321.355 1655.82,321.855 1653.98,321.855 L1651.87,321.855 L1651.87,324.199 L1667.37,324.199 L1667.37,321.855 L1666.68,321.855 C1664.07,321.792 1663.62,321.495 1662.48,318.652 L1649.73,287.402 M1647.28,295.589 L1652.92,309.792 L1641.73,309.792 L1647.28,295.589 "/>
<path class="Harmony" d="M1152.74,676.492 L1122.99,676.492 L1122.99,678.851 L1123.88,678.851 C1126.74,678.898 1127.69,679.054 1128.08,679.554 C1128.38,679.992 1128.38,680.101 1128.38,682.648 L1128.38,706.445 C1128.38,709.007 1128.38,709.101 1128.08,709.554 C1127.69,710.054 1126.74,710.257 1123.88,710.257 L1122.99,710.257 L1122.99,712.601 L1140.13,712.601 L1140.13,710.257 L1138.49,710.257 C1135.63,710.257 1134.69,710.054 1134.28,709.554 C1133.99,709.101 1133.99,708.945 1133.99,706.445 L1133.99,695.101 L1134.99,695.101 C1140.13,694.898 1141.99,696.757 1142.19,702.304 L1144.53,702.304 L1144.53,685.898 L1142.19,685.898 C1141.88,690.804 1139.94,692.695 1135.19,692.757 L1133.99,692.757 L1133.99,681.351 C1133.94,679.242 1134.44,678.898 1137.13,678.851 L1139.44,678.851 C1147.64,678.804 1149.69,680.648 1151.24,689.257 L1153.44,689.257 L1152.74,676.492 "/>
<path class="Harmony" d="M1167.03,689.304 L1158.14,689.851 L1158.14,692.007 L1160.19,692.007 C1162.08,692.054 1162.33,692.351 1162.33,694.507 L1162.33,708.804 C1162.28,709.554 1162.24,709.851 1162.03,710.101 C1161.69,710.554 1160.74,710.757 1158.58,710.804 L1158.39,710.804 L1158.39,712.601 L1170.99,712.601 L1170.99,710.804 L1170.78,710.804 C1167.49,710.695 1167.03,710.445 1167.03,708.601 L1167.03,699.351 C1167.03,694.898 1169.49,691.601 1172.74,691.601 C1175.58,691.601 1177.03,693.648 1177.03,697.695 L1177.03,708.851 C1176.99,709.507 1176.94,709.851 1176.69,710.101 C1176.39,710.554 1175.39,710.757 1173.24,710.804 L1173.03,710.804 L1173.03,712.601 L1185.69,712.601 L1185.69,710.804 L1185.49,710.804 C1182.19,710.695 1181.74,710.445 1181.74,708.648 L1181.74,699.804 C1181.74,694.804 1183.99,691.601 1187.49,691.601 C1190.34,691.601 1191.74,693.757 1191.74,698.257 L1191.74,708.804 C1191.69,709.507 1191.64,709.851 1191.39,710.101 C1191.09,710.554 1190.09,710.757 1187.94,710.804 L1187.74,710.804 L1187.74,712.601 L1200.39,712.601 L1200.39,710.804 L1200.19,710.804 C1196.89,710.695 1196.44,710.445 1196.44,708.601 L1196.44,697.257 C1196.44,694.148 1196.14,693.101 1194.84,691.398 C1193.39,689.554 1191.34,688.554 1188.94,688.554 C1185.69,688.554 1183.28,690.101 1181.14,693.554 C1180.28,690.554 1177.58,688.554 1174.24,688.554 C1171.19,688.554 1168.99,690.007 1167.03,693.148 L1167.03,689.304 "/>
<path class="Harmony" d="M1907.18,288.089 L1907.18,290.449 L1908.09,290.449 C1910.93,290.495 1911.88,290.652 1912.27,291.152 C1912.59,291.589 1912.59,291.699 1912.59,294.245 L1912.59,318.042 C1912.59,320.605 1912.59,320.699 1912.27,321.152 C1911.88,321.652 1910.93,321.855 1908.09,321.855 L1907.18,321.855 L1907.18,324.199 L1925.34,324.199 C1933.98,324.199 1939.18,320.542 1939.18,314.402 C1939.18,309.402 1936.04,306.542 1929.18,305.355 C1931.59,304.855 1932.68,304.402 1933.98,303.449 C1936.04,301.902 1937.29,299.449 1937.29,296.949 C1937.29,293.699 1935.29,290.542 1932.38,289.292 C1930.59,288.495 1928.09,288.089 1925.13,288.089 L1907.18,288.089 M1918.18,304.355 L1918.18,292.949 C1918.18,290.995 1918.84,290.495 1921.48,290.449 L1923.48,290.449 C1928.38,290.449 1931.48,292.042 1931.48,297.495 C1931.48,302.449 1929.09,304.355 1922.63,304.355 L1918.18,304.355 M1918.18,306.699 L1922.59,306.699 C1930.23,306.699 1933.04,308.745 1933.04,314.245 C1933.04,320.949 1928.84,321.855 1923.18,321.855 L1921.09,321.855 C1918.59,321.855 1918.09,321.355 1918.18,318.699 L1918.18,306.699 "/>
<path class="Harmony" d="M1648.33,675.804 L1646.22,675.804 L1634.72,704.945 C1633.37,708.851 1632.08,710.054 1629.22,710.257 L1629.01,710.257 L1629.01,712.601 L1642.26,712.601 L1642.26,710.257 L1641.26,710.257 C1638.58,710.257 1637.22,709.304 1637.22,707.398 C1637.22,706.757 1637.37,706.148 1637.67,705.304 L1639.33,700.898 L1652.58,700.898 L1655.28,707.601 C1655.58,708.398 1655.67,708.695 1655.67,708.945 C1655.67,709.757 1654.42,710.257 1652.58,710.257 L1650.47,710.257 L1650.47,712.601 L1665.97,712.601 L1665.97,710.257 L1665.28,710.257 C1662.67,710.195 1662.22,709.898 1661.08,707.054 L1648.33,675.804 M1645.87,683.992 L1651.51,698.195 L1640.33,698.195 L1645.87,683.992 "/>
<path class="Harmony" d="M1677.92,689.304 L1669.03,689.851 L1669.03,692.007 L1671.08,692.007 C1672.97,692.054 1673.22,692.351 1673.22,694.507 L1673.22,708.804 C1673.17,709.554 1673.12,709.851 1672.92,710.101 C1672.58,710.554 1671.62,710.757 1669.47,710.804 L1669.28,710.804 L1669.28,712.601 L1681.87,712.601 L1681.87,710.804 L1681.67,710.804 C1678.37,710.695 1677.92,710.445 1677.92,708.601 L1677.92,699.351 C1677.92,694.898 1680.37,691.601 1683.62,691.601 C1686.47,691.601 1687.92,693.648 1687.92,697.695 L1687.92,708.851 C1687.87,709.507 1687.83,709.851 1687.58,710.101 C1687.28,710.554 1686.28,710.757 1684.12,710.804 L1683.92,710.804 L1683.92,712.601 L1696.58,712.601 L1696.58,710.804 L1696.37,710.804 C1693.08,710.695 1692.62,710.445 1692.62,708.648 L1692.62,699.804 C1692.62,694.804 1694.87,691.601 1698.37,691.601 C1701.23,691.601 1702.62,693.757 1702.62,698.257 L1702.62,708.804 C1702.58,709.507 1702.53,709.851 1702.28,710.101 C1701.98,710.554 1700.98,710.757 1698.83,710.804 L1698.62,710.804 L1698.62,712.601 L1711.28,712.601 L1711.28,710.804 L1711.08,710.804 C1707.78,710.695 1707.33,710.445 1707.33,708.601 L1707.33,697.257 C1707.33,694.148 1707.03,693.101 1705.73,691.398 C1704.28,689.554 1702.23,688.554 1699.83,688.554 C1696.58,688.554 1694.17,690.101 1692.03,693.554 C1691.17,690.554 1688.47,688.554 1685.12,688.554 C1682.08,688.554 1679.87,690.007 1677.92,693.148 L1677.92,689.304 "/>
<path class="Harmony" d="M894.361,676.492 L864.314,676.492 L864.314,678.851 L865.205,678.851 C868.064,678.898 869.017,679.054 869.408,679.554 C869.705,679.992 869.705,680.101 869.705,682.648 L869.705,706.445 C869.705,709.007 869.705,709.101 869.408,709.554 C869.017,710.054 868.064,710.257 865.205,710.257 L864.314,710.257 L864.314,712.601 L895.017,712.601 L896.017,699.257 L893.814,699.257 C891.908,708.148 889.861,710.054 882.205,710.257 L878.908,710.257 C875.908,710.148 875.158,709.648 875.314,707.851 L875.314,695.101 L876.314,695.101 C881.455,694.898 883.314,696.757 883.517,702.304 L885.861,702.304 L885.861,685.898 L883.517,685.898 C883.205,690.804 881.267,692.757 876.517,692.757 L875.314,692.757 L875.314,681.351 C875.267,679.242 875.767,678.898 878.455,678.851 L881.064,678.851 C889.267,678.804 891.314,680.601 892.908,689.257 L895.064,689.257 L894.361,676.492 "/>
<path class="Harmony" d="M911.361,689.304 L902.47,689.851 L902.47,692.007 L904.517,692.007 C906.408,692.054 906.658,692.351 906.658,694.507 L906.658,708.804 C906.611,709.554 906.564,709.851 906.361,710.101 C906.017,710.554 905.064,710.757 902.908,710.804 L902.72,710.804 L902.72,712.601 L915.314,712.601 L915.314,710.804 L915.111,710.804 C911.814,710.695 911.361,710.445 911.361,708.601 L911.361,699.351 C911.361,694.898 913.814,691.601 917.064,691.601 C919.908,691.601 921.361,693.648 921.361,697.695 L921.361,708.851 C921.314,709.507 921.267,709.851 921.017,710.101 C920.72,710.554 919.72,710.757 917.564,710.804 L917.361,710.804 L917.361,712.601 L930.017,712.601 L930.017,710.804 L929.814,710.804 C926.517,710.695 926.064,710.445 926.064,708.648 L926.064,699.804 C926.064,694.804 928.314,691.601 931.814,691.601 C934.674,691.601 936.064,693.757 936.064,698.257 L936.064,708.804 C936.017,709.507 935.97,709.851 935.72,710.101 C935.424,710.554 934.424,710.757 932.267,710.804 L932.064,710.804 L932.064,712.601 L944.72,712.601 L944.72,710.804 L944.517,710.804 C941.22,710.695 940.767,710.445 940.767,708.601 L940.767,697.257 C940.767,694.148 940.47,693.101 939.174,691.398 C937.72,689.554 935.674,688.554 933.267,688.554 C930.017,688.554 927.611,690.101 925.47,693.554 C924.611,690.554 921.908,688.554 918.564,688.554 C915.517,688.554 913.314,690.007 911.361,693.148 L911.361,689.304 "/>
<path class="Harmony" d="M443.866,287.745 L441.959,287.745 L439.959,290.699 C436.319,288.042 434.459,287.339 431.006,287.339 C426.256,287.339 422.209,289.339 418.866,293.339 C415.663,297.152 414.163,301.355 414.163,306.495 C414.163,317.292 421.209,324.949 431.069,324.949 C439.069,324.949 444.163,320.245 445.319,311.855 L442.959,311.449 C441.616,318.902 437.819,322.605 431.663,322.605 C424.256,322.605 420.756,317.495 420.756,306.699 C420.756,300.995 421.506,297.245 423.209,294.245 C424.756,291.449 427.819,289.699 431.069,289.699 C434.569,289.699 437.663,291.542 439.569,294.745 C440.522,296.402 441.209,298.245 442.413,302.199 L444.616,302.199 L443.866,287.745 "/>
<path class="Harmony" d="M1413.12,287.745 L1411.23,287.745 L1409.27,290.745 C1406.02,288.199 1403.82,287.339 1400.16,287.339 C1396.21,287.339 1393.12,288.449 1389.96,290.995 C1385.02,294.995 1382.71,300.042 1382.71,306.792 C1382.71,311.902 1384.16,316.152 1387.12,319.402 C1390.21,322.902 1394.82,324.949 1399.62,324.949 C1403.82,324.949 1406.77,323.652 1410.02,320.402 L1411.87,324.902 L1413.98,324.902 L1413.98,313.902 C1413.98,311.355 1413.98,311.245 1414.27,310.792 C1414.73,310.245 1415.62,310.105 1418.48,310.105 L1419.23,310.105 L1419.23,307.745 L1403.32,307.745 L1403.32,310.105 L1404.27,310.105 C1408.48,310.105 1408.82,310.355 1408.82,313.152 C1408.82,315.292 1408.48,317.245 1407.82,318.449 C1406.57,320.902 1403.37,322.605 1400.12,322.605 C1396.87,322.605 1393.66,320.949 1391.96,318.449 C1390.12,315.652 1389.32,312.152 1389.32,306.792 C1389.32,295.652 1393.02,289.699 1399.96,289.699 C1405.66,289.699 1409.62,293.792 1411.66,301.792 L1413.82,301.792 L1413.12,287.745 "/>
<path class="Harmony" d="M1181.13,288.089 L1151.38,288.089 L1151.38,290.449 L1152.27,290.449 C1155.13,290.495 1156.08,290.652 1156.47,291.152 C1156.77,291.589 1156.77,291.699 1156.77,294.245 L1156.77,318.042 C1156.77,320.605 1156.77,320.699 1156.47,321.152 C1156.08,321.652 1155.13,321.855 1152.27,321.855 L1151.38,321.855 L1151.38,324.199 L1168.52,324.199 L1168.52,321.855 L1166.88,321.855 C1164.02,321.855 1163.08,321.652 1162.68,321.152 C1162.38,320.699 1162.38,320.542 1162.38,318.042 L1162.38,306.699 L1163.38,306.699 C1168.52,306.495 1170.38,308.355 1170.58,313.902 L1172.93,313.902 L1172.93,297.495 L1170.58,297.495 C1170.27,302.402 1168.33,304.292 1163.58,304.355 L1162.38,304.355 L1162.38,292.949 C1162.33,290.839 1162.83,290.495 1165.52,290.449 L1167.83,290.449 C1176.04,290.402 1178.08,292.245 1179.63,300.855 L1181.83,300.855 L1181.13,288.089 "/>
<path class="Harmony" d="M668.019,324.199 L684.816,324.199 C689.269,324.199 692.676,323.495 695.316,321.995 C700.363,319.152 703.176,313.449 703.176,305.949 C703.176,299.042 700.676,293.652 696.066,290.652 C693.316,288.902 689.613,288.089 683.91,288.089 L668.019,288.089 L668.019,290.449 L668.973,290.449 C671.769,290.495 672.723,290.652 673.113,291.152 C673.41,291.589 673.41,291.699 673.41,294.245 L673.41,318.042 C673.41,320.605 673.41,320.699 673.113,321.152 C672.723,321.652 671.769,321.792 668.973,321.855 L668.019,321.855 L668.019,324.199 M681.863,321.855 C679.316,321.855 679.019,321.542 679.019,319.105 L679.019,293.245 C679.019,290.792 679.363,290.449 681.863,290.449 L684.473,290.449 C693.019,290.449 696.566,295.089 696.566,306.152 C696.566,317.355 693.363,321.855 685.269,321.855 L681.863,321.855 "/>
<path class="Harmony" d="M1411.7,676.148 L1409.81,676.148 L1407.86,679.148 C1404.61,676.601 1402.41,675.742 1398.75,675.742 C1394.8,675.742 1391.7,676.851 1388.55,679.398 C1383.61,683.398 1381.3,688.445 1381.3,695.195 C1381.3,700.304 1382.75,704.554 1385.7,707.804 C1388.8,711.304 1393.41,713.351 1398.2,713.351 C1402.41,713.351 1405.36,712.054 1408.61,708.804 L1410.45,713.304 L1412.56,713.304 L1412.56,702.304 C1412.56,699.757 1412.56,699.648 1412.86,699.195 C1413.31,698.648 1414.2,698.507 1417.06,698.507 L1417.81,698.507 L1417.81,696.148 L1401.91,696.148 L1401.91,698.507 L1402.86,698.507 C1407.06,698.507 1407.41,698.757 1407.41,701.554 C1407.41,703.695 1407.06,705.648 1406.41,706.851 C1405.16,709.304 1401.95,711.007 1398.7,711.007 C1395.45,711.007 1392.25,709.351 1390.55,706.851 C1388.7,704.054 1387.91,700.554 1387.91,695.195 C1387.91,684.054 1391.61,678.101 1398.55,678.101 C1404.25,678.101 1408.2,682.195 1410.25,690.195 L1412.41,690.195 L1411.7,676.148 "/>
<path class="Harmony" d="M1430.7,689.304 L1421.81,689.851 L1421.81,692.007 L1423.86,692.007 C1425.75,692.054 1426,692.351 1426,694.507 L1426,708.804 C1425.95,709.554 1425.91,709.851 1425.7,710.101 C1425.36,710.554 1424.41,710.757 1422.25,710.804 L1422.06,710.804 L1422.06,712.601 L1434.66,712.601 L1434.66,710.804 L1434.45,710.804 C1431.16,710.695 1430.7,710.445 1430.7,708.601 L1430.7,699.351 C1430.7,694.898 1433.16,691.601 1436.41,691.601 C1439.25,691.601 1440.7,693.648 1440.7,697.695 L1440.7,708.851 C1440.66,709.507 1440.61,709.851 1440.36,710.101 C1440.06,710.554 1439.06,710.757 1436.91,710.804 L1436.7,710.804 L1436.7,712.601 L1449.36,712.601 L1449.36,710.804 L1449.16,710.804 C1445.86,710.695 1445.41,710.445 1445.41,708.648 L1445.41,699.804 C1445.41,694.804 1447.66,691.601 1451.16,691.601 C1454.02,691.601 1455.41,693.757 1455.41,698.257 L1455.41,708.804 C1455.36,709.507 1455.31,709.851 1455.06,710.101 C1454.77,710.554 1453.77,710.757 1451.61,710.804 L1451.41,710.804 L1451.41,712.601 L1464.06,712.601 L1464.06,710.804 L1463.86,710.804 C1460.56,710.695 1460.11,710.445 1460.11,708.601 L1460.11,697.257 C1460.11,694.148 1459.81,693.101 1458.52,691.398 C1457.06,689.554 1455.02,688.554 1452.61,688.554 C1449.36,688.554 1446.95,690.101 1444.81,693.554 C1443.95,690.554 1441.25,688.554 1437.91,688.554 C1434.86,688.554 1432.66,690.007 1430.7,693.148 L1430.7,689.304 "/>
<path class="Harmony" d="M1891.65,676.492 L1891.65,678.851 L1892.56,678.851 C1895.4,678.898 1896.36,679.054 1896.75,679.554 C1897.06,679.992 1897.06,680.101 1897.06,682.648 L1897.06,706.445 C1897.06,709.007 1897.06,709.101 1896.75,709.554 C1896.36,710.054 1895.4,710.257 1892.56,710.257 L1891.65,710.257 L1891.65,712.601 L1909.81,712.601 C1918.45,712.601 1923.65,708.945 1923.65,702.804 C1923.65,697.804 1920.51,694.945 1913.65,693.757 C1916.06,693.257 1917.15,692.804 1918.45,691.851 C1920.51,690.304 1921.76,687.851 1921.76,685.351 C1921.76,682.101 1919.76,678.945 1916.86,677.695 C1915.06,676.898 1912.56,676.492 1909.61,676.492 L1891.65,676.492 M1902.65,692.757 L1902.65,681.351 C1902.65,679.398 1903.31,678.898 1905.95,678.851 L1907.95,678.851 C1912.86,678.851 1915.95,680.445 1915.95,685.898 C1915.95,690.851 1913.56,692.757 1907.11,692.757 L1902.65,692.757 M1902.65,695.101 L1907.06,695.101 C1914.7,695.101 1917.51,697.148 1917.51,702.648 C1917.51,709.351 1913.31,710.257 1907.65,710.257 L1905.56,710.257 C1903.06,710.257 1902.56,709.757 1902.65,707.101 L1902.65,695.101 "/>
<path class="Harmony" d="M1938.65,689.304 L1929.76,689.851 L1929.76,692.007 L1931.81,692.007 C1933.7,692.054 1933.95,692.351 1933.95,694.507 L1933.95,708.804 C1933.9,709.554 1933.86,709.851 1933.65,710.101 C1933.31,710.554 1932.36,710.757 1930.2,710.804 L1930.01,710.804 L1930.01,712.601 L1942.61,712.601 L1942.61,710.804 L1942.4,710.804 C1939.11,710.695 1938.65,710.445 1938.65,708.601 L1938.65,699.351 C1938.65,694.898 1941.11,691.601 1944.36,691.601 C1947.2,691.601 1948.65,693.648 1948.65,697.695 L1948.65,708.851 C1948.61,709.507 1948.56,709.851 1948.31,710.101 C1948.01,710.554 1947.01,710.757 1944.86,710.804 L1944.65,710.804 L1944.65,712.601 L1957.31,712.601 L1957.31,710.804 L1957.11,710.804 C1953.81,710.695 1953.36,710.445 1953.36,708.648 L1953.36,699.804 C1953.36,694.804 1955.61,691.601 1959.11,691.601 C1961.97,691.601 1963.36,693.757 1963.36,698.257 L1963.36,708.804 C1963.31,709.507 1963.26,709.851 1963.01,710.101 C1962.72,710.554 1961.72,710.757 1959.56,710.804 L1959.36,710.804 L1959.36,712.601 L1972.01,712.601 L1972.01,710.804 L1971.81,710.804 C1968.51,710.695 1968.06,710.445 1968.06,708.601 L1968.06,697.257 C1968.06,694.148 1967.76,693.101 1966.47,691.398 C1965.01,689.554 1962.97,688.554 1960.56,688.554 C1957.31,688.554 1954.9,690.101 1952.76,693.554 C1951.9,690.554 1949.2,688.554 1945.86,688.554 C1942.81,688.554 1940.61,690.007 1938.65,693.148 L1938.65,689.304 "/>
<path class="Harmony" d="M949.736,288.089 L919.689,288.089 L919.689,290.449 L920.58,290.449 C923.439,290.495 924.392,290.652 924.783,291.152 C925.08,291.589 925.08,291.699 925.08,294.245 L925.08,318.042 C925.08,320.605 925.08,320.699 924.783,321.152 C924.392,321.652 923.439,321.855 920.58,321.855 L919.689,321.855 L919.689,324.199 L950.392,324.199 L951.392,310.855 L949.189,310.855 C947.283,319.745 945.236,321.652 937.58,321.855 L934.283,321.855 C931.283,321.745 930.533,321.245 930.689,319.449 L930.689,306.699 L931.689,306.699 C936.83,306.495 938.689,308.355 938.892,313.902 L941.236,313.902 L941.236,297.495 L938.892,297.495 C938.58,302.402 936.642,304.355 931.892,304.355 L930.689,304.355 L930.689,292.949 C930.642,290.839 931.142,290.495 933.83,290.449 L936.439,290.449 C944.642,290.402 946.689,292.199 948.283,300.855 L950.439,300.855 L949.736,288.089 "/>
</svg>
