<?xml version="1.0" encoding="UTF-8" standalone="no"?>
<svg width="2340px" height="720px" viewBox="0 0 2340 720"
 xmlns="http://www.w3.org/2000/svg" xmlns:xlink="http://www.w3.org/1999/xlink" version="1.2" baseProfile="tiny">
<title>和弦 (11)</title>
<desc>Generated by MuseScore Studio 4.4.4</desc>
<path class="" fill="#ffffff" fill-rule="evenodd" d="M0,0 L2340,0 L2340,720 L0,720 L0,0 "/>
<polyline class="StaffLines" fill="none" stroke="#000000" stroke-width="2.73" stroke-linejoin="bevel" points="212.598,386.199 2127.8,386.199"/>
<polyline class="StaffLines" fill="none" stroke="#000000" stroke-width="2.73" stroke-linejoin="bevel" points="212.598,410.999 2127.8,410.999"/>
<polyline class="StaffLines" fill="none" stroke="#000000" stroke-width="2.73" stroke-linejoin="bevel" points="212.598,435.799 2127.8,435.799"/>
<polyline class="StaffLines" fill="none" stroke="#000000" stroke-width="2.73" stroke-linejoin="bevel" points="212.598,460.599 2127.8,460.599"/>
<polyline class="StaffLines" fill="none" stroke="#000000" stroke-width="2.73" stroke-linejoin="bevel" points="212.598,485.399 2127.8,485.399"/>
<path class="MeasureNumber" d="M217.911,323.208 C218.598,319.677 219.395,317.489 220.911,314.802 C222.723,311.645 224.88,310.036 227.27,310.036 C228.52,310.036 229.27,310.52 229.27,311.286 C229.27,311.567 229.192,311.724 228.911,312.239 C228.551,312.927 228.395,313.395 228.395,314.005 C228.395,315.286 229.348,316.161 230.708,316.161 C232.348,316.161 233.473,314.958 233.473,313.161 C233.473,310.442 230.911,308.442 227.348,308.442 C218.442,308.442 213.036,320.083 213.036,327.755 C213.036,333.645 215.958,337.192 220.833,337.192 C226.833,337.192 231.27,332.239 231.27,326.364 C231.27,322.286 228.52,319.442 224.52,319.442 C221.723,319.442 219.551,320.645 217.911,323.208 M223.239,321.755 C225.723,321.755 227.083,323.474 227.083,326.599 C227.083,331.677 224.395,335.552 220.833,335.552 C218.27,335.552 216.755,333.677 216.755,330.474 C216.755,325.474 219.52,321.755 223.239,321.755 M250.989,328.317 L249.958,330.161 C248.348,332.927 248.036,333.161 245.989,333.192 L236.723,333.192 C237.676,331.927 239.442,330.442 242.63,328.192 C247.911,324.567 248.27,324.317 249.395,323.442 C252.598,320.958 253.911,318.599 253.911,315.442 C253.911,311.239 250.801,308.442 246.192,308.442 C241.083,308.442 236.645,312.208 236.645,316.567 C236.645,318.802 237.833,320.239 239.755,320.239 C241.192,320.239 242.317,319.161 242.317,317.677 C242.317,316.645 241.801,315.958 240.473,315.239 C239.52,314.755 239.364,314.567 239.364,314.083 C239.364,312.364 242.317,310.442 245.036,310.442 C247.833,310.442 249.723,312.317 249.723,315.13 C249.723,318.114 248.395,320.317 244.801,323.442 C234.161,332.677 232.551,334.364 232.192,336.599 L249.348,336.599 L252.442,328.88 L250.989,328.317 "/>
<polyline class="BarLine" fill="none" stroke="#000000" stroke-width="4.46" stroke-linejoin="bevel" points="766.477,384.835 766.477,486.763"/>
<polyline class="BarLine" fill="none" stroke="#000000" stroke-width="4.46" stroke-linejoin="bevel" points="1211.9,384.835 1211.9,486.763"/>
<polyline class="BarLine" fill="none" stroke="#000000" stroke-width="4.46" stroke-linejoin="bevel" points="1880.04,384.835 1880.04,486.763"/>
<polyline class="BarLine" fill="none" stroke="#000000" stroke-width="4.46" stroke-linejoin="bevel" points="1657.33,384.835 1657.33,486.763"/>
<polyline class="BarLine" fill="none" stroke="#000000" stroke-width="4.46" stroke-linejoin="bevel" points="543.764,384.835 543.764,486.763"/>
<polyline class="BarLine" fill="none" stroke="#000000" stroke-width="4.46" stroke-linejoin="bevel" points="1434.61,384.835 1434.61,486.763"/>
<polyline class="BarLine" fill="none" stroke="#000000" stroke-width="4.46" stroke-linejoin="bevel" points="2102.75,384.835 2102.75,486.763"/>
<polyline class="BarLine" fill="none" stroke="#000000" stroke-width="13.64" stroke-linejoin="bevel" points="2120.98,384.835 2120.98,486.763"/>
<polyline class="BarLine" fill="none" stroke="#000000" stroke-width="4.46" stroke-linejoin="bevel" points="989.189,384.835 989.189,486.763"/>
<polyline class="LedgerLine" fill="none" stroke="#000000" stroke-width="3.97" stroke-linejoin="bevel" points="1905.09,510.199 1958.45,510.199"/>
<polyline class="LedgerLine" fill="none" stroke="#000000" stroke-width="3.97" stroke-linejoin="bevel" points="1014.24,510.199 1067.6,510.199"/>
<polyline class="LedgerLine" fill="none" stroke="#000000" stroke-width="3.97" stroke-linejoin="bevel" points="346.1,510.199 399.467,510.199"/>
<polyline class="LedgerLine" fill="none" stroke="#000000" stroke-width="3.97" stroke-linejoin="bevel" points="1014.24,534.999 1067.6,534.999"/>
<polyline class="LedgerLine" fill="none" stroke="#000000" stroke-width="3.97" stroke-linejoin="bevel" points="1236.95,510.199 1290.32,510.199"/>
<polyline class="LedgerLine" fill="none" stroke="#000000" stroke-width="3.97" stroke-linejoin="bevel" points="1236.95,534.999 1290.32,534.999"/>
<polyline class="LedgerLine" fill="none" stroke="#000000" stroke-width="3.97" stroke-linejoin="bevel" points="1236.95,559.799 1290.32,559.799"/>
<polyline class="LedgerLine" fill="none" stroke="#000000" stroke-width="3.97" stroke-linejoin="bevel" points="568.812,510.199 622.179,510.199"/>
<polyline class="LedgerLine" fill="none" stroke="#000000" stroke-width="3.97" stroke-linejoin="bevel" points="1459.66,510.199 1513.03,510.199"/>
<polyline class="LedgerLine" fill="none" stroke="#000000" stroke-width="3.97" stroke-linejoin="bevel" points="1459.66,534.999 1513.03,534.999"/>
<polyline class="LedgerLine" fill="none" stroke="#000000" stroke-width="3.97" stroke-linejoin="bevel" points="1459.66,559.799 1513.03,559.799"/>
<polyline class="LedgerLine" fill="none" stroke="#000000" stroke-width="3.97" stroke-linejoin="bevel" points="1682.37,510.199 1735.74,510.199"/>
<polyline class="LedgerLine" fill="none" stroke="#000000" stroke-width="3.97" stroke-linejoin="bevel" points="1682.37,534.999 1735.74,534.999"/>
<polyline class="LedgerLine" fill="none" stroke="#000000" stroke-width="3.97" stroke-linejoin="bevel" points="1682.37,559.799 1735.74,559.799"/>
<polyline class="LedgerLine" fill="none" stroke="#000000" stroke-width="3.97" stroke-linejoin="bevel" points="791.525,510.199 844.891,510.199"/>
<polyline class="LedgerLine" fill="none" stroke="#000000" stroke-width="3.97" stroke-linejoin="bevel" points="791.525,534.999 844.891,534.999"/>
<polyline class="LedgerLine" fill="none" stroke="#000000" stroke-width="3.97" stroke-linejoin="bevel" points="1682.37,584.599 1735.74,584.599"/>
<polyline class="LedgerLine" fill="none" stroke="#000000" stroke-width="3.97" stroke-linejoin="bevel" points="1682.37,361.399 1735.74,361.399"/>
<path class="Note" transform="matrix(0.992001,0,0,0.992001,354.284,373.799)" d="M18.7031,-13.5938 C4.90625,-13.5938 0,-6.59375 0,-0.09375 C0,6.40625 4.90625,13.4063 18.7031,13.4063 C32.5,13.4063 37.2969,6.40625 37.2969,-0.09375 C37.2969,-6.59375 32.5,-13.5938 18.7031,-13.5938 M19.5,10.2031 C16.7031,10.2031 14.7969,9.40625 13.5,6.90625 C12.2031,4.40625 10.4063,-2.09375 10.2969,-4.70313 C10.0938,-7.40625 11.0938,-9 13.5,-9.79688 C14.7031,-10.2031 16.2969,-10.4063 17.9063,-10.4063 C20.5938,-10.4063 22.4063,-9.79688 23.7969,-7.09375 C25.2031,-4.5 27.1094,2 27.1094,4.5 C27.1094,9.40625 23.5,10.2031 19.5,10.2031"/>
<path class="Note" transform="matrix(0.992001,0,0,0.992001,1913.27,522.599)" d="M18.7031,-13.5938 C4.90625,-13.5938 0,-6.59375 0,-0.09375 C0,6.40625 4.90625,13.4063 18.7031,13.4063 C32.5,13.4063 37.2969,6.40625 37.2969,-0.09375 C37.2969,-6.59375 32.5,-13.5938 18.7031,-13.5938 M19.5,10.2031 C16.7031,10.2031 14.7969,9.40625 13.5,6.90625 C12.2031,4.40625 10.4063,-2.09375 10.2969,-4.70313 C10.0938,-7.40625 11.0938,-9 13.5,-9.79688 C14.7031,-10.2031 16.2969,-10.4063 17.9063,-10.4063 C20.5938,-10.4063 22.4063,-9.79688 23.7969,-7.09375 C25.2031,-4.5 27.1094,2 27.1094,4.5 C27.1094,9.40625 23.5,10.2031 19.5,10.2031"/>
<path class="Note" transform="matrix(0.992001,0,0,0.992001,354.284,510.199)" d="M18.7031,-13.5938 C4.90625,-13.5938 0,-6.59375 0,-0.09375 C0,6.40625 4.90625,13.4063 18.7031,13.4063 C32.5,13.4063 37.2969,6.40625 37.2969,-0.09375 C37.2969,-6.59375 32.5,-13.5938 18.7031,-13.5938 M19.5,10.2031 C16.7031,10.2031 14.7969,9.40625 13.5,6.90625 C12.2031,4.40625 10.4063,-2.09375 10.2969,-4.70313 C10.0938,-7.40625 11.0938,-9 13.5,-9.79688 C14.7031,-10.2031 16.2969,-10.4063 17.9063,-10.4063 C20.5938,-10.4063 22.4063,-9.79688 23.7969,-7.09375 C25.2031,-4.5 27.1094,2 27.1094,4.5 C27.1094,9.40625 23.5,10.2031 19.5,10.2031"/>
<path class="Note" transform="matrix(0.992001,0,0,0.992001,354.284,423.399)" d="M18.7031,-13.5938 C4.90625,-13.5938 0,-6.59375 0,-0.09375 C0,6.40625 4.90625,13.4063 18.7031,13.4063 C32.5,13.4063 37.2969,6.40625 37.2969,-0.09375 C37.2969,-6.59375 32.5,-13.5938 18.7031,-13.5938 M19.5,10.2031 C16.7031,10.2031 14.7969,9.40625 13.5,6.90625 C12.2031,4.40625 10.4063,-2.09375 10.2969,-4.70313 C10.0938,-7.40625 11.0938,-9 13.5,-9.79688 C14.7031,-10.2031 16.2969,-10.4063 17.9063,-10.4063 C20.5938,-10.4063 22.4063,-9.79688 23.7969,-7.09375 C25.2031,-4.5 27.1094,2 27.1094,4.5 C27.1094,9.40625 23.5,10.2031 19.5,10.2031"/>
<path class="Note" transform="matrix(0.992001,0,0,0.992001,354.284,398.599)" d="M18.7031,-13.5938 C4.90625,-13.5938 0,-6.59375 0,-0.09375 C0,6.40625 4.90625,13.4063 18.7031,13.4063 C32.5,13.4063 37.2969,6.40625 37.2969,-0.09375 C37.2969,-6.59375 32.5,-13.5938 18.7031,-13.5938 M19.5,10.2031 C16.7031,10.2031 14.7969,9.40625 13.5,6.90625 C12.2031,4.40625 10.4063,-2.09375 10.2969,-4.70313 C10.0938,-7.40625 11.0938,-9 13.5,-9.79688 C14.7031,-10.2031 16.2969,-10.4063 17.9063,-10.4063 C20.5938,-10.4063 22.4063,-9.79688 23.7969,-7.09375 C25.2031,-4.5 27.1094,2 27.1094,4.5 C27.1094,9.40625 23.5,10.2031 19.5,10.2031"/>
<path class="Note" transform="matrix(0.992001,0,0,0.992001,1022.42,485.399)" d="M18.7031,-13.5938 C4.90625,-13.5938 0,-6.59375 0,-0.09375 C0,6.40625 4.90625,13.4063 18.7031,13.4063 C32.5,13.4063 37.2969,6.40625 37.2969,-0.09375 C37.2969,-6.59375 32.5,-13.5938 18.7031,-13.5938 M19.5,10.2031 C16.7031,10.2031 14.7969,9.40625 13.5,6.90625 C12.2031,4.40625 10.4063,-2.09375 10.2969,-4.70313 C10.0938,-7.40625 11.0938,-9 13.5,-9.79688 C14.7031,-10.2031 16.2969,-10.4063 17.9063,-10.4063 C20.5938,-10.4063 22.4063,-9.79688 23.7969,-7.09375 C25.2031,-4.5 27.1094,2 27.1094,4.5 C27.1094,9.40625 23.5,10.2031 19.5,10.2031"/>
<path class="Note" transform="matrix(0.992001,0,0,0.992001,576.996,522.599)" d="M18.7031,-13.5938 C4.90625,-13.5938 0,-6.59375 0,-0.09375 C0,6.40625 4.90625,13.4063 18.7031,13.4063 C32.5,13.4063 37.2969,6.40625 37.2969,-0.09375 C37.2969,-6.59375 32.5,-13.5938 18.7031,-13.5938 M19.5,10.2031 C16.7031,10.2031 14.7969,9.40625 13.5,6.90625 C12.2031,4.40625 10.4063,-2.09375 10.2969,-4.70313 C10.0938,-7.40625 11.0938,-9 13.5,-9.79688 C14.7031,-10.2031 16.2969,-10.4063 17.9063,-10.4063 C20.5938,-10.4063 22.4063,-9.79688 23.7969,-7.09375 C25.2031,-4.5 27.1094,2 27.1094,4.5 C27.1094,9.40625 23.5,10.2031 19.5,10.2031"/>
<path class="Note" transform="matrix(0.992001,0,0,0.992001,576.996,460.599)" d="M18.7031,-13.5938 C4.90625,-13.5938 0,-6.59375 0,-0.09375 C0,6.40625 4.90625,13.4063 18.7031,13.4063 C32.5,13.4063 37.2969,6.40625 37.2969,-0.09375 C37.2969,-6.59375 32.5,-13.5938 18.7031,-13.5938 M19.5,10.2031 C16.7031,10.2031 14.7969,9.40625 13.5,6.90625 C12.2031,4.40625 10.4063,-2.09375 10.2969,-4.70313 C10.0938,-7.40625 11.0938,-9 13.5,-9.79688 C14.7031,-10.2031 16.2969,-10.4063 17.9063,-10.4063 C20.5938,-10.4063 22.4063,-9.79688 23.7969,-7.09375 C25.2031,-4.5 27.1094,2 27.1094,4.5 C27.1094,9.40625 23.5,10.2031 19.5,10.2031"/>
<path class="Note" transform="matrix(0.992001,0,0,0.992001,576.996,435.799)" d="M18.7031,-13.5938 C4.90625,-13.5938 0,-6.59375 0,-0.09375 C0,6.40625 4.90625,13.4063 18.7031,13.4063 C32.5,13.4063 37.2969,6.40625 37.2969,-0.09375 C37.2969,-6.59375 32.5,-13.5938 18.7031,-13.5938 M19.5,10.2031 C16.7031,10.2031 14.7969,9.40625 13.5,6.90625 C12.2031,4.40625 10.4063,-2.09375 10.2969,-4.70313 C10.0938,-7.40625 11.0938,-9 13.5,-9.79688 C14.7031,-10.2031 16.2969,-10.4063 17.9063,-10.4063 C20.5938,-10.4063 22.4063,-9.79688 23.7969,-7.09375 C25.2031,-4.5 27.1094,2 27.1094,4.5 C27.1094,9.40625 23.5,10.2031 19.5,10.2031"/>
<path class="Note" transform="matrix(0.992001,0,0,0.992001,576.996,410.999)" d="M18.7031,-13.5938 C4.90625,-13.5938 0,-6.59375 0,-0.09375 C0,6.40625 4.90625,13.4063 18.7031,13.4063 C32.5,13.4063 37.2969,6.40625 37.2969,-0.09375 C37.2969,-6.59375 32.5,-13.5938 18.7031,-13.5938 M19.5,10.2031 C16.7031,10.2031 14.7969,9.40625 13.5,6.90625 C12.2031,4.40625 10.4063,-2.09375 10.2969,-4.70313 C10.0938,-7.40625 11.0938,-9 13.5,-9.79688 C14.7031,-10.2031 16.2969,-10.4063 17.9063,-10.4063 C20.5938,-10.4063 22.4063,-9.79688 23.7969,-7.09375 C25.2031,-4.5 27.1094,2 27.1094,4.5 C27.1094,9.40625 23.5,10.2031 19.5,10.2031"/>
<path class="Note" transform="matrix(0.992001,0,0,0.992001,1913.27,435.799)" d="M18.7031,-13.5938 C4.90625,-13.5938 0,-6.59375 0,-0.09375 C0,6.40625 4.90625,13.4063 18.7031,13.4063 C32.5,13.4063 37.2969,6.40625 37.2969,-0.09375 C37.2969,-6.59375 32.5,-13.5938 18.7031,-13.5938 M19.5,10.2031 C16.7031,10.2031 14.7969,9.40625 13.5,6.90625 C12.2031,4.40625 10.4063,-2.09375 10.2969,-4.70313 C10.0938,-7.40625 11.0938,-9 13.5,-9.79688 C14.7031,-10.2031 16.2969,-10.4063 17.9063,-10.4063 C20.5938,-10.4063 22.4063,-9.79688 23.7969,-7.09375 C25.2031,-4.5 27.1094,2 27.1094,4.5 C27.1094,9.40625 23.5,10.2031 19.5,10.2031"/>
<path class="Note" transform="matrix(0.992001,0,0,0.992001,1913.27,410.999)" d="M18.7031,-13.5938 C4.90625,-13.5938 0,-6.59375 0,-0.09375 C0,6.40625 4.90625,13.4063 18.7031,13.4063 C32.5,13.4063 37.2969,6.40625 37.2969,-0.09375 C37.2969,-6.59375 32.5,-13.5938 18.7031,-13.5938 M19.5,10.2031 C16.7031,10.2031 14.7969,9.40625 13.5,6.90625 C12.2031,4.40625 10.4063,-2.09375 10.2969,-4.70313 C10.0938,-7.40625 11.0938,-9 13.5,-9.79688 C14.7031,-10.2031 16.2969,-10.4063 17.9063,-10.4063 C20.5938,-10.4063 22.4063,-9.79688 23.7969,-7.09375 C25.2031,-4.5 27.1094,2 27.1094,4.5 C27.1094,9.40625 23.5,10.2031 19.5,10.2031"/>
<path class="Note" transform="matrix(0.992001,0,0,0.992001,799.709,534.999)" d="M18.7031,-13.5938 C4.90625,-13.5938 0,-6.59375 0,-0.09375 C0,6.40625 4.90625,13.4063 18.7031,13.4063 C32.5,13.4063 37.2969,6.40625 37.2969,-0.09375 C37.2969,-6.59375 32.5,-13.5938 18.7031,-13.5938 M19.5,10.2031 C16.7031,10.2031 14.7969,9.40625 13.5,6.90625 C12.2031,4.40625 10.4063,-2.09375 10.2969,-4.70313 C10.0938,-7.40625 11.0938,-9 13.5,-9.79688 C14.7031,-10.2031 16.2969,-10.4063 17.9063,-10.4063 C20.5938,-10.4063 22.4063,-9.79688 23.7969,-7.09375 C25.2031,-4.5 27.1094,2 27.1094,4.5 C27.1094,9.40625 23.5,10.2031 19.5,10.2031"/>
<path class="Note" transform="matrix(0.992001,0,0,0.992001,799.709,448.199)" d="M18.7031,-13.5938 C4.90625,-13.5938 0,-6.59375 0,-0.09375 C0,6.40625 4.90625,13.4063 18.7031,13.4063 C32.5,13.4063 37.2969,6.40625 37.2969,-0.09375 C37.2969,-6.59375 32.5,-13.5938 18.7031,-13.5938 M19.5,10.2031 C16.7031,10.2031 14.7969,9.40625 13.5,6.90625 C12.2031,4.40625 10.4063,-2.09375 10.2969,-4.70313 C10.0938,-7.40625 11.0938,-9 13.5,-9.79688 C14.7031,-10.2031 16.2969,-10.4063 17.9063,-10.4063 C20.5938,-10.4063 22.4063,-9.79688 23.7969,-7.09375 C25.2031,-4.5 27.1094,2 27.1094,4.5 C27.1094,9.40625 23.5,10.2031 19.5,10.2031"/>
<path class="Note" transform="matrix(0.992001,0,0,0.992001,799.709,423.399)" d="M18.7031,-13.5938 C4.90625,-13.5938 0,-6.59375 0,-0.09375 C0,6.40625 4.90625,13.4063 18.7031,13.4063 C32.5,13.4063 37.2969,6.40625 37.2969,-0.09375 C37.2969,-6.59375 32.5,-13.5938 18.7031,-13.5938 M19.5,10.2031 C16.7031,10.2031 14.7969,9.40625 13.5,6.90625 C12.2031,4.40625 10.4063,-2.09375 10.2969,-4.70313 C10.0938,-7.40625 11.0938,-9 13.5,-9.79688 C14.7031,-10.2031 16.2969,-10.4063 17.9063,-10.4063 C20.5938,-10.4063 22.4063,-9.79688 23.7969,-7.09375 C25.2031,-4.5 27.1094,2 27.1094,4.5 C27.1094,9.40625 23.5,10.2031 19.5,10.2031"/>
<path class="Note" transform="matrix(0.992001,0,0,0.992001,1245.13,448.199)" d="M18.7031,-13.5938 C4.90625,-13.5938 0,-6.59375 0,-0.09375 C0,6.40625 4.90625,13.4063 18.7031,13.4063 C32.5,13.4063 37.2969,6.40625 37.2969,-0.09375 C37.2969,-6.59375 32.5,-13.5938 18.7031,-13.5938 M19.5,10.2031 C16.7031,10.2031 14.7969,9.40625 13.5,6.90625 C12.2031,4.40625 10.4063,-2.09375 10.2969,-4.70313 C10.0938,-7.40625 11.0938,-9 13.5,-9.79688 C14.7031,-10.2031 16.2969,-10.4063 17.9063,-10.4063 C20.5938,-10.4063 22.4063,-9.79688 23.7969,-7.09375 C25.2031,-4.5 27.1094,2 27.1094,4.5 C27.1094,9.40625 23.5,10.2031 19.5,10.2031"/>
<path class="Note" transform="matrix(0.992001,0,0,0.992001,1467.85,572.199)" d="M18.7031,-13.5938 C4.90625,-13.5938 0,-6.59375 0,-0.09375 C0,6.40625 4.90625,13.4063 18.7031,13.4063 C32.5,13.4063 37.2969,6.40625 37.2969,-0.09375 C37.2969,-6.59375 32.5,-13.5938 18.7031,-13.5938 M19.5,10.2031 C16.7031,10.2031 14.7969,9.40625 13.5,6.90625 C12.2031,4.40625 10.4063,-2.09375 10.2969,-4.70313 C10.0938,-7.40625 11.0938,-9 13.5,-9.79688 C14.7031,-10.2031 16.2969,-10.4063 17.9063,-10.4063 C20.5938,-10.4063 22.4063,-9.79688 23.7969,-7.09375 C25.2031,-4.5 27.1094,2 27.1094,4.5 C27.1094,9.40625 23.5,10.2031 19.5,10.2031"/>
<path class="Note" transform="matrix(0.992001,0,0,0.992001,1467.85,423.399)" d="M18.7031,-13.5938 C4.90625,-13.5938 0,-6.59375 0,-0.09375 C0,6.40625 4.90625,13.4063 18.7031,13.4063 C32.5,13.4063 37.2969,6.40625 37.2969,-0.09375 C37.2969,-6.59375 32.5,-13.5938 18.7031,-13.5938 M19.5,10.2031 C16.7031,10.2031 14.7969,9.40625 13.5,6.90625 C12.2031,4.40625 10.4063,-2.09375 10.2969,-4.70313 C10.0938,-7.40625 11.0938,-9 13.5,-9.79688 C14.7031,-10.2031 16.2969,-10.4063 17.9063,-10.4063 C20.5938,-10.4063 22.4063,-9.79688 23.7969,-7.09375 C25.2031,-4.5 27.1094,2 27.1094,4.5 C27.1094,9.40625 23.5,10.2031 19.5,10.2031"/>
<path class="Note" transform="matrix(0.992001,0,0,0.992001,1467.85,398.599)" d="M18.7031,-13.5938 C4.90625,-13.5938 0,-6.59375 0,-0.09375 C0,6.40625 4.90625,13.4063 18.7031,13.4063 C32.5,13.4063 37.2969,6.40625 37.2969,-0.09375 C37.2969,-6.59375 32.5,-13.5938 18.7031,-13.5938 M19.5,10.2031 C16.7031,10.2031 14.7969,9.40625 13.5,6.90625 C12.2031,4.40625 10.4063,-2.09375 10.2969,-4.70313 C10.0938,-7.40625 11.0938,-9 13.5,-9.79688 C14.7031,-10.2031 16.2969,-10.4063 17.9063,-10.4063 C20.5938,-10.4063 22.4063,-9.79688 23.7969,-7.09375 C25.2031,-4.5 27.1094,2 27.1094,4.5 C27.1094,9.40625 23.5,10.2031 19.5,10.2031"/>
<path class="Note" transform="matrix(0.992001,0,0,0.992001,1467.85,373.799)" d="M18.7031,-13.5938 C4.90625,-13.5938 0,-6.59375 0,-0.09375 C0,6.40625 4.90625,13.4063 18.7031,13.4063 C32.5,13.4063 37.2969,6.40625 37.2969,-0.09375 C37.2969,-6.59375 32.5,-13.5938 18.7031,-13.5938 M19.5,10.2031 C16.7031,10.2031 14.7969,9.40625 13.5,6.90625 C12.2031,4.40625 10.4063,-2.09375 10.2969,-4.70313 C10.0938,-7.40625 11.0938,-9 13.5,-9.79688 C14.7031,-10.2031 16.2969,-10.4063 17.9063,-10.4063 C20.5938,-10.4063 22.4063,-9.79688 23.7969,-7.09375 C25.2031,-4.5 27.1094,2 27.1094,4.5 C27.1094,9.40625 23.5,10.2031 19.5,10.2031"/>
<path class="Note" transform="matrix(0.992001,0,0,0.992001,799.709,398.599)" d="M18.7031,-13.5938 C4.90625,-13.5938 0,-6.59375 0,-0.09375 C0,6.40625 4.90625,13.4063 18.7031,13.4063 C32.5,13.4063 37.2969,6.40625 37.2969,-0.09375 C37.2969,-6.59375 32.5,-13.5938 18.7031,-13.5938 M19.5,10.2031 C16.7031,10.2031 14.7969,9.40625 13.5,6.90625 C12.2031,4.40625 10.4063,-2.09375 10.2969,-4.70313 C10.0938,-7.40625 11.0938,-9 13.5,-9.79688 C14.7031,-10.2031 16.2969,-10.4063 17.9063,-10.4063 C20.5938,-10.4063 22.4063,-9.79688 23.7969,-7.09375 C25.2031,-4.5 27.1094,2 27.1094,4.5 C27.1094,9.40625 23.5,10.2031 19.5,10.2031"/>
<path class="Note" transform="matrix(0.992001,0,0,0.992001,1022.42,460.599)" d="M18.7031,-13.5938 C4.90625,-13.5938 0,-6.59375 0,-0.09375 C0,6.40625 4.90625,13.4063 18.7031,13.4063 C32.5,13.4063 37.2969,6.40625 37.2969,-0.09375 C37.2969,-6.59375 32.5,-13.5938 18.7031,-13.5938 M19.5,10.2031 C16.7031,10.2031 14.7969,9.40625 13.5,6.90625 C12.2031,4.40625 10.4063,-2.09375 10.2969,-4.70313 C10.0938,-7.40625 11.0938,-9 13.5,-9.79688 C14.7031,-10.2031 16.2969,-10.4063 17.9063,-10.4063 C20.5938,-10.4063 22.4063,-9.79688 23.7969,-7.09375 C25.2031,-4.5 27.1094,2 27.1094,4.5 C27.1094,9.40625 23.5,10.2031 19.5,10.2031"/>
<path class="Note" transform="matrix(0.992001,0,0,0.992001,1913.27,460.599)" d="M18.7031,-13.5938 C4.90625,-13.5938 0,-6.59375 0,-0.09375 C0,6.40625 4.90625,13.4063 18.7031,13.4063 C32.5,13.4063 37.2969,6.40625 37.2969,-0.09375 C37.2969,-6.59375 32.5,-13.5938 18.7031,-13.5938 M19.5,10.2031 C16.7031,10.2031 14.7969,9.40625 13.5,6.90625 C12.2031,4.40625 10.4063,-2.09375 10.2969,-4.70313 C10.0938,-7.40625 11.0938,-9 13.5,-9.79688 C14.7031,-10.2031 16.2969,-10.4063 17.9063,-10.4063 C20.5938,-10.4063 22.4063,-9.79688 23.7969,-7.09375 C25.2031,-4.5 27.1094,2 27.1094,4.5 C27.1094,9.40625 23.5,10.2031 19.5,10.2031"/>
<path class="Note" transform="matrix(0.992001,0,0,0.992001,1245.13,423.399)" d="M18.7031,-13.5938 C4.90625,-13.5938 0,-6.59375 0,-0.09375 C0,6.40625 4.90625,13.4063 18.7031,13.4063 C32.5,13.4063 37.2969,6.40625 37.2969,-0.09375 C37.2969,-6.59375 32.5,-13.5938 18.7031,-13.5938 M19.5,10.2031 C16.7031,10.2031 14.7969,9.40625 13.5,6.90625 C12.2031,4.40625 10.4063,-2.09375 10.2969,-4.70313 C10.0938,-7.40625 11.0938,-9 13.5,-9.79688 C14.7031,-10.2031 16.2969,-10.4063 17.9063,-10.4063 C20.5938,-10.4063 22.4063,-9.79688 23.7969,-7.09375 C25.2031,-4.5 27.1094,2 27.1094,4.5 C27.1094,9.40625 23.5,10.2031 19.5,10.2031"/>
<path class="Note" transform="matrix(0.992001,0,0,0.992001,1022.42,435.799)" d="M18.7031,-13.5938 C4.90625,-13.5938 0,-6.59375 0,-0.09375 C0,6.40625 4.90625,13.4063 18.7031,13.4063 C32.5,13.4063 37.2969,6.40625 37.2969,-0.09375 C37.2969,-6.59375 32.5,-13.5938 18.7031,-13.5938 M19.5,10.2031 C16.7031,10.2031 14.7969,9.40625 13.5,6.90625 C12.2031,4.40625 10.4063,-2.09375 10.2969,-4.70313 C10.0938,-7.40625 11.0938,-9 13.5,-9.79688 C14.7031,-10.2031 16.2969,-10.4063 17.9063,-10.4063 C20.5938,-10.4063 22.4063,-9.79688 23.7969,-7.09375 C25.2031,-4.5 27.1094,2 27.1094,4.5 C27.1094,9.40625 23.5,10.2031 19.5,10.2031"/>
<path class="Note" transform="matrix(0.992001,0,0,0.992001,1245.13,559.799)" d="M18.7031,-13.5938 C4.90625,-13.5938 0,-6.59375 0,-0.09375 C0,6.40625 4.90625,13.4063 18.7031,13.4063 C32.5,13.4063 37.2969,6.40625 37.2969,-0.09375 C37.2969,-6.59375 32.5,-13.5938 18.7031,-13.5938 M19.5,10.2031 C16.7031,10.2031 14.7969,9.40625 13.5,6.90625 C12.2031,4.40625 10.4063,-2.09375 10.2969,-4.70313 C10.0938,-7.40625 11.0938,-9 13.5,-9.79688 C14.7031,-10.2031 16.2969,-10.4063 17.9063,-10.4063 C20.5938,-10.4063 22.4063,-9.79688 23.7969,-7.09375 C25.2031,-4.5 27.1094,2 27.1094,4.5 C27.1094,9.40625 23.5,10.2031 19.5,10.2031"/>
<path class="Note" transform="matrix(0.992001,0,0,0.992001,1690.56,584.599)" d="M18.7031,-13.5938 C4.90625,-13.5938 0,-6.59375 0,-0.09375 C0,6.40625 4.90625,13.4063 18.7031,13.4063 C32.5,13.4063 37.2969,6.40625 37.2969,-0.09375 C37.2969,-6.59375 32.5,-13.5938 18.7031,-13.5938 M19.5,10.2031 C16.7031,10.2031 14.7969,9.40625 13.5,6.90625 C12.2031,4.40625 10.4063,-2.09375 10.2969,-4.70313 C10.0938,-7.40625 11.0938,-9 13.5,-9.79688 C14.7031,-10.2031 16.2969,-10.4063 17.9063,-10.4063 C20.5938,-10.4063 22.4063,-9.79688 23.7969,-7.09375 C25.2031,-4.5 27.1094,2 27.1094,4.5 C27.1094,9.40625 23.5,10.2031 19.5,10.2031"/>
<path class="Note" transform="matrix(0.992001,0,0,0.992001,1690.56,410.999)" d="M18.7031,-13.5938 C4.90625,-13.5938 0,-6.59375 0,-0.09375 C0,6.40625 4.90625,13.4063 18.7031,13.4063 C32.5,13.4063 37.2969,6.40625 37.2969,-0.09375 C37.2969,-6.59375 32.5,-13.5938 18.7031,-13.5938 M19.5,10.2031 C16.7031,10.2031 14.7969,9.40625 13.5,6.90625 C12.2031,4.40625 10.4063,-2.09375 10.2969,-4.70313 C10.0938,-7.40625 11.0938,-9 13.5,-9.79688 C14.7031,-10.2031 16.2969,-10.4063 17.9063,-10.4063 C20.5938,-10.4063 22.4063,-9.79688 23.7969,-7.09375 C25.2031,-4.5 27.1094,2 27.1094,4.5 C27.1094,9.40625 23.5,10.2031 19.5,10.2031"/>
<path class="Note" transform="matrix(0.992001,0,0,0.992001,1690.56,386.199)" d="M18.7031,-13.5938 C4.90625,-13.5938 0,-6.59375 0,-0.09375 C0,6.40625 4.90625,13.4063 18.7031,13.4063 C32.5,13.4063 37.2969,6.40625 37.2969,-0.09375 C37.2969,-6.59375 32.5,-13.5938 18.7031,-13.5938 M19.5,10.2031 C16.7031,10.2031 14.7969,9.40625 13.5,6.90625 C12.2031,4.40625 10.4063,-2.09375 10.2969,-4.70313 C10.0938,-7.40625 11.0938,-9 13.5,-9.79688 C14.7031,-10.2031 16.2969,-10.4063 17.9063,-10.4063 C20.5938,-10.4063 22.4063,-9.79688 23.7969,-7.09375 C25.2031,-4.5 27.1094,2 27.1094,4.5 C27.1094,9.40625 23.5,10.2031 19.5,10.2031"/>
<path class="Note" transform="matrix(0.992001,0,0,0.992001,1690.56,361.399)" d="M18.7031,-13.5938 C4.90625,-13.5938 0,-6.59375 0,-0.09375 C0,6.40625 4.90625,13.4063 18.7031,13.4063 C32.5,13.4063 37.2969,6.40625 37.2969,-0.09375 C37.2969,-6.59375 32.5,-13.5938 18.7031,-13.5938 M19.5,10.2031 C16.7031,10.2031 14.7969,9.40625 13.5,6.90625 C12.2031,4.40625 10.4063,-2.09375 10.2969,-4.70313 C10.0938,-7.40625 11.0938,-9 13.5,-9.79688 C14.7031,-10.2031 16.2969,-10.4063 17.9063,-10.4063 C20.5938,-10.4063 22.4063,-9.79688 23.7969,-7.09375 C25.2031,-4.5 27.1094,2 27.1094,4.5 C27.1094,9.40625 23.5,10.2031 19.5,10.2031"/>
<path class="Note" transform="matrix(0.992001,0,0,0.992001,1022.42,547.399)" d="M18.7031,-13.5938 C4.90625,-13.5938 0,-6.59375 0,-0.09375 C0,6.40625 4.90625,13.4063 18.7031,13.4063 C32.5,13.4063 37.2969,6.40625 37.2969,-0.09375 C37.2969,-6.59375 32.5,-13.5938 18.7031,-13.5938 M19.5,10.2031 C16.7031,10.2031 14.7969,9.40625 13.5,6.90625 C12.2031,4.40625 10.4063,-2.09375 10.2969,-4.70313 C10.0938,-7.40625 11.0938,-9 13.5,-9.79688 C14.7031,-10.2031 16.2969,-10.4063 17.9063,-10.4063 C20.5938,-10.4063 22.4063,-9.79688 23.7969,-7.09375 C25.2031,-4.5 27.1094,2 27.1094,4.5 C27.1094,9.40625 23.5,10.2031 19.5,10.2031"/>
<path class="Note" transform="matrix(0.992001,0,0,0.992001,1245.13,472.999)" d="M18.7031,-13.5938 C4.90625,-13.5938 0,-6.59375 0,-0.09375 C0,6.40625 4.90625,13.4063 18.7031,13.4063 C32.5,13.4063 37.2969,6.40625 37.2969,-0.09375 C37.2969,-6.59375 32.5,-13.5938 18.7031,-13.5938 M19.5,10.2031 C16.7031,10.2031 14.7969,9.40625 13.5,6.90625 C12.2031,4.40625 10.4063,-2.09375 10.2969,-4.70313 C10.0938,-7.40625 11.0938,-9 13.5,-9.79688 C14.7031,-10.2031 16.2969,-10.4063 17.9063,-10.4063 C20.5938,-10.4063 22.4063,-9.79688 23.7969,-7.09375 C25.2031,-4.5 27.1094,2 27.1094,4.5 C27.1094,9.40625 23.5,10.2031 19.5,10.2031"/>
<path class="Clef" transform="matrix(0.992001,0,0,0.992001,231.198,460.599)" d="M12.2969,51.2969 C12.2969,57.9063 17.2969,66.6094 30.7969,66.6094 C35.5,66.6094 39.6094,65.4063 43.2031,63.2031 C48.6094,59.4063 50,52.7969 50,46.5 C50,42.6094 49.4063,38.1094 48.4063,32.4063 C48.1094,30.4063 47.5,27.4063 46.9063,23.5 C56.7031,20.2969 64,10.0938 64,-0.203125 C64,-15.2969 53.2969,-25.5 38.7031,-25.5 C37.7031,-31.5 36.7031,-37.4063 35.9063,-43 C46.4063,-54.1094 53.7031,-66.6094 53.7031,-82.5 C53.7031,-91.6094 50.9063,-99 49.2969,-102.609 C46.9063,-107.703 44,-111.203 42.2031,-111.203 C41.5,-111.203 38.4063,-110 35.1094,-106.109 C28.7031,-98.5 26.9063,-85.7031 26.9063,-77.3125 C26.9063,-71.9063 27.4063,-67 29.1094,-55.7969 C29,-55.7031 23.7969,-50.4063 21.7031,-48.7031 C12.5938,-40.2969 0,-28.1094 0,-8.09375 C0,10.5938 16.2969,25.2969 34.9063,25.2969 C37.7969,25.2969 40.5,25 42.7969,24.5938 C44.7031,34.2031 45.9063,41.2031 45.9063,46.5 C45.9063,56.9063 40.5,62.4063 30.4063,62.4063 C28,62.4063 25.9063,61.9063 25.7031,61.9063 C25.6094,61.7969 25.4063,61.7031 25.4063,61.6094 C25.4063,61.4063 25.6094,61.2969 25.9063,61.2969 C30.6094,60.5 35.2969,56.5 35.2969,50.1094 C35.2969,44.7031 31.2031,39 23.7031,39 C16.7031,39 12.2969,44.7031 12.2969,51.2969 M33.2031,-82.2031 C34.1094,-86.2031 38.7031,-96.7031 43.9063,-96.7031 C45.4063,-96.7031 47.7969,-91.9063 47.7969,-84.9063 C47.7969,-74.5 40.1094,-66.7031 33.2031,-59.9063 C32.6094,-63.9063 32.1094,-67.7969 32.1094,-72 C32.1094,-75.7031 32.4063,-79.1094 33.2031,-82.2031 M42,20.5938 C40,21 38.1094,21.2031 36.2031,21.2031 C21.9063,21.2031 9.70313,11.2031 9.70313,-3.90625 C9.70313,-16.0938 18.2969,-27 27.1094,-34.6094 C28.7969,-36.1094 30.4063,-37.5 31.9063,-39 C32.7969,-33.6094 33.5,-28.9063 34.2031,-24.7969 C25.0938,-22.0938 18.9063,-12.5 18.9063,-3.09375 C18.9063,3.90625 24.4063,13.5 32.4063,13.5 C33.2031,13.5 34.1094,13.0938 34.1094,12.2031 C34.1094,11.2969 33.1094,10.7969 31.9063,10 C28,7.59375 25.7969,5 25.7969,0.09375 C25.7969,-6 30.4063,-10.9063 36.2031,-12.2969 L42,20.5938 M56.2031,2.09375 C56.2031,9.20313 53.2969,16.5 46.2031,19.4063 C44.1094,7.40625 41.4063,-8.5 40.7031,-12.9063 C49.7031,-12.9063 56.2031,-6.79688 56.2031,2.09375"/>
<path class="Harmony" d="M609.883,287.745 L607.993,287.745 L606.04,290.745 C602.79,288.199 600.586,287.339 596.93,287.339 C592.977,287.339 589.883,288.449 586.727,290.995 C581.79,294.995 579.477,300.042 579.477,306.792 C579.477,311.902 580.93,316.152 583.883,319.402 C586.977,322.902 591.586,324.949 596.383,324.949 C600.586,324.949 603.54,323.652 606.79,320.402 L608.633,324.902 L610.743,324.902 L610.743,313.902 C610.743,311.355 610.743,311.245 611.04,310.792 C611.493,310.245 612.383,310.105 615.243,310.105 L615.993,310.105 L615.993,307.745 L600.086,307.745 L600.086,310.105 L601.04,310.105 C605.243,310.105 605.586,310.355 605.586,313.152 C605.586,315.292 605.243,317.245 604.586,318.449 C603.336,320.902 600.133,322.605 596.883,322.605 C593.633,322.605 590.43,320.949 588.727,318.449 C586.883,315.652 586.086,312.152 586.086,306.792 C586.086,295.652 589.79,289.699 596.727,289.699 C602.43,289.699 606.383,293.792 608.43,301.792 L610.586,301.792 L609.883,287.745 "/>
<path class="Harmony" d="M386.624,287.745 L384.718,287.745 L382.718,290.699 C379.077,288.042 377.218,287.339 373.765,287.339 C369.015,287.339 364.968,289.339 361.624,293.339 C358.421,297.152 356.921,301.355 356.921,306.495 C356.921,317.292 363.968,324.949 373.827,324.949 C381.827,324.949 386.921,320.245 388.077,311.855 L385.718,311.449 C384.374,318.902 380.577,322.605 374.421,322.605 C367.015,322.605 363.515,317.495 363.515,306.699 C363.515,300.995 364.265,297.245 365.968,294.245 C367.515,291.449 370.577,289.699 373.827,289.699 C377.327,289.699 380.421,291.542 382.327,294.745 C383.28,296.402 383.968,298.245 385.171,302.199 L387.374,302.199 L386.624,287.745 "/>
<path class="Harmony" d="M1500.19,287.745 L1498.28,287.745 L1496.28,290.699 C1492.64,288.042 1490.78,287.339 1487.33,287.339 C1482.58,287.339 1478.53,289.339 1475.19,293.339 C1471.98,297.152 1470.48,301.355 1470.48,306.495 C1470.48,317.292 1477.53,324.949 1487.39,324.949 C1495.39,324.949 1500.48,320.245 1501.64,311.855 L1499.28,311.449 C1497.94,318.902 1494.14,322.605 1487.98,322.605 C1480.58,322.605 1477.08,317.495 1477.08,306.699 C1477.08,300.995 1477.83,297.245 1479.53,294.245 C1481.08,291.449 1484.14,289.699 1487.39,289.699 C1490.89,289.699 1493.98,291.542 1495.89,294.745 C1496.84,296.402 1497.53,298.245 1498.73,302.199 L1500.94,302.199 L1500.19,287.745 "/>
<path class="Harmony" d="M1055.31,288.089 L1025.26,288.089 L1025.26,290.449 L1026.15,290.449 C1029.01,290.495 1029.96,290.652 1030.35,291.152 C1030.65,291.589 1030.65,291.699 1030.65,294.245 L1030.65,318.042 C1030.65,320.605 1030.65,320.699 1030.35,321.152 C1029.96,321.652 1029.01,321.855 1026.15,321.855 L1025.26,321.855 L1025.26,324.199 L1055.96,324.199 L1056.96,310.855 L1054.76,310.855 C1052.85,319.745 1050.81,321.652 1043.15,321.855 L1039.85,321.855 C1036.85,321.745 1036.1,321.245 1036.26,319.449 L1036.26,306.699 L1037.26,306.699 C1042.4,306.495 1044.26,308.355 1044.46,313.902 L1046.81,313.902 L1046.81,297.495 L1044.46,297.495 C1044.15,302.402 1042.21,304.355 1037.46,304.355 L1036.26,304.355 L1036.26,292.949 C1036.21,290.839 1036.71,290.495 1039.4,290.449 L1042.01,290.449 C1050.21,290.402 1052.26,292.199 1053.85,300.855 L1056.01,300.855 L1055.31,288.089 "/>
<path class="Harmony" d="M1072.31,300.902 L1063.42,301.449 L1063.42,303.605 L1065.46,303.605 C1067.35,303.652 1067.6,303.949 1067.6,306.105 L1067.6,320.402 C1067.56,321.152 1067.51,321.449 1067.31,321.699 C1066.96,322.152 1066.01,322.355 1063.85,322.402 L1063.67,322.402 L1063.67,324.199 L1076.26,324.199 L1076.26,322.402 L1076.06,322.402 C1072.76,322.292 1072.31,322.042 1072.31,320.199 L1072.31,310.949 C1072.31,306.495 1074.76,303.199 1078.01,303.199 C1080.85,303.199 1082.31,305.245 1082.31,309.292 L1082.31,320.449 C1082.26,321.105 1082.21,321.449 1081.96,321.699 C1081.67,322.152 1080.67,322.355 1078.51,322.402 L1078.31,322.402 L1078.31,324.199 L1090.96,324.199 L1090.96,322.402 L1090.76,322.402 C1087.46,322.292 1087.01,322.042 1087.01,320.245 L1087.01,311.402 C1087.01,306.402 1089.26,303.199 1092.76,303.199 C1095.62,303.199 1097.01,305.355 1097.01,309.855 L1097.01,320.402 C1096.96,321.105 1096.92,321.449 1096.67,321.699 C1096.37,322.152 1095.37,322.355 1093.21,322.402 L1093.01,322.402 L1093.01,324.199 L1105.67,324.199 L1105.67,322.402 L1105.46,322.402 C1102.17,322.292 1101.71,322.042 1101.71,320.199 L1101.71,308.855 C1101.71,305.745 1101.42,304.699 1100.12,302.995 C1098.67,301.152 1096.62,300.152 1094.21,300.152 C1090.96,300.152 1088.56,301.699 1086.42,305.152 C1085.56,302.152 1082.85,300.152 1079.51,300.152 C1076.46,300.152 1074.26,301.605 1072.31,304.745 L1072.31,300.902 "/>
<path class="Harmony" d="M1693.4,324.199 L1710.19,324.199 C1714.65,324.199 1718.05,323.495 1720.69,321.995 C1725.74,319.152 1728.55,313.449 1728.55,305.949 C1728.55,299.042 1726.05,293.652 1721.44,290.652 C1718.69,288.902 1714.99,288.089 1709.29,288.089 L1693.4,288.089 L1693.4,290.449 L1694.35,290.449 C1697.15,290.495 1698.1,290.652 1698.49,291.152 C1698.79,291.589 1698.79,291.699 1698.79,294.245 L1698.79,318.042 C1698.79,320.605 1698.79,320.699 1698.49,321.152 C1698.1,321.652 1697.15,321.792 1694.35,321.855 L1693.4,321.855 L1693.4,324.199 M1707.24,321.855 C1704.69,321.855 1704.4,321.542 1704.4,319.105 L1704.4,293.245 C1704.4,290.792 1704.74,290.449 1707.24,290.449 L1709.85,290.449 C1718.4,290.449 1721.94,295.089 1721.94,306.152 C1721.94,317.355 1718.74,321.855 1710.65,321.855 L1707.24,321.855 "/>
<path class="Harmony" d="M1743.44,300.902 L1734.55,301.449 L1734.55,303.605 L1736.6,303.605 C1738.49,303.652 1738.74,303.949 1738.74,306.105 L1738.74,320.402 C1738.69,321.152 1738.65,321.449 1738.44,321.699 C1738.1,322.152 1737.15,322.355 1734.99,322.402 L1734.8,322.402 L1734.8,324.199 L1747.4,324.199 L1747.4,322.402 L1747.19,322.402 C1743.9,322.292 1743.44,322.042 1743.44,320.199 L1743.44,310.949 C1743.44,306.495 1745.9,303.199 1749.15,303.199 C1751.99,303.199 1753.44,305.245 1753.44,309.292 L1753.44,320.449 C1753.4,321.105 1753.35,321.449 1753.1,321.699 C1752.8,322.152 1751.8,322.355 1749.65,322.402 L1749.44,322.402 L1749.44,324.199 L1762.1,324.199 L1762.1,322.402 L1761.9,322.402 C1758.6,322.292 1758.15,322.042 1758.15,320.245 L1758.15,311.402 C1758.15,306.402 1760.4,303.199 1763.9,303.199 C1766.76,303.199 1768.15,305.355 1768.15,309.855 L1768.15,320.402 C1768.1,321.105 1768.05,321.449 1767.8,321.699 C1767.51,322.152 1766.51,322.355 1764.35,322.402 L1764.15,322.402 L1764.15,324.199 L1776.8,324.199 L1776.8,322.402 L1776.6,322.402 C1773.3,322.292 1772.85,322.042 1772.85,320.199 L1772.85,308.855 C1772.85,305.745 1772.55,304.699 1771.26,302.995 C1769.8,301.152 1767.76,300.152 1765.35,300.152 C1762.1,300.152 1759.69,301.699 1757.55,305.152 C1756.69,302.152 1753.99,300.152 1750.65,300.152 C1747.6,300.152 1745.4,301.605 1743.44,304.745 L1743.44,300.902 "/>
<path class="Harmony" d="M1277.72,288.089 L1247.97,288.089 L1247.97,290.449 L1248.86,290.449 C1251.72,290.495 1252.68,290.652 1253.07,291.152 C1253.36,291.589 1253.36,291.699 1253.36,294.245 L1253.36,318.042 C1253.36,320.605 1253.36,320.699 1253.07,321.152 C1252.68,321.652 1251.72,321.855 1248.86,321.855 L1247.97,321.855 L1247.97,324.199 L1265.11,324.199 L1265.11,321.855 L1263.47,321.855 C1260.61,321.855 1259.68,321.652 1259.27,321.152 C1258.97,320.699 1258.97,320.542 1258.97,318.042 L1258.97,306.699 L1259.97,306.699 C1265.11,306.495 1266.97,308.355 1267.18,313.902 L1269.52,313.902 L1269.52,297.495 L1267.18,297.495 C1266.86,302.402 1264.93,304.292 1260.18,304.355 L1258.97,304.355 L1258.97,292.949 C1258.93,290.839 1259.43,290.495 1262.11,290.449 L1264.43,290.449 C1272.63,290.402 1274.68,292.245 1276.22,300.855 L1278.43,300.855 L1277.72,288.089 "/>
<path class="Harmony" d="M1946.16,287.745 L1944.27,287.745 L1942.31,290.745 C1939.06,288.199 1936.86,287.339 1933.2,287.339 C1929.25,287.339 1926.16,288.449 1923,290.995 C1918.06,294.995 1915.75,300.042 1915.75,306.792 C1915.75,311.902 1917.2,316.152 1920.16,319.402 C1923.25,322.902 1927.86,324.949 1932.66,324.949 C1936.86,324.949 1939.81,323.652 1943.06,320.402 L1944.91,324.902 L1947.02,324.902 L1947.02,313.902 C1947.02,311.355 1947.02,311.245 1947.31,310.792 C1947.77,310.245 1948.66,310.105 1951.52,310.105 L1952.27,310.105 L1952.27,307.745 L1936.36,307.745 L1936.36,310.105 L1937.31,310.105 C1941.52,310.105 1941.86,310.355 1941.86,313.152 C1941.86,315.292 1941.52,317.245 1940.86,318.449 C1939.61,320.902 1936.41,322.605 1933.16,322.605 C1929.91,322.605 1926.7,320.949 1925,318.449 C1923.16,315.652 1922.36,312.152 1922.36,306.792 C1922.36,295.652 1926.06,289.699 1933,289.699 C1938.7,289.699 1942.66,293.792 1944.7,301.792 L1946.86,301.792 L1946.16,287.745 "/>
<path class="Harmony" d="M822.002,287.402 L819.893,287.402 L808.393,316.542 C807.049,320.449 805.752,321.652 802.893,321.855 L802.689,321.855 L802.689,324.199 L815.939,324.199 L815.939,321.855 L814.939,321.855 C812.252,321.855 810.893,320.902 810.893,318.995 C810.893,318.355 811.049,317.745 811.346,316.902 L813.002,312.495 L826.252,312.495 L828.955,319.199 C829.252,319.995 829.346,320.292 829.346,320.542 C829.346,321.355 828.096,321.855 826.252,321.855 L824.143,321.855 L824.143,324.199 L839.643,324.199 L839.643,321.855 L838.955,321.855 C836.346,321.792 835.893,321.495 834.752,318.652 L822.002,287.402 M819.549,295.589 L825.189,309.792 L814.002,309.792 L819.549,295.589 "/>
<path class="Harmony" d="M851.596,300.902 L842.705,301.449 L842.705,303.605 L844.752,303.605 C846.643,303.652 846.893,303.949 846.893,306.105 L846.893,320.402 C846.846,321.152 846.799,321.449 846.596,321.699 C846.252,322.152 845.299,322.355 843.143,322.402 L842.955,322.402 L842.955,324.199 L855.549,324.199 L855.549,322.402 L855.346,322.402 C852.049,322.292 851.596,322.042 851.596,320.199 L851.596,310.949 C851.596,306.495 854.049,303.199 857.299,303.199 C860.143,303.199 861.596,305.245 861.596,309.292 L861.596,320.449 C861.549,321.105 861.502,321.449 861.252,321.699 C860.955,322.152 859.955,322.355 857.799,322.402 L857.596,322.402 L857.596,324.199 L870.252,324.199 L870.252,322.402 L870.049,322.402 C866.752,322.292 866.299,322.042 866.299,320.245 L866.299,311.402 C866.299,306.402 868.549,303.199 872.049,303.199 C874.908,303.199 876.299,305.355 876.299,309.855 L876.299,320.402 C876.252,321.105 876.205,321.449 875.955,321.699 C875.658,322.152 874.658,322.355 872.502,322.402 L872.299,322.402 L872.299,324.199 L884.955,324.199 L884.955,322.402 L884.752,322.402 C881.455,322.292 881.002,322.042 881.002,320.199 L881.002,308.855 C881.002,305.745 880.705,304.699 879.408,302.995 C877.955,301.152 875.908,300.152 873.502,300.152 C870.252,300.152 867.846,301.699 865.705,305.152 C864.846,302.152 862.143,300.152 858.799,300.152 C855.752,300.152 853.549,301.605 851.596,304.745 L851.596,300.902 "/>
<path class="Page" d="M2089.2,212.661 L2087.28,212.661 C2083.81,215.255 2079.91,216.348 2073.36,216.458 L2073.36,219.536 L2075.67,219.536 C2080.56,219.536 2080.63,219.645 2080.56,224.161 L2080.56,243.676 C2080.56,247.083 2080.56,247.255 2080.19,247.801 C2079.69,248.411 2078.58,248.63 2075.61,248.63 L2073.86,248.63 L2073.86,251.598 L2095.8,251.598 L2095.8,248.63 L2094.03,248.63 C2091.13,248.63 2090.08,248.411 2089.58,247.801 C2089.2,247.255 2089.2,247.036 2089.2,243.676 L2089.2,212.661 M2121.2,212.661 L2119.28,212.661 C2115.81,215.255 2111.91,216.348 2105.36,216.458 L2105.36,219.536 L2107.67,219.536 C2112.56,219.536 2112.63,219.645 2112.56,224.161 L2112.56,243.676 C2112.56,247.083 2112.56,247.255 2112.19,247.801 C2111.69,248.411 2110.58,248.63 2107.61,248.63 L2105.86,248.63 L2105.86,251.598 L2127.8,251.598 L2127.8,248.63 L2126.03,248.63 C2123.13,248.63 2122.08,248.411 2121.58,247.801 C2121.2,247.255 2121.2,247.036 2121.2,243.676 L2121.2,212.661 "/>
</svg>
