<?xml version="1.0" encoding="UTF-8" standalone="no"?>
<svg width="2340px" height="1260px" viewBox="0 0 2340 1260"
 xmlns="http://www.w3.org/2000/svg" xmlns:xlink="http://www.w3.org/1999/xlink" version="1.2" baseProfile="tiny">
<title>和弦 (5)</title>
<desc>Generated by MuseScore Studio 4.4.4</desc>
<path class="" fill="#ffffff" fill-rule="evenodd" d="M0,0 L2340,0 L2340,1260 L0,1260 L0,0 "/>
<polyline class="StaffLines" fill="none" stroke="#000000" stroke-width="2.73" stroke-linejoin="bevel" points="212.598,386.199 2127.8,386.199"/>
<polyline class="StaffLines" fill="none" stroke="#000000" stroke-width="2.73" stroke-linejoin="bevel" points="212.598,410.999 2127.8,410.999"/>
<polyline class="StaffLines" fill="none" stroke="#000000" stroke-width="2.73" stroke-linejoin="bevel" points="212.598,435.799 2127.8,435.799"/>
<polyline class="StaffLines" fill="none" stroke="#000000" stroke-width="2.73" stroke-linejoin="bevel" points="212.598,460.599 2127.8,460.599"/>
<polyline class="StaffLines" fill="none" stroke="#000000" stroke-width="2.73" stroke-linejoin="bevel" points="212.598,485.399 2127.8,485.399"/>
<polyline class="StaffLines" fill="none" stroke="#000000" stroke-width="2.73" stroke-linejoin="bevel" points="212.598,774.601 2127.8,774.601"/>
<polyline class="StaffLines" fill="none" stroke="#000000" stroke-width="2.73" stroke-linejoin="bevel" points="212.598,799.401 2127.8,799.401"/>
<polyline class="StaffLines" fill="none" stroke="#000000" stroke-width="2.73" stroke-linejoin="bevel" points="212.598,824.201 2127.8,824.201"/>
<polyline class="StaffLines" fill="none" stroke="#000000" stroke-width="2.73" stroke-linejoin="bevel" points="212.598,849.001 2127.8,849.001"/>
<polyline class="StaffLines" fill="none" stroke="#000000" stroke-width="2.73" stroke-linejoin="bevel" points="212.598,873.801 2127.8,873.801"/>
<path class="MeasureNumber" d="M217.083,321.286 C215.833,322.036 215.473,322.52 215.473,323.317 C215.473,324.083 216.114,324.645 216.911,324.645 C217.958,324.645 218.551,323.88 218.676,322.395 C219.911,321.395 221.239,320.958 222.833,320.958 C225.801,320.958 227.442,322.802 227.442,326.114 C227.442,331.317 224.083,335.552 219.958,335.552 C217.598,335.552 215.676,334.442 215.676,333.114 C215.676,332.88 215.723,332.802 215.911,332.677 C217.192,332.083 218.239,331.645 218.239,329.958 C218.239,328.677 217.239,327.724 215.833,327.724 C214.083,327.724 212.755,329.192 212.755,331.114 C212.755,334.645 215.801,337.192 220.083,337.192 C226.551,337.192 231.801,332.036 231.801,325.645 C231.801,321.599 228.723,318.755 224.364,318.755 C222.63,318.755 221.239,319.114 219.317,320.083 L221.551,312.52 C223.676,312.958 225.364,313.161 226.801,313.161 C229.442,313.161 231.801,312.317 233.114,310.927 C233.801,310.13 234.192,309.442 234.192,308.927 C234.192,308.677 234.067,308.442 233.911,308.442 C233.801,308.442 233.708,308.489 233.473,308.599 C232.161,309.239 230.473,309.599 228.911,309.599 C226.52,309.599 223.676,309.208 220.723,308.442 L217.083,321.286 M257.036,308.442 C254.911,308.677 252.317,308.849 250.083,308.849 C248.958,308.849 247.676,308.802 246.239,308.724 C244.911,308.645 243.598,308.567 242.239,308.489 L241.239,308.442 L237.364,316.88 L238.833,317.364 L239.801,315.755 C241.676,312.645 242.551,312.208 246.63,312.239 L253.395,312.239 L249.036,318.489 C243.911,325.677 243.911,325.677 241.958,328.88 C240.192,331.724 239.473,333.474 239.473,334.911 C239.473,336.317 240.364,337.192 241.755,337.192 C243.239,337.192 243.989,336.474 244.52,334.599 C246.52,327.083 247.723,324.474 253.27,315.489 L257.036,309.645 L257.036,308.442 "/>
<path class="MeasureNumber" d="M217.911,711.611 C218.598,708.079 219.395,705.892 220.911,703.204 C222.723,700.048 224.88,698.439 227.27,698.439 C228.52,698.439 229.27,698.923 229.27,699.689 C229.27,699.97 229.192,700.126 228.911,700.642 C228.551,701.329 228.395,701.798 228.395,702.407 C228.395,703.689 229.348,704.564 230.708,704.564 C232.348,704.564 233.473,703.361 233.473,701.564 C233.473,698.845 230.911,696.845 227.348,696.845 C218.442,696.845 213.036,708.486 213.036,716.157 C213.036,722.048 215.958,725.595 220.833,725.595 C226.833,725.595 231.27,720.642 231.27,714.767 C231.27,710.689 228.52,707.845 224.52,707.845 C221.723,707.845 219.551,709.048 217.911,711.611 M223.239,710.157 C225.723,710.157 227.083,711.876 227.083,715.001 C227.083,720.079 224.395,723.954 220.833,723.954 C218.27,723.954 216.755,722.079 216.755,718.876 C216.755,713.876 219.52,710.157 223.239,710.157 M247.63,696.845 C239.036,696.845 234.755,708.689 234.755,715.72 C234.755,721.517 237.645,725.595 241.723,725.595 C248.551,725.595 254.676,716.72 254.676,706.798 C254.676,700.845 251.833,696.845 247.63,696.845 M247.598,698.439 C249.676,698.439 250.801,700.282 250.801,703.72 C250.801,707.642 249.801,712.72 248.161,716.845 C246.239,721.845 244.317,724.001 241.911,724.001 C239.755,724.001 238.551,722.079 238.551,718.689 C238.551,713.486 240.395,706.517 242.958,701.892 C244.192,699.642 245.801,698.439 247.598,698.439"/>
<polyline class="BarLine" fill="none" stroke="#000000" stroke-width="4.46" stroke-linejoin="bevel" points="1510.44,384.835 1510.44,486.763"/>
<polyline class="BarLine" fill="none" stroke="#000000" stroke-width="4.46" stroke-linejoin="bevel" points="2102.75,773.237 2102.75,875.165"/>
<polyline class="BarLine" fill="none" stroke="#000000" stroke-width="13.64" stroke-linejoin="bevel" points="2120.98,773.237 2120.98,875.165"/>
<polyline class="BarLine" fill="none" stroke="#000000" stroke-width="4.46" stroke-linejoin="bevel" points="918.134,384.835 918.134,486.763"/>
<polyline class="BarLine" fill="none" stroke="#000000" stroke-width="4.46" stroke-linejoin="bevel" points="2102.75,384.835 2102.75,486.763"/>
<polyline class="BarLine" fill="none" stroke="#000000" stroke-width="13.64" stroke-linejoin="bevel" points="2120.98,384.835 2120.98,486.763"/>
<polyline class="BarLine" fill="none" stroke="#000000" stroke-width="4.46" stroke-linejoin="bevel" points="1212.8,773.237 1212.8,875.165"/>
<polyline class="LedgerLine" fill="none" stroke="#000000" stroke-width="3.97" stroke-linejoin="bevel" points="1879.46,898.601 1928.05,898.601"/>
<polyline class="LedgerLine" fill="none" stroke="#000000" stroke-width="3.97" stroke-linejoin="bevel" points="1237.84,923.401 1286.44,923.401"/>
<polyline class="LedgerLine" fill="none" stroke="#000000" stroke-width="3.97" stroke-linejoin="bevel" points="350.874,510.199 399.467,510.199"/>
<polyline class="LedgerLine" fill="none" stroke="#000000" stroke-width="3.97" stroke-linejoin="bevel" points="350.874,534.999 399.467,534.999"/>
<polyline class="LedgerLine" fill="none" stroke="#000000" stroke-width="3.97" stroke-linejoin="bevel" points="1340.93,510.199 1389.52,510.199"/>
<polyline class="LedgerLine" fill="none" stroke="#000000" stroke-width="3.97" stroke-linejoin="bevel" points="1933.24,361.399 1981.83,361.399"/>
<polyline class="LedgerLine" fill="none" stroke="#000000" stroke-width="3.97" stroke-linejoin="bevel" points="1237.84,898.601 1286.44,898.601"/>
<polyline class="LedgerLine" fill="none" stroke="#000000" stroke-width="3.97" stroke-linejoin="bevel" points="589.521,510.199 638.114,510.199"/>
<polyline class="LedgerLine" fill="none" stroke="#000000" stroke-width="3.97" stroke-linejoin="bevel" points="748.62,510.199 797.212,510.199"/>
<polyline class="LedgerLine" fill="none" stroke="#000000" stroke-width="3.97" stroke-linejoin="bevel" points="943.182,510.199 991.775,510.199"/>
<polyline class="LedgerLine" fill="none" stroke="#000000" stroke-width="3.97" stroke-linejoin="bevel" points="989.504,749.801 1038.1,749.801"/>
<polyline class="LedgerLine" fill="none" stroke="#000000" stroke-width="3.97" stroke-linejoin="bevel" points="1181.83,510.199 1230.42,510.199"/>
<polyline class="LedgerLine" fill="none" stroke="#000000" stroke-width="3.97" stroke-linejoin="bevel" points="1450.72,898.601 1499.31,898.601"/>
<polyline class="LedgerLine" fill="none" stroke="#000000" stroke-width="3.97" stroke-linejoin="bevel" points="1663.6,898.601 1712.19,898.601"/>
<polyline class="Stem" fill="none" stroke="#000000" stroke-width="2.48" stroke-linejoin="bevel" points="1489.89,894.633 1489.89,756.001"/>
<polyline class="Stem" fill="none" stroke="#000000" stroke-width="2.48" stroke-linejoin="bevel" points="1544.91,415.165 1544.91,522.599"/>
<polyline class="Stem" fill="none" stroke="#000000" stroke-width="2.48" stroke-linejoin="bevel" points="390.043,869.833 390.043,737.401"/>
<polyline class="Stem" fill="none" stroke="#000000" stroke-width="2.48" stroke-linejoin="bevel" points="998.928,741.568 998.928,886.201"/>
<polyline class="Stem" fill="none" stroke="#000000" stroke-width="2.48" stroke-linejoin="bevel" points="628.69,506.231 628.69,367.599"/>
<polyline class="Stem" fill="none" stroke="#000000" stroke-width="2.48" stroke-linejoin="bevel" points="1221,493.831 1221,361.399"/>
<polyline class="Stem" fill="none" stroke="#000000" stroke-width="2.48" stroke-linejoin="bevel" points="390.043,531.031 390.043,398.599"/>
<polyline class="Stem" fill="none" stroke="#000000" stroke-width="2.48" stroke-linejoin="bevel" points="1942.66,353.165 1942.66,497.799"/>
<polyline class="Stem" fill="none" stroke="#000000" stroke-width="2.48" stroke-linejoin="bevel" points="573.175,791.168 573.175,911.001"/>
<polyline class="Stem" fill="none" stroke="#000000" stroke-width="2.48" stroke-linejoin="bevel" points="1783.56,377.965 1783.56,510.199"/>
<polyline class="Stem" fill="none" stroke="#000000" stroke-width="2.48" stroke-linejoin="bevel" points="786.051,766.368 786.051,898.601"/>
<polyline class="Stem" fill="none" stroke="#000000" stroke-width="2.48" stroke-linejoin="bevel" points="787.788,481.431 787.788,355.199"/>
<polyline class="Stem" fill="none" stroke="#000000" stroke-width="2.48" stroke-linejoin="bevel" points="1702.77,869.833 1702.77,743.601"/>
<polyline class="Stem" fill="none" stroke="#000000" stroke-width="2.48" stroke-linejoin="bevel" points="982.351,518.631 982.351,386.199"/>
<polyline class="Stem" fill="none" stroke="#000000" stroke-width="2.48" stroke-linejoin="bevel" points="1888.88,791.168 1888.88,911.001"/>
<polyline class="Stem" fill="none" stroke="#000000" stroke-width="2.48" stroke-linejoin="bevel" points="1277.01,919.433 1277.01,762.201"/>
<polyline class="Stem" fill="none" stroke="#000000" stroke-width="2.48" stroke-linejoin="bevel" points="1380.1,469.031 1380.1,348.999"/>
<path class="Note" transform="matrix(0.992001,0,0,0.992001,756.804,485.399)" d="M0,4.20313 C0,8.5 3.09375,13.2969 11.2031,13.2969 C21.5938,13.2969 32.5,4.79688 32.5,-4 C32.5,-9.90625 27.5,-13.2031 21.2969,-13.2031 C11.5938,-13.2031 0,-5 0,4.20313"/>
<path class="Note" transform="matrix(0.992001,0,0,0.992001,756.804,448.199)" d="M0,4.20313 C0,8.5 3.09375,13.2969 11.2031,13.2969 C21.5938,13.2969 32.5,4.79688 32.5,-4 C32.5,-9.90625 27.5,-13.2031 21.2969,-13.2031 C11.5938,-13.2031 0,-5 0,4.20313"/>
<path class="Note" transform="matrix(0.992001,0,0,0.992001,756.804,423.399)" d="M0,4.20313 C0,8.5 3.09375,13.2969 11.2031,13.2969 C21.5938,13.2969 32.5,4.79688 32.5,-4 C32.5,-9.90625 27.5,-13.2031 21.2969,-13.2031 C11.5938,-13.2031 0,-5 0,4.20313"/>
<path class="Note" transform="matrix(0.992001,0,0,0.992001,951.366,522.599)" d="M21.2969,-13.2031 C11.5938,-13.2031 0,-5.09375 0,4.20313 C0,8.5 3.09375,13.2969 11.2031,13.2969 C21.5938,13.2969 32.5,4.79688 32.5,-4 C32.5,-9.90625 27.5,-13.2031 21.2969,-13.2031 M7.5,8.59375 C4.20313,8.59375 3.5,5.90625 3.5,5 C3.5,0.09375 20.2969,-8.5 25,-8.5 C27.4063,-8.5 29,-7.09375 29,-4.90625 C29,0.09375 12.0938,8.59375 7.5,8.59375"/>
<path class="Note" transform="matrix(0.992001,0,0,0.992001,951.366,497.799)" d="M21.2969,-13.2031 C11.5938,-13.2031 0,-5.09375 0,4.20313 C0,8.5 3.09375,13.2969 11.2031,13.2969 C21.5938,13.2969 32.5,4.79688 32.5,-4 C32.5,-9.90625 27.5,-13.2031 21.2969,-13.2031 M7.5,8.59375 C4.20313,8.59375 3.5,5.90625 3.5,5 C3.5,0.09375 20.2969,-8.5 25,-8.5 C27.4063,-8.5 29,-7.09375 29,-4.90625 C29,0.09375 12.0938,8.59375 7.5,8.59375"/>
<path class="Note" transform="matrix(0.992001,0,0,0.992001,951.366,472.999)" d="M21.2969,-13.2031 C11.5938,-13.2031 0,-5.09375 0,4.20313 C0,8.5 3.09375,13.2969 11.2031,13.2969 C21.5938,13.2969 32.5,4.79688 32.5,-4 C32.5,-9.90625 27.5,-13.2031 21.2969,-13.2031 M7.5,8.59375 C4.20313,8.59375 3.5,5.90625 3.5,5 C3.5,0.09375 20.2969,-8.5 25,-8.5 C27.4063,-8.5 29,-7.09375 29,-4.90625 C29,0.09375 12.0938,8.59375 7.5,8.59375"/>
<path class="Note" transform="matrix(0.992001,0,0,0.992001,1190.01,497.799)" d="M0,4.20313 C0,8.5 3.09375,13.2969 11.2031,13.2969 C21.5938,13.2969 32.5,4.79688 32.5,-4 C32.5,-9.90625 27.5,-13.2031 21.2969,-13.2031 C11.5938,-13.2031 0,-5 0,4.20313"/>
<path class="Note" transform="matrix(0.992001,0,0,0.992001,1190.01,472.999)" d="M0,4.20313 C0,8.5 3.09375,13.2969 11.2031,13.2969 C21.5938,13.2969 32.5,4.79688 32.5,-4 C32.5,-9.90625 27.5,-13.2031 21.2969,-13.2031 C11.5938,-13.2031 0,-5 0,4.20313"/>
<path class="Note" transform="matrix(0.992001,0,0,0.992001,1190.01,435.799)" d="M0,4.20313 C0,8.5 3.09375,13.2969 11.2031,13.2969 C21.5938,13.2969 32.5,4.79688 32.5,-4 C32.5,-9.90625 27.5,-13.2031 21.2969,-13.2031 C11.5938,-13.2031 0,-5 0,4.20313"/>
<path class="Note" transform="matrix(0.992001,0,0,0.992001,1349.11,472.999)" d="M0,4.20313 C0,8.5 3.09375,13.2969 11.2031,13.2969 C21.5938,13.2969 32.5,4.79688 32.5,-4 C32.5,-9.90625 27.5,-13.2031 21.2969,-13.2031 C11.5938,-13.2031 0,-5 0,4.20313"/>
<path class="Note" transform="matrix(0.992001,0,0,0.992001,1349.11,435.799)" d="M0,4.20313 C0,8.5 3.09375,13.2969 11.2031,13.2969 C21.5938,13.2969 32.5,4.79688 32.5,-4 C32.5,-9.90625 27.5,-13.2031 21.2969,-13.2031 C11.5938,-13.2031 0,-5 0,4.20313"/>
<path class="Note" transform="matrix(0.992001,0,0,0.992001,1349.11,410.999)" d="M0,4.20313 C0,8.5 3.09375,13.2969 11.2031,13.2969 C21.5938,13.2969 32.5,4.79688 32.5,-4 C32.5,-9.90625 27.5,-13.2031 21.2969,-13.2031 C11.5938,-13.2031 0,-5 0,4.20313"/>
<path class="Note" transform="matrix(0.992001,0,0,0.992001,1543.67,460.599)" d="M21.2969,-13.2031 C11.5938,-13.2031 0,-5.09375 0,4.20313 C0,8.5 3.09375,13.2969 11.2031,13.2969 C21.5938,13.2969 32.5,4.79688 32.5,-4 C32.5,-9.90625 27.5,-13.2031 21.2969,-13.2031 M7.5,8.59375 C4.20313,8.59375 3.5,5.90625 3.5,5 C3.5,0.09375 20.2969,-8.5 25,-8.5 C27.4063,-8.5 29,-7.09375 29,-4.90625 C29,0.09375 12.0938,8.59375 7.5,8.59375"/>
<path class="Note" transform="matrix(0.992001,0,0,0.992001,1543.67,410.999)" d="M21.2969,-13.2031 C11.5938,-13.2031 0,-5.09375 0,4.20313 C0,8.5 3.09375,13.2969 11.2031,13.2969 C21.5938,13.2969 32.5,4.79688 32.5,-4 C32.5,-9.90625 27.5,-13.2031 21.2969,-13.2031 M7.5,8.59375 C4.20313,8.59375 3.5,5.90625 3.5,5 C3.5,0.09375 20.2969,-8.5 25,-8.5 C27.4063,-8.5 29,-7.09375 29,-4.90625 C29,0.09375 12.0938,8.59375 7.5,8.59375"/>
<path class="Note" transform="matrix(0.992001,0,0,0.992001,1782.32,435.799)" d="M0,4.20313 C0,8.5 3.09375,13.2969 11.2031,13.2969 C21.5938,13.2969 32.5,4.79688 32.5,-4 C32.5,-9.90625 27.5,-13.2031 21.2969,-13.2031 C11.5938,-13.2031 0,-5 0,4.20313"/>
<path class="Note" transform="matrix(0.992001,0,0,0.992001,1782.32,410.999)" d="M0,4.20313 C0,8.5 3.09375,13.2969 11.2031,13.2969 C21.5938,13.2969 32.5,4.79688 32.5,-4 C32.5,-9.90625 27.5,-13.2031 21.2969,-13.2031 C11.5938,-13.2031 0,-5 0,4.20313"/>
<path class="Note" transform="matrix(0.992001,0,0,0.992001,1782.32,373.799)" d="M0,4.20313 C0,8.5 3.09375,13.2969 11.2031,13.2969 C21.5938,13.2969 32.5,4.79688 32.5,-4 C32.5,-9.90625 27.5,-13.2031 21.2969,-13.2031 C11.5938,-13.2031 0,-5 0,4.20313"/>
<path class="Note" transform="matrix(0.992001,0,0,0.992001,1941.42,410.999)" d="M0,4.20313 C0,8.5 3.09375,13.2969 11.2031,13.2969 C21.5938,13.2969 32.5,4.79688 32.5,-4 C32.5,-9.90625 27.5,-13.2031 21.2969,-13.2031 C11.5938,-13.2031 0,-5 0,4.20313"/>
<path class="Note" transform="matrix(0.992001,0,0,0.992001,1941.42,373.799)" d="M0,4.20313 C0,8.5 3.09375,13.2969 11.2031,13.2969 C21.5938,13.2969 32.5,4.79688 32.5,-4 C32.5,-9.90625 27.5,-13.2031 21.2969,-13.2031 C11.5938,-13.2031 0,-5 0,4.20313"/>
<path class="Note" transform="matrix(0.992001,0,0,0.992001,1941.42,348.999)" d="M0,4.20313 C0,8.5 3.09375,13.2969 11.2031,13.2969 C21.5938,13.2969 32.5,4.79688 32.5,-4 C32.5,-9.90625 27.5,-13.2031 21.2969,-13.2031 C11.5938,-13.2031 0,-5 0,4.20313"/>
<path class="Note" transform="matrix(0.992001,0,0,0.992001,597.706,448.199)" d="M0,4.20313 C0,8.5 3.09375,13.2969 11.2031,13.2969 C21.5938,13.2969 32.5,4.79688 32.5,-4 C32.5,-9.90625 27.5,-13.2031 21.2969,-13.2031 C11.5938,-13.2031 0,-5 0,4.20313"/>
<path class="Note" transform="matrix(0.992001,0,0,0.992001,359.058,873.801)" d="M0,4.20313 C0,8.5 3.09375,13.2969 11.2031,13.2969 C21.5938,13.2969 32.5,4.79688 32.5,-4 C32.5,-9.90625 27.5,-13.2031 21.2969,-13.2031 C11.5938,-13.2031 0,-5 0,4.20313"/>
<path class="Note" transform="matrix(0.992001,0,0,0.992001,359.058,849.001)" d="M0,4.20313 C0,8.5 3.09375,13.2969 11.2031,13.2969 C21.5938,13.2969 32.5,4.79688 32.5,-4 C32.5,-9.90625 27.5,-13.2031 21.2969,-13.2031 C11.5938,-13.2031 0,-5 0,4.20313"/>
<path class="Note" transform="matrix(0.992001,0,0,0.992001,359.058,824.201)" d="M0,4.20313 C0,8.5 3.09375,13.2969 11.2031,13.2969 C21.5938,13.2969 32.5,4.79688 32.5,-4 C32.5,-9.90625 27.5,-13.2031 21.2969,-13.2031 C11.5938,-13.2031 0,-5 0,4.20313"/>
<path class="Note" transform="matrix(0.992001,0,0,0.992001,359.058,799.401)" d="M0,4.20313 C0,8.5 3.09375,13.2969 11.2031,13.2969 C21.5938,13.2969 32.5,4.79688 32.5,-4 C32.5,-9.90625 27.5,-13.2031 21.2969,-13.2031 C11.5938,-13.2031 0,-5 0,4.20313"/>
<path class="Note" transform="matrix(0.992001,0,0,0.992001,571.935,849.001)" d="M0,4.20313 C0,8.5 3.09375,13.2969 11.2031,13.2969 C21.5938,13.2969 32.5,4.79688 32.5,-4 C32.5,-9.90625 27.5,-13.2031 21.2969,-13.2031 C11.5938,-13.2031 0,-5 0,4.20313"/>
<path class="Note" transform="matrix(0.992001,0,0,0.992001,571.935,824.201)" d="M0,4.20313 C0,8.5 3.09375,13.2969 11.2031,13.2969 C21.5938,13.2969 32.5,4.79688 32.5,-4 C32.5,-9.90625 27.5,-13.2031 21.2969,-13.2031 C11.5938,-13.2031 0,-5 0,4.20313"/>
<path class="Note" transform="matrix(0.992001,0,0,0.992001,542.19,799.401)" d="M0,4.20313 C0,8.5 3.09375,13.2969 11.2031,13.2969 C21.5938,13.2969 32.5,4.79688 32.5,-4 C32.5,-9.90625 27.5,-13.2031 21.2969,-13.2031 C11.5938,-13.2031 0,-5 0,4.20313"/>
<path class="Note" transform="matrix(0.992001,0,0,0.992001,571.935,787.001)" d="M0,4.20313 C0,8.5 3.09375,13.2969 11.2031,13.2969 C21.5938,13.2969 32.5,4.79688 32.5,-4 C32.5,-9.90625 27.5,-13.2031 21.2969,-13.2031 C11.5938,-13.2031 0,-5 0,4.20313"/>
<path class="Note" transform="matrix(0.992001,0,0,0.992001,784.811,824.201)" d="M0,4.20313 C0,8.5 3.09375,13.2969 11.2031,13.2969 C21.5938,13.2969 32.5,4.79688 32.5,-4 C32.5,-9.90625 27.5,-13.2031 21.2969,-13.2031 C11.5938,-13.2031 0,-5 0,4.20313"/>
<path class="Note" transform="matrix(0.992001,0,0,0.992001,755.067,799.401)" d="M0,4.20313 C0,8.5 3.09375,13.2969 11.2031,13.2969 C21.5938,13.2969 32.5,4.79688 32.5,-4 C32.5,-9.90625 27.5,-13.2031 21.2969,-13.2031 C11.5938,-13.2031 0,-5 0,4.20313"/>
<path class="Note" transform="matrix(0.992001,0,0,0.992001,784.811,787.001)" d="M0,4.20313 C0,8.5 3.09375,13.2969 11.2031,13.2969 C21.5938,13.2969 32.5,4.79688 32.5,-4 C32.5,-9.90625 27.5,-13.2031 21.2969,-13.2031 C11.5938,-13.2031 0,-5 0,4.20313"/>
<path class="Note" transform="matrix(0.992001,0,0,0.992001,784.811,762.201)" d="M0,4.20313 C0,8.5 3.09375,13.2969 11.2031,13.2969 C21.5938,13.2969 32.5,4.79688 32.5,-4 C32.5,-9.90625 27.5,-13.2031 21.2969,-13.2031 C11.5938,-13.2031 0,-5 0,4.20313"/>
<path class="Note" transform="matrix(0.992001,0,0,0.992001,967.943,799.401)" d="M0,4.20313 C0,8.5 3.09375,13.2969 11.2031,13.2969 C21.5938,13.2969 32.5,4.79688 32.5,-4 C32.5,-9.90625 27.5,-13.2031 21.2969,-13.2031 C11.5938,-13.2031 0,-5 0,4.20313"/>
<path class="Note" transform="matrix(0.992001,0,0,0.992001,997.688,787.001)" d="M0,4.20313 C0,8.5 3.09375,13.2969 11.2031,13.2969 C21.5938,13.2969 32.5,4.79688 32.5,-4 C32.5,-9.90625 27.5,-13.2031 21.2969,-13.2031 C11.5938,-13.2031 0,-5 0,4.20313"/>
<path class="Note" transform="matrix(0.992001,0,0,0.992001,997.688,762.201)" d="M0,4.20313 C0,8.5 3.09375,13.2969 11.2031,13.2969 C21.5938,13.2969 32.5,4.79688 32.5,-4 C32.5,-9.90625 27.5,-13.2031 21.2969,-13.2031 C11.5938,-13.2031 0,-5 0,4.20313"/>
<path class="Note" transform="matrix(0.992001,0,0,0.992001,997.688,737.401)" d="M0,4.20313 C0,8.5 3.09375,13.2969 11.2031,13.2969 C21.5938,13.2969 32.5,4.79688 32.5,-4 C32.5,-9.90625 27.5,-13.2031 21.2969,-13.2031 C11.5938,-13.2031 0,-5 0,4.20313"/>
<path class="Note" transform="matrix(0.992001,0,0,0.992001,1246.03,923.401)" d="M0,4.20313 C0,8.5 3.09375,13.2969 11.2031,13.2969 C21.5938,13.2969 32.5,4.79688 32.5,-4 C32.5,-9.90625 27.5,-13.2031 21.2969,-13.2031 C11.5938,-13.2031 0,-5 0,4.20313"/>
<path class="Note" transform="matrix(0.992001,0,0,0.992001,1246.03,898.601)" d="M0,4.20313 C0,8.5 3.09375,13.2969 11.2031,13.2969 C21.5938,13.2969 32.5,4.79688 32.5,-4 C32.5,-9.90625 27.5,-13.2031 21.2969,-13.2031 C11.5938,-13.2031 0,-5 0,4.20313"/>
<path class="Note" transform="matrix(0.992001,0,0,0.992001,1246.03,873.801)" d="M0,4.20313 C0,8.5 3.09375,13.2969 11.2031,13.2969 C21.5938,13.2969 32.5,4.79688 32.5,-4 C32.5,-9.90625 27.5,-13.2031 21.2969,-13.2031 C11.5938,-13.2031 0,-5 0,4.20313"/>
<path class="Note" transform="matrix(0.992001,0,0,0.992001,1246.03,849.001)" d="M0,4.20313 C0,8.5 3.09375,13.2969 11.2031,13.2969 C21.5938,13.2969 32.5,4.79688 32.5,-4 C32.5,-9.90625 27.5,-13.2031 21.2969,-13.2031 C11.5938,-13.2031 0,-5 0,4.20313"/>
<path class="Note" transform="matrix(0.992001,0,0,0.992001,359.058,534.999)" d="M21.2969,-13.2031 C11.5938,-13.2031 0,-5.09375 0,4.20313 C0,8.5 3.09375,13.2969 11.2031,13.2969 C21.5938,13.2969 32.5,4.79688 32.5,-4 C32.5,-9.90625 27.5,-13.2031 21.2969,-13.2031 M7.5,8.59375 C4.20313,8.59375 3.5,5.90625 3.5,5 C3.5,0.09375 20.2969,-8.5 25,-8.5 C27.4063,-8.5 29,-7.09375 29,-4.90625 C29,0.09375 12.0938,8.59375 7.5,8.59375"/>
<path class="Note" transform="matrix(0.992001,0,0,0.992001,1458.9,898.601)" d="M0,4.20313 C0,8.5 3.09375,13.2969 11.2031,13.2969 C21.5938,13.2969 32.5,4.79688 32.5,-4 C32.5,-9.90625 27.5,-13.2031 21.2969,-13.2031 C11.5938,-13.2031 0,-5 0,4.20313"/>
<path class="Note" transform="matrix(0.992001,0,0,0.992001,1458.9,873.801)" d="M0,4.20313 C0,8.5 3.09375,13.2969 11.2031,13.2969 C21.5938,13.2969 32.5,4.79688 32.5,-4 C32.5,-9.90625 27.5,-13.2031 21.2969,-13.2031 C11.5938,-13.2031 0,-5 0,4.20313"/>
<path class="Note" transform="matrix(0.992001,0,0,0.992001,1458.9,849.001)" d="M0,4.20313 C0,8.5 3.09375,13.2969 11.2031,13.2969 C21.5938,13.2969 32.5,4.79688 32.5,-4 C32.5,-9.90625 27.5,-13.2031 21.2969,-13.2031 C11.5938,-13.2031 0,-5 0,4.20313"/>
<path class="Note" transform="matrix(0.992001,0,0,0.992001,1488.65,836.601)" d="M0,4.20313 C0,8.5 3.09375,13.2969 11.2031,13.2969 C21.5938,13.2969 32.5,4.79688 32.5,-4 C32.5,-9.90625 27.5,-13.2031 21.2969,-13.2031 C11.5938,-13.2031 0,-5 0,4.20313"/>
<path class="Note" transform="matrix(0.992001,0,0,0.992001,1543.67,435.799)" d="M21.2969,-13.2031 C11.5938,-13.2031 0,-5.09375 0,4.20313 C0,8.5 3.09375,13.2969 11.2031,13.2969 C21.5938,13.2969 32.5,4.79688 32.5,-4 C32.5,-9.90625 27.5,-13.2031 21.2969,-13.2031 M7.5,8.59375 C4.20313,8.59375 3.5,5.90625 3.5,5 C3.5,0.09375 20.2969,-8.5 25,-8.5 C27.4063,-8.5 29,-7.09375 29,-4.90625 C29,0.09375 12.0938,8.59375 7.5,8.59375"/>
<path class="Note" transform="matrix(0.992001,0,0,0.992001,359.058,510.199)" d="M21.2969,-13.2031 C11.5938,-13.2031 0,-5.09375 0,4.20313 C0,8.5 3.09375,13.2969 11.2031,13.2969 C21.5938,13.2969 32.5,4.79688 32.5,-4 C32.5,-9.90625 27.5,-13.2031 21.2969,-13.2031 M7.5,8.59375 C4.20313,8.59375 3.5,5.90625 3.5,5 C3.5,0.09375 20.2969,-8.5 25,-8.5 C27.4063,-8.5 29,-7.09375 29,-4.90625 C29,0.09375 12.0938,8.59375 7.5,8.59375"/>
<path class="Note" transform="matrix(0.992001,0,0,0.992001,1671.78,873.801)" d="M0,4.20313 C0,8.5 3.09375,13.2969 11.2031,13.2969 C21.5938,13.2969 32.5,4.79688 32.5,-4 C32.5,-9.90625 27.5,-13.2031 21.2969,-13.2031 C11.5938,-13.2031 0,-5 0,4.20313"/>
<path class="Note" transform="matrix(0.992001,0,0,0.992001,1671.78,849.001)" d="M0,4.20313 C0,8.5 3.09375,13.2969 11.2031,13.2969 C21.5938,13.2969 32.5,4.79688 32.5,-4 C32.5,-9.90625 27.5,-13.2031 21.2969,-13.2031 C11.5938,-13.2031 0,-5 0,4.20313"/>
<path class="Note" transform="matrix(0.992001,0,0,0.992001,1701.53,836.601)" d="M0,4.20313 C0,8.5 3.09375,13.2969 11.2031,13.2969 C21.5938,13.2969 32.5,4.79688 32.5,-4 C32.5,-9.90625 27.5,-13.2031 21.2969,-13.2031 C11.5938,-13.2031 0,-5 0,4.20313"/>
<path class="Note" transform="matrix(0.992001,0,0,0.992001,1671.78,811.801)" d="M0,4.20313 C0,8.5 3.09375,13.2969 11.2031,13.2969 C21.5938,13.2969 32.5,4.79688 32.5,-4 C32.5,-9.90625 27.5,-13.2031 21.2969,-13.2031 C11.5938,-13.2031 0,-5 0,4.20313"/>
<path class="Note" transform="matrix(0.992001,0,0,0.992001,359.058,485.399)" d="M21.2969,-13.2031 C11.5938,-13.2031 0,-5.09375 0,4.20313 C0,8.5 3.09375,13.2969 11.2031,13.2969 C21.5938,13.2969 32.5,4.79688 32.5,-4 C32.5,-9.90625 27.5,-13.2031 21.2969,-13.2031 M7.5,8.59375 C4.20313,8.59375 3.5,5.90625 3.5,5 C3.5,0.09375 20.2969,-8.5 25,-8.5 C27.4063,-8.5 29,-7.09375 29,-4.90625 C29,0.09375 12.0938,8.59375 7.5,8.59375"/>
<path class="Note" transform="matrix(0.992001,0,0,0.992001,597.706,510.199)" d="M0,4.20313 C0,8.5 3.09375,13.2969 11.2031,13.2969 C21.5938,13.2969 32.5,4.79688 32.5,-4 C32.5,-9.90625 27.5,-13.2031 21.2969,-13.2031 C11.5938,-13.2031 0,-5 0,4.20313"/>
<path class="Note" transform="matrix(0.992001,0,0,0.992001,1857.9,849.001)" d="M0,4.20313 C0,8.5 3.09375,13.2969 11.2031,13.2969 C21.5938,13.2969 32.5,4.79688 32.5,-4 C32.5,-9.90625 27.5,-13.2031 21.2969,-13.2031 C11.5938,-13.2031 0,-5 0,4.20313"/>
<path class="Note" transform="matrix(0.992001,0,0,0.992001,1887.64,836.601)" d="M0,4.20313 C0,8.5 3.09375,13.2969 11.2031,13.2969 C21.5938,13.2969 32.5,4.79688 32.5,-4 C32.5,-9.90625 27.5,-13.2031 21.2969,-13.2031 C11.5938,-13.2031 0,-5 0,4.20313"/>
<path class="Note" transform="matrix(0.992001,0,0,0.992001,1887.64,811.801)" d="M0,4.20313 C0,8.5 3.09375,13.2969 11.2031,13.2969 C21.5938,13.2969 32.5,4.79688 32.5,-4 C32.5,-9.90625 27.5,-13.2031 21.2969,-13.2031 C11.5938,-13.2031 0,-5 0,4.20313"/>
<path class="Note" transform="matrix(0.992001,0,0,0.992001,1887.64,787.001)" d="M0,4.20313 C0,8.5 3.09375,13.2969 11.2031,13.2969 C21.5938,13.2969 32.5,4.79688 32.5,-4 C32.5,-9.90625 27.5,-13.2031 21.2969,-13.2031 C11.5938,-13.2031 0,-5 0,4.20313"/>
<path class="Note" transform="matrix(0.992001,0,0,0.992001,597.706,485.399)" d="M0,4.20313 C0,8.5 3.09375,13.2969 11.2031,13.2969 C21.5938,13.2969 32.5,4.79688 32.5,-4 C32.5,-9.90625 27.5,-13.2031 21.2969,-13.2031 C11.5938,-13.2031 0,-5 0,4.20313"/>
<path class="Clef" transform="matrix(0.992001,0,0,0.992001,231.198,410.999)" d="M25.4063,-25.0938 C17.7969,-25.0938 11.7031,-20.7031 11.5938,-20.7031 C5.70313,-16.4063 1.90625,-9.79688 1.90625,-2.5 C1.90625,4.79688 6.09375,10.2031 13.5,10.2031 C19.9063,10.2031 24.9063,5.90625 24.9063,-0.703125 C24.9063,-6.40625 19.9063,-11.0938 14.2969,-11.0938 C13.0938,-11.0938 12,-10.9063 11.0938,-10.5938 C10.0938,-10.2031 8.40625,-9.20313 7.59375,-8.5 C8.29688,-12.9063 11.2969,-17.2969 15.2031,-19.4063 C17.7031,-20.7969 20.9063,-21.4063 24.4063,-21.4063 C34.6094,-21.4063 39.6094,-13.2031 39.6094,3.59375 C39.6094,16.5938 31.2969,35.2969 21.5,44.1094 C11.0938,53.6094 1.29688,58.1094 1.20313,58.1094 C1.20313,58.1094 0,58.7969 0,60 C0,60.2031 0.09375,60.2969 0.09375,60.5 C0.40625,61.5 1.29688,61.7031 2,61.7031 L2.29688,61.6094 C2.5,61.6094 13.9063,56.9063 23,49.7969 C37,39.7031 52.7969,21.9063 52.7969,3.5 C52.7969,-13.9063 43.4063,-25.0938 25.4063,-25.0938 M56.7969,-12.4063 C56.7969,-9.59375 59,-7.40625 61.6094,-7.40625 C64.2031,-7.40625 66.4063,-9.59375 66.4063,-12.4063 C66.4063,-15.2031 64.2031,-17.5 61.6094,-17.5 C59,-17.5 56.7969,-15.2031 56.7969,-12.4063 M56.7969,12.2969 C56.7969,15.0938 59,17.4063 61.6094,17.4063 C64.2031,17.4063 66.4063,15.0938 66.4063,12.2969 C66.4063,9.5 64.2031,7.20313 61.6094,7.20313 C59,7.20313 56.7969,9.5 56.7969,12.2969"/>
<path class="Clef" transform="matrix(0.992001,0,0,0.992001,231.198,799.401)" d="M25.4063,-25.0938 C17.7969,-25.0938 11.7031,-20.7031 11.5938,-20.7031 C5.70313,-16.4063 1.90625,-9.79688 1.90625,-2.5 C1.90625,4.79688 6.09375,10.2031 13.5,10.2031 C19.9063,10.2031 24.9063,5.90625 24.9063,-0.703125 C24.9063,-6.40625 19.9063,-11.0938 14.2969,-11.0938 C13.0938,-11.0938 12,-10.9063 11.0938,-10.5938 C10.0938,-10.2031 8.40625,-9.20313 7.59375,-8.5 C8.29688,-12.9063 11.2969,-17.2969 15.2031,-19.4063 C17.7031,-20.7969 20.9063,-21.4063 24.4063,-21.4063 C34.6094,-21.4063 39.6094,-13.2031 39.6094,3.59375 C39.6094,16.5938 31.2969,35.2969 21.5,44.1094 C11.0938,53.6094 1.29688,58.1094 1.20313,58.1094 C1.20313,58.1094 0,58.7969 0,60 C0,60.2031 0.09375,60.2969 0.09375,60.5 C0.40625,61.5 1.29688,61.7031 2,61.7031 L2.29688,61.6094 C2.5,61.6094 13.9063,56.9063 23,49.7969 C37,39.7031 52.7969,21.9063 52.7969,3.5 C52.7969,-13.9063 43.4063,-25.0938 25.4063,-25.0938 M56.7969,-12.4063 C56.7969,-9.59375 59,-7.40625 61.6094,-7.40625 C64.2031,-7.40625 66.4063,-9.59375 66.4063,-12.4063 C66.4063,-15.2031 64.2031,-17.5 61.6094,-17.5 C59,-17.5 56.7969,-15.2031 56.7969,-12.4063 M56.7969,12.2969 C56.7969,15.0938 59,17.4063 61.6094,17.4063 C64.2031,17.4063 66.4063,15.0938 66.4063,12.2969 C66.4063,9.5 64.2031,7.20313 61.6094,7.20313 C59,7.20313 56.7969,9.5 56.7969,12.2969"/>
<path class="Harmony" d="M1275.98,676.148 L1274.08,676.148 L1272.08,679.101 C1268.43,676.445 1266.58,675.742 1263.12,675.742 C1258.37,675.742 1254.33,677.742 1250.98,681.742 C1247.78,685.554 1246.28,689.757 1246.28,694.898 C1246.28,705.695 1253.33,713.351 1263.18,713.351 C1271.18,713.351 1276.28,708.648 1277.43,700.257 L1275.08,699.851 C1273.73,707.304 1269.93,711.007 1263.78,711.007 C1256.37,711.007 1252.87,705.898 1252.87,695.101 C1252.87,689.398 1253.62,685.648 1255.33,682.648 C1256.87,679.851 1259.93,678.101 1263.18,678.101 C1266.68,678.101 1269.78,679.945 1271.68,683.148 C1272.64,684.804 1273.33,686.648 1274.53,690.601 L1276.73,690.601 L1275.98,676.148 "/>
<path class="Harmony" d="M1292.53,689.304 L1283.64,689.851 L1283.64,692.007 L1285.68,692.007 C1287.58,692.054 1287.83,692.351 1287.83,694.507 L1287.83,708.804 C1287.78,709.554 1287.73,709.851 1287.53,710.101 C1287.18,710.554 1286.23,710.757 1284.08,710.804 L1283.89,710.804 L1283.89,712.601 L1296.48,712.601 L1296.48,710.804 L1296.28,710.804 C1292.98,710.695 1292.53,710.445 1292.53,708.601 L1292.53,699.351 C1292.53,694.898 1294.98,691.601 1298.23,691.601 C1301.08,691.601 1302.53,693.648 1302.53,697.695 L1302.53,708.851 C1302.48,709.507 1302.43,709.851 1302.18,710.101 C1301.89,710.554 1300.89,710.757 1298.73,710.804 L1298.53,710.804 L1298.53,712.601 L1311.18,712.601 L1311.18,710.804 L1310.98,710.804 C1307.68,710.695 1307.23,710.445 1307.23,708.648 L1307.23,699.804 C1307.23,694.804 1309.48,691.601 1312.98,691.601 C1315.84,691.601 1317.23,693.757 1317.23,698.257 L1317.23,708.804 C1317.18,709.507 1317.14,709.851 1316.89,710.101 C1316.59,710.554 1315.59,710.757 1313.43,710.804 L1313.23,710.804 L1313.23,712.601 L1325.89,712.601 L1325.89,710.804 L1325.68,710.804 C1322.39,710.695 1321.93,710.445 1321.93,708.601 L1321.93,697.257 C1321.93,694.148 1321.64,693.101 1320.34,691.398 C1318.89,689.554 1316.84,688.554 1314.43,688.554 C1311.18,688.554 1308.78,690.101 1306.64,693.554 C1305.78,690.554 1303.08,688.554 1299.73,688.554 C1296.68,688.554 1294.48,690.007 1292.53,693.148 L1292.53,689.304 M1349.08,696.507 C1349.08,693.351 1348.53,691.757 1347.08,690.554 C1345.43,689.195 1342.98,688.554 1339.78,688.554 C1334.14,688.554 1330.03,691.195 1330.03,694.851 C1330.03,696.695 1331.18,697.898 1332.93,697.898 C1334.53,697.898 1335.64,696.851 1335.64,695.351 C1335.64,694.695 1335.39,694.007 1334.89,693.304 C1334.58,692.945 1334.53,692.851 1334.53,692.601 C1334.53,691.601 1336.53,690.695 1338.93,690.695 C1340.53,690.695 1342.28,691.195 1343.08,691.945 C1344.03,692.757 1344.39,693.945 1344.39,696.195 L1344.39,698.148 C1339.18,699.054 1337.53,699.445 1335.08,700.398 C1330.73,702.007 1328.68,704.304 1328.68,707.507 C1328.68,711.101 1331.48,713.351 1335.93,713.351 C1339.39,713.351 1342.48,711.945 1344.64,709.398 C1345.43,711.945 1346.68,712.945 1349.03,712.945 C1351.28,712.945 1353.64,711.507 1353.64,710.054 C1353.64,709.695 1353.43,709.445 1353.14,709.445 C1352.93,709.445 1352.73,709.507 1352.39,709.648 C1351.68,709.945 1351.39,710.007 1350.98,710.007 C1349.58,710.007 1349.08,709.101 1349.08,706.554 L1349.08,696.507 M1344.39,702.601 C1344.39,705.601 1344.23,706.304 1343.39,707.601 C1342.14,709.445 1339.89,710.695 1337.68,710.695 C1335.39,710.695 1333.73,709.054 1333.73,706.804 C1333.73,704.695 1334.78,703.195 1336.98,702.148 C1338.53,701.445 1340.48,700.945 1344.39,700.304 L1344.39,702.601 M1361.48,676.851 C1359.89,676.851 1358.58,678.148 1358.58,679.742 C1358.58,681.351 1359.89,682.648 1361.43,682.648 C1363.08,682.648 1364.39,681.351 1364.39,679.742 C1364.39,678.148 1363.08,676.851 1361.48,676.851 M1363.83,689.304 L1354.08,689.851 L1354.08,692.007 L1356.98,692.007 C1358.89,692.054 1359.14,692.351 1359.14,694.507 L1359.14,711.445 C1359.14,715.507 1358.89,717.398 1358.18,718.851 C1357.68,719.851 1356.53,720.601 1355.43,720.601 C1354.73,720.601 1354.18,720.304 1354.18,719.945 C1354.18,719.757 1354.23,719.648 1354.43,719.148 C1354.68,718.648 1354.78,718.304 1354.78,717.945 C1354.78,716.695 1353.58,715.601 1352.18,715.601 C1350.58,715.601 1349.39,716.851 1349.39,718.601 C1349.39,721.054 1351.64,722.695 1354.98,722.695 C1357.78,722.695 1360.33,721.507 1361.78,719.445 C1363.33,717.257 1363.83,714.695 1363.83,709.054 L1363.83,689.304 "/>
<path class="Harmony" d="M1371.43,689.507 L1373.64,689.851 L1374.53,685.898 C1375.28,682.601 1375.64,682.101 1377.08,682.101 C1377.33,682.101 1377.73,682.101 1378.18,682.148 C1384.33,682.445 1384.33,682.445 1386.64,682.445 C1387.28,682.445 1388.43,682.445 1389.83,682.398 L1386.43,689.257 C1382.73,696.601 1382.28,697.507 1381.03,700.601 C1379.48,704.351 1378.68,707.507 1378.68,709.601 C1378.68,711.898 1379.89,713.304 1381.83,713.304 C1384.23,713.304 1385.18,711.695 1385.14,707.351 C1384.89,700.148 1385.78,696.648 1391.14,684.945 C1392.03,682.992 1392.98,680.992 1393.89,679.054 L1393.89,677.601 C1390.89,677.851 1389.28,677.945 1386.18,677.945 C1381.83,677.945 1378.39,677.804 1372.98,677.398 L1371.43,689.507 "/>
<path class="Harmony" d="M815.311,676.148 L813.421,676.148 L811.467,679.148 C808.217,676.601 806.014,675.742 802.358,675.742 C798.405,675.742 795.311,676.851 792.155,679.398 C787.217,683.398 784.905,688.445 784.905,695.195 C784.905,700.304 786.358,704.554 789.311,707.804 C792.405,711.304 797.014,713.351 801.811,713.351 C806.014,713.351 808.967,712.054 812.217,708.804 L814.061,713.304 L816.171,713.304 L816.171,702.304 C816.171,699.757 816.171,699.648 816.467,699.195 C816.921,698.648 817.811,698.507 820.671,698.507 L821.421,698.507 L821.421,696.148 L805.514,696.148 L805.514,698.507 L806.467,698.507 C810.671,698.507 811.014,698.757 811.014,701.554 C811.014,703.695 810.671,705.648 810.014,706.851 C808.764,709.304 805.561,711.007 802.311,711.007 C799.061,711.007 795.858,709.351 794.155,706.851 C792.311,704.054 791.514,700.554 791.514,695.195 C791.514,684.054 795.217,678.101 802.155,678.101 C807.858,678.101 811.811,682.195 813.858,690.195 L816.014,690.195 L815.311,676.148 "/>
<path class="Harmony" d="M827.217,689.507 L829.421,689.851 L830.311,685.898 C831.061,682.601 831.421,682.101 832.858,682.101 C833.108,682.101 833.514,682.101 833.967,682.148 C840.108,682.445 840.108,682.445 842.421,682.445 C843.061,682.445 844.217,682.445 845.608,682.398 L842.217,689.257 C838.514,696.601 838.061,697.507 836.811,700.601 C835.264,704.351 834.467,707.507 834.467,709.601 C834.467,711.898 835.671,713.304 837.608,713.304 C840.014,713.304 840.967,711.695 840.921,707.351 C840.671,700.148 841.561,696.648 846.921,684.945 C847.811,682.992 848.764,680.992 849.671,679.054 L849.671,677.601 C846.671,677.851 845.061,677.945 841.967,677.945 C837.608,677.945 834.171,677.804 828.764,677.398 L827.217,689.507 "/>
<path class="Harmony" d="M863.483,680.725 L850.124,718.225 L853.03,718.225 L866.374,680.725 L863.483,680.725 "/>
<path class="Harmony" d="M867.717,722.442 L884.514,722.442 C888.967,722.442 892.374,721.739 895.014,720.239 C900.061,717.395 902.874,711.692 902.874,704.192 C902.874,697.286 900.374,691.895 895.764,688.895 C893.014,687.145 889.311,686.333 883.608,686.333 L867.717,686.333 L867.717,688.692 L868.671,688.692 C871.467,688.739 872.421,688.895 872.811,689.395 C873.108,689.833 873.108,689.942 873.108,692.489 L873.108,716.286 C873.108,718.848 873.108,718.942 872.811,719.395 C872.421,719.895 871.467,720.036 868.671,720.098 L867.717,720.098 L867.717,722.442 M881.561,720.098 C879.014,720.098 878.717,719.786 878.717,717.348 L878.717,691.489 C878.717,689.036 879.061,688.692 881.561,688.692 L884.171,688.692 C892.717,688.692 896.264,693.333 896.264,704.395 C896.264,715.598 893.061,720.098 884.967,720.098 L881.561,720.098 "/>
<path class="Harmony" d="M1349.57,324.199 L1366.36,324.199 C1370.82,324.199 1374.22,323.495 1376.86,321.995 C1381.91,319.152 1384.72,313.449 1384.72,305.949 C1384.72,299.042 1382.22,293.652 1377.61,290.652 C1374.86,288.902 1371.16,288.089 1365.46,288.089 L1349.57,288.089 L1349.57,290.449 L1350.52,290.449 C1353.32,290.495 1354.27,290.652 1354.66,291.152 C1354.96,291.589 1354.96,291.699 1354.96,294.245 L1354.96,318.042 C1354.96,320.605 1354.96,320.699 1354.66,321.152 C1354.27,321.652 1353.32,321.792 1350.52,321.855 L1349.57,321.855 L1349.57,324.199 M1363.41,321.855 C1360.86,321.855 1360.57,321.542 1360.57,319.105 L1360.57,293.245 C1360.57,290.792 1360.91,290.449 1363.41,290.449 L1366.02,290.449 C1374.57,290.449 1378.11,295.089 1378.11,306.152 C1378.11,317.355 1374.91,321.855 1366.82,321.855 L1363.41,321.855 "/>
<path class="Harmony" d="M1399.61,300.902 L1390.72,301.449 L1390.72,303.605 L1392.77,303.605 C1394.66,303.652 1394.91,303.949 1394.91,306.105 L1394.91,320.402 C1394.86,321.152 1394.82,321.449 1394.61,321.699 C1394.27,322.152 1393.32,322.355 1391.16,322.402 L1390.97,322.402 L1390.97,324.199 L1403.57,324.199 L1403.57,322.402 L1403.36,322.402 C1400.07,322.292 1399.61,322.042 1399.61,320.199 L1399.61,310.949 C1399.61,306.495 1402.07,303.199 1405.32,303.199 C1408.16,303.199 1409.61,305.245 1409.61,309.292 L1409.61,320.449 C1409.57,321.105 1409.52,321.449 1409.27,321.699 C1408.97,322.152 1407.97,322.355 1405.82,322.402 L1405.61,322.402 L1405.61,324.199 L1418.27,324.199 L1418.27,322.402 L1418.07,322.402 C1414.77,322.292 1414.32,322.042 1414.32,320.245 L1414.32,311.402 C1414.32,306.402 1416.57,303.199 1420.07,303.199 C1422.92,303.199 1424.32,305.355 1424.32,309.855 L1424.32,320.402 C1424.27,321.105 1424.22,321.449 1423.97,321.699 C1423.67,322.152 1422.67,322.355 1420.52,322.402 L1420.32,322.402 L1420.32,324.199 L1432.97,324.199 L1432.97,322.402 L1432.77,322.402 C1429.47,322.292 1429.02,322.042 1429.02,320.199 L1429.02,308.855 C1429.02,305.745 1428.72,304.699 1427.42,302.995 C1425.97,301.152 1423.92,300.152 1421.52,300.152 C1418.27,300.152 1415.86,301.699 1413.72,305.152 C1412.86,302.152 1410.16,300.152 1406.82,300.152 C1403.77,300.152 1401.57,301.605 1399.61,304.745 L1399.61,300.902 "/>
<path class="Harmony" d="M1444.78,292.322 L1431.42,329.822 L1434.33,329.822 L1447.67,292.322 L1444.78,292.322 "/>
<path class="Harmony" d="M1466.47,297.242 L1464.36,297.242 L1452.86,326.383 C1451.52,330.289 1450.22,331.492 1447.36,331.695 L1447.16,331.695 L1447.16,334.039 L1460.41,334.039 L1460.41,331.695 L1459.41,331.695 C1456.72,331.695 1455.36,330.742 1455.36,328.836 C1455.36,328.195 1455.52,327.586 1455.82,326.742 L1457.47,322.336 L1470.72,322.336 L1473.42,329.039 C1473.72,329.836 1473.82,330.133 1473.82,330.383 C1473.82,331.195 1472.57,331.695 1470.72,331.695 L1468.61,331.695 L1468.61,334.039 L1484.11,334.039 L1484.11,331.695 L1483.42,331.695 C1480.82,331.633 1480.36,331.336 1479.22,328.492 L1466.47,297.242 M1464.02,305.43 L1469.66,319.633 L1458.47,319.633 L1464.02,305.43 "/>
<path class="Harmony" d="M1190.47,324.199 L1207.26,324.199 C1211.72,324.199 1215.12,323.495 1217.76,321.995 C1222.81,319.152 1225.62,313.449 1225.62,305.949 C1225.62,299.042 1223.12,293.652 1218.51,290.652 C1215.76,288.902 1212.06,288.089 1206.36,288.089 L1190.47,288.089 L1190.47,290.449 L1191.42,290.449 C1194.22,290.495 1195.17,290.652 1195.56,291.152 C1195.86,291.589 1195.86,291.699 1195.86,294.245 L1195.86,318.042 C1195.86,320.605 1195.86,320.699 1195.56,321.152 C1195.17,321.652 1194.22,321.792 1191.42,321.855 L1190.47,321.855 L1190.47,324.199 M1204.31,321.855 C1201.76,321.855 1201.47,321.542 1201.47,319.105 L1201.47,293.245 C1201.47,290.792 1201.81,290.449 1204.31,290.449 L1206.92,290.449 C1215.47,290.449 1219.01,295.089 1219.01,306.152 C1219.01,317.355 1215.81,321.855 1207.72,321.855 L1204.31,321.855 "/>
<path class="Harmony" d="M1240.51,300.902 L1231.62,301.449 L1231.62,303.605 L1233.67,303.605 C1235.56,303.652 1235.81,303.949 1235.81,306.105 L1235.81,320.402 C1235.76,321.152 1235.72,321.449 1235.51,321.699 C1235.17,322.152 1234.22,322.355 1232.06,322.402 L1231.87,322.402 L1231.87,324.199 L1244.47,324.199 L1244.47,322.402 L1244.26,322.402 C1240.97,322.292 1240.51,322.042 1240.51,320.199 L1240.51,310.949 C1240.51,306.495 1242.97,303.199 1246.22,303.199 C1249.06,303.199 1250.51,305.245 1250.51,309.292 L1250.51,320.449 C1250.47,321.105 1250.42,321.449 1250.17,321.699 C1249.87,322.152 1248.87,322.355 1246.72,322.402 L1246.51,322.402 L1246.51,324.199 L1259.17,324.199 L1259.17,322.402 L1258.97,322.402 C1255.67,322.292 1255.22,322.042 1255.22,320.245 L1255.22,311.402 C1255.22,306.402 1257.47,303.199 1260.97,303.199 C1263.83,303.199 1265.22,305.355 1265.22,309.855 L1265.22,320.402 C1265.17,321.105 1265.12,321.449 1264.87,321.699 C1264.58,322.152 1263.58,322.355 1261.42,322.402 L1261.22,322.402 L1261.22,324.199 L1273.87,324.199 L1273.87,322.402 L1273.67,322.402 C1270.37,322.292 1269.92,322.042 1269.92,320.199 L1269.92,308.855 C1269.92,305.745 1269.62,304.699 1268.33,302.995 C1266.87,301.152 1264.83,300.152 1262.42,300.152 C1259.17,300.152 1256.76,301.699 1254.62,305.152 C1253.76,302.152 1251.06,300.152 1247.72,300.152 C1244.67,300.152 1242.47,301.605 1240.51,304.745 L1240.51,300.902 "/>
<path class="Harmony" d="M1285.69,292.322 L1272.33,329.822 L1275.23,329.822 L1288.58,292.322 L1285.69,292.322 "/>
<path class="Harmony" d="M1319.67,297.93 L1289.92,297.93 L1289.92,300.289 L1290.81,300.289 C1293.67,300.336 1294.62,300.492 1295.01,300.992 C1295.31,301.43 1295.31,301.539 1295.31,304.086 L1295.31,327.883 C1295.31,330.445 1295.31,330.539 1295.01,330.992 C1294.62,331.492 1293.67,331.695 1290.81,331.695 L1289.92,331.695 L1289.92,334.039 L1307.06,334.039 L1307.06,331.695 L1305.42,331.695 C1302.56,331.695 1301.62,331.492 1301.22,330.992 C1300.92,330.539 1300.92,330.383 1300.92,327.883 L1300.92,316.539 L1301.92,316.539 C1307.06,316.336 1308.92,318.195 1309.12,323.742 L1311.47,323.742 L1311.47,307.336 L1309.12,307.336 C1308.81,312.242 1306.87,314.133 1302.12,314.195 L1300.92,314.195 L1300.92,302.789 C1300.87,300.68 1301.37,300.336 1304.06,300.289 L1306.37,300.289 C1314.58,300.242 1316.62,302.086 1318.17,310.695 L1320.37,310.695 L1319.67,297.93 "/>
<path class="Harmony" d="M1782.82,288.089 L1782.82,290.449 L1783.73,290.449 C1786.57,290.495 1787.52,290.652 1787.92,291.152 C1788.23,291.589 1788.23,291.699 1788.23,294.245 L1788.23,318.042 C1788.23,320.605 1788.23,320.699 1787.92,321.152 C1787.52,321.652 1786.57,321.855 1783.73,321.855 L1782.82,321.855 L1782.82,324.199 L1800.98,324.199 C1809.62,324.199 1814.82,320.542 1814.82,314.402 C1814.82,309.402 1811.68,306.542 1804.82,305.355 C1807.23,304.855 1808.32,304.402 1809.62,303.449 C1811.68,301.902 1812.93,299.449 1812.93,296.949 C1812.93,293.699 1810.93,290.542 1808.02,289.292 C1806.23,288.495 1803.73,288.089 1800.77,288.089 L1782.82,288.089 M1793.82,304.355 L1793.82,292.949 C1793.82,290.995 1794.48,290.495 1797.12,290.449 L1799.12,290.449 C1804.02,290.449 1807.12,292.042 1807.12,297.495 C1807.12,302.449 1804.73,304.355 1798.27,304.355 L1793.82,304.355 M1793.82,306.699 L1798.23,306.699 C1805.87,306.699 1808.68,308.745 1808.68,314.245 C1808.68,320.949 1804.48,321.855 1798.82,321.855 L1796.73,321.855 C1794.23,321.855 1793.73,321.355 1793.82,318.699 L1793.82,306.699 "/>
<path class="Harmony" d="M1832.37,300.152 C1826.23,300.152 1821.48,305.605 1821.48,312.605 C1821.48,319.449 1826.27,324.949 1832.27,324.949 C1838.27,324.949 1843.07,319.449 1843.07,312.542 C1843.07,305.699 1838.27,300.152 1832.37,300.152 M1832.37,302.292 C1835.87,302.292 1837.82,305.949 1837.82,312.542 C1837.82,319.199 1835.87,322.792 1832.27,322.792 C1828.68,322.792 1826.73,319.199 1826.73,312.605 C1826.73,305.792 1828.62,302.292 1832.37,302.292"/>
<path class="Harmony" d="M1855.99,292.322 L1842.63,329.822 L1845.54,329.822 L1858.88,292.322 L1855.99,292.322 "/>
<path class="Harmony" d="M1860.23,334.039 L1877.02,334.039 C1881.48,334.039 1884.88,333.336 1887.52,331.836 C1892.57,328.992 1895.38,323.289 1895.38,315.789 C1895.38,308.883 1892.88,303.492 1888.27,300.492 C1885.52,298.742 1881.82,297.93 1876.12,297.93 L1860.23,297.93 L1860.23,300.289 L1861.18,300.289 C1863.98,300.336 1864.93,300.492 1865.32,300.992 C1865.62,301.43 1865.62,301.539 1865.62,304.086 L1865.62,327.883 C1865.62,330.445 1865.62,330.539 1865.32,330.992 C1864.93,331.492 1863.98,331.633 1861.18,331.695 L1860.23,331.695 L1860.23,334.039 M1874.07,331.695 C1871.52,331.695 1871.23,331.383 1871.23,328.945 L1871.23,303.086 C1871.23,300.633 1871.57,300.289 1874.07,300.289 L1876.68,300.289 C1885.23,300.289 1888.77,304.93 1888.77,315.992 C1888.77,327.195 1885.57,331.695 1877.48,331.695 L1874.07,331.695 "/>
<path class="Harmony" d="M1488.86,676.148 L1486.95,676.148 L1484.95,679.101 C1481.31,676.445 1479.45,675.742 1476,675.742 C1471.25,675.742 1467.2,677.742 1463.86,681.742 C1460.65,685.554 1459.15,689.757 1459.15,694.898 C1459.15,705.695 1466.2,713.351 1476.06,713.351 C1484.06,713.351 1489.15,708.648 1490.31,700.257 L1487.95,699.851 C1486.61,707.304 1482.81,711.007 1476.65,711.007 C1469.25,711.007 1465.75,705.898 1465.75,695.101 C1465.75,689.398 1466.5,685.648 1468.2,682.648 C1469.75,679.851 1472.81,678.101 1476.06,678.101 C1479.56,678.101 1482.65,679.945 1484.56,683.148 C1485.51,684.804 1486.2,686.648 1487.4,690.601 L1489.61,690.601 L1488.86,676.148 "/>
<path class="Harmony" d="M1505.4,689.304 L1496.51,689.851 L1496.51,692.007 L1498.56,692.007 C1500.45,692.054 1500.7,692.351 1500.7,694.507 L1500.7,708.804 C1500.65,709.554 1500.61,709.851 1500.4,710.101 C1500.06,710.554 1499.11,710.757 1496.95,710.804 L1496.76,710.804 L1496.76,712.601 L1509.36,712.601 L1509.36,710.804 L1509.15,710.804 C1505.86,710.695 1505.4,710.445 1505.4,708.601 L1505.4,699.351 C1505.4,694.898 1507.86,691.601 1511.11,691.601 C1513.95,691.601 1515.4,693.648 1515.4,697.695 L1515.4,708.851 C1515.36,709.507 1515.31,709.851 1515.06,710.101 C1514.76,710.554 1513.76,710.757 1511.61,710.804 L1511.4,710.804 L1511.4,712.601 L1524.06,712.601 L1524.06,710.804 L1523.86,710.804 C1520.56,710.695 1520.11,710.445 1520.11,708.648 L1520.11,699.804 C1520.11,694.804 1522.36,691.601 1525.86,691.601 C1528.72,691.601 1530.11,693.757 1530.11,698.257 L1530.11,708.804 C1530.06,709.507 1530.01,709.851 1529.76,710.101 C1529.47,710.554 1528.47,710.757 1526.31,710.804 L1526.11,710.804 L1526.11,712.601 L1538.76,712.601 L1538.76,710.804 L1538.56,710.804 C1535.26,710.695 1534.81,710.445 1534.81,708.601 L1534.81,697.257 C1534.81,694.148 1534.51,693.101 1533.22,691.398 C1531.76,689.554 1529.72,688.554 1527.31,688.554 C1524.06,688.554 1521.65,690.101 1519.51,693.554 C1518.65,690.554 1515.95,688.554 1512.61,688.554 C1509.56,688.554 1507.36,690.007 1505.4,693.148 L1505.4,689.304 M1561.95,696.507 C1561.95,693.351 1561.4,691.757 1559.95,690.554 C1558.31,689.195 1555.86,688.554 1552.65,688.554 C1547.01,688.554 1542.9,691.195 1542.9,694.851 C1542.9,696.695 1544.06,697.898 1545.81,697.898 C1547.4,697.898 1548.51,696.851 1548.51,695.351 C1548.51,694.695 1548.26,694.007 1547.76,693.304 C1547.45,692.945 1547.4,692.851 1547.4,692.601 C1547.4,691.601 1549.4,690.695 1551.81,690.695 C1553.4,690.695 1555.15,691.195 1555.95,691.945 C1556.9,692.757 1557.26,693.945 1557.26,696.195 L1557.26,698.148 C1552.06,699.054 1550.4,699.445 1547.95,700.398 C1543.61,702.007 1541.56,704.304 1541.56,707.507 C1541.56,711.101 1544.36,713.351 1548.81,713.351 C1552.26,713.351 1555.36,711.945 1557.51,709.398 C1558.31,711.945 1559.56,712.945 1561.9,712.945 C1564.15,712.945 1566.51,711.507 1566.51,710.054 C1566.51,709.695 1566.31,709.445 1566.01,709.445 C1565.81,709.445 1565.61,709.507 1565.26,709.648 C1564.56,709.945 1564.26,710.007 1563.86,710.007 C1562.45,710.007 1561.95,709.101 1561.95,706.554 L1561.95,696.507 M1557.26,702.601 C1557.26,705.601 1557.11,706.304 1556.26,707.601 C1555.01,709.445 1552.76,710.695 1550.56,710.695 C1548.26,710.695 1546.61,709.054 1546.61,706.804 C1546.61,704.695 1547.65,703.195 1549.86,702.148 C1551.4,701.445 1553.36,700.945 1557.26,700.304 L1557.26,702.601 M1574.36,676.851 C1572.76,676.851 1571.45,678.148 1571.45,679.742 C1571.45,681.351 1572.76,682.648 1574.31,682.648 C1575.95,682.648 1577.26,681.351 1577.26,679.742 C1577.26,678.148 1575.95,676.851 1574.36,676.851 M1576.7,689.304 L1566.95,689.851 L1566.95,692.007 L1569.86,692.007 C1571.76,692.054 1572.01,692.351 1572.01,694.507 L1572.01,711.445 C1572.01,715.507 1571.76,717.398 1571.06,718.851 C1570.56,719.851 1569.4,720.601 1568.31,720.601 C1567.61,720.601 1567.06,720.304 1567.06,719.945 C1567.06,719.757 1567.11,719.648 1567.31,719.148 C1567.56,718.648 1567.65,718.304 1567.65,717.945 C1567.65,716.695 1566.45,715.601 1565.06,715.601 C1563.45,715.601 1562.26,716.851 1562.26,718.601 C1562.26,721.054 1564.51,722.695 1567.86,722.695 C1570.65,722.695 1573.2,721.507 1574.65,719.445 C1576.2,717.257 1576.7,714.695 1576.7,709.054 L1576.7,689.304 "/>
<path class="Harmony" d="M1584.31,689.507 L1586.51,689.851 L1587.4,685.898 C1588.15,682.601 1588.51,682.101 1589.95,682.101 C1590.2,682.101 1590.61,682.101 1591.06,682.148 C1597.2,682.445 1597.2,682.445 1599.51,682.445 C1600.15,682.445 1601.31,682.445 1602.7,682.398 L1599.31,689.257 C1595.61,696.601 1595.15,697.507 1593.9,700.601 C1592.36,704.351 1591.56,707.507 1591.56,709.601 C1591.56,711.898 1592.76,713.304 1594.7,713.304 C1597.11,713.304 1598.06,711.695 1598.01,707.351 C1597.76,700.148 1598.65,696.648 1604.01,684.945 C1604.9,682.992 1605.86,680.992 1606.76,679.054 L1606.76,677.601 C1603.76,677.851 1602.15,677.945 1599.06,677.945 C1594.7,677.945 1591.26,677.804 1585.86,677.398 L1584.31,689.507 "/>
<path class="Harmony" d="M1620.58,680.725 L1607.22,718.225 L1610.12,718.225 L1623.47,680.725 L1620.58,680.725 "/>
<path class="Harmony" d="M1654.86,686.333 L1624.81,686.333 L1624.81,688.692 L1625.7,688.692 C1628.56,688.739 1629.51,688.895 1629.9,689.395 C1630.2,689.833 1630.2,689.942 1630.2,692.489 L1630.2,716.286 C1630.2,718.848 1630.2,718.942 1629.9,719.395 C1629.51,719.895 1628.56,720.098 1625.7,720.098 L1624.81,720.098 L1624.81,722.442 L1655.51,722.442 L1656.51,709.098 L1654.31,709.098 C1652.4,717.989 1650.36,719.895 1642.7,720.098 L1639.4,720.098 C1636.4,719.989 1635.65,719.489 1635.81,717.692 L1635.81,704.942 L1636.81,704.942 C1641.95,704.739 1643.81,706.598 1644.01,712.145 L1646.36,712.145 L1646.36,695.739 L1644.01,695.739 C1643.7,700.645 1641.76,702.598 1637.01,702.598 L1635.81,702.598 L1635.81,691.192 C1635.76,689.083 1636.26,688.739 1638.95,688.692 L1641.56,688.692 C1649.76,688.645 1651.81,690.442 1653.4,699.098 L1655.56,699.098 L1654.86,686.333 "/>
<path class="Harmony" d="M602.435,676.148 L600.544,676.148 L598.591,679.148 C595.341,676.601 593.138,675.742 589.481,675.742 C585.528,675.742 582.435,676.851 579.278,679.398 C574.341,683.398 572.028,688.445 572.028,695.195 C572.028,700.304 573.481,704.554 576.435,707.804 C579.528,711.304 584.138,713.351 588.935,713.351 C593.138,713.351 596.091,712.054 599.341,708.804 L601.185,713.304 L603.294,713.304 L603.294,702.304 C603.294,699.757 603.294,699.648 603.591,699.195 C604.044,698.648 604.935,698.507 607.794,698.507 L608.544,698.507 L608.544,696.148 L592.638,696.148 L592.638,698.507 L593.591,698.507 C597.794,698.507 598.138,698.757 598.138,701.554 C598.138,703.695 597.794,705.648 597.138,706.851 C595.888,709.304 592.685,711.007 589.435,711.007 C586.185,711.007 582.981,709.351 581.278,706.851 C579.435,704.054 578.638,700.554 578.638,695.195 C578.638,684.054 582.341,678.101 589.278,678.101 C594.981,678.101 598.935,682.195 600.981,690.195 L603.138,690.195 L602.435,676.148 "/>
<path class="Harmony" d="M614.341,689.507 L616.544,689.851 L617.435,685.898 C618.185,682.601 618.544,682.101 619.981,682.101 C620.231,682.101 620.638,682.101 621.091,682.148 C627.231,682.445 627.231,682.445 629.544,682.445 C630.185,682.445 631.341,682.445 632.731,682.398 L629.341,689.257 C625.638,696.601 625.185,697.507 623.935,700.601 C622.388,704.351 621.591,707.507 621.591,709.601 C621.591,711.898 622.794,713.304 624.731,713.304 C627.138,713.304 628.091,711.695 628.044,707.351 C627.794,700.148 628.685,696.648 634.044,684.945 C634.935,682.992 635.888,680.992 636.794,679.054 L636.794,677.601 C633.794,677.851 632.185,677.945 629.091,677.945 C624.731,677.945 621.294,677.804 615.888,677.398 L614.341,689.507 "/>
<path class="Harmony" d="M650.606,680.725 L637.247,718.225 L640.153,718.225 L653.497,680.725 L650.606,680.725 "/>
<path class="Harmony" d="M654.888,686.333 L654.888,688.692 L655.794,688.692 C658.638,688.739 659.591,688.895 659.981,689.395 C660.294,689.833 660.294,689.942 660.294,692.489 L660.294,716.286 C660.294,718.848 660.294,718.942 659.981,719.395 C659.591,719.895 658.638,720.098 655.794,720.098 L654.888,720.098 L654.888,722.442 L673.044,722.442 C681.685,722.442 686.888,718.786 686.888,712.645 C686.888,707.645 683.747,704.786 676.888,703.598 C679.294,703.098 680.388,702.645 681.685,701.692 C683.747,700.145 684.997,697.692 684.997,695.192 C684.997,691.942 682.997,688.786 680.091,687.536 C678.294,686.739 675.794,686.333 672.841,686.333 L654.888,686.333 M665.888,702.598 L665.888,691.192 C665.888,689.239 666.544,688.739 669.185,688.692 L671.185,688.692 C676.091,688.692 679.185,690.286 679.185,695.739 C679.185,700.692 676.794,702.598 670.341,702.598 L665.888,702.598 M665.888,704.942 L670.294,704.942 C677.935,704.942 680.747,706.989 680.747,712.489 C680.747,719.192 676.544,720.098 670.888,720.098 L668.794,720.098 C666.294,720.098 665.794,719.598 665.888,716.942 L665.888,704.942 "/>
<path class="Harmony" d="M1028.19,665.827 L1026.3,665.827 L1024.34,668.827 C1021.09,666.28 1018.89,665.421 1015.23,665.421 C1011.28,665.421 1008.19,666.53 1005.03,669.077 C1000.09,673.077 997.782,678.124 997.782,684.874 C997.782,689.983 999.235,694.233 1002.19,697.483 C1005.28,700.983 1009.89,703.03 1014.69,703.03 C1018.89,703.03 1021.84,701.733 1025.09,698.483 L1026.94,702.983 L1029.05,702.983 L1029.05,691.983 C1029.05,689.436 1029.05,689.327 1029.34,688.874 C1029.8,688.327 1030.69,688.186 1033.55,688.186 L1034.3,688.186 L1034.3,685.827 L1018.39,685.827 L1018.39,688.186 L1019.34,688.186 C1023.55,688.186 1023.89,688.436 1023.89,691.233 C1023.89,693.374 1023.55,695.327 1022.89,696.53 C1021.64,698.983 1018.44,700.686 1015.19,700.686 C1011.94,700.686 1008.73,699.03 1007.03,696.53 C1005.19,693.733 1004.39,690.233 1004.39,684.874 C1004.39,673.733 1008.09,667.78 1015.03,667.78 C1020.73,667.78 1024.69,671.874 1026.73,679.874 L1028.89,679.874 L1028.19,665.827 "/>
<path class="Harmony" d="M1040.09,679.186 L1042.3,679.53 L1043.19,675.577 C1043.94,672.28 1044.3,671.78 1045.73,671.78 C1045.98,671.78 1046.39,671.78 1046.84,671.827 C1052.98,672.124 1052.98,672.124 1055.3,672.124 C1055.94,672.124 1057.09,672.124 1058.48,672.077 L1055.09,678.936 C1051.39,686.28 1050.94,687.186 1049.69,690.28 C1048.14,694.03 1047.34,697.186 1047.34,699.28 C1047.34,701.577 1048.55,702.983 1050.48,702.983 C1052.89,702.983 1053.84,701.374 1053.8,697.03 C1053.55,689.827 1054.44,686.327 1059.8,674.624 C1060.69,672.671 1061.64,670.671 1062.55,668.733 L1062.55,667.28 C1059.55,667.53 1057.94,667.624 1054.84,667.624 C1050.48,667.624 1047.05,667.483 1041.64,667.077 L1040.09,679.186 "/>
<path class="Harmony" d="M1076.36,670.404 L1063,707.904 L1065.91,707.904 L1079.25,670.404 L1076.36,670.404 "/>
<path class="Harmony" d="M1110.34,676.011 L1080.59,676.011 L1080.59,678.371 L1081.48,678.371 C1084.34,678.418 1085.3,678.574 1085.69,679.074 C1085.98,679.511 1085.98,679.621 1085.98,682.168 L1085.98,705.964 C1085.98,708.527 1085.98,708.621 1085.69,709.074 C1085.3,709.574 1084.34,709.777 1081.48,709.777 L1080.59,709.777 L1080.59,712.121 L1097.73,712.121 L1097.73,709.777 L1096.09,709.777 C1093.23,709.777 1092.3,709.574 1091.89,709.074 C1091.59,708.621 1091.59,708.464 1091.59,705.964 L1091.59,694.621 L1092.59,694.621 C1097.73,694.418 1099.59,696.277 1099.8,701.824 L1102.14,701.824 L1102.14,685.418 L1099.8,685.418 C1099.48,690.324 1097.55,692.214 1092.8,692.277 L1091.59,692.277 L1091.59,680.871 C1091.55,678.761 1092.05,678.418 1094.73,678.371 L1097.05,678.371 C1105.25,678.324 1107.3,680.168 1108.84,688.777 L1111.05,688.777 L1110.34,676.011 "/>
<path class="Harmony" d="M951.819,324.199 L968.616,324.199 C973.069,324.199 976.476,323.495 979.116,321.995 C984.163,319.152 986.976,313.449 986.976,305.949 C986.976,299.042 984.476,293.652 979.866,290.652 C977.116,288.902 973.413,288.089 967.71,288.089 L951.819,288.089 L951.819,290.449 L952.772,290.449 C955.569,290.495 956.522,290.652 956.913,291.152 C957.21,291.589 957.21,291.699 957.21,294.245 L957.21,318.042 C957.21,320.605 957.21,320.699 956.913,321.152 C956.522,321.652 955.569,321.792 952.772,321.855 L951.819,321.855 L951.819,324.199 M965.663,321.855 C963.116,321.855 962.819,321.542 962.819,319.105 L962.819,293.245 C962.819,290.792 963.163,290.449 965.663,290.449 L968.272,290.449 C976.819,290.449 980.366,295.089 980.366,306.152 C980.366,317.355 977.163,321.855 969.069,321.855 L965.663,321.855 "/>
<path class="Harmony" d="M1001.87,300.902 L992.976,301.449 L992.976,303.605 L995.022,303.605 C996.913,303.652 997.163,303.949 997.163,306.105 L997.163,320.402 C997.116,321.152 997.069,321.449 996.866,321.699 C996.522,322.152 995.569,322.355 993.413,322.402 L993.226,322.402 L993.226,324.199 L1005.82,324.199 L1005.82,322.402 L1005.62,322.402 C1002.32,322.292 1001.87,322.042 1001.87,320.199 L1001.87,310.949 C1001.87,306.495 1004.32,303.199 1007.57,303.199 C1010.41,303.199 1011.87,305.245 1011.87,309.292 L1011.87,320.449 C1011.82,321.105 1011.77,321.449 1011.52,321.699 C1011.23,322.152 1010.23,322.355 1008.07,322.402 L1007.87,322.402 L1007.87,324.199 L1020.52,324.199 L1020.52,322.402 L1020.32,322.402 C1017.02,322.292 1016.57,322.042 1016.57,320.245 L1016.57,311.402 C1016.57,306.402 1018.82,303.199 1022.32,303.199 C1025.18,303.199 1026.57,305.355 1026.57,309.855 L1026.57,320.402 C1026.52,321.105 1026.48,321.449 1026.23,321.699 C1025.93,322.152 1024.93,322.355 1022.77,322.402 L1022.57,322.402 L1022.57,324.199 L1035.23,324.199 L1035.23,322.402 L1035.02,322.402 C1031.73,322.292 1031.27,322.042 1031.27,320.199 L1031.27,308.855 C1031.27,305.745 1030.98,304.699 1029.68,302.995 C1028.23,301.152 1026.18,300.152 1023.77,300.152 C1020.52,300.152 1018.12,301.699 1015.98,305.152 C1015.12,302.152 1012.41,300.152 1009.07,300.152 C1006.02,300.152 1003.82,301.605 1001.87,304.745 L1001.87,300.902 "/>
<path class="Harmony" d="M786.757,287.745 L784.851,287.745 L782.851,290.699 C779.21,288.042 777.351,287.339 773.898,287.339 C769.148,287.339 765.101,289.339 761.757,293.339 C758.554,297.152 757.054,301.355 757.054,306.495 C757.054,317.292 764.101,324.949 773.96,324.949 C781.96,324.949 787.054,320.245 788.21,311.855 L785.851,311.449 C784.507,318.902 780.71,322.605 774.554,322.605 C767.148,322.605 763.648,317.495 763.648,306.699 C763.648,300.995 764.398,297.245 766.101,294.245 C767.648,291.449 770.71,289.699 773.96,289.699 C777.46,289.699 780.554,291.542 782.46,294.745 C783.413,296.402 784.101,298.245 785.304,302.199 L787.507,302.199 L786.757,287.745 "/>
<path class="Harmony" d="M804.476,292.322 L791.116,329.822 L794.023,329.822 L807.366,292.322 L804.476,292.322 "/>
<path class="Harmony" d="M839.757,297.586 L837.866,297.586 L835.913,300.586 C832.663,298.039 830.46,297.18 826.804,297.18 C822.851,297.18 819.757,298.289 816.601,300.836 C811.663,304.836 809.351,309.883 809.351,316.633 C809.351,321.742 810.804,325.992 813.757,329.242 C816.851,332.742 821.46,334.789 826.257,334.789 C830.46,334.789 833.413,333.492 836.663,330.242 L838.507,334.742 L840.616,334.742 L840.616,323.742 C840.616,321.195 840.616,321.086 840.913,320.633 C841.366,320.086 842.257,319.945 845.116,319.945 L845.866,319.945 L845.866,317.586 L829.96,317.586 L829.96,319.945 L830.913,319.945 C835.116,319.945 835.46,320.195 835.46,322.992 C835.46,325.133 835.116,327.086 834.46,328.289 C833.21,330.742 830.007,332.445 826.757,332.445 C823.507,332.445 820.304,330.789 818.601,328.289 C816.757,325.492 815.96,321.992 815.96,316.633 C815.96,305.492 819.663,299.539 826.601,299.539 C832.304,299.539 836.257,303.633 838.304,311.633 L840.46,311.633 L839.757,297.586 "/>
<path class="Harmony" d="M1701.73,676.148 L1699.83,676.148 L1697.83,679.101 C1694.19,676.445 1692.33,675.742 1688.88,675.742 C1684.13,675.742 1680.08,677.742 1676.73,681.742 C1673.53,685.554 1672.03,689.757 1672.03,694.898 C1672.03,705.695 1679.08,713.351 1688.94,713.351 C1696.94,713.351 1702.03,708.648 1703.19,700.257 L1700.83,699.851 C1699.48,707.304 1695.69,711.007 1689.53,711.007 C1682.13,711.007 1678.63,705.898 1678.63,695.101 C1678.63,689.398 1679.38,685.648 1681.08,682.648 C1682.63,679.851 1685.69,678.101 1688.94,678.101 C1692.44,678.101 1695.53,679.945 1697.44,683.148 C1698.39,684.804 1699.08,686.648 1700.28,690.601 L1702.48,690.601 L1701.73,676.148 "/>
<path class="Harmony" d="M1718.28,689.304 L1709.39,689.851 L1709.39,692.007 L1711.44,692.007 C1713.33,692.054 1713.58,692.351 1713.58,694.507 L1713.58,708.804 C1713.53,709.554 1713.48,709.851 1713.28,710.101 C1712.94,710.554 1711.98,710.757 1709.83,710.804 L1709.64,710.804 L1709.64,712.601 L1722.23,712.601 L1722.23,710.804 L1722.03,710.804 C1718.73,710.695 1718.28,710.445 1718.28,708.601 L1718.28,699.351 C1718.28,694.898 1720.73,691.601 1723.98,691.601 C1726.83,691.601 1728.28,693.648 1728.28,697.695 L1728.28,708.851 C1728.23,709.507 1728.19,709.851 1727.94,710.101 C1727.64,710.554 1726.64,710.757 1724.48,710.804 L1724.28,710.804 L1724.28,712.601 L1736.94,712.601 L1736.94,710.804 L1736.73,710.804 C1733.44,710.695 1732.98,710.445 1732.98,708.648 L1732.98,699.804 C1732.98,694.804 1735.23,691.601 1738.73,691.601 C1741.59,691.601 1742.98,693.757 1742.98,698.257 L1742.98,708.804 C1742.94,709.507 1742.89,709.851 1742.64,710.101 C1742.34,710.554 1741.34,710.757 1739.19,710.804 L1738.98,710.804 L1738.98,712.601 L1751.64,712.601 L1751.64,710.804 L1751.44,710.804 C1748.14,710.695 1747.69,710.445 1747.69,708.601 L1747.69,697.257 C1747.69,694.148 1747.39,693.101 1746.09,691.398 C1744.64,689.554 1742.59,688.554 1740.19,688.554 C1736.94,688.554 1734.53,690.101 1732.39,693.554 C1731.53,690.554 1728.83,688.554 1725.48,688.554 C1722.44,688.554 1720.23,690.007 1718.28,693.148 L1718.28,689.304 M1774.83,696.507 C1774.83,693.351 1774.28,691.757 1772.83,690.554 C1771.19,689.195 1768.73,688.554 1765.53,688.554 C1759.89,688.554 1755.78,691.195 1755.78,694.851 C1755.78,696.695 1756.94,697.898 1758.69,697.898 C1760.28,697.898 1761.39,696.851 1761.39,695.351 C1761.39,694.695 1761.14,694.007 1760.64,693.304 C1760.33,692.945 1760.28,692.851 1760.28,692.601 C1760.28,691.601 1762.28,690.695 1764.69,690.695 C1766.28,690.695 1768.03,691.195 1768.83,691.945 C1769.78,692.757 1770.14,693.945 1770.14,696.195 L1770.14,698.148 C1764.94,699.054 1763.28,699.445 1760.83,700.398 C1756.48,702.007 1754.44,704.304 1754.44,707.507 C1754.44,711.101 1757.23,713.351 1761.69,713.351 C1765.14,713.351 1768.23,711.945 1770.39,709.398 C1771.19,711.945 1772.44,712.945 1774.78,712.945 C1777.03,712.945 1779.39,711.507 1779.39,710.054 C1779.39,709.695 1779.19,709.445 1778.89,709.445 C1778.69,709.445 1778.48,709.507 1778.14,709.648 C1777.44,709.945 1777.14,710.007 1776.73,710.007 C1775.33,710.007 1774.83,709.101 1774.83,706.554 L1774.83,696.507 M1770.14,702.601 C1770.14,705.601 1769.98,706.304 1769.14,707.601 C1767.89,709.445 1765.64,710.695 1763.44,710.695 C1761.14,710.695 1759.48,709.054 1759.48,706.804 C1759.48,704.695 1760.53,703.195 1762.73,702.148 C1764.28,701.445 1766.23,700.945 1770.14,700.304 L1770.14,702.601 M1787.23,676.851 C1785.64,676.851 1784.33,678.148 1784.33,679.742 C1784.33,681.351 1785.64,682.648 1787.19,682.648 C1788.83,682.648 1790.14,681.351 1790.14,679.742 C1790.14,678.148 1788.83,676.851 1787.23,676.851 M1789.58,689.304 L1779.83,689.851 L1779.83,692.007 L1782.73,692.007 C1784.64,692.054 1784.89,692.351 1784.89,694.507 L1784.89,711.445 C1784.89,715.507 1784.64,717.398 1783.94,718.851 C1783.44,719.851 1782.28,720.601 1781.19,720.601 C1780.48,720.601 1779.94,720.304 1779.94,719.945 C1779.94,719.757 1779.98,719.648 1780.19,719.148 C1780.44,718.648 1780.53,718.304 1780.53,717.945 C1780.53,716.695 1779.33,715.601 1777.94,715.601 C1776.33,715.601 1775.14,716.851 1775.14,718.601 C1775.14,721.054 1777.39,722.695 1780.73,722.695 C1783.53,722.695 1786.08,721.507 1787.53,719.445 C1789.08,717.257 1789.58,714.695 1789.58,709.054 L1789.58,689.304 "/>
<path class="Harmony" d="M1797.19,689.507 L1799.39,689.851 L1800.28,685.898 C1801.03,682.601 1801.39,682.101 1802.83,682.101 C1803.08,682.101 1803.48,682.101 1803.94,682.148 C1810.08,682.445 1810.08,682.445 1812.39,682.445 C1813.03,682.445 1814.19,682.445 1815.58,682.398 L1812.19,689.257 C1808.48,696.601 1808.03,697.507 1806.78,700.601 C1805.23,704.351 1804.44,707.507 1804.44,709.601 C1804.44,711.898 1805.64,713.304 1807.58,713.304 C1809.98,713.304 1810.94,711.695 1810.89,707.351 C1810.64,700.148 1811.53,696.648 1816.89,684.945 C1817.78,682.992 1818.73,680.992 1819.64,679.054 L1819.64,677.601 C1816.64,677.851 1815.03,677.945 1811.94,677.945 C1807.58,677.945 1804.14,677.804 1798.73,677.398 L1797.19,689.507 "/>
<path class="Harmony" d="M1833.45,680.725 L1820.09,718.225 L1823,718.225 L1836.34,680.725 L1833.45,680.725 "/>
<path class="Harmony" d="M1868.73,685.989 L1866.84,685.989 L1864.89,688.989 C1861.64,686.442 1859.44,685.583 1855.78,685.583 C1851.83,685.583 1848.73,686.692 1845.58,689.239 C1840.64,693.239 1838.33,698.286 1838.33,705.036 C1838.33,710.145 1839.78,714.395 1842.73,717.645 C1845.83,721.145 1850.44,723.192 1855.23,723.192 C1859.44,723.192 1862.39,721.895 1865.64,718.645 L1867.48,723.145 L1869.59,723.145 L1869.59,712.145 C1869.59,709.598 1869.59,709.489 1869.89,709.036 C1870.34,708.489 1871.23,708.348 1874.09,708.348 L1874.84,708.348 L1874.84,705.989 L1858.94,705.989 L1858.94,708.348 L1859.89,708.348 C1864.09,708.348 1864.44,708.598 1864.44,711.395 C1864.44,713.536 1864.09,715.489 1863.44,716.692 C1862.19,719.145 1858.98,720.848 1855.73,720.848 C1852.48,720.848 1849.28,719.192 1847.58,716.692 C1845.73,713.895 1844.94,710.395 1844.94,705.036 C1844.94,693.895 1848.64,687.942 1855.58,687.942 C1861.28,687.942 1865.23,692.036 1867.28,700.036 L1869.44,700.036 L1868.73,685.989 "/>
<path class="Harmony" d="M627.659,287.745 L625.752,287.745 L623.752,290.699 C620.112,288.042 618.252,287.339 614.799,287.339 C610.049,287.339 606.002,289.339 602.659,293.339 C599.456,297.152 597.956,301.355 597.956,306.495 C597.956,317.292 605.002,324.949 614.862,324.949 C622.862,324.949 627.956,320.245 629.112,311.855 L626.752,311.449 C625.409,318.902 621.612,322.605 615.456,322.605 C608.049,322.605 604.549,317.495 604.549,306.699 C604.549,300.995 605.299,297.245 607.002,294.245 C608.549,291.449 611.612,289.699 614.862,289.699 C618.362,289.699 621.456,291.542 623.362,294.745 C624.315,296.402 625.002,298.245 626.206,302.199 L628.409,302.199 L627.659,287.745 "/>
<path class="Harmony" d="M645.377,292.322 L632.018,329.822 L634.924,329.822 L648.268,292.322 L645.377,292.322 "/>
<path class="Harmony" d="M679.659,297.93 L649.612,297.93 L649.612,300.289 L650.502,300.289 C653.362,300.336 654.315,300.492 654.706,300.992 C655.002,301.43 655.002,301.539 655.002,304.086 L655.002,327.883 C655.002,330.445 655.002,330.539 654.706,330.992 C654.315,331.492 653.362,331.695 650.502,331.695 L649.612,331.695 L649.612,334.039 L680.315,334.039 L681.315,320.695 L679.112,320.695 C677.206,329.586 675.159,331.492 667.502,331.695 L664.206,331.695 C661.206,331.586 660.456,331.086 660.612,329.289 L660.612,316.539 L661.612,316.539 C666.752,316.336 668.612,318.195 668.815,323.742 L671.159,323.742 L671.159,307.336 L668.815,307.336 C668.502,312.242 666.565,314.195 661.815,314.195 L660.612,314.195 L660.612,302.789 C660.565,300.68 661.065,300.336 663.752,300.289 L666.362,300.289 C674.565,300.242 676.612,302.039 678.206,310.695 L680.362,310.695 L679.659,297.93 "/>
<path class="Harmony" d="M389.011,287.745 L387.105,287.745 L385.105,290.699 C381.464,288.042 379.605,287.339 376.152,287.339 C371.402,287.339 367.355,289.339 364.011,293.339 C360.808,297.152 359.308,301.355 359.308,306.495 C359.308,317.292 366.355,324.949 376.214,324.949 C384.214,324.949 389.308,320.245 390.464,311.855 L388.105,311.449 C386.761,318.902 382.964,322.605 376.808,322.605 C369.402,322.605 365.902,317.495 365.902,306.699 C365.902,300.995 366.652,297.245 368.355,294.245 C369.902,291.449 372.964,289.699 376.214,289.699 C379.714,289.699 382.808,291.542 384.714,294.745 C385.667,296.402 386.355,298.245 387.558,302.199 L389.761,302.199 L389.011,287.745 "/>
<path class="Harmony" d="M389.558,676.148 L387.667,676.148 L385.714,679.148 C382.464,676.601 380.261,675.742 376.605,675.742 C372.652,675.742 369.558,676.851 366.402,679.398 C361.464,683.398 359.152,688.445 359.152,695.195 C359.152,700.304 360.605,704.554 363.558,707.804 C366.652,711.304 371.261,713.351 376.058,713.351 C380.261,713.351 383.214,712.054 386.464,708.804 L388.308,713.304 L390.417,713.304 L390.417,702.304 C390.417,699.757 390.417,699.648 390.714,699.195 C391.167,698.648 392.058,698.507 394.917,698.507 L395.667,698.507 L395.667,696.148 L379.761,696.148 L379.761,698.507 L380.714,698.507 C384.917,698.507 385.261,698.757 385.261,701.554 C385.261,703.695 384.917,705.648 384.261,706.851 C383.011,709.304 379.808,711.007 376.558,711.007 C373.308,711.007 370.105,709.351 368.402,706.851 C366.558,704.054 365.761,700.554 365.761,695.195 C365.761,684.054 369.464,678.101 376.402,678.101 C382.105,678.101 386.058,682.195 388.105,690.195 L390.261,690.195 L389.558,676.148 "/>
<path class="Harmony" d="M401.464,689.507 L403.667,689.851 L404.558,685.898 C405.308,682.601 405.667,682.101 407.105,682.101 C407.355,682.101 407.761,682.101 408.214,682.148 C414.355,682.445 414.355,682.445 416.667,682.445 C417.308,682.445 418.464,682.445 419.855,682.398 L416.464,689.257 C412.761,696.601 412.308,697.507 411.058,700.601 C409.511,704.351 408.714,707.507 408.714,709.601 C408.714,711.898 409.917,713.304 411.855,713.304 C414.261,713.304 415.214,711.695 415.167,707.351 C414.917,700.148 415.808,696.648 421.167,684.945 C422.058,682.992 423.011,680.992 423.917,679.054 L423.917,677.601 C420.917,677.851 419.308,677.945 416.214,677.945 C411.855,677.945 408.417,677.804 403.011,677.398 L401.464,689.507 "/>
<path class="Harmony" d="M1544.17,288.089 L1544.17,290.449 L1545.08,290.449 C1547.92,290.495 1548.88,290.652 1549.27,291.152 C1549.58,291.589 1549.58,291.699 1549.58,294.245 L1549.58,318.042 C1549.58,320.605 1549.58,320.699 1549.27,321.152 C1548.88,321.652 1547.92,321.855 1545.08,321.855 L1544.17,321.855 L1544.17,324.199 L1562.33,324.199 C1570.97,324.199 1576.17,320.542 1576.17,314.402 C1576.17,309.402 1573.03,306.542 1566.17,305.355 C1568.58,304.855 1569.67,304.402 1570.97,303.449 C1573.03,301.902 1574.28,299.449 1574.28,296.949 C1574.28,293.699 1572.28,290.542 1569.38,289.292 C1567.58,288.495 1565.08,288.089 1562.13,288.089 L1544.17,288.089 M1555.17,304.355 L1555.17,292.949 C1555.17,290.995 1555.83,290.495 1558.47,290.449 L1560.47,290.449 C1565.38,290.449 1568.47,292.042 1568.47,297.495 C1568.47,302.449 1566.08,304.355 1559.63,304.355 L1555.17,304.355 M1555.17,306.699 L1559.58,306.699 C1567.22,306.699 1570.03,308.745 1570.03,314.245 C1570.03,320.949 1565.83,321.855 1560.17,321.855 L1558.08,321.855 C1555.58,321.855 1555.08,321.355 1555.17,318.699 L1555.17,306.699 "/>
<path class="Harmony" d="M1593.72,300.152 C1587.58,300.152 1582.83,305.605 1582.83,312.605 C1582.83,319.449 1587.63,324.949 1593.63,324.949 C1599.63,324.949 1604.42,319.449 1604.42,312.542 C1604.42,305.699 1599.63,300.152 1593.72,300.152 M1593.72,302.292 C1597.22,302.292 1599.17,305.949 1599.17,312.542 C1599.17,319.199 1597.22,322.792 1593.63,322.792 C1590.03,322.792 1588.08,319.199 1588.08,312.605 C1588.08,305.792 1589.97,302.292 1593.72,302.292"/>
<path class="Harmony" d="M1941.92,277.768 L1941.92,280.127 L1942.83,280.127 C1945.67,280.174 1946.62,280.33 1947.01,280.83 C1947.33,281.268 1947.33,281.377 1947.33,283.924 L1947.33,307.721 C1947.33,310.284 1947.33,310.377 1947.01,310.83 C1946.62,311.33 1945.67,311.534 1942.83,311.534 L1941.92,311.534 L1941.92,313.877 L1960.08,313.877 C1968.72,313.877 1973.92,310.221 1973.92,304.08 C1973.92,299.08 1970.78,296.221 1963.92,295.034 C1966.33,294.534 1967.42,294.08 1968.72,293.127 C1970.78,291.58 1972.03,289.127 1972.03,286.627 C1972.03,283.377 1970.03,280.221 1967.12,278.971 C1965.33,278.174 1962.83,277.768 1959.87,277.768 L1941.92,277.768 M1952.92,294.034 L1952.92,282.627 C1952.92,280.674 1953.58,280.174 1956.22,280.127 L1958.22,280.127 C1963.12,280.127 1966.22,281.721 1966.22,287.174 C1966.22,292.127 1963.83,294.034 1957.37,294.034 L1952.92,294.034 M1952.92,296.377 L1957.33,296.377 C1964.97,296.377 1967.78,298.424 1967.78,303.924 C1967.78,310.627 1963.58,311.534 1957.92,311.534 L1955.83,311.534 C1953.33,311.534 1952.83,311.034 1952.92,308.377 L1952.92,296.377 "/>
<path class="Harmony" d="M1991.47,289.83 C1985.33,289.83 1980.58,295.284 1980.58,302.284 C1980.58,309.127 1985.37,314.627 1991.37,314.627 C1997.37,314.627 2002.17,309.127 2002.17,302.221 C2002.17,295.377 1997.37,289.83 1991.47,289.83 M1991.47,291.971 C1994.97,291.971 1996.92,295.627 1996.92,302.221 C1996.92,308.877 1994.97,312.471 1991.37,312.471 C1987.78,312.471 1985.83,308.877 1985.83,302.284 C1985.83,295.471 1987.72,291.971 1991.47,291.971"/>
<path class="Harmony" d="M2015.09,282.001 L2001.73,319.501 L2004.64,319.501 L2017.98,282.001 L2015.09,282.001 "/>
<path class="Harmony" d="M2049.08,287.609 L2019.33,287.609 L2019.33,289.968 L2020.22,289.968 C2023.08,290.015 2024.03,290.171 2024.42,290.671 C2024.72,291.109 2024.72,291.218 2024.72,293.765 L2024.72,317.562 C2024.72,320.124 2024.72,320.218 2024.42,320.671 C2024.03,321.171 2023.08,321.374 2020.22,321.374 L2019.33,321.374 L2019.33,323.718 L2036.47,323.718 L2036.47,321.374 L2034.83,321.374 C2031.97,321.374 2031.03,321.171 2030.62,320.671 C2030.33,320.218 2030.33,320.062 2030.33,317.562 L2030.33,306.218 L2031.33,306.218 C2036.47,306.015 2038.33,307.874 2038.53,313.421 L2040.87,313.421 L2040.87,297.015 L2038.53,297.015 C2038.22,301.921 2036.28,303.812 2031.53,303.874 L2030.33,303.874 L2030.33,292.468 C2030.28,290.359 2030.78,290.015 2033.47,289.968 L2035.78,289.968 C2043.98,289.921 2046.03,291.765 2047.58,300.374 L2049.78,300.374 L2049.08,287.609 "/>
<path class="Harmony" d="M1917.59,676.148 L1915.69,676.148 L1913.69,679.101 C1910.05,676.445 1908.19,675.742 1904.74,675.742 C1899.99,675.742 1895.94,677.742 1892.59,681.742 C1889.39,685.554 1887.89,689.757 1887.89,694.898 C1887.89,705.695 1894.94,713.351 1904.8,713.351 C1912.8,713.351 1917.89,708.648 1919.05,700.257 L1916.69,699.851 C1915.34,707.304 1911.55,711.007 1905.39,711.007 C1897.99,711.007 1894.49,705.898 1894.49,695.101 C1894.49,689.398 1895.24,685.648 1896.94,682.648 C1898.49,679.851 1901.55,678.101 1904.8,678.101 C1908.3,678.101 1911.39,679.945 1913.3,683.148 C1914.25,684.804 1914.94,686.648 1916.14,690.601 L1918.34,690.601 L1917.59,676.148 "/>
<path class="Harmony" d="M1934.14,689.304 L1925.25,689.851 L1925.25,692.007 L1927.3,692.007 C1929.19,692.054 1929.44,692.351 1929.44,694.507 L1929.44,708.804 C1929.39,709.554 1929.34,709.851 1929.14,710.101 C1928.8,710.554 1927.84,710.757 1925.69,710.804 L1925.5,710.804 L1925.5,712.601 L1938.09,712.601 L1938.09,710.804 L1937.89,710.804 C1934.59,710.695 1934.14,710.445 1934.14,708.601 L1934.14,699.351 C1934.14,694.898 1936.59,691.601 1939.84,691.601 C1942.69,691.601 1944.14,693.648 1944.14,697.695 L1944.14,708.851 C1944.09,709.507 1944.05,709.851 1943.8,710.101 C1943.5,710.554 1942.5,710.757 1940.34,710.804 L1940.14,710.804 L1940.14,712.601 L1952.8,712.601 L1952.8,710.804 L1952.59,710.804 C1949.3,710.695 1948.84,710.445 1948.84,708.648 L1948.84,699.804 C1948.84,694.804 1951.09,691.601 1954.59,691.601 C1957.45,691.601 1958.84,693.757 1958.84,698.257 L1958.84,708.804 C1958.8,709.507 1958.75,709.851 1958.5,710.101 C1958.2,710.554 1957.2,710.757 1955.05,710.804 L1954.84,710.804 L1954.84,712.601 L1967.5,712.601 L1967.5,710.804 L1967.3,710.804 C1964,710.695 1963.55,710.445 1963.55,708.601 L1963.55,697.257 C1963.55,694.148 1963.25,693.101 1961.95,691.398 C1960.5,689.554 1958.45,688.554 1956.05,688.554 C1952.8,688.554 1950.39,690.101 1948.25,693.554 C1947.39,690.554 1944.69,688.554 1941.34,688.554 C1938.3,688.554 1936.09,690.007 1934.14,693.148 L1934.14,689.304 M1990.69,696.507 C1990.69,693.351 1990.14,691.757 1988.69,690.554 C1987.05,689.195 1984.59,688.554 1981.39,688.554 C1975.75,688.554 1971.64,691.195 1971.64,694.851 C1971.64,696.695 1972.8,697.898 1974.55,697.898 C1976.14,697.898 1977.25,696.851 1977.25,695.351 C1977.25,694.695 1977,694.007 1976.5,693.304 C1976.19,692.945 1976.14,692.851 1976.14,692.601 C1976.14,691.601 1978.14,690.695 1980.55,690.695 C1982.14,690.695 1983.89,691.195 1984.69,691.945 C1985.64,692.757 1986,693.945 1986,696.195 L1986,698.148 C1980.8,699.054 1979.14,699.445 1976.69,700.398 C1972.34,702.007 1970.3,704.304 1970.3,707.507 C1970.3,711.101 1973.09,713.351 1977.55,713.351 C1981,713.351 1984.09,711.945 1986.25,709.398 C1987.05,711.945 1988.3,712.945 1990.64,712.945 C1992.89,712.945 1995.25,711.507 1995.25,710.054 C1995.25,709.695 1995.05,709.445 1994.75,709.445 C1994.55,709.445 1994.34,709.507 1994,709.648 C1993.3,709.945 1993,710.007 1992.59,710.007 C1991.19,710.007 1990.69,709.101 1990.69,706.554 L1990.69,696.507 M1986,702.601 C1986,705.601 1985.84,706.304 1985,707.601 C1983.75,709.445 1981.5,710.695 1979.3,710.695 C1977,710.695 1975.34,709.054 1975.34,706.804 C1975.34,704.695 1976.39,703.195 1978.59,702.148 C1980.14,701.445 1982.09,700.945 1986,700.304 L1986,702.601 M2003.09,676.851 C2001.5,676.851 2000.19,678.148 2000.19,679.742 C2000.19,681.351 2001.5,682.648 2003.05,682.648 C2004.69,682.648 2006,681.351 2006,679.742 C2006,678.148 2004.69,676.851 2003.09,676.851 M2005.44,689.304 L1995.69,689.851 L1995.69,692.007 L1998.59,692.007 C2000.5,692.054 2000.75,692.351 2000.75,694.507 L2000.75,711.445 C2000.75,715.507 2000.5,717.398 1999.8,718.851 C1999.3,719.851 1998.14,720.601 1997.05,720.601 C1996.34,720.601 1995.8,720.304 1995.8,719.945 C1995.8,719.757 1995.84,719.648 1996.05,719.148 C1996.3,718.648 1996.39,718.304 1996.39,717.945 C1996.39,716.695 1995.19,715.601 1993.8,715.601 C1992.19,715.601 1991,716.851 1991,718.601 C1991,721.054 1993.25,722.695 1996.59,722.695 C1999.39,722.695 2001.94,721.507 2003.39,719.445 C2004.94,717.257 2005.44,714.695 2005.44,709.054 L2005.44,689.304 "/>
<path class="Harmony" d="M2013.05,689.507 L2015.25,689.851 L2016.14,685.898 C2016.89,682.601 2017.25,682.101 2018.69,682.101 C2018.94,682.101 2019.34,682.101 2019.8,682.148 C2025.94,682.445 2025.94,682.445 2028.25,682.445 C2028.89,682.445 2030.05,682.445 2031.44,682.398 L2028.05,689.257 C2024.34,696.601 2023.89,697.507 2022.64,700.601 C2021.09,704.351 2020.3,707.507 2020.3,709.601 C2020.3,711.898 2021.5,713.304 2023.44,713.304 C2025.84,713.304 2026.8,711.695 2026.75,707.351 C2026.5,700.148 2027.39,696.648 2032.75,684.945 C2033.64,682.992 2034.59,680.992 2035.5,679.054 L2035.5,677.601 C2032.5,677.851 2030.89,677.945 2027.8,677.945 C2023.44,677.945 2020,677.804 2014.59,677.398 L2013.05,689.507 "/>
<path class="Harmony" d="M2049.31,680.725 L2035.95,718.225 L2038.86,718.225 L2052.2,680.725 L2049.31,680.725 "/>
<path class="Harmony" d="M2053.59,686.333 L2053.59,688.692 L2054.5,688.692 C2057.34,688.739 2058.3,688.895 2058.69,689.395 C2059,689.833 2059,689.942 2059,692.489 L2059,716.286 C2059,718.848 2059,718.942 2058.69,719.395 C2058.3,719.895 2057.34,720.098 2054.5,720.098 L2053.59,720.098 L2053.59,722.442 L2071.75,722.442 C2080.39,722.442 2085.59,718.786 2085.59,712.645 C2085.59,707.645 2082.45,704.786 2075.59,703.598 C2078,703.098 2079.09,702.645 2080.39,701.692 C2082.45,700.145 2083.7,697.692 2083.7,695.192 C2083.7,691.942 2081.7,688.786 2078.8,687.536 C2077,686.739 2074.5,686.333 2071.55,686.333 L2053.59,686.333 M2064.59,702.598 L2064.59,691.192 C2064.59,689.239 2065.25,688.739 2067.89,688.692 L2069.89,688.692 C2074.8,688.692 2077.89,690.286 2077.89,695.739 C2077.89,700.692 2075.5,702.598 2069.05,702.598 L2064.59,702.598 M2064.59,704.942 L2069,704.942 C2076.64,704.942 2079.45,706.989 2079.45,712.489 C2079.45,719.192 2075.25,720.098 2069.59,720.098 L2067.5,720.098 C2065,720.098 2064.5,719.598 2064.59,716.942 L2064.59,704.942 "/>
<path class="Page" d="M2102.36,230.708 C2101.09,232.02 2100.94,232.301 2100.94,233.176 C2100.94,234.333 2101.81,235.208 2102.97,235.208 C2104.17,235.208 2105.22,234.223 2105.22,233.005 C2105.22,232.786 2105.17,232.458 2105.11,232.13 C2106.81,230.755 2108.91,230.036 2111.22,230.036 C2115.34,230.036 2117.42,233.067 2117.42,239.005 C2117.42,245.708 2115.06,249.239 2110.67,249.239 C2108.19,249.239 2105.83,248.083 2105.83,246.926 C2105.83,246.598 2105.98,246.426 2106.48,246.161 C2108.69,245.114 2109.45,244.067 2109.45,242.192 C2109.45,239.442 2107.58,237.692 2104.78,237.692 C2101.59,237.692 2099.5,239.88 2099.5,243.301 C2099.5,248.801 2104.45,252.364 2112.05,252.364 C2121.06,252.364 2127.22,246.864 2127.22,238.723 C2127.22,231.583 2121.44,226.301 2113.53,226.301 C2110.94,226.301 2109.3,226.739 2105.61,228.395 L2106.44,221.301 C2109.08,221.848 2111.22,222.13 2113.36,222.13 C2117.92,222.13 2121.72,220.583 2123.75,217.895 C2124.8,216.52 2125.63,214.473 2125.63,213.27 C2125.63,212.88 2125.45,212.661 2125.19,212.661 C2124.97,212.661 2124.64,212.723 2124.3,212.833 C2122.33,213.317 2118.75,213.598 2114.34,213.598 C2109.73,213.598 2106.98,213.38 2103.63,212.661 C2103.34,217.286 2103.34,217.723 2102.69,226.739 L2102.36,230.708 "/>
</svg>
