<?xml version="1.0" encoding="UTF-8" standalone="no"?>
<svg width="2340px" height="1260px" viewBox="0 0 2340 1260"
 xmlns="http://www.w3.org/2000/svg" xmlns:xlink="http://www.w3.org/1999/xlink" version="1.2" baseProfile="tiny">
<title>和弦 (2)</title>
<desc>Generated by MuseScore Studio 4.4.4</desc>
<path class="" fill="#ffffff" fill-rule="evenodd" d="M0,0 L2340,0 L2340,1260 L0,1260 L0,0 "/>
<polyline class="StaffLines" fill="none" stroke="#000000" stroke-width="2.73" stroke-linejoin="bevel" points="212.598,386.199 2127.8,386.199"/>
<polyline class="StaffLines" fill="none" stroke="#000000" stroke-width="2.73" stroke-linejoin="bevel" points="212.598,410.999 2127.8,410.999"/>
<polyline class="StaffLines" fill="none" stroke="#000000" stroke-width="2.73" stroke-linejoin="bevel" points="212.598,435.799 2127.8,435.799"/>
<polyline class="StaffLines" fill="none" stroke="#000000" stroke-width="2.73" stroke-linejoin="bevel" points="212.598,460.599 2127.8,460.599"/>
<polyline class="StaffLines" fill="none" stroke="#000000" stroke-width="2.73" stroke-linejoin="bevel" points="212.598,485.399 2127.8,485.399"/>
<polyline class="StaffLines" fill="none" stroke="#000000" stroke-width="2.73" stroke-linejoin="bevel" points="212.598,774.601 2127.8,774.601"/>
<polyline class="StaffLines" fill="none" stroke="#000000" stroke-width="2.73" stroke-linejoin="bevel" points="212.598,799.401 2127.8,799.401"/>
<polyline class="StaffLines" fill="none" stroke="#000000" stroke-width="2.73" stroke-linejoin="bevel" points="212.598,824.201 2127.8,824.201"/>
<polyline class="StaffLines" fill="none" stroke="#000000" stroke-width="2.73" stroke-linejoin="bevel" points="212.598,849.001 2127.8,849.001"/>
<polyline class="StaffLines" fill="none" stroke="#000000" stroke-width="2.73" stroke-linejoin="bevel" points="212.598,873.801 2127.8,873.801"/>
<path class="MeasureNumber" d="M229.958,308.286 L228.801,308.286 C226.598,309.927 222.364,311.317 219.473,311.317 L219.005,313.083 L221.755,313.083 C224.192,313.083 224.473,313.161 224.473,313.88 C224.473,314.239 224.473,314.239 224.083,315.677 L219.801,331.677 C219.27,333.677 219.239,333.802 218.88,334.161 C218.473,334.552 217.63,334.677 215.52,334.724 L213.801,334.724 L213.598,336.599 L228.395,336.599 L228.63,334.724 L226.473,334.724 C223.88,334.724 223.317,334.52 223.317,333.645 C223.317,333.364 223.473,332.442 223.676,331.677 L229.958,308.286 M238.083,321.286 C236.833,322.036 236.473,322.52 236.473,323.317 C236.473,324.083 237.114,324.645 237.911,324.645 C238.958,324.645 239.551,323.88 239.676,322.395 C240.911,321.395 242.239,320.958 243.833,320.958 C246.801,320.958 248.442,322.802 248.442,326.114 C248.442,331.317 245.083,335.552 240.958,335.552 C238.598,335.552 236.676,334.442 236.676,333.114 C236.676,332.88 236.723,332.802 236.911,332.677 C238.192,332.083 239.239,331.645 239.239,329.958 C239.239,328.677 238.239,327.724 236.833,327.724 C235.083,327.724 233.755,329.192 233.755,331.114 C233.755,334.645 236.801,337.192 241.083,337.192 C247.551,337.192 252.801,332.036 252.801,325.645 C252.801,321.599 249.723,318.755 245.364,318.755 C243.63,318.755 242.239,319.114 240.317,320.083 L242.551,312.52 C244.676,312.958 246.364,313.161 247.801,313.161 C250.442,313.161 252.801,312.317 254.114,310.927 C254.801,310.13 255.192,309.442 255.192,308.927 C255.192,308.677 255.067,308.442 254.911,308.442 C254.801,308.442 254.708,308.489 254.473,308.599 C253.161,309.239 251.473,309.599 249.911,309.599 C247.52,309.599 244.676,309.208 241.723,308.442 L238.083,321.286 "/>
<path class="MeasureNumber" d="M231.989,716.72 L230.958,718.564 C229.348,721.329 229.036,721.564 226.989,721.595 L217.723,721.595 C218.676,720.329 220.442,718.845 223.63,716.595 C228.911,712.97 229.27,712.72 230.395,711.845 C233.598,709.361 234.911,707.001 234.911,703.845 C234.911,699.642 231.801,696.845 227.192,696.845 C222.083,696.845 217.645,700.611 217.645,704.97 C217.645,707.204 218.833,708.642 220.755,708.642 C222.192,708.642 223.317,707.564 223.317,706.079 C223.317,705.048 222.801,704.361 221.473,703.642 C220.52,703.157 220.364,702.97 220.364,702.486 C220.364,700.767 223.317,698.845 226.036,698.845 C228.833,698.845 230.723,700.72 230.723,703.532 C230.723,706.517 229.395,708.72 225.801,711.845 C215.161,721.079 213.551,722.767 213.192,725.001 L230.348,725.001 L233.442,717.282 L231.989,716.72 M253.989,716.72 L252.958,718.564 C251.348,721.329 251.036,721.564 248.989,721.595 L239.723,721.595 C240.676,720.329 242.442,718.845 245.63,716.595 C250.911,712.97 251.27,712.72 252.395,711.845 C255.598,709.361 256.911,707.001 256.911,703.845 C256.911,699.642 253.801,696.845 249.192,696.845 C244.083,696.845 239.645,700.611 239.645,704.97 C239.645,707.204 240.833,708.642 242.755,708.642 C244.192,708.642 245.317,707.564 245.317,706.079 C245.317,705.048 244.801,704.361 243.473,703.642 C242.52,703.157 242.364,702.97 242.364,702.486 C242.364,700.767 245.317,698.845 248.036,698.845 C250.833,698.845 252.723,700.72 252.723,703.532 C252.723,706.517 251.395,708.72 247.801,711.845 C237.161,721.079 235.551,722.767 235.192,725.001 L252.348,725.001 L255.442,717.282 L253.989,716.72 "/>
<polyline class="BarLine" fill="none" stroke="#000000" stroke-width="4.46" stroke-linejoin="bevel" points="1328.65,384.835 1328.65,486.763"/>
<polyline class="BarLine" fill="none" stroke="#000000" stroke-width="4.46" stroke-linejoin="bevel" points="1350.82,773.237 1350.82,875.165"/>
<polyline class="BarLine" fill="none" stroke="#000000" stroke-width="4.46" stroke-linejoin="bevel" points="1622.34,773.237 1622.34,875.165"/>
<polyline class="BarLine" fill="none" stroke="#000000" stroke-width="4.46" stroke-linejoin="bevel" points="1832.79,384.835 1832.79,486.763"/>
<polyline class="BarLine" fill="none" stroke="#000000" stroke-width="4.46" stroke-linejoin="bevel" points="587.429,773.237 587.429,875.165"/>
<polyline class="BarLine" fill="none" stroke="#000000" stroke-width="4.46" stroke-linejoin="bevel" points="1868.27,773.237 1868.27,875.165"/>
<polyline class="BarLine" fill="none" stroke="#000000" stroke-width="4.46" stroke-linejoin="bevel" points="833.361,773.237 833.361,875.165"/>
<polyline class="BarLine" fill="none" stroke="#000000" stroke-width="4.46" stroke-linejoin="bevel" points="2102.75,384.835 2102.75,486.763"/>
<polyline class="BarLine" fill="none" stroke="#000000" stroke-width="13.64" stroke-linejoin="bevel" points="2120.98,384.835 2120.98,486.763"/>
<polyline class="BarLine" fill="none" stroke="#000000" stroke-width="4.46" stroke-linejoin="bevel" points="1565.89,384.835 1565.89,486.763"/>
<polyline class="BarLine" fill="none" stroke="#000000" stroke-width="4.46" stroke-linejoin="bevel" points="1079.29,773.237 1079.29,875.165"/>
<polyline class="BarLine" fill="none" stroke="#000000" stroke-width="4.46" stroke-linejoin="bevel" points="557.614,384.835 557.614,486.763"/>
<polyline class="BarLine" fill="none" stroke="#000000" stroke-width="4.46" stroke-linejoin="bevel" points="824.509,384.835 824.509,486.763"/>
<polyline class="BarLine" fill="none" stroke="#000000" stroke-width="4.46" stroke-linejoin="bevel" points="2102.75,773.237 2102.75,875.165"/>
<polyline class="BarLine" fill="none" stroke="#000000" stroke-width="13.64" stroke-linejoin="bevel" points="2120.98,773.237 2120.98,875.165"/>
<polyline class="BarLine" fill="none" stroke="#000000" stroke-width="4.46" stroke-linejoin="bevel" points="1091.4,384.835 1091.4,486.763"/>
<path class="Accidental" transform="matrix(0.992001,0,0,0.992001,1613.89,423.399)" d="M23.2969,-10.5 C23.9063,-10.5938 24.4063,-11.2969 24.4063,-11.9063 L24.4063,-17.7969 C24.4063,-18.7969 23.7031,-19.2031 22.7969,-19.2031 L19.5,-18.5 L19.5,-33.4063 L16.7031,-33.4063 L16.7031,-17.9063 L7.79688,-16.0938 L7.79688,-30.2031 L5,-30.2031 L5,-15.5 L1.09375,-14.7031 C0.5,-14.5938 0,-13.9063 0,-13.2969 L0,-7.5 C0,-6.40625 0.796875,-6.09375 1.70313,-6.09375 L5,-6.79688 L5,9.70313 L1.09375,10.5 C0.5,10.5938 0,11.2969 0,11.9063 L0,17.7031 C0,18.7969 0.796875,19.0938 1.70313,19.0938 L5,18.4063 L5,33.2969 L7.79688,33.2969 L7.79688,17.7969 L16.7031,16 L16.7031,30.1094 L19.5,30.1094 L19.5,15.4063 L23.2969,14.7031 C23.9063,14.5938 24.4063,13.9063 24.4063,13.2969 L24.4063,7.40625 C24.4063,6.40625 23.7031,6 22.7969,6 L19.5,6.70313 L19.5,-9.79688 L23.2969,-10.5 M7.79688,-7.40625 L16.7031,-9.20313 L16.7031,7.29688 L7.79688,9.20313 L7.79688,-7.40625 "/>
<path class="Accidental" transform="matrix(0.992001,0,0,0.992001,842.861,485.399)" d="M23.2969,-10.5 C23.9063,-10.5938 24.4063,-11.2969 24.4063,-11.9063 L24.4063,-17.7969 C24.4063,-18.7969 23.7031,-19.2031 22.7969,-19.2031 L19.5,-18.5 L19.5,-33.4063 L16.7031,-33.4063 L16.7031,-17.9063 L7.79688,-16.0938 L7.79688,-30.2031 L5,-30.2031 L5,-15.5 L1.09375,-14.7031 C0.5,-14.5938 0,-13.9063 0,-13.2969 L0,-7.5 C0,-6.40625 0.796875,-6.09375 1.70313,-6.09375 L5,-6.79688 L5,9.70313 L1.09375,10.5 C0.5,10.5938 0,11.2969 0,11.9063 L0,17.7031 C0,18.7969 0.796875,19.0938 1.70313,19.0938 L5,18.4063 L5,33.2969 L7.79688,33.2969 L7.79688,17.7969 L16.7031,16 L16.7031,30.1094 L19.5,30.1094 L19.5,15.4063 L23.2969,14.7031 C23.9063,14.5938 24.4063,13.9063 24.4063,13.2969 L24.4063,7.40625 C24.4063,6.40625 23.7031,6 22.7969,6 L19.5,6.70313 L19.5,-9.79688 L23.2969,-10.5 M7.79688,-7.40625 L16.7031,-9.20313 L16.7031,7.29688 L7.79688,9.20313 L7.79688,-7.40625 "/>
<path class="Accidental" transform="matrix(0.992001,0,0,0.992001,1880.79,410.999)" d="M8.59375,7 L13.5938,2.20313 L13.9063,2.20313 L18.7969,7 L18.7969,12.2969 C18.7969,13.0938 19.4063,13.7031 20.2031,13.7031 L26.1094,13.7031 C26.9063,13.7031 27.5,13.0938 27.5,12.2969 L27.5,6.40625 C27.5,5.59375 26.9063,5.09375 26.1094,5.09375 L20.7969,5.09375 L15.7969,0.09375 L15.7969,-0.09375 L20.7969,-5.09375 L26.1094,-5.09375 C26.9063,-5.09375 27.5,-5.70313 27.5,-6.5 L27.5,-12.4063 C27.5,-13.2031 26.9063,-13.7969 26.1094,-13.7969 L20.2031,-13.7969 C19.4063,-13.7969 18.7969,-13.2031 18.7969,-12.4063 L18.7969,-7.09375 L13.9063,-2.09375 L13.5938,-2.09375 L8.59375,-7.09375 L8.59375,-12.4063 C8.59375,-13.2031 8.09375,-13.7969 7.29688,-13.7969 L1.40625,-13.7969 C0.59375,-13.7969 0,-13.2031 0,-12.4063 L0,-6.5 C0,-5.70313 0.59375,-5.09375 1.40625,-5.09375 L6.70313,-5.09375 L11.5938,-0.203125 L11.5938,0.09375 L6.70313,5.09375 L1.40625,5.09375 C0.59375,5.09375 0,5.59375 0,6.40625 L0,12.2969 C0,13.0938 0.59375,13.7031 1.40625,13.7031 L7.29688,13.7031 C8.09375,13.7031 8.59375,13.0938 8.59375,12.2969 L8.59375,7 "/>
<path class="Accidental" transform="matrix(0.992001,0,0,0.992001,1123.24,836.601)" d="M12,-15.5 C7,-15.5 4.09375,-12.4063 3.59375,-11.7969 L4,-43.9063 C4,-44.7031 3.40625,-45.2969 2.59375,-45.2969 L1.40625,-45.2969 C0.59375,-45.2969 0,-44.7031 0,-43.9063 L0.5,16.2031 C0.5,17 1.09375,17.5938 1.90625,17.5938 C2.09375,17.5938 2.5,17.5 2.70313,17.4063 C11.2969,13.0938 20.2969,4.90625 20.2969,-5.40625 C20.2969,-10.5938 17.9063,-15.5 12,-15.5 M3.29688,12.7031 L3.59375,-6.79688 C3.79688,-7.70313 5.29688,-10.5938 9.29688,-10.5938 C12.9063,-10.5938 13.2031,-7.20313 13.2031,-5.09375 C13.2031,3.79688 9.90625,7.5 3.29688,12.7031"/>
<path class="Accidental" transform="matrix(0.992001,0,0,0.992001,1097.65,861.401)" d="M12,-15.5 C7,-15.5 4.09375,-12.4063 3.59375,-11.7969 L4,-43.9063 C4,-44.7031 3.40625,-45.2969 2.59375,-45.2969 L1.40625,-45.2969 C0.59375,-45.2969 0,-44.7031 0,-43.9063 L0.5,16.2031 C0.5,17 1.09375,17.5938 1.90625,17.5938 C2.09375,17.5938 2.5,17.5 2.70313,17.4063 C11.2969,13.0938 20.2969,4.90625 20.2969,-5.40625 C20.2969,-10.5938 17.9063,-15.5 12,-15.5 M3.29688,12.7031 L3.59375,-6.79688 C3.79688,-7.70313 5.29688,-10.5938 9.29688,-10.5938 C12.9063,-10.5938 13.2031,-7.20313 13.2031,-5.09375 C13.2031,3.79688 9.90625,7.5 3.29688,12.7031"/>
<path class="Accidental" transform="matrix(0.992001,0,0,0.992001,1109.76,448.199)" d="M23.2969,-10.5 C23.9063,-10.5938 24.4063,-11.2969 24.4063,-11.9063 L24.4063,-17.7969 C24.4063,-18.7969 23.7031,-19.2031 22.7969,-19.2031 L19.5,-18.5 L19.5,-33.4063 L16.7031,-33.4063 L16.7031,-17.9063 L7.79688,-16.0938 L7.79688,-30.2031 L5,-30.2031 L5,-15.5 L1.09375,-14.7031 C0.5,-14.5938 0,-13.9063 0,-13.2969 L0,-7.5 C0,-6.40625 0.796875,-6.09375 1.70313,-6.09375 L5,-6.79688 L5,9.70313 L1.09375,10.5 C0.5,10.5938 0,11.2969 0,11.9063 L0,17.7031 C0,18.7969 0.796875,19.0938 1.70313,19.0938 L5,18.4063 L5,33.2969 L7.79688,33.2969 L7.79688,17.7969 L16.7031,16 L16.7031,30.1094 L19.5,30.1094 L19.5,15.4063 L23.2969,14.7031 C23.9063,14.5938 24.4063,13.9063 24.4063,13.2969 L24.4063,7.40625 C24.4063,6.40625 23.7031,6 22.7969,6 L19.5,6.70313 L19.5,-9.79688 L23.2969,-10.5 M7.79688,-7.40625 L16.7031,-9.20313 L16.7031,7.29688 L7.79688,9.20313 L7.79688,-7.40625 "/>
<path class="Accidental" transform="matrix(0.992001,0,0,0.992001,605.617,472.999)" d="M23.2969,-10.5 C23.9063,-10.5938 24.4063,-11.2969 24.4063,-11.9063 L24.4063,-17.7969 C24.4063,-18.7969 23.7031,-19.2031 22.7969,-19.2031 L19.5,-18.5 L19.5,-33.4063 L16.7031,-33.4063 L16.7031,-17.9063 L7.79688,-16.0938 L7.79688,-30.2031 L5,-30.2031 L5,-15.5 L1.09375,-14.7031 C0.5,-14.5938 0,-13.9063 0,-13.2969 L0,-7.5 C0,-6.40625 0.796875,-6.09375 1.70313,-6.09375 L5,-6.79688 L5,9.70313 L1.09375,10.5 C0.5,10.5938 0,11.2969 0,11.9063 L0,17.7031 C0,18.7969 0.796875,19.0938 1.70313,19.0938 L5,18.4063 L5,33.2969 L7.79688,33.2969 L7.79688,17.7969 L16.7031,16 L16.7031,30.1094 L19.5,30.1094 L19.5,15.4063 L23.2969,14.7031 C23.9063,14.5938 24.4063,13.9063 24.4063,13.2969 L24.4063,7.40625 C24.4063,6.40625 23.7031,6 22.7969,6 L19.5,6.70313 L19.5,-9.79688 L23.2969,-10.5 M7.79688,-7.40625 L16.7031,-9.20313 L16.7031,7.29688 L7.79688,9.20313 L7.79688,-7.40625 "/>
<path class="Accidental" transform="matrix(0.992001,0,0,0.992001,575.966,497.799)" d="M23.2969,-10.5 C23.9063,-10.5938 24.4063,-11.2969 24.4063,-11.9063 L24.4063,-17.7969 C24.4063,-18.7969 23.7031,-19.2031 22.7969,-19.2031 L19.5,-18.5 L19.5,-33.4063 L16.7031,-33.4063 L16.7031,-17.9063 L7.79688,-16.0938 L7.79688,-30.2031 L5,-30.2031 L5,-15.5 L1.09375,-14.7031 C0.5,-14.5938 0,-13.9063 0,-13.2969 L0,-7.5 C0,-6.40625 0.796875,-6.09375 1.70313,-6.09375 L5,-6.79688 L5,9.70313 L1.09375,10.5 C0.5,10.5938 0,11.2969 0,11.9063 L0,17.7031 C0,18.7969 0.796875,19.0938 1.70313,19.0938 L5,18.4063 L5,33.2969 L7.79688,33.2969 L7.79688,17.7969 L16.7031,16 L16.7031,30.1094 L19.5,30.1094 L19.5,15.4063 L23.2969,14.7031 C23.9063,14.5938 24.4063,13.9063 24.4063,13.2969 L24.4063,7.40625 C24.4063,6.40625 23.7031,6 22.7969,6 L19.5,6.70313 L19.5,-9.79688 L23.2969,-10.5 M7.79688,-7.40625 L16.7031,-9.20313 L16.7031,7.29688 L7.79688,9.20313 L7.79688,-7.40625 "/>
<path class="Accidental" transform="matrix(0.992001,0,0,0.992001,872.512,460.599)" d="M23.2969,-10.5 C23.9063,-10.5938 24.4063,-11.2969 24.4063,-11.9063 L24.4063,-17.7969 C24.4063,-18.7969 23.7031,-19.2031 22.7969,-19.2031 L19.5,-18.5 L19.5,-33.4063 L16.7031,-33.4063 L16.7031,-17.9063 L7.79688,-16.0938 L7.79688,-30.2031 L5,-30.2031 L5,-15.5 L1.09375,-14.7031 C0.5,-14.5938 0,-13.9063 0,-13.2969 L0,-7.5 C0,-6.40625 0.796875,-6.09375 1.70313,-6.09375 L5,-6.79688 L5,9.70313 L1.09375,10.5 C0.5,10.5938 0,11.2969 0,11.9063 L0,17.7031 C0,18.7969 0.796875,19.0938 1.70313,19.0938 L5,18.4063 L5,33.2969 L7.79688,33.2969 L7.79688,17.7969 L16.7031,16 L16.7031,30.1094 L19.5,30.1094 L19.5,15.4063 L23.2969,14.7031 C23.9063,14.5938 24.4063,13.9063 24.4063,13.2969 L24.4063,7.40625 C24.4063,6.40625 23.7031,6 22.7969,6 L19.5,6.70313 L19.5,-9.79688 L23.2969,-10.5 M7.79688,-7.40625 L16.7031,-9.20313 L16.7031,7.29688 L7.79688,9.20313 L7.79688,-7.40625 "/>
<path class="Accidental" transform="matrix(0.992001,0,0,0.992001,1369.17,849.001)" d="M12,-15.5 C7,-15.5 4.09375,-12.4063 3.59375,-11.7969 L4,-43.9063 C4,-44.7031 3.40625,-45.2969 2.59375,-45.2969 L1.40625,-45.2969 C0.59375,-45.2969 0,-44.7031 0,-43.9063 L0.5,16.2031 C0.5,17 1.09375,17.5938 1.90625,17.5938 C2.09375,17.5938 2.5,17.5 2.70313,17.4063 C11.2969,13.0938 20.2969,4.90625 20.2969,-5.40625 C20.2969,-10.5938 17.9063,-15.5 12,-15.5 M3.29688,12.7031 L3.59375,-6.79688 C3.79688,-7.70313 5.29688,-10.5938 9.29688,-10.5938 C12.9063,-10.5938 13.2031,-7.20313 13.2031,-5.09375 C13.2031,3.79688 9.90625,7.5 3.29688,12.7031"/>
<path class="Accidental" transform="matrix(0.992001,0,0,0.992001,1851.14,435.799)" d="M23.2969,-10.5 C23.9063,-10.5938 24.4063,-11.2969 24.4063,-11.9063 L24.4063,-17.7969 C24.4063,-18.7969 23.7031,-19.2031 22.7969,-19.2031 L19.5,-18.5 L19.5,-33.4063 L16.7031,-33.4063 L16.7031,-17.9063 L7.79688,-16.0938 L7.79688,-30.2031 L5,-30.2031 L5,-15.5 L1.09375,-14.7031 C0.5,-14.5938 0,-13.9063 0,-13.2969 L0,-7.5 C0,-6.40625 0.796875,-6.09375 1.70313,-6.09375 L5,-6.79688 L5,9.70313 L1.09375,10.5 C0.5,10.5938 0,11.2969 0,11.9063 L0,17.7031 C0,18.7969 0.796875,19.0938 1.70313,19.0938 L5,18.4063 L5,33.2969 L7.79688,33.2969 L7.79688,17.7969 L16.7031,16 L16.7031,30.1094 L19.5,30.1094 L19.5,15.4063 L23.2969,14.7031 C23.9063,14.5938 24.4063,13.9063 24.4063,13.2969 L24.4063,7.40625 C24.4063,6.40625 23.7031,6 22.7969,6 L19.5,6.70313 L19.5,-9.79688 L23.2969,-10.5 M7.79688,-7.40625 L16.7031,-9.20313 L16.7031,7.29688 L7.79688,9.20313 L7.79688,-7.40625 "/>
<path class="Accidental" transform="matrix(0.992001,0,0,0.992001,851.713,849.001)" d="M12,-15.5 C7,-15.5 4.09375,-12.4063 3.59375,-11.7969 L4,-43.9063 C4,-44.7031 3.40625,-45.2969 2.59375,-45.2969 L1.40625,-45.2969 C0.59375,-45.2969 0,-44.7031 0,-43.9063 L0.5,16.2031 C0.5,17 1.09375,17.5938 1.90625,17.5938 C2.09375,17.5938 2.5,17.5 2.70313,17.4063 C11.2969,13.0938 20.2969,4.90625 20.2969,-5.40625 C20.2969,-10.5938 17.9063,-15.5 12,-15.5 M3.29688,12.7031 L3.59375,-6.79688 C3.79688,-7.70313 5.29688,-10.5938 9.29688,-10.5938 C12.9063,-10.5938 13.2031,-7.20313 13.2031,-5.09375 C13.2031,3.79688 9.90625,7.5 3.29688,12.7031"/>
<path class="Accidental" transform="matrix(0.992001,0,0,0.992001,1347,435.799)" d="M23.2969,-10.5 C23.9063,-10.5938 24.4063,-11.2969 24.4063,-11.9063 L24.4063,-17.7969 C24.4063,-18.7969 23.7031,-19.2031 22.7969,-19.2031 L19.5,-18.5 L19.5,-33.4063 L16.7031,-33.4063 L16.7031,-17.9063 L7.79688,-16.0938 L7.79688,-30.2031 L5,-30.2031 L5,-15.5 L1.09375,-14.7031 C0.5,-14.5938 0,-13.9063 0,-13.2969 L0,-7.5 C0,-6.40625 0.796875,-6.09375 1.70313,-6.09375 L5,-6.79688 L5,9.70313 L1.09375,10.5 C0.5,10.5938 0,11.2969 0,11.9063 L0,17.7031 C0,18.7969 0.796875,19.0938 1.70313,19.0938 L5,18.4063 L5,33.2969 L7.79688,33.2969 L7.79688,17.7969 L16.7031,16 L16.7031,30.1094 L19.5,30.1094 L19.5,15.4063 L23.2969,14.7031 C23.9063,14.5938 24.4063,13.9063 24.4063,13.2969 L24.4063,7.40625 C24.4063,6.40625 23.7031,6 22.7969,6 L19.5,6.70313 L19.5,-9.79688 L23.2969,-10.5 M7.79688,-7.40625 L16.7031,-9.20313 L16.7031,7.29688 L7.79688,9.20313 L7.79688,-7.40625 "/>
<path class="Accidental" transform="matrix(0.992001,0,0,0.992001,1640.69,811.801)" d="M12,-15.5 C7,-15.5 4.09375,-12.4063 3.59375,-11.7969 L4,-43.9063 C4,-44.7031 3.40625,-45.2969 2.59375,-45.2969 L1.40625,-45.2969 C0.59375,-45.2969 0,-44.7031 0,-43.9063 L0.5,16.2031 C0.5,17 1.09375,17.5938 1.90625,17.5938 C2.09375,17.5938 2.5,17.5 2.70313,17.4063 C11.2969,13.0938 20.2969,4.90625 20.2969,-5.40625 C20.2969,-10.5938 17.9063,-15.5 12,-15.5 M3.29688,12.7031 L3.59375,-6.79688 C3.79688,-7.70313 5.29688,-10.5938 9.29688,-10.5938 C12.9063,-10.5938 13.2031,-7.20313 13.2031,-5.09375 C13.2031,3.79688 9.90625,7.5 3.29688,12.7031"/>
<path class="Accidental" transform="matrix(0.992001,0,0,0.992001,334.258,485.399)" d="M23.2969,-10.5 C23.9063,-10.5938 24.4063,-11.2969 24.4063,-11.9063 L24.4063,-17.7969 C24.4063,-18.7969 23.7031,-19.2031 22.7969,-19.2031 L19.5,-18.5 L19.5,-33.4063 L16.7031,-33.4063 L16.7031,-17.9063 L7.79688,-16.0938 L7.79688,-30.2031 L5,-30.2031 L5,-15.5 L1.09375,-14.7031 C0.5,-14.5938 0,-13.9063 0,-13.2969 L0,-7.5 C0,-6.40625 0.796875,-6.09375 1.70313,-6.09375 L5,-6.79688 L5,9.70313 L1.09375,10.5 C0.5,10.5938 0,11.2969 0,11.9063 L0,17.7031 C0,18.7969 0.796875,19.0938 1.70313,19.0938 L5,18.4063 L5,33.2969 L7.79688,33.2969 L7.79688,17.7969 L16.7031,16 L16.7031,30.1094 L19.5,30.1094 L19.5,15.4063 L23.2969,14.7031 C23.9063,14.5938 24.4063,13.9063 24.4063,13.2969 L24.4063,7.40625 C24.4063,6.40625 23.7031,6 22.7969,6 L19.5,6.70313 L19.5,-9.79688 L23.2969,-10.5 M7.79688,-7.40625 L16.7031,-9.20313 L16.7031,7.29688 L7.79688,9.20313 L7.79688,-7.40625 "/>
<path class="Accidental" transform="matrix(0.992001,0,0,0.992001,1394.76,824.201)" d="M12,-15.5 C7,-15.5 4.09375,-12.4063 3.59375,-11.7969 L4,-43.9063 C4,-44.7031 3.40625,-45.2969 2.59375,-45.2969 L1.40625,-45.2969 C0.59375,-45.2969 0,-44.7031 0,-43.9063 L0.5,16.2031 C0.5,17 1.09375,17.5938 1.90625,17.5938 C2.09375,17.5938 2.5,17.5 2.70313,17.4063 C11.2969,13.0938 20.2969,4.90625 20.2969,-5.40625 C20.2969,-10.5938 17.9063,-15.5 12,-15.5 M3.29688,12.7031 L3.59375,-6.79688 C3.79688,-7.70313 5.29688,-10.5938 9.29688,-10.5938 C12.9063,-10.5938 13.2031,-7.20313 13.2031,-5.09375 C13.2031,3.79688 9.90625,7.5 3.29688,12.7031"/>
<path class="Accidental" transform="matrix(0.992001,0,0,0.992001,334.258,898.601)" d="M12,-15.5 C7,-15.5 4.09375,-12.4063 3.59375,-11.7969 L4,-43.9063 C4,-44.7031 3.40625,-45.2969 2.59375,-45.2969 L1.40625,-45.2969 C0.59375,-45.2969 0,-44.7031 0,-43.9063 L0.5,16.2031 C0.5,17 1.09375,17.5938 1.90625,17.5938 C2.09375,17.5938 2.5,17.5 2.70313,17.4063 C11.2969,13.0938 20.2969,4.90625 20.2969,-5.40625 C20.2969,-10.5938 17.9063,-15.5 12,-15.5 M3.29688,12.7031 L3.59375,-6.79688 C3.79688,-7.70313 5.29688,-10.5938 9.29688,-10.5938 C12.9063,-10.5938 13.2031,-7.20313 13.2031,-5.09375 C13.2031,3.79688 9.90625,7.5 3.29688,12.7031"/>
<path class="Accidental" transform="matrix(0.992001,0,0,0.992001,359.849,873.801)" d="M12,-15.5 C7,-15.5 4.09375,-12.4063 3.59375,-11.7969 L4,-43.9063 C4,-44.7031 3.40625,-45.2969 2.59375,-45.2969 L1.40625,-45.2969 C0.59375,-45.2969 0,-44.7031 0,-43.9063 L0.5,16.2031 C0.5,17 1.09375,17.5938 1.90625,17.5938 C2.09375,17.5938 2.5,17.5 2.70313,17.4063 C11.2969,13.0938 20.2969,4.90625 20.2969,-5.40625 C20.2969,-10.5938 17.9063,-15.5 12,-15.5 M3.29688,12.7031 L3.59375,-6.79688 C3.79688,-7.70313 5.29688,-10.5938 9.29688,-10.5938 C12.9063,-10.5938 13.2031,-7.20313 13.2031,-5.09375 C13.2031,3.79688 9.90625,7.5 3.29688,12.7031"/>
<path class="Accidental" transform="matrix(0.992001,0,0,0.992001,1584.24,448.199)" d="M23.2969,-10.5 C23.9063,-10.5938 24.4063,-11.2969 24.4063,-11.9063 L24.4063,-17.7969 C24.4063,-18.7969 23.7031,-19.2031 22.7969,-19.2031 L19.5,-18.5 L19.5,-33.4063 L16.7031,-33.4063 L16.7031,-17.9063 L7.79688,-16.0938 L7.79688,-30.2031 L5,-30.2031 L5,-15.5 L1.09375,-14.7031 C0.5,-14.5938 0,-13.9063 0,-13.2969 L0,-7.5 C0,-6.40625 0.796875,-6.09375 1.70313,-6.09375 L5,-6.79688 L5,9.70313 L1.09375,10.5 C0.5,10.5938 0,11.2969 0,11.9063 L0,17.7031 C0,18.7969 0.796875,19.0938 1.70313,19.0938 L5,18.4063 L5,33.2969 L7.79688,33.2969 L7.79688,17.7969 L16.7031,16 L16.7031,30.1094 L19.5,30.1094 L19.5,15.4063 L23.2969,14.7031 C23.9063,14.5938 24.4063,13.9063 24.4063,13.2969 L24.4063,7.40625 C24.4063,6.40625 23.7031,6 22.7969,6 L19.5,6.70313 L19.5,-9.79688 L23.2969,-10.5 M7.79688,-7.40625 L16.7031,-9.20313 L16.7031,7.29688 L7.79688,9.20313 L7.79688,-7.40625 "/>
<path class="Accidental" transform="matrix(0.992001,0,0,0.992001,605.781,861.401)" d="M12,-15.5 C7,-15.5 4.09375,-12.4063 3.59375,-11.7969 L4,-43.9063 C4,-44.7031 3.40625,-45.2969 2.59375,-45.2969 L1.40625,-45.2969 C0.59375,-45.2969 0,-44.7031 0,-43.9063 L0.5,16.2031 C0.5,17 1.09375,17.5938 1.90625,17.5938 C2.09375,17.5938 2.5,17.5 2.70313,17.4063 C11.2969,13.0938 20.2969,4.90625 20.2969,-5.40625 C20.2969,-10.5938 17.9063,-15.5 12,-15.5 M3.29688,12.7031 L3.59375,-6.79688 C3.79688,-7.70313 5.29688,-10.5938 9.29688,-10.5938 C12.9063,-10.5938 13.2031,-7.20313 13.2031,-5.09375 C13.2031,3.79688 9.90625,7.5 3.29688,12.7031"/>
<polyline class="LedgerLine" fill="none" stroke="#000000" stroke-width="3.97" stroke-linejoin="bevel" points="1131.97,510.199 1185.33,510.199"/>
<polyline class="LedgerLine" fill="none" stroke="#000000" stroke-width="3.97" stroke-linejoin="bevel" points="623.932,898.601 677.298,898.601"/>
<polyline class="LedgerLine" fill="none" stroke="#000000" stroke-width="3.97" stroke-linejoin="bevel" points="360.934,510.199 414.3,510.199"/>
<polyline class="LedgerLine" fill="none" stroke="#000000" stroke-width="3.97" stroke-linejoin="bevel" points="360.934,534.999 414.3,534.999"/>
<polyline class="LedgerLine" fill="none" stroke="#000000" stroke-width="3.97" stroke-linejoin="bevel" points="377.999,898.601 431.366,898.601"/>
<polyline class="LedgerLine" fill="none" stroke="#000000" stroke-width="3.97" stroke-linejoin="bevel" points="377.999,923.401 431.366,923.401"/>
<polyline class="LedgerLine" fill="none" stroke="#000000" stroke-width="3.97" stroke-linejoin="bevel" points="869.864,898.601 923.231,898.601"/>
<polyline class="LedgerLine" fill="none" stroke="#000000" stroke-width="3.97" stroke-linejoin="bevel" points="1141.39,898.601 1194.75,898.601"/>
<polyline class="LedgerLine" fill="none" stroke="#000000" stroke-width="3.97" stroke-linejoin="bevel" points="627.829,510.199 681.195,510.199"/>
<polyline class="LedgerLine" fill="none" stroke="#000000" stroke-width="3.97" stroke-linejoin="bevel" points="894.724,510.199 948.09,510.199"/>
<path class="Note" transform="matrix(0.992001,0,0,0.992001,1914.25,410.999)" d="M18.7031,-13.5938 C4.90625,-13.5938 0,-6.59375 0,-0.09375 C0,6.40625 4.90625,13.4063 18.7031,13.4063 C32.5,13.4063 37.2969,6.40625 37.2969,-0.09375 C37.2969,-6.59375 32.5,-13.5938 18.7031,-13.5938 M19.5,10.2031 C16.7031,10.2031 14.7969,9.40625 13.5,6.90625 C12.2031,4.40625 10.4063,-2.09375 10.2969,-4.70313 C10.0938,-7.40625 11.0938,-9 13.5,-9.79688 C14.7031,-10.2031 16.2969,-10.4063 17.9063,-10.4063 C20.5938,-10.4063 22.4063,-9.79688 23.7969,-7.09375 C25.2031,-4.5 27.1094,2 27.1094,4.5 C27.1094,9.40625 23.5,10.2031 19.5,10.2031"/>
<path class="Note" transform="matrix(0.992001,0,0,0.992001,1421.09,849.001)" d="M18.7031,-13.5938 C4.90625,-13.5938 0,-6.59375 0,-0.09375 C0,6.40625 4.90625,13.4063 18.7031,13.4063 C32.5,13.4063 37.2969,6.40625 37.2969,-0.09375 C37.2969,-6.59375 32.5,-13.5938 18.7031,-13.5938 M19.5,10.2031 C16.7031,10.2031 14.7969,9.40625 13.5,6.90625 C12.2031,4.40625 10.4063,-2.09375 10.2969,-4.70313 C10.0938,-7.40625 11.0938,-9 13.5,-9.79688 C14.7031,-10.2031 16.2969,-10.4063 17.9063,-10.4063 C20.5938,-10.4063 22.4063,-9.79688 23.7969,-7.09375 C25.2031,-4.5 27.1094,2 27.1094,4.5 C27.1094,9.40625 23.5,10.2031 19.5,10.2031"/>
<path class="Note" transform="matrix(0.992001,0,0,0.992001,369.118,534.999)" d="M18.7031,-13.5938 C4.90625,-13.5938 0,-6.59375 0,-0.09375 C0,6.40625 4.90625,13.4063 18.7031,13.4063 C32.5,13.4063 37.2969,6.40625 37.2969,-0.09375 C37.2969,-6.59375 32.5,-13.5938 18.7031,-13.5938 M19.5,10.2031 C16.7031,10.2031 14.7969,9.40625 13.5,6.90625 C12.2031,4.40625 10.4063,-2.09375 10.2969,-4.70313 C10.0938,-7.40625 11.0938,-9 13.5,-9.79688 C14.7031,-10.2031 16.2969,-10.4063 17.9063,-10.4063 C20.5938,-10.4063 22.4063,-9.79688 23.7969,-7.09375 C25.2031,-4.5 27.1094,2 27.1094,4.5 C27.1094,9.40625 23.5,10.2031 19.5,10.2031"/>
<path class="Note" transform="matrix(0.992001,0,0,0.992001,369.118,510.199)" d="M18.7031,-13.5938 C4.90625,-13.5938 0,-6.59375 0,-0.09375 C0,6.40625 4.90625,13.4063 18.7031,13.4063 C32.5,13.4063 37.2969,6.40625 37.2969,-0.09375 C37.2969,-6.59375 32.5,-13.5938 18.7031,-13.5938 M19.5,10.2031 C16.7031,10.2031 14.7969,9.40625 13.5,6.90625 C12.2031,4.40625 10.4063,-2.09375 10.2969,-4.70313 C10.0938,-7.40625 11.0938,-9 13.5,-9.79688 C14.7031,-10.2031 16.2969,-10.4063 17.9063,-10.4063 C20.5938,-10.4063 22.4063,-9.79688 23.7969,-7.09375 C25.2031,-4.5 27.1094,2 27.1094,4.5 C27.1094,9.40625 23.5,10.2031 19.5,10.2031"/>
<path class="Note" transform="matrix(0.992001,0,0,0.992001,369.118,485.399)" d="M18.7031,-13.5938 C4.90625,-13.5938 0,-6.59375 0,-0.09375 C0,6.40625 4.90625,13.4063 18.7031,13.4063 C32.5,13.4063 37.2969,6.40625 37.2969,-0.09375 C37.2969,-6.59375 32.5,-13.5938 18.7031,-13.5938 M19.5,10.2031 C16.7031,10.2031 14.7969,9.40625 13.5,6.90625 C12.2031,4.40625 10.4063,-2.09375 10.2969,-4.70313 C10.0938,-7.40625 11.0938,-9 13.5,-9.79688 C14.7031,-10.2031 16.2969,-10.4063 17.9063,-10.4063 C20.5938,-10.4063 22.4063,-9.79688 23.7969,-7.09375 C25.2031,-4.5 27.1094,2 27.1094,4.5 C27.1094,9.40625 23.5,10.2031 19.5,10.2031"/>
<path class="Note" transform="matrix(0.992001,0,0,0.992001,1421.09,873.801)" d="M18.7031,-13.5938 C4.90625,-13.5938 0,-6.59375 0,-0.09375 C0,6.40625 4.90625,13.4063 18.7031,13.4063 C32.5,13.4063 37.2969,6.40625 37.2969,-0.09375 C37.2969,-6.59375 32.5,-13.5938 18.7031,-13.5938 M19.5,10.2031 C16.7031,10.2031 14.7969,9.40625 13.5,6.90625 C12.2031,4.40625 10.4063,-2.09375 10.2969,-4.70313 C10.0938,-7.40625 11.0938,-9 13.5,-9.79688 C14.7031,-10.2031 16.2969,-10.4063 17.9063,-10.4063 C20.5938,-10.4063 22.4063,-9.79688 23.7969,-7.09375 C25.2031,-4.5 27.1094,2 27.1094,4.5 C27.1094,9.40625 23.5,10.2031 19.5,10.2031"/>
<path class="Note" transform="matrix(0.992001,0,0,0.992001,636.013,497.799)" d="M18.7031,-13.5938 C4.90625,-13.5938 0,-6.59375 0,-0.09375 C0,6.40625 4.90625,13.4063 18.7031,13.4063 C32.5,13.4063 37.2969,6.40625 37.2969,-0.09375 C37.2969,-6.59375 32.5,-13.5938 18.7031,-13.5938 M19.5,10.2031 C16.7031,10.2031 14.7969,9.40625 13.5,6.90625 C12.2031,4.40625 10.4063,-2.09375 10.2969,-4.70313 C10.0938,-7.40625 11.0938,-9 13.5,-9.79688 C14.7031,-10.2031 16.2969,-10.4063 17.9063,-10.4063 C20.5938,-10.4063 22.4063,-9.79688 23.7969,-7.09375 C25.2031,-4.5 27.1094,2 27.1094,4.5 C27.1094,9.40625 23.5,10.2031 19.5,10.2031"/>
<path class="Note" transform="matrix(0.992001,0,0,0.992001,1377.4,460.599)" d="M18.7031,-13.5938 C4.90625,-13.5938 0,-6.59375 0,-0.09375 C0,6.40625 4.90625,13.4063 18.7031,13.4063 C32.5,13.4063 37.2969,6.40625 37.2969,-0.09375 C37.2969,-6.59375 32.5,-13.5938 18.7031,-13.5938 M19.5,10.2031 C16.7031,10.2031 14.7969,9.40625 13.5,6.90625 C12.2031,4.40625 10.4063,-2.09375 10.2969,-4.70313 C10.0938,-7.40625 11.0938,-9 13.5,-9.79688 C14.7031,-10.2031 16.2969,-10.4063 17.9063,-10.4063 C20.5938,-10.4063 22.4063,-9.79688 23.7969,-7.09375 C25.2031,-4.5 27.1094,2 27.1094,4.5 C27.1094,9.40625 23.5,10.2031 19.5,10.2031"/>
<path class="Note" transform="matrix(0.992001,0,0,0.992001,386.183,923.401)" d="M18.7031,-13.5938 C4.90625,-13.5938 0,-6.59375 0,-0.09375 C0,6.40625 4.90625,13.4063 18.7031,13.4063 C32.5,13.4063 37.2969,6.40625 37.2969,-0.09375 C37.2969,-6.59375 32.5,-13.5938 18.7031,-13.5938 M19.5,10.2031 C16.7031,10.2031 14.7969,9.40625 13.5,6.90625 C12.2031,4.40625 10.4063,-2.09375 10.2969,-4.70313 C10.0938,-7.40625 11.0938,-9 13.5,-9.79688 C14.7031,-10.2031 16.2969,-10.4063 17.9063,-10.4063 C20.5938,-10.4063 22.4063,-9.79688 23.7969,-7.09375 C25.2031,-4.5 27.1094,2 27.1094,4.5 C27.1094,9.40625 23.5,10.2031 19.5,10.2031"/>
<path class="Note" transform="matrix(0.992001,0,0,0.992001,386.183,898.601)" d="M18.7031,-13.5938 C4.90625,-13.5938 0,-6.59375 0,-0.09375 C0,6.40625 4.90625,13.4063 18.7031,13.4063 C32.5,13.4063 37.2969,6.40625 37.2969,-0.09375 C37.2969,-6.59375 32.5,-13.5938 18.7031,-13.5938 M19.5,10.2031 C16.7031,10.2031 14.7969,9.40625 13.5,6.90625 C12.2031,4.40625 10.4063,-2.09375 10.2969,-4.70313 C10.0938,-7.40625 11.0938,-9 13.5,-9.79688 C14.7031,-10.2031 16.2969,-10.4063 17.9063,-10.4063 C20.5938,-10.4063 22.4063,-9.79688 23.7969,-7.09375 C25.2031,-4.5 27.1094,2 27.1094,4.5 C27.1094,9.40625 23.5,10.2031 19.5,10.2031"/>
<path class="Note" transform="matrix(0.992001,0,0,0.992001,1914.25,435.799)" d="M18.7031,-13.5938 C4.90625,-13.5938 0,-6.59375 0,-0.09375 C0,6.40625 4.90625,13.4063 18.7031,13.4063 C32.5,13.4063 37.2969,6.40625 37.2969,-0.09375 C37.2969,-6.59375 32.5,-13.5938 18.7031,-13.5938 M19.5,10.2031 C16.7031,10.2031 14.7969,9.40625 13.5,6.90625 C12.2031,4.40625 10.4063,-2.09375 10.2969,-4.70313 C10.0938,-7.40625 11.0938,-9 13.5,-9.79688 C14.7031,-10.2031 16.2969,-10.4063 17.9063,-10.4063 C20.5938,-10.4063 22.4063,-9.79688 23.7969,-7.09375 C25.2031,-4.5 27.1094,2 27.1094,4.5 C27.1094,9.40625 23.5,10.2031 19.5,10.2031"/>
<path class="Note" transform="matrix(0.992001,0,0,0.992001,386.183,873.801)" d="M18.7031,-13.5938 C4.90625,-13.5938 0,-6.59375 0,-0.09375 C0,6.40625 4.90625,13.4063 18.7031,13.4063 C32.5,13.4063 37.2969,6.40625 37.2969,-0.09375 C37.2969,-6.59375 32.5,-13.5938 18.7031,-13.5938 M19.5,10.2031 C16.7031,10.2031 14.7969,9.40625 13.5,6.90625 C12.2031,4.40625 10.4063,-2.09375 10.2969,-4.70313 C10.0938,-7.40625 11.0938,-9 13.5,-9.79688 C14.7031,-10.2031 16.2969,-10.4063 17.9063,-10.4063 C20.5938,-10.4063 22.4063,-9.79688 23.7969,-7.09375 C25.2031,-4.5 27.1094,2 27.1094,4.5 C27.1094,9.40625 23.5,10.2031 19.5,10.2031"/>
<path class="Note" transform="matrix(0.992001,0,0,0.992001,1914.25,460.599)" d="M18.7031,-13.5938 C4.90625,-13.5938 0,-6.59375 0,-0.09375 C0,6.40625 4.90625,13.4063 18.7031,13.4063 C32.5,13.4063 37.2969,6.40625 37.2969,-0.09375 C37.2969,-6.59375 32.5,-13.5938 18.7031,-13.5938 M19.5,10.2031 C16.7031,10.2031 14.7969,9.40625 13.5,6.90625 C12.2031,4.40625 10.4063,-2.09375 10.2969,-4.70313 C10.0938,-7.40625 11.0938,-9 13.5,-9.79688 C14.7031,-10.2031 16.2969,-10.4063 17.9063,-10.4063 C20.5938,-10.4063 22.4063,-9.79688 23.7969,-7.09375 C25.2031,-4.5 27.1094,2 27.1094,4.5 C27.1094,9.40625 23.5,10.2031 19.5,10.2031"/>
<path class="Note" transform="matrix(0.992001,0,0,0.992001,1140.15,497.799)" d="M18.7031,-13.5938 C4.90625,-13.5938 0,-6.59375 0,-0.09375 C0,6.40625 4.90625,13.4063 18.7031,13.4063 C32.5,13.4063 37.2969,6.40625 37.2969,-0.09375 C37.2969,-6.59375 32.5,-13.5938 18.7031,-13.5938 M19.5,10.2031 C16.7031,10.2031 14.7969,9.40625 13.5,6.90625 C12.2031,4.40625 10.4063,-2.09375 10.2969,-4.70313 C10.0938,-7.40625 11.0938,-9 13.5,-9.79688 C14.7031,-10.2031 16.2969,-10.4063 17.9063,-10.4063 C20.5938,-10.4063 22.4063,-9.79688 23.7969,-7.09375 C25.2031,-4.5 27.1094,2 27.1094,4.5 C27.1094,9.40625 23.5,10.2031 19.5,10.2031"/>
<path class="Note" transform="matrix(0.992001,0,0,0.992001,1140.15,472.999)" d="M18.7031,-13.5938 C4.90625,-13.5938 0,-6.59375 0,-0.09375 C0,6.40625 4.90625,13.4063 18.7031,13.4063 C32.5,13.4063 37.2969,6.40625 37.2969,-0.09375 C37.2969,-6.59375 32.5,-13.5938 18.7031,-13.5938 M19.5,10.2031 C16.7031,10.2031 14.7969,9.40625 13.5,6.90625 C12.2031,4.40625 10.4063,-2.09375 10.2969,-4.70313 C10.0938,-7.40625 11.0938,-9 13.5,-9.79688 C14.7031,-10.2031 16.2969,-10.4063 17.9063,-10.4063 C20.5938,-10.4063 22.4063,-9.79688 23.7969,-7.09375 C25.2031,-4.5 27.1094,2 27.1094,4.5 C27.1094,9.40625 23.5,10.2031 19.5,10.2031"/>
<path class="Note" transform="matrix(0.992001,0,0,0.992001,1149.57,836.601)" d="M18.7031,-13.5938 C4.90625,-13.5938 0,-6.59375 0,-0.09375 C0,6.40625 4.90625,13.4063 18.7031,13.4063 C32.5,13.4063 37.2969,6.40625 37.2969,-0.09375 C37.2969,-6.59375 32.5,-13.5938 18.7031,-13.5938 M19.5,10.2031 C16.7031,10.2031 14.7969,9.40625 13.5,6.90625 C12.2031,4.40625 10.4063,-2.09375 10.2969,-4.70313 C10.0938,-7.40625 11.0938,-9 13.5,-9.79688 C14.7031,-10.2031 16.2969,-10.4063 17.9063,-10.4063 C20.5938,-10.4063 22.4063,-9.79688 23.7969,-7.09375 C25.2031,-4.5 27.1094,2 27.1094,4.5 C27.1094,9.40625 23.5,10.2031 19.5,10.2031"/>
<path class="Note" transform="matrix(0.992001,0,0,0.992001,1644.29,472.999)" d="M18.7031,-13.5938 C4.90625,-13.5938 0,-6.59375 0,-0.09375 C0,6.40625 4.90625,13.4063 18.7031,13.4063 C32.5,13.4063 37.2969,6.40625 37.2969,-0.09375 C37.2969,-6.59375 32.5,-13.5938 18.7031,-13.5938 M19.5,10.2031 C16.7031,10.2031 14.7969,9.40625 13.5,6.90625 C12.2031,4.40625 10.4063,-2.09375 10.2969,-4.70313 C10.0938,-7.40625 11.0938,-9 13.5,-9.79688 C14.7031,-10.2031 16.2969,-10.4063 17.9063,-10.4063 C20.5938,-10.4063 22.4063,-9.79688 23.7969,-7.09375 C25.2031,-4.5 27.1094,2 27.1094,4.5 C27.1094,9.40625 23.5,10.2031 19.5,10.2031"/>
<path class="Note" transform="matrix(0.992001,0,0,0.992001,632.116,911.001)" d="M18.7031,-13.5938 C4.90625,-13.5938 0,-6.59375 0,-0.09375 C0,6.40625 4.90625,13.4063 18.7031,13.4063 C32.5,13.4063 37.2969,6.40625 37.2969,-0.09375 C37.2969,-6.59375 32.5,-13.5938 18.7031,-13.5938 M19.5,10.2031 C16.7031,10.2031 14.7969,9.40625 13.5,6.90625 C12.2031,4.40625 10.4063,-2.09375 10.2969,-4.70313 C10.0938,-7.40625 11.0938,-9 13.5,-9.79688 C14.7031,-10.2031 16.2969,-10.4063 17.9063,-10.4063 C20.5938,-10.4063 22.4063,-9.79688 23.7969,-7.09375 C25.2031,-4.5 27.1094,2 27.1094,4.5 C27.1094,9.40625 23.5,10.2031 19.5,10.2031"/>
<path class="Note" transform="matrix(0.992001,0,0,0.992001,632.116,886.201)" d="M18.7031,-13.5938 C4.90625,-13.5938 0,-6.59375 0,-0.09375 C0,6.40625 4.90625,13.4063 18.7031,13.4063 C32.5,13.4063 37.2969,6.40625 37.2969,-0.09375 C37.2969,-6.59375 32.5,-13.5938 18.7031,-13.5938 M19.5,10.2031 C16.7031,10.2031 14.7969,9.40625 13.5,6.90625 C12.2031,4.40625 10.4063,-2.09375 10.2969,-4.70313 C10.0938,-7.40625 11.0938,-9 13.5,-9.79688 C14.7031,-10.2031 16.2969,-10.4063 17.9063,-10.4063 C20.5938,-10.4063 22.4063,-9.79688 23.7969,-7.09375 C25.2031,-4.5 27.1094,2 27.1094,4.5 C27.1094,9.40625 23.5,10.2031 19.5,10.2031"/>
<path class="Note" transform="matrix(0.992001,0,0,0.992001,632.116,861.401)" d="M18.7031,-13.5938 C4.90625,-13.5938 0,-6.59375 0,-0.09375 C0,6.40625 4.90625,13.4063 18.7031,13.4063 C32.5,13.4063 37.2969,6.40625 37.2969,-0.09375 C37.2969,-6.59375 32.5,-13.5938 18.7031,-13.5938 M19.5,10.2031 C16.7031,10.2031 14.7969,9.40625 13.5,6.90625 C12.2031,4.40625 10.4063,-2.09375 10.2969,-4.70313 C10.0938,-7.40625 11.0938,-9 13.5,-9.79688 C14.7031,-10.2031 16.2969,-10.4063 17.9063,-10.4063 C20.5938,-10.4063 22.4063,-9.79688 23.7969,-7.09375 C25.2031,-4.5 27.1094,2 27.1094,4.5 C27.1094,9.40625 23.5,10.2031 19.5,10.2031"/>
<path class="Note" transform="matrix(0.992001,0,0,0.992001,1644.29,423.399)" d="M18.7031,-13.5938 C4.90625,-13.5938 0,-6.59375 0,-0.09375 C0,6.40625 4.90625,13.4063 18.7031,13.4063 C32.5,13.4063 37.2969,6.40625 37.2969,-0.09375 C37.2969,-6.59375 32.5,-13.5938 18.7031,-13.5938 M19.5,10.2031 C16.7031,10.2031 14.7969,9.40625 13.5,6.90625 C12.2031,4.40625 10.4063,-2.09375 10.2969,-4.70313 C10.0938,-7.40625 11.0938,-9 13.5,-9.79688 C14.7031,-10.2031 16.2969,-10.4063 17.9063,-10.4063 C20.5938,-10.4063 22.4063,-9.79688 23.7969,-7.09375 C25.2031,-4.5 27.1094,2 27.1094,4.5 C27.1094,9.40625 23.5,10.2031 19.5,10.2031"/>
<path class="Note" transform="matrix(0.992001,0,0,0.992001,1140.15,448.199)" d="M18.7031,-13.5938 C4.90625,-13.5938 0,-6.59375 0,-0.09375 C0,6.40625 4.90625,13.4063 18.7031,13.4063 C32.5,13.4063 37.2969,6.40625 37.2969,-0.09375 C37.2969,-6.59375 32.5,-13.5938 18.7031,-13.5938 M19.5,10.2031 C16.7031,10.2031 14.7969,9.40625 13.5,6.90625 C12.2031,4.40625 10.4063,-2.09375 10.2969,-4.70313 C10.0938,-7.40625 11.0938,-9 13.5,-9.79688 C14.7031,-10.2031 16.2969,-10.4063 17.9063,-10.4063 C20.5938,-10.4063 22.4063,-9.79688 23.7969,-7.09375 C25.2031,-4.5 27.1094,2 27.1094,4.5 C27.1094,9.40625 23.5,10.2031 19.5,10.2031"/>
<path class="Note" transform="matrix(0.992001,0,0,0.992001,1644.29,448.199)" d="M18.7031,-13.5938 C4.90625,-13.5938 0,-6.59375 0,-0.09375 C0,6.40625 4.90625,13.4063 18.7031,13.4063 C32.5,13.4063 37.2969,6.40625 37.2969,-0.09375 C37.2969,-6.59375 32.5,-13.5938 18.7031,-13.5938 M19.5,10.2031 C16.7031,10.2031 14.7969,9.40625 13.5,6.90625 C12.2031,4.40625 10.4063,-2.09375 10.2969,-4.70313 C10.0938,-7.40625 11.0938,-9 13.5,-9.79688 C14.7031,-10.2031 16.2969,-10.4063 17.9063,-10.4063 C20.5938,-10.4063 22.4063,-9.79688 23.7969,-7.09375 C25.2031,-4.5 27.1094,2 27.1094,4.5 C27.1094,9.40625 23.5,10.2031 19.5,10.2031"/>
<path class="Note" transform="matrix(0.992001,0,0,0.992001,1149.57,861.401)" d="M18.7031,-13.5938 C4.90625,-13.5938 0,-6.59375 0,-0.09375 C0,6.40625 4.90625,13.4063 18.7031,13.4063 C32.5,13.4063 37.2969,6.40625 37.2969,-0.09375 C37.2969,-6.59375 32.5,-13.5938 18.7031,-13.5938 M19.5,10.2031 C16.7031,10.2031 14.7969,9.40625 13.5,6.90625 C12.2031,4.40625 10.4063,-2.09375 10.2969,-4.70313 C10.0938,-7.40625 11.0938,-9 13.5,-9.79688 C14.7031,-10.2031 16.2969,-10.4063 17.9063,-10.4063 C20.5938,-10.4063 22.4063,-9.79688 23.7969,-7.09375 C25.2031,-4.5 27.1094,2 27.1094,4.5 C27.1094,9.40625 23.5,10.2031 19.5,10.2031"/>
<path class="Note" transform="matrix(0.992001,0,0,0.992001,1377.4,485.399)" d="M18.7031,-13.5938 C4.90625,-13.5938 0,-6.59375 0,-0.09375 C0,6.40625 4.90625,13.4063 18.7031,13.4063 C32.5,13.4063 37.2969,6.40625 37.2969,-0.09375 C37.2969,-6.59375 32.5,-13.5938 18.7031,-13.5938 M19.5,10.2031 C16.7031,10.2031 14.7969,9.40625 13.5,6.90625 C12.2031,4.40625 10.4063,-2.09375 10.2969,-4.70313 C10.0938,-7.40625 11.0938,-9 13.5,-9.79688 C14.7031,-10.2031 16.2969,-10.4063 17.9063,-10.4063 C20.5938,-10.4063 22.4063,-9.79688 23.7969,-7.09375 C25.2031,-4.5 27.1094,2 27.1094,4.5 C27.1094,9.40625 23.5,10.2031 19.5,10.2031"/>
<path class="Note" transform="matrix(0.992001,0,0,0.992001,878.048,898.601)" d="M18.7031,-13.5938 C4.90625,-13.5938 0,-6.59375 0,-0.09375 C0,6.40625 4.90625,13.4063 18.7031,13.4063 C32.5,13.4063 37.2969,6.40625 37.2969,-0.09375 C37.2969,-6.59375 32.5,-13.5938 18.7031,-13.5938 M19.5,10.2031 C16.7031,10.2031 14.7969,9.40625 13.5,6.90625 C12.2031,4.40625 10.4063,-2.09375 10.2969,-4.70313 C10.0938,-7.40625 11.0938,-9 13.5,-9.79688 C14.7031,-10.2031 16.2969,-10.4063 17.9063,-10.4063 C20.5938,-10.4063 22.4063,-9.79688 23.7969,-7.09375 C25.2031,-4.5 27.1094,2 27.1094,4.5 C27.1094,9.40625 23.5,10.2031 19.5,10.2031"/>
<path class="Note" transform="matrix(0.992001,0,0,0.992001,878.048,873.801)" d="M18.7031,-13.5938 C4.90625,-13.5938 0,-6.59375 0,-0.09375 C0,6.40625 4.90625,13.4063 18.7031,13.4063 C32.5,13.4063 37.2969,6.40625 37.2969,-0.09375 C37.2969,-6.59375 32.5,-13.5938 18.7031,-13.5938 M19.5,10.2031 C16.7031,10.2031 14.7969,9.40625 13.5,6.90625 C12.2031,4.40625 10.4063,-2.09375 10.2969,-4.70313 C10.0938,-7.40625 11.0938,-9 13.5,-9.79688 C14.7031,-10.2031 16.2969,-10.4063 17.9063,-10.4063 C20.5938,-10.4063 22.4063,-9.79688 23.7969,-7.09375 C25.2031,-4.5 27.1094,2 27.1094,4.5 C27.1094,9.40625 23.5,10.2031 19.5,10.2031"/>
<path class="Note" transform="matrix(0.992001,0,0,0.992001,878.048,849.001)" d="M18.7031,-13.5938 C4.90625,-13.5938 0,-6.59375 0,-0.09375 C0,6.40625 4.90625,13.4063 18.7031,13.4063 C32.5,13.4063 37.2969,6.40625 37.2969,-0.09375 C37.2969,-6.59375 32.5,-13.5938 18.7031,-13.5938 M19.5,10.2031 C16.7031,10.2031 14.7969,9.40625 13.5,6.90625 C12.2031,4.40625 10.4063,-2.09375 10.2969,-4.70313 C10.0938,-7.40625 11.0938,-9 13.5,-9.79688 C14.7031,-10.2031 16.2969,-10.4063 17.9063,-10.4063 C20.5938,-10.4063 22.4063,-9.79688 23.7969,-7.09375 C25.2031,-4.5 27.1094,2 27.1094,4.5 C27.1094,9.40625 23.5,10.2031 19.5,10.2031"/>
<path class="Note" transform="matrix(0.992001,0,0,0.992001,1377.4,435.799)" d="M18.7031,-13.5938 C4.90625,-13.5938 0,-6.59375 0,-0.09375 C0,6.40625 4.90625,13.4063 18.7031,13.4063 C32.5,13.4063 37.2969,6.40625 37.2969,-0.09375 C37.2969,-6.59375 32.5,-13.5938 18.7031,-13.5938 M19.5,10.2031 C16.7031,10.2031 14.7969,9.40625 13.5,6.90625 C12.2031,4.40625 10.4063,-2.09375 10.2969,-4.70313 C10.0938,-7.40625 11.0938,-9 13.5,-9.79688 C14.7031,-10.2031 16.2969,-10.4063 17.9063,-10.4063 C20.5938,-10.4063 22.4063,-9.79688 23.7969,-7.09375 C25.2031,-4.5 27.1094,2 27.1094,4.5 C27.1094,9.40625 23.5,10.2031 19.5,10.2031"/>
<path class="Note" transform="matrix(0.992001,0,0,0.992001,1149.57,886.201)" d="M18.7031,-13.5938 C4.90625,-13.5938 0,-6.59375 0,-0.09375 C0,6.40625 4.90625,13.4063 18.7031,13.4063 C32.5,13.4063 37.2969,6.40625 37.2969,-0.09375 C37.2969,-6.59375 32.5,-13.5938 18.7031,-13.5938 M19.5,10.2031 C16.7031,10.2031 14.7969,9.40625 13.5,6.90625 C12.2031,4.40625 10.4063,-2.09375 10.2969,-4.70313 C10.0938,-7.40625 11.0938,-9 13.5,-9.79688 C14.7031,-10.2031 16.2969,-10.4063 17.9063,-10.4063 C20.5938,-10.4063 22.4063,-9.79688 23.7969,-7.09375 C25.2031,-4.5 27.1094,2 27.1094,4.5 C27.1094,9.40625 23.5,10.2031 19.5,10.2031"/>
<path class="Note" transform="matrix(0.992001,0,0,0.992001,1421.09,824.201)" d="M18.7031,-13.5938 C4.90625,-13.5938 0,-6.59375 0,-0.09375 C0,6.40625 4.90625,13.4063 18.7031,13.4063 C32.5,13.4063 37.2969,6.40625 37.2969,-0.09375 C37.2969,-6.59375 32.5,-13.5938 18.7031,-13.5938 M19.5,10.2031 C16.7031,10.2031 14.7969,9.40625 13.5,6.90625 C12.2031,4.40625 10.4063,-2.09375 10.2969,-4.70313 C10.0938,-7.40625 11.0938,-9 13.5,-9.79688 C14.7031,-10.2031 16.2969,-10.4063 17.9063,-10.4063 C20.5938,-10.4063 22.4063,-9.79688 23.7969,-7.09375 C25.2031,-4.5 27.1094,2 27.1094,4.5 C27.1094,9.40625 23.5,10.2031 19.5,10.2031"/>
<path class="Note" transform="matrix(0.992001,0,0,0.992001,902.908,460.599)" d="M18.7031,-13.5938 C4.90625,-13.5938 0,-6.59375 0,-0.09375 C0,6.40625 4.90625,13.4063 18.7031,13.4063 C32.5,13.4063 37.2969,6.40625 37.2969,-0.09375 C37.2969,-6.59375 32.5,-13.5938 18.7031,-13.5938 M19.5,10.2031 C16.7031,10.2031 14.7969,9.40625 13.5,6.90625 C12.2031,4.40625 10.4063,-2.09375 10.2969,-4.70313 C10.0938,-7.40625 11.0938,-9 13.5,-9.79688 C14.7031,-10.2031 16.2969,-10.4063 17.9063,-10.4063 C20.5938,-10.4063 22.4063,-9.79688 23.7969,-7.09375 C25.2031,-4.5 27.1094,2 27.1094,4.5 C27.1094,9.40625 23.5,10.2031 19.5,10.2031"/>
<path class="Note" transform="matrix(0.992001,0,0,0.992001,902.908,485.399)" d="M18.7031,-13.5938 C4.90625,-13.5938 0,-6.59375 0,-0.09375 C0,6.40625 4.90625,13.4063 18.7031,13.4063 C32.5,13.4063 37.2969,6.40625 37.2969,-0.09375 C37.2969,-6.59375 32.5,-13.5938 18.7031,-13.5938 M19.5,10.2031 C16.7031,10.2031 14.7969,9.40625 13.5,6.90625 C12.2031,4.40625 10.4063,-2.09375 10.2969,-4.70313 C10.0938,-7.40625 11.0938,-9 13.5,-9.79688 C14.7031,-10.2031 16.2969,-10.4063 17.9063,-10.4063 C20.5938,-10.4063 22.4063,-9.79688 23.7969,-7.09375 C25.2031,-4.5 27.1094,2 27.1094,4.5 C27.1094,9.40625 23.5,10.2031 19.5,10.2031"/>
<path class="Note" transform="matrix(0.992001,0,0,0.992001,1667.03,861.401)" d="M18.7031,-13.5938 C4.90625,-13.5938 0,-6.59375 0,-0.09375 C0,6.40625 4.90625,13.4063 18.7031,13.4063 C32.5,13.4063 37.2969,6.40625 37.2969,-0.09375 C37.2969,-6.59375 32.5,-13.5938 18.7031,-13.5938 M19.5,10.2031 C16.7031,10.2031 14.7969,9.40625 13.5,6.90625 C12.2031,4.40625 10.4063,-2.09375 10.2969,-4.70313 C10.0938,-7.40625 11.0938,-9 13.5,-9.79688 C14.7031,-10.2031 16.2969,-10.4063 17.9063,-10.4063 C20.5938,-10.4063 22.4063,-9.79688 23.7969,-7.09375 C25.2031,-4.5 27.1094,2 27.1094,4.5 C27.1094,9.40625 23.5,10.2031 19.5,10.2031"/>
<path class="Note" transform="matrix(0.992001,0,0,0.992001,1667.03,836.601)" d="M18.7031,-13.5938 C4.90625,-13.5938 0,-6.59375 0,-0.09375 C0,6.40625 4.90625,13.4063 18.7031,13.4063 C32.5,13.4063 37.2969,6.40625 37.2969,-0.09375 C37.2969,-6.59375 32.5,-13.5938 18.7031,-13.5938 M19.5,10.2031 C16.7031,10.2031 14.7969,9.40625 13.5,6.90625 C12.2031,4.40625 10.4063,-2.09375 10.2969,-4.70313 C10.0938,-7.40625 11.0938,-9 13.5,-9.79688 C14.7031,-10.2031 16.2969,-10.4063 17.9063,-10.4063 C20.5938,-10.4063 22.4063,-9.79688 23.7969,-7.09375 C25.2031,-4.5 27.1094,2 27.1094,4.5 C27.1094,9.40625 23.5,10.2031 19.5,10.2031"/>
<path class="Note" transform="matrix(0.992001,0,0,0.992001,1667.03,811.801)" d="M18.7031,-13.5938 C4.90625,-13.5938 0,-6.59375 0,-0.09375 C0,6.40625 4.90625,13.4063 18.7031,13.4063 C32.5,13.4063 37.2969,6.40625 37.2969,-0.09375 C37.2969,-6.59375 32.5,-13.5938 18.7031,-13.5938 M19.5,10.2031 C16.7031,10.2031 14.7969,9.40625 13.5,6.90625 C12.2031,4.40625 10.4063,-2.09375 10.2969,-4.70313 C10.0938,-7.40625 11.0938,-9 13.5,-9.79688 C14.7031,-10.2031 16.2969,-10.4063 17.9063,-10.4063 C20.5938,-10.4063 22.4063,-9.79688 23.7969,-7.09375 C25.2031,-4.5 27.1094,2 27.1094,4.5 C27.1094,9.40625 23.5,10.2031 19.5,10.2031"/>
<path class="Note" transform="matrix(0.992001,0,0,0.992001,902.908,510.199)" d="M18.7031,-13.5938 C4.90625,-13.5938 0,-6.59375 0,-0.09375 C0,6.40625 4.90625,13.4063 18.7031,13.4063 C32.5,13.4063 37.2969,6.40625 37.2969,-0.09375 C37.2969,-6.59375 32.5,-13.5938 18.7031,-13.5938 M19.5,10.2031 C16.7031,10.2031 14.7969,9.40625 13.5,6.90625 C12.2031,4.40625 10.4063,-2.09375 10.2969,-4.70313 C10.0938,-7.40625 11.0938,-9 13.5,-9.79688 C14.7031,-10.2031 16.2969,-10.4063 17.9063,-10.4063 C20.5938,-10.4063 22.4063,-9.79688 23.7969,-7.09375 C25.2031,-4.5 27.1094,2 27.1094,4.5 C27.1094,9.40625 23.5,10.2031 19.5,10.2031"/>
<path class="Note" transform="matrix(0.992001,0,0,0.992001,636.013,472.999)" d="M18.7031,-13.5938 C4.90625,-13.5938 0,-6.59375 0,-0.09375 C0,6.40625 4.90625,13.4063 18.7031,13.4063 C32.5,13.4063 37.2969,6.40625 37.2969,-0.09375 C37.2969,-6.59375 32.5,-13.5938 18.7031,-13.5938 M19.5,10.2031 C16.7031,10.2031 14.7969,9.40625 13.5,6.90625 C12.2031,4.40625 10.4063,-2.09375 10.2969,-4.70313 C10.0938,-7.40625 11.0938,-9 13.5,-9.79688 C14.7031,-10.2031 16.2969,-10.4063 17.9063,-10.4063 C20.5938,-10.4063 22.4063,-9.79688 23.7969,-7.09375 C25.2031,-4.5 27.1094,2 27.1094,4.5 C27.1094,9.40625 23.5,10.2031 19.5,10.2031"/>
<path class="Note" transform="matrix(0.992001,0,0,0.992001,1901.5,849.001)" d="M18.7031,-13.5938 C4.90625,-13.5938 0,-6.59375 0,-0.09375 C0,6.40625 4.90625,13.4063 18.7031,13.4063 C32.5,13.4063 37.2969,6.40625 37.2969,-0.09375 C37.2969,-6.59375 32.5,-13.5938 18.7031,-13.5938 M19.5,10.2031 C16.7031,10.2031 14.7969,9.40625 13.5,6.90625 C12.2031,4.40625 10.4063,-2.09375 10.2969,-4.70313 C10.0938,-7.40625 11.0938,-9 13.5,-9.79688 C14.7031,-10.2031 16.2969,-10.4063 17.9063,-10.4063 C20.5938,-10.4063 22.4063,-9.79688 23.7969,-7.09375 C25.2031,-4.5 27.1094,2 27.1094,4.5 C27.1094,9.40625 23.5,10.2031 19.5,10.2031"/>
<path class="Note" transform="matrix(0.992001,0,0,0.992001,1901.5,824.201)" d="M18.7031,-13.5938 C4.90625,-13.5938 0,-6.59375 0,-0.09375 C0,6.40625 4.90625,13.4063 18.7031,13.4063 C32.5,13.4063 37.2969,6.40625 37.2969,-0.09375 C37.2969,-6.59375 32.5,-13.5938 18.7031,-13.5938 M19.5,10.2031 C16.7031,10.2031 14.7969,9.40625 13.5,6.90625 C12.2031,4.40625 10.4063,-2.09375 10.2969,-4.70313 C10.0938,-7.40625 11.0938,-9 13.5,-9.79688 C14.7031,-10.2031 16.2969,-10.4063 17.9063,-10.4063 C20.5938,-10.4063 22.4063,-9.79688 23.7969,-7.09375 C25.2031,-4.5 27.1094,2 27.1094,4.5 C27.1094,9.40625 23.5,10.2031 19.5,10.2031"/>
<path class="Note" transform="matrix(0.992001,0,0,0.992001,1901.5,799.401)" d="M18.7031,-13.5938 C4.90625,-13.5938 0,-6.59375 0,-0.09375 C0,6.40625 4.90625,13.4063 18.7031,13.4063 C32.5,13.4063 37.2969,6.40625 37.2969,-0.09375 C37.2969,-6.59375 32.5,-13.5938 18.7031,-13.5938 M19.5,10.2031 C16.7031,10.2031 14.7969,9.40625 13.5,6.90625 C12.2031,4.40625 10.4063,-2.09375 10.2969,-4.70313 C10.0938,-7.40625 11.0938,-9 13.5,-9.79688 C14.7031,-10.2031 16.2969,-10.4063 17.9063,-10.4063 C20.5938,-10.4063 22.4063,-9.79688 23.7969,-7.09375 C25.2031,-4.5 27.1094,2 27.1094,4.5 C27.1094,9.40625 23.5,10.2031 19.5,10.2031"/>
<path class="Note" transform="matrix(0.992001,0,0,0.992001,636.013,522.599)" d="M18.7031,-13.5938 C4.90625,-13.5938 0,-6.59375 0,-0.09375 C0,6.40625 4.90625,13.4063 18.7031,13.4063 C32.5,13.4063 37.2969,6.40625 37.2969,-0.09375 C37.2969,-6.59375 32.5,-13.5938 18.7031,-13.5938 M19.5,10.2031 C16.7031,10.2031 14.7969,9.40625 13.5,6.90625 C12.2031,4.40625 10.4063,-2.09375 10.2969,-4.70313 C10.0938,-7.40625 11.0938,-9 13.5,-9.79688 C14.7031,-10.2031 16.2969,-10.4063 17.9063,-10.4063 C20.5938,-10.4063 22.4063,-9.79688 23.7969,-7.09375 C25.2031,-4.5 27.1094,2 27.1094,4.5 C27.1094,9.40625 23.5,10.2031 19.5,10.2031"/>
<path class="Clef" transform="matrix(0.992001,0,0,0.992001,231.198,410.999)" d="M25.4063,-25.0938 C17.7969,-25.0938 11.7031,-20.7031 11.5938,-20.7031 C5.70313,-16.4063 1.90625,-9.79688 1.90625,-2.5 C1.90625,4.79688 6.09375,10.2031 13.5,10.2031 C19.9063,10.2031 24.9063,5.90625 24.9063,-0.703125 C24.9063,-6.40625 19.9063,-11.0938 14.2969,-11.0938 C13.0938,-11.0938 12,-10.9063 11.0938,-10.5938 C10.0938,-10.2031 8.40625,-9.20313 7.59375,-8.5 C8.29688,-12.9063 11.2969,-17.2969 15.2031,-19.4063 C17.7031,-20.7969 20.9063,-21.4063 24.4063,-21.4063 C34.6094,-21.4063 39.6094,-13.2031 39.6094,3.59375 C39.6094,16.5938 31.2969,35.2969 21.5,44.1094 C11.0938,53.6094 1.29688,58.1094 1.20313,58.1094 C1.20313,58.1094 0,58.7969 0,60 C0,60.2031 0.09375,60.2969 0.09375,60.5 C0.40625,61.5 1.29688,61.7031 2,61.7031 L2.29688,61.6094 C2.5,61.6094 13.9063,56.9063 23,49.7969 C37,39.7031 52.7969,21.9063 52.7969,3.5 C52.7969,-13.9063 43.4063,-25.0938 25.4063,-25.0938 M56.7969,-12.4063 C56.7969,-9.59375 59,-7.40625 61.6094,-7.40625 C64.2031,-7.40625 66.4063,-9.59375 66.4063,-12.4063 C66.4063,-15.2031 64.2031,-17.5 61.6094,-17.5 C59,-17.5 56.7969,-15.2031 56.7969,-12.4063 M56.7969,12.2969 C56.7969,15.0938 59,17.4063 61.6094,17.4063 C64.2031,17.4063 66.4063,15.0938 66.4063,12.2969 C66.4063,9.5 64.2031,7.20313 61.6094,7.20313 C59,7.20313 56.7969,9.5 56.7969,12.2969"/>
<path class="Clef" transform="matrix(0.992001,0,0,0.992001,231.198,799.401)" d="M25.4063,-25.0938 C17.7969,-25.0938 11.7031,-20.7031 11.5938,-20.7031 C5.70313,-16.4063 1.90625,-9.79688 1.90625,-2.5 C1.90625,4.79688 6.09375,10.2031 13.5,10.2031 C19.9063,10.2031 24.9063,5.90625 24.9063,-0.703125 C24.9063,-6.40625 19.9063,-11.0938 14.2969,-11.0938 C13.0938,-11.0938 12,-10.9063 11.0938,-10.5938 C10.0938,-10.2031 8.40625,-9.20313 7.59375,-8.5 C8.29688,-12.9063 11.2969,-17.2969 15.2031,-19.4063 C17.7031,-20.7969 20.9063,-21.4063 24.4063,-21.4063 C34.6094,-21.4063 39.6094,-13.2031 39.6094,3.59375 C39.6094,16.5938 31.2969,35.2969 21.5,44.1094 C11.0938,53.6094 1.29688,58.1094 1.20313,58.1094 C1.20313,58.1094 0,58.7969 0,60 C0,60.2031 0.09375,60.2969 0.09375,60.5 C0.40625,61.5 1.29688,61.7031 2,61.7031 L2.29688,61.6094 C2.5,61.6094 13.9063,56.9063 23,49.7969 C37,39.7031 52.7969,21.9063 52.7969,3.5 C52.7969,-13.9063 43.4063,-25.0938 25.4063,-25.0938 M56.7969,-12.4063 C56.7969,-9.59375 59,-7.40625 61.6094,-7.40625 C64.2031,-7.40625 66.4063,-9.59375 66.4063,-12.4063 C66.4063,-15.2031 64.2031,-17.5 61.6094,-17.5 C59,-17.5 56.7969,-15.2031 56.7969,-12.4063 M56.7969,12.2969 C56.7969,15.0938 59,17.4063 61.6094,17.4063 C64.2031,17.4063 66.4063,15.0938 66.4063,12.2969 C66.4063,9.5 64.2031,7.20313 61.6094,7.20313 C59,7.20313 56.7969,9.5 56.7969,12.2969"/>
<path class="Harmony" d="M1172.74,288.089 L1142.99,288.089 L1142.99,290.449 L1143.88,290.449 C1146.74,290.495 1147.69,290.652 1148.09,291.152 C1148.38,291.589 1148.38,291.699 1148.38,294.245 L1148.38,318.042 C1148.38,320.605 1148.38,320.699 1148.09,321.152 C1147.69,321.652 1146.74,321.855 1143.88,321.855 L1142.99,321.855 L1142.99,324.199 L1160.13,324.199 L1160.13,321.855 L1158.49,321.855 C1155.63,321.855 1154.69,321.652 1154.29,321.152 C1153.99,320.699 1153.99,320.542 1153.99,318.042 L1153.99,306.699 L1154.99,306.699 C1160.13,306.495 1161.99,308.355 1162.19,313.902 L1164.54,313.902 L1164.54,297.495 L1162.19,297.495 C1161.88,302.402 1159.94,304.292 1155.19,304.355 L1153.99,304.355 L1153.99,292.949 C1153.94,290.839 1154.44,290.495 1157.13,290.449 L1159.44,290.449 C1167.65,290.402 1169.69,292.245 1171.24,300.855 L1173.44,300.855 L1172.74,288.089 "/>
<path class="Harmony" d="M1190.15,309.542 L1179.54,309.542 L1179.54,313.542 L1190.15,313.542 L1190.15,324.199 L1194.15,324.199 L1194.15,313.542 L1204.74,313.542 L1204.74,309.542 L1194.15,309.542 L1194.15,298.949 L1190.15,298.949 L1190.15,309.542 "/>
<path class="Harmony" d="M910.935,676.492 L880.888,676.492 L880.888,678.851 L881.779,678.851 C884.638,678.898 885.591,679.054 885.982,679.554 C886.279,679.992 886.279,680.101 886.279,682.648 L886.279,706.445 C886.279,709.007 886.279,709.101 885.982,709.554 C885.591,710.054 884.638,710.257 881.779,710.257 L880.888,710.257 L880.888,712.601 L911.591,712.601 L912.591,699.257 L910.388,699.257 C908.482,708.148 906.435,710.054 898.779,710.257 L895.482,710.257 C892.482,710.148 891.732,709.648 891.888,707.851 L891.888,695.101 L892.888,695.101 C898.029,694.898 899.888,696.757 900.091,702.304 L902.435,702.304 L902.435,685.898 L900.091,685.898 C899.779,690.804 897.841,692.757 893.091,692.757 L891.888,692.757 L891.888,681.351 C891.841,679.242 892.341,678.898 895.029,678.851 L897.638,678.851 C905.841,678.804 907.888,680.601 909.482,689.257 L911.638,689.257 L910.935,676.492 "/>
<path class="Harmony" d="M930.482,688.554 C924.341,688.554 919.591,694.007 919.591,701.007 C919.591,707.851 924.388,713.351 930.388,713.351 C936.388,713.351 941.185,707.851 941.185,700.945 C941.185,694.101 936.388,688.554 930.482,688.554 M930.482,690.695 C933.982,690.695 935.935,694.351 935.935,700.945 C935.935,707.601 933.982,711.195 930.388,711.195 C926.794,711.195 924.841,707.601 924.841,701.007 C924.841,694.195 926.732,690.695 930.482,690.695"/>
<path class="Harmony" d="M1453.98,676.148 L1452.09,676.148 L1450.14,679.148 C1446.89,676.601 1444.68,675.742 1441.03,675.742 C1437.07,675.742 1433.98,676.851 1430.82,679.398 C1425.89,683.398 1423.57,688.445 1423.57,695.195 C1423.57,700.304 1425.03,704.554 1427.98,707.804 C1431.07,711.304 1435.68,713.351 1440.48,713.351 C1444.68,713.351 1447.64,712.054 1450.89,708.804 L1452.73,713.304 L1454.84,713.304 L1454.84,702.304 C1454.84,699.757 1454.84,699.648 1455.14,699.195 C1455.59,698.648 1456.48,698.507 1459.34,698.507 L1460.09,698.507 L1460.09,696.148 L1444.18,696.148 L1444.18,698.507 L1445.14,698.507 C1449.34,698.507 1449.68,698.757 1449.68,701.554 C1449.68,703.695 1449.34,705.648 1448.68,706.851 C1447.43,709.304 1444.23,711.007 1440.98,711.007 C1437.73,711.007 1434.53,709.351 1432.82,706.851 C1430.98,704.054 1430.18,700.554 1430.18,695.195 C1430.18,684.054 1433.89,678.101 1440.82,678.101 C1446.53,678.101 1450.48,682.195 1452.53,690.195 L1454.68,690.195 L1453.98,676.148 "/>
<path class="Harmony" d="M1475.53,688.554 C1469.39,688.554 1464.64,694.007 1464.64,701.007 C1464.64,707.851 1469.43,713.351 1475.43,713.351 C1481.43,713.351 1486.23,707.851 1486.23,700.945 C1486.23,694.101 1481.43,688.554 1475.53,688.554 M1475.53,690.695 C1479.03,690.695 1480.98,694.351 1480.98,700.945 C1480.98,707.601 1479.03,711.195 1475.43,711.195 C1471.84,711.195 1469.89,707.601 1469.89,701.007 C1469.89,694.195 1471.78,690.695 1475.53,690.695"/>
<path class="Harmony" d="M1410.28,287.745 L1408.39,287.745 L1406.44,290.745 C1403.19,288.199 1400.99,287.339 1397.33,287.339 C1393.38,287.339 1390.28,288.449 1387.13,290.995 C1382.19,294.995 1379.88,300.042 1379.88,306.792 C1379.88,311.902 1381.33,316.152 1384.28,319.402 C1387.38,322.902 1391.99,324.949 1396.78,324.949 C1400.99,324.949 1403.94,323.652 1407.19,320.402 L1409.03,324.902 L1411.14,324.902 L1411.14,313.902 C1411.14,311.355 1411.14,311.245 1411.44,310.792 C1411.89,310.245 1412.78,310.105 1415.64,310.105 L1416.39,310.105 L1416.39,307.745 L1400.49,307.745 L1400.49,310.105 L1401.44,310.105 C1405.64,310.105 1405.99,310.355 1405.99,313.152 C1405.99,315.292 1405.64,317.245 1404.99,318.449 C1403.74,320.902 1400.53,322.605 1397.28,322.605 C1394.03,322.605 1390.83,320.949 1389.13,318.449 C1387.28,315.652 1386.49,312.152 1386.49,306.792 C1386.49,295.652 1390.19,289.699 1397.13,289.699 C1402.83,289.699 1406.78,293.792 1408.83,301.792 L1410.99,301.792 L1410.28,287.745 "/>
<path class="Harmony" d="M1432.39,309.542 L1421.78,309.542 L1421.78,313.542 L1432.39,313.542 L1432.39,324.199 L1436.39,324.199 L1436.39,313.542 L1446.99,313.542 L1446.99,309.542 L1436.39,309.542 L1436.39,298.949 L1432.39,298.949 L1432.39,309.542 "/>
<path class="Harmony" d="M634.956,712.601 L651.753,712.601 C656.206,712.601 659.612,711.898 662.253,710.398 C667.299,707.554 670.112,701.851 670.112,694.351 C670.112,687.445 667.612,682.054 663.003,679.054 C660.253,677.304 656.549,676.492 650.846,676.492 L634.956,676.492 L634.956,678.851 L635.909,678.851 C638.706,678.898 639.659,679.054 640.049,679.554 C640.346,679.992 640.346,680.101 640.346,682.648 L640.346,706.445 C640.346,709.007 640.346,709.101 640.049,709.554 C639.659,710.054 638.706,710.195 635.909,710.257 L634.956,710.257 L634.956,712.601 M648.799,710.257 C646.253,710.257 645.956,709.945 645.956,707.507 L645.956,681.648 C645.956,679.195 646.299,678.851 648.799,678.851 L651.409,678.851 C659.956,678.851 663.503,683.492 663.503,694.554 C663.503,705.757 660.299,710.257 652.206,710.257 L648.799,710.257 "/>
<path class="Harmony" d="M687.549,688.554 C681.409,688.554 676.659,694.007 676.659,701.007 C676.659,707.851 681.456,713.351 687.456,713.351 C693.456,713.351 698.253,707.851 698.253,700.945 C698.253,694.101 693.456,688.554 687.549,688.554 M687.549,690.695 C691.049,690.695 693.003,694.351 693.003,700.945 C693.003,707.601 691.049,711.195 687.456,711.195 C683.862,711.195 681.909,707.601 681.909,701.007 C681.909,694.195 683.799,690.695 687.549,690.695"/>
<path class="Harmony" d="M1666.58,287.402 L1664.47,287.402 L1652.97,316.542 C1651.63,320.449 1650.33,321.652 1647.47,321.855 L1647.27,321.855 L1647.27,324.199 L1660.52,324.199 L1660.52,321.855 L1659.52,321.855 C1656.83,321.855 1655.47,320.902 1655.47,318.995 C1655.47,318.355 1655.63,317.745 1655.93,316.902 L1657.58,312.495 L1670.83,312.495 L1673.54,319.199 C1673.83,319.995 1673.93,320.292 1673.93,320.542 C1673.93,321.355 1672.68,321.855 1670.83,321.855 L1668.72,321.855 L1668.72,324.199 L1684.22,324.199 L1684.22,321.855 L1683.54,321.855 C1680.93,321.792 1680.47,321.495 1679.33,318.652 L1666.58,287.402 M1664.13,295.589 L1669.77,309.792 L1658.58,309.792 L1664.13,295.589 "/>
<path class="Harmony" d="M1699.29,309.542 L1688.68,309.542 L1688.68,313.542 L1699.29,313.542 L1699.29,324.199 L1703.29,324.199 L1703.29,313.542 L1713.88,313.542 L1713.88,309.542 L1703.29,309.542 L1703.29,298.949 L1699.29,298.949 L1699.29,309.542 "/>
<path class="Harmony" d="M1182.16,676.492 L1152.41,676.492 L1152.41,678.851 L1153.3,678.851 C1156.16,678.898 1157.11,679.054 1157.5,679.554 C1157.8,679.992 1157.8,680.101 1157.8,682.648 L1157.8,706.445 C1157.8,709.007 1157.8,709.101 1157.5,709.554 C1157.11,710.054 1156.16,710.257 1153.3,710.257 L1152.41,710.257 L1152.41,712.601 L1169.55,712.601 L1169.55,710.257 L1167.91,710.257 C1165.05,710.257 1164.11,710.054 1163.71,709.554 C1163.41,709.101 1163.41,708.945 1163.41,706.445 L1163.41,695.101 L1164.41,695.101 C1169.55,694.898 1171.41,696.757 1171.61,702.304 L1173.96,702.304 L1173.96,685.898 L1171.61,685.898 C1171.3,690.804 1169.36,692.695 1164.61,692.757 L1163.41,692.757 L1163.41,681.351 C1163.36,679.242 1163.86,678.898 1166.55,678.851 L1168.86,678.851 C1177.07,678.804 1179.11,680.648 1180.66,689.257 L1182.86,689.257 L1182.16,676.492 "/>
<path class="Harmony" d="M1199,688.554 C1192.86,688.554 1188.11,694.007 1188.11,701.007 C1188.11,707.851 1192.91,713.351 1198.91,713.351 C1204.91,713.351 1209.71,707.851 1209.71,700.945 C1209.71,694.101 1204.91,688.554 1199,688.554 M1199,690.695 C1202.5,690.695 1204.46,694.351 1204.46,700.945 C1204.46,707.601 1202.5,711.195 1198.91,711.195 C1195.32,711.195 1193.36,707.601 1193.36,701.007 C1193.36,694.195 1195.25,690.695 1199,690.695"/>
<path class="Harmony" d="M1689.32,675.804 L1687.21,675.804 L1675.71,704.945 C1674.37,708.851 1673.07,710.054 1670.21,710.257 L1670.01,710.257 L1670.01,712.601 L1683.26,712.601 L1683.26,710.257 L1682.26,710.257 C1679.57,710.257 1678.21,709.304 1678.21,707.398 C1678.21,706.757 1678.37,706.148 1678.66,705.304 L1680.32,700.898 L1693.57,700.898 L1696.27,707.601 C1696.57,708.398 1696.66,708.695 1696.66,708.945 C1696.66,709.757 1695.41,710.257 1693.57,710.257 L1691.46,710.257 L1691.46,712.601 L1706.96,712.601 L1706.96,710.257 L1706.27,710.257 C1703.66,710.195 1703.21,709.898 1702.07,707.054 L1689.32,675.804 M1686.87,683.992 L1692.51,698.195 L1681.32,698.195 L1686.87,683.992 "/>
<path class="Harmony" d="M1721.46,688.554 C1715.32,688.554 1710.57,694.007 1710.57,701.007 C1710.57,707.851 1715.37,713.351 1721.37,713.351 C1727.37,713.351 1732.16,707.851 1732.16,700.945 C1732.16,694.101 1727.37,688.554 1721.46,688.554 M1721.46,690.695 C1724.96,690.695 1726.91,694.351 1726.91,700.945 C1726.91,707.601 1724.96,711.195 1721.37,711.195 C1717.77,711.195 1715.82,707.601 1715.82,701.007 C1715.82,694.195 1717.71,690.695 1721.46,690.695"/>
<path class="Harmony" d="M638.853,324.199 L655.65,324.199 C660.103,324.199 663.509,323.495 666.15,321.995 C671.197,319.152 674.009,313.449 674.009,305.949 C674.009,299.042 671.509,293.652 666.9,290.652 C664.15,288.902 660.447,288.089 654.743,288.089 L638.853,288.089 L638.853,290.449 L639.806,290.449 C642.603,290.495 643.556,290.652 643.947,291.152 C644.243,291.589 644.243,291.699 644.243,294.245 L644.243,318.042 C644.243,320.605 644.243,320.699 643.947,321.152 C643.556,321.652 642.603,321.792 639.806,321.855 L638.853,321.855 L638.853,324.199 M652.697,321.855 C650.15,321.855 649.853,321.542 649.853,319.105 L649.853,293.245 C649.853,290.792 650.197,290.449 652.697,290.449 L655.306,290.449 C663.853,290.449 667.4,295.089 667.4,306.152 C667.4,317.355 664.197,321.855 656.103,321.855 L652.697,321.855 "/>
<path class="Harmony" d="M692.009,309.542 L681.4,309.542 L681.4,313.542 L692.009,313.542 L692.009,324.199 L696.009,324.199 L696.009,313.542 L706.603,313.542 L706.603,309.542 L696.009,309.542 L696.009,298.949 L692.009,298.949 L692.009,309.542 "/>
<path class="Harmony" d="M418.523,676.148 L416.617,676.148 L414.617,679.101 C410.976,676.445 409.117,675.742 405.664,675.742 C400.914,675.742 396.867,677.742 393.523,681.742 C390.32,685.554 388.82,689.757 388.82,694.898 C388.82,705.695 395.867,713.351 405.726,713.351 C413.726,713.351 418.82,708.648 419.976,700.257 L417.617,699.851 C416.273,707.304 412.476,711.007 406.32,711.007 C398.914,711.007 395.414,705.898 395.414,695.101 C395.414,689.398 396.164,685.648 397.867,682.648 C399.414,679.851 402.476,678.101 405.726,678.101 C409.226,678.101 412.32,679.945 414.226,683.148 C415.179,684.804 415.867,686.648 417.07,690.601 L419.273,690.601 L418.523,676.148 "/>
<path class="Harmony" d="M437.617,688.554 C431.476,688.554 426.726,694.007 426.726,701.007 C426.726,707.851 431.523,713.351 437.523,713.351 C443.523,713.351 448.32,707.851 448.32,700.945 C448.32,694.101 443.523,688.554 437.617,688.554 M437.617,690.695 C441.117,690.695 443.07,694.351 443.07,700.945 C443.07,707.601 441.117,711.195 437.523,711.195 C433.929,711.195 431.976,707.601 431.976,701.007 C431.976,694.195 433.867,690.695 437.617,690.695"/>
<path class="Harmony" d="M1917.14,288.089 L1917.14,290.449 L1918.05,290.449 C1920.89,290.495 1921.84,290.652 1922.24,291.152 C1922.55,291.589 1922.55,291.699 1922.55,294.245 L1922.55,318.042 C1922.55,320.605 1922.55,320.699 1922.24,321.152 C1921.84,321.652 1920.89,321.855 1918.05,321.855 L1917.14,321.855 L1917.14,324.199 L1935.3,324.199 C1943.94,324.199 1949.14,320.542 1949.14,314.402 C1949.14,309.402 1946,306.542 1939.14,305.355 C1941.55,304.855 1942.64,304.402 1943.94,303.449 C1946,301.902 1947.25,299.449 1947.25,296.949 C1947.25,293.699 1945.25,290.542 1942.34,289.292 C1940.55,288.495 1938.05,288.089 1935.09,288.089 L1917.14,288.089 M1928.14,304.355 L1928.14,292.949 C1928.14,290.995 1928.8,290.495 1931.44,290.449 L1933.44,290.449 C1938.34,290.449 1941.44,292.042 1941.44,297.495 C1941.44,302.449 1939.05,304.355 1932.59,304.355 L1928.14,304.355 M1928.14,306.699 L1932.55,306.699 C1940.19,306.699 1943,308.745 1943,314.245 C1943,320.949 1938.8,321.855 1933.14,321.855 L1931.05,321.855 C1928.55,321.855 1928.05,321.355 1928.14,318.699 L1928.14,306.699 "/>
<path class="Harmony" d="M1967.25,309.542 L1956.64,309.542 L1956.64,313.542 L1967.25,313.542 L1967.25,324.199 L1971.25,324.199 L1971.25,313.542 L1981.84,313.542 L1981.84,309.542 L1971.25,309.542 L1971.25,298.949 L1967.25,298.949 L1967.25,309.542 "/>
<path class="Harmony" d="M401.458,287.745 L399.551,287.745 L397.551,290.699 C393.911,288.042 392.051,287.339 388.598,287.339 C383.848,287.339 379.801,289.339 376.458,293.339 C373.255,297.152 371.755,301.355 371.755,306.495 C371.755,317.292 378.801,324.949 388.661,324.949 C396.661,324.949 401.755,320.245 402.911,311.855 L400.551,311.449 C399.208,318.902 395.411,322.605 389.255,322.605 C381.848,322.605 378.348,317.495 378.348,306.699 C378.348,300.995 379.098,297.245 380.801,294.245 C382.348,291.449 385.411,289.699 388.661,289.699 C392.161,289.699 395.255,291.542 397.161,294.745 C398.114,296.402 398.801,298.245 400.005,302.199 L402.208,302.199 L401.458,287.745 "/>
<path class="Harmony" d="M421.114,309.542 L410.505,309.542 L410.505,313.542 L421.114,313.542 L421.114,324.199 L425.114,324.199 L425.114,313.542 L435.708,313.542 L435.708,309.542 L425.114,309.542 L425.114,298.949 L421.114,298.949 L421.114,309.542 "/>
<path class="Harmony" d="M1904.39,676.492 L1904.39,678.851 L1905.3,678.851 C1908.14,678.898 1909.09,679.054 1909.49,679.554 C1909.8,679.992 1909.8,680.101 1909.8,682.648 L1909.8,706.445 C1909.8,709.007 1909.8,709.101 1909.49,709.554 C1909.09,710.054 1908.14,710.257 1905.3,710.257 L1904.39,710.257 L1904.39,712.601 L1922.55,712.601 C1931.19,712.601 1936.39,708.945 1936.39,702.804 C1936.39,697.804 1933.25,694.945 1926.39,693.757 C1928.8,693.257 1929.89,692.804 1931.19,691.851 C1933.25,690.304 1934.5,687.851 1934.5,685.351 C1934.5,682.101 1932.5,678.945 1929.59,677.695 C1927.8,676.898 1925.3,676.492 1922.34,676.492 L1904.39,676.492 M1915.39,692.757 L1915.39,681.351 C1915.39,679.398 1916.05,678.898 1918.69,678.851 L1920.69,678.851 C1925.59,678.851 1928.69,680.445 1928.69,685.898 C1928.69,690.851 1926.3,692.757 1919.84,692.757 L1915.39,692.757 M1915.39,695.101 L1919.8,695.101 C1927.44,695.101 1930.25,697.148 1930.25,702.648 C1930.25,709.351 1926.05,710.257 1920.39,710.257 L1918.3,710.257 C1915.8,710.257 1915.3,709.757 1915.39,707.101 L1915.39,695.101 "/>
<path class="Harmony" d="M1953.94,688.554 C1947.8,688.554 1943.05,694.007 1943.05,701.007 C1943.05,707.851 1947.84,713.351 1953.84,713.351 C1959.84,713.351 1964.64,707.851 1964.64,700.945 C1964.64,694.101 1959.84,688.554 1953.94,688.554 M1953.94,690.695 C1957.44,690.695 1959.39,694.351 1959.39,700.945 C1959.39,707.601 1957.44,711.195 1953.84,711.195 C1950.25,711.195 1948.3,707.601 1948.3,701.007 C1948.3,694.195 1950.19,690.695 1953.94,690.695"/>
<path class="Harmony" d="M935.795,288.089 L905.748,288.089 L905.748,290.449 L906.639,290.449 C909.498,290.495 910.451,290.652 910.842,291.152 C911.139,291.589 911.139,291.699 911.139,294.245 L911.139,318.042 C911.139,320.605 911.139,320.699 910.842,321.152 C910.451,321.652 909.498,321.855 906.639,321.855 L905.748,321.855 L905.748,324.199 L936.451,324.199 L937.451,310.855 L935.248,310.855 C933.342,319.745 931.295,321.652 923.639,321.855 L920.342,321.855 C917.342,321.745 916.592,321.245 916.748,319.449 L916.748,306.699 L917.748,306.699 C922.889,306.495 924.748,308.355 924.951,313.902 L927.295,313.902 L927.295,297.495 L924.951,297.495 C924.639,302.402 922.701,304.355 917.951,304.355 L916.748,304.355 L916.748,292.949 C916.701,290.839 917.201,290.495 919.889,290.449 L922.498,290.449 C930.701,290.402 932.748,292.199 934.342,300.855 L936.498,300.855 L935.795,288.089 "/>
<path class="Harmony" d="M955.904,309.542 L945.295,309.542 L945.295,313.542 L955.904,313.542 L955.904,324.199 L959.904,324.199 L959.904,313.542 L970.498,313.542 L970.498,309.542 L959.904,309.542 L959.904,298.949 L955.904,298.949 L955.904,309.542 "/>
<path class="Page" d="M237.828,237.973 L237.219,240.723 C236.719,242.926 236.391,243.63 235.953,243.911 C235.406,244.301 235.297,244.301 231.828,244.348 L221.219,244.348 C223.141,242.692 224.578,241.661 226.719,240.223 C234.469,235.223 236.063,234.005 237.656,231.973 C239.531,229.505 240.625,226.583 240.625,224.005 C240.625,218.114 234.859,213.661 227.109,213.661 C219.625,213.661 213.844,218.505 213.844,224.77 C213.844,228.614 216,231.098 219.297,231.098 C222.156,231.098 223.969,229.286 223.969,226.426 C223.969,224.051 222.922,222.676 220.391,221.473 C219.781,221.192 219.516,220.864 219.516,220.426 C219.516,218.661 222.484,216.801 225.234,216.801 C229.078,216.801 231.281,219.161 231.281,223.239 C231.281,227.801 229.516,231.036 223.688,237.255 C217.531,243.801 215.391,246.27 212.641,250.239 L212.641,252.817 C214.063,252.661 214.672,252.598 215.5,252.598 L236.172,252.598 C237.219,252.598 237.875,252.661 239.531,252.817 L240.797,237.973 L237.828,237.973 "/>
</svg>
