<?xml version="1.0" encoding="UTF-8" standalone="no"?>
<svg width="2520px" height="1008px" viewBox="0 0 2520 1008"
 xmlns="http://www.w3.org/2000/svg" xmlns:xlink="http://www.w3.org/1999/xlink" version="1.2" baseProfile="tiny">
<title>大调调性 (2)</title>
<desc>Generated by MuseScore Studio 4.4.4</desc>
<path class="" fill="#ffffff" fill-rule="evenodd" d="M0,0 L2520,0 L2520,1008 L0,1008 L0,0 "/>
<polyline class="StaffLines" fill="none" stroke="#000000" stroke-width="2.73" stroke-linejoin="bevel" points="212.598,386.199 2307.8,386.199"/>
<polyline class="StaffLines" fill="none" stroke="#000000" stroke-width="2.73" stroke-linejoin="bevel" points="212.598,410.999 2307.8,410.999"/>
<polyline class="StaffLines" fill="none" stroke="#000000" stroke-width="2.73" stroke-linejoin="bevel" points="212.598,435.799 2307.8,435.799"/>
<polyline class="StaffLines" fill="none" stroke="#000000" stroke-width="2.73" stroke-linejoin="bevel" points="212.598,460.599 2307.8,460.599"/>
<polyline class="StaffLines" fill="none" stroke="#000000" stroke-width="2.73" stroke-linejoin="bevel" points="212.598,485.399 2307.8,485.399"/>
<polyline class="StaffLines" fill="none" stroke="#000000" stroke-width="2.73" stroke-linejoin="bevel" points="212.598,685.977 2307.8,685.977"/>
<polyline class="StaffLines" fill="none" stroke="#000000" stroke-width="2.73" stroke-linejoin="bevel" points="212.598,710.777 2307.8,710.777"/>
<polyline class="StaffLines" fill="none" stroke="#000000" stroke-width="2.73" stroke-linejoin="bevel" points="212.598,735.577 2307.8,735.577"/>
<polyline class="StaffLines" fill="none" stroke="#000000" stroke-width="2.73" stroke-linejoin="bevel" points="212.598,760.377 2307.8,760.377"/>
<polyline class="StaffLines" fill="none" stroke="#000000" stroke-width="2.73" stroke-linejoin="bevel" points="212.598,785.177 2307.8,785.177"/>
<path class="MeasureNumber" d="M228.317,322.927 C227.317,327.567 224.63,335.52 218.911,335.52 C217.755,335.52 217.005,335.036 217.005,334.317 C217.005,334.036 217.083,333.927 217.395,333.442 C217.801,332.927 218.005,332.442 218.005,331.88 C218.005,330.567 216.958,329.567 215.598,329.567 C214.005,329.567 212.88,330.755 212.88,332.52 C212.88,335.239 215.442,337.192 219.005,337.192 C227.755,337.192 233.348,326.005 233.348,318.395 C233.348,312.161 230.348,308.442 225.395,308.442 C219.442,308.442 215.005,313.927 215.005,319.645 C215.005,323.442 217.911,326.317 221.801,326.317 C224.442,326.317 226.473,325.239 228.317,322.927 M225.364,310.13 C227.911,310.13 229.551,312.161 229.551,315.364 C229.551,320.317 226.833,323.958 223.161,323.958 C220.63,323.958 219.239,322.239 219.239,319.239 C219.239,315.645 220.958,310.13 225.364,310.13"/>
<polyline class="BarLine" fill="none" stroke="#000000" stroke-width="4.46" stroke-linejoin="bevel" points="837.478,384.835 837.478,685.977"/>
<polyline class="BarLine" fill="none" stroke="#000000" stroke-width="4.46" stroke-linejoin="bevel" points="214.83,384.835 214.83,685.977"/>
<polyline class="BarLine" fill="none" stroke="#000000" stroke-width="4.46" stroke-linejoin="bevel" points="1771.04,384.835 1771.04,685.977"/>
<polyline class="BarLine" fill="none" stroke="#000000" stroke-width="4.46" stroke-linejoin="bevel" points="1537.65,384.835 1537.65,685.977"/>
<polyline class="BarLine" fill="none" stroke="#000000" stroke-width="4.46" stroke-linejoin="bevel" points="1070.87,384.835 1070.87,685.977"/>
<polyline class="BarLine" fill="none" stroke="#000000" stroke-width="4.46" stroke-linejoin="bevel" points="604.088,384.835 604.088,685.977"/>
<polyline class="BarLine" fill="none" stroke="#000000" stroke-width="4.46" stroke-linejoin="bevel" points="1304.26,384.835 1304.26,685.977"/>
<polyline class="BarLine" fill="none" stroke="#000000" stroke-width="4.46" stroke-linejoin="bevel" points="2237.82,384.835 2237.82,685.977"/>
<polyline class="BarLine" fill="none" stroke="#000000" stroke-width="13.64" stroke-linejoin="bevel" points="2256.04,384.835 2256.04,685.977"/>
<polyline class="BarLine" fill="none" stroke="#000000" stroke-width="4.46" stroke-linejoin="bevel" points="2004.43,384.835 2004.43,685.977"/>
<polyline class="BarLine" fill="none" stroke="#000000" stroke-width="4.46" stroke-linejoin="bevel" points="214.83,684.613 214.83,786.541"/>
<polyline class="BarLine" fill="none" stroke="#000000" stroke-width="4.46" stroke-linejoin="bevel" points="837.478,684.613 837.478,786.541"/>
<polyline class="BarLine" fill="none" stroke="#000000" stroke-width="4.46" stroke-linejoin="bevel" points="1304.26,684.613 1304.26,786.541"/>
<polyline class="BarLine" fill="none" stroke="#000000" stroke-width="4.46" stroke-linejoin="bevel" points="1771.04,684.613 1771.04,786.541"/>
<polyline class="BarLine" fill="none" stroke="#000000" stroke-width="4.46" stroke-linejoin="bevel" points="1537.65,684.613 1537.65,786.541"/>
<polyline class="BarLine" fill="none" stroke="#000000" stroke-width="4.46" stroke-linejoin="bevel" points="1070.87,684.613 1070.87,786.541"/>
<polyline class="BarLine" fill="none" stroke="#000000" stroke-width="4.46" stroke-linejoin="bevel" points="604.088,684.613 604.088,786.541"/>
<polyline class="BarLine" fill="none" stroke="#000000" stroke-width="4.46" stroke-linejoin="bevel" points="2237.82,684.613 2237.82,786.541"/>
<polyline class="BarLine" fill="none" stroke="#000000" stroke-width="13.64" stroke-linejoin="bevel" points="2256.04,684.613 2256.04,786.541"/>
<polyline class="BarLine" fill="none" stroke="#000000" stroke-width="4.46" stroke-linejoin="bevel" points="2004.43,684.613 2004.43,786.541"/>
<polyline class="LedgerLine" fill="none" stroke="#000000" stroke-width="3.97" stroke-linejoin="bevel" points="395.747,636.377 449.113,636.377"/>
<polyline class="LedgerLine" fill="none" stroke="#000000" stroke-width="3.97" stroke-linejoin="bevel" points="395.747,611.577 449.113,611.577"/>
<polyline class="LedgerLine" fill="none" stroke="#000000" stroke-width="3.97" stroke-linejoin="bevel" points="395.747,661.177 449.113,661.177"/>
<polyline class="LedgerLine" fill="none" stroke="#000000" stroke-width="3.97" stroke-linejoin="bevel" points="862.526,636.377 915.892,636.377"/>
<polyline class="LedgerLine" fill="none" stroke="#000000" stroke-width="3.97" stroke-linejoin="bevel" points="1329.31,661.177 1382.67,661.177"/>
<polyline class="LedgerLine" fill="none" stroke="#000000" stroke-width="3.97" stroke-linejoin="bevel" points="862.526,661.177 915.892,661.177"/>
<polyline class="LedgerLine" fill="none" stroke="#000000" stroke-width="3.97" stroke-linejoin="bevel" points="629.136,661.177 682.503,661.177"/>
<polyline class="LedgerLine" fill="none" stroke="#000000" stroke-width="3.97" stroke-linejoin="bevel" points="629.136,636.377 682.503,636.377"/>
<polyline class="LedgerLine" fill="none" stroke="#000000" stroke-width="3.97" stroke-linejoin="bevel" points="1095.92,661.177 1149.28,661.177"/>
<path class="Note" transform="matrix(0.992001,0,0,0.992001,403.931,460.599)" d="M18.7031,-13.5938 C4.90625,-13.5938 0,-6.59375 0,-0.09375 C0,6.40625 4.90625,13.4063 18.7031,13.4063 C32.5,13.4063 37.2969,6.40625 37.2969,-0.09375 C37.2969,-6.59375 32.5,-13.5938 18.7031,-13.5938 M19.5,10.2031 C16.7031,10.2031 14.7969,9.40625 13.5,6.90625 C12.2031,4.40625 10.4063,-2.09375 10.2969,-4.70313 C10.0938,-7.40625 11.0938,-9 13.5,-9.79688 C14.7031,-10.2031 16.2969,-10.4063 17.9063,-10.4063 C20.5938,-10.4063 22.4063,-9.79688 23.7969,-7.09375 C25.2031,-4.5 27.1094,2 27.1094,4.5 C27.1094,9.40625 23.5,10.2031 19.5,10.2031"/>
<path class="Note" transform="matrix(0.992001,0,0,0.992001,1104.1,423.399)" d="M18.7031,-13.5938 C4.90625,-13.5938 0,-6.59375 0,-0.09375 C0,6.40625 4.90625,13.4063 18.7031,13.4063 C32.5,13.4063 37.2969,6.40625 37.2969,-0.09375 C37.2969,-6.59375 32.5,-13.5938 18.7031,-13.5938 M19.5,10.2031 C16.7031,10.2031 14.7969,9.40625 13.5,6.90625 C12.2031,4.40625 10.4063,-2.09375 10.2969,-4.70313 C10.0938,-7.40625 11.0938,-9 13.5,-9.79688 C14.7031,-10.2031 16.2969,-10.4063 17.9063,-10.4063 C20.5938,-10.4063 22.4063,-9.79688 23.7969,-7.09375 C25.2031,-4.5 27.1094,2 27.1094,4.5 C27.1094,9.40625 23.5,10.2031 19.5,10.2031"/>
<path class="Note" transform="matrix(0.992001,0,0,0.992001,1804.27,386.199)" d="M18.7031,-13.5938 C4.90625,-13.5938 0,-6.59375 0,-0.09375 C0,6.40625 4.90625,13.4063 18.7031,13.4063 C32.5,13.4063 37.2969,6.40625 37.2969,-0.09375 C37.2969,-6.59375 32.5,-13.5938 18.7031,-13.5938 M19.5,10.2031 C16.7031,10.2031 14.7969,9.40625 13.5,6.90625 C12.2031,4.40625 10.4063,-2.09375 10.2969,-4.70313 C10.0938,-7.40625 11.0938,-9 13.5,-9.79688 C14.7031,-10.2031 16.2969,-10.4063 17.9063,-10.4063 C20.5938,-10.4063 22.4063,-9.79688 23.7969,-7.09375 C25.2031,-4.5 27.1094,2 27.1094,4.5 C27.1094,9.40625 23.5,10.2031 19.5,10.2031"/>
<path class="Note" transform="matrix(0.992001,0,0,0.992001,870.71,435.799)" d="M18.7031,-13.5938 C4.90625,-13.5938 0,-6.59375 0,-0.09375 C0,6.40625 4.90625,13.4063 18.7031,13.4063 C32.5,13.4063 37.2969,6.40625 37.2969,-0.09375 C37.2969,-6.59375 32.5,-13.5938 18.7031,-13.5938 M19.5,10.2031 C16.7031,10.2031 14.7969,9.40625 13.5,6.90625 C12.2031,4.40625 10.4063,-2.09375 10.2969,-4.70313 C10.0938,-7.40625 11.0938,-9 13.5,-9.79688 C14.7031,-10.2031 16.2969,-10.4063 17.9063,-10.4063 C20.5938,-10.4063 22.4063,-9.79688 23.7969,-7.09375 C25.2031,-4.5 27.1094,2 27.1094,4.5 C27.1094,9.40625 23.5,10.2031 19.5,10.2031"/>
<path class="Note" transform="matrix(0.992001,0,0,0.992001,1337.49,410.999)" d="M18.7031,-13.5938 C4.90625,-13.5938 0,-6.59375 0,-0.09375 C0,6.40625 4.90625,13.4063 18.7031,13.4063 C32.5,13.4063 37.2969,6.40625 37.2969,-0.09375 C37.2969,-6.59375 32.5,-13.5938 18.7031,-13.5938 M19.5,10.2031 C16.7031,10.2031 14.7969,9.40625 13.5,6.90625 C12.2031,4.40625 10.4063,-2.09375 10.2969,-4.70313 C10.0938,-7.40625 11.0938,-9 13.5,-9.79688 C14.7031,-10.2031 16.2969,-10.4063 17.9063,-10.4063 C20.5938,-10.4063 22.4063,-9.79688 23.7969,-7.09375 C25.2031,-4.5 27.1094,2 27.1094,4.5 C27.1094,9.40625 23.5,10.2031 19.5,10.2031"/>
<path class="Note" transform="matrix(0.992001,0,0,0.992001,1570.88,398.599)" d="M18.7031,-13.5938 C4.90625,-13.5938 0,-6.59375 0,-0.09375 C0,6.40625 4.90625,13.4063 18.7031,13.4063 C32.5,13.4063 37.2969,6.40625 37.2969,-0.09375 C37.2969,-6.59375 32.5,-13.5938 18.7031,-13.5938 M19.5,10.2031 C16.7031,10.2031 14.7969,9.40625 13.5,6.90625 C12.2031,4.40625 10.4063,-2.09375 10.2969,-4.70313 C10.0938,-7.40625 11.0938,-9 13.5,-9.79688 C14.7031,-10.2031 16.2969,-10.4063 17.9063,-10.4063 C20.5938,-10.4063 22.4063,-9.79688 23.7969,-7.09375 C25.2031,-4.5 27.1094,2 27.1094,4.5 C27.1094,9.40625 23.5,10.2031 19.5,10.2031"/>
<path class="Note" transform="matrix(0.992001,0,0,0.992001,2037.66,373.799)" d="M18.7031,-13.5938 C4.90625,-13.5938 0,-6.59375 0,-0.09375 C0,6.40625 4.90625,13.4063 18.7031,13.4063 C32.5,13.4063 37.2969,6.40625 37.2969,-0.09375 C37.2969,-6.59375 32.5,-13.5938 18.7031,-13.5938 M19.5,10.2031 C16.7031,10.2031 14.7969,9.40625 13.5,6.90625 C12.2031,4.40625 10.4063,-2.09375 10.2969,-4.70313 C10.0938,-7.40625 11.0938,-9 13.5,-9.79688 C14.7031,-10.2031 16.2969,-10.4063 17.9063,-10.4063 C20.5938,-10.4063 22.4063,-9.79688 23.7969,-7.09375 C25.2031,-4.5 27.1094,2 27.1094,4.5 C27.1094,9.40625 23.5,10.2031 19.5,10.2031"/>
<path class="Note" transform="matrix(0.992001,0,0,0.992001,637.32,448.199)" d="M18.7031,-13.5938 C4.90625,-13.5938 0,-6.59375 0,-0.09375 C0,6.40625 4.90625,13.4063 18.7031,13.4063 C32.5,13.4063 37.2969,6.40625 37.2969,-0.09375 C37.2969,-6.59375 32.5,-13.5938 18.7031,-13.5938 M19.5,10.2031 C16.7031,10.2031 14.7969,9.40625 13.5,6.90625 C12.2031,4.40625 10.4063,-2.09375 10.2969,-4.70313 C10.0938,-7.40625 11.0938,-9 13.5,-9.79688 C14.7031,-10.2031 16.2969,-10.4063 17.9063,-10.4063 C20.5938,-10.4063 22.4063,-9.79688 23.7969,-7.09375 C25.2031,-4.5 27.1094,2 27.1094,4.5 C27.1094,9.40625 23.5,10.2031 19.5,10.2031"/>
<path class="Note" transform="matrix(0.992001,0,0,0.992001,403.931,611.577)" d="M18.7031,-13.5938 C4.90625,-13.5938 0,-6.59375 0,-0.09375 C0,6.40625 4.90625,13.4063 18.7031,13.4063 C32.5,13.4063 37.2969,6.40625 37.2969,-0.09375 C37.2969,-6.59375 32.5,-13.5938 18.7031,-13.5938 M19.5,10.2031 C16.7031,10.2031 14.7969,9.40625 13.5,6.90625 C12.2031,4.40625 10.4063,-2.09375 10.2969,-4.70313 C10.0938,-7.40625 11.0938,-9 13.5,-9.79688 C14.7031,-10.2031 16.2969,-10.4063 17.9063,-10.4063 C20.5938,-10.4063 22.4063,-9.79688 23.7969,-7.09375 C25.2031,-4.5 27.1094,2 27.1094,4.5 C27.1094,9.40625 23.5,10.2031 19.5,10.2031"/>
<path class="Note" transform="matrix(0.992001,0,0,0.992001,1804.27,685.977)" d="M18.7031,-13.5938 C4.90625,-13.5938 0,-6.59375 0,-0.09375 C0,6.40625 4.90625,13.4063 18.7031,13.4063 C32.5,13.4063 37.2969,6.40625 37.2969,-0.09375 C37.2969,-6.59375 32.5,-13.5938 18.7031,-13.5938 M19.5,10.2031 C16.7031,10.2031 14.7969,9.40625 13.5,6.90625 C12.2031,4.40625 10.4063,-2.09375 10.2969,-4.70313 C10.0938,-7.40625 11.0938,-9 13.5,-9.79688 C14.7031,-10.2031 16.2969,-10.4063 17.9063,-10.4063 C20.5938,-10.4063 22.4063,-9.79688 23.7969,-7.09375 C25.2031,-4.5 27.1094,2 27.1094,4.5 C27.1094,9.40625 23.5,10.2031 19.5,10.2031"/>
<path class="Note" transform="matrix(0.992001,0,0,0.992001,1104.1,648.777)" d="M18.7031,-13.5938 C4.90625,-13.5938 0,-6.59375 0,-0.09375 C0,6.40625 4.90625,13.4063 18.7031,13.4063 C32.5,13.4063 37.2969,6.40625 37.2969,-0.09375 C37.2969,-6.59375 32.5,-13.5938 18.7031,-13.5938 M19.5,10.2031 C16.7031,10.2031 14.7969,9.40625 13.5,6.90625 C12.2031,4.40625 10.4063,-2.09375 10.2969,-4.70313 C10.0938,-7.40625 11.0938,-9 13.5,-9.79688 C14.7031,-10.2031 16.2969,-10.4063 17.9063,-10.4063 C20.5938,-10.4063 22.4063,-9.79688 23.7969,-7.09375 C25.2031,-4.5 27.1094,2 27.1094,4.5 C27.1094,9.40625 23.5,10.2031 19.5,10.2031"/>
<path class="Note" transform="matrix(0.992001,0,0,0.992001,1570.88,673.577)" d="M18.7031,-13.5938 C4.90625,-13.5938 0,-6.59375 0,-0.09375 C0,6.40625 4.90625,13.4063 18.7031,13.4063 C32.5,13.4063 37.2969,6.40625 37.2969,-0.09375 C37.2969,-6.59375 32.5,-13.5938 18.7031,-13.5938 M19.5,10.2031 C16.7031,10.2031 14.7969,9.40625 13.5,6.90625 C12.2031,4.40625 10.4063,-2.09375 10.2969,-4.70313 C10.0938,-7.40625 11.0938,-9 13.5,-9.79688 C14.7031,-10.2031 16.2969,-10.4063 17.9063,-10.4063 C20.5938,-10.4063 22.4063,-9.79688 23.7969,-7.09375 C25.2031,-4.5 27.1094,2 27.1094,4.5 C27.1094,9.40625 23.5,10.2031 19.5,10.2031"/>
<path class="Note" transform="matrix(0.992001,0,0,0.992001,1337.49,661.177)" d="M18.7031,-13.5938 C4.90625,-13.5938 0,-6.59375 0,-0.09375 C0,6.40625 4.90625,13.4063 18.7031,13.4063 C32.5,13.4063 37.2969,6.40625 37.2969,-0.09375 C37.2969,-6.59375 32.5,-13.5938 18.7031,-13.5938 M19.5,10.2031 C16.7031,10.2031 14.7969,9.40625 13.5,6.90625 C12.2031,4.40625 10.4063,-2.09375 10.2969,-4.70313 C10.0938,-7.40625 11.0938,-9 13.5,-9.79688 C14.7031,-10.2031 16.2969,-10.4063 17.9063,-10.4063 C20.5938,-10.4063 22.4063,-9.79688 23.7969,-7.09375 C25.2031,-4.5 27.1094,2 27.1094,4.5 C27.1094,9.40625 23.5,10.2031 19.5,10.2031"/>
<path class="Note" transform="matrix(0.992001,0,0,0.992001,870.71,636.377)" d="M18.7031,-13.5938 C4.90625,-13.5938 0,-6.59375 0,-0.09375 C0,6.40625 4.90625,13.4063 18.7031,13.4063 C32.5,13.4063 37.2969,6.40625 37.2969,-0.09375 C37.2969,-6.59375 32.5,-13.5938 18.7031,-13.5938 M19.5,10.2031 C16.7031,10.2031 14.7969,9.40625 13.5,6.90625 C12.2031,4.40625 10.4063,-2.09375 10.2969,-4.70313 C10.0938,-7.40625 11.0938,-9 13.5,-9.79688 C14.7031,-10.2031 16.2969,-10.4063 17.9063,-10.4063 C20.5938,-10.4063 22.4063,-9.79688 23.7969,-7.09375 C25.2031,-4.5 27.1094,2 27.1094,4.5 C27.1094,9.40625 23.5,10.2031 19.5,10.2031"/>
<path class="Note" transform="matrix(0.992001,0,0,0.992001,637.32,623.977)" d="M18.7031,-13.5938 C4.90625,-13.5938 0,-6.59375 0,-0.09375 C0,6.40625 4.90625,13.4063 18.7031,13.4063 C32.5,13.4063 37.2969,6.40625 37.2969,-0.09375 C37.2969,-6.59375 32.5,-13.5938 18.7031,-13.5938 M19.5,10.2031 C16.7031,10.2031 14.7969,9.40625 13.5,6.90625 C12.2031,4.40625 10.4063,-2.09375 10.2969,-4.70313 C10.0938,-7.40625 11.0938,-9 13.5,-9.79688 C14.7031,-10.2031 16.2969,-10.4063 17.9063,-10.4063 C20.5938,-10.4063 22.4063,-9.79688 23.7969,-7.09375 C25.2031,-4.5 27.1094,2 27.1094,4.5 C27.1094,9.40625 23.5,10.2031 19.5,10.2031"/>
<path class="Note" transform="matrix(0.992001,0,0,0.992001,2037.66,698.377)" d="M18.7031,-13.5938 C4.90625,-13.5938 0,-6.59375 0,-0.09375 C0,6.40625 4.90625,13.4063 18.7031,13.4063 C32.5,13.4063 37.2969,6.40625 37.2969,-0.09375 C37.2969,-6.59375 32.5,-13.5938 18.7031,-13.5938 M19.5,10.2031 C16.7031,10.2031 14.7969,9.40625 13.5,6.90625 C12.2031,4.40625 10.4063,-2.09375 10.2969,-4.70313 C10.0938,-7.40625 11.0938,-9 13.5,-9.79688 C14.7031,-10.2031 16.2969,-10.4063 17.9063,-10.4063 C20.5938,-10.4063 22.4063,-9.79688 23.7969,-7.09375 C25.2031,-4.5 27.1094,2 27.1094,4.5 C27.1094,9.40625 23.5,10.2031 19.5,10.2031"/>
<path class="Clef" transform="matrix(0.992001,0,0,0.992001,235.662,460.599)" d="M12.2969,51.2969 C12.2969,57.9063 17.2969,66.6094 30.7969,66.6094 C35.5,66.6094 39.6094,65.4063 43.2031,63.2031 C48.6094,59.4063 50,52.7969 50,46.5 C50,42.6094 49.4063,38.1094 48.4063,32.4063 C48.1094,30.4063 47.5,27.4063 46.9063,23.5 C56.7031,20.2969 64,10.0938 64,-0.203125 C64,-15.2969 53.2969,-25.5 38.7031,-25.5 C37.7031,-31.5 36.7031,-37.4063 35.9063,-43 C46.4063,-54.1094 53.7031,-66.6094 53.7031,-82.5 C53.7031,-91.6094 50.9063,-99 49.2969,-102.609 C46.9063,-107.703 44,-111.203 42.2031,-111.203 C41.5,-111.203 38.4063,-110 35.1094,-106.109 C28.7031,-98.5 26.9063,-85.7031 26.9063,-77.3125 C26.9063,-71.9063 27.4063,-67 29.1094,-55.7969 C29,-55.7031 23.7969,-50.4063 21.7031,-48.7031 C12.5938,-40.2969 0,-28.1094 0,-8.09375 C0,10.5938 16.2969,25.2969 34.9063,25.2969 C37.7969,25.2969 40.5,25 42.7969,24.5938 C44.7031,34.2031 45.9063,41.2031 45.9063,46.5 C45.9063,56.9063 40.5,62.4063 30.4063,62.4063 C28,62.4063 25.9063,61.9063 25.7031,61.9063 C25.6094,61.7969 25.4063,61.7031 25.4063,61.6094 C25.4063,61.4063 25.6094,61.2969 25.9063,61.2969 C30.6094,60.5 35.2969,56.5 35.2969,50.1094 C35.2969,44.7031 31.2031,39 23.7031,39 C16.7031,39 12.2969,44.7031 12.2969,51.2969 M33.2031,-82.2031 C34.1094,-86.2031 38.7031,-96.7031 43.9063,-96.7031 C45.4063,-96.7031 47.7969,-91.9063 47.7969,-84.9063 C47.7969,-74.5 40.1094,-66.7031 33.2031,-59.9063 C32.6094,-63.9063 32.1094,-67.7969 32.1094,-72 C32.1094,-75.7031 32.4063,-79.1094 33.2031,-82.2031 M42,20.5938 C40,21 38.1094,21.2031 36.2031,21.2031 C21.9063,21.2031 9.70313,11.2031 9.70313,-3.90625 C9.70313,-16.0938 18.2969,-27 27.1094,-34.6094 C28.7969,-36.1094 30.4063,-37.5 31.9063,-39 C32.7969,-33.6094 33.5,-28.9063 34.2031,-24.7969 C25.0938,-22.0938 18.9063,-12.5 18.9063,-3.09375 C18.9063,3.90625 24.4063,13.5 32.4063,13.5 C33.2031,13.5 34.1094,13.0938 34.1094,12.2031 C34.1094,11.2969 33.1094,10.7969 31.9063,10 C28,7.59375 25.7969,5 25.7969,0.09375 C25.7969,-6 30.4063,-10.9063 36.2031,-12.2969 L42,20.5938 M56.2031,2.09375 C56.2031,9.20313 53.2969,16.5 46.2031,19.4063 C44.1094,7.40625 41.4063,-8.5 40.7031,-12.9063 C49.7031,-12.9063 56.2031,-6.79688 56.2031,2.09375"/>
<path class="Clef" transform="matrix(0.992001,0,0,0.992001,235.662,710.777)" d="M25.4063,-25.0938 C17.7969,-25.0938 11.7031,-20.7031 11.5938,-20.7031 C5.70313,-16.4063 1.90625,-9.79688 1.90625,-2.5 C1.90625,4.79688 6.09375,10.2031 13.5,10.2031 C19.9063,10.2031 24.9063,5.90625 24.9063,-0.703125 C24.9063,-6.40625 19.9063,-11.0938 14.2969,-11.0938 C13.0938,-11.0938 12,-10.9063 11.0938,-10.5938 C10.0938,-10.2031 8.40625,-9.20313 7.59375,-8.5 C8.29688,-12.9063 11.2969,-17.2969 15.2031,-19.4063 C17.7031,-20.7969 20.9063,-21.4063 24.4063,-21.4063 C34.6094,-21.4063 39.6094,-13.2031 39.6094,3.59375 C39.6094,16.5938 31.2969,35.2969 21.5,44.1094 C11.0938,53.6094 1.29688,58.1094 1.20313,58.1094 C1.20313,58.1094 0,58.7969 0,60 C0,60.2031 0.09375,60.2969 0.09375,60.5 C0.40625,61.5 1.29688,61.7031 2,61.7031 L2.29688,61.6094 C2.5,61.6094 13.9063,56.9063 23,49.7969 C37,39.7031 52.7969,21.9063 52.7969,3.5 C52.7969,-13.9063 43.4063,-25.0938 25.4063,-25.0938 M56.7969,-12.4063 C56.7969,-9.59375 59,-7.40625 61.6094,-7.40625 C64.2031,-7.40625 66.4063,-9.59375 66.4063,-12.4063 C66.4063,-15.2031 64.2031,-17.5 61.6094,-17.5 C59,-17.5 56.7969,-15.2031 56.7969,-12.4063 M56.7969,12.2969 C56.7969,15.0938 59,17.4063 61.6094,17.4063 C64.2031,17.4063 66.4063,15.0938 66.4063,12.2969 C66.4063,9.5 64.2031,7.20313 61.6094,7.20313 C59,7.20313 56.7969,9.5 56.7969,12.2969"/>
<path class="KeySig" transform="matrix(0.992001,0,0,0.992001,320.122,386.199)" d="M23.2969,-10.5 C23.9063,-10.5938 24.4063,-11.2969 24.4063,-11.9063 L24.4063,-17.7969 C24.4063,-18.7969 23.7031,-19.2031 22.7969,-19.2031 L19.5,-18.5 L19.5,-33.4063 L16.7031,-33.4063 L16.7031,-17.9063 L7.79688,-16.0938 L7.79688,-30.2031 L5,-30.2031 L5,-15.5 L1.09375,-14.7031 C0.5,-14.5938 0,-13.9063 0,-13.2969 L0,-7.5 C0,-6.40625 0.796875,-6.09375 1.70313,-6.09375 L5,-6.79688 L5,9.70313 L1.09375,10.5 C0.5,10.5938 0,11.2969 0,11.9063 L0,17.7031 C0,18.7969 0.796875,19.0938 1.70313,19.0938 L5,18.4063 L5,33.2969 L7.79688,33.2969 L7.79688,17.7969 L16.7031,16 L16.7031,30.1094 L19.5,30.1094 L19.5,15.4063 L23.2969,14.7031 C23.9063,14.5938 24.4063,13.9063 24.4063,13.2969 L24.4063,7.40625 C24.4063,6.40625 23.7031,6 22.7969,6 L19.5,6.70313 L19.5,-9.79688 L23.2969,-10.5 M7.79688,-7.40625 L16.7031,-9.20313 L16.7031,7.29688 L7.79688,9.20313 L7.79688,-7.40625 "/>
<path class="KeySig" transform="matrix(0.992001,0,0,0.992001,2275.26,435.799)" d="M12,-15.5 C7,-15.5 4.09375,-12.4063 3.59375,-11.7969 L4,-43.9063 C4,-44.7031 3.40625,-45.2969 2.59375,-45.2969 L1.40625,-45.2969 C0.59375,-45.2969 0,-44.7031 0,-43.9063 L0.5,16.2031 C0.5,17 1.09375,17.5938 1.90625,17.5938 C2.09375,17.5938 2.5,17.5 2.70313,17.4063 C11.2969,13.0938 20.2969,4.90625 20.2969,-5.40625 C20.2969,-10.5938 17.9063,-15.5 12,-15.5 M3.29688,12.7031 L3.59375,-6.79688 C3.79688,-7.70313 5.29688,-10.5938 9.29688,-10.5938 C12.9063,-10.5938 13.2031,-7.20313 13.2031,-5.09375 C13.2031,3.79688 9.90625,7.5 3.29688,12.7031"/>
<path class="KeySig" transform="matrix(0.992001,0,0,0.992001,320.122,710.777)" d="M23.2969,-10.5 C23.9063,-10.5938 24.4063,-11.2969 24.4063,-11.9063 L24.4063,-17.7969 C24.4063,-18.7969 23.7031,-19.2031 22.7969,-19.2031 L19.5,-18.5 L19.5,-33.4063 L16.7031,-33.4063 L16.7031,-17.9063 L7.79688,-16.0938 L7.79688,-30.2031 L5,-30.2031 L5,-15.5 L1.09375,-14.7031 C0.5,-14.5938 0,-13.9063 0,-13.2969 L0,-7.5 C0,-6.40625 0.796875,-6.09375 1.70313,-6.09375 L5,-6.79688 L5,9.70313 L1.09375,10.5 C0.5,10.5938 0,11.2969 0,11.9063 L0,17.7031 C0,18.7969 0.796875,19.0938 1.70313,19.0938 L5,18.4063 L5,33.2969 L7.79688,33.2969 L7.79688,17.7969 L16.7031,16 L16.7031,30.1094 L19.5,30.1094 L19.5,15.4063 L23.2969,14.7031 C23.9063,14.5938 24.4063,13.9063 24.4063,13.2969 L24.4063,7.40625 C24.4063,6.40625 23.7031,6 22.7969,6 L19.5,6.70313 L19.5,-9.79688 L23.2969,-10.5 M7.79688,-7.40625 L16.7031,-9.20313 L16.7031,7.29688 L7.79688,9.20313 L7.79688,-7.40625 "/>
<path class="KeySig" transform="matrix(0.992001,0,0,0.992001,2275.26,760.377)" d="M12,-15.5 C7,-15.5 4.09375,-12.4063 3.59375,-11.7969 L4,-43.9063 C4,-44.7031 3.40625,-45.2969 2.59375,-45.2969 L1.40625,-45.2969 C0.59375,-45.2969 0,-44.7031 0,-43.9063 L0.5,16.2031 C0.5,17 1.09375,17.5938 1.90625,17.5938 C2.09375,17.5938 2.5,17.5 2.70313,17.4063 C11.2969,13.0938 20.2969,4.90625 20.2969,-5.40625 C20.2969,-10.5938 17.9063,-15.5 12,-15.5 M3.29688,12.7031 L3.59375,-6.79688 C3.79688,-7.70313 5.29688,-10.5938 9.29688,-10.5938 C12.9063,-10.5938 13.2031,-7.20313 13.2031,-5.09375 C13.2031,3.79688 9.90625,7.5 3.29688,12.7031"/>
<path class="Lyrics" d="M1110.15,536.502 L1110.15,533.643 C1110.15,531.143 1110.3,529.502 1110.69,528.502 C1111.51,526.299 1113.26,524.939 1115.26,524.939 C1116.3,524.939 1116.94,525.252 1116.94,525.799 C1116.94,526.002 1116.94,526.049 1116.65,526.439 C1116.35,526.893 1116.19,527.502 1116.19,528.049 C1116.19,529.549 1117.4,530.689 1118.94,530.689 C1120.6,530.689 1121.76,529.439 1121.76,527.643 C1121.76,524.752 1119.26,522.939 1115.19,522.939 C1111.76,522.939 1109.19,524.143 1107.44,526.643 C1105.94,528.752 1105.44,530.893 1105.44,534.955 L1105.44,536.502 L1101.05,536.502 L1101.05,538.643 L1105.44,538.643 L1105.44,556.002 C1105.4,556.705 1105.35,557.002 1105.15,557.299 C1104.8,557.752 1103.85,557.955 1101.69,558.002 L1101.51,558.002 L1101.51,559.799 L1114.85,559.799 L1114.85,558.002 L1113.94,558.002 C1110.6,557.893 1110.15,557.643 1110.15,555.846 L1110.15,538.643 L1115.65,538.643 L1115.65,536.502 L1110.15,536.502 M1138.69,543.705 C1138.69,540.549 1138.15,538.955 1136.69,537.752 C1135.05,536.393 1132.6,535.752 1129.4,535.752 C1123.76,535.752 1119.65,538.393 1119.65,542.049 C1119.65,543.893 1120.8,545.096 1122.55,545.096 C1124.15,545.096 1125.26,544.049 1125.26,542.549 C1125.26,541.893 1125.01,541.205 1124.51,540.502 C1124.19,540.143 1124.15,540.049 1124.15,539.799 C1124.15,538.799 1126.15,537.893 1128.55,537.893 C1130.15,537.893 1131.9,538.393 1132.69,539.143 C1133.65,539.955 1134.01,541.143 1134.01,543.393 L1134.01,545.346 C1128.8,546.252 1127.15,546.643 1124.69,547.596 C1120.35,549.205 1118.3,551.502 1118.3,554.705 C1118.3,558.299 1121.1,560.549 1125.55,560.549 C1129.01,560.549 1132.1,559.143 1134.26,556.596 C1135.05,559.143 1136.3,560.143 1138.65,560.143 C1140.9,560.143 1143.26,558.705 1143.26,557.252 C1143.26,556.893 1143.05,556.643 1142.76,556.643 C1142.55,556.643 1142.35,556.705 1142.01,556.846 C1141.3,557.143 1141.01,557.205 1140.6,557.205 C1139.19,557.205 1138.69,556.299 1138.69,553.752 L1138.69,543.705 M1134.01,549.799 C1134.01,552.799 1133.85,553.502 1133.01,554.799 C1131.76,556.643 1129.51,557.893 1127.3,557.893 C1125.01,557.893 1123.35,556.252 1123.35,554.002 C1123.35,551.893 1124.4,550.393 1126.6,549.346 C1128.15,548.643 1130.1,548.143 1134.01,547.502 L1134.01,549.799 "/>
<path class="Lyrics" d="M869.256,536.502 L860.365,537.049 L860.365,539.205 L862.412,539.205 C864.303,539.252 864.553,539.549 864.553,541.705 L864.553,556.002 C864.506,556.752 864.459,557.049 864.256,557.299 C863.912,557.752 862.959,557.955 860.803,558.002 L860.615,558.002 L860.615,559.799 L873.209,559.799 L873.209,558.002 L873.006,558.002 C869.709,557.893 869.256,557.643 869.256,555.799 L869.256,546.549 C869.256,542.096 871.709,538.799 874.959,538.799 C877.803,538.799 879.256,540.846 879.256,544.893 L879.256,556.049 C879.209,556.705 879.162,557.049 878.912,557.299 C878.615,557.752 877.615,557.955 875.459,558.002 L875.256,558.002 L875.256,559.799 L887.912,559.799 L887.912,558.002 L887.709,558.002 C884.412,557.893 883.959,557.643 883.959,555.846 L883.959,547.002 C883.959,542.002 886.209,538.799 889.709,538.799 C892.569,538.799 893.959,540.955 893.959,545.455 L893.959,556.002 C893.912,556.705 893.865,557.049 893.615,557.299 C893.319,557.752 892.319,557.955 890.162,558.002 L889.959,558.002 L889.959,559.799 L902.615,559.799 L902.615,558.002 L902.412,558.002 C899.115,557.893 898.662,557.643 898.662,555.799 L898.662,544.455 C898.662,541.346 898.365,540.299 897.069,538.596 C895.615,536.752 893.569,535.752 891.162,535.752 C887.912,535.752 885.506,537.299 883.365,540.752 C882.506,537.752 879.803,535.752 876.459,535.752 C873.412,535.752 871.209,537.205 869.256,540.346 L869.256,536.502 M911.162,524.049 C909.553,524.049 908.256,525.346 908.256,526.939 C908.256,528.549 909.553,529.846 911.115,529.846 C912.756,529.846 914.053,528.549 914.053,526.939 C914.053,525.346 912.756,524.049 911.162,524.049 M913.506,536.502 L904.115,537.049 L904.115,539.205 L906.662,539.205 C908.553,539.252 908.803,539.549 908.803,541.705 L908.803,556.002 C908.756,556.752 908.709,557.049 908.506,557.299 C908.162,557.752 907.209,557.955 905.053,558.002 L904.709,558.002 L904.709,559.799 L917.662,559.799 L917.662,558.002 L917.303,558.002 C913.959,557.893 913.506,557.643 913.506,555.846 L913.506,536.502 "/>
<path class="Lyrics" d="M2047.66,560.143 L2056.36,559.799 L2056.36,557.643 L2055.45,557.643 C2052.61,557.502 2052.36,557.205 2052.36,554.002 L2052.36,522.939 L2042.56,523.502 L2042.56,525.643 L2045.5,525.643 C2047.41,525.689 2047.66,526.002 2047.66,528.143 L2047.66,539.455 C2045.81,536.893 2043.66,535.752 2040.75,535.752 C2035.11,535.752 2030.81,541.205 2030.81,548.393 C2030.81,555.502 2034.95,560.549 2040.75,560.549 C2043.91,560.549 2046.06,559.205 2047.66,556.205 L2047.66,560.143 M2041.75,538.455 C2043.81,538.455 2045.75,539.955 2046.66,542.252 C2047.31,543.752 2047.61,545.799 2047.61,548.252 C2047.61,554.096 2045.31,557.846 2041.7,557.846 C2038.16,557.846 2036.06,554.549 2036.06,549.002 C2036.06,546.002 2036.36,543.752 2037,542.096 C2037.86,539.846 2039.7,538.455 2041.75,538.455 M2070.25,535.752 C2064.11,535.752 2059.36,541.205 2059.36,548.205 C2059.36,555.049 2064.16,560.549 2070.16,560.549 C2076.16,560.549 2080.95,555.049 2080.95,548.143 C2080.95,541.299 2076.16,535.752 2070.25,535.752 M2070.25,537.893 C2073.75,537.893 2075.7,541.549 2075.7,548.143 C2075.7,554.799 2073.75,558.393 2070.16,558.393 C2066.56,558.393 2064.61,554.799 2064.61,548.205 C2064.61,541.393 2066.5,537.893 2070.25,537.893"/>
<path class="Lyrics" d="M1822.27,535.955 L1820.52,535.955 L1819.06,537.752 C1817.27,536.346 1815.47,535.752 1812.97,535.752 C1808.56,535.752 1805.67,538.596 1805.67,543.002 C1805.67,547.705 1808.72,548.893 1812.72,549.846 L1815.36,550.455 C1819.31,551.393 1820.72,552.393 1820.72,554.393 C1820.72,556.752 1818.67,558.393 1815.77,558.393 C1811.52,558.393 1808.52,555.705 1807.31,550.705 L1805.31,550.705 L1805.31,560.143 L1807.06,560.143 L1808.81,558.096 C1810.86,559.752 1813.11,560.549 1815.67,560.549 C1820.56,560.549 1823.81,557.502 1823.81,552.846 C1823.81,550.643 1823.11,548.955 1821.72,547.799 C1820.52,546.752 1819.52,546.346 1816.47,545.705 L1813.97,545.143 C1811.22,544.549 1811.22,544.549 1810.31,544.049 C1809.22,543.549 1808.56,542.502 1808.56,541.393 C1808.56,539.346 1810.47,537.955 1813.22,537.955 C1817.31,537.955 1819.31,540.846 1820.52,544.346 L1822.27,544.346 L1822.27,535.955 M1833.72,524.049 C1832.11,524.049 1830.81,525.346 1830.81,526.939 C1830.81,528.549 1832.11,529.846 1833.67,529.846 C1835.31,529.846 1836.61,528.549 1836.61,526.939 C1836.61,525.346 1835.31,524.049 1833.72,524.049 M1836.06,536.502 L1826.67,537.049 L1826.67,539.205 L1829.22,539.205 C1831.11,539.252 1831.36,539.549 1831.36,541.705 L1831.36,556.002 C1831.31,556.752 1831.27,557.049 1831.06,557.299 C1830.72,557.752 1829.77,557.955 1827.61,558.002 L1827.27,558.002 L1827.27,559.799 L1840.22,559.799 L1840.22,558.002 L1839.86,558.002 C1836.52,557.893 1836.06,557.643 1836.06,555.846 L1836.06,536.502 "/>
<path class="Lyrics" d="M642.226,536.502 L633.366,537.049 L633.366,539.205 L635.413,539.205 C637.32,539.252 637.57,539.549 637.57,541.705 L637.57,556.002 C637.523,556.752 637.476,557.049 637.273,557.299 C636.913,557.752 635.913,557.955 633.773,558.002 L633.57,558.002 L633.57,559.799 L646.913,559.799 L646.913,558.002 L646.023,558.002 C642.663,557.893 642.226,557.643 642.226,555.846 L642.226,553.143 C642.273,544.752 645.273,538.346 649.163,538.143 C648.476,538.955 648.273,539.455 648.273,540.393 C648.273,542.002 649.413,543.143 651.023,543.143 C652.866,543.143 654.07,541.799 654.07,539.799 C654.07,537.346 652.366,535.752 649.726,535.752 C646.57,535.752 643.866,538.252 642.226,542.705 L642.226,536.502 M677.57,548.549 C677.616,541.049 673.366,535.752 667.273,535.752 C660.866,535.752 656.07,541.299 656.07,548.799 C656.07,555.846 660.616,560.549 667.366,560.549 C672.163,560.549 675.523,558.205 677.57,553.455 L675.82,552.502 C673.773,556.346 671.663,557.846 668.32,557.846 C665.773,557.846 663.913,556.799 662.616,554.549 C661.726,553.049 661.32,551.299 661.366,548.549 L677.57,548.549 M661.413,546.393 C661.413,542.893 663.023,537.893 667.226,537.893 C670.226,537.893 672.226,540.549 672.226,544.596 C672.226,546.002 671.773,546.393 670.163,546.393 L661.413,546.393 "/>
<path class="Lyrics" d="M413.93,560.143 L422.633,559.799 L422.633,557.643 L421.727,557.643 C418.883,557.502 418.633,557.205 418.633,554.002 L418.633,522.939 L408.836,523.502 L408.836,525.643 L411.774,525.643 C413.68,525.689 413.93,526.002 413.93,528.143 L413.93,539.455 C412.086,536.893 409.93,535.752 407.024,535.752 C401.383,535.752 397.086,541.205 397.086,548.393 C397.086,555.502 401.227,560.549 407.024,560.549 C410.18,560.549 412.336,559.205 413.93,556.205 L413.93,560.143 M408.024,538.455 C410.086,538.455 412.024,539.955 412.93,542.252 C413.586,543.752 413.883,545.799 413.883,548.252 C413.883,554.096 411.586,557.846 407.977,557.846 C404.43,557.846 402.336,554.549 402.336,549.002 C402.336,546.002 402.633,543.752 403.274,542.096 C404.133,539.846 405.977,538.455 408.024,538.455 M436.524,535.752 C430.383,535.752 425.633,541.205 425.633,548.205 C425.633,555.049 430.43,560.549 436.43,560.549 C442.43,560.549 447.227,555.049 447.227,548.143 C447.227,541.299 442.43,535.752 436.524,535.752 M436.524,537.893 C440.024,537.893 441.977,541.549 441.977,548.143 C441.977,554.799 440.024,558.393 436.43,558.393 C432.836,558.393 430.883,554.799 430.883,548.205 C430.883,541.393 432.774,537.893 436.524,537.893"/>
<path class="Lyrics" d="M1342.99,535.955 L1341.24,535.955 L1339.79,537.752 C1337.99,536.346 1336.19,535.752 1333.69,535.752 C1329.29,535.752 1326.39,538.596 1326.39,543.002 C1326.39,547.705 1329.44,548.893 1333.44,549.846 L1336.08,550.455 C1340.04,551.393 1341.44,552.393 1341.44,554.393 C1341.44,556.752 1339.39,558.393 1336.49,558.393 C1332.24,558.393 1329.24,555.705 1328.04,550.705 L1326.04,550.705 L1326.04,560.143 L1327.79,560.143 L1329.54,558.096 C1331.58,559.752 1333.83,560.549 1336.39,560.549 C1341.29,560.549 1344.54,557.502 1344.54,552.846 C1344.54,550.643 1343.83,548.955 1342.44,547.799 C1341.24,546.752 1340.24,546.346 1337.19,545.705 L1334.69,545.143 C1331.94,544.549 1331.94,544.549 1331.04,544.049 C1329.94,543.549 1329.29,542.502 1329.29,541.393 C1329.29,539.346 1331.19,537.955 1333.94,537.955 C1338.04,537.955 1340.04,540.846 1341.24,544.346 L1342.99,544.346 L1342.99,535.955 M1359.08,535.752 C1352.94,535.752 1348.19,541.205 1348.19,548.205 C1348.19,555.049 1352.99,560.549 1358.99,560.549 C1364.99,560.549 1369.79,555.049 1369.79,548.143 C1369.79,541.299 1364.99,535.752 1359.08,535.752 M1359.08,537.893 C1362.58,537.893 1364.54,541.549 1364.54,548.143 C1364.54,554.799 1362.58,558.393 1358.99,558.393 C1355.39,558.393 1353.44,554.799 1353.44,548.205 C1353.44,541.393 1355.33,537.893 1359.08,537.893 M1381.69,522.939 L1372.44,523.502 L1372.44,525.643 L1374.89,525.643 C1376.74,525.689 1376.99,526.002 1376.99,528.143 L1376.99,556.002 C1376.94,556.752 1376.89,557.049 1376.69,557.299 C1376.33,557.752 1375.39,557.955 1373.24,558.002 L1372.89,558.002 L1372.89,559.799 L1385.83,559.799 L1385.83,558.002 L1385.49,558.002 C1382.14,557.893 1381.69,557.643 1381.69,555.846 L1381.69,522.939 "/>
<path class="Lyrics" d="M1577.58,522.939 L1568.33,523.502 L1568.33,525.643 L1570.78,525.643 C1572.63,525.689 1572.88,526.002 1572.88,528.143 L1572.88,556.002 C1572.83,556.752 1572.78,557.049 1572.58,557.299 C1572.22,557.752 1571.28,557.955 1569.13,558.002 L1568.78,558.002 L1568.78,559.799 L1581.72,559.799 L1581.72,558.002 L1581.38,558.002 C1578.03,557.893 1577.58,557.643 1577.58,555.846 L1577.58,522.939 M1605.97,543.705 C1605.97,540.549 1605.43,538.955 1603.97,537.752 C1602.33,536.393 1599.88,535.752 1596.68,535.752 C1591.03,535.752 1586.93,538.393 1586.93,542.049 C1586.93,543.893 1588.08,545.096 1589.83,545.096 C1591.43,545.096 1592.53,544.049 1592.53,542.549 C1592.53,541.893 1592.28,541.205 1591.78,540.502 C1591.47,540.143 1591.43,540.049 1591.43,539.799 C1591.43,538.799 1593.43,537.893 1595.83,537.893 C1597.43,537.893 1599.18,538.393 1599.97,539.143 C1600.93,539.955 1601.28,541.143 1601.28,543.393 L1601.28,545.346 C1596.08,546.252 1594.43,546.643 1591.97,547.596 C1587.63,549.205 1585.58,551.502 1585.58,554.705 C1585.58,558.299 1588.38,560.549 1592.83,560.549 C1596.28,560.549 1599.38,559.143 1601.53,556.596 C1602.33,559.143 1603.58,560.143 1605.93,560.143 C1608.18,560.143 1610.53,558.705 1610.53,557.252 C1610.53,556.893 1610.33,556.643 1610.03,556.643 C1609.83,556.643 1609.63,556.705 1609.28,556.846 C1608.58,557.143 1608.28,557.205 1607.88,557.205 C1606.47,557.205 1605.97,556.299 1605.97,553.752 L1605.97,543.705 M1601.28,549.799 C1601.28,552.799 1601.13,553.502 1600.28,554.799 C1599.03,556.643 1596.78,557.893 1594.58,557.893 C1592.28,557.893 1590.63,556.252 1590.63,554.002 C1590.63,551.893 1591.68,550.393 1593.88,549.346 C1595.43,548.643 1597.38,548.143 1601.28,547.502 L1601.28,549.799 "/>
<path class="Lyrics" d="M655.32,835.733 L653.57,835.733 L652.116,837.53 C650.32,836.124 648.523,835.53 646.023,835.53 C641.616,835.53 638.726,838.374 638.726,842.78 C638.726,847.483 641.773,848.671 645.773,849.624 L648.413,850.233 C652.366,851.171 653.773,852.171 653.773,854.171 C653.773,856.53 651.726,858.171 648.82,858.171 C644.57,858.171 641.57,855.483 640.366,850.483 L638.366,850.483 L638.366,859.921 L640.116,859.921 L641.866,857.874 C643.913,859.53 646.163,860.327 648.726,860.327 C653.616,860.327 656.866,857.28 656.866,852.624 C656.866,850.421 656.163,848.733 654.773,847.577 C653.57,846.53 652.57,846.124 649.523,845.483 L647.023,844.921 C644.273,844.327 644.273,844.327 643.366,843.827 C642.273,843.327 641.616,842.28 641.616,841.171 C641.616,839.124 643.523,837.733 646.273,837.733 C650.366,837.733 652.366,840.624 653.57,844.124 L655.32,844.124 L655.32,835.733 M666.773,823.827 C665.163,823.827 663.866,825.124 663.866,826.718 C663.866,828.327 665.163,829.624 666.726,829.624 C668.366,829.624 669.663,828.327 669.663,826.718 C669.663,825.124 668.366,823.827 666.773,823.827 M669.116,836.28 L659.726,836.827 L659.726,838.983 L662.273,838.983 C664.163,839.03 664.413,839.327 664.413,841.483 L664.413,855.78 C664.366,856.53 664.32,856.827 664.116,857.077 C663.773,857.53 662.82,857.733 660.663,857.78 L660.32,857.78 L660.32,859.577 L673.273,859.577 L673.273,857.78 L672.913,857.78 C669.57,857.671 669.116,857.421 669.116,855.624 L669.116,836.28 "/>
<path class="Lyrics" d="M1343.54,836.28 L1343.54,833.421 C1343.54,830.921 1343.69,829.28 1344.08,828.28 C1344.89,826.077 1346.64,824.718 1348.64,824.718 C1349.69,824.718 1350.33,825.03 1350.33,825.577 C1350.33,825.78 1350.33,825.827 1350.04,826.218 C1349.74,826.671 1349.58,827.28 1349.58,827.827 C1349.58,829.327 1350.79,830.468 1352.33,830.468 C1353.99,830.468 1355.14,829.218 1355.14,827.421 C1355.14,824.53 1352.64,822.718 1348.58,822.718 C1345.14,822.718 1342.58,823.921 1340.83,826.421 C1339.33,828.53 1338.83,830.671 1338.83,834.733 L1338.83,836.28 L1334.44,836.28 L1334.44,838.421 L1338.83,838.421 L1338.83,855.78 C1338.79,856.483 1338.74,856.78 1338.54,857.077 C1338.19,857.53 1337.24,857.733 1335.08,857.78 L1334.89,857.78 L1334.89,859.577 L1348.24,859.577 L1348.24,857.78 L1347.33,857.78 C1343.99,857.671 1343.54,857.421 1343.54,855.624 L1343.54,838.421 L1349.04,838.421 L1349.04,836.28 L1343.54,836.28 M1372.08,843.483 C1372.08,840.327 1371.54,838.733 1370.08,837.53 C1368.44,836.171 1365.99,835.53 1362.79,835.53 C1357.14,835.53 1353.04,838.171 1353.04,841.827 C1353.04,843.671 1354.19,844.874 1355.94,844.874 C1357.54,844.874 1358.64,843.827 1358.64,842.327 C1358.64,841.671 1358.39,840.983 1357.89,840.28 C1357.58,839.921 1357.54,839.827 1357.54,839.577 C1357.54,838.577 1359.54,837.671 1361.94,837.671 C1363.54,837.671 1365.29,838.171 1366.08,838.921 C1367.04,839.733 1367.39,840.921 1367.39,843.171 L1367.39,845.124 C1362.19,846.03 1360.54,846.421 1358.08,847.374 C1353.74,848.983 1351.69,851.28 1351.69,854.483 C1351.69,858.077 1354.49,860.327 1358.94,860.327 C1362.39,860.327 1365.49,858.921 1367.64,856.374 C1368.44,858.921 1369.69,859.921 1372.04,859.921 C1374.29,859.921 1376.64,858.483 1376.64,857.03 C1376.64,856.671 1376.44,856.421 1376.14,856.421 C1375.94,856.421 1375.74,856.483 1375.39,856.624 C1374.69,856.921 1374.39,856.983 1373.99,856.983 C1372.58,856.983 1372.08,856.077 1372.08,853.53 L1372.08,843.483 M1367.39,849.577 C1367.39,852.577 1367.24,853.28 1366.39,854.577 C1365.14,856.421 1362.89,857.671 1360.69,857.671 C1358.39,857.671 1356.74,856.03 1356.74,853.78 C1356.74,851.671 1357.79,850.171 1359.99,849.124 C1361.54,848.421 1363.49,847.921 1367.39,847.28 L1367.39,849.577 "/>
<path class="Lyrics" d="M1569.43,836.28 L1560.53,836.827 L1560.53,838.983 L1562.58,838.983 C1564.47,839.03 1564.72,839.327 1564.72,841.483 L1564.72,855.78 C1564.68,856.53 1564.63,856.827 1564.43,857.077 C1564.08,857.53 1563.13,857.733 1560.97,857.78 L1560.78,857.78 L1560.78,859.577 L1573.38,859.577 L1573.38,857.78 L1573.18,857.78 C1569.88,857.671 1569.43,857.421 1569.43,855.577 L1569.43,846.327 C1569.43,841.874 1571.88,838.577 1575.13,838.577 C1577.97,838.577 1579.43,840.624 1579.43,844.671 L1579.43,855.827 C1579.38,856.483 1579.33,856.827 1579.08,857.077 C1578.78,857.53 1577.78,857.733 1575.63,857.78 L1575.43,857.78 L1575.43,859.577 L1588.08,859.577 L1588.08,857.78 L1587.88,857.78 C1584.58,857.671 1584.13,857.421 1584.13,855.624 L1584.13,846.78 C1584.13,841.78 1586.38,838.577 1589.88,838.577 C1592.74,838.577 1594.13,840.733 1594.13,845.233 L1594.13,855.78 C1594.08,856.483 1594.03,856.827 1593.78,857.077 C1593.49,857.53 1592.49,857.733 1590.33,857.78 L1590.13,857.78 L1590.13,859.577 L1602.78,859.577 L1602.78,857.78 L1602.58,857.78 C1599.28,857.671 1598.83,857.421 1598.83,855.577 L1598.83,844.233 C1598.83,841.124 1598.53,840.077 1597.24,838.374 C1595.78,836.53 1593.74,835.53 1591.33,835.53 C1588.08,835.53 1585.68,837.077 1583.53,840.53 C1582.68,837.53 1579.97,835.53 1576.63,835.53 C1573.58,835.53 1571.38,836.983 1569.43,840.124 L1569.43,836.28 M1611.33,823.827 C1609.72,823.827 1608.43,825.124 1608.43,826.718 C1608.43,828.327 1609.72,829.624 1611.28,829.624 C1612.93,829.624 1614.22,828.327 1614.22,826.718 C1614.22,825.124 1612.93,823.827 1611.33,823.827 M1613.68,836.28 L1604.28,836.827 L1604.28,838.983 L1606.83,838.983 C1608.72,839.03 1608.97,839.327 1608.97,841.483 L1608.97,855.78 C1608.93,856.53 1608.88,856.827 1608.68,857.077 C1608.33,857.53 1607.38,857.733 1605.22,857.78 L1604.88,857.78 L1604.88,859.577 L1617.83,859.577 L1617.83,857.78 L1617.47,857.78 C1614.13,857.671 1613.68,857.421 1613.68,855.624 L1613.68,836.28 "/>
<path class="Lyrics" d="M413.93,859.921 L422.633,859.577 L422.633,857.421 L421.727,857.421 C418.883,857.28 418.633,856.983 418.633,853.78 L418.633,822.718 L408.836,823.28 L408.836,825.421 L411.774,825.421 C413.68,825.468 413.93,825.78 413.93,827.921 L413.93,839.233 C412.086,836.671 409.93,835.53 407.024,835.53 C401.383,835.53 397.086,840.983 397.086,848.171 C397.086,855.28 401.227,860.327 407.024,860.327 C410.18,860.327 412.336,858.983 413.93,855.983 L413.93,859.921 M408.024,838.233 C410.086,838.233 412.024,839.733 412.93,842.03 C413.586,843.53 413.883,845.577 413.883,848.03 C413.883,853.874 411.586,857.624 407.977,857.624 C404.43,857.624 402.336,854.327 402.336,848.78 C402.336,845.78 402.633,843.53 403.274,841.874 C404.133,839.624 405.977,838.233 408.024,838.233 M436.524,835.53 C430.383,835.53 425.633,840.983 425.633,847.983 C425.633,854.827 430.43,860.327 436.43,860.327 C442.43,860.327 447.227,854.827 447.227,847.921 C447.227,841.077 442.43,835.53 436.524,835.53 M436.524,837.671 C440.024,837.671 441.977,841.327 441.977,847.921 C441.977,854.577 440.024,858.171 436.43,858.171 C432.836,858.171 430.883,854.577 430.883,847.983 C430.883,841.171 432.774,837.671 436.524,837.671"/>
<path class="Lyrics" d="M1809.17,836.28 L1800.31,836.827 L1800.31,838.983 L1802.36,838.983 C1804.27,839.03 1804.52,839.327 1804.52,841.483 L1804.52,855.78 C1804.47,856.53 1804.42,856.827 1804.22,857.077 C1803.86,857.53 1802.86,857.733 1800.72,857.78 L1800.52,857.78 L1800.52,859.577 L1813.86,859.577 L1813.86,857.78 L1812.97,857.78 C1809.61,857.671 1809.17,857.421 1809.17,855.624 L1809.17,852.921 C1809.22,844.53 1812.22,838.124 1816.11,837.921 C1815.42,838.733 1815.22,839.233 1815.22,840.171 C1815.22,841.78 1816.36,842.921 1817.97,842.921 C1819.81,842.921 1821.02,841.577 1821.02,839.577 C1821.02,837.124 1819.31,835.53 1816.67,835.53 C1813.52,835.53 1810.81,838.03 1809.17,842.483 L1809.17,836.28 M1844.52,848.327 C1844.56,840.827 1840.31,835.53 1834.22,835.53 C1827.81,835.53 1823.02,841.077 1823.02,848.577 C1823.02,855.624 1827.56,860.327 1834.31,860.327 C1839.11,860.327 1842.47,857.983 1844.52,853.233 L1842.77,852.28 C1840.72,856.124 1838.61,857.624 1835.27,857.624 C1832.72,857.624 1830.86,856.577 1829.56,854.327 C1828.67,852.827 1828.27,851.077 1828.31,848.327 L1844.52,848.327 M1828.36,846.171 C1828.36,842.671 1829.97,837.671 1834.17,837.671 C1837.17,837.671 1839.17,840.327 1839.17,844.374 C1839.17,845.78 1838.72,846.171 1837.11,846.171 L1828.36,846.171 "/>
<path class="Lyrics" d="M1109.6,835.733 L1107.85,835.733 L1106.4,837.53 C1104.6,836.124 1102.8,835.53 1100.3,835.53 C1095.9,835.53 1093.01,838.374 1093.01,842.78 C1093.01,847.483 1096.05,848.671 1100.05,849.624 L1102.69,850.233 C1106.65,851.171 1108.05,852.171 1108.05,854.171 C1108.05,856.53 1106.01,858.171 1103.1,858.171 C1098.85,858.171 1095.85,855.483 1094.65,850.483 L1092.65,850.483 L1092.65,859.921 L1094.4,859.921 L1096.15,857.874 C1098.19,859.53 1100.44,860.327 1103.01,860.327 C1107.9,860.327 1111.15,857.28 1111.15,852.624 C1111.15,850.421 1110.44,848.733 1109.05,847.577 C1107.85,846.53 1106.85,846.124 1103.8,845.483 L1101.3,844.921 C1098.55,844.327 1098.55,844.327 1097.65,843.827 C1096.55,843.327 1095.9,842.28 1095.9,841.171 C1095.9,839.124 1097.8,837.733 1100.55,837.733 C1104.65,837.733 1106.65,840.624 1107.85,844.124 L1109.6,844.124 L1109.6,835.733 M1125.69,835.53 C1119.55,835.53 1114.8,840.983 1114.8,847.983 C1114.8,854.827 1119.6,860.327 1125.6,860.327 C1131.6,860.327 1136.4,854.827 1136.4,847.921 C1136.4,841.077 1131.6,835.53 1125.69,835.53 M1125.69,837.671 C1129.19,837.671 1131.15,841.327 1131.15,847.921 C1131.15,854.577 1129.19,858.171 1125.6,858.171 C1122.01,858.171 1120.05,854.577 1120.05,847.983 C1120.05,841.171 1121.94,837.671 1125.69,837.671 M1148.3,822.718 L1139.05,823.28 L1139.05,825.421 L1141.51,825.421 C1143.35,825.468 1143.6,825.78 1143.6,827.921 L1143.6,855.78 C1143.55,856.53 1143.51,856.827 1143.3,857.077 C1142.94,857.53 1142.01,857.733 1139.85,857.78 L1139.51,857.78 L1139.51,859.577 L1152.44,859.577 L1152.44,857.78 L1152.1,857.78 C1148.76,857.671 1148.3,857.421 1148.3,855.624 L1148.3,822.718 "/>
<path class="Lyrics" d="M877.412,822.718 L868.162,823.28 L868.162,825.421 L870.615,825.421 C872.459,825.468 872.709,825.78 872.709,827.921 L872.709,855.78 C872.662,856.53 872.615,856.827 872.412,857.077 C872.053,857.53 871.115,857.733 868.959,857.78 L868.615,857.78 L868.615,859.577 L881.553,859.577 L881.553,857.78 L881.209,857.78 C877.865,857.671 877.412,857.421 877.412,855.624 L877.412,822.718 M905.803,843.483 C905.803,840.327 905.256,838.733 903.803,837.53 C902.162,836.171 899.709,835.53 896.506,835.53 C890.865,835.53 886.756,838.171 886.756,841.827 C886.756,843.671 887.912,844.874 889.662,844.874 C891.256,844.874 892.365,843.827 892.365,842.327 C892.365,841.671 892.115,840.983 891.615,840.28 C891.303,839.921 891.256,839.827 891.256,839.577 C891.256,838.577 893.256,837.671 895.662,837.671 C897.256,837.671 899.006,838.171 899.803,838.921 C900.756,839.733 901.115,840.921 901.115,843.171 L901.115,845.124 C895.912,846.03 894.256,846.421 891.803,847.374 C887.459,848.983 885.412,851.28 885.412,854.483 C885.412,858.077 888.209,860.327 892.662,860.327 C896.115,860.327 899.209,858.921 901.365,856.374 C902.162,858.921 903.412,859.921 905.756,859.921 C908.006,859.921 910.365,858.483 910.365,857.03 C910.365,856.671 910.162,856.421 909.865,856.421 C909.662,856.421 909.459,856.483 909.115,856.624 C908.412,856.921 908.115,856.983 907.709,856.983 C906.303,856.983 905.803,856.077 905.803,853.53 L905.803,843.483 M901.115,849.577 C901.115,852.577 900.959,853.28 900.115,854.577 C898.865,856.421 896.615,857.671 894.412,857.671 C892.115,857.671 890.459,856.03 890.459,853.78 C890.459,851.671 891.506,850.171 893.709,849.124 C895.256,848.421 897.209,847.921 901.115,847.28 L901.115,849.577 "/>
<path class="Lyrics" d="M2047.66,859.921 L2056.36,859.577 L2056.36,857.421 L2055.45,857.421 C2052.61,857.28 2052.36,856.983 2052.36,853.78 L2052.36,822.718 L2042.56,823.28 L2042.56,825.421 L2045.5,825.421 C2047.41,825.468 2047.66,825.78 2047.66,827.921 L2047.66,839.233 C2045.81,836.671 2043.66,835.53 2040.75,835.53 C2035.11,835.53 2030.81,840.983 2030.81,848.171 C2030.81,855.28 2034.95,860.327 2040.75,860.327 C2043.91,860.327 2046.06,858.983 2047.66,855.983 L2047.66,859.921 M2041.75,838.233 C2043.81,838.233 2045.75,839.733 2046.66,842.03 C2047.31,843.53 2047.61,845.577 2047.61,848.03 C2047.61,853.874 2045.31,857.624 2041.7,857.624 C2038.16,857.624 2036.06,854.327 2036.06,848.78 C2036.06,845.78 2036.36,843.53 2037,841.874 C2037.86,839.624 2039.7,838.233 2041.75,838.233 M2070.25,835.53 C2064.11,835.53 2059.36,840.983 2059.36,847.983 C2059.36,854.827 2064.16,860.327 2070.16,860.327 C2076.16,860.327 2080.95,854.827 2080.95,847.921 C2080.95,841.077 2076.16,835.53 2070.25,835.53 M2070.25,837.671 C2073.75,837.671 2075.7,841.327 2075.7,847.921 C2075.7,854.577 2073.75,858.171 2070.16,858.171 C2066.56,858.171 2064.61,854.577 2064.61,847.983 C2064.61,841.171 2066.5,837.671 2070.25,837.671"/>
<path class="StaffText" d="M417.411,326.195 C415.724,328.242 411.114,329.789 406.521,329.899 L406.521,332.039 L410.911,332.039 C413.818,332.102 414.114,332.399 414.021,335.195 L414.021,355.242 C414.021,357.805 414.021,357.899 413.724,358.352 C413.318,358.852 412.364,359.055 409.568,359.055 L406.318,359.055 L406.318,361.399 L426.114,361.399 L426.114,359.055 L423.364,359.055 C420.568,359.055 419.614,358.852 419.224,358.352 C418.864,357.899 418.864,357.852 418.864,355.242 L418.864,334.602 C418.864,331.789 418.974,329.445 419.224,326.195 L417.411,326.195 M445.864,345.695 L471.068,345.695 L471.068,341.695 L445.864,341.695 L445.864,345.695 M445.864,355.805 L471.068,355.805 L471.068,351.805 L445.864,351.805 L445.864,355.805 M519.818,324.945 L517.927,324.945 L515.974,327.945 C512.724,325.399 510.521,324.539 506.864,324.539 C502.911,324.539 499.818,325.649 496.661,328.195 C491.724,332.195 489.411,337.242 489.411,343.992 C489.411,349.102 490.864,353.352 493.818,356.602 C496.911,360.102 501.521,362.149 506.318,362.149 C510.521,362.149 513.474,360.852 516.724,357.602 L518.568,362.102 L520.677,362.102 L520.677,351.102 C520.677,348.555 520.677,348.445 520.974,347.992 C521.427,347.445 522.318,347.305 525.177,347.305 L525.927,347.305 L525.927,344.945 L510.021,344.945 L510.021,347.305 L510.974,347.305 C515.177,347.305 515.521,347.555 515.521,350.352 C515.521,352.492 515.177,354.445 514.521,355.649 C513.271,358.102 510.068,359.805 506.818,359.805 C503.568,359.805 500.364,358.149 498.661,355.649 C496.818,352.852 496.021,349.352 496.021,343.992 C496.021,332.852 499.724,326.899 506.661,326.899 C512.364,326.899 516.318,330.992 518.364,338.992 L520.521,338.992 L519.818,324.945 "/>
<path class="Page" d="M237.828,237.973 L237.219,240.723 C236.719,242.926 236.391,243.63 235.953,243.911 C235.406,244.301 235.297,244.301 231.828,244.348 L221.219,244.348 C223.141,242.692 224.578,241.661 226.719,240.223 C234.469,235.223 236.063,234.005 237.656,231.973 C239.531,229.505 240.625,226.583 240.625,224.005 C240.625,218.114 234.859,213.661 227.109,213.661 C219.625,213.661 213.844,218.505 213.844,224.77 C213.844,228.614 216,231.098 219.297,231.098 C222.156,231.098 223.969,229.286 223.969,226.426 C223.969,224.051 222.922,222.676 220.391,221.473 C219.781,221.192 219.516,220.864 219.516,220.426 C219.516,218.661 222.484,216.801 225.234,216.801 C229.078,216.801 231.281,219.161 231.281,223.239 C231.281,227.801 229.516,231.036 223.688,237.255 C217.531,243.801 215.391,246.27 212.641,250.239 L212.641,252.817 C214.063,252.661 214.672,252.598 215.5,252.598 L236.172,252.598 C237.219,252.598 237.875,252.661 239.531,252.817 L240.797,237.973 L237.828,237.973 "/>
<path class="Bracket" transform="matrix(3.596,0,0,3.98979,181.331,785.177)" d="M0.90625,-50 C2.70313,-51.9063 6.20313,-55.7969 6.20313,-63 C6.20313,-72.1094 2.29688,-81.3125 2.29688,-87 C2.29688,-93.1094 5.79688,-98.8125 6,-99 C6,-99.1094 6,-99.1094 6,-99.2031 C6,-99.3125 6,-99.4063 5.90625,-99.5 C5.79688,-99.5 5.59375,-99.5 5.5,-99.3125 C5.40625,-99.2031 0,-93.8125 0,-85.6094 C0,-76.8125 3.5,-70.6094 3.5,-59.1094 C3.5,-56.9063 2.59375,-53.4063 0.09375,-50.2969 C0,-50.2969 0,-50.1094 -0.09375,-50 C-0.09375,-49.9063 0,-49.7969 0.09375,-49.7031 C2.59375,-46.6094 3.5,-43.1094 3.5,-40.9063 C3.5,-29.4063 0,-23.2031 0,-14.4063 C0,-6.29688 5.40625,-0.796875 5.5,-0.703125 C5.59375,-0.5 5.79688,-0.40625 5.90625,-0.5 C6,-0.59375 6.09375,-0.703125 6,-0.796875 C6,-0.796875 6,-0.90625 6,-1 C5.79688,-1.20313 2.29688,-6.90625 2.29688,-13 C2.29688,-18.7031 6.20313,-27.9063 6.20313,-37 C6.20313,-44.2969 2.70313,-48.1094 0.90625,-50"/>
</svg>
