<?xml version="1.0" encoding="UTF-8" standalone="no"?>
<svg width="2520px" height="1008px" viewBox="0 0 2520 1008"
 xmlns="http://www.w3.org/2000/svg" xmlns:xlink="http://www.w3.org/1999/xlink" version="1.2" baseProfile="tiny">
<title>大调调性 (13)</title>
<desc>Generated by MuseScore Studio 4.4.4</desc>
<path class="" fill="#ffffff" fill-rule="evenodd" d="M0,0 L2520,0 L2520,1008 L0,1008 L0,0 "/>
<polyline class="StaffLines" fill="none" stroke="#000000" stroke-width="2.73" stroke-linejoin="bevel" points="212.598,386.199 2307.8,386.199"/>
<polyline class="StaffLines" fill="none" stroke="#000000" stroke-width="2.73" stroke-linejoin="bevel" points="212.598,410.999 2307.8,410.999"/>
<polyline class="StaffLines" fill="none" stroke="#000000" stroke-width="2.73" stroke-linejoin="bevel" points="212.598,435.799 2307.8,435.799"/>
<polyline class="StaffLines" fill="none" stroke="#000000" stroke-width="2.73" stroke-linejoin="bevel" points="212.598,460.599 2307.8,460.599"/>
<polyline class="StaffLines" fill="none" stroke="#000000" stroke-width="2.73" stroke-linejoin="bevel" points="212.598,485.399 2307.8,485.399"/>
<polyline class="StaffLines" fill="none" stroke="#000000" stroke-width="2.73" stroke-linejoin="bevel" points="212.598,685.977 2307.8,685.977"/>
<polyline class="StaffLines" fill="none" stroke="#000000" stroke-width="2.73" stroke-linejoin="bevel" points="212.598,710.777 2307.8,710.777"/>
<polyline class="StaffLines" fill="none" stroke="#000000" stroke-width="2.73" stroke-linejoin="bevel" points="212.598,735.577 2307.8,735.577"/>
<polyline class="StaffLines" fill="none" stroke="#000000" stroke-width="2.73" stroke-linejoin="bevel" points="212.598,760.377 2307.8,760.377"/>
<polyline class="StaffLines" fill="none" stroke="#000000" stroke-width="2.73" stroke-linejoin="bevel" points="212.598,785.177 2307.8,785.177"/>
<path class="MeasureNumber" d="M228.317,322.927 C227.317,327.567 224.63,335.52 218.911,335.52 C217.755,335.52 217.005,335.036 217.005,334.317 C217.005,334.036 217.083,333.927 217.395,333.442 C217.801,332.927 218.005,332.442 218.005,331.88 C218.005,330.567 216.958,329.567 215.598,329.567 C214.005,329.567 212.88,330.755 212.88,332.52 C212.88,335.239 215.442,337.192 219.005,337.192 C227.755,337.192 233.348,326.005 233.348,318.395 C233.348,312.161 230.348,308.442 225.395,308.442 C219.442,308.442 215.005,313.927 215.005,319.645 C215.005,323.442 217.911,326.317 221.801,326.317 C224.442,326.317 226.473,325.239 228.317,322.927 M225.364,310.13 C227.911,310.13 229.551,312.161 229.551,315.364 C229.551,320.317 226.833,323.958 223.161,323.958 C220.63,323.958 219.239,322.239 219.239,319.239 C219.239,315.645 220.958,310.13 225.364,310.13 M257.036,308.442 C254.911,308.677 252.317,308.849 250.083,308.849 C248.958,308.849 247.676,308.802 246.239,308.724 C244.911,308.645 243.598,308.567 242.239,308.489 L241.239,308.442 L237.364,316.88 L238.833,317.364 L239.801,315.755 C241.676,312.645 242.551,312.208 246.63,312.239 L253.395,312.239 L249.036,318.489 C243.911,325.677 243.911,325.677 241.958,328.88 C240.192,331.724 239.473,333.474 239.473,334.911 C239.473,336.317 240.364,337.192 241.755,337.192 C243.239,337.192 243.989,336.474 244.52,334.599 C246.52,327.083 247.723,324.474 253.27,315.489 L257.036,309.645 L257.036,308.442 "/>
<polyline class="BarLine" fill="none" stroke="#000000" stroke-width="4.46" stroke-linejoin="bevel" points="893.127,384.835 893.127,685.977"/>
<polyline class="BarLine" fill="none" stroke="#000000" stroke-width="4.46" stroke-linejoin="bevel" points="214.83,384.835 214.83,685.977"/>
<polyline class="BarLine" fill="none" stroke="#000000" stroke-width="4.46" stroke-linejoin="bevel" points="1686.73,384.835 1686.73,685.977"/>
<polyline class="BarLine" fill="none" stroke="#000000" stroke-width="4.46" stroke-linejoin="bevel" points="1488.33,384.835 1488.33,685.977"/>
<polyline class="BarLine" fill="none" stroke="#000000" stroke-width="4.46" stroke-linejoin="bevel" points="1091.53,384.835 1091.53,685.977"/>
<polyline class="BarLine" fill="none" stroke="#000000" stroke-width="4.46" stroke-linejoin="bevel" points="694.726,384.835 694.726,685.977"/>
<polyline class="BarLine" fill="none" stroke="#000000" stroke-width="4.46" stroke-linejoin="bevel" points="1289.93,384.835 1289.93,685.977"/>
<polyline class="BarLine" fill="none" stroke="#000000" stroke-width="4.46" stroke-linejoin="bevel" points="2070.73,384.835 2070.73,685.977"/>
<polyline class="BarLine" fill="none" stroke="#000000" stroke-width="13.64" stroke-linejoin="bevel" points="2088.95,384.835 2088.95,685.977"/>
<polyline class="BarLine" fill="none" stroke="#000000" stroke-width="4.46" stroke-linejoin="bevel" points="1885.13,384.835 1885.13,685.977"/>
<polyline class="BarLine" fill="none" stroke="#000000" stroke-width="4.46" stroke-linejoin="bevel" points="214.83,684.613 214.83,786.541"/>
<polyline class="BarLine" fill="none" stroke="#000000" stroke-width="4.46" stroke-linejoin="bevel" points="893.127,684.613 893.127,786.541"/>
<polyline class="BarLine" fill="none" stroke="#000000" stroke-width="4.46" stroke-linejoin="bevel" points="1289.93,684.613 1289.93,786.541"/>
<polyline class="BarLine" fill="none" stroke="#000000" stroke-width="4.46" stroke-linejoin="bevel" points="1686.73,684.613 1686.73,786.541"/>
<polyline class="BarLine" fill="none" stroke="#000000" stroke-width="4.46" stroke-linejoin="bevel" points="1488.33,684.613 1488.33,786.541"/>
<polyline class="BarLine" fill="none" stroke="#000000" stroke-width="4.46" stroke-linejoin="bevel" points="1091.53,684.613 1091.53,786.541"/>
<polyline class="BarLine" fill="none" stroke="#000000" stroke-width="4.46" stroke-linejoin="bevel" points="694.726,684.613 694.726,786.541"/>
<polyline class="BarLine" fill="none" stroke="#000000" stroke-width="4.46" stroke-linejoin="bevel" points="2070.73,684.613 2070.73,786.541"/>
<polyline class="BarLine" fill="none" stroke="#000000" stroke-width="13.64" stroke-linejoin="bevel" points="2088.95,684.613 2088.95,786.541"/>
<polyline class="BarLine" fill="none" stroke="#000000" stroke-width="4.46" stroke-linejoin="bevel" points="1885.13,684.613 1885.13,786.541"/>
<polyline class="LedgerLine" fill="none" stroke="#000000" stroke-width="3.97" stroke-linejoin="bevel" points="529.558,636.377 582.925,636.377"/>
<polyline class="LedgerLine" fill="none" stroke="#000000" stroke-width="3.97" stroke-linejoin="bevel" points="529.558,611.577 582.925,611.577"/>
<polyline class="LedgerLine" fill="none" stroke="#000000" stroke-width="3.97" stroke-linejoin="bevel" points="529.558,661.177 582.925,661.177"/>
<polyline class="LedgerLine" fill="none" stroke="#000000" stroke-width="3.97" stroke-linejoin="bevel" points="918.175,636.377 971.541,636.377"/>
<polyline class="LedgerLine" fill="none" stroke="#000000" stroke-width="3.97" stroke-linejoin="bevel" points="1314.98,661.177 1368.34,661.177"/>
<polyline class="LedgerLine" fill="none" stroke="#000000" stroke-width="3.97" stroke-linejoin="bevel" points="918.175,661.177 971.541,661.177"/>
<polyline class="LedgerLine" fill="none" stroke="#000000" stroke-width="3.97" stroke-linejoin="bevel" points="719.775,661.177 773.141,661.177"/>
<polyline class="LedgerLine" fill="none" stroke="#000000" stroke-width="3.97" stroke-linejoin="bevel" points="719.775,636.377 773.141,636.377"/>
<polyline class="LedgerLine" fill="none" stroke="#000000" stroke-width="3.97" stroke-linejoin="bevel" points="1116.58,661.177 1169.94,661.177"/>
<path class="Note" transform="matrix(0.992001,0,0,0.992001,537.742,460.599)" d="M18.7031,-13.5938 C4.90625,-13.5938 0,-6.59375 0,-0.09375 C0,6.40625 4.90625,13.4063 18.7031,13.4063 C32.5,13.4063 37.2969,6.40625 37.2969,-0.09375 C37.2969,-6.59375 32.5,-13.5938 18.7031,-13.5938 M19.5,10.2031 C16.7031,10.2031 14.7969,9.40625 13.5,6.90625 C12.2031,4.40625 10.4063,-2.09375 10.2969,-4.70313 C10.0938,-7.40625 11.0938,-9 13.5,-9.79688 C14.7031,-10.2031 16.2969,-10.4063 17.9063,-10.4063 C20.5938,-10.4063 22.4063,-9.79688 23.7969,-7.09375 C25.2031,-4.5 27.1094,2 27.1094,4.5 C27.1094,9.40625 23.5,10.2031 19.5,10.2031"/>
<path class="Note" transform="matrix(0.992001,0,0,0.992001,1124.76,423.399)" d="M18.7031,-13.5938 C4.90625,-13.5938 0,-6.59375 0,-0.09375 C0,6.40625 4.90625,13.4063 18.7031,13.4063 C32.5,13.4063 37.2969,6.40625 37.2969,-0.09375 C37.2969,-6.59375 32.5,-13.5938 18.7031,-13.5938 M19.5,10.2031 C16.7031,10.2031 14.7969,9.40625 13.5,6.90625 C12.2031,4.40625 10.4063,-2.09375 10.2969,-4.70313 C10.0938,-7.40625 11.0938,-9 13.5,-9.79688 C14.7031,-10.2031 16.2969,-10.4063 17.9063,-10.4063 C20.5938,-10.4063 22.4063,-9.79688 23.7969,-7.09375 C25.2031,-4.5 27.1094,2 27.1094,4.5 C27.1094,9.40625 23.5,10.2031 19.5,10.2031"/>
<path class="Note" transform="matrix(0.992001,0,0,0.992001,1719.96,386.199)" d="M18.7031,-13.5938 C4.90625,-13.5938 0,-6.59375 0,-0.09375 C0,6.40625 4.90625,13.4063 18.7031,13.4063 C32.5,13.4063 37.2969,6.40625 37.2969,-0.09375 C37.2969,-6.59375 32.5,-13.5938 18.7031,-13.5938 M19.5,10.2031 C16.7031,10.2031 14.7969,9.40625 13.5,6.90625 C12.2031,4.40625 10.4063,-2.09375 10.2969,-4.70313 C10.0938,-7.40625 11.0938,-9 13.5,-9.79688 C14.7031,-10.2031 16.2969,-10.4063 17.9063,-10.4063 C20.5938,-10.4063 22.4063,-9.79688 23.7969,-7.09375 C25.2031,-4.5 27.1094,2 27.1094,4.5 C27.1094,9.40625 23.5,10.2031 19.5,10.2031"/>
<path class="Note" transform="matrix(0.992001,0,0,0.992001,926.359,435.799)" d="M18.7031,-13.5938 C4.90625,-13.5938 0,-6.59375 0,-0.09375 C0,6.40625 4.90625,13.4063 18.7031,13.4063 C32.5,13.4063 37.2969,6.40625 37.2969,-0.09375 C37.2969,-6.59375 32.5,-13.5938 18.7031,-13.5938 M19.5,10.2031 C16.7031,10.2031 14.7969,9.40625 13.5,6.90625 C12.2031,4.40625 10.4063,-2.09375 10.2969,-4.70313 C10.0938,-7.40625 11.0938,-9 13.5,-9.79688 C14.7031,-10.2031 16.2969,-10.4063 17.9063,-10.4063 C20.5938,-10.4063 22.4063,-9.79688 23.7969,-7.09375 C25.2031,-4.5 27.1094,2 27.1094,4.5 C27.1094,9.40625 23.5,10.2031 19.5,10.2031"/>
<path class="Note" transform="matrix(0.992001,0,0,0.992001,1323.16,410.999)" d="M18.7031,-13.5938 C4.90625,-13.5938 0,-6.59375 0,-0.09375 C0,6.40625 4.90625,13.4063 18.7031,13.4063 C32.5,13.4063 37.2969,6.40625 37.2969,-0.09375 C37.2969,-6.59375 32.5,-13.5938 18.7031,-13.5938 M19.5,10.2031 C16.7031,10.2031 14.7969,9.40625 13.5,6.90625 C12.2031,4.40625 10.4063,-2.09375 10.2969,-4.70313 C10.0938,-7.40625 11.0938,-9 13.5,-9.79688 C14.7031,-10.2031 16.2969,-10.4063 17.9063,-10.4063 C20.5938,-10.4063 22.4063,-9.79688 23.7969,-7.09375 C25.2031,-4.5 27.1094,2 27.1094,4.5 C27.1094,9.40625 23.5,10.2031 19.5,10.2031"/>
<path class="Note" transform="matrix(0.992001,0,0,0.992001,1521.56,398.599)" d="M18.7031,-13.5938 C4.90625,-13.5938 0,-6.59375 0,-0.09375 C0,6.40625 4.90625,13.4063 18.7031,13.4063 C32.5,13.4063 37.2969,6.40625 37.2969,-0.09375 C37.2969,-6.59375 32.5,-13.5938 18.7031,-13.5938 M19.5,10.2031 C16.7031,10.2031 14.7969,9.40625 13.5,6.90625 C12.2031,4.40625 10.4063,-2.09375 10.2969,-4.70313 C10.0938,-7.40625 11.0938,-9 13.5,-9.79688 C14.7031,-10.2031 16.2969,-10.4063 17.9063,-10.4063 C20.5938,-10.4063 22.4063,-9.79688 23.7969,-7.09375 C25.2031,-4.5 27.1094,2 27.1094,4.5 C27.1094,9.40625 23.5,10.2031 19.5,10.2031"/>
<path class="Note" transform="matrix(0.992001,0,0,0.992001,1918.36,373.799)" d="M18.7031,-13.5938 C4.90625,-13.5938 0,-6.59375 0,-0.09375 C0,6.40625 4.90625,13.4063 18.7031,13.4063 C32.5,13.4063 37.2969,6.40625 37.2969,-0.09375 C37.2969,-6.59375 32.5,-13.5938 18.7031,-13.5938 M19.5,10.2031 C16.7031,10.2031 14.7969,9.40625 13.5,6.90625 C12.2031,4.40625 10.4063,-2.09375 10.2969,-4.70313 C10.0938,-7.40625 11.0938,-9 13.5,-9.79688 C14.7031,-10.2031 16.2969,-10.4063 17.9063,-10.4063 C20.5938,-10.4063 22.4063,-9.79688 23.7969,-7.09375 C25.2031,-4.5 27.1094,2 27.1094,4.5 C27.1094,9.40625 23.5,10.2031 19.5,10.2031"/>
<path class="Note" transform="matrix(0.992001,0,0,0.992001,727.959,448.199)" d="M18.7031,-13.5938 C4.90625,-13.5938 0,-6.59375 0,-0.09375 C0,6.40625 4.90625,13.4063 18.7031,13.4063 C32.5,13.4063 37.2969,6.40625 37.2969,-0.09375 C37.2969,-6.59375 32.5,-13.5938 18.7031,-13.5938 M19.5,10.2031 C16.7031,10.2031 14.7969,9.40625 13.5,6.90625 C12.2031,4.40625 10.4063,-2.09375 10.2969,-4.70313 C10.0938,-7.40625 11.0938,-9 13.5,-9.79688 C14.7031,-10.2031 16.2969,-10.4063 17.9063,-10.4063 C20.5938,-10.4063 22.4063,-9.79688 23.7969,-7.09375 C25.2031,-4.5 27.1094,2 27.1094,4.5 C27.1094,9.40625 23.5,10.2031 19.5,10.2031"/>
<path class="Note" transform="matrix(0.992001,0,0,0.992001,537.742,611.577)" d="M18.7031,-13.5938 C4.90625,-13.5938 0,-6.59375 0,-0.09375 C0,6.40625 4.90625,13.4063 18.7031,13.4063 C32.5,13.4063 37.2969,6.40625 37.2969,-0.09375 C37.2969,-6.59375 32.5,-13.5938 18.7031,-13.5938 M19.5,10.2031 C16.7031,10.2031 14.7969,9.40625 13.5,6.90625 C12.2031,4.40625 10.4063,-2.09375 10.2969,-4.70313 C10.0938,-7.40625 11.0938,-9 13.5,-9.79688 C14.7031,-10.2031 16.2969,-10.4063 17.9063,-10.4063 C20.5938,-10.4063 22.4063,-9.79688 23.7969,-7.09375 C25.2031,-4.5 27.1094,2 27.1094,4.5 C27.1094,9.40625 23.5,10.2031 19.5,10.2031"/>
<path class="Note" transform="matrix(0.992001,0,0,0.992001,1719.96,685.977)" d="M18.7031,-13.5938 C4.90625,-13.5938 0,-6.59375 0,-0.09375 C0,6.40625 4.90625,13.4063 18.7031,13.4063 C32.5,13.4063 37.2969,6.40625 37.2969,-0.09375 C37.2969,-6.59375 32.5,-13.5938 18.7031,-13.5938 M19.5,10.2031 C16.7031,10.2031 14.7969,9.40625 13.5,6.90625 C12.2031,4.40625 10.4063,-2.09375 10.2969,-4.70313 C10.0938,-7.40625 11.0938,-9 13.5,-9.79688 C14.7031,-10.2031 16.2969,-10.4063 17.9063,-10.4063 C20.5938,-10.4063 22.4063,-9.79688 23.7969,-7.09375 C25.2031,-4.5 27.1094,2 27.1094,4.5 C27.1094,9.40625 23.5,10.2031 19.5,10.2031"/>
<path class="Note" transform="matrix(0.992001,0,0,0.992001,1124.76,648.777)" d="M18.7031,-13.5938 C4.90625,-13.5938 0,-6.59375 0,-0.09375 C0,6.40625 4.90625,13.4063 18.7031,13.4063 C32.5,13.4063 37.2969,6.40625 37.2969,-0.09375 C37.2969,-6.59375 32.5,-13.5938 18.7031,-13.5938 M19.5,10.2031 C16.7031,10.2031 14.7969,9.40625 13.5,6.90625 C12.2031,4.40625 10.4063,-2.09375 10.2969,-4.70313 C10.0938,-7.40625 11.0938,-9 13.5,-9.79688 C14.7031,-10.2031 16.2969,-10.4063 17.9063,-10.4063 C20.5938,-10.4063 22.4063,-9.79688 23.7969,-7.09375 C25.2031,-4.5 27.1094,2 27.1094,4.5 C27.1094,9.40625 23.5,10.2031 19.5,10.2031"/>
<path class="Note" transform="matrix(0.992001,0,0,0.992001,1521.56,673.577)" d="M18.7031,-13.5938 C4.90625,-13.5938 0,-6.59375 0,-0.09375 C0,6.40625 4.90625,13.4063 18.7031,13.4063 C32.5,13.4063 37.2969,6.40625 37.2969,-0.09375 C37.2969,-6.59375 32.5,-13.5938 18.7031,-13.5938 M19.5,10.2031 C16.7031,10.2031 14.7969,9.40625 13.5,6.90625 C12.2031,4.40625 10.4063,-2.09375 10.2969,-4.70313 C10.0938,-7.40625 11.0938,-9 13.5,-9.79688 C14.7031,-10.2031 16.2969,-10.4063 17.9063,-10.4063 C20.5938,-10.4063 22.4063,-9.79688 23.7969,-7.09375 C25.2031,-4.5 27.1094,2 27.1094,4.5 C27.1094,9.40625 23.5,10.2031 19.5,10.2031"/>
<path class="Note" transform="matrix(0.992001,0,0,0.992001,1323.16,661.177)" d="M18.7031,-13.5938 C4.90625,-13.5938 0,-6.59375 0,-0.09375 C0,6.40625 4.90625,13.4063 18.7031,13.4063 C32.5,13.4063 37.2969,6.40625 37.2969,-0.09375 C37.2969,-6.59375 32.5,-13.5938 18.7031,-13.5938 M19.5,10.2031 C16.7031,10.2031 14.7969,9.40625 13.5,6.90625 C12.2031,4.40625 10.4063,-2.09375 10.2969,-4.70313 C10.0938,-7.40625 11.0938,-9 13.5,-9.79688 C14.7031,-10.2031 16.2969,-10.4063 17.9063,-10.4063 C20.5938,-10.4063 22.4063,-9.79688 23.7969,-7.09375 C25.2031,-4.5 27.1094,2 27.1094,4.5 C27.1094,9.40625 23.5,10.2031 19.5,10.2031"/>
<path class="Note" transform="matrix(0.992001,0,0,0.992001,926.359,636.377)" d="M18.7031,-13.5938 C4.90625,-13.5938 0,-6.59375 0,-0.09375 C0,6.40625 4.90625,13.4063 18.7031,13.4063 C32.5,13.4063 37.2969,6.40625 37.2969,-0.09375 C37.2969,-6.59375 32.5,-13.5938 18.7031,-13.5938 M19.5,10.2031 C16.7031,10.2031 14.7969,9.40625 13.5,6.90625 C12.2031,4.40625 10.4063,-2.09375 10.2969,-4.70313 C10.0938,-7.40625 11.0938,-9 13.5,-9.79688 C14.7031,-10.2031 16.2969,-10.4063 17.9063,-10.4063 C20.5938,-10.4063 22.4063,-9.79688 23.7969,-7.09375 C25.2031,-4.5 27.1094,2 27.1094,4.5 C27.1094,9.40625 23.5,10.2031 19.5,10.2031"/>
<path class="Note" transform="matrix(0.992001,0,0,0.992001,727.959,623.977)" d="M18.7031,-13.5938 C4.90625,-13.5938 0,-6.59375 0,-0.09375 C0,6.40625 4.90625,13.4063 18.7031,13.4063 C32.5,13.4063 37.2969,6.40625 37.2969,-0.09375 C37.2969,-6.59375 32.5,-13.5938 18.7031,-13.5938 M19.5,10.2031 C16.7031,10.2031 14.7969,9.40625 13.5,6.90625 C12.2031,4.40625 10.4063,-2.09375 10.2969,-4.70313 C10.0938,-7.40625 11.0938,-9 13.5,-9.79688 C14.7031,-10.2031 16.2969,-10.4063 17.9063,-10.4063 C20.5938,-10.4063 22.4063,-9.79688 23.7969,-7.09375 C25.2031,-4.5 27.1094,2 27.1094,4.5 C27.1094,9.40625 23.5,10.2031 19.5,10.2031"/>
<path class="Note" transform="matrix(0.992001,0,0,0.992001,1918.36,698.377)" d="M18.7031,-13.5938 C4.90625,-13.5938 0,-6.59375 0,-0.09375 C0,6.40625 4.90625,13.4063 18.7031,13.4063 C32.5,13.4063 37.2969,6.40625 37.2969,-0.09375 C37.2969,-6.59375 32.5,-13.5938 18.7031,-13.5938 M19.5,10.2031 C16.7031,10.2031 14.7969,9.40625 13.5,6.90625 C12.2031,4.40625 10.4063,-2.09375 10.2969,-4.70313 C10.0938,-7.40625 11.0938,-9 13.5,-9.79688 C14.7031,-10.2031 16.2969,-10.4063 17.9063,-10.4063 C20.5938,-10.4063 22.4063,-9.79688 23.7969,-7.09375 C25.2031,-4.5 27.1094,2 27.1094,4.5 C27.1094,9.40625 23.5,10.2031 19.5,10.2031"/>
<path class="Clef" transform="matrix(0.992001,0,0,0.992001,235.662,460.599)" d="M12.2969,51.2969 C12.2969,57.9063 17.2969,66.6094 30.7969,66.6094 C35.5,66.6094 39.6094,65.4063 43.2031,63.2031 C48.6094,59.4063 50,52.7969 50,46.5 C50,42.6094 49.4063,38.1094 48.4063,32.4063 C48.1094,30.4063 47.5,27.4063 46.9063,23.5 C56.7031,20.2969 64,10.0938 64,-0.203125 C64,-15.2969 53.2969,-25.5 38.7031,-25.5 C37.7031,-31.5 36.7031,-37.4063 35.9063,-43 C46.4063,-54.1094 53.7031,-66.6094 53.7031,-82.5 C53.7031,-91.6094 50.9063,-99 49.2969,-102.609 C46.9063,-107.703 44,-111.203 42.2031,-111.203 C41.5,-111.203 38.4063,-110 35.1094,-106.109 C28.7031,-98.5 26.9063,-85.7031 26.9063,-77.3125 C26.9063,-71.9063 27.4063,-67 29.1094,-55.7969 C29,-55.7031 23.7969,-50.4063 21.7031,-48.7031 C12.5938,-40.2969 0,-28.1094 0,-8.09375 C0,10.5938 16.2969,25.2969 34.9063,25.2969 C37.7969,25.2969 40.5,25 42.7969,24.5938 C44.7031,34.2031 45.9063,41.2031 45.9063,46.5 C45.9063,56.9063 40.5,62.4063 30.4063,62.4063 C28,62.4063 25.9063,61.9063 25.7031,61.9063 C25.6094,61.7969 25.4063,61.7031 25.4063,61.6094 C25.4063,61.4063 25.6094,61.2969 25.9063,61.2969 C30.6094,60.5 35.2969,56.5 35.2969,50.1094 C35.2969,44.7031 31.2031,39 23.7031,39 C16.7031,39 12.2969,44.7031 12.2969,51.2969 M33.2031,-82.2031 C34.1094,-86.2031 38.7031,-96.7031 43.9063,-96.7031 C45.4063,-96.7031 47.7969,-91.9063 47.7969,-84.9063 C47.7969,-74.5 40.1094,-66.7031 33.2031,-59.9063 C32.6094,-63.9063 32.1094,-67.7969 32.1094,-72 C32.1094,-75.7031 32.4063,-79.1094 33.2031,-82.2031 M42,20.5938 C40,21 38.1094,21.2031 36.2031,21.2031 C21.9063,21.2031 9.70313,11.2031 9.70313,-3.90625 C9.70313,-16.0938 18.2969,-27 27.1094,-34.6094 C28.7969,-36.1094 30.4063,-37.5 31.9063,-39 C32.7969,-33.6094 33.5,-28.9063 34.2031,-24.7969 C25.0938,-22.0938 18.9063,-12.5 18.9063,-3.09375 C18.9063,3.90625 24.4063,13.5 32.4063,13.5 C33.2031,13.5 34.1094,13.0938 34.1094,12.2031 C34.1094,11.2969 33.1094,10.7969 31.9063,10 C28,7.59375 25.7969,5 25.7969,0.09375 C25.7969,-6 30.4063,-10.9063 36.2031,-12.2969 L42,20.5938 M56.2031,2.09375 C56.2031,9.20313 53.2969,16.5 46.2031,19.4063 C44.1094,7.40625 41.4063,-8.5 40.7031,-12.9063 C49.7031,-12.9063 56.2031,-6.79688 56.2031,2.09375"/>
<path class="Clef" transform="matrix(0.992001,0,0,0.992001,235.662,710.777)" d="M25.4063,-25.0938 C17.7969,-25.0938 11.7031,-20.7031 11.5938,-20.7031 C5.70313,-16.4063 1.90625,-9.79688 1.90625,-2.5 C1.90625,4.79688 6.09375,10.2031 13.5,10.2031 C19.9063,10.2031 24.9063,5.90625 24.9063,-0.703125 C24.9063,-6.40625 19.9063,-11.0938 14.2969,-11.0938 C13.0938,-11.0938 12,-10.9063 11.0938,-10.5938 C10.0938,-10.2031 8.40625,-9.20313 7.59375,-8.5 C8.29688,-12.9063 11.2969,-17.2969 15.2031,-19.4063 C17.7031,-20.7969 20.9063,-21.4063 24.4063,-21.4063 C34.6094,-21.4063 39.6094,-13.2031 39.6094,3.59375 C39.6094,16.5938 31.2969,35.2969 21.5,44.1094 C11.0938,53.6094 1.29688,58.1094 1.20313,58.1094 C1.20313,58.1094 0,58.7969 0,60 C0,60.2031 0.09375,60.2969 0.09375,60.5 C0.40625,61.5 1.29688,61.7031 2,61.7031 L2.29688,61.6094 C2.5,61.6094 13.9063,56.9063 23,49.7969 C37,39.7031 52.7969,21.9063 52.7969,3.5 C52.7969,-13.9063 43.4063,-25.0938 25.4063,-25.0938 M56.7969,-12.4063 C56.7969,-9.59375 59,-7.40625 61.6094,-7.40625 C64.2031,-7.40625 66.4063,-9.59375 66.4063,-12.4063 C66.4063,-15.2031 64.2031,-17.5 61.6094,-17.5 C59,-17.5 56.7969,-15.2031 56.7969,-12.4063 M56.7969,12.2969 C56.7969,15.0938 59,17.4063 61.6094,17.4063 C64.2031,17.4063 66.4063,15.0938 66.4063,12.2969 C66.4063,9.5 64.2031,7.20313 61.6094,7.20313 C59,7.20313 56.7969,9.5 56.7969,12.2969"/>
<path class="KeySig" transform="matrix(0.992001,0,0,0.992001,320.122,435.799)" d="M12,-15.5 C7,-15.5 4.09375,-12.4063 3.59375,-11.7969 L4,-43.9063 C4,-44.7031 3.40625,-45.2969 2.59375,-45.2969 L1.40625,-45.2969 C0.59375,-45.2969 0,-44.7031 0,-43.9063 L0.5,16.2031 C0.5,17 1.09375,17.5938 1.90625,17.5938 C2.09375,17.5938 2.5,17.5 2.70313,17.4063 C11.2969,13.0938 20.2969,4.90625 20.2969,-5.40625 C20.2969,-10.5938 17.9063,-15.5 12,-15.5 M3.29688,12.7031 L3.59375,-6.79688 C3.79688,-7.70313 5.29688,-10.5938 9.29688,-10.5938 C12.9063,-10.5938 13.2031,-7.20313 13.2031,-5.09375 C13.2031,3.79688 9.90625,7.5 3.29688,12.7031"/>
<path class="KeySig" transform="matrix(0.992001,0,0,0.992001,347.697,398.599)" d="M12,-15.5 C7,-15.5 4.09375,-12.4063 3.59375,-11.7969 L4,-43.9063 C4,-44.7031 3.40625,-45.2969 2.59375,-45.2969 L1.40625,-45.2969 C0.59375,-45.2969 0,-44.7031 0,-43.9063 L0.5,16.2031 C0.5,17 1.09375,17.5938 1.90625,17.5938 C2.09375,17.5938 2.5,17.5 2.70313,17.4063 C11.2969,13.0938 20.2969,4.90625 20.2969,-5.40625 C20.2969,-10.5938 17.9063,-15.5 12,-15.5 M3.29688,12.7031 L3.59375,-6.79688 C3.79688,-7.70313 5.29688,-10.5938 9.29688,-10.5938 C12.9063,-10.5938 13.2031,-7.20313 13.2031,-5.09375 C13.2031,3.79688 9.90625,7.5 3.29688,12.7031"/>
<path class="KeySig" transform="matrix(0.992001,0,0,0.992001,375.271,448.199)" d="M12,-15.5 C7,-15.5 4.09375,-12.4063 3.59375,-11.7969 L4,-43.9063 C4,-44.7031 3.40625,-45.2969 2.59375,-45.2969 L1.40625,-45.2969 C0.59375,-45.2969 0,-44.7031 0,-43.9063 L0.5,16.2031 C0.5,17 1.09375,17.5938 1.90625,17.5938 C2.09375,17.5938 2.5,17.5 2.70313,17.4063 C11.2969,13.0938 20.2969,4.90625 20.2969,-5.40625 C20.2969,-10.5938 17.9063,-15.5 12,-15.5 M3.29688,12.7031 L3.59375,-6.79688 C3.79688,-7.70313 5.29688,-10.5938 9.29688,-10.5938 C12.9063,-10.5938 13.2031,-7.20313 13.2031,-5.09375 C13.2031,3.79688 9.90625,7.5 3.29688,12.7031"/>
<path class="KeySig" transform="matrix(0.992001,0,0,0.992001,402.846,410.999)" d="M12,-15.5 C7,-15.5 4.09375,-12.4063 3.59375,-11.7969 L4,-43.9063 C4,-44.7031 3.40625,-45.2969 2.59375,-45.2969 L1.40625,-45.2969 C0.59375,-45.2969 0,-44.7031 0,-43.9063 L0.5,16.2031 C0.5,17 1.09375,17.5938 1.90625,17.5938 C2.09375,17.5938 2.5,17.5 2.70313,17.4063 C11.2969,13.0938 20.2969,4.90625 20.2969,-5.40625 C20.2969,-10.5938 17.9063,-15.5 12,-15.5 M3.29688,12.7031 L3.59375,-6.79688 C3.79688,-7.70313 5.29688,-10.5938 9.29688,-10.5938 C12.9063,-10.5938 13.2031,-7.20313 13.2031,-5.09375 C13.2031,3.79688 9.90625,7.5 3.29688,12.7031"/>
<path class="KeySig" transform="matrix(0.992001,0,0,0.992001,430.42,460.599)" d="M12,-15.5 C7,-15.5 4.09375,-12.4063 3.59375,-11.7969 L4,-43.9063 C4,-44.7031 3.40625,-45.2969 2.59375,-45.2969 L1.40625,-45.2969 C0.59375,-45.2969 0,-44.7031 0,-43.9063 L0.5,16.2031 C0.5,17 1.09375,17.5938 1.90625,17.5938 C2.09375,17.5938 2.5,17.5 2.70313,17.4063 C11.2969,13.0938 20.2969,4.90625 20.2969,-5.40625 C20.2969,-10.5938 17.9063,-15.5 12,-15.5 M3.29688,12.7031 L3.59375,-6.79688 C3.79688,-7.70313 5.29688,-10.5938 9.29688,-10.5938 C12.9063,-10.5938 13.2031,-7.20313 13.2031,-5.09375 C13.2031,3.79688 9.90625,7.5 3.29688,12.7031"/>
<path class="KeySig" transform="matrix(0.992001,0,0,0.992001,457.995,423.399)" d="M12,-15.5 C7,-15.5 4.09375,-12.4063 3.59375,-11.7969 L4,-43.9063 C4,-44.7031 3.40625,-45.2969 2.59375,-45.2969 L1.40625,-45.2969 C0.59375,-45.2969 0,-44.7031 0,-43.9063 L0.5,16.2031 C0.5,17 1.09375,17.5938 1.90625,17.5938 C2.09375,17.5938 2.5,17.5 2.70313,17.4063 C11.2969,13.0938 20.2969,4.90625 20.2969,-5.40625 C20.2969,-10.5938 17.9063,-15.5 12,-15.5 M3.29688,12.7031 L3.59375,-6.79688 C3.79688,-7.70313 5.29688,-10.5938 9.29688,-10.5938 C12.9063,-10.5938 13.2031,-7.20313 13.2031,-5.09375 C13.2031,3.79688 9.90625,7.5 3.29688,12.7031"/>
<path class="KeySig" transform="matrix(0.992001,0,0,0.992001,2108.17,386.199)" d="M23.2969,-10.5 C23.9063,-10.5938 24.4063,-11.2969 24.4063,-11.9063 L24.4063,-17.7969 C24.4063,-18.7969 23.7031,-19.2031 22.7969,-19.2031 L19.5,-18.5 L19.5,-33.4063 L16.7031,-33.4063 L16.7031,-17.9063 L7.79688,-16.0938 L7.79688,-30.2031 L5,-30.2031 L5,-15.5 L1.09375,-14.7031 C0.5,-14.5938 0,-13.9063 0,-13.2969 L0,-7.5 C0,-6.40625 0.796875,-6.09375 1.70313,-6.09375 L5,-6.79688 L5,9.70313 L1.09375,10.5 C0.5,10.5938 0,11.2969 0,11.9063 L0,17.7031 C0,18.7969 0.796875,19.0938 1.70313,19.0938 L5,18.4063 L5,33.2969 L7.79688,33.2969 L7.79688,17.7969 L16.7031,16 L16.7031,30.1094 L19.5,30.1094 L19.5,15.4063 L23.2969,14.7031 C23.9063,14.5938 24.4063,13.9063 24.4063,13.2969 L24.4063,7.40625 C24.4063,6.40625 23.7031,6 22.7969,6 L19.5,6.70313 L19.5,-9.79688 L23.2969,-10.5 M7.79688,-7.40625 L16.7031,-9.20313 L16.7031,7.29688 L7.79688,9.20313 L7.79688,-7.40625 "/>
<path class="KeySig" transform="matrix(0.992001,0,0,0.992001,2135.35,423.399)" d="M23.2969,-10.5 C23.9063,-10.5938 24.4063,-11.2969 24.4063,-11.9063 L24.4063,-17.7969 C24.4063,-18.7969 23.7031,-19.2031 22.7969,-19.2031 L19.5,-18.5 L19.5,-33.4063 L16.7031,-33.4063 L16.7031,-17.9063 L7.79688,-16.0938 L7.79688,-30.2031 L5,-30.2031 L5,-15.5 L1.09375,-14.7031 C0.5,-14.5938 0,-13.9063 0,-13.2969 L0,-7.5 C0,-6.40625 0.796875,-6.09375 1.70313,-6.09375 L5,-6.79688 L5,9.70313 L1.09375,10.5 C0.5,10.5938 0,11.2969 0,11.9063 L0,17.7031 C0,18.7969 0.796875,19.0938 1.70313,19.0938 L5,18.4063 L5,33.2969 L7.79688,33.2969 L7.79688,17.7969 L16.7031,16 L16.7031,30.1094 L19.5,30.1094 L19.5,15.4063 L23.2969,14.7031 C23.9063,14.5938 24.4063,13.9063 24.4063,13.2969 L24.4063,7.40625 C24.4063,6.40625 23.7031,6 22.7969,6 L19.5,6.70313 L19.5,-9.79688 L23.2969,-10.5 M7.79688,-7.40625 L16.7031,-9.20313 L16.7031,7.29688 L7.79688,9.20313 L7.79688,-7.40625 "/>
<path class="KeySig" transform="matrix(0.992001,0,0,0.992001,2162.5,373.799)" d="M23.2969,-10.5 C23.9063,-10.5938 24.4063,-11.2969 24.4063,-11.9063 L24.4063,-17.7969 C24.4063,-18.7969 23.7031,-19.2031 22.7969,-19.2031 L19.5,-18.5 L19.5,-33.4063 L16.7031,-33.4063 L16.7031,-17.9063 L7.79688,-16.0938 L7.79688,-30.2031 L5,-30.2031 L5,-15.5 L1.09375,-14.7031 C0.5,-14.5938 0,-13.9063 0,-13.2969 L0,-7.5 C0,-6.40625 0.796875,-6.09375 1.70313,-6.09375 L5,-6.79688 L5,9.70313 L1.09375,10.5 C0.5,10.5938 0,11.2969 0,11.9063 L0,17.7031 C0,18.7969 0.796875,19.0938 1.70313,19.0938 L5,18.4063 L5,33.2969 L7.79688,33.2969 L7.79688,17.7969 L16.7031,16 L16.7031,30.1094 L19.5,30.1094 L19.5,15.4063 L23.2969,14.7031 C23.9063,14.5938 24.4063,13.9063 24.4063,13.2969 L24.4063,7.40625 C24.4063,6.40625 23.7031,6 22.7969,6 L19.5,6.70313 L19.5,-9.79688 L23.2969,-10.5 M7.79688,-7.40625 L16.7031,-9.20313 L16.7031,7.29688 L7.79688,9.20313 L7.79688,-7.40625 "/>
<path class="KeySig" transform="matrix(0.992001,0,0,0.992001,2189.67,410.999)" d="M23.2969,-10.5 C23.9063,-10.5938 24.4063,-11.2969 24.4063,-11.9063 L24.4063,-17.7969 C24.4063,-18.7969 23.7031,-19.2031 22.7969,-19.2031 L19.5,-18.5 L19.5,-33.4063 L16.7031,-33.4063 L16.7031,-17.9063 L7.79688,-16.0938 L7.79688,-30.2031 L5,-30.2031 L5,-15.5 L1.09375,-14.7031 C0.5,-14.5938 0,-13.9063 0,-13.2969 L0,-7.5 C0,-6.40625 0.796875,-6.09375 1.70313,-6.09375 L5,-6.79688 L5,9.70313 L1.09375,10.5 C0.5,10.5938 0,11.2969 0,11.9063 L0,17.7031 C0,18.7969 0.796875,19.0938 1.70313,19.0938 L5,18.4063 L5,33.2969 L7.79688,33.2969 L7.79688,17.7969 L16.7031,16 L16.7031,30.1094 L19.5,30.1094 L19.5,15.4063 L23.2969,14.7031 C23.9063,14.5938 24.4063,13.9063 24.4063,13.2969 L24.4063,7.40625 C24.4063,6.40625 23.7031,6 22.7969,6 L19.5,6.70313 L19.5,-9.79688 L23.2969,-10.5 M7.79688,-7.40625 L16.7031,-9.20313 L16.7031,7.29688 L7.79688,9.20313 L7.79688,-7.40625 "/>
<path class="KeySig" transform="matrix(0.992001,0,0,0.992001,2216.84,448.199)" d="M23.2969,-10.5 C23.9063,-10.5938 24.4063,-11.2969 24.4063,-11.9063 L24.4063,-17.7969 C24.4063,-18.7969 23.7031,-19.2031 22.7969,-19.2031 L19.5,-18.5 L19.5,-33.4063 L16.7031,-33.4063 L16.7031,-17.9063 L7.79688,-16.0938 L7.79688,-30.2031 L5,-30.2031 L5,-15.5 L1.09375,-14.7031 C0.5,-14.5938 0,-13.9063 0,-13.2969 L0,-7.5 C0,-6.40625 0.796875,-6.09375 1.70313,-6.09375 L5,-6.79688 L5,9.70313 L1.09375,10.5 C0.5,10.5938 0,11.2969 0,11.9063 L0,17.7031 C0,18.7969 0.796875,19.0938 1.70313,19.0938 L5,18.4063 L5,33.2969 L7.79688,33.2969 L7.79688,17.7969 L16.7031,16 L16.7031,30.1094 L19.5,30.1094 L19.5,15.4063 L23.2969,14.7031 C23.9063,14.5938 24.4063,13.9063 24.4063,13.2969 L24.4063,7.40625 C24.4063,6.40625 23.7031,6 22.7969,6 L19.5,6.70313 L19.5,-9.79688 L23.2969,-10.5 M7.79688,-7.40625 L16.7031,-9.20313 L16.7031,7.29688 L7.79688,9.20313 L7.79688,-7.40625 "/>
<path class="KeySig" transform="matrix(0.992001,0,0,0.992001,2244.03,398.599)" d="M23.2969,-10.5 C23.9063,-10.5938 24.4063,-11.2969 24.4063,-11.9063 L24.4063,-17.7969 C24.4063,-18.7969 23.7031,-19.2031 22.7969,-19.2031 L19.5,-18.5 L19.5,-33.4063 L16.7031,-33.4063 L16.7031,-17.9063 L7.79688,-16.0938 L7.79688,-30.2031 L5,-30.2031 L5,-15.5 L1.09375,-14.7031 C0.5,-14.5938 0,-13.9063 0,-13.2969 L0,-7.5 C0,-6.40625 0.796875,-6.09375 1.70313,-6.09375 L5,-6.79688 L5,9.70313 L1.09375,10.5 C0.5,10.5938 0,11.2969 0,11.9063 L0,17.7031 C0,18.7969 0.796875,19.0938 1.70313,19.0938 L5,18.4063 L5,33.2969 L7.79688,33.2969 L7.79688,17.7969 L16.7031,16 L16.7031,30.1094 L19.5,30.1094 L19.5,15.4063 L23.2969,14.7031 C23.9063,14.5938 24.4063,13.9063 24.4063,13.2969 L24.4063,7.40625 C24.4063,6.40625 23.7031,6 22.7969,6 L19.5,6.70313 L19.5,-9.79688 L23.2969,-10.5 M7.79688,-7.40625 L16.7031,-9.20313 L16.7031,7.29688 L7.79688,9.20313 L7.79688,-7.40625 "/>
<path class="KeySig" transform="matrix(0.992001,0,0,0.992001,2271.2,435.799)" d="M23.2969,-10.5 C23.9063,-10.5938 24.4063,-11.2969 24.4063,-11.9063 L24.4063,-17.7969 C24.4063,-18.7969 23.7031,-19.2031 22.7969,-19.2031 L19.5,-18.5 L19.5,-33.4063 L16.7031,-33.4063 L16.7031,-17.9063 L7.79688,-16.0938 L7.79688,-30.2031 L5,-30.2031 L5,-15.5 L1.09375,-14.7031 C0.5,-14.5938 0,-13.9063 0,-13.2969 L0,-7.5 C0,-6.40625 0.796875,-6.09375 1.70313,-6.09375 L5,-6.79688 L5,9.70313 L1.09375,10.5 C0.5,10.5938 0,11.2969 0,11.9063 L0,17.7031 C0,18.7969 0.796875,19.0938 1.70313,19.0938 L5,18.4063 L5,33.2969 L7.79688,33.2969 L7.79688,17.7969 L16.7031,16 L16.7031,30.1094 L19.5,30.1094 L19.5,15.4063 L23.2969,14.7031 C23.9063,14.5938 24.4063,13.9063 24.4063,13.2969 L24.4063,7.40625 C24.4063,6.40625 23.7031,6 22.7969,6 L19.5,6.70313 L19.5,-9.79688 L23.2969,-10.5 M7.79688,-7.40625 L16.7031,-9.20313 L16.7031,7.29688 L7.79688,9.20313 L7.79688,-7.40625 "/>
<path class="KeySig" transform="matrix(0.992001,0,0,0.992001,320.122,760.377)" d="M12,-15.5 C7,-15.5 4.09375,-12.4063 3.59375,-11.7969 L4,-43.9063 C4,-44.7031 3.40625,-45.2969 2.59375,-45.2969 L1.40625,-45.2969 C0.59375,-45.2969 0,-44.7031 0,-43.9063 L0.5,16.2031 C0.5,17 1.09375,17.5938 1.90625,17.5938 C2.09375,17.5938 2.5,17.5 2.70313,17.4063 C11.2969,13.0938 20.2969,4.90625 20.2969,-5.40625 C20.2969,-10.5938 17.9063,-15.5 12,-15.5 M3.29688,12.7031 L3.59375,-6.79688 C3.79688,-7.70313 5.29688,-10.5938 9.29688,-10.5938 C12.9063,-10.5938 13.2031,-7.20313 13.2031,-5.09375 C13.2031,3.79688 9.90625,7.5 3.29688,12.7031"/>
<path class="KeySig" transform="matrix(0.992001,0,0,0.992001,347.697,723.177)" d="M12,-15.5 C7,-15.5 4.09375,-12.4063 3.59375,-11.7969 L4,-43.9063 C4,-44.7031 3.40625,-45.2969 2.59375,-45.2969 L1.40625,-45.2969 C0.59375,-45.2969 0,-44.7031 0,-43.9063 L0.5,16.2031 C0.5,17 1.09375,17.5938 1.90625,17.5938 C2.09375,17.5938 2.5,17.5 2.70313,17.4063 C11.2969,13.0938 20.2969,4.90625 20.2969,-5.40625 C20.2969,-10.5938 17.9063,-15.5 12,-15.5 M3.29688,12.7031 L3.59375,-6.79688 C3.79688,-7.70313 5.29688,-10.5938 9.29688,-10.5938 C12.9063,-10.5938 13.2031,-7.20313 13.2031,-5.09375 C13.2031,3.79688 9.90625,7.5 3.29688,12.7031"/>
<path class="KeySig" transform="matrix(0.992001,0,0,0.992001,375.271,772.777)" d="M12,-15.5 C7,-15.5 4.09375,-12.4063 3.59375,-11.7969 L4,-43.9063 C4,-44.7031 3.40625,-45.2969 2.59375,-45.2969 L1.40625,-45.2969 C0.59375,-45.2969 0,-44.7031 0,-43.9063 L0.5,16.2031 C0.5,17 1.09375,17.5938 1.90625,17.5938 C2.09375,17.5938 2.5,17.5 2.70313,17.4063 C11.2969,13.0938 20.2969,4.90625 20.2969,-5.40625 C20.2969,-10.5938 17.9063,-15.5 12,-15.5 M3.29688,12.7031 L3.59375,-6.79688 C3.79688,-7.70313 5.29688,-10.5938 9.29688,-10.5938 C12.9063,-10.5938 13.2031,-7.20313 13.2031,-5.09375 C13.2031,3.79688 9.90625,7.5 3.29688,12.7031"/>
<path class="KeySig" transform="matrix(0.992001,0,0,0.992001,402.846,735.577)" d="M12,-15.5 C7,-15.5 4.09375,-12.4063 3.59375,-11.7969 L4,-43.9063 C4,-44.7031 3.40625,-45.2969 2.59375,-45.2969 L1.40625,-45.2969 C0.59375,-45.2969 0,-44.7031 0,-43.9063 L0.5,16.2031 C0.5,17 1.09375,17.5938 1.90625,17.5938 C2.09375,17.5938 2.5,17.5 2.70313,17.4063 C11.2969,13.0938 20.2969,4.90625 20.2969,-5.40625 C20.2969,-10.5938 17.9063,-15.5 12,-15.5 M3.29688,12.7031 L3.59375,-6.79688 C3.79688,-7.70313 5.29688,-10.5938 9.29688,-10.5938 C12.9063,-10.5938 13.2031,-7.20313 13.2031,-5.09375 C13.2031,3.79688 9.90625,7.5 3.29688,12.7031"/>
<path class="KeySig" transform="matrix(0.992001,0,0,0.992001,430.42,785.177)" d="M12,-15.5 C7,-15.5 4.09375,-12.4063 3.59375,-11.7969 L4,-43.9063 C4,-44.7031 3.40625,-45.2969 2.59375,-45.2969 L1.40625,-45.2969 C0.59375,-45.2969 0,-44.7031 0,-43.9063 L0.5,16.2031 C0.5,17 1.09375,17.5938 1.90625,17.5938 C2.09375,17.5938 2.5,17.5 2.70313,17.4063 C11.2969,13.0938 20.2969,4.90625 20.2969,-5.40625 C20.2969,-10.5938 17.9063,-15.5 12,-15.5 M3.29688,12.7031 L3.59375,-6.79688 C3.79688,-7.70313 5.29688,-10.5938 9.29688,-10.5938 C12.9063,-10.5938 13.2031,-7.20313 13.2031,-5.09375 C13.2031,3.79688 9.90625,7.5 3.29688,12.7031"/>
<path class="KeySig" transform="matrix(0.992001,0,0,0.992001,457.995,747.977)" d="M12,-15.5 C7,-15.5 4.09375,-12.4063 3.59375,-11.7969 L4,-43.9063 C4,-44.7031 3.40625,-45.2969 2.59375,-45.2969 L1.40625,-45.2969 C0.59375,-45.2969 0,-44.7031 0,-43.9063 L0.5,16.2031 C0.5,17 1.09375,17.5938 1.90625,17.5938 C2.09375,17.5938 2.5,17.5 2.70313,17.4063 C11.2969,13.0938 20.2969,4.90625 20.2969,-5.40625 C20.2969,-10.5938 17.9063,-15.5 12,-15.5 M3.29688,12.7031 L3.59375,-6.79688 C3.79688,-7.70313 5.29688,-10.5938 9.29688,-10.5938 C12.9063,-10.5938 13.2031,-7.20313 13.2031,-5.09375 C13.2031,3.79688 9.90625,7.5 3.29688,12.7031"/>
<path class="KeySig" transform="matrix(0.992001,0,0,0.992001,2108.17,710.777)" d="M23.2969,-10.5 C23.9063,-10.5938 24.4063,-11.2969 24.4063,-11.9063 L24.4063,-17.7969 C24.4063,-18.7969 23.7031,-19.2031 22.7969,-19.2031 L19.5,-18.5 L19.5,-33.4063 L16.7031,-33.4063 L16.7031,-17.9063 L7.79688,-16.0938 L7.79688,-30.2031 L5,-30.2031 L5,-15.5 L1.09375,-14.7031 C0.5,-14.5938 0,-13.9063 0,-13.2969 L0,-7.5 C0,-6.40625 0.796875,-6.09375 1.70313,-6.09375 L5,-6.79688 L5,9.70313 L1.09375,10.5 C0.5,10.5938 0,11.2969 0,11.9063 L0,17.7031 C0,18.7969 0.796875,19.0938 1.70313,19.0938 L5,18.4063 L5,33.2969 L7.79688,33.2969 L7.79688,17.7969 L16.7031,16 L16.7031,30.1094 L19.5,30.1094 L19.5,15.4063 L23.2969,14.7031 C23.9063,14.5938 24.4063,13.9063 24.4063,13.2969 L24.4063,7.40625 C24.4063,6.40625 23.7031,6 22.7969,6 L19.5,6.70313 L19.5,-9.79688 L23.2969,-10.5 M7.79688,-7.40625 L16.7031,-9.20313 L16.7031,7.29688 L7.79688,9.20313 L7.79688,-7.40625 "/>
<path class="KeySig" transform="matrix(0.992001,0,0,0.992001,2135.35,747.977)" d="M23.2969,-10.5 C23.9063,-10.5938 24.4063,-11.2969 24.4063,-11.9063 L24.4063,-17.7969 C24.4063,-18.7969 23.7031,-19.2031 22.7969,-19.2031 L19.5,-18.5 L19.5,-33.4063 L16.7031,-33.4063 L16.7031,-17.9063 L7.79688,-16.0938 L7.79688,-30.2031 L5,-30.2031 L5,-15.5 L1.09375,-14.7031 C0.5,-14.5938 0,-13.9063 0,-13.2969 L0,-7.5 C0,-6.40625 0.796875,-6.09375 1.70313,-6.09375 L5,-6.79688 L5,9.70313 L1.09375,10.5 C0.5,10.5938 0,11.2969 0,11.9063 L0,17.7031 C0,18.7969 0.796875,19.0938 1.70313,19.0938 L5,18.4063 L5,33.2969 L7.79688,33.2969 L7.79688,17.7969 L16.7031,16 L16.7031,30.1094 L19.5,30.1094 L19.5,15.4063 L23.2969,14.7031 C23.9063,14.5938 24.4063,13.9063 24.4063,13.2969 L24.4063,7.40625 C24.4063,6.40625 23.7031,6 22.7969,6 L19.5,6.70313 L19.5,-9.79688 L23.2969,-10.5 M7.79688,-7.40625 L16.7031,-9.20313 L16.7031,7.29688 L7.79688,9.20313 L7.79688,-7.40625 "/>
<path class="KeySig" transform="matrix(0.992001,0,0,0.992001,2162.5,698.377)" d="M23.2969,-10.5 C23.9063,-10.5938 24.4063,-11.2969 24.4063,-11.9063 L24.4063,-17.7969 C24.4063,-18.7969 23.7031,-19.2031 22.7969,-19.2031 L19.5,-18.5 L19.5,-33.4063 L16.7031,-33.4063 L16.7031,-17.9063 L7.79688,-16.0938 L7.79688,-30.2031 L5,-30.2031 L5,-15.5 L1.09375,-14.7031 C0.5,-14.5938 0,-13.9063 0,-13.2969 L0,-7.5 C0,-6.40625 0.796875,-6.09375 1.70313,-6.09375 L5,-6.79688 L5,9.70313 L1.09375,10.5 C0.5,10.5938 0,11.2969 0,11.9063 L0,17.7031 C0,18.7969 0.796875,19.0938 1.70313,19.0938 L5,18.4063 L5,33.2969 L7.79688,33.2969 L7.79688,17.7969 L16.7031,16 L16.7031,30.1094 L19.5,30.1094 L19.5,15.4063 L23.2969,14.7031 C23.9063,14.5938 24.4063,13.9063 24.4063,13.2969 L24.4063,7.40625 C24.4063,6.40625 23.7031,6 22.7969,6 L19.5,6.70313 L19.5,-9.79688 L23.2969,-10.5 M7.79688,-7.40625 L16.7031,-9.20313 L16.7031,7.29688 L7.79688,9.20313 L7.79688,-7.40625 "/>
<path class="KeySig" transform="matrix(0.992001,0,0,0.992001,2189.67,735.577)" d="M23.2969,-10.5 C23.9063,-10.5938 24.4063,-11.2969 24.4063,-11.9063 L24.4063,-17.7969 C24.4063,-18.7969 23.7031,-19.2031 22.7969,-19.2031 L19.5,-18.5 L19.5,-33.4063 L16.7031,-33.4063 L16.7031,-17.9063 L7.79688,-16.0938 L7.79688,-30.2031 L5,-30.2031 L5,-15.5 L1.09375,-14.7031 C0.5,-14.5938 0,-13.9063 0,-13.2969 L0,-7.5 C0,-6.40625 0.796875,-6.09375 1.70313,-6.09375 L5,-6.79688 L5,9.70313 L1.09375,10.5 C0.5,10.5938 0,11.2969 0,11.9063 L0,17.7031 C0,18.7969 0.796875,19.0938 1.70313,19.0938 L5,18.4063 L5,33.2969 L7.79688,33.2969 L7.79688,17.7969 L16.7031,16 L16.7031,30.1094 L19.5,30.1094 L19.5,15.4063 L23.2969,14.7031 C23.9063,14.5938 24.4063,13.9063 24.4063,13.2969 L24.4063,7.40625 C24.4063,6.40625 23.7031,6 22.7969,6 L19.5,6.70313 L19.5,-9.79688 L23.2969,-10.5 M7.79688,-7.40625 L16.7031,-9.20313 L16.7031,7.29688 L7.79688,9.20313 L7.79688,-7.40625 "/>
<path class="KeySig" transform="matrix(0.992001,0,0,0.992001,2216.84,772.777)" d="M23.2969,-10.5 C23.9063,-10.5938 24.4063,-11.2969 24.4063,-11.9063 L24.4063,-17.7969 C24.4063,-18.7969 23.7031,-19.2031 22.7969,-19.2031 L19.5,-18.5 L19.5,-33.4063 L16.7031,-33.4063 L16.7031,-17.9063 L7.79688,-16.0938 L7.79688,-30.2031 L5,-30.2031 L5,-15.5 L1.09375,-14.7031 C0.5,-14.5938 0,-13.9063 0,-13.2969 L0,-7.5 C0,-6.40625 0.796875,-6.09375 1.70313,-6.09375 L5,-6.79688 L5,9.70313 L1.09375,10.5 C0.5,10.5938 0,11.2969 0,11.9063 L0,17.7031 C0,18.7969 0.796875,19.0938 1.70313,19.0938 L5,18.4063 L5,33.2969 L7.79688,33.2969 L7.79688,17.7969 L16.7031,16 L16.7031,30.1094 L19.5,30.1094 L19.5,15.4063 L23.2969,14.7031 C23.9063,14.5938 24.4063,13.9063 24.4063,13.2969 L24.4063,7.40625 C24.4063,6.40625 23.7031,6 22.7969,6 L19.5,6.70313 L19.5,-9.79688 L23.2969,-10.5 M7.79688,-7.40625 L16.7031,-9.20313 L16.7031,7.29688 L7.79688,9.20313 L7.79688,-7.40625 "/>
<path class="KeySig" transform="matrix(0.992001,0,0,0.992001,2244.03,723.177)" d="M23.2969,-10.5 C23.9063,-10.5938 24.4063,-11.2969 24.4063,-11.9063 L24.4063,-17.7969 C24.4063,-18.7969 23.7031,-19.2031 22.7969,-19.2031 L19.5,-18.5 L19.5,-33.4063 L16.7031,-33.4063 L16.7031,-17.9063 L7.79688,-16.0938 L7.79688,-30.2031 L5,-30.2031 L5,-15.5 L1.09375,-14.7031 C0.5,-14.5938 0,-13.9063 0,-13.2969 L0,-7.5 C0,-6.40625 0.796875,-6.09375 1.70313,-6.09375 L5,-6.79688 L5,9.70313 L1.09375,10.5 C0.5,10.5938 0,11.2969 0,11.9063 L0,17.7031 C0,18.7969 0.796875,19.0938 1.70313,19.0938 L5,18.4063 L5,33.2969 L7.79688,33.2969 L7.79688,17.7969 L16.7031,16 L16.7031,30.1094 L19.5,30.1094 L19.5,15.4063 L23.2969,14.7031 C23.9063,14.5938 24.4063,13.9063 24.4063,13.2969 L24.4063,7.40625 C24.4063,6.40625 23.7031,6 22.7969,6 L19.5,6.70313 L19.5,-9.79688 L23.2969,-10.5 M7.79688,-7.40625 L16.7031,-9.20313 L16.7031,7.29688 L7.79688,9.20313 L7.79688,-7.40625 "/>
<path class="KeySig" transform="matrix(0.992001,0,0,0.992001,2271.2,760.377)" d="M23.2969,-10.5 C23.9063,-10.5938 24.4063,-11.2969 24.4063,-11.9063 L24.4063,-17.7969 C24.4063,-18.7969 23.7031,-19.2031 22.7969,-19.2031 L19.5,-18.5 L19.5,-33.4063 L16.7031,-33.4063 L16.7031,-17.9063 L7.79688,-16.0938 L7.79688,-30.2031 L5,-30.2031 L5,-15.5 L1.09375,-14.7031 C0.5,-14.5938 0,-13.9063 0,-13.2969 L0,-7.5 C0,-6.40625 0.796875,-6.09375 1.70313,-6.09375 L5,-6.79688 L5,9.70313 L1.09375,10.5 C0.5,10.5938 0,11.2969 0,11.9063 L0,17.7031 C0,18.7969 0.796875,19.0938 1.70313,19.0938 L5,18.4063 L5,33.2969 L7.79688,33.2969 L7.79688,17.7969 L16.7031,16 L16.7031,30.1094 L19.5,30.1094 L19.5,15.4063 L23.2969,14.7031 C23.9063,14.5938 24.4063,13.9063 24.4063,13.2969 L24.4063,7.40625 C24.4063,6.40625 23.7031,6 22.7969,6 L19.5,6.70313 L19.5,-9.79688 L23.2969,-10.5 M7.79688,-7.40625 L16.7031,-9.20313 L16.7031,7.29688 L7.79688,9.20313 L7.79688,-7.40625 "/>
<path class="Lyrics" d="M1130.81,536.502 L1130.81,533.643 C1130.81,531.143 1130.96,529.502 1131.35,528.502 C1132.16,526.299 1133.91,524.939 1135.91,524.939 C1136.96,524.939 1137.6,525.252 1137.6,525.799 C1137.6,526.002 1137.6,526.049 1137.31,526.439 C1137.01,526.893 1136.85,527.502 1136.85,528.049 C1136.85,529.549 1138.06,530.689 1139.6,530.689 C1141.26,530.689 1142.41,529.439 1142.41,527.643 C1142.41,524.752 1139.91,522.939 1135.85,522.939 C1132.41,522.939 1129.85,524.143 1128.1,526.643 C1126.6,528.752 1126.1,530.893 1126.1,534.955 L1126.1,536.502 L1121.71,536.502 L1121.71,538.643 L1126.1,538.643 L1126.1,556.002 C1126.06,556.705 1126.01,557.002 1125.81,557.299 C1125.46,557.752 1124.51,557.955 1122.35,558.002 L1122.16,558.002 L1122.16,559.799 L1135.51,559.799 L1135.51,558.002 L1134.6,558.002 C1131.26,557.893 1130.81,557.643 1130.81,555.846 L1130.81,538.643 L1136.31,538.643 L1136.31,536.502 L1130.81,536.502 M1159.35,543.705 C1159.35,540.549 1158.81,538.955 1157.35,537.752 C1155.71,536.393 1153.26,535.752 1150.06,535.752 C1144.41,535.752 1140.31,538.393 1140.31,542.049 C1140.31,543.893 1141.46,545.096 1143.21,545.096 C1144.81,545.096 1145.91,544.049 1145.91,542.549 C1145.91,541.893 1145.66,541.205 1145.16,540.502 C1144.85,540.143 1144.81,540.049 1144.81,539.799 C1144.81,538.799 1146.81,537.893 1149.21,537.893 C1150.81,537.893 1152.56,538.393 1153.35,539.143 C1154.31,539.955 1154.66,541.143 1154.66,543.393 L1154.66,545.346 C1149.46,546.252 1147.81,546.643 1145.35,547.596 C1141.01,549.205 1138.96,551.502 1138.96,554.705 C1138.96,558.299 1141.76,560.549 1146.21,560.549 C1149.66,560.549 1152.76,559.143 1154.91,556.596 C1155.71,559.143 1156.96,560.143 1159.31,560.143 C1161.56,560.143 1163.91,558.705 1163.91,557.252 C1163.91,556.893 1163.71,556.643 1163.41,556.643 C1163.21,556.643 1163.01,556.705 1162.66,556.846 C1161.96,557.143 1161.66,557.205 1161.26,557.205 C1159.85,557.205 1159.35,556.299 1159.35,553.752 L1159.35,543.705 M1154.66,549.799 C1154.66,552.799 1154.51,553.502 1153.66,554.799 C1152.41,556.643 1150.16,557.893 1147.96,557.893 C1145.66,557.893 1144.01,556.252 1144.01,554.002 C1144.01,551.893 1145.06,550.393 1147.26,549.346 C1148.81,548.643 1150.76,548.143 1154.66,547.502 L1154.66,549.799 "/>
<path class="Lyrics" d="M924.905,536.502 L916.014,537.049 L916.014,539.205 L918.061,539.205 C919.952,539.252 920.202,539.549 920.202,541.705 L920.202,556.002 C920.155,556.752 920.108,557.049 919.905,557.299 C919.561,557.752 918.608,557.955 916.452,558.002 L916.264,558.002 L916.264,559.799 L928.858,559.799 L928.858,558.002 L928.655,558.002 C925.358,557.893 924.905,557.643 924.905,555.799 L924.905,546.549 C924.905,542.096 927.358,538.799 930.608,538.799 C933.452,538.799 934.905,540.846 934.905,544.893 L934.905,556.049 C934.858,556.705 934.811,557.049 934.561,557.299 C934.264,557.752 933.264,557.955 931.108,558.002 L930.905,558.002 L930.905,559.799 L943.561,559.799 L943.561,558.002 L943.358,558.002 C940.061,557.893 939.608,557.643 939.608,555.846 L939.608,547.002 C939.608,542.002 941.858,538.799 945.358,538.799 C948.217,538.799 949.608,540.955 949.608,545.455 L949.608,556.002 C949.561,556.705 949.514,557.049 949.264,557.299 C948.967,557.752 947.967,557.955 945.811,558.002 L945.608,558.002 L945.608,559.799 L958.264,559.799 L958.264,558.002 L958.061,558.002 C954.764,557.893 954.311,557.643 954.311,555.799 L954.311,544.455 C954.311,541.346 954.014,540.299 952.717,538.596 C951.264,536.752 949.217,535.752 946.811,535.752 C943.561,535.752 941.155,537.299 939.014,540.752 C938.155,537.752 935.452,535.752 932.108,535.752 C929.061,535.752 926.858,537.205 924.905,540.346 L924.905,536.502 M966.811,524.049 C965.202,524.049 963.905,525.346 963.905,526.939 C963.905,528.549 965.202,529.846 966.764,529.846 C968.405,529.846 969.702,528.549 969.702,526.939 C969.702,525.346 968.405,524.049 966.811,524.049 M969.155,536.502 L959.764,537.049 L959.764,539.205 L962.311,539.205 C964.202,539.252 964.452,539.549 964.452,541.705 L964.452,556.002 C964.405,556.752 964.358,557.049 964.155,557.299 C963.811,557.752 962.858,557.955 960.702,558.002 L960.358,558.002 L960.358,559.799 L973.311,559.799 L973.311,558.002 L972.952,558.002 C969.608,557.893 969.155,557.643 969.155,555.846 L969.155,536.502 "/>
<path class="Lyrics" d="M1928.36,560.143 L1937.06,559.799 L1937.06,557.643 L1936.16,557.643 C1933.31,557.502 1933.06,557.205 1933.06,554.002 L1933.06,522.939 L1923.27,523.502 L1923.27,525.643 L1926.2,525.643 C1928.11,525.689 1928.36,526.002 1928.36,528.143 L1928.36,539.455 C1926.52,536.893 1924.36,535.752 1921.45,535.752 C1915.81,535.752 1911.52,541.205 1911.52,548.393 C1911.52,555.502 1915.66,560.549 1921.45,560.549 C1924.61,560.549 1926.77,559.205 1928.36,556.205 L1928.36,560.143 M1922.45,538.455 C1924.52,538.455 1926.45,539.955 1927.36,542.252 C1928.02,543.752 1928.31,545.799 1928.31,548.252 C1928.31,554.096 1926.02,557.846 1922.41,557.846 C1918.86,557.846 1916.77,554.549 1916.77,549.002 C1916.77,546.002 1917.06,543.752 1917.7,542.096 C1918.56,539.846 1920.41,538.455 1922.45,538.455 M1950.95,535.752 C1944.81,535.752 1940.06,541.205 1940.06,548.205 C1940.06,555.049 1944.86,560.549 1950.86,560.549 C1956.86,560.549 1961.66,555.049 1961.66,548.143 C1961.66,541.299 1956.86,535.752 1950.95,535.752 M1950.95,537.893 C1954.45,537.893 1956.41,541.549 1956.41,548.143 C1956.41,554.799 1954.45,558.393 1950.86,558.393 C1947.27,558.393 1945.31,554.799 1945.31,548.205 C1945.31,541.393 1947.2,537.893 1950.95,537.893"/>
<path class="Lyrics" d="M1737.96,535.955 L1736.21,535.955 L1734.76,537.752 C1732.96,536.346 1731.16,535.752 1728.66,535.752 C1724.26,535.752 1721.37,538.596 1721.37,543.002 C1721.37,547.705 1724.41,548.893 1728.41,549.846 L1731.05,550.455 C1735.01,551.393 1736.41,552.393 1736.41,554.393 C1736.41,556.752 1734.37,558.393 1731.46,558.393 C1727.21,558.393 1724.21,555.705 1723.01,550.705 L1721.01,550.705 L1721.01,560.143 L1722.76,560.143 L1724.51,558.096 C1726.55,559.752 1728.8,560.549 1731.37,560.549 C1736.26,560.549 1739.51,557.502 1739.51,552.846 C1739.51,550.643 1738.8,548.955 1737.41,547.799 C1736.21,546.752 1735.21,546.346 1732.16,545.705 L1729.66,545.143 C1726.91,544.549 1726.91,544.549 1726.01,544.049 C1724.91,543.549 1724.26,542.502 1724.26,541.393 C1724.26,539.346 1726.16,537.955 1728.91,537.955 C1733.01,537.955 1735.01,540.846 1736.21,544.346 L1737.96,544.346 L1737.96,535.955 M1749.41,524.049 C1747.8,524.049 1746.51,525.346 1746.51,526.939 C1746.51,528.549 1747.8,529.846 1749.37,529.846 C1751.01,529.846 1752.3,528.549 1752.3,526.939 C1752.3,525.346 1751.01,524.049 1749.41,524.049 M1751.76,536.502 L1742.37,537.049 L1742.37,539.205 L1744.91,539.205 C1746.8,539.252 1747.05,539.549 1747.05,541.705 L1747.05,556.002 C1747.01,556.752 1746.96,557.049 1746.76,557.299 C1746.41,557.752 1745.46,557.955 1743.3,558.002 L1742.96,558.002 L1742.96,559.799 L1755.91,559.799 L1755.91,558.002 L1755.55,558.002 C1752.21,557.893 1751.76,557.643 1751.76,555.846 L1751.76,536.502 "/>
<path class="Lyrics" d="M732.864,536.502 L724.005,537.049 L724.005,539.205 L726.052,539.205 C727.958,539.252 728.208,539.549 728.208,541.705 L728.208,556.002 C728.161,556.752 728.114,557.049 727.911,557.299 C727.552,557.752 726.552,557.955 724.411,558.002 L724.208,558.002 L724.208,559.799 L737.552,559.799 L737.552,558.002 L736.661,558.002 C733.302,557.893 732.864,557.643 732.864,555.846 L732.864,553.143 C732.911,544.752 735.911,538.346 739.802,538.143 C739.114,538.955 738.911,539.455 738.911,540.393 C738.911,542.002 740.052,543.143 741.661,543.143 C743.505,543.143 744.708,541.799 744.708,539.799 C744.708,537.346 743.005,535.752 740.364,535.752 C737.208,535.752 734.505,538.252 732.864,542.705 L732.864,536.502 M768.208,548.549 C768.255,541.049 764.005,535.752 757.911,535.752 C751.505,535.752 746.708,541.299 746.708,548.799 C746.708,555.846 751.255,560.549 758.005,560.549 C762.802,560.549 766.161,558.205 768.208,553.455 L766.458,552.502 C764.411,556.346 762.302,557.846 758.958,557.846 C756.411,557.846 754.552,556.799 753.255,554.549 C752.364,553.049 751.958,551.299 752.005,548.549 L768.208,548.549 M752.052,546.393 C752.052,542.893 753.661,537.893 757.864,537.893 C760.864,537.893 762.864,540.549 762.864,544.596 C762.864,546.002 762.411,546.393 760.802,546.393 L752.052,546.393 "/>
<path class="Lyrics" d="M547.742,560.143 L556.445,559.799 L556.445,557.643 L555.538,557.643 C552.695,557.502 552.445,557.205 552.445,554.002 L552.445,522.939 L542.648,523.502 L542.648,525.643 L545.585,525.643 C547.492,525.689 547.742,526.002 547.742,528.143 L547.742,539.455 C545.898,536.893 543.742,535.752 540.835,535.752 C535.195,535.752 530.898,541.205 530.898,548.393 C530.898,555.502 535.038,560.549 540.835,560.549 C543.992,560.549 546.148,559.205 547.742,556.205 L547.742,560.143 M541.835,538.455 C543.898,538.455 545.835,539.955 546.742,542.252 C547.398,543.752 547.695,545.799 547.695,548.252 C547.695,554.096 545.398,557.846 541.788,557.846 C538.242,557.846 536.148,554.549 536.148,549.002 C536.148,546.002 536.445,543.752 537.085,542.096 C537.945,539.846 539.788,538.455 541.835,538.455 M570.335,535.752 C564.195,535.752 559.445,541.205 559.445,548.205 C559.445,555.049 564.242,560.549 570.242,560.549 C576.242,560.549 581.038,555.049 581.038,548.143 C581.038,541.299 576.242,535.752 570.335,535.752 M570.335,537.893 C573.835,537.893 575.788,541.549 575.788,548.143 C575.788,554.799 573.835,558.393 570.242,558.393 C566.648,558.393 564.695,554.799 564.695,548.205 C564.695,541.393 566.585,537.893 570.335,537.893"/>
<path class="Lyrics" d="M1328.66,535.955 L1326.91,535.955 L1325.46,537.752 C1323.66,536.346 1321.86,535.752 1319.36,535.752 C1314.96,535.752 1312.06,538.596 1312.06,543.002 C1312.06,547.705 1315.11,548.893 1319.11,549.846 L1321.75,550.455 C1325.71,551.393 1327.11,552.393 1327.11,554.393 C1327.11,556.752 1325.06,558.393 1322.16,558.393 C1317.91,558.393 1314.91,555.705 1313.71,550.705 L1311.71,550.705 L1311.71,560.143 L1313.46,560.143 L1315.21,558.096 C1317.25,559.752 1319.5,560.549 1322.06,560.549 C1326.96,560.549 1330.21,557.502 1330.21,552.846 C1330.21,550.643 1329.5,548.955 1328.11,547.799 C1326.91,546.752 1325.91,546.346 1322.86,545.705 L1320.36,545.143 C1317.61,544.549 1317.61,544.549 1316.71,544.049 C1315.61,543.549 1314.96,542.502 1314.96,541.393 C1314.96,539.346 1316.86,537.955 1319.61,537.955 C1323.71,537.955 1325.71,540.846 1326.91,544.346 L1328.66,544.346 L1328.66,535.955 M1344.75,535.752 C1338.61,535.752 1333.86,541.205 1333.86,548.205 C1333.86,555.049 1338.66,560.549 1344.66,560.549 C1350.66,560.549 1355.46,555.049 1355.46,548.143 C1355.46,541.299 1350.66,535.752 1344.75,535.752 M1344.75,537.893 C1348.25,537.893 1350.21,541.549 1350.21,548.143 C1350.21,554.799 1348.25,558.393 1344.66,558.393 C1341.06,558.393 1339.11,554.799 1339.11,548.205 C1339.11,541.393 1341,537.893 1344.75,537.893 M1367.36,522.939 L1358.11,523.502 L1358.11,525.643 L1360.56,525.643 C1362.41,525.689 1362.66,526.002 1362.66,528.143 L1362.66,556.002 C1362.61,556.752 1362.56,557.049 1362.36,557.299 C1362,557.752 1361.06,557.955 1358.91,558.002 L1358.56,558.002 L1358.56,559.799 L1371.5,559.799 L1371.5,558.002 L1371.16,558.002 C1367.81,557.893 1367.36,557.643 1367.36,555.846 L1367.36,522.939 "/>
<path class="Lyrics" d="M1528.26,522.939 L1519.01,523.502 L1519.01,525.643 L1521.47,525.643 C1523.31,525.689 1523.56,526.002 1523.56,528.143 L1523.56,556.002 C1523.51,556.752 1523.47,557.049 1523.26,557.299 C1522.9,557.752 1521.97,557.955 1519.81,558.002 L1519.47,558.002 L1519.47,559.799 L1532.4,559.799 L1532.4,558.002 L1532.06,558.002 C1528.72,557.893 1528.26,557.643 1528.26,555.846 L1528.26,522.939 M1556.65,543.705 C1556.65,540.549 1556.11,538.955 1554.65,537.752 C1553.01,536.393 1550.56,535.752 1547.36,535.752 C1541.72,535.752 1537.61,538.393 1537.61,542.049 C1537.61,543.893 1538.76,545.096 1540.51,545.096 C1542.11,545.096 1543.22,544.049 1543.22,542.549 C1543.22,541.893 1542.97,541.205 1542.47,540.502 C1542.15,540.143 1542.11,540.049 1542.11,539.799 C1542.11,538.799 1544.11,537.893 1546.51,537.893 C1548.11,537.893 1549.86,538.393 1550.65,539.143 C1551.61,539.955 1551.97,541.143 1551.97,543.393 L1551.97,545.346 C1546.76,546.252 1545.11,546.643 1542.65,547.596 C1538.31,549.205 1536.26,551.502 1536.26,554.705 C1536.26,558.299 1539.06,560.549 1543.51,560.549 C1546.97,560.549 1550.06,559.143 1552.22,556.596 C1553.01,559.143 1554.26,560.143 1556.61,560.143 C1558.86,560.143 1561.22,558.705 1561.22,557.252 C1561.22,556.893 1561.01,556.643 1560.72,556.643 C1560.51,556.643 1560.31,556.705 1559.97,556.846 C1559.26,557.143 1558.97,557.205 1558.56,557.205 C1557.15,557.205 1556.65,556.299 1556.65,553.752 L1556.65,543.705 M1551.97,549.799 C1551.97,552.799 1551.81,553.502 1550.97,554.799 C1549.72,556.643 1547.47,557.893 1545.26,557.893 C1542.97,557.893 1541.31,556.252 1541.31,554.002 C1541.31,551.893 1542.36,550.393 1544.56,549.346 C1546.11,548.643 1548.06,548.143 1551.97,547.502 L1551.97,549.799 "/>
<path class="Lyrics" d="M745.958,835.733 L744.208,835.733 L742.755,837.53 C740.958,836.124 739.161,835.53 736.661,835.53 C732.255,835.53 729.364,838.374 729.364,842.78 C729.364,847.483 732.411,848.671 736.411,849.624 L739.052,850.233 C743.005,851.171 744.411,852.171 744.411,854.171 C744.411,856.53 742.364,858.171 739.458,858.171 C735.208,858.171 732.208,855.483 731.005,850.483 L729.005,850.483 L729.005,859.921 L730.755,859.921 L732.505,857.874 C734.552,859.53 736.802,860.327 739.364,860.327 C744.255,860.327 747.505,857.28 747.505,852.624 C747.505,850.421 746.802,848.733 745.411,847.577 C744.208,846.53 743.208,846.124 740.161,845.483 L737.661,844.921 C734.911,844.327 734.911,844.327 734.005,843.827 C732.911,843.327 732.255,842.28 732.255,841.171 C732.255,839.124 734.161,837.733 736.911,837.733 C741.005,837.733 743.005,840.624 744.208,844.124 L745.958,844.124 L745.958,835.733 M757.411,823.827 C755.802,823.827 754.505,825.124 754.505,826.718 C754.505,828.327 755.802,829.624 757.364,829.624 C759.005,829.624 760.302,828.327 760.302,826.718 C760.302,825.124 759.005,823.827 757.411,823.827 M759.755,836.28 L750.364,836.827 L750.364,838.983 L752.911,838.983 C754.802,839.03 755.052,839.327 755.052,841.483 L755.052,855.78 C755.005,856.53 754.958,856.827 754.755,857.077 C754.411,857.53 753.458,857.733 751.302,857.78 L750.958,857.78 L750.958,859.577 L763.911,859.577 L763.911,857.78 L763.552,857.78 C760.208,857.671 759.755,857.421 759.755,855.624 L759.755,836.28 "/>
<path class="Lyrics" d="M1329.21,836.28 L1329.21,833.421 C1329.21,830.921 1329.36,829.28 1329.75,828.28 C1330.56,826.077 1332.31,824.718 1334.31,824.718 C1335.36,824.718 1336,825.03 1336,825.577 C1336,825.78 1336,825.827 1335.71,826.218 C1335.41,826.671 1335.25,827.28 1335.25,827.827 C1335.25,829.327 1336.46,830.468 1338,830.468 C1339.66,830.468 1340.81,829.218 1340.81,827.421 C1340.81,824.53 1338.31,822.718 1334.25,822.718 C1330.81,822.718 1328.25,823.921 1326.5,826.421 C1325,828.53 1324.5,830.671 1324.5,834.733 L1324.5,836.28 L1320.11,836.28 L1320.11,838.421 L1324.5,838.421 L1324.5,855.78 C1324.46,856.483 1324.41,856.78 1324.21,857.077 C1323.86,857.53 1322.91,857.733 1320.75,857.78 L1320.56,857.78 L1320.56,859.577 L1333.91,859.577 L1333.91,857.78 L1333,857.78 C1329.66,857.671 1329.21,857.421 1329.21,855.624 L1329.21,838.421 L1334.71,838.421 L1334.71,836.28 L1329.21,836.28 M1357.75,843.483 C1357.75,840.327 1357.21,838.733 1355.75,837.53 C1354.11,836.171 1351.66,835.53 1348.46,835.53 C1342.81,835.53 1338.71,838.171 1338.71,841.827 C1338.71,843.671 1339.86,844.874 1341.61,844.874 C1343.21,844.874 1344.31,843.827 1344.31,842.327 C1344.31,841.671 1344.06,840.983 1343.56,840.28 C1343.25,839.921 1343.21,839.827 1343.21,839.577 C1343.21,838.577 1345.21,837.671 1347.61,837.671 C1349.21,837.671 1350.96,838.171 1351.75,838.921 C1352.71,839.733 1353.06,840.921 1353.06,843.171 L1353.06,845.124 C1347.86,846.03 1346.21,846.421 1343.75,847.374 C1339.41,848.983 1337.36,851.28 1337.36,854.483 C1337.36,858.077 1340.16,860.327 1344.61,860.327 C1348.06,860.327 1351.16,858.921 1353.31,856.374 C1354.11,858.921 1355.36,859.921 1357.71,859.921 C1359.96,859.921 1362.31,858.483 1362.31,857.03 C1362.31,856.671 1362.11,856.421 1361.81,856.421 C1361.61,856.421 1361.41,856.483 1361.06,856.624 C1360.36,856.921 1360.06,856.983 1359.66,856.983 C1358.25,856.983 1357.75,856.077 1357.75,853.53 L1357.75,843.483 M1353.06,849.577 C1353.06,852.577 1352.91,853.28 1352.06,854.577 C1350.81,856.421 1348.56,857.671 1346.36,857.671 C1344.06,857.671 1342.41,856.03 1342.41,853.78 C1342.41,851.671 1343.46,850.171 1345.66,849.124 C1347.21,848.421 1349.16,847.921 1353.06,847.28 L1353.06,849.577 "/>
<path class="Lyrics" d="M1520.11,836.28 L1511.22,836.827 L1511.22,838.983 L1513.26,838.983 C1515.15,839.03 1515.4,839.327 1515.4,841.483 L1515.4,855.78 C1515.36,856.53 1515.31,856.827 1515.11,857.077 C1514.76,857.53 1513.81,857.733 1511.65,857.78 L1511.47,857.78 L1511.47,859.577 L1524.06,859.577 L1524.06,857.78 L1523.86,857.78 C1520.56,857.671 1520.11,857.421 1520.11,855.577 L1520.11,846.327 C1520.11,841.874 1522.56,838.577 1525.81,838.577 C1528.65,838.577 1530.11,840.624 1530.11,844.671 L1530.11,855.827 C1530.06,856.483 1530.01,856.827 1529.76,857.077 C1529.47,857.53 1528.47,857.733 1526.31,857.78 L1526.11,857.78 L1526.11,859.577 L1538.76,859.577 L1538.76,857.78 L1538.56,857.78 C1535.26,857.671 1534.81,857.421 1534.81,855.624 L1534.81,846.78 C1534.81,841.78 1537.06,838.577 1540.56,838.577 C1543.42,838.577 1544.81,840.733 1544.81,845.233 L1544.81,855.78 C1544.76,856.483 1544.72,856.827 1544.47,857.077 C1544.17,857.53 1543.17,857.733 1541.01,857.78 L1540.81,857.78 L1540.81,859.577 L1553.47,859.577 L1553.47,857.78 L1553.26,857.78 C1549.97,857.671 1549.51,857.421 1549.51,855.577 L1549.51,844.233 C1549.51,841.124 1549.22,840.077 1547.92,838.374 C1546.47,836.53 1544.42,835.53 1542.01,835.53 C1538.76,835.53 1536.36,837.077 1534.22,840.53 C1533.36,837.53 1530.65,835.53 1527.31,835.53 C1524.26,835.53 1522.06,836.983 1520.11,840.124 L1520.11,836.28 M1562.01,823.827 C1560.4,823.827 1559.11,825.124 1559.11,826.718 C1559.11,828.327 1560.4,829.624 1561.97,829.624 C1563.61,829.624 1564.9,828.327 1564.9,826.718 C1564.9,825.124 1563.61,823.827 1562.01,823.827 M1564.36,836.28 L1554.97,836.827 L1554.97,838.983 L1557.51,838.983 C1559.4,839.03 1559.65,839.327 1559.65,841.483 L1559.65,855.78 C1559.61,856.53 1559.56,856.827 1559.36,857.077 C1559.01,857.53 1558.06,857.733 1555.9,857.78 L1555.56,857.78 L1555.56,859.577 L1568.51,859.577 L1568.51,857.78 L1568.15,857.78 C1564.81,857.671 1564.36,857.421 1564.36,855.624 L1564.36,836.28 "/>
<path class="Lyrics" d="M547.742,859.921 L556.445,859.577 L556.445,857.421 L555.538,857.421 C552.695,857.28 552.445,856.983 552.445,853.78 L552.445,822.718 L542.648,823.28 L542.648,825.421 L545.585,825.421 C547.492,825.468 547.742,825.78 547.742,827.921 L547.742,839.233 C545.898,836.671 543.742,835.53 540.835,835.53 C535.195,835.53 530.898,840.983 530.898,848.171 C530.898,855.28 535.038,860.327 540.835,860.327 C543.992,860.327 546.148,858.983 547.742,855.983 L547.742,859.921 M541.835,838.233 C543.898,838.233 545.835,839.733 546.742,842.03 C547.398,843.53 547.695,845.577 547.695,848.03 C547.695,853.874 545.398,857.624 541.788,857.624 C538.242,857.624 536.148,854.327 536.148,848.78 C536.148,845.78 536.445,843.53 537.085,841.874 C537.945,839.624 539.788,838.233 541.835,838.233 M570.335,835.53 C564.195,835.53 559.445,840.983 559.445,847.983 C559.445,854.827 564.242,860.327 570.242,860.327 C576.242,860.327 581.038,854.827 581.038,847.921 C581.038,841.077 576.242,835.53 570.335,835.53 M570.335,837.671 C573.835,837.671 575.788,841.327 575.788,847.921 C575.788,854.577 573.835,858.171 570.242,858.171 C566.648,858.171 564.695,854.577 564.695,847.983 C564.695,841.171 566.585,837.671 570.335,837.671"/>
<path class="Lyrics" d="M1724.87,836.28 L1716.01,836.827 L1716.01,838.983 L1718.05,838.983 C1719.96,839.03 1720.21,839.327 1720.21,841.483 L1720.21,855.78 C1720.16,856.53 1720.12,856.827 1719.91,857.077 C1719.55,857.53 1718.55,857.733 1716.41,857.78 L1716.21,857.78 L1716.21,859.577 L1729.55,859.577 L1729.55,857.78 L1728.66,857.78 C1725.3,857.671 1724.87,857.421 1724.87,855.624 L1724.87,852.921 C1724.91,844.53 1727.91,838.124 1731.8,837.921 C1731.12,838.733 1730.91,839.233 1730.91,840.171 C1730.91,841.78 1732.05,842.921 1733.66,842.921 C1735.51,842.921 1736.71,841.577 1736.71,839.577 C1736.71,837.124 1735.01,835.53 1732.37,835.53 C1729.21,835.53 1726.51,838.03 1724.87,842.483 L1724.87,836.28 M1760.21,848.327 C1760.26,840.827 1756.01,835.53 1749.91,835.53 C1743.51,835.53 1738.71,841.077 1738.71,848.577 C1738.71,855.624 1743.26,860.327 1750.01,860.327 C1754.8,860.327 1758.16,857.983 1760.21,853.233 L1758.46,852.28 C1756.41,856.124 1754.3,857.624 1750.96,857.624 C1748.41,857.624 1746.55,856.577 1745.26,854.327 C1744.37,852.827 1743.96,851.077 1744.01,848.327 L1760.21,848.327 M1744.05,846.171 C1744.05,842.671 1745.66,837.671 1749.87,837.671 C1752.87,837.671 1754.87,840.327 1754.87,844.374 C1754.87,845.78 1754.41,846.171 1752.8,846.171 L1744.05,846.171 "/>
<path class="Lyrics" d="M1130.26,835.733 L1128.51,835.733 L1127.06,837.53 C1125.26,836.124 1123.46,835.53 1120.96,835.53 C1116.56,835.53 1113.66,838.374 1113.66,842.78 C1113.66,847.483 1116.71,848.671 1120.71,849.624 L1123.35,850.233 C1127.31,851.171 1128.71,852.171 1128.71,854.171 C1128.71,856.53 1126.66,858.171 1123.76,858.171 C1119.51,858.171 1116.51,855.483 1115.31,850.483 L1113.31,850.483 L1113.31,859.921 L1115.06,859.921 L1116.81,857.874 C1118.85,859.53 1121.1,860.327 1123.66,860.327 C1128.56,860.327 1131.81,857.28 1131.81,852.624 C1131.81,850.421 1131.1,848.733 1129.71,847.577 C1128.51,846.53 1127.51,846.124 1124.46,845.483 L1121.96,844.921 C1119.21,844.327 1119.21,844.327 1118.31,843.827 C1117.21,843.327 1116.56,842.28 1116.56,841.171 C1116.56,839.124 1118.46,837.733 1121.21,837.733 C1125.31,837.733 1127.31,840.624 1128.51,844.124 L1130.26,844.124 L1130.26,835.733 M1146.35,835.53 C1140.21,835.53 1135.46,840.983 1135.46,847.983 C1135.46,854.827 1140.26,860.327 1146.26,860.327 C1152.26,860.327 1157.06,854.827 1157.06,847.921 C1157.06,841.077 1152.26,835.53 1146.35,835.53 M1146.35,837.671 C1149.85,837.671 1151.81,841.327 1151.81,847.921 C1151.81,854.577 1149.85,858.171 1146.26,858.171 C1142.66,858.171 1140.71,854.577 1140.71,847.983 C1140.71,841.171 1142.6,837.671 1146.35,837.671 M1168.96,822.718 L1159.71,823.28 L1159.71,825.421 L1162.16,825.421 C1164.01,825.468 1164.26,825.78 1164.26,827.921 L1164.26,855.78 C1164.21,856.53 1164.16,856.827 1163.96,857.077 C1163.6,857.53 1162.66,857.733 1160.51,857.78 L1160.16,857.78 L1160.16,859.577 L1173.1,859.577 L1173.1,857.78 L1172.76,857.78 C1169.41,857.671 1168.96,857.421 1168.96,855.624 L1168.96,822.718 "/>
<path class="Lyrics" d="M933.061,822.718 L923.811,823.28 L923.811,825.421 L926.264,825.421 C928.108,825.468 928.358,825.78 928.358,827.921 L928.358,855.78 C928.311,856.53 928.264,856.827 928.061,857.077 C927.702,857.53 926.764,857.733 924.608,857.78 L924.264,857.78 L924.264,859.577 L937.202,859.577 L937.202,857.78 L936.858,857.78 C933.514,857.671 933.061,857.421 933.061,855.624 L933.061,822.718 M961.452,843.483 C961.452,840.327 960.905,838.733 959.452,837.53 C957.811,836.171 955.358,835.53 952.155,835.53 C946.514,835.53 942.405,838.171 942.405,841.827 C942.405,843.671 943.561,844.874 945.311,844.874 C946.905,844.874 948.014,843.827 948.014,842.327 C948.014,841.671 947.764,840.983 947.264,840.28 C946.952,839.921 946.905,839.827 946.905,839.577 C946.905,838.577 948.905,837.671 951.311,837.671 C952.905,837.671 954.655,838.171 955.452,838.921 C956.405,839.733 956.764,840.921 956.764,843.171 L956.764,845.124 C951.561,846.03 949.905,846.421 947.452,847.374 C943.108,848.983 941.061,851.28 941.061,854.483 C941.061,858.077 943.858,860.327 948.311,860.327 C951.764,860.327 954.858,858.921 957.014,856.374 C957.811,858.921 959.061,859.921 961.405,859.921 C963.655,859.921 966.014,858.483 966.014,857.03 C966.014,856.671 965.811,856.421 965.514,856.421 C965.311,856.421 965.108,856.483 964.764,856.624 C964.061,856.921 963.764,856.983 963.358,856.983 C961.952,856.983 961.452,856.077 961.452,853.53 L961.452,843.483 M956.764,849.577 C956.764,852.577 956.608,853.28 955.764,854.577 C954.514,856.421 952.264,857.671 950.061,857.671 C947.764,857.671 946.108,856.03 946.108,853.78 C946.108,851.671 947.155,850.171 949.358,849.124 C950.905,848.421 952.858,847.921 956.764,847.28 L956.764,849.577 "/>
<path class="Lyrics" d="M1928.36,859.921 L1937.06,859.577 L1937.06,857.421 L1936.16,857.421 C1933.31,857.28 1933.06,856.983 1933.06,853.78 L1933.06,822.718 L1923.27,823.28 L1923.27,825.421 L1926.2,825.421 C1928.11,825.468 1928.36,825.78 1928.36,827.921 L1928.36,839.233 C1926.52,836.671 1924.36,835.53 1921.45,835.53 C1915.81,835.53 1911.52,840.983 1911.52,848.171 C1911.52,855.28 1915.66,860.327 1921.45,860.327 C1924.61,860.327 1926.77,858.983 1928.36,855.983 L1928.36,859.921 M1922.45,838.233 C1924.52,838.233 1926.45,839.733 1927.36,842.03 C1928.02,843.53 1928.31,845.577 1928.31,848.03 C1928.31,853.874 1926.02,857.624 1922.41,857.624 C1918.86,857.624 1916.77,854.327 1916.77,848.78 C1916.77,845.78 1917.06,843.53 1917.7,841.874 C1918.56,839.624 1920.41,838.233 1922.45,838.233 M1950.95,835.53 C1944.81,835.53 1940.06,840.983 1940.06,847.983 C1940.06,854.827 1944.86,860.327 1950.86,860.327 C1956.86,860.327 1961.66,854.827 1961.66,847.921 C1961.66,841.077 1956.86,835.53 1950.95,835.53 M1950.95,837.671 C1954.45,837.671 1956.41,841.327 1956.41,847.921 C1956.41,854.577 1954.45,858.171 1950.86,858.171 C1947.27,858.171 1945.31,854.577 1945.31,847.983 C1945.31,841.171 1947.2,837.671 1950.95,837.671"/>
<path class="StaffText" d="M551.223,326.195 C549.536,328.242 544.926,329.789 540.332,329.899 L540.332,332.039 L544.723,332.039 C547.629,332.102 547.926,332.399 547.832,335.195 L547.832,355.242 C547.832,357.805 547.832,357.899 547.536,358.352 C547.129,358.852 546.176,359.055 543.379,359.055 L540.129,359.055 L540.129,361.399 L559.926,361.399 L559.926,359.055 L557.176,359.055 C554.379,359.055 553.426,358.852 553.036,358.352 C552.676,357.899 552.676,357.852 552.676,355.242 L552.676,334.602 C552.676,331.789 552.786,329.445 553.036,326.195 L551.223,326.195 M579.676,345.695 L604.879,345.695 L604.879,341.695 L579.676,341.695 L579.676,345.695 M579.676,355.805 L604.879,355.805 L604.879,351.805 L579.676,351.805 L579.676,355.805 M653.629,324.945 L651.739,324.945 L649.786,327.945 C646.536,325.399 644.332,324.539 640.676,324.539 C636.723,324.539 633.629,325.649 630.473,328.195 C625.536,332.195 623.223,337.242 623.223,343.992 C623.223,349.102 624.676,353.352 627.629,356.602 C630.723,360.102 635.332,362.149 640.129,362.149 C644.332,362.149 647.286,360.852 650.536,357.602 L652.379,362.102 L654.489,362.102 L654.489,351.102 C654.489,348.555 654.489,348.445 654.786,347.992 C655.239,347.445 656.129,347.305 658.989,347.305 L659.739,347.305 L659.739,344.945 L643.832,344.945 L643.832,347.305 L644.786,347.305 C648.989,347.305 649.332,347.555 649.332,350.352 C649.332,352.492 648.989,354.445 648.332,355.649 C647.082,358.102 643.879,359.805 640.629,359.805 C637.379,359.805 634.176,358.149 632.473,355.649 C630.629,352.852 629.832,349.352 629.832,343.992 C629.832,332.852 633.536,326.899 640.473,326.899 C646.176,326.899 650.129,330.992 652.176,338.992 L654.332,338.992 L653.629,324.945 M669.129,324.539 L660.536,325.102 L660.536,327.242 L662.286,327.242 C664.176,327.289 664.426,327.602 664.426,329.742 L664.426,349.195 C664.426,356.149 664.129,359.945 663.536,362.102 L665.426,362.102 L667.879,358.195 C669.926,360.899 672.286,362.149 675.379,362.149 C681.582,362.149 686.129,356.852 686.129,349.602 C686.129,342.399 681.926,337.352 675.926,337.352 C672.879,337.352 671.036,338.399 669.129,341.242 L669.129,324.539 M675.036,339.899 C678.786,339.899 680.879,343.555 680.879,350.102 C680.879,356.445 678.832,359.992 675.176,359.992 C671.223,359.992 668.879,356.352 668.879,350.195 C668.879,343.492 671.036,339.899 675.036,339.899"/>
<path class="Page" d="M2266.2,212.661 L2264.28,212.661 C2260.81,215.255 2256.91,216.348 2250.36,216.458 L2250.36,219.536 L2252.67,219.536 C2257.56,219.536 2257.63,219.645 2257.56,224.161 L2257.56,243.676 C2257.56,247.083 2257.56,247.255 2257.19,247.801 C2256.69,248.411 2255.58,248.63 2252.61,248.63 L2250.86,248.63 L2250.86,251.598 L2272.8,251.598 L2272.8,248.63 L2271.03,248.63 C2268.13,248.63 2267.08,248.411 2266.58,247.801 C2266.2,247.255 2266.2,247.036 2266.2,243.676 L2266.2,212.661 M2297.09,231.364 C2301.78,230.145 2305.95,228.067 2305.95,222.395 C2305.95,216.567 2300.78,212.661 2292.97,212.661 C2288.95,212.661 2285.72,213.708 2283.41,215.739 C2281.59,217.333 2280.48,219.645 2280.48,221.739 C2280.48,224.598 2282.64,226.739 2285.44,226.739 C2288.08,226.739 2289.89,224.989 2289.89,222.395 C2289.89,220.911 2289.3,219.755 2287.75,218.27 C2287.47,218.005 2287.36,217.833 2287.36,217.614 C2287.36,216.567 2289.41,215.52 2291.55,215.52 C2295.02,215.52 2297.05,218.051 2297.05,222.348 C2297.05,227.13 2295.45,230.036 2292.75,230.036 C2292.31,230.036 2291.77,229.989 2290.89,229.77 C2289.67,229.489 2289.3,229.442 2288.69,229.442 C2287.31,229.442 2286.66,230.036 2286.66,231.255 C2286.66,232.52 2287.47,233.348 2288.63,233.348 C2289.02,233.348 2289.34,233.286 2290.28,233.176 C2291.55,233.067 2291.88,233.005 2292.27,233.005 C2295.67,233.005 2297.38,235.645 2297.38,240.817 C2297.38,246.38 2295.06,249.505 2291,249.505 C2288.69,249.505 2286.27,248.348 2286.27,247.192 C2286.27,246.864 2286.44,246.536 2286.77,246.208 C2288.41,244.676 2288.8,243.958 2288.8,242.364 C2288.8,239.77 2286.77,237.801 2284.06,237.801 C2281.09,237.801 2279.11,239.942 2279.11,243.02 C2279.11,248.567 2284.5,252.364 2292.42,252.364 C2299.69,252.364 2306.94,249.348 2306.94,240.989 C2306.94,237.52 2305.41,234.489 2302.88,233.005 C2301.28,232.13 2300.02,231.739 2297.09,231.364"/>
<path class="Bracket" transform="matrix(3.596,0,0,3.98979,181.331,785.177)" d="M0.90625,-50 C2.70313,-51.9063 6.20313,-55.7969 6.20313,-63 C6.20313,-72.1094 2.29688,-81.3125 2.29688,-87 C2.29688,-93.1094 5.79688,-98.8125 6,-99 C6,-99.1094 6,-99.1094 6,-99.2031 C6,-99.3125 6,-99.4063 5.90625,-99.5 C5.79688,-99.5 5.59375,-99.5 5.5,-99.3125 C5.40625,-99.2031 0,-93.8125 0,-85.6094 C0,-76.8125 3.5,-70.6094 3.5,-59.1094 C3.5,-56.9063 2.59375,-53.4063 0.09375,-50.2969 C0,-50.2969 0,-50.1094 -0.09375,-50 C-0.09375,-49.9063 0,-49.7969 0.09375,-49.7031 C2.59375,-46.6094 3.5,-43.1094 3.5,-40.9063 C3.5,-29.4063 0,-23.2031 0,-14.4063 C0,-6.29688 5.40625,-0.796875 5.5,-0.703125 C5.59375,-0.5 5.79688,-0.40625 5.90625,-0.5 C6,-0.59375 6.09375,-0.703125 6,-0.796875 C6,-0.796875 6,-0.90625 6,-1 C5.79688,-1.20313 2.29688,-6.90625 2.29688,-13 C2.29688,-18.7031 6.20313,-27.9063 6.20313,-37 C6.20313,-44.2969 2.70313,-48.1094 0.90625,-50"/>
</svg>
