<?xml version="1.0" encoding="UTF-8" standalone="no"?>
<svg width="2520px" height="1008px" viewBox="0 0 2520 1008"
 xmlns="http://www.w3.org/2000/svg" xmlns:xlink="http://www.w3.org/1999/xlink" version="1.2" baseProfile="tiny">
<title>大调调性 (5)</title>
<desc>Generated by MuseScore Studio 4.4.4</desc>
<path class="" fill="#ffffff" fill-rule="evenodd" d="M0,0 L2520,0 L2520,1008 L0,1008 L0,0 "/>
<polyline class="StaffLines" fill="none" stroke="#000000" stroke-width="2.73" stroke-linejoin="bevel" points="212.598,386.199 2307.8,386.199"/>
<polyline class="StaffLines" fill="none" stroke="#000000" stroke-width="2.73" stroke-linejoin="bevel" points="212.598,410.999 2307.8,410.999"/>
<polyline class="StaffLines" fill="none" stroke="#000000" stroke-width="2.73" stroke-linejoin="bevel" points="212.598,435.799 2307.8,435.799"/>
<polyline class="StaffLines" fill="none" stroke="#000000" stroke-width="2.73" stroke-linejoin="bevel" points="212.598,460.599 2307.8,460.599"/>
<polyline class="StaffLines" fill="none" stroke="#000000" stroke-width="2.73" stroke-linejoin="bevel" points="212.598,485.399 2307.8,485.399"/>
<polyline class="StaffLines" fill="none" stroke="#000000" stroke-width="2.73" stroke-linejoin="bevel" points="212.598,661.969 2307.8,661.969"/>
<polyline class="StaffLines" fill="none" stroke="#000000" stroke-width="2.73" stroke-linejoin="bevel" points="212.598,686.769 2307.8,686.769"/>
<polyline class="StaffLines" fill="none" stroke="#000000" stroke-width="2.73" stroke-linejoin="bevel" points="212.598,711.569 2307.8,711.569"/>
<polyline class="StaffLines" fill="none" stroke="#000000" stroke-width="2.73" stroke-linejoin="bevel" points="212.598,736.369 2307.8,736.369"/>
<polyline class="StaffLines" fill="none" stroke="#000000" stroke-width="2.73" stroke-linejoin="bevel" points="212.598,761.169 2307.8,761.169"/>
<path class="MeasureNumber" d="M227.192,322.036 C229.083,321.442 229.833,321.114 230.801,320.474 C232.676,319.239 233.833,317.036 233.833,314.802 C233.833,311.005 230.801,308.442 226.317,308.442 C221.958,308.442 218.27,311.161 218.27,314.442 C218.27,316.083 219.27,317.208 220.801,317.208 C222.114,317.208 223.083,316.239 223.083,314.927 C223.083,314.239 222.88,313.755 222.239,313.13 C221.833,312.755 221.676,312.489 221.676,312.208 C221.676,311.239 223.676,310.239 225.551,310.239 C228.239,310.239 229.833,311.724 229.833,314.208 C229.833,317.755 227.317,321.114 224.63,321.114 C224.52,321.114 224.161,321.083 223.723,321.036 C222.551,320.958 222.551,320.958 222.317,320.958 C221.442,320.958 220.958,321.364 220.958,322.083 C220.958,322.724 221.395,323.114 222.114,323.114 C222.317,323.114 222.598,323.083 222.911,323.036 C223.473,322.927 224.083,322.88 224.442,322.88 C226.317,322.88 227.598,324.567 227.598,327.036 C227.598,331.364 225.473,335.52 220.63,335.52 C218.395,335.52 216.473,334.395 216.473,333.114 C216.473,332.677 216.645,332.52 217.27,332.239 C218.442,331.724 218.911,331.005 218.911,329.927 C218.911,328.52 217.801,327.442 216.364,327.442 C214.645,327.442 213.52,328.802 213.52,330.88 C213.52,334.755 216.473,337.192 221.27,337.192 C227.317,337.192 231.911,333.161 231.911,327.802 C231.911,324.677 229.989,322.927 227.192,322.036 M249.192,322.036 C251.083,321.442 251.833,321.114 252.801,320.474 C254.676,319.239 255.833,317.036 255.833,314.802 C255.833,311.005 252.801,308.442 248.317,308.442 C243.958,308.442 240.27,311.161 240.27,314.442 C240.27,316.083 241.27,317.208 242.801,317.208 C244.114,317.208 245.083,316.239 245.083,314.927 C245.083,314.239 244.88,313.755 244.239,313.13 C243.833,312.755 243.676,312.489 243.676,312.208 C243.676,311.239 245.676,310.239 247.551,310.239 C250.239,310.239 251.833,311.724 251.833,314.208 C251.833,317.755 249.317,321.114 246.63,321.114 C246.52,321.114 246.161,321.083 245.723,321.036 C244.551,320.958 244.551,320.958 244.317,320.958 C243.442,320.958 242.958,321.364 242.958,322.083 C242.958,322.724 243.395,323.114 244.114,323.114 C244.317,323.114 244.598,323.083 244.911,323.036 C245.473,322.927 246.083,322.88 246.442,322.88 C248.317,322.88 249.598,324.567 249.598,327.036 C249.598,331.364 247.473,335.52 242.63,335.52 C240.395,335.52 238.473,334.395 238.473,333.114 C238.473,332.677 238.645,332.52 239.27,332.239 C240.442,331.724 240.911,331.005 240.911,329.927 C240.911,328.52 239.801,327.442 238.364,327.442 C236.645,327.442 235.52,328.802 235.52,330.88 C235.52,334.755 238.473,337.192 243.27,337.192 C249.317,337.192 253.911,333.161 253.911,327.802 C253.911,324.677 251.989,322.927 249.192,322.036"/>
<polyline class="BarLine" fill="none" stroke="#000000" stroke-width="4.46" stroke-linejoin="bevel" points="214.83,384.835 214.83,661.969"/>
<polyline class="BarLine" fill="none" stroke="#000000" stroke-width="4.46" stroke-linejoin="bevel" points="617.362,384.835 617.362,661.969"/>
<polyline class="BarLine" fill="none" stroke="#000000" stroke-width="4.46" stroke-linejoin="bevel" points="1956.26,384.835 1956.26,661.969"/>
<polyline class="BarLine" fill="none" stroke="#000000" stroke-width="4.46" stroke-linejoin="bevel" points="840.512,384.835 840.512,661.969"/>
<polyline class="BarLine" fill="none" stroke="#000000" stroke-width="4.46" stroke-linejoin="bevel" points="1286.81,384.835 1286.81,661.969"/>
<polyline class="BarLine" fill="none" stroke="#000000" stroke-width="4.46" stroke-linejoin="bevel" points="1733.11,384.835 1733.11,661.969"/>
<polyline class="BarLine" fill="none" stroke="#000000" stroke-width="4.46" stroke-linejoin="bevel" points="1509.96,384.835 1509.96,661.969"/>
<polyline class="BarLine" fill="none" stroke="#000000" stroke-width="4.46" stroke-linejoin="bevel" points="1063.66,384.835 1063.66,661.969"/>
<polyline class="BarLine" fill="none" stroke="#000000" stroke-width="4.46" stroke-linejoin="bevel" points="2179.41,384.835 2179.41,661.969"/>
<polyline class="BarLine" fill="none" stroke="#000000" stroke-width="13.64" stroke-linejoin="bevel" points="2197.64,384.835 2197.64,661.969"/>
<polyline class="BarLine" fill="none" stroke="#000000" stroke-width="4.46" stroke-linejoin="bevel" points="2179.41,660.605 2179.41,762.533"/>
<polyline class="BarLine" fill="none" stroke="#000000" stroke-width="13.64" stroke-linejoin="bevel" points="2197.64,660.605 2197.64,762.533"/>
<polyline class="BarLine" fill="none" stroke="#000000" stroke-width="4.46" stroke-linejoin="bevel" points="1286.81,660.605 1286.81,762.533"/>
<polyline class="BarLine" fill="none" stroke="#000000" stroke-width="4.46" stroke-linejoin="bevel" points="214.83,660.605 214.83,762.533"/>
<polyline class="BarLine" fill="none" stroke="#000000" stroke-width="4.46" stroke-linejoin="bevel" points="840.512,660.605 840.512,762.533"/>
<polyline class="BarLine" fill="none" stroke="#000000" stroke-width="4.46" stroke-linejoin="bevel" points="1956.26,660.605 1956.26,762.533"/>
<polyline class="BarLine" fill="none" stroke="#000000" stroke-width="4.46" stroke-linejoin="bevel" points="1509.96,660.605 1509.96,762.533"/>
<polyline class="BarLine" fill="none" stroke="#000000" stroke-width="4.46" stroke-linejoin="bevel" points="617.362,660.605 617.362,762.533"/>
<polyline class="BarLine" fill="none" stroke="#000000" stroke-width="4.46" stroke-linejoin="bevel" points="1733.11,660.605 1733.11,762.533"/>
<polyline class="BarLine" fill="none" stroke="#000000" stroke-width="4.46" stroke-linejoin="bevel" points="1063.66,660.605 1063.66,762.533"/>
<polyline class="LedgerLine" fill="none" stroke="#000000" stroke-width="3.97" stroke-linejoin="bevel" points="642.41,510.199 695.777,510.199"/>
<polyline class="LedgerLine" fill="none" stroke="#000000" stroke-width="3.97" stroke-linejoin="bevel" points="419.26,510.199 472.627,510.199"/>
<path class="Note" transform="matrix(0.992001,0,0,0.992001,873.744,497.799)" d="M18.7031,-13.5938 C4.90625,-13.5938 0,-6.59375 0,-0.09375 C0,6.40625 4.90625,13.4063 18.7031,13.4063 C32.5,13.4063 37.2969,6.40625 37.2969,-0.09375 C37.2969,-6.59375 32.5,-13.5938 18.7031,-13.5938 M19.5,10.2031 C16.7031,10.2031 14.7969,9.40625 13.5,6.90625 C12.2031,4.40625 10.4063,-2.09375 10.2969,-4.70313 C10.0938,-7.40625 11.0938,-9 13.5,-9.79688 C14.7031,-10.2031 16.2969,-10.4063 17.9063,-10.4063 C20.5938,-10.4063 22.4063,-9.79688 23.7969,-7.09375 C25.2031,-4.5 27.1094,2 27.1094,4.5 C27.1094,9.40625 23.5,10.2031 19.5,10.2031"/>
<path class="Note" transform="matrix(0.992001,0,0,0.992001,1096.89,485.399)" d="M18.7031,-13.5938 C4.90625,-13.5938 0,-6.59375 0,-0.09375 C0,6.40625 4.90625,13.4063 18.7031,13.4063 C32.5,13.4063 37.2969,6.40625 37.2969,-0.09375 C37.2969,-6.59375 32.5,-13.5938 18.7031,-13.5938 M19.5,10.2031 C16.7031,10.2031 14.7969,9.40625 13.5,6.90625 C12.2031,4.40625 10.4063,-2.09375 10.2969,-4.70313 C10.0938,-7.40625 11.0938,-9 13.5,-9.79688 C14.7031,-10.2031 16.2969,-10.4063 17.9063,-10.4063 C20.5938,-10.4063 22.4063,-9.79688 23.7969,-7.09375 C25.2031,-4.5 27.1094,2 27.1094,4.5 C27.1094,9.40625 23.5,10.2031 19.5,10.2031"/>
<path class="Note" transform="matrix(0.992001,0,0,0.992001,1989.49,435.799)" d="M18.7031,-13.5938 C4.90625,-13.5938 0,-6.59375 0,-0.09375 C0,6.40625 4.90625,13.4063 18.7031,13.4063 C32.5,13.4063 37.2969,6.40625 37.2969,-0.09375 C37.2969,-6.59375 32.5,-13.5938 18.7031,-13.5938 M19.5,10.2031 C16.7031,10.2031 14.7969,9.40625 13.5,6.90625 C12.2031,4.40625 10.4063,-2.09375 10.2969,-4.70313 C10.0938,-7.40625 11.0938,-9 13.5,-9.79688 C14.7031,-10.2031 16.2969,-10.4063 17.9063,-10.4063 C20.5938,-10.4063 22.4063,-9.79688 23.7969,-7.09375 C25.2031,-4.5 27.1094,2 27.1094,4.5 C27.1094,9.40625 23.5,10.2031 19.5,10.2031"/>
<path class="Note" transform="matrix(0.992001,0,0,0.992001,1320.04,472.999)" d="M18.7031,-13.5938 C4.90625,-13.5938 0,-6.59375 0,-0.09375 C0,6.40625 4.90625,13.4063 18.7031,13.4063 C32.5,13.4063 37.2969,6.40625 37.2969,-0.09375 C37.2969,-6.59375 32.5,-13.5938 18.7031,-13.5938 M19.5,10.2031 C16.7031,10.2031 14.7969,9.40625 13.5,6.90625 C12.2031,4.40625 10.4063,-2.09375 10.2969,-4.70313 C10.0938,-7.40625 11.0938,-9 13.5,-9.79688 C14.7031,-10.2031 16.2969,-10.4063 17.9063,-10.4063 C20.5938,-10.4063 22.4063,-9.79688 23.7969,-7.09375 C25.2031,-4.5 27.1094,2 27.1094,4.5 C27.1094,9.40625 23.5,10.2031 19.5,10.2031"/>
<path class="Note" transform="matrix(0.992001,0,0,0.992001,1543.19,460.599)" d="M18.7031,-13.5938 C4.90625,-13.5938 0,-6.59375 0,-0.09375 C0,6.40625 4.90625,13.4063 18.7031,13.4063 C32.5,13.4063 37.2969,6.40625 37.2969,-0.09375 C37.2969,-6.59375 32.5,-13.5938 18.7031,-13.5938 M19.5,10.2031 C16.7031,10.2031 14.7969,9.40625 13.5,6.90625 C12.2031,4.40625 10.4063,-2.09375 10.2969,-4.70313 C10.0938,-7.40625 11.0938,-9 13.5,-9.79688 C14.7031,-10.2031 16.2969,-10.4063 17.9063,-10.4063 C20.5938,-10.4063 22.4063,-9.79688 23.7969,-7.09375 C25.2031,-4.5 27.1094,2 27.1094,4.5 C27.1094,9.40625 23.5,10.2031 19.5,10.2031"/>
<path class="Note" transform="matrix(0.992001,0,0,0.992001,1766.34,448.199)" d="M18.7031,-13.5938 C4.90625,-13.5938 0,-6.59375 0,-0.09375 C0,6.40625 4.90625,13.4063 18.7031,13.4063 C32.5,13.4063 37.2969,6.40625 37.2969,-0.09375 C37.2969,-6.59375 32.5,-13.5938 18.7031,-13.5938 M19.5,10.2031 C16.7031,10.2031 14.7969,9.40625 13.5,6.90625 C12.2031,4.40625 10.4063,-2.09375 10.2969,-4.70313 C10.0938,-7.40625 11.0938,-9 13.5,-9.79688 C14.7031,-10.2031 16.2969,-10.4063 17.9063,-10.4063 C20.5938,-10.4063 22.4063,-9.79688 23.7969,-7.09375 C25.2031,-4.5 27.1094,2 27.1094,4.5 C27.1094,9.40625 23.5,10.2031 19.5,10.2031"/>
<path class="Note" transform="matrix(0.992001,0,0,0.992001,427.444,522.599)" d="M18.7031,-13.5938 C4.90625,-13.5938 0,-6.59375 0,-0.09375 C0,6.40625 4.90625,13.4063 18.7031,13.4063 C32.5,13.4063 37.2969,6.40625 37.2969,-0.09375 C37.2969,-6.59375 32.5,-13.5938 18.7031,-13.5938 M19.5,10.2031 C16.7031,10.2031 14.7969,9.40625 13.5,6.90625 C12.2031,4.40625 10.4063,-2.09375 10.2969,-4.70313 C10.0938,-7.40625 11.0938,-9 13.5,-9.79688 C14.7031,-10.2031 16.2969,-10.4063 17.9063,-10.4063 C20.5938,-10.4063 22.4063,-9.79688 23.7969,-7.09375 C25.2031,-4.5 27.1094,2 27.1094,4.5 C27.1094,9.40625 23.5,10.2031 19.5,10.2031"/>
<path class="Note" transform="matrix(0.992001,0,0,0.992001,650.594,510.199)" d="M18.7031,-13.5938 C4.90625,-13.5938 0,-6.59375 0,-0.09375 C0,6.40625 4.90625,13.4063 18.7031,13.4063 C32.5,13.4063 37.2969,6.40625 37.2969,-0.09375 C37.2969,-6.59375 32.5,-13.5938 18.7031,-13.5938 M19.5,10.2031 C16.7031,10.2031 14.7969,9.40625 13.5,6.90625 C12.2031,4.40625 10.4063,-2.09375 10.2969,-4.70313 C10.0938,-7.40625 11.0938,-9 13.5,-9.79688 C14.7031,-10.2031 16.2969,-10.4063 17.9063,-10.4063 C20.5938,-10.4063 22.4063,-9.79688 23.7969,-7.09375 C25.2031,-4.5 27.1094,2 27.1094,4.5 C27.1094,9.40625 23.5,10.2031 19.5,10.2031"/>
<path class="Note" transform="matrix(0.992001,0,0,0.992001,1766.34,723.969)" d="M18.7031,-13.5938 C4.90625,-13.5938 0,-6.59375 0,-0.09375 C0,6.40625 4.90625,13.4063 18.7031,13.4063 C32.5,13.4063 37.2969,6.40625 37.2969,-0.09375 C37.2969,-6.59375 32.5,-13.5938 18.7031,-13.5938 M19.5,10.2031 C16.7031,10.2031 14.7969,9.40625 13.5,6.90625 C12.2031,4.40625 10.4063,-2.09375 10.2969,-4.70313 C10.0938,-7.40625 11.0938,-9 13.5,-9.79688 C14.7031,-10.2031 16.2969,-10.4063 17.9063,-10.4063 C20.5938,-10.4063 22.4063,-9.79688 23.7969,-7.09375 C25.2031,-4.5 27.1094,2 27.1094,4.5 C27.1094,9.40625 23.5,10.2031 19.5,10.2031"/>
<path class="Note" transform="matrix(0.992001,0,0,0.992001,1320.04,699.169)" d="M18.7031,-13.5938 C4.90625,-13.5938 0,-6.59375 0,-0.09375 C0,6.40625 4.90625,13.4063 18.7031,13.4063 C32.5,13.4063 37.2969,6.40625 37.2969,-0.09375 C37.2969,-6.59375 32.5,-13.5938 18.7031,-13.5938 M19.5,10.2031 C16.7031,10.2031 14.7969,9.40625 13.5,6.90625 C12.2031,4.40625 10.4063,-2.09375 10.2969,-4.70313 C10.0938,-7.40625 11.0938,-9 13.5,-9.79688 C14.7031,-10.2031 16.2969,-10.4063 17.9063,-10.4063 C20.5938,-10.4063 22.4063,-9.79688 23.7969,-7.09375 C25.2031,-4.5 27.1094,2 27.1094,4.5 C27.1094,9.40625 23.5,10.2031 19.5,10.2031"/>
<path class="Note" transform="matrix(0.992001,0,0,0.992001,1096.89,686.769)" d="M18.7031,-13.5938 C4.90625,-13.5938 0,-6.59375 0,-0.09375 C0,6.40625 4.90625,13.4063 18.7031,13.4063 C32.5,13.4063 37.2969,6.40625 37.2969,-0.09375 C37.2969,-6.59375 32.5,-13.5938 18.7031,-13.5938 M19.5,10.2031 C16.7031,10.2031 14.7969,9.40625 13.5,6.90625 C12.2031,4.40625 10.4063,-2.09375 10.2969,-4.70313 C10.0938,-7.40625 11.0938,-9 13.5,-9.79688 C14.7031,-10.2031 16.2969,-10.4063 17.9063,-10.4063 C20.5938,-10.4063 22.4063,-9.79688 23.7969,-7.09375 C25.2031,-4.5 27.1094,2 27.1094,4.5 C27.1094,9.40625 23.5,10.2031 19.5,10.2031"/>
<path class="Note" transform="matrix(0.992001,0,0,0.992001,1989.49,736.369)" d="M18.7031,-13.5938 C4.90625,-13.5938 0,-6.59375 0,-0.09375 C0,6.40625 4.90625,13.4063 18.7031,13.4063 C32.5,13.4063 37.2969,6.40625 37.2969,-0.09375 C37.2969,-6.59375 32.5,-13.5938 18.7031,-13.5938 M19.5,10.2031 C16.7031,10.2031 14.7969,9.40625 13.5,6.90625 C12.2031,4.40625 10.4063,-2.09375 10.2969,-4.70313 C10.0938,-7.40625 11.0938,-9 13.5,-9.79688 C14.7031,-10.2031 16.2969,-10.4063 17.9063,-10.4063 C20.5938,-10.4063 22.4063,-9.79688 23.7969,-7.09375 C25.2031,-4.5 27.1094,2 27.1094,4.5 C27.1094,9.40625 23.5,10.2031 19.5,10.2031"/>
<path class="Note" transform="matrix(0.992001,0,0,0.992001,873.744,674.369)" d="M18.7031,-13.5938 C4.90625,-13.5938 0,-6.59375 0,-0.09375 C0,6.40625 4.90625,13.4063 18.7031,13.4063 C32.5,13.4063 37.2969,6.40625 37.2969,-0.09375 C37.2969,-6.59375 32.5,-13.5938 18.7031,-13.5938 M19.5,10.2031 C16.7031,10.2031 14.7969,9.40625 13.5,6.90625 C12.2031,4.40625 10.4063,-2.09375 10.2969,-4.70313 C10.0938,-7.40625 11.0938,-9 13.5,-9.79688 C14.7031,-10.2031 16.2969,-10.4063 17.9063,-10.4063 C20.5938,-10.4063 22.4063,-9.79688 23.7969,-7.09375 C25.2031,-4.5 27.1094,2 27.1094,4.5 C27.1094,9.40625 23.5,10.2031 19.5,10.2031"/>
<path class="Note" transform="matrix(0.992001,0,0,0.992001,650.594,661.969)" d="M18.7031,-13.5938 C4.90625,-13.5938 0,-6.59375 0,-0.09375 C0,6.40625 4.90625,13.4063 18.7031,13.4063 C32.5,13.4063 37.2969,6.40625 37.2969,-0.09375 C37.2969,-6.59375 32.5,-13.5938 18.7031,-13.5938 M19.5,10.2031 C16.7031,10.2031 14.7969,9.40625 13.5,6.90625 C12.2031,4.40625 10.4063,-2.09375 10.2969,-4.70313 C10.0938,-7.40625 11.0938,-9 13.5,-9.79688 C14.7031,-10.2031 16.2969,-10.4063 17.9063,-10.4063 C20.5938,-10.4063 22.4063,-9.79688 23.7969,-7.09375 C25.2031,-4.5 27.1094,2 27.1094,4.5 C27.1094,9.40625 23.5,10.2031 19.5,10.2031"/>
<path class="Note" transform="matrix(0.992001,0,0,0.992001,427.444,649.569)" d="M18.7031,-13.5938 C4.90625,-13.5938 0,-6.59375 0,-0.09375 C0,6.40625 4.90625,13.4063 18.7031,13.4063 C32.5,13.4063 37.2969,6.40625 37.2969,-0.09375 C37.2969,-6.59375 32.5,-13.5938 18.7031,-13.5938 M19.5,10.2031 C16.7031,10.2031 14.7969,9.40625 13.5,6.90625 C12.2031,4.40625 10.4063,-2.09375 10.2969,-4.70313 C10.0938,-7.40625 11.0938,-9 13.5,-9.79688 C14.7031,-10.2031 16.2969,-10.4063 17.9063,-10.4063 C20.5938,-10.4063 22.4063,-9.79688 23.7969,-7.09375 C25.2031,-4.5 27.1094,2 27.1094,4.5 C27.1094,9.40625 23.5,10.2031 19.5,10.2031"/>
<path class="Note" transform="matrix(0.992001,0,0,0.992001,1543.19,711.569)" d="M18.7031,-13.5938 C4.90625,-13.5938 0,-6.59375 0,-0.09375 C0,6.40625 4.90625,13.4063 18.7031,13.4063 C32.5,13.4063 37.2969,6.40625 37.2969,-0.09375 C37.2969,-6.59375 32.5,-13.5938 18.7031,-13.5938 M19.5,10.2031 C16.7031,10.2031 14.7969,9.40625 13.5,6.90625 C12.2031,4.40625 10.4063,-2.09375 10.2969,-4.70313 C10.0938,-7.40625 11.0938,-9 13.5,-9.79688 C14.7031,-10.2031 16.2969,-10.4063 17.9063,-10.4063 C20.5938,-10.4063 22.4063,-9.79688 23.7969,-7.09375 C25.2031,-4.5 27.1094,2 27.1094,4.5 C27.1094,9.40625 23.5,10.2031 19.5,10.2031"/>
<path class="Clef" transform="matrix(0.992001,0,0,0.992001,235.662,460.599)" d="M12.2969,51.2969 C12.2969,57.9063 17.2969,66.6094 30.7969,66.6094 C35.5,66.6094 39.6094,65.4063 43.2031,63.2031 C48.6094,59.4063 50,52.7969 50,46.5 C50,42.6094 49.4063,38.1094 48.4063,32.4063 C48.1094,30.4063 47.5,27.4063 46.9063,23.5 C56.7031,20.2969 64,10.0938 64,-0.203125 C64,-15.2969 53.2969,-25.5 38.7031,-25.5 C37.7031,-31.5 36.7031,-37.4063 35.9063,-43 C46.4063,-54.1094 53.7031,-66.6094 53.7031,-82.5 C53.7031,-91.6094 50.9063,-99 49.2969,-102.609 C46.9063,-107.703 44,-111.203 42.2031,-111.203 C41.5,-111.203 38.4063,-110 35.1094,-106.109 C28.7031,-98.5 26.9063,-85.7031 26.9063,-77.3125 C26.9063,-71.9063 27.4063,-67 29.1094,-55.7969 C29,-55.7031 23.7969,-50.4063 21.7031,-48.7031 C12.5938,-40.2969 0,-28.1094 0,-8.09375 C0,10.5938 16.2969,25.2969 34.9063,25.2969 C37.7969,25.2969 40.5,25 42.7969,24.5938 C44.7031,34.2031 45.9063,41.2031 45.9063,46.5 C45.9063,56.9063 40.5,62.4063 30.4063,62.4063 C28,62.4063 25.9063,61.9063 25.7031,61.9063 C25.6094,61.7969 25.4063,61.7031 25.4063,61.6094 C25.4063,61.4063 25.6094,61.2969 25.9063,61.2969 C30.6094,60.5 35.2969,56.5 35.2969,50.1094 C35.2969,44.7031 31.2031,39 23.7031,39 C16.7031,39 12.2969,44.7031 12.2969,51.2969 M33.2031,-82.2031 C34.1094,-86.2031 38.7031,-96.7031 43.9063,-96.7031 C45.4063,-96.7031 47.7969,-91.9063 47.7969,-84.9063 C47.7969,-74.5 40.1094,-66.7031 33.2031,-59.9063 C32.6094,-63.9063 32.1094,-67.7969 32.1094,-72 C32.1094,-75.7031 32.4063,-79.1094 33.2031,-82.2031 M42,20.5938 C40,21 38.1094,21.2031 36.2031,21.2031 C21.9063,21.2031 9.70313,11.2031 9.70313,-3.90625 C9.70313,-16.0938 18.2969,-27 27.1094,-34.6094 C28.7969,-36.1094 30.4063,-37.5 31.9063,-39 C32.7969,-33.6094 33.5,-28.9063 34.2031,-24.7969 C25.0938,-22.0938 18.9063,-12.5 18.9063,-3.09375 C18.9063,3.90625 24.4063,13.5 32.4063,13.5 C33.2031,13.5 34.1094,13.0938 34.1094,12.2031 C34.1094,11.2969 33.1094,10.7969 31.9063,10 C28,7.59375 25.7969,5 25.7969,0.09375 C25.7969,-6 30.4063,-10.9063 36.2031,-12.2969 L42,20.5938 M56.2031,2.09375 C56.2031,9.20313 53.2969,16.5 46.2031,19.4063 C44.1094,7.40625 41.4063,-8.5 40.7031,-12.9063 C49.7031,-12.9063 56.2031,-6.79688 56.2031,2.09375"/>
<path class="Clef" transform="matrix(0.992001,0,0,0.992001,235.662,686.769)" d="M25.4063,-25.0938 C17.7969,-25.0938 11.7031,-20.7031 11.5938,-20.7031 C5.70313,-16.4063 1.90625,-9.79688 1.90625,-2.5 C1.90625,4.79688 6.09375,10.2031 13.5,10.2031 C19.9063,10.2031 24.9063,5.90625 24.9063,-0.703125 C24.9063,-6.40625 19.9063,-11.0938 14.2969,-11.0938 C13.0938,-11.0938 12,-10.9063 11.0938,-10.5938 C10.0938,-10.2031 8.40625,-9.20313 7.59375,-8.5 C8.29688,-12.9063 11.2969,-17.2969 15.2031,-19.4063 C17.7031,-20.7969 20.9063,-21.4063 24.4063,-21.4063 C34.6094,-21.4063 39.6094,-13.2031 39.6094,3.59375 C39.6094,16.5938 31.2969,35.2969 21.5,44.1094 C11.0938,53.6094 1.29688,58.1094 1.20313,58.1094 C1.20313,58.1094 0,58.7969 0,60 C0,60.2031 0.09375,60.2969 0.09375,60.5 C0.40625,61.5 1.29688,61.7031 2,61.7031 L2.29688,61.6094 C2.5,61.6094 13.9063,56.9063 23,49.7969 C37,39.7031 52.7969,21.9063 52.7969,3.5 C52.7969,-13.9063 43.4063,-25.0938 25.4063,-25.0938 M56.7969,-12.4063 C56.7969,-9.59375 59,-7.40625 61.6094,-7.40625 C64.2031,-7.40625 66.4063,-9.59375 66.4063,-12.4063 C66.4063,-15.2031 64.2031,-17.5 61.6094,-17.5 C59,-17.5 56.7969,-15.2031 56.7969,-12.4063 M56.7969,12.2969 C56.7969,15.0938 59,17.4063 61.6094,17.4063 C64.2031,17.4063 66.4063,15.0938 66.4063,12.2969 C66.4063,9.5 64.2031,7.20313 61.6094,7.20313 C59,7.20313 56.7969,9.5 56.7969,12.2969"/>
<path class="KeySig" transform="matrix(0.992001,0,0,0.992001,320.122,435.799)" d="M12,-15.5 C7,-15.5 4.09375,-12.4063 3.59375,-11.7969 L4,-43.9063 C4,-44.7031 3.40625,-45.2969 2.59375,-45.2969 L1.40625,-45.2969 C0.59375,-45.2969 0,-44.7031 0,-43.9063 L0.5,16.2031 C0.5,17 1.09375,17.5938 1.90625,17.5938 C2.09375,17.5938 2.5,17.5 2.70313,17.4063 C11.2969,13.0938 20.2969,4.90625 20.2969,-5.40625 C20.2969,-10.5938 17.9063,-15.5 12,-15.5 M3.29688,12.7031 L3.59375,-6.79688 C3.79688,-7.70313 5.29688,-10.5938 9.29688,-10.5938 C12.9063,-10.5938 13.2031,-7.20313 13.2031,-5.09375 C13.2031,3.79688 9.90625,7.5 3.29688,12.7031"/>
<path class="KeySig" transform="matrix(0.992001,0,0,0.992001,347.697,398.599)" d="M12,-15.5 C7,-15.5 4.09375,-12.4063 3.59375,-11.7969 L4,-43.9063 C4,-44.7031 3.40625,-45.2969 2.59375,-45.2969 L1.40625,-45.2969 C0.59375,-45.2969 0,-44.7031 0,-43.9063 L0.5,16.2031 C0.5,17 1.09375,17.5938 1.90625,17.5938 C2.09375,17.5938 2.5,17.5 2.70313,17.4063 C11.2969,13.0938 20.2969,4.90625 20.2969,-5.40625 C20.2969,-10.5938 17.9063,-15.5 12,-15.5 M3.29688,12.7031 L3.59375,-6.79688 C3.79688,-7.70313 5.29688,-10.5938 9.29688,-10.5938 C12.9063,-10.5938 13.2031,-7.20313 13.2031,-5.09375 C13.2031,3.79688 9.90625,7.5 3.29688,12.7031"/>
<path class="KeySig" transform="matrix(0.992001,0,0,0.992001,2216.86,386.199)" d="M23.2969,-10.5 C23.9063,-10.5938 24.4063,-11.2969 24.4063,-11.9063 L24.4063,-17.7969 C24.4063,-18.7969 23.7031,-19.2031 22.7969,-19.2031 L19.5,-18.5 L19.5,-33.4063 L16.7031,-33.4063 L16.7031,-17.9063 L7.79688,-16.0938 L7.79688,-30.2031 L5,-30.2031 L5,-15.5 L1.09375,-14.7031 C0.5,-14.5938 0,-13.9063 0,-13.2969 L0,-7.5 C0,-6.40625 0.796875,-6.09375 1.70313,-6.09375 L5,-6.79688 L5,9.70313 L1.09375,10.5 C0.5,10.5938 0,11.2969 0,11.9063 L0,17.7031 C0,18.7969 0.796875,19.0938 1.70313,19.0938 L5,18.4063 L5,33.2969 L7.79688,33.2969 L7.79688,17.7969 L16.7031,16 L16.7031,30.1094 L19.5,30.1094 L19.5,15.4063 L23.2969,14.7031 C23.9063,14.5938 24.4063,13.9063 24.4063,13.2969 L24.4063,7.40625 C24.4063,6.40625 23.7031,6 22.7969,6 L19.5,6.70313 L19.5,-9.79688 L23.2969,-10.5 M7.79688,-7.40625 L16.7031,-9.20313 L16.7031,7.29688 L7.79688,9.20313 L7.79688,-7.40625 "/>
<path class="KeySig" transform="matrix(0.992001,0,0,0.992001,2244.03,423.399)" d="M23.2969,-10.5 C23.9063,-10.5938 24.4063,-11.2969 24.4063,-11.9063 L24.4063,-17.7969 C24.4063,-18.7969 23.7031,-19.2031 22.7969,-19.2031 L19.5,-18.5 L19.5,-33.4063 L16.7031,-33.4063 L16.7031,-17.9063 L7.79688,-16.0938 L7.79688,-30.2031 L5,-30.2031 L5,-15.5 L1.09375,-14.7031 C0.5,-14.5938 0,-13.9063 0,-13.2969 L0,-7.5 C0,-6.40625 0.796875,-6.09375 1.70313,-6.09375 L5,-6.79688 L5,9.70313 L1.09375,10.5 C0.5,10.5938 0,11.2969 0,11.9063 L0,17.7031 C0,18.7969 0.796875,19.0938 1.70313,19.0938 L5,18.4063 L5,33.2969 L7.79688,33.2969 L7.79688,17.7969 L16.7031,16 L16.7031,30.1094 L19.5,30.1094 L19.5,15.4063 L23.2969,14.7031 C23.9063,14.5938 24.4063,13.9063 24.4063,13.2969 L24.4063,7.40625 C24.4063,6.40625 23.7031,6 22.7969,6 L19.5,6.70313 L19.5,-9.79688 L23.2969,-10.5 M7.79688,-7.40625 L16.7031,-9.20313 L16.7031,7.29688 L7.79688,9.20313 L7.79688,-7.40625 "/>
<path class="KeySig" transform="matrix(0.992001,0,0,0.992001,2271.19,373.799)" d="M23.2969,-10.5 C23.9063,-10.5938 24.4063,-11.2969 24.4063,-11.9063 L24.4063,-17.7969 C24.4063,-18.7969 23.7031,-19.2031 22.7969,-19.2031 L19.5,-18.5 L19.5,-33.4063 L16.7031,-33.4063 L16.7031,-17.9063 L7.79688,-16.0938 L7.79688,-30.2031 L5,-30.2031 L5,-15.5 L1.09375,-14.7031 C0.5,-14.5938 0,-13.9063 0,-13.2969 L0,-7.5 C0,-6.40625 0.796875,-6.09375 1.70313,-6.09375 L5,-6.79688 L5,9.70313 L1.09375,10.5 C0.5,10.5938 0,11.2969 0,11.9063 L0,17.7031 C0,18.7969 0.796875,19.0938 1.70313,19.0938 L5,18.4063 L5,33.2969 L7.79688,33.2969 L7.79688,17.7969 L16.7031,16 L16.7031,30.1094 L19.5,30.1094 L19.5,15.4063 L23.2969,14.7031 C23.9063,14.5938 24.4063,13.9063 24.4063,13.2969 L24.4063,7.40625 C24.4063,6.40625 23.7031,6 22.7969,6 L19.5,6.70313 L19.5,-9.79688 L23.2969,-10.5 M7.79688,-7.40625 L16.7031,-9.20313 L16.7031,7.29688 L7.79688,9.20313 L7.79688,-7.40625 "/>
<path class="KeySig" transform="matrix(0.992001,0,0,0.992001,320.122,736.369)" d="M12,-15.5 C7,-15.5 4.09375,-12.4063 3.59375,-11.7969 L4,-43.9063 C4,-44.7031 3.40625,-45.2969 2.59375,-45.2969 L1.40625,-45.2969 C0.59375,-45.2969 0,-44.7031 0,-43.9063 L0.5,16.2031 C0.5,17 1.09375,17.5938 1.90625,17.5938 C2.09375,17.5938 2.5,17.5 2.70313,17.4063 C11.2969,13.0938 20.2969,4.90625 20.2969,-5.40625 C20.2969,-10.5938 17.9063,-15.5 12,-15.5 M3.29688,12.7031 L3.59375,-6.79688 C3.79688,-7.70313 5.29688,-10.5938 9.29688,-10.5938 C12.9063,-10.5938 13.2031,-7.20313 13.2031,-5.09375 C13.2031,3.79688 9.90625,7.5 3.29688,12.7031"/>
<path class="KeySig" transform="matrix(0.992001,0,0,0.992001,347.697,699.169)" d="M12,-15.5 C7,-15.5 4.09375,-12.4063 3.59375,-11.7969 L4,-43.9063 C4,-44.7031 3.40625,-45.2969 2.59375,-45.2969 L1.40625,-45.2969 C0.59375,-45.2969 0,-44.7031 0,-43.9063 L0.5,16.2031 C0.5,17 1.09375,17.5938 1.90625,17.5938 C2.09375,17.5938 2.5,17.5 2.70313,17.4063 C11.2969,13.0938 20.2969,4.90625 20.2969,-5.40625 C20.2969,-10.5938 17.9063,-15.5 12,-15.5 M3.29688,12.7031 L3.59375,-6.79688 C3.79688,-7.70313 5.29688,-10.5938 9.29688,-10.5938 C12.9063,-10.5938 13.2031,-7.20313 13.2031,-5.09375 C13.2031,3.79688 9.90625,7.5 3.29688,12.7031"/>
<path class="KeySig" transform="matrix(0.992001,0,0,0.992001,2216.86,686.769)" d="M23.2969,-10.5 C23.9063,-10.5938 24.4063,-11.2969 24.4063,-11.9063 L24.4063,-17.7969 C24.4063,-18.7969 23.7031,-19.2031 22.7969,-19.2031 L19.5,-18.5 L19.5,-33.4063 L16.7031,-33.4063 L16.7031,-17.9063 L7.79688,-16.0938 L7.79688,-30.2031 L5,-30.2031 L5,-15.5 L1.09375,-14.7031 C0.5,-14.5938 0,-13.9063 0,-13.2969 L0,-7.5 C0,-6.40625 0.796875,-6.09375 1.70313,-6.09375 L5,-6.79688 L5,9.70313 L1.09375,10.5 C0.5,10.5938 0,11.2969 0,11.9063 L0,17.7031 C0,18.7969 0.796875,19.0938 1.70313,19.0938 L5,18.4063 L5,33.2969 L7.79688,33.2969 L7.79688,17.7969 L16.7031,16 L16.7031,30.1094 L19.5,30.1094 L19.5,15.4063 L23.2969,14.7031 C23.9063,14.5938 24.4063,13.9063 24.4063,13.2969 L24.4063,7.40625 C24.4063,6.40625 23.7031,6 22.7969,6 L19.5,6.70313 L19.5,-9.79688 L23.2969,-10.5 M7.79688,-7.40625 L16.7031,-9.20313 L16.7031,7.29688 L7.79688,9.20313 L7.79688,-7.40625 "/>
<path class="KeySig" transform="matrix(0.992001,0,0,0.992001,2244.03,723.969)" d="M23.2969,-10.5 C23.9063,-10.5938 24.4063,-11.2969 24.4063,-11.9063 L24.4063,-17.7969 C24.4063,-18.7969 23.7031,-19.2031 22.7969,-19.2031 L19.5,-18.5 L19.5,-33.4063 L16.7031,-33.4063 L16.7031,-17.9063 L7.79688,-16.0938 L7.79688,-30.2031 L5,-30.2031 L5,-15.5 L1.09375,-14.7031 C0.5,-14.5938 0,-13.9063 0,-13.2969 L0,-7.5 C0,-6.40625 0.796875,-6.09375 1.70313,-6.09375 L5,-6.79688 L5,9.70313 L1.09375,10.5 C0.5,10.5938 0,11.2969 0,11.9063 L0,17.7031 C0,18.7969 0.796875,19.0938 1.70313,19.0938 L5,18.4063 L5,33.2969 L7.79688,33.2969 L7.79688,17.7969 L16.7031,16 L16.7031,30.1094 L19.5,30.1094 L19.5,15.4063 L23.2969,14.7031 C23.9063,14.5938 24.4063,13.9063 24.4063,13.2969 L24.4063,7.40625 C24.4063,6.40625 23.7031,6 22.7969,6 L19.5,6.70313 L19.5,-9.79688 L23.2969,-10.5 M7.79688,-7.40625 L16.7031,-9.20313 L16.7031,7.29688 L7.79688,9.20313 L7.79688,-7.40625 "/>
<path class="KeySig" transform="matrix(0.992001,0,0,0.992001,2271.19,674.369)" d="M23.2969,-10.5 C23.9063,-10.5938 24.4063,-11.2969 24.4063,-11.9063 L24.4063,-17.7969 C24.4063,-18.7969 23.7031,-19.2031 22.7969,-19.2031 L19.5,-18.5 L19.5,-33.4063 L16.7031,-33.4063 L16.7031,-17.9063 L7.79688,-16.0938 L7.79688,-30.2031 L5,-30.2031 L5,-15.5 L1.09375,-14.7031 C0.5,-14.5938 0,-13.9063 0,-13.2969 L0,-7.5 C0,-6.40625 0.796875,-6.09375 1.70313,-6.09375 L5,-6.79688 L5,9.70313 L1.09375,10.5 C0.5,10.5938 0,11.2969 0,11.9063 L0,17.7031 C0,18.7969 0.796875,19.0938 1.70313,19.0938 L5,18.4063 L5,33.2969 L7.79688,33.2969 L7.79688,17.7969 L16.7031,16 L16.7031,30.1094 L19.5,30.1094 L19.5,15.4063 L23.2969,14.7031 C23.9063,14.5938 24.4063,13.9063 24.4063,13.2969 L24.4063,7.40625 C24.4063,6.40625 23.7031,6 22.7969,6 L19.5,6.70313 L19.5,-9.79688 L23.2969,-10.5 M7.79688,-7.40625 L16.7031,-9.20313 L16.7031,7.29688 L7.79688,9.20313 L7.79688,-7.40625 "/>
<path class="Lyrics" d="M1549.9,560.931 L1540.65,561.494 L1540.65,563.635 L1543.1,563.635 C1544.94,563.681 1545.19,563.994 1545.19,566.135 L1545.19,593.994 C1545.15,594.744 1545.1,595.041 1544.9,595.291 C1544.54,595.744 1543.6,595.947 1541.44,595.994 L1541.1,595.994 L1541.1,597.791 L1554.04,597.791 L1554.04,595.994 L1553.69,595.994 C1550.35,595.885 1549.9,595.635 1549.9,593.838 L1549.9,560.931 M1578.29,581.697 C1578.29,578.541 1577.74,576.947 1576.29,575.744 C1574.65,574.385 1572.19,573.744 1568.99,573.744 C1563.35,573.744 1559.24,576.385 1559.24,580.041 C1559.24,581.885 1560.4,583.088 1562.15,583.088 C1563.74,583.088 1564.85,582.041 1564.85,580.541 C1564.85,579.885 1564.6,579.197 1564.1,578.494 C1563.79,578.135 1563.74,578.041 1563.74,577.791 C1563.74,576.791 1565.74,575.885 1568.15,575.885 C1569.74,575.885 1571.49,576.385 1572.29,577.135 C1573.24,577.947 1573.6,579.135 1573.6,581.385 L1573.6,583.338 C1568.4,584.244 1566.74,584.635 1564.29,585.588 C1559.94,587.197 1557.9,589.494 1557.9,592.697 C1557.9,596.291 1560.69,598.541 1565.15,598.541 C1568.6,598.541 1571.69,597.135 1573.85,594.588 C1574.65,597.135 1575.9,598.135 1578.24,598.135 C1580.49,598.135 1582.85,596.697 1582.85,595.244 C1582.85,594.885 1582.65,594.635 1582.35,594.635 C1582.15,594.635 1581.94,594.697 1581.6,594.838 C1580.9,595.135 1580.6,595.197 1580.19,595.197 C1578.79,595.197 1578.29,594.291 1578.29,591.744 L1578.29,581.697 M1573.6,587.791 C1573.6,590.791 1573.44,591.494 1572.6,592.791 C1571.35,594.635 1569.1,595.885 1566.9,595.885 C1564.6,595.885 1562.94,594.244 1562.94,591.994 C1562.94,589.885 1563.99,588.385 1566.19,587.338 C1567.74,586.635 1569.69,586.135 1573.6,585.494 L1573.6,587.791 "/>
<path class="Lyrics" d="M437.443,598.135 L446.147,597.791 L446.147,595.635 L445.24,595.635 C442.397,595.494 442.147,595.197 442.147,591.994 L442.147,560.931 L432.35,561.494 L432.35,563.635 L435.287,563.635 C437.193,563.681 437.443,563.994 437.443,566.135 L437.443,577.447 C435.6,574.885 433.443,573.744 430.537,573.744 C424.897,573.744 420.6,579.197 420.6,586.385 C420.6,593.494 424.74,598.541 430.537,598.541 C433.693,598.541 435.85,597.197 437.443,594.197 L437.443,598.135 M431.537,576.447 C433.6,576.447 435.537,577.947 436.443,580.244 C437.1,581.744 437.397,583.791 437.397,586.244 C437.397,592.088 435.1,595.838 431.49,595.838 C427.943,595.838 425.85,592.541 425.85,586.994 C425.85,583.994 426.147,581.744 426.787,580.088 C427.647,577.838 429.49,576.447 431.537,576.447 M460.037,573.744 C453.897,573.744 449.147,579.197 449.147,586.197 C449.147,593.041 453.943,598.541 459.943,598.541 C465.943,598.541 470.74,593.041 470.74,586.135 C470.74,579.291 465.943,573.744 460.037,573.744 M460.037,575.885 C463.537,575.885 465.49,579.541 465.49,586.135 C465.49,592.791 463.537,596.385 459.943,596.385 C456.35,596.385 454.397,592.791 454.397,586.197 C454.397,579.385 456.287,575.885 460.037,575.885"/>
<path class="Lyrics" d="M1784.34,573.947 L1782.59,573.947 L1781.14,575.744 C1779.34,574.338 1777.55,573.744 1775.05,573.744 C1770.64,573.744 1767.75,576.588 1767.75,580.994 C1767.75,585.697 1770.8,586.885 1774.8,587.838 L1777.44,588.447 C1781.39,589.385 1782.8,590.385 1782.8,592.385 C1782.8,594.744 1780.75,596.385 1777.84,596.385 C1773.59,596.385 1770.59,593.697 1769.39,588.697 L1767.39,588.697 L1767.39,598.135 L1769.14,598.135 L1770.89,596.088 C1772.94,597.744 1775.19,598.541 1777.75,598.541 C1782.64,598.541 1785.89,595.494 1785.89,590.838 C1785.89,588.635 1785.19,586.947 1783.8,585.791 C1782.59,584.744 1781.59,584.338 1778.55,583.697 L1776.05,583.135 C1773.3,582.541 1773.3,582.541 1772.39,582.041 C1771.3,581.541 1770.64,580.494 1770.64,579.385 C1770.64,577.338 1772.55,575.947 1775.3,575.947 C1779.39,575.947 1781.39,578.838 1782.59,582.338 L1784.34,582.338 L1784.34,573.947 M1795.8,562.041 C1794.19,562.041 1792.89,563.338 1792.89,564.931 C1792.89,566.541 1794.19,567.838 1795.75,567.838 C1797.39,567.838 1798.69,566.541 1798.69,564.931 C1798.69,563.338 1797.39,562.041 1795.8,562.041 M1798.14,574.494 L1788.75,575.041 L1788.75,577.197 L1791.3,577.197 C1793.19,577.244 1793.44,577.541 1793.44,579.697 L1793.44,593.994 C1793.39,594.744 1793.34,595.041 1793.14,595.291 C1792.8,595.744 1791.84,595.947 1789.69,595.994 L1789.34,595.994 L1789.34,597.791 L1802.3,597.791 L1802.3,595.994 L1801.94,595.994 C1798.59,595.885 1798.14,595.635 1798.14,593.838 L1798.14,574.494 "/>
<path class="Lyrics" d="M1325.54,573.947 L1323.79,573.947 L1322.34,575.744 C1320.54,574.338 1318.75,573.744 1316.25,573.744 C1311.84,573.744 1308.95,576.588 1308.95,580.994 C1308.95,585.697 1312,586.885 1316,587.838 L1318.64,588.447 C1322.59,589.385 1324,590.385 1324,592.385 C1324,594.744 1321.95,596.385 1319.04,596.385 C1314.79,596.385 1311.79,593.697 1310.59,588.697 L1308.59,588.697 L1308.59,598.135 L1310.34,598.135 L1312.09,596.088 C1314.14,597.744 1316.39,598.541 1318.95,598.541 C1323.84,598.541 1327.09,595.494 1327.09,590.838 C1327.09,588.635 1326.39,586.947 1325,585.791 C1323.79,584.744 1322.79,584.338 1319.75,583.697 L1317.25,583.135 C1314.5,582.541 1314.5,582.541 1313.59,582.041 C1312.5,581.541 1311.84,580.494 1311.84,579.385 C1311.84,577.338 1313.75,575.947 1316.5,575.947 C1320.59,575.947 1322.59,578.838 1323.79,582.338 L1325.54,582.338 L1325.54,573.947 M1341.64,573.744 C1335.5,573.744 1330.75,579.197 1330.75,586.197 C1330.75,593.041 1335.54,598.541 1341.54,598.541 C1347.54,598.541 1352.34,593.041 1352.34,586.135 C1352.34,579.291 1347.54,573.744 1341.64,573.744 M1341.64,575.885 C1345.14,575.885 1347.09,579.541 1347.09,586.135 C1347.09,592.791 1345.14,596.385 1341.54,596.385 C1337.95,596.385 1336,592.791 1336,586.197 C1336,579.385 1337.89,575.885 1341.64,575.885 M1364.25,560.931 L1355,561.494 L1355,563.635 L1357.45,563.635 C1359.29,563.681 1359.54,563.994 1359.54,566.135 L1359.54,593.994 C1359.5,594.744 1359.45,595.041 1359.25,595.291 C1358.89,595.744 1357.95,595.947 1355.79,595.994 L1355.45,595.994 L1355.45,597.791 L1368.39,597.791 L1368.39,595.994 L1368.04,595.994 C1364.7,595.885 1364.25,595.635 1364.25,593.838 L1364.25,560.931 "/>
<path class="Lyrics" d="M1999.49,598.135 L2008.2,597.791 L2008.2,595.635 L2007.29,595.635 C2004.45,595.494 2004.2,595.197 2004.2,591.994 L2004.2,560.931 L1994.4,561.494 L1994.4,563.635 L1997.34,563.635 C1999.24,563.681 1999.49,563.994 1999.49,566.135 L1999.49,577.447 C1997.65,574.885 1995.49,573.744 1992.59,573.744 C1986.95,573.744 1982.65,579.197 1982.65,586.385 C1982.65,593.494 1986.79,598.541 1992.59,598.541 C1995.74,598.541 1997.9,597.197 1999.49,594.197 L1999.49,598.135 M1993.59,576.447 C1995.65,576.447 1997.59,577.947 1998.49,580.244 C1999.15,581.744 1999.45,583.791 1999.45,586.244 C1999.45,592.088 1997.15,595.838 1993.54,595.838 C1989.99,595.838 1987.9,592.541 1987.9,586.994 C1987.9,583.994 1988.2,581.744 1988.84,580.088 C1989.7,577.838 1991.54,576.447 1993.59,576.447 M2022.09,573.744 C2015.95,573.744 2011.2,579.197 2011.2,586.197 C2011.2,593.041 2015.99,598.541 2021.99,598.541 C2027.99,598.541 2032.79,593.041 2032.79,586.135 C2032.79,579.291 2027.99,573.744 2022.09,573.744 M2022.09,575.885 C2025.59,575.885 2027.54,579.541 2027.54,586.135 C2027.54,592.791 2025.59,596.385 2021.99,596.385 C2018.4,596.385 2016.45,592.791 2016.45,586.197 C2016.45,579.385 2018.34,575.885 2022.09,575.885"/>
<path class="Lyrics" d="M872.29,574.494 L863.4,575.041 L863.4,577.197 L865.446,577.197 C867.337,577.244 867.587,577.541 867.587,579.697 L867.587,593.994 C867.54,594.744 867.493,595.041 867.29,595.291 C866.946,595.744 865.993,595.947 863.837,595.994 L863.65,595.994 L863.65,597.791 L876.243,597.791 L876.243,595.994 L876.04,595.994 C872.743,595.885 872.29,595.635 872.29,593.791 L872.29,584.541 C872.29,580.088 874.743,576.791 877.993,576.791 C880.837,576.791 882.29,578.838 882.29,582.885 L882.29,594.041 C882.243,594.697 882.196,595.041 881.946,595.291 C881.65,595.744 880.65,595.947 878.493,595.994 L878.29,595.994 L878.29,597.791 L890.946,597.791 L890.946,595.994 L890.743,595.994 C887.446,595.885 886.993,595.635 886.993,593.838 L886.993,584.994 C886.993,579.994 889.243,576.791 892.743,576.791 C895.603,576.791 896.993,578.947 896.993,583.447 L896.993,593.994 C896.946,594.697 896.9,595.041 896.65,595.291 C896.353,595.744 895.353,595.947 893.196,595.994 L892.993,595.994 L892.993,597.791 L905.65,597.791 L905.65,595.994 L905.446,595.994 C902.15,595.885 901.696,595.635 901.696,593.791 L901.696,582.447 C901.696,579.338 901.4,578.291 900.103,576.588 C898.65,574.744 896.603,573.744 894.196,573.744 C890.946,573.744 888.54,575.291 886.4,578.744 C885.54,575.744 882.837,573.744 879.493,573.744 C876.446,573.744 874.243,575.197 872.29,578.338 L872.29,574.494 M914.196,562.041 C912.587,562.041 911.29,563.338 911.29,564.931 C911.29,566.541 912.587,567.838 914.15,567.838 C915.79,567.838 917.087,566.541 917.087,564.931 C917.087,563.338 915.79,562.041 914.196,562.041 M916.54,574.494 L907.15,575.041 L907.15,577.197 L909.696,577.197 C911.587,577.244 911.837,577.541 911.837,579.697 L911.837,593.994 C911.79,594.744 911.743,595.041 911.54,595.291 C911.196,595.744 910.243,595.947 908.087,595.994 L907.743,595.994 L907.743,597.791 L920.696,597.791 L920.696,595.994 L920.337,595.994 C916.993,595.885 916.54,595.635 916.54,593.838 L916.54,574.494 "/>
<path class="Lyrics" d="M655.5,574.494 L646.64,575.041 L646.64,577.197 L648.687,577.197 C650.593,577.244 650.843,577.541 650.843,579.697 L650.843,593.994 C650.796,594.744 650.75,595.041 650.546,595.291 C650.187,595.744 649.187,595.947 647.046,595.994 L646.843,595.994 L646.843,597.791 L660.187,597.791 L660.187,595.994 L659.296,595.994 C655.937,595.885 655.5,595.635 655.5,593.838 L655.5,591.135 C655.546,582.744 658.546,576.338 662.437,576.135 C661.75,576.947 661.546,577.447 661.546,578.385 C661.546,579.994 662.687,581.135 664.296,581.135 C666.14,581.135 667.343,579.791 667.343,577.791 C667.343,575.338 665.64,573.744 663,573.744 C659.843,573.744 657.14,576.244 655.5,580.697 L655.5,574.494 M690.843,586.541 C690.89,579.041 686.64,573.744 680.546,573.744 C674.14,573.744 669.343,579.291 669.343,586.791 C669.343,593.838 673.89,598.541 680.64,598.541 C685.437,598.541 688.796,596.197 690.843,591.447 L689.093,590.494 C687.046,594.338 684.937,595.838 681.593,595.838 C679.046,595.838 677.187,594.791 675.89,592.541 C675,591.041 674.593,589.291 674.64,586.541 L690.843,586.541 M674.687,584.385 C674.687,580.885 676.296,575.885 680.5,575.885 C683.5,575.885 685.5,578.541 685.5,582.588 C685.5,583.994 685.046,584.385 683.437,584.385 L674.687,584.385 "/>
<path class="Lyrics" d="M1102.94,574.494 L1102.94,571.635 C1102.94,569.135 1103.1,567.494 1103.49,566.494 C1104.3,564.291 1106.05,562.931 1108.05,562.931 C1109.1,562.931 1109.74,563.244 1109.74,563.791 C1109.74,563.994 1109.74,564.041 1109.44,564.431 C1109.14,564.885 1108.99,565.494 1108.99,566.041 C1108.99,567.541 1110.19,568.681 1111.74,568.681 C1113.39,568.681 1114.55,567.431 1114.55,565.635 C1114.55,562.744 1112.05,560.931 1107.99,560.931 C1104.55,560.931 1101.99,562.135 1100.24,564.635 C1098.74,566.744 1098.24,568.885 1098.24,572.947 L1098.24,574.494 L1093.85,574.494 L1093.85,576.635 L1098.24,576.635 L1098.24,593.994 C1098.19,594.697 1098.14,594.994 1097.94,595.291 C1097.6,595.744 1096.64,595.947 1094.49,595.994 L1094.3,595.994 L1094.3,597.791 L1107.64,597.791 L1107.64,595.994 L1106.74,595.994 C1103.39,595.885 1102.94,595.635 1102.94,593.838 L1102.94,576.635 L1108.44,576.635 L1108.44,574.494 L1102.94,574.494 M1131.49,581.697 C1131.49,578.541 1130.94,576.947 1129.49,575.744 C1127.85,574.385 1125.39,573.744 1122.19,573.744 C1116.55,573.744 1112.44,576.385 1112.44,580.041 C1112.44,581.885 1113.6,583.088 1115.35,583.088 C1116.94,583.088 1118.05,582.041 1118.05,580.541 C1118.05,579.885 1117.8,579.197 1117.3,578.494 C1116.99,578.135 1116.94,578.041 1116.94,577.791 C1116.94,576.791 1118.94,575.885 1121.35,575.885 C1122.94,575.885 1124.69,576.385 1125.49,577.135 C1126.44,577.947 1126.8,579.135 1126.8,581.385 L1126.8,583.338 C1121.6,584.244 1119.94,584.635 1117.49,585.588 C1113.14,587.197 1111.1,589.494 1111.1,592.697 C1111.1,596.291 1113.89,598.541 1118.35,598.541 C1121.8,598.541 1124.89,597.135 1127.05,594.588 C1127.85,597.135 1129.1,598.135 1131.44,598.135 C1133.69,598.135 1136.05,596.697 1136.05,595.244 C1136.05,594.885 1135.85,594.635 1135.55,594.635 C1135.35,594.635 1135.14,594.697 1134.8,594.838 C1134.1,595.135 1133.8,595.197 1133.39,595.197 C1131.99,595.197 1131.49,594.291 1131.49,591.744 L1131.49,581.697 M1126.8,587.791 C1126.8,590.791 1126.64,591.494 1125.8,592.791 C1124.55,594.635 1122.3,595.885 1120.1,595.885 C1117.8,595.885 1116.14,594.244 1116.14,591.994 C1116.14,589.885 1117.19,588.385 1119.39,587.338 C1120.94,586.635 1122.89,586.135 1126.8,585.494 L1126.8,587.791 "/>
<path class="Lyrics" d="M1541.74,812.272 L1532.85,812.819 L1532.85,814.975 L1534.9,814.975 C1536.79,815.022 1537.04,815.319 1537.04,817.475 L1537.04,831.772 C1536.99,832.522 1536.94,832.819 1536.74,833.069 C1536.4,833.522 1535.44,833.725 1533.29,833.772 L1533.1,833.772 L1533.1,835.569 L1545.69,835.569 L1545.69,833.772 L1545.49,833.772 C1542.19,833.663 1541.74,833.413 1541.74,831.569 L1541.74,822.319 C1541.74,817.866 1544.19,814.569 1547.44,814.569 C1550.29,814.569 1551.74,816.616 1551.74,820.663 L1551.74,831.819 C1551.69,832.475 1551.65,832.819 1551.4,833.069 C1551.1,833.522 1550.1,833.725 1547.94,833.772 L1547.74,833.772 L1547.74,835.569 L1560.4,835.569 L1560.4,833.772 L1560.19,833.772 C1556.9,833.663 1556.44,833.413 1556.44,831.616 L1556.44,822.772 C1556.44,817.772 1558.69,814.569 1562.19,814.569 C1565.05,814.569 1566.44,816.725 1566.44,821.225 L1566.44,831.772 C1566.4,832.475 1566.35,832.819 1566.1,833.069 C1565.8,833.522 1564.8,833.725 1562.65,833.772 L1562.44,833.772 L1562.44,835.569 L1575.1,835.569 L1575.1,833.772 L1574.9,833.772 C1571.6,833.663 1571.15,833.413 1571.15,831.569 L1571.15,820.225 C1571.15,817.116 1570.85,816.069 1569.55,814.366 C1568.1,812.522 1566.05,811.522 1563.65,811.522 C1560.4,811.522 1557.99,813.069 1555.85,816.522 C1554.99,813.522 1552.29,811.522 1548.94,811.522 C1545.9,811.522 1543.69,812.975 1541.74,816.116 L1541.74,812.272 M1583.65,799.819 C1582.04,799.819 1580.74,801.116 1580.74,802.71 C1580.74,804.319 1582.04,805.616 1583.6,805.616 C1585.24,805.616 1586.54,804.319 1586.54,802.71 C1586.54,801.116 1585.24,799.819 1583.65,799.819 M1585.99,812.272 L1576.6,812.819 L1576.6,814.975 L1579.15,814.975 C1581.04,815.022 1581.29,815.319 1581.29,817.475 L1581.29,831.772 C1581.24,832.522 1581.19,832.819 1580.99,833.069 C1580.65,833.522 1579.69,833.725 1577.54,833.772 L1577.19,833.772 L1577.19,835.569 L1590.15,835.569 L1590.15,833.772 L1589.79,833.772 C1586.44,833.663 1585.99,833.413 1585.99,831.616 L1585.99,812.272 "/>
<path class="Lyrics" d="M668.593,811.725 L666.843,811.725 L665.39,813.522 C663.593,812.116 661.796,811.522 659.296,811.522 C654.89,811.522 652,814.366 652,818.772 C652,823.475 655.046,824.663 659.046,825.616 L661.687,826.225 C665.64,827.163 667.046,828.163 667.046,830.163 C667.046,832.522 665,834.163 662.093,834.163 C657.843,834.163 654.843,831.475 653.64,826.475 L651.64,826.475 L651.64,835.913 L653.39,835.913 L655.14,833.866 C657.187,835.522 659.437,836.319 662,836.319 C666.89,836.319 670.14,833.272 670.14,828.616 C670.14,826.413 669.437,824.725 668.046,823.569 C666.843,822.522 665.843,822.116 662.796,821.475 L660.296,820.913 C657.546,820.319 657.546,820.319 656.64,819.819 C655.546,819.319 654.89,818.272 654.89,817.163 C654.89,815.116 656.796,813.725 659.546,813.725 C663.64,813.725 665.64,816.616 666.843,820.116 L668.593,820.116 L668.593,811.725 M680.046,799.819 C678.437,799.819 677.14,801.116 677.14,802.71 C677.14,804.319 678.437,805.616 680,805.616 C681.64,805.616 682.937,804.319 682.937,802.71 C682.937,801.116 681.64,799.819 680.046,799.819 M682.39,812.272 L673,812.819 L673,814.975 L675.546,814.975 C677.437,815.022 677.687,815.319 677.687,817.475 L677.687,831.772 C677.64,832.522 677.593,832.819 677.39,833.069 C677.046,833.522 676.093,833.725 673.937,833.772 L673.593,833.772 L673.593,835.569 L686.546,835.569 L686.546,833.772 L686.187,833.772 C682.843,833.663 682.39,833.413 682.39,831.616 L682.39,812.272 "/>
<path class="Lyrics" d="M1771.25,812.272 L1762.39,812.819 L1762.39,814.975 L1764.44,814.975 C1766.34,815.022 1766.59,815.319 1766.59,817.475 L1766.59,831.772 C1766.55,832.522 1766.5,832.819 1766.3,833.069 C1765.94,833.522 1764.94,833.725 1762.8,833.772 L1762.59,833.772 L1762.59,835.569 L1775.94,835.569 L1775.94,833.772 L1775.05,833.772 C1771.69,833.663 1771.25,833.413 1771.25,831.616 L1771.25,828.913 C1771.3,820.522 1774.3,814.116 1778.19,813.913 C1777.5,814.725 1777.3,815.225 1777.3,816.163 C1777.3,817.772 1778.44,818.913 1780.05,818.913 C1781.89,818.913 1783.09,817.569 1783.09,815.569 C1783.09,813.116 1781.39,811.522 1778.75,811.522 C1775.59,811.522 1772.89,814.022 1771.25,818.475 L1771.25,812.272 M1806.59,824.319 C1806.64,816.819 1802.39,811.522 1796.3,811.522 C1789.89,811.522 1785.09,817.069 1785.09,824.569 C1785.09,831.616 1789.64,836.319 1796.39,836.319 C1801.19,836.319 1804.55,833.975 1806.59,829.225 L1804.84,828.272 C1802.8,832.116 1800.69,833.616 1797.34,833.616 C1794.8,833.616 1792.94,832.569 1791.64,830.319 C1790.75,828.819 1790.34,827.069 1790.39,824.319 L1806.59,824.319 M1790.44,822.163 C1790.44,818.663 1792.05,813.663 1796.25,813.663 C1799.25,813.663 1801.25,816.319 1801.25,820.366 C1801.25,821.772 1800.8,822.163 1799.19,822.163 L1790.44,822.163 "/>
<path class="Lyrics" d="M1102.39,811.725 L1100.64,811.725 L1099.19,813.522 C1097.39,812.116 1095.6,811.522 1093.1,811.522 C1088.69,811.522 1085.8,814.366 1085.8,818.772 C1085.8,823.475 1088.85,824.663 1092.85,825.616 L1095.49,826.225 C1099.44,827.163 1100.85,828.163 1100.85,830.163 C1100.85,832.522 1098.8,834.163 1095.89,834.163 C1091.64,834.163 1088.64,831.475 1087.44,826.475 L1085.44,826.475 L1085.44,835.913 L1087.19,835.913 L1088.94,833.866 C1090.99,835.522 1093.24,836.319 1095.8,836.319 C1100.69,836.319 1103.94,833.272 1103.94,828.616 C1103.94,826.413 1103.24,824.725 1101.85,823.569 C1100.64,822.522 1099.64,822.116 1096.6,821.475 L1094.1,820.913 C1091.35,820.319 1091.35,820.319 1090.44,819.819 C1089.35,819.319 1088.69,818.272 1088.69,817.163 C1088.69,815.116 1090.6,813.725 1093.35,813.725 C1097.44,813.725 1099.44,816.616 1100.64,820.116 L1102.39,820.116 L1102.39,811.725 M1118.49,811.522 C1112.35,811.522 1107.6,816.975 1107.6,823.975 C1107.6,830.819 1112.39,836.319 1118.39,836.319 C1124.39,836.319 1129.19,830.819 1129.19,823.913 C1129.19,817.069 1124.39,811.522 1118.49,811.522 M1118.49,813.663 C1121.99,813.663 1123.94,817.319 1123.94,823.913 C1123.94,830.569 1121.99,834.163 1118.39,834.163 C1114.8,834.163 1112.85,830.569 1112.85,823.975 C1112.85,817.163 1114.74,813.663 1118.49,813.663 M1141.1,798.71 L1131.85,799.272 L1131.85,801.413 L1134.3,801.413 C1136.14,801.46 1136.39,801.772 1136.39,803.913 L1136.39,831.772 C1136.35,832.522 1136.3,832.819 1136.1,833.069 C1135.74,833.522 1134.8,833.725 1132.64,833.772 L1132.3,833.772 L1132.3,835.569 L1145.24,835.569 L1145.24,833.772 L1144.89,833.772 C1141.55,833.663 1141.1,833.413 1141.1,831.616 L1141.1,798.71 "/>
<path class="Lyrics" d="M1999.49,835.913 L2008.2,835.569 L2008.2,833.413 L2007.29,833.413 C2004.45,833.272 2004.2,832.975 2004.2,829.772 L2004.2,798.71 L1994.4,799.272 L1994.4,801.413 L1997.34,801.413 C1999.24,801.46 1999.49,801.772 1999.49,803.913 L1999.49,815.225 C1997.65,812.663 1995.49,811.522 1992.59,811.522 C1986.95,811.522 1982.65,816.975 1982.65,824.163 C1982.65,831.272 1986.79,836.319 1992.59,836.319 C1995.74,836.319 1997.9,834.975 1999.49,831.975 L1999.49,835.913 M1993.59,814.225 C1995.65,814.225 1997.59,815.725 1998.49,818.022 C1999.15,819.522 1999.45,821.569 1999.45,824.022 C1999.45,829.866 1997.15,833.616 1993.54,833.616 C1989.99,833.616 1987.9,830.319 1987.9,824.772 C1987.9,821.772 1988.2,819.522 1988.84,817.866 C1989.7,815.616 1991.54,814.225 1993.59,814.225 M2022.09,811.522 C2015.95,811.522 2011.2,816.975 2011.2,823.975 C2011.2,830.819 2015.99,836.319 2021.99,836.319 C2027.99,836.319 2032.79,830.819 2032.79,823.913 C2032.79,817.069 2027.99,811.522 2022.09,811.522 M2022.09,813.663 C2025.59,813.663 2027.54,817.319 2027.54,823.913 C2027.54,830.569 2025.59,834.163 2021.99,834.163 C2018.4,834.163 2016.45,830.569 2016.45,823.975 C2016.45,817.163 2018.34,813.663 2022.09,813.663"/>
<path class="Lyrics" d="M880.446,798.71 L871.196,799.272 L871.196,801.413 L873.65,801.413 C875.493,801.46 875.743,801.772 875.743,803.913 L875.743,831.772 C875.696,832.522 875.65,832.819 875.446,833.069 C875.087,833.522 874.15,833.725 871.993,833.772 L871.65,833.772 L871.65,835.569 L884.587,835.569 L884.587,833.772 L884.243,833.772 C880.9,833.663 880.446,833.413 880.446,831.616 L880.446,798.71 M908.837,819.475 C908.837,816.319 908.29,814.725 906.837,813.522 C905.196,812.163 902.743,811.522 899.54,811.522 C893.9,811.522 889.79,814.163 889.79,817.819 C889.79,819.663 890.946,820.866 892.696,820.866 C894.29,820.866 895.4,819.819 895.4,818.319 C895.4,817.663 895.15,816.975 894.65,816.272 C894.337,815.913 894.29,815.819 894.29,815.569 C894.29,814.569 896.29,813.663 898.696,813.663 C900.29,813.663 902.04,814.163 902.837,814.913 C903.79,815.725 904.15,816.913 904.15,819.163 L904.15,821.116 C898.946,822.022 897.29,822.413 894.837,823.366 C890.493,824.975 888.446,827.272 888.446,830.475 C888.446,834.069 891.243,836.319 895.696,836.319 C899.15,836.319 902.243,834.913 904.4,832.366 C905.196,834.913 906.446,835.913 908.79,835.913 C911.04,835.913 913.4,834.475 913.4,833.022 C913.4,832.663 913.196,832.413 912.9,832.413 C912.696,832.413 912.493,832.475 912.15,832.616 C911.446,832.913 911.15,832.975 910.743,832.975 C909.337,832.975 908.837,832.069 908.837,829.522 L908.837,819.475 M904.15,825.569 C904.15,828.569 903.993,829.272 903.15,830.569 C901.9,832.413 899.65,833.663 897.446,833.663 C895.15,833.663 893.493,832.022 893.493,829.772 C893.493,827.663 894.54,826.163 896.743,825.116 C898.29,824.413 900.243,823.913 904.15,823.272 L904.15,825.569 "/>
<path class="Lyrics" d="M1326.09,812.272 L1326.09,809.413 C1326.09,806.913 1326.25,805.272 1326.64,804.272 C1327.45,802.069 1329.2,800.71 1331.2,800.71 C1332.25,800.71 1332.89,801.022 1332.89,801.569 C1332.89,801.772 1332.89,801.819 1332.59,802.21 C1332.29,802.663 1332.14,803.272 1332.14,803.819 C1332.14,805.319 1333.34,806.46 1334.89,806.46 C1336.54,806.46 1337.7,805.21 1337.7,803.413 C1337.7,800.522 1335.2,798.71 1331.14,798.71 C1327.7,798.71 1325.14,799.913 1323.39,802.413 C1321.89,804.522 1321.39,806.663 1321.39,810.725 L1321.39,812.272 L1317,812.272 L1317,814.413 L1321.39,814.413 L1321.39,831.772 C1321.34,832.475 1321.29,832.772 1321.09,833.069 C1320.75,833.522 1319.79,833.725 1317.64,833.772 L1317.45,833.772 L1317.45,835.569 L1330.79,835.569 L1330.79,833.772 L1329.89,833.772 C1326.54,833.663 1326.09,833.413 1326.09,831.616 L1326.09,814.413 L1331.59,814.413 L1331.59,812.272 L1326.09,812.272 M1354.64,819.475 C1354.64,816.319 1354.09,814.725 1352.64,813.522 C1351,812.163 1348.54,811.522 1345.34,811.522 C1339.7,811.522 1335.59,814.163 1335.59,817.819 C1335.59,819.663 1336.75,820.866 1338.5,820.866 C1340.09,820.866 1341.2,819.819 1341.2,818.319 C1341.2,817.663 1340.95,816.975 1340.45,816.272 C1340.14,815.913 1340.09,815.819 1340.09,815.569 C1340.09,814.569 1342.09,813.663 1344.5,813.663 C1346.09,813.663 1347.84,814.163 1348.64,814.913 C1349.59,815.725 1349.95,816.913 1349.95,819.163 L1349.95,821.116 C1344.75,822.022 1343.09,822.413 1340.64,823.366 C1336.29,824.975 1334.25,827.272 1334.25,830.475 C1334.25,834.069 1337.04,836.319 1341.5,836.319 C1344.95,836.319 1348.04,834.913 1350.2,832.366 C1351,834.913 1352.25,835.913 1354.59,835.913 C1356.84,835.913 1359.2,834.475 1359.2,833.022 C1359.2,832.663 1359,832.413 1358.7,832.413 C1358.5,832.413 1358.29,832.475 1357.95,832.616 C1357.25,832.913 1356.95,832.975 1356.54,832.975 C1355.14,832.975 1354.64,832.069 1354.64,829.522 L1354.64,819.475 M1349.95,825.569 C1349.95,828.569 1349.79,829.272 1348.95,830.569 C1347.7,832.413 1345.45,833.663 1343.25,833.663 C1340.95,833.663 1339.29,832.022 1339.29,829.772 C1339.29,827.663 1340.34,826.163 1342.54,825.116 C1344.09,824.413 1346.04,823.913 1349.95,823.272 L1349.95,825.569 "/>
<path class="Lyrics" d="M437.443,835.913 L446.147,835.569 L446.147,833.413 L445.24,833.413 C442.397,833.272 442.147,832.975 442.147,829.772 L442.147,798.71 L432.35,799.272 L432.35,801.413 L435.287,801.413 C437.193,801.46 437.443,801.772 437.443,803.913 L437.443,815.225 C435.6,812.663 433.443,811.522 430.537,811.522 C424.897,811.522 420.6,816.975 420.6,824.163 C420.6,831.272 424.74,836.319 430.537,836.319 C433.693,836.319 435.85,834.975 437.443,831.975 L437.443,835.913 M431.537,814.225 C433.6,814.225 435.537,815.725 436.443,818.022 C437.1,819.522 437.397,821.569 437.397,824.022 C437.397,829.866 435.1,833.616 431.49,833.616 C427.943,833.616 425.85,830.319 425.85,824.772 C425.85,821.772 426.147,819.522 426.787,817.866 C427.647,815.616 429.49,814.225 431.537,814.225 M460.037,811.522 C453.897,811.522 449.147,816.975 449.147,823.975 C449.147,830.819 453.943,836.319 459.943,836.319 C465.943,836.319 470.74,830.819 470.74,823.913 C470.74,817.069 465.943,811.522 460.037,811.522 M460.037,813.663 C463.537,813.663 465.49,817.319 465.49,823.913 C465.49,830.569 463.537,834.163 459.943,834.163 C456.35,834.163 454.397,830.569 454.397,823.975 C454.397,817.163 456.287,813.663 460.037,813.663"/>
<path class="StaffText" d="M440.925,326.195 C439.237,328.242 434.628,329.789 430.034,329.899 L430.034,332.039 L434.425,332.039 C437.331,332.102 437.628,332.399 437.534,335.195 L437.534,355.242 C437.534,357.805 437.534,357.899 437.237,358.352 C436.831,358.852 435.878,359.055 433.081,359.055 L429.831,359.055 L429.831,361.399 L449.628,361.399 L449.628,359.055 L446.878,359.055 C444.081,359.055 443.128,358.852 442.737,358.352 C442.378,357.899 442.378,357.852 442.378,355.242 L442.378,334.602 C442.378,331.789 442.487,329.445 442.737,326.195 L440.925,326.195 M469.378,345.695 L494.581,345.695 L494.581,341.695 L469.378,341.695 L469.378,345.695 M469.378,355.805 L494.581,355.805 L494.581,351.805 L469.378,351.805 L469.378,355.805 M512.331,325.289 L512.331,327.649 L513.237,327.649 C516.081,327.695 517.034,327.852 517.425,328.352 C517.737,328.789 517.737,328.899 517.737,331.445 L517.737,355.242 C517.737,357.805 517.737,357.899 517.425,358.352 C517.034,358.852 516.081,359.055 513.237,359.055 L512.331,359.055 L512.331,361.399 L530.487,361.399 C539.128,361.399 544.331,357.742 544.331,351.602 C544.331,346.602 541.191,343.742 534.331,342.555 C536.737,342.055 537.831,341.602 539.128,340.649 C541.191,339.102 542.441,336.649 542.441,334.149 C542.441,330.899 540.441,327.742 537.534,326.492 C535.737,325.695 533.237,325.289 530.284,325.289 L512.331,325.289 M523.331,341.555 L523.331,330.149 C523.331,328.195 523.987,327.695 526.628,327.649 L528.628,327.649 C533.534,327.649 536.628,329.242 536.628,334.695 C536.628,339.649 534.237,341.555 527.784,341.555 L523.331,341.555 M523.331,343.899 L527.737,343.899 C535.378,343.899 538.191,345.945 538.191,351.445 C538.191,358.149 533.987,359.055 528.331,359.055 L526.237,359.055 C523.737,359.055 523.237,358.555 523.331,355.899 L523.331,343.899 M555.831,324.539 L547.237,325.102 L547.237,327.242 L548.987,327.242 C550.878,327.289 551.128,327.602 551.128,329.742 L551.128,349.195 C551.128,356.149 550.831,359.945 550.237,362.102 L552.128,362.102 L554.581,358.195 C556.628,360.899 558.987,362.149 562.081,362.149 C568.284,362.149 572.831,356.852 572.831,349.602 C572.831,342.399 568.628,337.352 562.628,337.352 C559.581,337.352 557.737,338.399 555.831,341.242 L555.831,324.539 M561.737,339.899 C565.487,339.899 567.581,343.555 567.581,350.102 C567.581,356.445 565.534,359.992 561.878,359.992 C557.925,359.992 555.581,356.352 555.581,350.195 C555.581,343.492 557.737,339.899 561.737,339.899"/>
<path class="Page" d="M2282.36,230.708 C2281.09,232.02 2280.94,232.301 2280.94,233.176 C2280.94,234.333 2281.81,235.208 2282.97,235.208 C2284.17,235.208 2285.22,234.223 2285.22,233.005 C2285.22,232.786 2285.17,232.458 2285.11,232.13 C2286.81,230.755 2288.91,230.036 2291.22,230.036 C2295.34,230.036 2297.42,233.067 2297.42,239.005 C2297.42,245.708 2295.06,249.239 2290.67,249.239 C2288.19,249.239 2285.83,248.083 2285.83,246.926 C2285.83,246.598 2285.98,246.426 2286.48,246.161 C2288.69,245.114 2289.45,244.067 2289.45,242.192 C2289.45,239.442 2287.58,237.692 2284.78,237.692 C2281.59,237.692 2279.5,239.88 2279.5,243.301 C2279.5,248.801 2284.45,252.364 2292.05,252.364 C2301.06,252.364 2307.22,246.864 2307.22,238.723 C2307.22,231.583 2301.44,226.301 2293.53,226.301 C2290.94,226.301 2289.3,226.739 2285.61,228.395 L2286.44,221.301 C2289.08,221.848 2291.22,222.13 2293.36,222.13 C2297.92,222.13 2301.72,220.583 2303.75,217.895 C2304.8,216.52 2305.63,214.473 2305.63,213.27 C2305.63,212.88 2305.45,212.661 2305.19,212.661 C2304.97,212.661 2304.64,212.723 2304.3,212.833 C2302.33,213.317 2298.75,213.598 2294.34,213.598 C2289.73,213.598 2286.98,213.38 2283.63,212.661 C2283.34,217.286 2283.34,217.723 2282.69,226.739 L2282.36,230.708 "/>
<path class="Bracket" transform="matrix(3.596,0,0,3.7497,181.331,761.169)" d="M0.90625,-50 C2.70313,-51.9063 6.20313,-55.7969 6.20313,-63 C6.20313,-72.1094 2.29688,-81.3125 2.29688,-87 C2.29688,-93.1094 5.79688,-98.8125 6,-99 C6,-99.1094 6,-99.1094 6,-99.2031 C6,-99.3125 6,-99.4063 5.90625,-99.5 C5.79688,-99.5 5.59375,-99.5 5.5,-99.3125 C5.40625,-99.2031 0,-93.8125 0,-85.6094 C0,-76.8125 3.5,-70.6094 3.5,-59.1094 C3.5,-56.9063 2.59375,-53.4063 0.09375,-50.2969 C0,-50.2969 0,-50.1094 -0.09375,-50 C-0.09375,-49.9063 0,-49.7969 0.09375,-49.7031 C2.59375,-46.6094 3.5,-43.1094 3.5,-40.9063 C3.5,-29.4063 0,-23.2031 0,-14.4063 C0,-6.29688 5.40625,-0.796875 5.5,-0.703125 C5.59375,-0.5 5.79688,-0.40625 5.90625,-0.5 C6,-0.59375 6.09375,-0.703125 6,-0.796875 C6,-0.796875 6,-0.90625 6,-1 C5.79688,-1.20313 2.29688,-6.90625 2.29688,-13 C2.29688,-18.7031 6.20313,-27.9063 6.20313,-37 C6.20313,-44.2969 2.70313,-48.1094 0.90625,-50"/>
</svg>
