<?xml version="1.0" encoding="UTF-8" standalone="no"?>
<svg width="2520px" height="1008px" viewBox="0 0 2520 1008"
 xmlns="http://www.w3.org/2000/svg" xmlns:xlink="http://www.w3.org/1999/xlink" version="1.2" baseProfile="tiny">
<title>大调调性 (11)</title>
<desc>Generated by MuseScore Studio 4.4.4</desc>
<path class="" fill="#ffffff" fill-rule="evenodd" d="M0,0 L2520,0 L2520,1008 L0,1008 L0,0 "/>
<polyline class="StaffLines" fill="none" stroke="#000000" stroke-width="2.73" stroke-linejoin="bevel" points="212.598,386.199 2307.8,386.199"/>
<polyline class="StaffLines" fill="none" stroke="#000000" stroke-width="2.73" stroke-linejoin="bevel" points="212.598,410.999 2307.8,410.999"/>
<polyline class="StaffLines" fill="none" stroke="#000000" stroke-width="2.73" stroke-linejoin="bevel" points="212.598,435.799 2307.8,435.799"/>
<polyline class="StaffLines" fill="none" stroke="#000000" stroke-width="2.73" stroke-linejoin="bevel" points="212.598,460.599 2307.8,460.599"/>
<polyline class="StaffLines" fill="none" stroke="#000000" stroke-width="2.73" stroke-linejoin="bevel" points="212.598,485.399 2307.8,485.399"/>
<polyline class="StaffLines" fill="none" stroke="#000000" stroke-width="2.73" stroke-linejoin="bevel" points="212.598,661.969 2307.8,661.969"/>
<polyline class="StaffLines" fill="none" stroke="#000000" stroke-width="2.73" stroke-linejoin="bevel" points="212.598,686.769 2307.8,686.769"/>
<polyline class="StaffLines" fill="none" stroke="#000000" stroke-width="2.73" stroke-linejoin="bevel" points="212.598,711.569 2307.8,711.569"/>
<polyline class="StaffLines" fill="none" stroke="#000000" stroke-width="2.73" stroke-linejoin="bevel" points="212.598,736.369 2307.8,736.369"/>
<polyline class="StaffLines" fill="none" stroke="#000000" stroke-width="2.73" stroke-linejoin="bevel" points="212.598,761.169 2307.8,761.169"/>
<path class="MeasureNumber" d="M227.63,321.802 C230.755,320.317 233.676,318.677 233.676,314.677 C233.676,311.036 230.598,308.442 226.317,308.442 C221.161,308.442 217.161,312.161 217.161,317.005 C217.161,319.442 218.005,321.005 220.161,322.567 C215.442,324.364 212.911,327.286 212.911,330.927 C212.911,334.802 216.114,337.192 221.239,337.192 C227.395,337.192 231.801,333.442 231.801,328.239 C231.801,325.083 230.083,323.395 227.63,321.802 M225.911,320.849 C221.833,318.927 220.364,317.364 220.364,315.083 C220.364,312.317 222.833,310.161 225.989,310.161 C228.755,310.161 230.676,311.927 230.676,314.442 C230.676,317.442 228.598,319.802 225.911,320.849 M221.676,323.645 C223.598,324.52 224.239,324.833 225.239,325.442 C227.239,326.645 228.317,328.239 228.317,330.036 C228.317,333.114 225.442,335.442 221.676,335.442 C218.27,335.442 216.161,333.52 216.161,330.442 C216.161,327.442 218.083,325.083 221.676,323.645 M252.958,308.286 L251.801,308.286 C249.598,309.927 245.364,311.317 242.473,311.317 L242.005,313.083 L244.755,313.083 C247.192,313.083 247.473,313.161 247.473,313.88 C247.473,314.239 247.473,314.239 247.083,315.677 L242.801,331.677 C242.27,333.677 242.239,333.802 241.88,334.161 C241.473,334.552 240.63,334.677 238.52,334.724 L236.801,334.724 L236.598,336.599 L251.395,336.599 L251.63,334.724 L249.473,334.724 C246.88,334.724 246.317,334.52 246.317,333.645 C246.317,333.364 246.473,332.442 246.676,331.677 L252.958,308.286 "/>
<polyline class="BarLine" fill="none" stroke="#000000" stroke-width="4.46" stroke-linejoin="bevel" points="214.83,384.835 214.83,661.969"/>
<polyline class="BarLine" fill="none" stroke="#000000" stroke-width="4.46" stroke-linejoin="bevel" points="679.556,384.835 679.556,661.969"/>
<polyline class="BarLine" fill="none" stroke="#000000" stroke-width="4.46" stroke-linejoin="bevel" points="1895.28,384.835 1895.28,661.969"/>
<polyline class="BarLine" fill="none" stroke="#000000" stroke-width="4.46" stroke-linejoin="bevel" points="882.176,384.835 882.176,661.969"/>
<polyline class="BarLine" fill="none" stroke="#000000" stroke-width="4.46" stroke-linejoin="bevel" points="1287.42,384.835 1287.42,661.969"/>
<polyline class="BarLine" fill="none" stroke="#000000" stroke-width="4.46" stroke-linejoin="bevel" points="1692.66,384.835 1692.66,661.969"/>
<polyline class="BarLine" fill="none" stroke="#000000" stroke-width="4.46" stroke-linejoin="bevel" points="1490.04,384.835 1490.04,661.969"/>
<polyline class="BarLine" fill="none" stroke="#000000" stroke-width="4.46" stroke-linejoin="bevel" points="1084.8,384.835 1084.8,661.969"/>
<polyline class="BarLine" fill="none" stroke="#000000" stroke-width="4.46" stroke-linejoin="bevel" points="2097.9,384.835 2097.9,661.969"/>
<polyline class="BarLine" fill="none" stroke="#000000" stroke-width="13.64" stroke-linejoin="bevel" points="2116.13,384.835 2116.13,661.969"/>
<polyline class="BarLine" fill="none" stroke="#000000" stroke-width="4.46" stroke-linejoin="bevel" points="2097.9,660.605 2097.9,762.533"/>
<polyline class="BarLine" fill="none" stroke="#000000" stroke-width="13.64" stroke-linejoin="bevel" points="2116.13,660.605 2116.13,762.533"/>
<polyline class="BarLine" fill="none" stroke="#000000" stroke-width="4.46" stroke-linejoin="bevel" points="1287.42,660.605 1287.42,762.533"/>
<polyline class="BarLine" fill="none" stroke="#000000" stroke-width="4.46" stroke-linejoin="bevel" points="214.83,660.605 214.83,762.533"/>
<polyline class="BarLine" fill="none" stroke="#000000" stroke-width="4.46" stroke-linejoin="bevel" points="882.176,660.605 882.176,762.533"/>
<polyline class="BarLine" fill="none" stroke="#000000" stroke-width="4.46" stroke-linejoin="bevel" points="1895.28,660.605 1895.28,762.533"/>
<polyline class="BarLine" fill="none" stroke="#000000" stroke-width="4.46" stroke-linejoin="bevel" points="1490.04,660.605 1490.04,762.533"/>
<polyline class="BarLine" fill="none" stroke="#000000" stroke-width="4.46" stroke-linejoin="bevel" points="679.556,660.605 679.556,762.533"/>
<polyline class="BarLine" fill="none" stroke="#000000" stroke-width="4.46" stroke-linejoin="bevel" points="1692.66,660.605 1692.66,762.533"/>
<polyline class="BarLine" fill="none" stroke="#000000" stroke-width="4.46" stroke-linejoin="bevel" points="1084.8,660.605 1084.8,762.533"/>
<polyline class="LedgerLine" fill="none" stroke="#000000" stroke-width="3.97" stroke-linejoin="bevel" points="704.604,637.169 757.97,637.169"/>
<polyline class="LedgerLine" fill="none" stroke="#000000" stroke-width="3.97" stroke-linejoin="bevel" points="501.984,637.169 555.35,637.169"/>
<path class="Note" transform="matrix(0.992001,0,0,0.992001,915.408,472.999)" d="M18.7031,-13.5938 C4.90625,-13.5938 0,-6.59375 0,-0.09375 C0,6.40625 4.90625,13.4063 18.7031,13.4063 C32.5,13.4063 37.2969,6.40625 37.2969,-0.09375 C37.2969,-6.59375 32.5,-13.5938 18.7031,-13.5938 M19.5,10.2031 C16.7031,10.2031 14.7969,9.40625 13.5,6.90625 C12.2031,4.40625 10.4063,-2.09375 10.2969,-4.70313 C10.0938,-7.40625 11.0938,-9 13.5,-9.79688 C14.7031,-10.2031 16.2969,-10.4063 17.9063,-10.4063 C20.5938,-10.4063 22.4063,-9.79688 23.7969,-7.09375 C25.2031,-4.5 27.1094,2 27.1094,4.5 C27.1094,9.40625 23.5,10.2031 19.5,10.2031"/>
<path class="Note" transform="matrix(0.992001,0,0,0.992001,1118.03,460.599)" d="M18.7031,-13.5938 C4.90625,-13.5938 0,-6.59375 0,-0.09375 C0,6.40625 4.90625,13.4063 18.7031,13.4063 C32.5,13.4063 37.2969,6.40625 37.2969,-0.09375 C37.2969,-6.59375 32.5,-13.5938 18.7031,-13.5938 M19.5,10.2031 C16.7031,10.2031 14.7969,9.40625 13.5,6.90625 C12.2031,4.40625 10.4063,-2.09375 10.2969,-4.70313 C10.0938,-7.40625 11.0938,-9 13.5,-9.79688 C14.7031,-10.2031 16.2969,-10.4063 17.9063,-10.4063 C20.5938,-10.4063 22.4063,-9.79688 23.7969,-7.09375 C25.2031,-4.5 27.1094,2 27.1094,4.5 C27.1094,9.40625 23.5,10.2031 19.5,10.2031"/>
<path class="Note" transform="matrix(0.992001,0,0,0.992001,1928.51,410.999)" d="M18.7031,-13.5938 C4.90625,-13.5938 0,-6.59375 0,-0.09375 C0,6.40625 4.90625,13.4063 18.7031,13.4063 C32.5,13.4063 37.2969,6.40625 37.2969,-0.09375 C37.2969,-6.59375 32.5,-13.5938 18.7031,-13.5938 M19.5,10.2031 C16.7031,10.2031 14.7969,9.40625 13.5,6.90625 C12.2031,4.40625 10.4063,-2.09375 10.2969,-4.70313 C10.0938,-7.40625 11.0938,-9 13.5,-9.79688 C14.7031,-10.2031 16.2969,-10.4063 17.9063,-10.4063 C20.5938,-10.4063 22.4063,-9.79688 23.7969,-7.09375 C25.2031,-4.5 27.1094,2 27.1094,4.5 C27.1094,9.40625 23.5,10.2031 19.5,10.2031"/>
<path class="Note" transform="matrix(0.992001,0,0,0.992001,1320.65,448.199)" d="M18.7031,-13.5938 C4.90625,-13.5938 0,-6.59375 0,-0.09375 C0,6.40625 4.90625,13.4063 18.7031,13.4063 C32.5,13.4063 37.2969,6.40625 37.2969,-0.09375 C37.2969,-6.59375 32.5,-13.5938 18.7031,-13.5938 M19.5,10.2031 C16.7031,10.2031 14.7969,9.40625 13.5,6.90625 C12.2031,4.40625 10.4063,-2.09375 10.2969,-4.70313 C10.0938,-7.40625 11.0938,-9 13.5,-9.79688 C14.7031,-10.2031 16.2969,-10.4063 17.9063,-10.4063 C20.5938,-10.4063 22.4063,-9.79688 23.7969,-7.09375 C25.2031,-4.5 27.1094,2 27.1094,4.5 C27.1094,9.40625 23.5,10.2031 19.5,10.2031"/>
<path class="Note" transform="matrix(0.992001,0,0,0.992001,1523.27,435.799)" d="M18.7031,-13.5938 C4.90625,-13.5938 0,-6.59375 0,-0.09375 C0,6.40625 4.90625,13.4063 18.7031,13.4063 C32.5,13.4063 37.2969,6.40625 37.2969,-0.09375 C37.2969,-6.59375 32.5,-13.5938 18.7031,-13.5938 M19.5,10.2031 C16.7031,10.2031 14.7969,9.40625 13.5,6.90625 C12.2031,4.40625 10.4063,-2.09375 10.2969,-4.70313 C10.0938,-7.40625 11.0938,-9 13.5,-9.79688 C14.7031,-10.2031 16.2969,-10.4063 17.9063,-10.4063 C20.5938,-10.4063 22.4063,-9.79688 23.7969,-7.09375 C25.2031,-4.5 27.1094,2 27.1094,4.5 C27.1094,9.40625 23.5,10.2031 19.5,10.2031"/>
<path class="Note" transform="matrix(0.992001,0,0,0.992001,1725.89,423.399)" d="M18.7031,-13.5938 C4.90625,-13.5938 0,-6.59375 0,-0.09375 C0,6.40625 4.90625,13.4063 18.7031,13.4063 C32.5,13.4063 37.2969,6.40625 37.2969,-0.09375 C37.2969,-6.59375 32.5,-13.5938 18.7031,-13.5938 M19.5,10.2031 C16.7031,10.2031 14.7969,9.40625 13.5,6.90625 C12.2031,4.40625 10.4063,-2.09375 10.2969,-4.70313 C10.0938,-7.40625 11.0938,-9 13.5,-9.79688 C14.7031,-10.2031 16.2969,-10.4063 17.9063,-10.4063 C20.5938,-10.4063 22.4063,-9.79688 23.7969,-7.09375 C25.2031,-4.5 27.1094,2 27.1094,4.5 C27.1094,9.40625 23.5,10.2031 19.5,10.2031"/>
<path class="Note" transform="matrix(0.992001,0,0,0.992001,510.168,497.799)" d="M18.7031,-13.5938 C4.90625,-13.5938 0,-6.59375 0,-0.09375 C0,6.40625 4.90625,13.4063 18.7031,13.4063 C32.5,13.4063 37.2969,6.40625 37.2969,-0.09375 C37.2969,-6.59375 32.5,-13.5938 18.7031,-13.5938 M19.5,10.2031 C16.7031,10.2031 14.7969,9.40625 13.5,6.90625 C12.2031,4.40625 10.4063,-2.09375 10.2969,-4.70313 C10.0938,-7.40625 11.0938,-9 13.5,-9.79688 C14.7031,-10.2031 16.2969,-10.4063 17.9063,-10.4063 C20.5938,-10.4063 22.4063,-9.79688 23.7969,-7.09375 C25.2031,-4.5 27.1094,2 27.1094,4.5 C27.1094,9.40625 23.5,10.2031 19.5,10.2031"/>
<path class="Note" transform="matrix(0.992001,0,0,0.992001,712.788,485.399)" d="M18.7031,-13.5938 C4.90625,-13.5938 0,-6.59375 0,-0.09375 C0,6.40625 4.90625,13.4063 18.7031,13.4063 C32.5,13.4063 37.2969,6.40625 37.2969,-0.09375 C37.2969,-6.59375 32.5,-13.5938 18.7031,-13.5938 M19.5,10.2031 C16.7031,10.2031 14.7969,9.40625 13.5,6.90625 C12.2031,4.40625 10.4063,-2.09375 10.2969,-4.70313 C10.0938,-7.40625 11.0938,-9 13.5,-9.79688 C14.7031,-10.2031 16.2969,-10.4063 17.9063,-10.4063 C20.5938,-10.4063 22.4063,-9.79688 23.7969,-7.09375 C25.2031,-4.5 27.1094,2 27.1094,4.5 C27.1094,9.40625 23.5,10.2031 19.5,10.2031"/>
<path class="Note" transform="matrix(0.992001,0,0,0.992001,1725.89,699.169)" d="M18.7031,-13.5938 C4.90625,-13.5938 0,-6.59375 0,-0.09375 C0,6.40625 4.90625,13.4063 18.7031,13.4063 C32.5,13.4063 37.2969,6.40625 37.2969,-0.09375 C37.2969,-6.59375 32.5,-13.5938 18.7031,-13.5938 M19.5,10.2031 C16.7031,10.2031 14.7969,9.40625 13.5,6.90625 C12.2031,4.40625 10.4063,-2.09375 10.2969,-4.70313 C10.0938,-7.40625 11.0938,-9 13.5,-9.79688 C14.7031,-10.2031 16.2969,-10.4063 17.9063,-10.4063 C20.5938,-10.4063 22.4063,-9.79688 23.7969,-7.09375 C25.2031,-4.5 27.1094,2 27.1094,4.5 C27.1094,9.40625 23.5,10.2031 19.5,10.2031"/>
<path class="Note" transform="matrix(0.992001,0,0,0.992001,1320.65,674.369)" d="M18.7031,-13.5938 C4.90625,-13.5938 0,-6.59375 0,-0.09375 C0,6.40625 4.90625,13.4063 18.7031,13.4063 C32.5,13.4063 37.2969,6.40625 37.2969,-0.09375 C37.2969,-6.59375 32.5,-13.5938 18.7031,-13.5938 M19.5,10.2031 C16.7031,10.2031 14.7969,9.40625 13.5,6.90625 C12.2031,4.40625 10.4063,-2.09375 10.2969,-4.70313 C10.0938,-7.40625 11.0938,-9 13.5,-9.79688 C14.7031,-10.2031 16.2969,-10.4063 17.9063,-10.4063 C20.5938,-10.4063 22.4063,-9.79688 23.7969,-7.09375 C25.2031,-4.5 27.1094,2 27.1094,4.5 C27.1094,9.40625 23.5,10.2031 19.5,10.2031"/>
<path class="Note" transform="matrix(0.992001,0,0,0.992001,1118.03,661.969)" d="M18.7031,-13.5938 C4.90625,-13.5938 0,-6.59375 0,-0.09375 C0,6.40625 4.90625,13.4063 18.7031,13.4063 C32.5,13.4063 37.2969,6.40625 37.2969,-0.09375 C37.2969,-6.59375 32.5,-13.5938 18.7031,-13.5938 M19.5,10.2031 C16.7031,10.2031 14.7969,9.40625 13.5,6.90625 C12.2031,4.40625 10.4063,-2.09375 10.2969,-4.70313 C10.0938,-7.40625 11.0938,-9 13.5,-9.79688 C14.7031,-10.2031 16.2969,-10.4063 17.9063,-10.4063 C20.5938,-10.4063 22.4063,-9.79688 23.7969,-7.09375 C25.2031,-4.5 27.1094,2 27.1094,4.5 C27.1094,9.40625 23.5,10.2031 19.5,10.2031"/>
<path class="Note" transform="matrix(0.992001,0,0,0.992001,1928.51,711.569)" d="M18.7031,-13.5938 C4.90625,-13.5938 0,-6.59375 0,-0.09375 C0,6.40625 4.90625,13.4063 18.7031,13.4063 C32.5,13.4063 37.2969,6.40625 37.2969,-0.09375 C37.2969,-6.59375 32.5,-13.5938 18.7031,-13.5938 M19.5,10.2031 C16.7031,10.2031 14.7969,9.40625 13.5,6.90625 C12.2031,4.40625 10.4063,-2.09375 10.2969,-4.70313 C10.0938,-7.40625 11.0938,-9 13.5,-9.79688 C14.7031,-10.2031 16.2969,-10.4063 17.9063,-10.4063 C20.5938,-10.4063 22.4063,-9.79688 23.7969,-7.09375 C25.2031,-4.5 27.1094,2 27.1094,4.5 C27.1094,9.40625 23.5,10.2031 19.5,10.2031"/>
<path class="Note" transform="matrix(0.992001,0,0,0.992001,915.408,649.569)" d="M18.7031,-13.5938 C4.90625,-13.5938 0,-6.59375 0,-0.09375 C0,6.40625 4.90625,13.4063 18.7031,13.4063 C32.5,13.4063 37.2969,6.40625 37.2969,-0.09375 C37.2969,-6.59375 32.5,-13.5938 18.7031,-13.5938 M19.5,10.2031 C16.7031,10.2031 14.7969,9.40625 13.5,6.90625 C12.2031,4.40625 10.4063,-2.09375 10.2969,-4.70313 C10.0938,-7.40625 11.0938,-9 13.5,-9.79688 C14.7031,-10.2031 16.2969,-10.4063 17.9063,-10.4063 C20.5938,-10.4063 22.4063,-9.79688 23.7969,-7.09375 C25.2031,-4.5 27.1094,2 27.1094,4.5 C27.1094,9.40625 23.5,10.2031 19.5,10.2031"/>
<path class="Note" transform="matrix(0.992001,0,0,0.992001,712.788,637.169)" d="M18.7031,-13.5938 C4.90625,-13.5938 0,-6.59375 0,-0.09375 C0,6.40625 4.90625,13.4063 18.7031,13.4063 C32.5,13.4063 37.2969,6.40625 37.2969,-0.09375 C37.2969,-6.59375 32.5,-13.5938 18.7031,-13.5938 M19.5,10.2031 C16.7031,10.2031 14.7969,9.40625 13.5,6.90625 C12.2031,4.40625 10.4063,-2.09375 10.2969,-4.70313 C10.0938,-7.40625 11.0938,-9 13.5,-9.79688 C14.7031,-10.2031 16.2969,-10.4063 17.9063,-10.4063 C20.5938,-10.4063 22.4063,-9.79688 23.7969,-7.09375 C25.2031,-4.5 27.1094,2 27.1094,4.5 C27.1094,9.40625 23.5,10.2031 19.5,10.2031"/>
<path class="Note" transform="matrix(0.992001,0,0,0.992001,510.168,624.769)" d="M18.7031,-13.5938 C4.90625,-13.5938 0,-6.59375 0,-0.09375 C0,6.40625 4.90625,13.4063 18.7031,13.4063 C32.5,13.4063 37.2969,6.40625 37.2969,-0.09375 C37.2969,-6.59375 32.5,-13.5938 18.7031,-13.5938 M19.5,10.2031 C16.7031,10.2031 14.7969,9.40625 13.5,6.90625 C12.2031,4.40625 10.4063,-2.09375 10.2969,-4.70313 C10.0938,-7.40625 11.0938,-9 13.5,-9.79688 C14.7031,-10.2031 16.2969,-10.4063 17.9063,-10.4063 C20.5938,-10.4063 22.4063,-9.79688 23.7969,-7.09375 C25.2031,-4.5 27.1094,2 27.1094,4.5 C27.1094,9.40625 23.5,10.2031 19.5,10.2031"/>
<path class="Note" transform="matrix(0.992001,0,0,0.992001,1523.27,686.769)" d="M18.7031,-13.5938 C4.90625,-13.5938 0,-6.59375 0,-0.09375 C0,6.40625 4.90625,13.4063 18.7031,13.4063 C32.5,13.4063 37.2969,6.40625 37.2969,-0.09375 C37.2969,-6.59375 32.5,-13.5938 18.7031,-13.5938 M19.5,10.2031 C16.7031,10.2031 14.7969,9.40625 13.5,6.90625 C12.2031,4.40625 10.4063,-2.09375 10.2969,-4.70313 C10.0938,-7.40625 11.0938,-9 13.5,-9.79688 C14.7031,-10.2031 16.2969,-10.4063 17.9063,-10.4063 C20.5938,-10.4063 22.4063,-9.79688 23.7969,-7.09375 C25.2031,-4.5 27.1094,2 27.1094,4.5 C27.1094,9.40625 23.5,10.2031 19.5,10.2031"/>
<path class="Clef" transform="matrix(0.992001,0,0,0.992001,235.662,460.599)" d="M12.2969,51.2969 C12.2969,57.9063 17.2969,66.6094 30.7969,66.6094 C35.5,66.6094 39.6094,65.4063 43.2031,63.2031 C48.6094,59.4063 50,52.7969 50,46.5 C50,42.6094 49.4063,38.1094 48.4063,32.4063 C48.1094,30.4063 47.5,27.4063 46.9063,23.5 C56.7031,20.2969 64,10.0938 64,-0.203125 C64,-15.2969 53.2969,-25.5 38.7031,-25.5 C37.7031,-31.5 36.7031,-37.4063 35.9063,-43 C46.4063,-54.1094 53.7031,-66.6094 53.7031,-82.5 C53.7031,-91.6094 50.9063,-99 49.2969,-102.609 C46.9063,-107.703 44,-111.203 42.2031,-111.203 C41.5,-111.203 38.4063,-110 35.1094,-106.109 C28.7031,-98.5 26.9063,-85.7031 26.9063,-77.3125 C26.9063,-71.9063 27.4063,-67 29.1094,-55.7969 C29,-55.7031 23.7969,-50.4063 21.7031,-48.7031 C12.5938,-40.2969 0,-28.1094 0,-8.09375 C0,10.5938 16.2969,25.2969 34.9063,25.2969 C37.7969,25.2969 40.5,25 42.7969,24.5938 C44.7031,34.2031 45.9063,41.2031 45.9063,46.5 C45.9063,56.9063 40.5,62.4063 30.4063,62.4063 C28,62.4063 25.9063,61.9063 25.7031,61.9063 C25.6094,61.7969 25.4063,61.7031 25.4063,61.6094 C25.4063,61.4063 25.6094,61.2969 25.9063,61.2969 C30.6094,60.5 35.2969,56.5 35.2969,50.1094 C35.2969,44.7031 31.2031,39 23.7031,39 C16.7031,39 12.2969,44.7031 12.2969,51.2969 M33.2031,-82.2031 C34.1094,-86.2031 38.7031,-96.7031 43.9063,-96.7031 C45.4063,-96.7031 47.7969,-91.9063 47.7969,-84.9063 C47.7969,-74.5 40.1094,-66.7031 33.2031,-59.9063 C32.6094,-63.9063 32.1094,-67.7969 32.1094,-72 C32.1094,-75.7031 32.4063,-79.1094 33.2031,-82.2031 M42,20.5938 C40,21 38.1094,21.2031 36.2031,21.2031 C21.9063,21.2031 9.70313,11.2031 9.70313,-3.90625 C9.70313,-16.0938 18.2969,-27 27.1094,-34.6094 C28.7969,-36.1094 30.4063,-37.5 31.9063,-39 C32.7969,-33.6094 33.5,-28.9063 34.2031,-24.7969 C25.0938,-22.0938 18.9063,-12.5 18.9063,-3.09375 C18.9063,3.90625 24.4063,13.5 32.4063,13.5 C33.2031,13.5 34.1094,13.0938 34.1094,12.2031 C34.1094,11.2969 33.1094,10.7969 31.9063,10 C28,7.59375 25.7969,5 25.7969,0.09375 C25.7969,-6 30.4063,-10.9063 36.2031,-12.2969 L42,20.5938 M56.2031,2.09375 C56.2031,9.20313 53.2969,16.5 46.2031,19.4063 C44.1094,7.40625 41.4063,-8.5 40.7031,-12.9063 C49.7031,-12.9063 56.2031,-6.79688 56.2031,2.09375"/>
<path class="Clef" transform="matrix(0.992001,0,0,0.992001,235.662,686.769)" d="M25.4063,-25.0938 C17.7969,-25.0938 11.7031,-20.7031 11.5938,-20.7031 C5.70313,-16.4063 1.90625,-9.79688 1.90625,-2.5 C1.90625,4.79688 6.09375,10.2031 13.5,10.2031 C19.9063,10.2031 24.9063,5.90625 24.9063,-0.703125 C24.9063,-6.40625 19.9063,-11.0938 14.2969,-11.0938 C13.0938,-11.0938 12,-10.9063 11.0938,-10.5938 C10.0938,-10.2031 8.40625,-9.20313 7.59375,-8.5 C8.29688,-12.9063 11.2969,-17.2969 15.2031,-19.4063 C17.7031,-20.7969 20.9063,-21.4063 24.4063,-21.4063 C34.6094,-21.4063 39.6094,-13.2031 39.6094,3.59375 C39.6094,16.5938 31.2969,35.2969 21.5,44.1094 C11.0938,53.6094 1.29688,58.1094 1.20313,58.1094 C1.20313,58.1094 0,58.7969 0,60 C0,60.2031 0.09375,60.2969 0.09375,60.5 C0.40625,61.5 1.29688,61.7031 2,61.7031 L2.29688,61.6094 C2.5,61.6094 13.9063,56.9063 23,49.7969 C37,39.7031 52.7969,21.9063 52.7969,3.5 C52.7969,-13.9063 43.4063,-25.0938 25.4063,-25.0938 M56.7969,-12.4063 C56.7969,-9.59375 59,-7.40625 61.6094,-7.40625 C64.2031,-7.40625 66.4063,-9.59375 66.4063,-12.4063 C66.4063,-15.2031 64.2031,-17.5 61.6094,-17.5 C59,-17.5 56.7969,-15.2031 56.7969,-12.4063 M56.7969,12.2969 C56.7969,15.0938 59,17.4063 61.6094,17.4063 C64.2031,17.4063 66.4063,15.0938 66.4063,12.2969 C66.4063,9.5 64.2031,7.20313 61.6094,7.20313 C59,7.20313 56.7969,9.5 56.7969,12.2969"/>
<path class="KeySig" transform="matrix(0.992001,0,0,0.992001,320.122,435.799)" d="M12,-15.5 C7,-15.5 4.09375,-12.4063 3.59375,-11.7969 L4,-43.9063 C4,-44.7031 3.40625,-45.2969 2.59375,-45.2969 L1.40625,-45.2969 C0.59375,-45.2969 0,-44.7031 0,-43.9063 L0.5,16.2031 C0.5,17 1.09375,17.5938 1.90625,17.5938 C2.09375,17.5938 2.5,17.5 2.70313,17.4063 C11.2969,13.0938 20.2969,4.90625 20.2969,-5.40625 C20.2969,-10.5938 17.9063,-15.5 12,-15.5 M3.29688,12.7031 L3.59375,-6.79688 C3.79688,-7.70313 5.29688,-10.5938 9.29688,-10.5938 C12.9063,-10.5938 13.2031,-7.20313 13.2031,-5.09375 C13.2031,3.79688 9.90625,7.5 3.29688,12.7031"/>
<path class="KeySig" transform="matrix(0.992001,0,0,0.992001,347.697,398.599)" d="M12,-15.5 C7,-15.5 4.09375,-12.4063 3.59375,-11.7969 L4,-43.9063 C4,-44.7031 3.40625,-45.2969 2.59375,-45.2969 L1.40625,-45.2969 C0.59375,-45.2969 0,-44.7031 0,-43.9063 L0.5,16.2031 C0.5,17 1.09375,17.5938 1.90625,17.5938 C2.09375,17.5938 2.5,17.5 2.70313,17.4063 C11.2969,13.0938 20.2969,4.90625 20.2969,-5.40625 C20.2969,-10.5938 17.9063,-15.5 12,-15.5 M3.29688,12.7031 L3.59375,-6.79688 C3.79688,-7.70313 5.29688,-10.5938 9.29688,-10.5938 C12.9063,-10.5938 13.2031,-7.20313 13.2031,-5.09375 C13.2031,3.79688 9.90625,7.5 3.29688,12.7031"/>
<path class="KeySig" transform="matrix(0.992001,0,0,0.992001,375.271,448.199)" d="M12,-15.5 C7,-15.5 4.09375,-12.4063 3.59375,-11.7969 L4,-43.9063 C4,-44.7031 3.40625,-45.2969 2.59375,-45.2969 L1.40625,-45.2969 C0.59375,-45.2969 0,-44.7031 0,-43.9063 L0.5,16.2031 C0.5,17 1.09375,17.5938 1.90625,17.5938 C2.09375,17.5938 2.5,17.5 2.70313,17.4063 C11.2969,13.0938 20.2969,4.90625 20.2969,-5.40625 C20.2969,-10.5938 17.9063,-15.5 12,-15.5 M3.29688,12.7031 L3.59375,-6.79688 C3.79688,-7.70313 5.29688,-10.5938 9.29688,-10.5938 C12.9063,-10.5938 13.2031,-7.20313 13.2031,-5.09375 C13.2031,3.79688 9.90625,7.5 3.29688,12.7031"/>
<path class="KeySig" transform="matrix(0.992001,0,0,0.992001,402.846,410.999)" d="M12,-15.5 C7,-15.5 4.09375,-12.4063 3.59375,-11.7969 L4,-43.9063 C4,-44.7031 3.40625,-45.2969 2.59375,-45.2969 L1.40625,-45.2969 C0.59375,-45.2969 0,-44.7031 0,-43.9063 L0.5,16.2031 C0.5,17 1.09375,17.5938 1.90625,17.5938 C2.09375,17.5938 2.5,17.5 2.70313,17.4063 C11.2969,13.0938 20.2969,4.90625 20.2969,-5.40625 C20.2969,-10.5938 17.9063,-15.5 12,-15.5 M3.29688,12.7031 L3.59375,-6.79688 C3.79688,-7.70313 5.29688,-10.5938 9.29688,-10.5938 C12.9063,-10.5938 13.2031,-7.20313 13.2031,-5.09375 C13.2031,3.79688 9.90625,7.5 3.29688,12.7031"/>
<path class="KeySig" transform="matrix(0.992001,0,0,0.992001,430.42,460.599)" d="M12,-15.5 C7,-15.5 4.09375,-12.4063 3.59375,-11.7969 L4,-43.9063 C4,-44.7031 3.40625,-45.2969 2.59375,-45.2969 L1.40625,-45.2969 C0.59375,-45.2969 0,-44.7031 0,-43.9063 L0.5,16.2031 C0.5,17 1.09375,17.5938 1.90625,17.5938 C2.09375,17.5938 2.5,17.5 2.70313,17.4063 C11.2969,13.0938 20.2969,4.90625 20.2969,-5.40625 C20.2969,-10.5938 17.9063,-15.5 12,-15.5 M3.29688,12.7031 L3.59375,-6.79688 C3.79688,-7.70313 5.29688,-10.5938 9.29688,-10.5938 C12.9063,-10.5938 13.2031,-7.20313 13.2031,-5.09375 C13.2031,3.79688 9.90625,7.5 3.29688,12.7031"/>
<path class="KeySig" transform="matrix(0.992001,0,0,0.992001,2135.35,386.199)" d="M23.2969,-10.5 C23.9063,-10.5938 24.4063,-11.2969 24.4063,-11.9063 L24.4063,-17.7969 C24.4063,-18.7969 23.7031,-19.2031 22.7969,-19.2031 L19.5,-18.5 L19.5,-33.4063 L16.7031,-33.4063 L16.7031,-17.9063 L7.79688,-16.0938 L7.79688,-30.2031 L5,-30.2031 L5,-15.5 L1.09375,-14.7031 C0.5,-14.5938 0,-13.9063 0,-13.2969 L0,-7.5 C0,-6.40625 0.796875,-6.09375 1.70313,-6.09375 L5,-6.79688 L5,9.70313 L1.09375,10.5 C0.5,10.5938 0,11.2969 0,11.9063 L0,17.7031 C0,18.7969 0.796875,19.0938 1.70313,19.0938 L5,18.4063 L5,33.2969 L7.79688,33.2969 L7.79688,17.7969 L16.7031,16 L16.7031,30.1094 L19.5,30.1094 L19.5,15.4063 L23.2969,14.7031 C23.9063,14.5938 24.4063,13.9063 24.4063,13.2969 L24.4063,7.40625 C24.4063,6.40625 23.7031,6 22.7969,6 L19.5,6.70313 L19.5,-9.79688 L23.2969,-10.5 M7.79688,-7.40625 L16.7031,-9.20313 L16.7031,7.29688 L7.79688,9.20313 L7.79688,-7.40625 "/>
<path class="KeySig" transform="matrix(0.992001,0,0,0.992001,2162.52,423.399)" d="M23.2969,-10.5 C23.9063,-10.5938 24.4063,-11.2969 24.4063,-11.9063 L24.4063,-17.7969 C24.4063,-18.7969 23.7031,-19.2031 22.7969,-19.2031 L19.5,-18.5 L19.5,-33.4063 L16.7031,-33.4063 L16.7031,-17.9063 L7.79688,-16.0938 L7.79688,-30.2031 L5,-30.2031 L5,-15.5 L1.09375,-14.7031 C0.5,-14.5938 0,-13.9063 0,-13.2969 L0,-7.5 C0,-6.40625 0.796875,-6.09375 1.70313,-6.09375 L5,-6.79688 L5,9.70313 L1.09375,10.5 C0.5,10.5938 0,11.2969 0,11.9063 L0,17.7031 C0,18.7969 0.796875,19.0938 1.70313,19.0938 L5,18.4063 L5,33.2969 L7.79688,33.2969 L7.79688,17.7969 L16.7031,16 L16.7031,30.1094 L19.5,30.1094 L19.5,15.4063 L23.2969,14.7031 C23.9063,14.5938 24.4063,13.9063 24.4063,13.2969 L24.4063,7.40625 C24.4063,6.40625 23.7031,6 22.7969,6 L19.5,6.70313 L19.5,-9.79688 L23.2969,-10.5 M7.79688,-7.40625 L16.7031,-9.20313 L16.7031,7.29688 L7.79688,9.20313 L7.79688,-7.40625 "/>
<path class="KeySig" transform="matrix(0.992001,0,0,0.992001,2189.67,373.799)" d="M23.2969,-10.5 C23.9063,-10.5938 24.4063,-11.2969 24.4063,-11.9063 L24.4063,-17.7969 C24.4063,-18.7969 23.7031,-19.2031 22.7969,-19.2031 L19.5,-18.5 L19.5,-33.4063 L16.7031,-33.4063 L16.7031,-17.9063 L7.79688,-16.0938 L7.79688,-30.2031 L5,-30.2031 L5,-15.5 L1.09375,-14.7031 C0.5,-14.5938 0,-13.9063 0,-13.2969 L0,-7.5 C0,-6.40625 0.796875,-6.09375 1.70313,-6.09375 L5,-6.79688 L5,9.70313 L1.09375,10.5 C0.5,10.5938 0,11.2969 0,11.9063 L0,17.7031 C0,18.7969 0.796875,19.0938 1.70313,19.0938 L5,18.4063 L5,33.2969 L7.79688,33.2969 L7.79688,17.7969 L16.7031,16 L16.7031,30.1094 L19.5,30.1094 L19.5,15.4063 L23.2969,14.7031 C23.9063,14.5938 24.4063,13.9063 24.4063,13.2969 L24.4063,7.40625 C24.4063,6.40625 23.7031,6 22.7969,6 L19.5,6.70313 L19.5,-9.79688 L23.2969,-10.5 M7.79688,-7.40625 L16.7031,-9.20313 L16.7031,7.29688 L7.79688,9.20313 L7.79688,-7.40625 "/>
<path class="KeySig" transform="matrix(0.992001,0,0,0.992001,2216.84,410.999)" d="M23.2969,-10.5 C23.9063,-10.5938 24.4063,-11.2969 24.4063,-11.9063 L24.4063,-17.7969 C24.4063,-18.7969 23.7031,-19.2031 22.7969,-19.2031 L19.5,-18.5 L19.5,-33.4063 L16.7031,-33.4063 L16.7031,-17.9063 L7.79688,-16.0938 L7.79688,-30.2031 L5,-30.2031 L5,-15.5 L1.09375,-14.7031 C0.5,-14.5938 0,-13.9063 0,-13.2969 L0,-7.5 C0,-6.40625 0.796875,-6.09375 1.70313,-6.09375 L5,-6.79688 L5,9.70313 L1.09375,10.5 C0.5,10.5938 0,11.2969 0,11.9063 L0,17.7031 C0,18.7969 0.796875,19.0938 1.70313,19.0938 L5,18.4063 L5,33.2969 L7.79688,33.2969 L7.79688,17.7969 L16.7031,16 L16.7031,30.1094 L19.5,30.1094 L19.5,15.4063 L23.2969,14.7031 C23.9063,14.5938 24.4063,13.9063 24.4063,13.2969 L24.4063,7.40625 C24.4063,6.40625 23.7031,6 22.7969,6 L19.5,6.70313 L19.5,-9.79688 L23.2969,-10.5 M7.79688,-7.40625 L16.7031,-9.20313 L16.7031,7.29688 L7.79688,9.20313 L7.79688,-7.40625 "/>
<path class="KeySig" transform="matrix(0.992001,0,0,0.992001,2244.02,448.199)" d="M23.2969,-10.5 C23.9063,-10.5938 24.4063,-11.2969 24.4063,-11.9063 L24.4063,-17.7969 C24.4063,-18.7969 23.7031,-19.2031 22.7969,-19.2031 L19.5,-18.5 L19.5,-33.4063 L16.7031,-33.4063 L16.7031,-17.9063 L7.79688,-16.0938 L7.79688,-30.2031 L5,-30.2031 L5,-15.5 L1.09375,-14.7031 C0.5,-14.5938 0,-13.9063 0,-13.2969 L0,-7.5 C0,-6.40625 0.796875,-6.09375 1.70313,-6.09375 L5,-6.79688 L5,9.70313 L1.09375,10.5 C0.5,10.5938 0,11.2969 0,11.9063 L0,17.7031 C0,18.7969 0.796875,19.0938 1.70313,19.0938 L5,18.4063 L5,33.2969 L7.79688,33.2969 L7.79688,17.7969 L16.7031,16 L16.7031,30.1094 L19.5,30.1094 L19.5,15.4063 L23.2969,14.7031 C23.9063,14.5938 24.4063,13.9063 24.4063,13.2969 L24.4063,7.40625 C24.4063,6.40625 23.7031,6 22.7969,6 L19.5,6.70313 L19.5,-9.79688 L23.2969,-10.5 M7.79688,-7.40625 L16.7031,-9.20313 L16.7031,7.29688 L7.79688,9.20313 L7.79688,-7.40625 "/>
<path class="KeySig" transform="matrix(0.992001,0,0,0.992001,2271.2,398.599)" d="M23.2969,-10.5 C23.9063,-10.5938 24.4063,-11.2969 24.4063,-11.9063 L24.4063,-17.7969 C24.4063,-18.7969 23.7031,-19.2031 22.7969,-19.2031 L19.5,-18.5 L19.5,-33.4063 L16.7031,-33.4063 L16.7031,-17.9063 L7.79688,-16.0938 L7.79688,-30.2031 L5,-30.2031 L5,-15.5 L1.09375,-14.7031 C0.5,-14.5938 0,-13.9063 0,-13.2969 L0,-7.5 C0,-6.40625 0.796875,-6.09375 1.70313,-6.09375 L5,-6.79688 L5,9.70313 L1.09375,10.5 C0.5,10.5938 0,11.2969 0,11.9063 L0,17.7031 C0,18.7969 0.796875,19.0938 1.70313,19.0938 L5,18.4063 L5,33.2969 L7.79688,33.2969 L7.79688,17.7969 L16.7031,16 L16.7031,30.1094 L19.5,30.1094 L19.5,15.4063 L23.2969,14.7031 C23.9063,14.5938 24.4063,13.9063 24.4063,13.2969 L24.4063,7.40625 C24.4063,6.40625 23.7031,6 22.7969,6 L19.5,6.70313 L19.5,-9.79688 L23.2969,-10.5 M7.79688,-7.40625 L16.7031,-9.20313 L16.7031,7.29688 L7.79688,9.20313 L7.79688,-7.40625 "/>
<path class="KeySig" transform="matrix(0.992001,0,0,0.992001,320.122,736.369)" d="M12,-15.5 C7,-15.5 4.09375,-12.4063 3.59375,-11.7969 L4,-43.9063 C4,-44.7031 3.40625,-45.2969 2.59375,-45.2969 L1.40625,-45.2969 C0.59375,-45.2969 0,-44.7031 0,-43.9063 L0.5,16.2031 C0.5,17 1.09375,17.5938 1.90625,17.5938 C2.09375,17.5938 2.5,17.5 2.70313,17.4063 C11.2969,13.0938 20.2969,4.90625 20.2969,-5.40625 C20.2969,-10.5938 17.9063,-15.5 12,-15.5 M3.29688,12.7031 L3.59375,-6.79688 C3.79688,-7.70313 5.29688,-10.5938 9.29688,-10.5938 C12.9063,-10.5938 13.2031,-7.20313 13.2031,-5.09375 C13.2031,3.79688 9.90625,7.5 3.29688,12.7031"/>
<path class="KeySig" transform="matrix(0.992001,0,0,0.992001,347.697,699.169)" d="M12,-15.5 C7,-15.5 4.09375,-12.4063 3.59375,-11.7969 L4,-43.9063 C4,-44.7031 3.40625,-45.2969 2.59375,-45.2969 L1.40625,-45.2969 C0.59375,-45.2969 0,-44.7031 0,-43.9063 L0.5,16.2031 C0.5,17 1.09375,17.5938 1.90625,17.5938 C2.09375,17.5938 2.5,17.5 2.70313,17.4063 C11.2969,13.0938 20.2969,4.90625 20.2969,-5.40625 C20.2969,-10.5938 17.9063,-15.5 12,-15.5 M3.29688,12.7031 L3.59375,-6.79688 C3.79688,-7.70313 5.29688,-10.5938 9.29688,-10.5938 C12.9063,-10.5938 13.2031,-7.20313 13.2031,-5.09375 C13.2031,3.79688 9.90625,7.5 3.29688,12.7031"/>
<path class="KeySig" transform="matrix(0.992001,0,0,0.992001,375.271,748.769)" d="M12,-15.5 C7,-15.5 4.09375,-12.4063 3.59375,-11.7969 L4,-43.9063 C4,-44.7031 3.40625,-45.2969 2.59375,-45.2969 L1.40625,-45.2969 C0.59375,-45.2969 0,-44.7031 0,-43.9063 L0.5,16.2031 C0.5,17 1.09375,17.5938 1.90625,17.5938 C2.09375,17.5938 2.5,17.5 2.70313,17.4063 C11.2969,13.0938 20.2969,4.90625 20.2969,-5.40625 C20.2969,-10.5938 17.9063,-15.5 12,-15.5 M3.29688,12.7031 L3.59375,-6.79688 C3.79688,-7.70313 5.29688,-10.5938 9.29688,-10.5938 C12.9063,-10.5938 13.2031,-7.20313 13.2031,-5.09375 C13.2031,3.79688 9.90625,7.5 3.29688,12.7031"/>
<path class="KeySig" transform="matrix(0.992001,0,0,0.992001,402.846,711.569)" d="M12,-15.5 C7,-15.5 4.09375,-12.4063 3.59375,-11.7969 L4,-43.9063 C4,-44.7031 3.40625,-45.2969 2.59375,-45.2969 L1.40625,-45.2969 C0.59375,-45.2969 0,-44.7031 0,-43.9063 L0.5,16.2031 C0.5,17 1.09375,17.5938 1.90625,17.5938 C2.09375,17.5938 2.5,17.5 2.70313,17.4063 C11.2969,13.0938 20.2969,4.90625 20.2969,-5.40625 C20.2969,-10.5938 17.9063,-15.5 12,-15.5 M3.29688,12.7031 L3.59375,-6.79688 C3.79688,-7.70313 5.29688,-10.5938 9.29688,-10.5938 C12.9063,-10.5938 13.2031,-7.20313 13.2031,-5.09375 C13.2031,3.79688 9.90625,7.5 3.29688,12.7031"/>
<path class="KeySig" transform="matrix(0.992001,0,0,0.992001,430.42,761.169)" d="M12,-15.5 C7,-15.5 4.09375,-12.4063 3.59375,-11.7969 L4,-43.9063 C4,-44.7031 3.40625,-45.2969 2.59375,-45.2969 L1.40625,-45.2969 C0.59375,-45.2969 0,-44.7031 0,-43.9063 L0.5,16.2031 C0.5,17 1.09375,17.5938 1.90625,17.5938 C2.09375,17.5938 2.5,17.5 2.70313,17.4063 C11.2969,13.0938 20.2969,4.90625 20.2969,-5.40625 C20.2969,-10.5938 17.9063,-15.5 12,-15.5 M3.29688,12.7031 L3.59375,-6.79688 C3.79688,-7.70313 5.29688,-10.5938 9.29688,-10.5938 C12.9063,-10.5938 13.2031,-7.20313 13.2031,-5.09375 C13.2031,3.79688 9.90625,7.5 3.29688,12.7031"/>
<path class="KeySig" transform="matrix(0.992001,0,0,0.992001,2135.35,686.769)" d="M23.2969,-10.5 C23.9063,-10.5938 24.4063,-11.2969 24.4063,-11.9063 L24.4063,-17.7969 C24.4063,-18.7969 23.7031,-19.2031 22.7969,-19.2031 L19.5,-18.5 L19.5,-33.4063 L16.7031,-33.4063 L16.7031,-17.9063 L7.79688,-16.0938 L7.79688,-30.2031 L5,-30.2031 L5,-15.5 L1.09375,-14.7031 C0.5,-14.5938 0,-13.9063 0,-13.2969 L0,-7.5 C0,-6.40625 0.796875,-6.09375 1.70313,-6.09375 L5,-6.79688 L5,9.70313 L1.09375,10.5 C0.5,10.5938 0,11.2969 0,11.9063 L0,17.7031 C0,18.7969 0.796875,19.0938 1.70313,19.0938 L5,18.4063 L5,33.2969 L7.79688,33.2969 L7.79688,17.7969 L16.7031,16 L16.7031,30.1094 L19.5,30.1094 L19.5,15.4063 L23.2969,14.7031 C23.9063,14.5938 24.4063,13.9063 24.4063,13.2969 L24.4063,7.40625 C24.4063,6.40625 23.7031,6 22.7969,6 L19.5,6.70313 L19.5,-9.79688 L23.2969,-10.5 M7.79688,-7.40625 L16.7031,-9.20313 L16.7031,7.29688 L7.79688,9.20313 L7.79688,-7.40625 "/>
<path class="KeySig" transform="matrix(0.992001,0,0,0.992001,2162.52,723.969)" d="M23.2969,-10.5 C23.9063,-10.5938 24.4063,-11.2969 24.4063,-11.9063 L24.4063,-17.7969 C24.4063,-18.7969 23.7031,-19.2031 22.7969,-19.2031 L19.5,-18.5 L19.5,-33.4063 L16.7031,-33.4063 L16.7031,-17.9063 L7.79688,-16.0938 L7.79688,-30.2031 L5,-30.2031 L5,-15.5 L1.09375,-14.7031 C0.5,-14.5938 0,-13.9063 0,-13.2969 L0,-7.5 C0,-6.40625 0.796875,-6.09375 1.70313,-6.09375 L5,-6.79688 L5,9.70313 L1.09375,10.5 C0.5,10.5938 0,11.2969 0,11.9063 L0,17.7031 C0,18.7969 0.796875,19.0938 1.70313,19.0938 L5,18.4063 L5,33.2969 L7.79688,33.2969 L7.79688,17.7969 L16.7031,16 L16.7031,30.1094 L19.5,30.1094 L19.5,15.4063 L23.2969,14.7031 C23.9063,14.5938 24.4063,13.9063 24.4063,13.2969 L24.4063,7.40625 C24.4063,6.40625 23.7031,6 22.7969,6 L19.5,6.70313 L19.5,-9.79688 L23.2969,-10.5 M7.79688,-7.40625 L16.7031,-9.20313 L16.7031,7.29688 L7.79688,9.20313 L7.79688,-7.40625 "/>
<path class="KeySig" transform="matrix(0.992001,0,0,0.992001,2189.67,674.369)" d="M23.2969,-10.5 C23.9063,-10.5938 24.4063,-11.2969 24.4063,-11.9063 L24.4063,-17.7969 C24.4063,-18.7969 23.7031,-19.2031 22.7969,-19.2031 L19.5,-18.5 L19.5,-33.4063 L16.7031,-33.4063 L16.7031,-17.9063 L7.79688,-16.0938 L7.79688,-30.2031 L5,-30.2031 L5,-15.5 L1.09375,-14.7031 C0.5,-14.5938 0,-13.9063 0,-13.2969 L0,-7.5 C0,-6.40625 0.796875,-6.09375 1.70313,-6.09375 L5,-6.79688 L5,9.70313 L1.09375,10.5 C0.5,10.5938 0,11.2969 0,11.9063 L0,17.7031 C0,18.7969 0.796875,19.0938 1.70313,19.0938 L5,18.4063 L5,33.2969 L7.79688,33.2969 L7.79688,17.7969 L16.7031,16 L16.7031,30.1094 L19.5,30.1094 L19.5,15.4063 L23.2969,14.7031 C23.9063,14.5938 24.4063,13.9063 24.4063,13.2969 L24.4063,7.40625 C24.4063,6.40625 23.7031,6 22.7969,6 L19.5,6.70313 L19.5,-9.79688 L23.2969,-10.5 M7.79688,-7.40625 L16.7031,-9.20313 L16.7031,7.29688 L7.79688,9.20313 L7.79688,-7.40625 "/>
<path class="KeySig" transform="matrix(0.992001,0,0,0.992001,2216.84,711.569)" d="M23.2969,-10.5 C23.9063,-10.5938 24.4063,-11.2969 24.4063,-11.9063 L24.4063,-17.7969 C24.4063,-18.7969 23.7031,-19.2031 22.7969,-19.2031 L19.5,-18.5 L19.5,-33.4063 L16.7031,-33.4063 L16.7031,-17.9063 L7.79688,-16.0938 L7.79688,-30.2031 L5,-30.2031 L5,-15.5 L1.09375,-14.7031 C0.5,-14.5938 0,-13.9063 0,-13.2969 L0,-7.5 C0,-6.40625 0.796875,-6.09375 1.70313,-6.09375 L5,-6.79688 L5,9.70313 L1.09375,10.5 C0.5,10.5938 0,11.2969 0,11.9063 L0,17.7031 C0,18.7969 0.796875,19.0938 1.70313,19.0938 L5,18.4063 L5,33.2969 L7.79688,33.2969 L7.79688,17.7969 L16.7031,16 L16.7031,30.1094 L19.5,30.1094 L19.5,15.4063 L23.2969,14.7031 C23.9063,14.5938 24.4063,13.9063 24.4063,13.2969 L24.4063,7.40625 C24.4063,6.40625 23.7031,6 22.7969,6 L19.5,6.70313 L19.5,-9.79688 L23.2969,-10.5 M7.79688,-7.40625 L16.7031,-9.20313 L16.7031,7.29688 L7.79688,9.20313 L7.79688,-7.40625 "/>
<path class="KeySig" transform="matrix(0.992001,0,0,0.992001,2244.02,748.769)" d="M23.2969,-10.5 C23.9063,-10.5938 24.4063,-11.2969 24.4063,-11.9063 L24.4063,-17.7969 C24.4063,-18.7969 23.7031,-19.2031 22.7969,-19.2031 L19.5,-18.5 L19.5,-33.4063 L16.7031,-33.4063 L16.7031,-17.9063 L7.79688,-16.0938 L7.79688,-30.2031 L5,-30.2031 L5,-15.5 L1.09375,-14.7031 C0.5,-14.5938 0,-13.9063 0,-13.2969 L0,-7.5 C0,-6.40625 0.796875,-6.09375 1.70313,-6.09375 L5,-6.79688 L5,9.70313 L1.09375,10.5 C0.5,10.5938 0,11.2969 0,11.9063 L0,17.7031 C0,18.7969 0.796875,19.0938 1.70313,19.0938 L5,18.4063 L5,33.2969 L7.79688,33.2969 L7.79688,17.7969 L16.7031,16 L16.7031,30.1094 L19.5,30.1094 L19.5,15.4063 L23.2969,14.7031 C23.9063,14.5938 24.4063,13.9063 24.4063,13.2969 L24.4063,7.40625 C24.4063,6.40625 23.7031,6 22.7969,6 L19.5,6.70313 L19.5,-9.79688 L23.2969,-10.5 M7.79688,-7.40625 L16.7031,-9.20313 L16.7031,7.29688 L7.79688,9.20313 L7.79688,-7.40625 "/>
<path class="KeySig" transform="matrix(0.992001,0,0,0.992001,2271.2,699.169)" d="M23.2969,-10.5 C23.9063,-10.5938 24.4063,-11.2969 24.4063,-11.9063 L24.4063,-17.7969 C24.4063,-18.7969 23.7031,-19.2031 22.7969,-19.2031 L19.5,-18.5 L19.5,-33.4063 L16.7031,-33.4063 L16.7031,-17.9063 L7.79688,-16.0938 L7.79688,-30.2031 L5,-30.2031 L5,-15.5 L1.09375,-14.7031 C0.5,-14.5938 0,-13.9063 0,-13.2969 L0,-7.5 C0,-6.40625 0.796875,-6.09375 1.70313,-6.09375 L5,-6.79688 L5,9.70313 L1.09375,10.5 C0.5,10.5938 0,11.2969 0,11.9063 L0,17.7031 C0,18.7969 0.796875,19.0938 1.70313,19.0938 L5,18.4063 L5,33.2969 L7.79688,33.2969 L7.79688,17.7969 L16.7031,16 L16.7031,30.1094 L19.5,30.1094 L19.5,15.4063 L23.2969,14.7031 C23.9063,14.5938 24.4063,13.9063 24.4063,13.2969 L24.4063,7.40625 C24.4063,6.40625 23.7031,6 22.7969,6 L19.5,6.70313 L19.5,-9.79688 L23.2969,-10.5 M7.79688,-7.40625 L16.7031,-9.20313 L16.7031,7.29688 L7.79688,9.20313 L7.79688,-7.40625 "/>
<path class="Lyrics" d="M1529.97,536.131 L1520.72,536.694 L1520.72,538.835 L1523.17,538.835 C1525.02,538.881 1525.27,539.194 1525.27,541.335 L1525.27,569.194 C1525.22,569.944 1525.17,570.241 1524.97,570.491 C1524.61,570.944 1523.67,571.147 1521.52,571.194 L1521.17,571.194 L1521.17,572.991 L1534.11,572.991 L1534.11,571.194 L1533.77,571.194 C1530.42,571.085 1529.97,570.835 1529.97,569.038 L1529.97,536.131 M1558.36,556.897 C1558.36,553.741 1557.81,552.147 1556.36,550.944 C1554.72,549.585 1552.27,548.944 1549.06,548.944 C1543.42,548.944 1539.31,551.585 1539.31,555.241 C1539.31,557.085 1540.47,558.288 1542.22,558.288 C1543.81,558.288 1544.92,557.241 1544.92,555.741 C1544.92,555.085 1544.67,554.397 1544.17,553.694 C1543.86,553.335 1543.81,553.241 1543.81,552.991 C1543.81,551.991 1545.81,551.085 1548.22,551.085 C1549.81,551.085 1551.56,551.585 1552.36,552.335 C1553.31,553.147 1553.67,554.335 1553.67,556.585 L1553.67,558.538 C1548.47,559.444 1546.81,559.835 1544.36,560.788 C1540.02,562.397 1537.97,564.694 1537.97,567.897 C1537.97,571.491 1540.77,573.741 1545.22,573.741 C1548.67,573.741 1551.77,572.335 1553.92,569.788 C1554.72,572.335 1555.97,573.335 1558.31,573.335 C1560.56,573.335 1562.92,571.897 1562.92,570.444 C1562.92,570.085 1562.72,569.835 1562.42,569.835 C1562.22,569.835 1562.02,569.897 1561.67,570.038 C1560.97,570.335 1560.67,570.397 1560.27,570.397 C1558.86,570.397 1558.36,569.491 1558.36,566.944 L1558.36,556.897 M1553.67,562.991 C1553.67,565.991 1553.52,566.694 1552.67,567.991 C1551.42,569.835 1549.17,571.085 1546.97,571.085 C1544.67,571.085 1543.02,569.444 1543.02,567.194 C1543.02,565.085 1544.06,563.585 1546.27,562.538 C1547.81,561.835 1549.77,561.335 1553.67,560.694 L1553.67,562.991 "/>
<path class="Lyrics" d="M520.167,573.335 L528.87,572.991 L528.87,570.835 L527.964,570.835 C525.12,570.694 524.87,570.397 524.87,567.194 L524.87,536.131 L515.073,536.694 L515.073,538.835 L518.011,538.835 C519.917,538.881 520.167,539.194 520.167,541.335 L520.167,552.647 C518.323,550.085 516.167,548.944 513.261,548.944 C507.62,548.944 503.323,554.397 503.323,561.585 C503.323,568.694 507.464,573.741 513.261,573.741 C516.417,573.741 518.573,572.397 520.167,569.397 L520.167,573.335 M514.261,551.647 C516.323,551.647 518.261,553.147 519.167,555.444 C519.823,556.944 520.12,558.991 520.12,561.444 C520.12,567.288 517.823,571.038 514.214,571.038 C510.667,571.038 508.573,567.741 508.573,562.194 C508.573,559.194 508.87,556.944 509.511,555.288 C510.37,553.038 512.214,551.647 514.261,551.647 M542.761,548.944 C536.62,548.944 531.87,554.397 531.87,561.397 C531.87,568.241 536.667,573.741 542.667,573.741 C548.667,573.741 553.464,568.241 553.464,561.335 C553.464,554.491 548.667,548.944 542.761,548.944 M542.761,551.085 C546.261,551.085 548.214,554.741 548.214,561.335 C548.214,567.991 546.261,571.585 542.667,571.585 C539.073,571.585 537.12,567.991 537.12,561.397 C537.12,554.585 539.011,551.085 542.761,551.085"/>
<path class="Lyrics" d="M1743.89,549.147 L1742.14,549.147 L1740.68,550.944 C1738.89,549.538 1737.09,548.944 1734.59,548.944 C1730.18,548.944 1727.29,551.788 1727.29,556.194 C1727.29,560.897 1730.34,562.085 1734.34,563.038 L1736.98,563.647 C1740.93,564.585 1742.34,565.585 1742.34,567.585 C1742.34,569.944 1740.29,571.585 1737.39,571.585 C1733.14,571.585 1730.14,568.897 1728.93,563.897 L1726.93,563.897 L1726.93,573.335 L1728.68,573.335 L1730.43,571.288 C1732.48,572.944 1734.73,573.741 1737.29,573.741 C1742.18,573.741 1745.43,570.694 1745.43,566.038 C1745.43,563.835 1744.73,562.147 1743.34,560.991 C1742.14,559.944 1741.14,559.538 1738.09,558.897 L1735.59,558.335 C1732.84,557.741 1732.84,557.741 1731.93,557.241 C1730.84,556.741 1730.18,555.694 1730.18,554.585 C1730.18,552.538 1732.09,551.147 1734.84,551.147 C1738.93,551.147 1740.93,554.038 1742.14,557.538 L1743.89,557.538 L1743.89,549.147 M1755.34,537.241 C1753.73,537.241 1752.43,538.538 1752.43,540.131 C1752.43,541.741 1753.73,543.038 1755.29,543.038 C1756.93,543.038 1758.23,541.741 1758.23,540.131 C1758.23,538.538 1756.93,537.241 1755.34,537.241 M1757.68,549.694 L1748.29,550.241 L1748.29,552.397 L1750.84,552.397 C1752.73,552.444 1752.98,552.741 1752.98,554.897 L1752.98,569.194 C1752.93,569.944 1752.89,570.241 1752.68,570.491 C1752.34,570.944 1751.39,571.147 1749.23,571.194 L1748.89,571.194 L1748.89,572.991 L1761.84,572.991 L1761.84,571.194 L1761.48,571.194 C1758.14,571.085 1757.68,570.835 1757.68,569.038 L1757.68,549.694 "/>
<path class="Lyrics" d="M1326.15,549.147 L1324.4,549.147 L1322.94,550.944 C1321.15,549.538 1319.35,548.944 1316.85,548.944 C1312.44,548.944 1309.55,551.788 1309.55,556.194 C1309.55,560.897 1312.6,562.085 1316.6,563.038 L1319.24,563.647 C1323.19,564.585 1324.6,565.585 1324.6,567.585 C1324.6,569.944 1322.55,571.585 1319.65,571.585 C1315.4,571.585 1312.4,568.897 1311.19,563.897 L1309.19,563.897 L1309.19,573.335 L1310.94,573.335 L1312.69,571.288 C1314.74,572.944 1316.99,573.741 1319.55,573.741 C1324.44,573.741 1327.69,570.694 1327.69,566.038 C1327.69,563.835 1326.99,562.147 1325.6,560.991 C1324.4,559.944 1323.4,559.538 1320.35,558.897 L1317.85,558.335 C1315.1,557.741 1315.1,557.741 1314.19,557.241 C1313.1,556.741 1312.44,555.694 1312.44,554.585 C1312.44,552.538 1314.35,551.147 1317.1,551.147 C1321.19,551.147 1323.19,554.038 1324.4,557.538 L1326.15,557.538 L1326.15,549.147 M1342.24,548.944 C1336.1,548.944 1331.35,554.397 1331.35,561.397 C1331.35,568.241 1336.15,573.741 1342.15,573.741 C1348.15,573.741 1352.94,568.241 1352.94,561.335 C1352.94,554.491 1348.15,548.944 1342.24,548.944 M1342.24,551.085 C1345.74,551.085 1347.69,554.741 1347.69,561.335 C1347.69,567.991 1345.74,571.585 1342.15,571.585 C1338.55,571.585 1336.6,567.991 1336.6,561.397 C1336.6,554.585 1338.49,551.085 1342.24,551.085 M1364.85,536.131 L1355.6,536.694 L1355.6,538.835 L1358.05,538.835 C1359.9,538.881 1360.15,539.194 1360.15,541.335 L1360.15,569.194 C1360.1,569.944 1360.05,570.241 1359.85,570.491 C1359.49,570.944 1358.55,571.147 1356.4,571.194 L1356.05,571.194 L1356.05,572.991 L1368.99,572.991 L1368.99,571.194 L1368.65,571.194 C1365.3,571.085 1364.85,570.835 1364.85,569.038 L1364.85,536.131 "/>
<path class="Lyrics" d="M1938.51,573.335 L1947.21,572.991 L1947.21,570.835 L1946.31,570.835 C1943.46,570.694 1943.21,570.397 1943.21,567.194 L1943.21,536.131 L1933.41,536.694 L1933.41,538.835 L1936.35,538.835 C1938.26,538.881 1938.51,539.194 1938.51,541.335 L1938.51,552.647 C1936.66,550.085 1934.51,548.944 1931.6,548.944 C1925.96,548.944 1921.66,554.397 1921.66,561.585 C1921.66,568.694 1925.81,573.741 1931.6,573.741 C1934.76,573.741 1936.91,572.397 1938.51,569.397 L1938.51,573.335 M1932.6,551.647 C1934.66,551.647 1936.6,553.147 1937.51,555.444 C1938.16,556.944 1938.46,558.991 1938.46,561.444 C1938.46,567.288 1936.16,571.038 1932.56,571.038 C1929.01,571.038 1926.91,567.741 1926.91,562.194 C1926.91,559.194 1927.21,556.944 1927.85,555.288 C1928.71,553.038 1930.56,551.647 1932.6,551.647 M1961.1,548.944 C1954.96,548.944 1950.21,554.397 1950.21,561.397 C1950.21,568.241 1955.01,573.741 1961.01,573.741 C1967.01,573.741 1971.81,568.241 1971.81,561.335 C1971.81,554.491 1967.01,548.944 1961.1,548.944 M1961.1,551.085 C1964.6,551.085 1966.56,554.741 1966.56,561.335 C1966.56,567.991 1964.6,571.585 1961.01,571.585 C1957.41,571.585 1955.46,567.991 1955.46,561.397 C1955.46,554.585 1957.35,551.085 1961.1,551.085"/>
<path class="Lyrics" d="M913.954,549.694 L905.064,550.241 L905.064,552.397 L907.11,552.397 C909.001,552.444 909.251,552.741 909.251,554.897 L909.251,569.194 C909.204,569.944 909.157,570.241 908.954,570.491 C908.61,570.944 907.657,571.147 905.501,571.194 L905.314,571.194 L905.314,572.991 L917.907,572.991 L917.907,571.194 L917.704,571.194 C914.407,571.085 913.954,570.835 913.954,568.991 L913.954,559.741 C913.954,555.288 916.407,551.991 919.657,551.991 C922.501,551.991 923.954,554.038 923.954,558.085 L923.954,569.241 C923.907,569.897 923.86,570.241 923.61,570.491 C923.314,570.944 922.314,571.147 920.157,571.194 L919.954,571.194 L919.954,572.991 L932.61,572.991 L932.61,571.194 L932.407,571.194 C929.11,571.085 928.657,570.835 928.657,569.038 L928.657,560.194 C928.657,555.194 930.907,551.991 934.407,551.991 C937.267,551.991 938.657,554.147 938.657,558.647 L938.657,569.194 C938.61,569.897 938.564,570.241 938.314,570.491 C938.017,570.944 937.017,571.147 934.86,571.194 L934.657,571.194 L934.657,572.991 L947.314,572.991 L947.314,571.194 L947.11,571.194 C943.814,571.085 943.36,570.835 943.36,568.991 L943.36,557.647 C943.36,554.538 943.064,553.491 941.767,551.788 C940.314,549.944 938.267,548.944 935.86,548.944 C932.61,548.944 930.204,550.491 928.064,553.944 C927.204,550.944 924.501,548.944 921.157,548.944 C918.11,548.944 915.907,550.397 913.954,553.538 L913.954,549.694 M955.86,537.241 C954.251,537.241 952.954,538.538 952.954,540.131 C952.954,541.741 954.251,543.038 955.814,543.038 C957.454,543.038 958.751,541.741 958.751,540.131 C958.751,538.538 957.454,537.241 955.86,537.241 M958.204,549.694 L948.814,550.241 L948.814,552.397 L951.36,552.397 C953.251,552.444 953.501,552.741 953.501,554.897 L953.501,569.194 C953.454,569.944 953.407,570.241 953.204,570.491 C952.86,570.944 951.907,571.147 949.751,571.194 L949.407,571.194 L949.407,572.991 L962.36,572.991 L962.36,571.194 L962.001,571.194 C958.657,571.085 958.204,570.835 958.204,569.038 L958.204,549.694 "/>
<path class="Lyrics" d="M717.693,549.694 L708.834,550.241 L708.834,552.397 L710.881,552.397 C712.787,552.444 713.037,552.741 713.037,554.897 L713.037,569.194 C712.99,569.944 712.943,570.241 712.74,570.491 C712.381,570.944 711.381,571.147 709.24,571.194 L709.037,571.194 L709.037,572.991 L722.381,572.991 L722.381,571.194 L721.49,571.194 C718.131,571.085 717.693,570.835 717.693,569.038 L717.693,566.335 C717.74,557.944 720.74,551.538 724.631,551.335 C723.943,552.147 723.74,552.647 723.74,553.585 C723.74,555.194 724.881,556.335 726.49,556.335 C728.334,556.335 729.537,554.991 729.537,552.991 C729.537,550.538 727.834,548.944 725.193,548.944 C722.037,548.944 719.334,551.444 717.693,555.897 L717.693,549.694 M753.037,561.741 C753.084,554.241 748.834,548.944 742.74,548.944 C736.334,548.944 731.537,554.491 731.537,561.991 C731.537,569.038 736.084,573.741 742.834,573.741 C747.631,573.741 750.99,571.397 753.037,566.647 L751.287,565.694 C749.24,569.538 747.131,571.038 743.787,571.038 C741.24,571.038 739.381,569.991 738.084,567.741 C737.193,566.241 736.787,564.491 736.834,561.741 L753.037,561.741 M736.881,559.585 C736.881,556.085 738.49,551.085 742.693,551.085 C745.693,551.085 747.693,553.741 747.693,557.788 C747.693,559.194 747.24,559.585 745.631,559.585 L736.881,559.585 "/>
<path class="Lyrics" d="M1124.07,549.694 L1124.07,546.835 C1124.07,544.335 1124.23,542.694 1124.62,541.694 C1125.43,539.491 1127.18,538.131 1129.18,538.131 C1130.23,538.131 1130.87,538.444 1130.87,538.991 C1130.87,539.194 1130.87,539.241 1130.57,539.631 C1130.28,540.085 1130.12,540.694 1130.12,541.241 C1130.12,542.741 1131.32,543.881 1132.87,543.881 C1134.53,543.881 1135.68,542.631 1135.68,540.835 C1135.68,537.944 1133.18,536.131 1129.12,536.131 C1125.68,536.131 1123.12,537.335 1121.37,539.835 C1119.87,541.944 1119.37,544.085 1119.37,548.147 L1119.37,549.694 L1114.98,549.694 L1114.98,551.835 L1119.37,551.835 L1119.37,569.194 C1119.32,569.897 1119.28,570.194 1119.07,570.491 C1118.73,570.944 1117.78,571.147 1115.62,571.194 L1115.43,571.194 L1115.43,572.991 L1128.78,572.991 L1128.78,571.194 L1127.87,571.194 C1124.53,571.085 1124.07,570.835 1124.07,569.038 L1124.07,551.835 L1129.57,551.835 L1129.57,549.694 L1124.07,549.694 M1152.62,556.897 C1152.62,553.741 1152.07,552.147 1150.62,550.944 C1148.98,549.585 1146.53,548.944 1143.32,548.944 C1137.68,548.944 1133.57,551.585 1133.57,555.241 C1133.57,557.085 1134.73,558.288 1136.48,558.288 C1138.07,558.288 1139.18,557.241 1139.18,555.741 C1139.18,555.085 1138.93,554.397 1138.43,553.694 C1138.12,553.335 1138.07,553.241 1138.07,552.991 C1138.07,551.991 1140.07,551.085 1142.48,551.085 C1144.07,551.085 1145.82,551.585 1146.62,552.335 C1147.57,553.147 1147.93,554.335 1147.93,556.585 L1147.93,558.538 C1142.73,559.444 1141.07,559.835 1138.62,560.788 C1134.28,562.397 1132.23,564.694 1132.23,567.897 C1132.23,571.491 1135.03,573.741 1139.48,573.741 C1142.93,573.741 1146.03,572.335 1148.18,569.788 C1148.98,572.335 1150.23,573.335 1152.57,573.335 C1154.82,573.335 1157.18,571.897 1157.18,570.444 C1157.18,570.085 1156.98,569.835 1156.68,569.835 C1156.48,569.835 1156.28,569.897 1155.93,570.038 C1155.23,570.335 1154.93,570.397 1154.53,570.397 C1153.12,570.397 1152.62,569.491 1152.62,566.944 L1152.62,556.897 M1147.93,562.991 C1147.93,565.991 1147.78,566.694 1146.93,567.991 C1145.68,569.835 1143.43,571.085 1141.23,571.085 C1138.93,571.085 1137.28,569.444 1137.28,567.194 C1137.28,565.085 1138.32,563.585 1140.53,562.538 C1142.07,561.835 1144.03,561.335 1147.93,560.694 L1147.93,562.991 "/>
<path class="Lyrics" d="M1521.81,812.272 L1512.92,812.819 L1512.92,814.975 L1514.97,814.975 C1516.86,815.022 1517.11,815.319 1517.11,817.475 L1517.11,831.772 C1517.06,832.522 1517.02,832.819 1516.81,833.069 C1516.47,833.522 1515.52,833.725 1513.36,833.772 L1513.17,833.772 L1513.17,835.569 L1525.77,835.569 L1525.77,833.772 L1525.56,833.772 C1522.27,833.663 1521.81,833.413 1521.81,831.569 L1521.81,822.319 C1521.81,817.866 1524.27,814.569 1527.52,814.569 C1530.36,814.569 1531.81,816.616 1531.81,820.663 L1531.81,831.819 C1531.77,832.475 1531.72,832.819 1531.47,833.069 C1531.17,833.522 1530.17,833.725 1528.02,833.772 L1527.81,833.772 L1527.81,835.569 L1540.47,835.569 L1540.47,833.772 L1540.27,833.772 C1536.97,833.663 1536.52,833.413 1536.52,831.616 L1536.52,822.772 C1536.52,817.772 1538.77,814.569 1542.27,814.569 C1545.13,814.569 1546.52,816.725 1546.52,821.225 L1546.52,831.772 C1546.47,832.475 1546.42,832.819 1546.17,833.069 C1545.88,833.522 1544.88,833.725 1542.72,833.772 L1542.52,833.772 L1542.52,835.569 L1555.17,835.569 L1555.17,833.772 L1554.97,833.772 C1551.67,833.663 1551.22,833.413 1551.22,831.569 L1551.22,820.225 C1551.22,817.116 1550.92,816.069 1549.63,814.366 C1548.17,812.522 1546.13,811.522 1543.72,811.522 C1540.47,811.522 1538.06,813.069 1535.92,816.522 C1535.06,813.522 1532.36,811.522 1529.02,811.522 C1525.97,811.522 1523.77,812.975 1521.81,816.116 L1521.81,812.272 M1563.72,799.819 C1562.11,799.819 1560.81,801.116 1560.81,802.71 C1560.81,804.319 1562.11,805.616 1563.67,805.616 C1565.31,805.616 1566.61,804.319 1566.61,802.71 C1566.61,801.116 1565.31,799.819 1563.72,799.819 M1566.06,812.272 L1556.67,812.819 L1556.67,814.975 L1559.22,814.975 C1561.11,815.022 1561.36,815.319 1561.36,817.475 L1561.36,831.772 C1561.31,832.522 1561.27,832.819 1561.06,833.069 C1560.72,833.522 1559.77,833.725 1557.61,833.772 L1557.27,833.772 L1557.27,835.569 L1570.22,835.569 L1570.22,833.772 L1569.86,833.772 C1566.52,833.663 1566.06,833.413 1566.06,831.616 L1566.06,812.272 "/>
<path class="Lyrics" d="M730.787,811.725 L729.037,811.725 L727.584,813.522 C725.787,812.116 723.99,811.522 721.49,811.522 C717.084,811.522 714.193,814.366 714.193,818.772 C714.193,823.475 717.24,824.663 721.24,825.616 L723.881,826.225 C727.834,827.163 729.24,828.163 729.24,830.163 C729.24,832.522 727.193,834.163 724.287,834.163 C720.037,834.163 717.037,831.475 715.834,826.475 L713.834,826.475 L713.834,835.913 L715.584,835.913 L717.334,833.866 C719.381,835.522 721.631,836.319 724.193,836.319 C729.084,836.319 732.334,833.272 732.334,828.616 C732.334,826.413 731.631,824.725 730.24,823.569 C729.037,822.522 728.037,822.116 724.99,821.475 L722.49,820.913 C719.74,820.319 719.74,820.319 718.834,819.819 C717.74,819.319 717.084,818.272 717.084,817.163 C717.084,815.116 718.99,813.725 721.74,813.725 C725.834,813.725 727.834,816.616 729.037,820.116 L730.787,820.116 L730.787,811.725 M742.24,799.819 C740.631,799.819 739.334,801.116 739.334,802.71 C739.334,804.319 740.631,805.616 742.193,805.616 C743.834,805.616 745.131,804.319 745.131,802.71 C745.131,801.116 743.834,799.819 742.24,799.819 M744.584,812.272 L735.193,812.819 L735.193,814.975 L737.74,814.975 C739.631,815.022 739.881,815.319 739.881,817.475 L739.881,831.772 C739.834,832.522 739.787,832.819 739.584,833.069 C739.24,833.522 738.287,833.725 736.131,833.772 L735.787,833.772 L735.787,835.569 L748.74,835.569 L748.74,833.772 L748.381,833.772 C745.037,833.663 744.584,833.413 744.584,831.616 L744.584,812.272 "/>
<path class="Lyrics" d="M1730.79,812.272 L1721.93,812.819 L1721.93,814.975 L1723.98,814.975 C1725.89,815.022 1726.14,815.319 1726.14,817.475 L1726.14,831.772 C1726.09,832.522 1726.04,832.819 1725.84,833.069 C1725.48,833.522 1724.48,833.725 1722.34,833.772 L1722.14,833.772 L1722.14,835.569 L1735.48,835.569 L1735.48,833.772 L1734.59,833.772 C1731.23,833.663 1730.79,833.413 1730.79,831.616 L1730.79,828.913 C1730.84,820.522 1733.84,814.116 1737.73,813.913 C1737.04,814.725 1736.84,815.225 1736.84,816.163 C1736.84,817.772 1737.98,818.913 1739.59,818.913 C1741.43,818.913 1742.64,817.569 1742.64,815.569 C1742.64,813.116 1740.93,811.522 1738.29,811.522 C1735.14,811.522 1732.43,814.022 1730.79,818.475 L1730.79,812.272 M1766.14,824.319 C1766.18,816.819 1761.93,811.522 1755.84,811.522 C1749.43,811.522 1744.64,817.069 1744.64,824.569 C1744.64,831.616 1749.18,836.319 1755.93,836.319 C1760.73,836.319 1764.09,833.975 1766.14,829.225 L1764.39,828.272 C1762.34,832.116 1760.23,833.616 1756.89,833.616 C1754.34,833.616 1752.48,832.569 1751.18,830.319 C1750.29,828.819 1749.89,827.069 1749.93,824.319 L1766.14,824.319 M1749.98,822.163 C1749.98,818.663 1751.59,813.663 1755.79,813.663 C1758.79,813.663 1760.79,816.319 1760.79,820.366 C1760.79,821.772 1760.34,822.163 1758.73,822.163 L1749.98,822.163 "/>
<path class="Lyrics" d="M1123.53,811.725 L1121.78,811.725 L1120.32,813.522 C1118.53,812.116 1116.73,811.522 1114.23,811.522 C1109.82,811.522 1106.93,814.366 1106.93,818.772 C1106.93,823.475 1109.98,824.663 1113.98,825.616 L1116.62,826.225 C1120.57,827.163 1121.98,828.163 1121.98,830.163 C1121.98,832.522 1119.93,834.163 1117.03,834.163 C1112.78,834.163 1109.78,831.475 1108.57,826.475 L1106.57,826.475 L1106.57,835.913 L1108.32,835.913 L1110.07,833.866 C1112.12,835.522 1114.37,836.319 1116.93,836.319 C1121.82,836.319 1125.07,833.272 1125.07,828.616 C1125.07,826.413 1124.37,824.725 1122.98,823.569 C1121.78,822.522 1120.78,822.116 1117.73,821.475 L1115.23,820.913 C1112.48,820.319 1112.48,820.319 1111.57,819.819 C1110.48,819.319 1109.82,818.272 1109.82,817.163 C1109.82,815.116 1111.73,813.725 1114.48,813.725 C1118.57,813.725 1120.57,816.616 1121.78,820.116 L1123.53,820.116 L1123.53,811.725 M1139.62,811.522 C1133.48,811.522 1128.73,816.975 1128.73,823.975 C1128.73,830.819 1133.53,836.319 1139.53,836.319 C1145.53,836.319 1150.32,830.819 1150.32,823.913 C1150.32,817.069 1145.53,811.522 1139.62,811.522 M1139.62,813.663 C1143.12,813.663 1145.07,817.319 1145.07,823.913 C1145.07,830.569 1143.12,834.163 1139.53,834.163 C1135.93,834.163 1133.98,830.569 1133.98,823.975 C1133.98,817.163 1135.87,813.663 1139.62,813.663 M1162.23,798.71 L1152.98,799.272 L1152.98,801.413 L1155.43,801.413 C1157.28,801.46 1157.53,801.772 1157.53,803.913 L1157.53,831.772 C1157.48,832.522 1157.43,832.819 1157.23,833.069 C1156.87,833.522 1155.93,833.725 1153.78,833.772 L1153.43,833.772 L1153.43,835.569 L1166.37,835.569 L1166.37,833.772 L1166.03,833.772 C1162.68,833.663 1162.23,833.413 1162.23,831.616 L1162.23,798.71 "/>
<path class="Lyrics" d="M1938.51,835.913 L1947.21,835.569 L1947.21,833.413 L1946.31,833.413 C1943.46,833.272 1943.21,832.975 1943.21,829.772 L1943.21,798.71 L1933.41,799.272 L1933.41,801.413 L1936.35,801.413 C1938.26,801.46 1938.51,801.772 1938.51,803.913 L1938.51,815.225 C1936.66,812.663 1934.51,811.522 1931.6,811.522 C1925.96,811.522 1921.66,816.975 1921.66,824.163 C1921.66,831.272 1925.81,836.319 1931.6,836.319 C1934.76,836.319 1936.91,834.975 1938.51,831.975 L1938.51,835.913 M1932.6,814.225 C1934.66,814.225 1936.6,815.725 1937.51,818.022 C1938.16,819.522 1938.46,821.569 1938.46,824.022 C1938.46,829.866 1936.16,833.616 1932.56,833.616 C1929.01,833.616 1926.91,830.319 1926.91,824.772 C1926.91,821.772 1927.21,819.522 1927.85,817.866 C1928.71,815.616 1930.56,814.225 1932.6,814.225 M1961.1,811.522 C1954.96,811.522 1950.21,816.975 1950.21,823.975 C1950.21,830.819 1955.01,836.319 1961.01,836.319 C1967.01,836.319 1971.81,830.819 1971.81,823.913 C1971.81,817.069 1967.01,811.522 1961.1,811.522 M1961.1,813.663 C1964.6,813.663 1966.56,817.319 1966.56,823.913 C1966.56,830.569 1964.6,834.163 1961.01,834.163 C1957.41,834.163 1955.46,830.569 1955.46,823.975 C1955.46,817.163 1957.35,813.663 1961.1,813.663"/>
<path class="Lyrics" d="M922.11,798.71 L912.86,799.272 L912.86,801.413 L915.314,801.413 C917.157,801.46 917.407,801.772 917.407,803.913 L917.407,831.772 C917.36,832.522 917.314,832.819 917.11,833.069 C916.751,833.522 915.814,833.725 913.657,833.772 L913.314,833.772 L913.314,835.569 L926.251,835.569 L926.251,833.772 L925.907,833.772 C922.564,833.663 922.11,833.413 922.11,831.616 L922.11,798.71 M950.501,819.475 C950.501,816.319 949.954,814.725 948.501,813.522 C946.86,812.163 944.407,811.522 941.204,811.522 C935.564,811.522 931.454,814.163 931.454,817.819 C931.454,819.663 932.61,820.866 934.36,820.866 C935.954,820.866 937.064,819.819 937.064,818.319 C937.064,817.663 936.814,816.975 936.314,816.272 C936.001,815.913 935.954,815.819 935.954,815.569 C935.954,814.569 937.954,813.663 940.36,813.663 C941.954,813.663 943.704,814.163 944.501,814.913 C945.454,815.725 945.814,816.913 945.814,819.163 L945.814,821.116 C940.61,822.022 938.954,822.413 936.501,823.366 C932.157,824.975 930.11,827.272 930.11,830.475 C930.11,834.069 932.907,836.319 937.36,836.319 C940.814,836.319 943.907,834.913 946.064,832.366 C946.86,834.913 948.11,835.913 950.454,835.913 C952.704,835.913 955.064,834.475 955.064,833.022 C955.064,832.663 954.86,832.413 954.564,832.413 C954.36,832.413 954.157,832.475 953.814,832.616 C953.11,832.913 952.814,832.975 952.407,832.975 C951.001,832.975 950.501,832.069 950.501,829.522 L950.501,819.475 M945.814,825.569 C945.814,828.569 945.657,829.272 944.814,830.569 C943.564,832.413 941.314,833.663 939.11,833.663 C936.814,833.663 935.157,832.022 935.157,829.772 C935.157,827.663 936.204,826.163 938.407,825.116 C939.954,824.413 941.907,823.913 945.814,823.272 L945.814,825.569 "/>
<path class="Lyrics" d="M1326.69,812.272 L1326.69,809.413 C1326.69,806.913 1326.85,805.272 1327.24,804.272 C1328.05,802.069 1329.8,800.71 1331.8,800.71 C1332.85,800.71 1333.49,801.022 1333.49,801.569 C1333.49,801.772 1333.49,801.819 1333.19,802.21 C1332.9,802.663 1332.74,803.272 1332.74,803.819 C1332.74,805.319 1333.94,806.46 1335.49,806.46 C1337.15,806.46 1338.3,805.21 1338.3,803.413 C1338.3,800.522 1335.8,798.71 1331.74,798.71 C1328.3,798.71 1325.74,799.913 1323.99,802.413 C1322.49,804.522 1321.99,806.663 1321.99,810.725 L1321.99,812.272 L1317.6,812.272 L1317.6,814.413 L1321.99,814.413 L1321.99,831.772 C1321.94,832.475 1321.9,832.772 1321.69,833.069 C1321.35,833.522 1320.4,833.725 1318.24,833.772 L1318.05,833.772 L1318.05,835.569 L1331.4,835.569 L1331.4,833.772 L1330.49,833.772 C1327.15,833.663 1326.69,833.413 1326.69,831.616 L1326.69,814.413 L1332.19,814.413 L1332.19,812.272 L1326.69,812.272 M1355.24,819.475 C1355.24,816.319 1354.69,814.725 1353.24,813.522 C1351.6,812.163 1349.15,811.522 1345.94,811.522 C1340.3,811.522 1336.19,814.163 1336.19,817.819 C1336.19,819.663 1337.35,820.866 1339.1,820.866 C1340.69,820.866 1341.8,819.819 1341.8,818.319 C1341.8,817.663 1341.55,816.975 1341.05,816.272 C1340.74,815.913 1340.69,815.819 1340.69,815.569 C1340.69,814.569 1342.69,813.663 1345.1,813.663 C1346.69,813.663 1348.44,814.163 1349.24,814.913 C1350.19,815.725 1350.55,816.913 1350.55,819.163 L1350.55,821.116 C1345.35,822.022 1343.69,822.413 1341.24,823.366 C1336.9,824.975 1334.85,827.272 1334.85,830.475 C1334.85,834.069 1337.65,836.319 1342.1,836.319 C1345.55,836.319 1348.65,834.913 1350.8,832.366 C1351.6,834.913 1352.85,835.913 1355.19,835.913 C1357.44,835.913 1359.8,834.475 1359.8,833.022 C1359.8,832.663 1359.6,832.413 1359.3,832.413 C1359.1,832.413 1358.9,832.475 1358.55,832.616 C1357.85,832.913 1357.55,832.975 1357.15,832.975 C1355.74,832.975 1355.24,832.069 1355.24,829.522 L1355.24,819.475 M1350.55,825.569 C1350.55,828.569 1350.4,829.272 1349.55,830.569 C1348.3,832.413 1346.05,833.663 1343.85,833.663 C1341.55,833.663 1339.9,832.022 1339.9,829.772 C1339.9,827.663 1340.94,826.163 1343.15,825.116 C1344.69,824.413 1346.65,823.913 1350.55,823.272 L1350.55,825.569 "/>
<path class="Lyrics" d="M520.167,835.913 L528.87,835.569 L528.87,833.413 L527.964,833.413 C525.12,833.272 524.87,832.975 524.87,829.772 L524.87,798.71 L515.073,799.272 L515.073,801.413 L518.011,801.413 C519.917,801.46 520.167,801.772 520.167,803.913 L520.167,815.225 C518.323,812.663 516.167,811.522 513.261,811.522 C507.62,811.522 503.323,816.975 503.323,824.163 C503.323,831.272 507.464,836.319 513.261,836.319 C516.417,836.319 518.573,834.975 520.167,831.975 L520.167,835.913 M514.261,814.225 C516.323,814.225 518.261,815.725 519.167,818.022 C519.823,819.522 520.12,821.569 520.12,824.022 C520.12,829.866 517.823,833.616 514.214,833.616 C510.667,833.616 508.573,830.319 508.573,824.772 C508.573,821.772 508.87,819.522 509.511,817.866 C510.37,815.616 512.214,814.225 514.261,814.225 M542.761,811.522 C536.62,811.522 531.87,816.975 531.87,823.975 C531.87,830.819 536.667,836.319 542.667,836.319 C548.667,836.319 553.464,830.819 553.464,823.913 C553.464,817.069 548.667,811.522 542.761,811.522 M542.761,813.663 C546.261,813.663 548.214,817.319 548.214,823.913 C548.214,830.569 546.261,834.163 542.667,834.163 C539.073,834.163 537.12,830.569 537.12,823.975 C537.12,817.163 539.011,813.663 542.761,813.663"/>
<path class="StaffText" d="M523.648,326.195 C521.961,328.242 517.352,329.789 512.758,329.899 L512.758,332.039 L517.148,332.039 C520.055,332.102 520.352,332.399 520.258,335.195 L520.258,355.242 C520.258,357.805 520.258,357.899 519.961,358.352 C519.555,358.852 518.602,359.055 515.805,359.055 L512.555,359.055 L512.555,361.399 L532.352,361.399 L532.352,359.055 L529.602,359.055 C526.805,359.055 525.852,358.852 525.461,358.352 C525.102,357.899 525.102,357.852 525.102,355.242 L525.102,334.602 C525.102,331.789 525.211,329.445 525.461,326.195 L523.648,326.195 M552.102,345.695 L577.305,345.695 L577.305,341.695 L552.102,341.695 L552.102,345.695 M552.102,355.805 L577.305,355.805 L577.305,351.805 L552.102,351.805 L552.102,355.805 M595.008,361.399 L611.805,361.399 C616.258,361.399 619.664,360.695 622.305,359.195 C627.352,356.352 630.164,350.649 630.164,343.149 C630.164,336.242 627.664,330.852 623.055,327.852 C620.305,326.102 616.602,325.289 610.898,325.289 L595.008,325.289 L595.008,327.649 L595.961,327.649 C598.758,327.695 599.711,327.852 600.102,328.352 C600.398,328.789 600.398,328.899 600.398,331.445 L600.398,355.242 C600.398,357.805 600.398,357.899 600.102,358.352 C599.711,358.852 598.758,358.992 595.961,359.055 L595.008,359.055 L595.008,361.399 M608.852,359.055 C606.305,359.055 606.008,358.742 606.008,356.305 L606.008,330.445 C606.008,327.992 606.352,327.649 608.852,327.649 L611.461,327.649 C620.008,327.649 623.555,332.289 623.555,343.352 C623.555,354.555 620.352,359.055 612.258,359.055 L608.852,359.055 M641.555,324.539 L632.961,325.102 L632.961,327.242 L634.711,327.242 C636.602,327.289 636.852,327.602 636.852,329.742 L636.852,349.195 C636.852,356.149 636.555,359.945 635.961,362.102 L637.852,362.102 L640.305,358.195 C642.352,360.899 644.711,362.149 647.805,362.149 C654.008,362.149 658.555,356.852 658.555,349.602 C658.555,342.399 654.352,337.352 648.352,337.352 C645.305,337.352 643.461,338.399 641.555,341.242 L641.555,324.539 M647.461,339.899 C651.211,339.899 653.305,343.555 653.305,350.102 C653.305,356.445 651.258,359.992 647.602,359.992 C643.648,359.992 641.305,356.352 641.305,350.195 C641.305,343.492 643.461,339.899 647.461,339.899"/>
<path class="Page" d="M2269.2,212.661 L2267.28,212.661 C2263.81,215.255 2259.91,216.348 2253.36,216.458 L2253.36,219.536 L2255.67,219.536 C2260.56,219.536 2260.63,219.645 2260.56,224.161 L2260.56,243.676 C2260.56,247.083 2260.56,247.255 2260.19,247.801 C2259.69,248.411 2258.58,248.63 2255.61,248.63 L2253.86,248.63 L2253.86,251.598 L2275.8,251.598 L2275.8,248.63 L2274.03,248.63 C2271.13,248.63 2270.08,248.411 2269.58,247.801 C2269.2,247.255 2269.2,247.036 2269.2,243.676 L2269.2,212.661 M2301.2,212.661 L2299.28,212.661 C2295.81,215.255 2291.91,216.348 2285.36,216.458 L2285.36,219.536 L2287.67,219.536 C2292.56,219.536 2292.63,219.645 2292.56,224.161 L2292.56,243.676 C2292.56,247.083 2292.56,247.255 2292.19,247.801 C2291.69,248.411 2290.58,248.63 2287.61,248.63 L2285.86,248.63 L2285.86,251.598 L2307.8,251.598 L2307.8,248.63 L2306.03,248.63 C2303.13,248.63 2302.08,248.411 2301.58,247.801 C2301.2,247.255 2301.2,247.036 2301.2,243.676 L2301.2,212.661 "/>
<path class="Bracket" transform="matrix(3.596,0,0,3.7497,181.331,761.169)" d="M0.90625,-50 C2.70313,-51.9063 6.20313,-55.7969 6.20313,-63 C6.20313,-72.1094 2.29688,-81.3125 2.29688,-87 C2.29688,-93.1094 5.79688,-98.8125 6,-99 C6,-99.1094 6,-99.1094 6,-99.2031 C6,-99.3125 6,-99.4063 5.90625,-99.5 C5.79688,-99.5 5.59375,-99.5 5.5,-99.3125 C5.40625,-99.2031 0,-93.8125 0,-85.6094 C0,-76.8125 3.5,-70.6094 3.5,-59.1094 C3.5,-56.9063 2.59375,-53.4063 0.09375,-50.2969 C0,-50.2969 0,-50.1094 -0.09375,-50 C-0.09375,-49.9063 0,-49.7969 0.09375,-49.7031 C2.59375,-46.6094 3.5,-43.1094 3.5,-40.9063 C3.5,-29.4063 0,-23.2031 0,-14.4063 C0,-6.29688 5.40625,-0.796875 5.5,-0.703125 C5.59375,-0.5 5.79688,-0.40625 5.90625,-0.5 C6,-0.59375 6.09375,-0.703125 6,-0.796875 C6,-0.796875 6,-0.90625 6,-1 C5.79688,-1.20313 2.29688,-6.90625 2.29688,-13 C2.29688,-18.7031 6.20313,-27.9063 6.20313,-37 C6.20313,-44.2969 2.70313,-48.1094 0.90625,-50"/>
</svg>
