<?xml version="1.0" encoding="UTF-8" standalone="no"?>
<svg width="2520px" height="1008px" viewBox="0 0 2520 1008"
 xmlns="http://www.w3.org/2000/svg" xmlns:xlink="http://www.w3.org/1999/xlink" version="1.2" baseProfile="tiny">
<title>大调调性 (15)</title>
<desc>Generated by MuseScore Studio 4.4.4</desc>
<path class="" fill="#ffffff" fill-rule="evenodd" d="M0,0 L2520,0 L2520,1008 L0,1008 L0,0 "/>
<polyline class="StaffLines" fill="none" stroke="#000000" stroke-width="2.73" stroke-linejoin="bevel" points="212.598,386.199 2307.8,386.199"/>
<polyline class="StaffLines" fill="none" stroke="#000000" stroke-width="2.73" stroke-linejoin="bevel" points="212.598,410.999 2307.8,410.999"/>
<polyline class="StaffLines" fill="none" stroke="#000000" stroke-width="2.73" stroke-linejoin="bevel" points="212.598,435.799 2307.8,435.799"/>
<polyline class="StaffLines" fill="none" stroke="#000000" stroke-width="2.73" stroke-linejoin="bevel" points="212.598,460.599 2307.8,460.599"/>
<polyline class="StaffLines" fill="none" stroke="#000000" stroke-width="2.73" stroke-linejoin="bevel" points="212.598,485.399 2307.8,485.399"/>
<polyline class="StaffLines" fill="none" stroke="#000000" stroke-width="2.73" stroke-linejoin="bevel" points="212.598,661.969 2307.8,661.969"/>
<polyline class="StaffLines" fill="none" stroke="#000000" stroke-width="2.73" stroke-linejoin="bevel" points="212.598,686.769 2307.8,686.769"/>
<polyline class="StaffLines" fill="none" stroke="#000000" stroke-width="2.73" stroke-linejoin="bevel" points="212.598,711.569 2307.8,711.569"/>
<polyline class="StaffLines" fill="none" stroke="#000000" stroke-width="2.73" stroke-linejoin="bevel" points="212.598,736.369 2307.8,736.369"/>
<polyline class="StaffLines" fill="none" stroke="#000000" stroke-width="2.73" stroke-linejoin="bevel" points="212.598,761.169 2307.8,761.169"/>
<path class="MeasureNumber" d="M229.958,308.286 L228.801,308.286 C226.598,309.927 222.364,311.317 219.473,311.317 L219.005,313.083 L221.755,313.083 C224.192,313.083 224.473,313.161 224.473,313.88 C224.473,314.239 224.473,314.239 224.083,315.677 L219.801,331.677 C219.27,333.677 219.239,333.802 218.88,334.161 C218.473,334.552 217.63,334.677 215.52,334.724 L213.801,334.724 L213.598,336.599 L228.395,336.599 L228.63,334.724 L226.473,334.724 C223.88,334.724 223.317,334.52 223.317,333.645 C223.317,333.364 223.473,332.442 223.676,331.677 L229.958,308.286 M251.958,308.286 L250.801,308.286 C248.598,309.927 244.364,311.317 241.473,311.317 L241.005,313.083 L243.755,313.083 C246.192,313.083 246.473,313.161 246.473,313.88 C246.473,314.239 246.473,314.239 246.083,315.677 L241.801,331.677 C241.27,333.677 241.239,333.802 240.88,334.161 C240.473,334.552 239.63,334.677 237.52,334.724 L235.801,334.724 L235.598,336.599 L250.395,336.599 L250.63,334.724 L248.473,334.724 C245.88,334.724 245.317,334.52 245.317,333.645 C245.317,333.364 245.473,332.442 245.676,331.677 L251.958,308.286 M269.192,322.036 C271.083,321.442 271.833,321.114 272.801,320.474 C274.676,319.239 275.833,317.036 275.833,314.802 C275.833,311.005 272.801,308.442 268.317,308.442 C263.958,308.442 260.27,311.161 260.27,314.442 C260.27,316.083 261.27,317.208 262.801,317.208 C264.114,317.208 265.083,316.239 265.083,314.927 C265.083,314.239 264.88,313.755 264.239,313.13 C263.833,312.755 263.676,312.489 263.676,312.208 C263.676,311.239 265.676,310.239 267.551,310.239 C270.239,310.239 271.833,311.724 271.833,314.208 C271.833,317.755 269.317,321.114 266.63,321.114 C266.52,321.114 266.161,321.083 265.723,321.036 C264.551,320.958 264.551,320.958 264.317,320.958 C263.442,320.958 262.958,321.364 262.958,322.083 C262.958,322.724 263.395,323.114 264.114,323.114 C264.317,323.114 264.598,323.083 264.911,323.036 C265.473,322.927 266.083,322.88 266.442,322.88 C268.317,322.88 269.598,324.567 269.598,327.036 C269.598,331.364 267.473,335.52 262.63,335.52 C260.395,335.52 258.473,334.395 258.473,333.114 C258.473,332.677 258.645,332.52 259.27,332.239 C260.442,331.724 260.911,331.005 260.911,329.927 C260.911,328.52 259.801,327.442 258.364,327.442 C256.645,327.442 255.52,328.802 255.52,330.88 C255.52,334.755 258.473,337.192 263.27,337.192 C269.317,337.192 273.911,333.161 273.911,327.802 C273.911,324.677 271.989,322.927 269.192,322.036"/>
<polyline class="BarLine" fill="none" stroke="#000000" stroke-width="4.46" stroke-linejoin="bevel" points="1407.42,384.835 1407.42,661.969"/>
<polyline class="BarLine" fill="none" stroke="#000000" stroke-width="4.46" stroke-linejoin="bevel" points="214.83,384.835 214.83,661.969"/>
<polyline class="BarLine" fill="none" stroke="#000000" stroke-width="4.46" stroke-linejoin="bevel" points="1626.25,384.835 1626.25,661.969"/>
<polyline class="BarLine" fill="none" stroke="#000000" stroke-width="4.46" stroke-linejoin="bevel" points="2282.75,384.835 2282.75,661.969"/>
<polyline class="BarLine" fill="none" stroke="#000000" stroke-width="13.64" stroke-linejoin="bevel" points="2300.98,384.835 2300.98,661.969"/>
<polyline class="BarLine" fill="none" stroke="#000000" stroke-width="4.46" stroke-linejoin="bevel" points="969.751,384.835 969.751,661.969"/>
<polyline class="BarLine" fill="none" stroke="#000000" stroke-width="4.46" stroke-linejoin="bevel" points="2063.92,384.835 2063.92,661.969"/>
<polyline class="BarLine" fill="none" stroke="#000000" stroke-width="4.46" stroke-linejoin="bevel" points="1845.08,384.835 1845.08,661.969"/>
<polyline class="BarLine" fill="none" stroke="#000000" stroke-width="4.46" stroke-linejoin="bevel" points="750.918,384.835 750.918,661.969"/>
<polyline class="BarLine" fill="none" stroke="#000000" stroke-width="4.46" stroke-linejoin="bevel" points="1188.58,384.835 1188.58,661.969"/>
<polyline class="BarLine" fill="none" stroke="#000000" stroke-width="4.46" stroke-linejoin="bevel" points="1188.58,660.605 1188.58,762.533"/>
<polyline class="BarLine" fill="none" stroke="#000000" stroke-width="4.46" stroke-linejoin="bevel" points="214.83,660.605 214.83,762.533"/>
<polyline class="BarLine" fill="none" stroke="#000000" stroke-width="4.46" stroke-linejoin="bevel" points="2282.75,660.605 2282.75,762.533"/>
<polyline class="BarLine" fill="none" stroke="#000000" stroke-width="13.64" stroke-linejoin="bevel" points="2300.98,660.605 2300.98,762.533"/>
<polyline class="BarLine" fill="none" stroke="#000000" stroke-width="4.46" stroke-linejoin="bevel" points="969.751,660.605 969.751,762.533"/>
<polyline class="BarLine" fill="none" stroke="#000000" stroke-width="4.46" stroke-linejoin="bevel" points="1407.42,660.605 1407.42,762.533"/>
<polyline class="BarLine" fill="none" stroke="#000000" stroke-width="4.46" stroke-linejoin="bevel" points="2063.92,660.605 2063.92,762.533"/>
<polyline class="BarLine" fill="none" stroke="#000000" stroke-width="4.46" stroke-linejoin="bevel" points="1845.08,660.605 1845.08,762.533"/>
<polyline class="BarLine" fill="none" stroke="#000000" stroke-width="4.46" stroke-linejoin="bevel" points="1626.25,660.605 1626.25,762.533"/>
<polyline class="BarLine" fill="none" stroke="#000000" stroke-width="4.46" stroke-linejoin="bevel" points="750.918,660.605 750.918,762.533"/>
<polyline class="LedgerLine" fill="none" stroke="#000000" stroke-width="3.97" stroke-linejoin="bevel" points="557.133,510.199 610.499,510.199"/>
<polyline class="LedgerLine" fill="none" stroke="#000000" stroke-width="3.97" stroke-linejoin="bevel" points="557.133,637.169 610.499,637.169"/>
<path class="Note" transform="matrix(0.992001,0,0,0.992001,1659.48,448.199)" d="M18.7031,-13.5938 C4.90625,-13.5938 0,-6.59375 0,-0.09375 C0,6.40625 4.90625,13.4063 18.7031,13.4063 C32.5,13.4063 37.2969,6.40625 37.2969,-0.09375 C37.2969,-6.59375 32.5,-13.5938 18.7031,-13.5938 M19.5,10.2031 C16.7031,10.2031 14.7969,9.40625 13.5,6.90625 C12.2031,4.40625 10.4063,-2.09375 10.2969,-4.70313 C10.0938,-7.40625 11.0938,-9 13.5,-9.79688 C14.7031,-10.2031 16.2969,-10.4063 17.9063,-10.4063 C20.5938,-10.4063 22.4063,-9.79688 23.7969,-7.09375 C25.2031,-4.5 27.1094,2 27.1094,4.5 C27.1094,9.40625 23.5,10.2031 19.5,10.2031"/>
<path class="Note" transform="matrix(0.992001,0,0,0.992001,565.317,510.199)" d="M18.7031,-13.5938 C4.90625,-13.5938 0,-6.59375 0,-0.09375 C0,6.40625 4.90625,13.4063 18.7031,13.4063 C32.5,13.4063 37.2969,6.40625 37.2969,-0.09375 C37.2969,-6.59375 32.5,-13.5938 18.7031,-13.5938 M19.5,10.2031 C16.7031,10.2031 14.7969,9.40625 13.5,6.90625 C12.2031,4.40625 10.4063,-2.09375 10.2969,-4.70313 C10.0938,-7.40625 11.0938,-9 13.5,-9.79688 C14.7031,-10.2031 16.2969,-10.4063 17.9063,-10.4063 C20.5938,-10.4063 22.4063,-9.79688 23.7969,-7.09375 C25.2031,-4.5 27.1094,2 27.1094,4.5 C27.1094,9.40625 23.5,10.2031 19.5,10.2031"/>
<path class="Note" transform="matrix(0.992001,0,0,0.992001,1221.82,472.999)" d="M18.7031,-13.5938 C4.90625,-13.5938 0,-6.59375 0,-0.09375 C0,6.40625 4.90625,13.4063 18.7031,13.4063 C32.5,13.4063 37.2969,6.40625 37.2969,-0.09375 C37.2969,-6.59375 32.5,-13.5938 18.7031,-13.5938 M19.5,10.2031 C16.7031,10.2031 14.7969,9.40625 13.5,6.90625 C12.2031,4.40625 10.4063,-2.09375 10.2969,-4.70313 C10.0938,-7.40625 11.0938,-9 13.5,-9.79688 C14.7031,-10.2031 16.2969,-10.4063 17.9063,-10.4063 C20.5938,-10.4063 22.4063,-9.79688 23.7969,-7.09375 C25.2031,-4.5 27.1094,2 27.1094,4.5 C27.1094,9.40625 23.5,10.2031 19.5,10.2031"/>
<path class="Note" transform="matrix(0.992001,0,0,0.992001,2097.15,423.399)" d="M18.7031,-13.5938 C4.90625,-13.5938 0,-6.59375 0,-0.09375 C0,6.40625 4.90625,13.4063 18.7031,13.4063 C32.5,13.4063 37.2969,6.40625 37.2969,-0.09375 C37.2969,-6.59375 32.5,-13.5938 18.7031,-13.5938 M19.5,10.2031 C16.7031,10.2031 14.7969,9.40625 13.5,6.90625 C12.2031,4.40625 10.4063,-2.09375 10.2969,-4.70313 C10.0938,-7.40625 11.0938,-9 13.5,-9.79688 C14.7031,-10.2031 16.2969,-10.4063 17.9063,-10.4063 C20.5938,-10.4063 22.4063,-9.79688 23.7969,-7.09375 C25.2031,-4.5 27.1094,2 27.1094,4.5 C27.1094,9.40625 23.5,10.2031 19.5,10.2031"/>
<path class="Note" transform="matrix(0.992001,0,0,0.992001,784.15,497.799)" d="M18.7031,-13.5938 C4.90625,-13.5938 0,-6.59375 0,-0.09375 C0,6.40625 4.90625,13.4063 18.7031,13.4063 C32.5,13.4063 37.2969,6.40625 37.2969,-0.09375 C37.2969,-6.59375 32.5,-13.5938 18.7031,-13.5938 M19.5,10.2031 C16.7031,10.2031 14.7969,9.40625 13.5,6.90625 C12.2031,4.40625 10.4063,-2.09375 10.2969,-4.70313 C10.0938,-7.40625 11.0938,-9 13.5,-9.79688 C14.7031,-10.2031 16.2969,-10.4063 17.9063,-10.4063 C20.5938,-10.4063 22.4063,-9.79688 23.7969,-7.09375 C25.2031,-4.5 27.1094,2 27.1094,4.5 C27.1094,9.40625 23.5,10.2031 19.5,10.2031"/>
<path class="Note" transform="matrix(0.992001,0,0,0.992001,1002.98,485.399)" d="M18.7031,-13.5938 C4.90625,-13.5938 0,-6.59375 0,-0.09375 C0,6.40625 4.90625,13.4063 18.7031,13.4063 C32.5,13.4063 37.2969,6.40625 37.2969,-0.09375 C37.2969,-6.59375 32.5,-13.5938 18.7031,-13.5938 M19.5,10.2031 C16.7031,10.2031 14.7969,9.40625 13.5,6.90625 C12.2031,4.40625 10.4063,-2.09375 10.2969,-4.70313 C10.0938,-7.40625 11.0938,-9 13.5,-9.79688 C14.7031,-10.2031 16.2969,-10.4063 17.9063,-10.4063 C20.5938,-10.4063 22.4063,-9.79688 23.7969,-7.09375 C25.2031,-4.5 27.1094,2 27.1094,4.5 C27.1094,9.40625 23.5,10.2031 19.5,10.2031"/>
<path class="Note" transform="matrix(0.992001,0,0,0.992001,1878.32,435.799)" d="M18.7031,-13.5938 C4.90625,-13.5938 0,-6.59375 0,-0.09375 C0,6.40625 4.90625,13.4063 18.7031,13.4063 C32.5,13.4063 37.2969,6.40625 37.2969,-0.09375 C37.2969,-6.59375 32.5,-13.5938 18.7031,-13.5938 M19.5,10.2031 C16.7031,10.2031 14.7969,9.40625 13.5,6.90625 C12.2031,4.40625 10.4063,-2.09375 10.2969,-4.70313 C10.0938,-7.40625 11.0938,-9 13.5,-9.79688 C14.7031,-10.2031 16.2969,-10.4063 17.9063,-10.4063 C20.5938,-10.4063 22.4063,-9.79688 23.7969,-7.09375 C25.2031,-4.5 27.1094,2 27.1094,4.5 C27.1094,9.40625 23.5,10.2031 19.5,10.2031"/>
<path class="Note" transform="matrix(0.992001,0,0,0.992001,1440.65,460.599)" d="M18.7031,-13.5938 C4.90625,-13.5938 0,-6.59375 0,-0.09375 C0,6.40625 4.90625,13.4063 18.7031,13.4063 C32.5,13.4063 37.2969,6.40625 37.2969,-0.09375 C37.2969,-6.59375 32.5,-13.5938 18.7031,-13.5938 M19.5,10.2031 C16.7031,10.2031 14.7969,9.40625 13.5,6.90625 C12.2031,4.40625 10.4063,-2.09375 10.2969,-4.70313 C10.0938,-7.40625 11.0938,-9 13.5,-9.79688 C14.7031,-10.2031 16.2969,-10.4063 17.9063,-10.4063 C20.5938,-10.4063 22.4063,-9.79688 23.7969,-7.09375 C25.2031,-4.5 27.1094,2 27.1094,4.5 C27.1094,9.40625 23.5,10.2031 19.5,10.2031"/>
<path class="Note" transform="matrix(0.992001,0,0,0.992001,1002.98,661.969)" d="M18.7031,-13.5938 C4.90625,-13.5938 0,-6.59375 0,-0.09375 C0,6.40625 4.90625,13.4063 18.7031,13.4063 C32.5,13.4063 37.2969,6.40625 37.2969,-0.09375 C37.2969,-6.59375 32.5,-13.5938 18.7031,-13.5938 M19.5,10.2031 C16.7031,10.2031 14.7969,9.40625 13.5,6.90625 C12.2031,4.40625 10.4063,-2.09375 10.2969,-4.70313 C10.0938,-7.40625 11.0938,-9 13.5,-9.79688 C14.7031,-10.2031 16.2969,-10.4063 17.9063,-10.4063 C20.5938,-10.4063 22.4063,-9.79688 23.7969,-7.09375 C25.2031,-4.5 27.1094,2 27.1094,4.5 C27.1094,9.40625 23.5,10.2031 19.5,10.2031"/>
<path class="Note" transform="matrix(0.992001,0,0,0.992001,1878.32,711.569)" d="M18.7031,-13.5938 C4.90625,-13.5938 0,-6.59375 0,-0.09375 C0,6.40625 4.90625,13.4063 18.7031,13.4063 C32.5,13.4063 37.2969,6.40625 37.2969,-0.09375 C37.2969,-6.59375 32.5,-13.5938 18.7031,-13.5938 M19.5,10.2031 C16.7031,10.2031 14.7969,9.40625 13.5,6.90625 C12.2031,4.40625 10.4063,-2.09375 10.2969,-4.70313 C10.0938,-7.40625 11.0938,-9 13.5,-9.79688 C14.7031,-10.2031 16.2969,-10.4063 17.9063,-10.4063 C20.5938,-10.4063 22.4063,-9.79688 23.7969,-7.09375 C25.2031,-4.5 27.1094,2 27.1094,4.5 C27.1094,9.40625 23.5,10.2031 19.5,10.2031"/>
<path class="Note" transform="matrix(0.992001,0,0,0.992001,2097.15,723.969)" d="M18.7031,-13.5938 C4.90625,-13.5938 0,-6.59375 0,-0.09375 C0,6.40625 4.90625,13.4063 18.7031,13.4063 C32.5,13.4063 37.2969,6.40625 37.2969,-0.09375 C37.2969,-6.59375 32.5,-13.5938 18.7031,-13.5938 M19.5,10.2031 C16.7031,10.2031 14.7969,9.40625 13.5,6.90625 C12.2031,4.40625 10.4063,-2.09375 10.2969,-4.70313 C10.0938,-7.40625 11.0938,-9 13.5,-9.79688 C14.7031,-10.2031 16.2969,-10.4063 17.9063,-10.4063 C20.5938,-10.4063 22.4063,-9.79688 23.7969,-7.09375 C25.2031,-4.5 27.1094,2 27.1094,4.5 C27.1094,9.40625 23.5,10.2031 19.5,10.2031"/>
<path class="Note" transform="matrix(0.992001,0,0,0.992001,784.15,649.569)" d="M18.7031,-13.5938 C4.90625,-13.5938 0,-6.59375 0,-0.09375 C0,6.40625 4.90625,13.4063 18.7031,13.4063 C32.5,13.4063 37.2969,6.40625 37.2969,-0.09375 C37.2969,-6.59375 32.5,-13.5938 18.7031,-13.5938 M19.5,10.2031 C16.7031,10.2031 14.7969,9.40625 13.5,6.90625 C12.2031,4.40625 10.4063,-2.09375 10.2969,-4.70313 C10.0938,-7.40625 11.0938,-9 13.5,-9.79688 C14.7031,-10.2031 16.2969,-10.4063 17.9063,-10.4063 C20.5938,-10.4063 22.4063,-9.79688 23.7969,-7.09375 C25.2031,-4.5 27.1094,2 27.1094,4.5 C27.1094,9.40625 23.5,10.2031 19.5,10.2031"/>
<path class="Note" transform="matrix(0.992001,0,0,0.992001,565.317,637.169)" d="M18.7031,-13.5938 C4.90625,-13.5938 0,-6.59375 0,-0.09375 C0,6.40625 4.90625,13.4063 18.7031,13.4063 C32.5,13.4063 37.2969,6.40625 37.2969,-0.09375 C37.2969,-6.59375 32.5,-13.5938 18.7031,-13.5938 M19.5,10.2031 C16.7031,10.2031 14.7969,9.40625 13.5,6.90625 C12.2031,4.40625 10.4063,-2.09375 10.2969,-4.70313 C10.0938,-7.40625 11.0938,-9 13.5,-9.79688 C14.7031,-10.2031 16.2969,-10.4063 17.9063,-10.4063 C20.5938,-10.4063 22.4063,-9.79688 23.7969,-7.09375 C25.2031,-4.5 27.1094,2 27.1094,4.5 C27.1094,9.40625 23.5,10.2031 19.5,10.2031"/>
<path class="Note" transform="matrix(0.992001,0,0,0.992001,1440.65,686.769)" d="M18.7031,-13.5938 C4.90625,-13.5938 0,-6.59375 0,-0.09375 C0,6.40625 4.90625,13.4063 18.7031,13.4063 C32.5,13.4063 37.2969,6.40625 37.2969,-0.09375 C37.2969,-6.59375 32.5,-13.5938 18.7031,-13.5938 M19.5,10.2031 C16.7031,10.2031 14.7969,9.40625 13.5,6.90625 C12.2031,4.40625 10.4063,-2.09375 10.2969,-4.70313 C10.0938,-7.40625 11.0938,-9 13.5,-9.79688 C14.7031,-10.2031 16.2969,-10.4063 17.9063,-10.4063 C20.5938,-10.4063 22.4063,-9.79688 23.7969,-7.09375 C25.2031,-4.5 27.1094,2 27.1094,4.5 C27.1094,9.40625 23.5,10.2031 19.5,10.2031"/>
<path class="Note" transform="matrix(0.992001,0,0,0.992001,1221.82,674.369)" d="M18.7031,-13.5938 C4.90625,-13.5938 0,-6.59375 0,-0.09375 C0,6.40625 4.90625,13.4063 18.7031,13.4063 C32.5,13.4063 37.2969,6.40625 37.2969,-0.09375 C37.2969,-6.59375 32.5,-13.5938 18.7031,-13.5938 M19.5,10.2031 C16.7031,10.2031 14.7969,9.40625 13.5,6.90625 C12.2031,4.40625 10.4063,-2.09375 10.2969,-4.70313 C10.0938,-7.40625 11.0938,-9 13.5,-9.79688 C14.7031,-10.2031 16.2969,-10.4063 17.9063,-10.4063 C20.5938,-10.4063 22.4063,-9.79688 23.7969,-7.09375 C25.2031,-4.5 27.1094,2 27.1094,4.5 C27.1094,9.40625 23.5,10.2031 19.5,10.2031"/>
<path class="Note" transform="matrix(0.992001,0,0,0.992001,1659.48,699.169)" d="M18.7031,-13.5938 C4.90625,-13.5938 0,-6.59375 0,-0.09375 C0,6.40625 4.90625,13.4063 18.7031,13.4063 C32.5,13.4063 37.2969,6.40625 37.2969,-0.09375 C37.2969,-6.59375 32.5,-13.5938 18.7031,-13.5938 M19.5,10.2031 C16.7031,10.2031 14.7969,9.40625 13.5,6.90625 C12.2031,4.40625 10.4063,-2.09375 10.2969,-4.70313 C10.0938,-7.40625 11.0938,-9 13.5,-9.79688 C14.7031,-10.2031 16.2969,-10.4063 17.9063,-10.4063 C20.5938,-10.4063 22.4063,-9.79688 23.7969,-7.09375 C25.2031,-4.5 27.1094,2 27.1094,4.5 C27.1094,9.40625 23.5,10.2031 19.5,10.2031"/>
<path class="Clef" transform="matrix(0.992001,0,0,0.992001,235.662,460.599)" d="M12.2969,51.2969 C12.2969,57.9063 17.2969,66.6094 30.7969,66.6094 C35.5,66.6094 39.6094,65.4063 43.2031,63.2031 C48.6094,59.4063 50,52.7969 50,46.5 C50,42.6094 49.4063,38.1094 48.4063,32.4063 C48.1094,30.4063 47.5,27.4063 46.9063,23.5 C56.7031,20.2969 64,10.0938 64,-0.203125 C64,-15.2969 53.2969,-25.5 38.7031,-25.5 C37.7031,-31.5 36.7031,-37.4063 35.9063,-43 C46.4063,-54.1094 53.7031,-66.6094 53.7031,-82.5 C53.7031,-91.6094 50.9063,-99 49.2969,-102.609 C46.9063,-107.703 44,-111.203 42.2031,-111.203 C41.5,-111.203 38.4063,-110 35.1094,-106.109 C28.7031,-98.5 26.9063,-85.7031 26.9063,-77.3125 C26.9063,-71.9063 27.4063,-67 29.1094,-55.7969 C29,-55.7031 23.7969,-50.4063 21.7031,-48.7031 C12.5938,-40.2969 0,-28.1094 0,-8.09375 C0,10.5938 16.2969,25.2969 34.9063,25.2969 C37.7969,25.2969 40.5,25 42.7969,24.5938 C44.7031,34.2031 45.9063,41.2031 45.9063,46.5 C45.9063,56.9063 40.5,62.4063 30.4063,62.4063 C28,62.4063 25.9063,61.9063 25.7031,61.9063 C25.6094,61.7969 25.4063,61.7031 25.4063,61.6094 C25.4063,61.4063 25.6094,61.2969 25.9063,61.2969 C30.6094,60.5 35.2969,56.5 35.2969,50.1094 C35.2969,44.7031 31.2031,39 23.7031,39 C16.7031,39 12.2969,44.7031 12.2969,51.2969 M33.2031,-82.2031 C34.1094,-86.2031 38.7031,-96.7031 43.9063,-96.7031 C45.4063,-96.7031 47.7969,-91.9063 47.7969,-84.9063 C47.7969,-74.5 40.1094,-66.7031 33.2031,-59.9063 C32.6094,-63.9063 32.1094,-67.7969 32.1094,-72 C32.1094,-75.7031 32.4063,-79.1094 33.2031,-82.2031 M42,20.5938 C40,21 38.1094,21.2031 36.2031,21.2031 C21.9063,21.2031 9.70313,11.2031 9.70313,-3.90625 C9.70313,-16.0938 18.2969,-27 27.1094,-34.6094 C28.7969,-36.1094 30.4063,-37.5 31.9063,-39 C32.7969,-33.6094 33.5,-28.9063 34.2031,-24.7969 C25.0938,-22.0938 18.9063,-12.5 18.9063,-3.09375 C18.9063,3.90625 24.4063,13.5 32.4063,13.5 C33.2031,13.5 34.1094,13.0938 34.1094,12.2031 C34.1094,11.2969 33.1094,10.7969 31.9063,10 C28,7.59375 25.7969,5 25.7969,0.09375 C25.7969,-6 30.4063,-10.9063 36.2031,-12.2969 L42,20.5938 M56.2031,2.09375 C56.2031,9.20313 53.2969,16.5 46.2031,19.4063 C44.1094,7.40625 41.4063,-8.5 40.7031,-12.9063 C49.7031,-12.9063 56.2031,-6.79688 56.2031,2.09375"/>
<path class="Clef" transform="matrix(0.992001,0,0,0.992001,235.662,686.769)" d="M25.4063,-25.0938 C17.7969,-25.0938 11.7031,-20.7031 11.5938,-20.7031 C5.70313,-16.4063 1.90625,-9.79688 1.90625,-2.5 C1.90625,4.79688 6.09375,10.2031 13.5,10.2031 C19.9063,10.2031 24.9063,5.90625 24.9063,-0.703125 C24.9063,-6.40625 19.9063,-11.0938 14.2969,-11.0938 C13.0938,-11.0938 12,-10.9063 11.0938,-10.5938 C10.0938,-10.2031 8.40625,-9.20313 7.59375,-8.5 C8.29688,-12.9063 11.2969,-17.2969 15.2031,-19.4063 C17.7031,-20.7969 20.9063,-21.4063 24.4063,-21.4063 C34.6094,-21.4063 39.6094,-13.2031 39.6094,3.59375 C39.6094,16.5938 31.2969,35.2969 21.5,44.1094 C11.0938,53.6094 1.29688,58.1094 1.20313,58.1094 C1.20313,58.1094 0,58.7969 0,60 C0,60.2031 0.09375,60.2969 0.09375,60.5 C0.40625,61.5 1.29688,61.7031 2,61.7031 L2.29688,61.6094 C2.5,61.6094 13.9063,56.9063 23,49.7969 C37,39.7031 52.7969,21.9063 52.7969,3.5 C52.7969,-13.9063 43.4063,-25.0938 25.4063,-25.0938 M56.7969,-12.4063 C56.7969,-9.59375 59,-7.40625 61.6094,-7.40625 C64.2031,-7.40625 66.4063,-9.59375 66.4063,-12.4063 C66.4063,-15.2031 64.2031,-17.5 61.6094,-17.5 C59,-17.5 56.7969,-15.2031 56.7969,-12.4063 M56.7969,12.2969 C56.7969,15.0938 59,17.4063 61.6094,17.4063 C64.2031,17.4063 66.4063,15.0938 66.4063,12.2969 C66.4063,9.5 64.2031,7.20313 61.6094,7.20313 C59,7.20313 56.7969,9.5 56.7969,12.2969"/>
<path class="KeySig" transform="matrix(0.992001,0,0,0.992001,320.122,435.799)" d="M12,-15.5 C7,-15.5 4.09375,-12.4063 3.59375,-11.7969 L4,-43.9063 C4,-44.7031 3.40625,-45.2969 2.59375,-45.2969 L1.40625,-45.2969 C0.59375,-45.2969 0,-44.7031 0,-43.9063 L0.5,16.2031 C0.5,17 1.09375,17.5938 1.90625,17.5938 C2.09375,17.5938 2.5,17.5 2.70313,17.4063 C11.2969,13.0938 20.2969,4.90625 20.2969,-5.40625 C20.2969,-10.5938 17.9063,-15.5 12,-15.5 M3.29688,12.7031 L3.59375,-6.79688 C3.79688,-7.70313 5.29688,-10.5938 9.29688,-10.5938 C12.9063,-10.5938 13.2031,-7.20313 13.2031,-5.09375 C13.2031,3.79688 9.90625,7.5 3.29688,12.7031"/>
<path class="KeySig" transform="matrix(0.992001,0,0,0.992001,347.697,398.599)" d="M12,-15.5 C7,-15.5 4.09375,-12.4063 3.59375,-11.7969 L4,-43.9063 C4,-44.7031 3.40625,-45.2969 2.59375,-45.2969 L1.40625,-45.2969 C0.59375,-45.2969 0,-44.7031 0,-43.9063 L0.5,16.2031 C0.5,17 1.09375,17.5938 1.90625,17.5938 C2.09375,17.5938 2.5,17.5 2.70313,17.4063 C11.2969,13.0938 20.2969,4.90625 20.2969,-5.40625 C20.2969,-10.5938 17.9063,-15.5 12,-15.5 M3.29688,12.7031 L3.59375,-6.79688 C3.79688,-7.70313 5.29688,-10.5938 9.29688,-10.5938 C12.9063,-10.5938 13.2031,-7.20313 13.2031,-5.09375 C13.2031,3.79688 9.90625,7.5 3.29688,12.7031"/>
<path class="KeySig" transform="matrix(0.992001,0,0,0.992001,375.271,448.199)" d="M12,-15.5 C7,-15.5 4.09375,-12.4063 3.59375,-11.7969 L4,-43.9063 C4,-44.7031 3.40625,-45.2969 2.59375,-45.2969 L1.40625,-45.2969 C0.59375,-45.2969 0,-44.7031 0,-43.9063 L0.5,16.2031 C0.5,17 1.09375,17.5938 1.90625,17.5938 C2.09375,17.5938 2.5,17.5 2.70313,17.4063 C11.2969,13.0938 20.2969,4.90625 20.2969,-5.40625 C20.2969,-10.5938 17.9063,-15.5 12,-15.5 M3.29688,12.7031 L3.59375,-6.79688 C3.79688,-7.70313 5.29688,-10.5938 9.29688,-10.5938 C12.9063,-10.5938 13.2031,-7.20313 13.2031,-5.09375 C13.2031,3.79688 9.90625,7.5 3.29688,12.7031"/>
<path class="KeySig" transform="matrix(0.992001,0,0,0.992001,402.846,410.999)" d="M12,-15.5 C7,-15.5 4.09375,-12.4063 3.59375,-11.7969 L4,-43.9063 C4,-44.7031 3.40625,-45.2969 2.59375,-45.2969 L1.40625,-45.2969 C0.59375,-45.2969 0,-44.7031 0,-43.9063 L0.5,16.2031 C0.5,17 1.09375,17.5938 1.90625,17.5938 C2.09375,17.5938 2.5,17.5 2.70313,17.4063 C11.2969,13.0938 20.2969,4.90625 20.2969,-5.40625 C20.2969,-10.5938 17.9063,-15.5 12,-15.5 M3.29688,12.7031 L3.59375,-6.79688 C3.79688,-7.70313 5.29688,-10.5938 9.29688,-10.5938 C12.9063,-10.5938 13.2031,-7.20313 13.2031,-5.09375 C13.2031,3.79688 9.90625,7.5 3.29688,12.7031"/>
<path class="KeySig" transform="matrix(0.992001,0,0,0.992001,430.42,460.599)" d="M12,-15.5 C7,-15.5 4.09375,-12.4063 3.59375,-11.7969 L4,-43.9063 C4,-44.7031 3.40625,-45.2969 2.59375,-45.2969 L1.40625,-45.2969 C0.59375,-45.2969 0,-44.7031 0,-43.9063 L0.5,16.2031 C0.5,17 1.09375,17.5938 1.90625,17.5938 C2.09375,17.5938 2.5,17.5 2.70313,17.4063 C11.2969,13.0938 20.2969,4.90625 20.2969,-5.40625 C20.2969,-10.5938 17.9063,-15.5 12,-15.5 M3.29688,12.7031 L3.59375,-6.79688 C3.79688,-7.70313 5.29688,-10.5938 9.29688,-10.5938 C12.9063,-10.5938 13.2031,-7.20313 13.2031,-5.09375 C13.2031,3.79688 9.90625,7.5 3.29688,12.7031"/>
<path class="KeySig" transform="matrix(0.992001,0,0,0.992001,457.995,423.399)" d="M12,-15.5 C7,-15.5 4.09375,-12.4063 3.59375,-11.7969 L4,-43.9063 C4,-44.7031 3.40625,-45.2969 2.59375,-45.2969 L1.40625,-45.2969 C0.59375,-45.2969 0,-44.7031 0,-43.9063 L0.5,16.2031 C0.5,17 1.09375,17.5938 1.90625,17.5938 C2.09375,17.5938 2.5,17.5 2.70313,17.4063 C11.2969,13.0938 20.2969,4.90625 20.2969,-5.40625 C20.2969,-10.5938 17.9063,-15.5 12,-15.5 M3.29688,12.7031 L3.59375,-6.79688 C3.79688,-7.70313 5.29688,-10.5938 9.29688,-10.5938 C12.9063,-10.5938 13.2031,-7.20313 13.2031,-5.09375 C13.2031,3.79688 9.90625,7.5 3.29688,12.7031"/>
<path class="KeySig" transform="matrix(0.992001,0,0,0.992001,485.554,472.999)" d="M12,-15.5 C7,-15.5 4.09375,-12.4063 3.59375,-11.7969 L4,-43.9063 C4,-44.7031 3.40625,-45.2969 2.59375,-45.2969 L1.40625,-45.2969 C0.59375,-45.2969 0,-44.7031 0,-43.9063 L0.5,16.2031 C0.5,17 1.09375,17.5938 1.90625,17.5938 C2.09375,17.5938 2.5,17.5 2.70313,17.4063 C11.2969,13.0938 20.2969,4.90625 20.2969,-5.40625 C20.2969,-10.5938 17.9063,-15.5 12,-15.5 M3.29688,12.7031 L3.59375,-6.79688 C3.79688,-7.70313 5.29688,-10.5938 9.29688,-10.5938 C12.9063,-10.5938 13.2031,-7.20313 13.2031,-5.09375 C13.2031,3.79688 9.90625,7.5 3.29688,12.7031"/>
<path class="KeySig" transform="matrix(0.992001,0,0,0.992001,320.122,736.369)" d="M12,-15.5 C7,-15.5 4.09375,-12.4063 3.59375,-11.7969 L4,-43.9063 C4,-44.7031 3.40625,-45.2969 2.59375,-45.2969 L1.40625,-45.2969 C0.59375,-45.2969 0,-44.7031 0,-43.9063 L0.5,16.2031 C0.5,17 1.09375,17.5938 1.90625,17.5938 C2.09375,17.5938 2.5,17.5 2.70313,17.4063 C11.2969,13.0938 20.2969,4.90625 20.2969,-5.40625 C20.2969,-10.5938 17.9063,-15.5 12,-15.5 M3.29688,12.7031 L3.59375,-6.79688 C3.79688,-7.70313 5.29688,-10.5938 9.29688,-10.5938 C12.9063,-10.5938 13.2031,-7.20313 13.2031,-5.09375 C13.2031,3.79688 9.90625,7.5 3.29688,12.7031"/>
<path class="KeySig" transform="matrix(0.992001,0,0,0.992001,347.697,699.169)" d="M12,-15.5 C7,-15.5 4.09375,-12.4063 3.59375,-11.7969 L4,-43.9063 C4,-44.7031 3.40625,-45.2969 2.59375,-45.2969 L1.40625,-45.2969 C0.59375,-45.2969 0,-44.7031 0,-43.9063 L0.5,16.2031 C0.5,17 1.09375,17.5938 1.90625,17.5938 C2.09375,17.5938 2.5,17.5 2.70313,17.4063 C11.2969,13.0938 20.2969,4.90625 20.2969,-5.40625 C20.2969,-10.5938 17.9063,-15.5 12,-15.5 M3.29688,12.7031 L3.59375,-6.79688 C3.79688,-7.70313 5.29688,-10.5938 9.29688,-10.5938 C12.9063,-10.5938 13.2031,-7.20313 13.2031,-5.09375 C13.2031,3.79688 9.90625,7.5 3.29688,12.7031"/>
<path class="KeySig" transform="matrix(0.992001,0,0,0.992001,375.271,748.769)" d="M12,-15.5 C7,-15.5 4.09375,-12.4063 3.59375,-11.7969 L4,-43.9063 C4,-44.7031 3.40625,-45.2969 2.59375,-45.2969 L1.40625,-45.2969 C0.59375,-45.2969 0,-44.7031 0,-43.9063 L0.5,16.2031 C0.5,17 1.09375,17.5938 1.90625,17.5938 C2.09375,17.5938 2.5,17.5 2.70313,17.4063 C11.2969,13.0938 20.2969,4.90625 20.2969,-5.40625 C20.2969,-10.5938 17.9063,-15.5 12,-15.5 M3.29688,12.7031 L3.59375,-6.79688 C3.79688,-7.70313 5.29688,-10.5938 9.29688,-10.5938 C12.9063,-10.5938 13.2031,-7.20313 13.2031,-5.09375 C13.2031,3.79688 9.90625,7.5 3.29688,12.7031"/>
<path class="KeySig" transform="matrix(0.992001,0,0,0.992001,402.846,711.569)" d="M12,-15.5 C7,-15.5 4.09375,-12.4063 3.59375,-11.7969 L4,-43.9063 C4,-44.7031 3.40625,-45.2969 2.59375,-45.2969 L1.40625,-45.2969 C0.59375,-45.2969 0,-44.7031 0,-43.9063 L0.5,16.2031 C0.5,17 1.09375,17.5938 1.90625,17.5938 C2.09375,17.5938 2.5,17.5 2.70313,17.4063 C11.2969,13.0938 20.2969,4.90625 20.2969,-5.40625 C20.2969,-10.5938 17.9063,-15.5 12,-15.5 M3.29688,12.7031 L3.59375,-6.79688 C3.79688,-7.70313 5.29688,-10.5938 9.29688,-10.5938 C12.9063,-10.5938 13.2031,-7.20313 13.2031,-5.09375 C13.2031,3.79688 9.90625,7.5 3.29688,12.7031"/>
<path class="KeySig" transform="matrix(0.992001,0,0,0.992001,430.42,761.169)" d="M12,-15.5 C7,-15.5 4.09375,-12.4063 3.59375,-11.7969 L4,-43.9063 C4,-44.7031 3.40625,-45.2969 2.59375,-45.2969 L1.40625,-45.2969 C0.59375,-45.2969 0,-44.7031 0,-43.9063 L0.5,16.2031 C0.5,17 1.09375,17.5938 1.90625,17.5938 C2.09375,17.5938 2.5,17.5 2.70313,17.4063 C11.2969,13.0938 20.2969,4.90625 20.2969,-5.40625 C20.2969,-10.5938 17.9063,-15.5 12,-15.5 M3.29688,12.7031 L3.59375,-6.79688 C3.79688,-7.70313 5.29688,-10.5938 9.29688,-10.5938 C12.9063,-10.5938 13.2031,-7.20313 13.2031,-5.09375 C13.2031,3.79688 9.90625,7.5 3.29688,12.7031"/>
<path class="KeySig" transform="matrix(0.992001,0,0,0.992001,457.995,723.969)" d="M12,-15.5 C7,-15.5 4.09375,-12.4063 3.59375,-11.7969 L4,-43.9063 C4,-44.7031 3.40625,-45.2969 2.59375,-45.2969 L1.40625,-45.2969 C0.59375,-45.2969 0,-44.7031 0,-43.9063 L0.5,16.2031 C0.5,17 1.09375,17.5938 1.90625,17.5938 C2.09375,17.5938 2.5,17.5 2.70313,17.4063 C11.2969,13.0938 20.2969,4.90625 20.2969,-5.40625 C20.2969,-10.5938 17.9063,-15.5 12,-15.5 M3.29688,12.7031 L3.59375,-6.79688 C3.79688,-7.70313 5.29688,-10.5938 9.29688,-10.5938 C12.9063,-10.5938 13.2031,-7.20313 13.2031,-5.09375 C13.2031,3.79688 9.90625,7.5 3.29688,12.7031"/>
<path class="KeySig" transform="matrix(0.992001,0,0,0.992001,485.554,773.569)" d="M12,-15.5 C7,-15.5 4.09375,-12.4063 3.59375,-11.7969 L4,-43.9063 C4,-44.7031 3.40625,-45.2969 2.59375,-45.2969 L1.40625,-45.2969 C0.59375,-45.2969 0,-44.7031 0,-43.9063 L0.5,16.2031 C0.5,17 1.09375,17.5938 1.90625,17.5938 C2.09375,17.5938 2.5,17.5 2.70313,17.4063 C11.2969,13.0938 20.2969,4.90625 20.2969,-5.40625 C20.2969,-10.5938 17.9063,-15.5 12,-15.5 M3.29688,12.7031 L3.59375,-6.79688 C3.79688,-7.70313 5.29688,-10.5938 9.29688,-10.5938 C12.9063,-10.5938 13.2031,-7.20313 13.2031,-5.09375 C13.2031,3.79688 9.90625,7.5 3.29688,12.7031"/>
<path class="Lyrics" d="M1446.15,561.547 L1444.4,561.547 L1442.95,563.344 C1441.15,561.938 1439.35,561.344 1436.85,561.344 C1432.45,561.344 1429.56,564.188 1429.56,568.594 C1429.56,573.297 1432.6,574.485 1436.6,575.438 L1439.24,576.047 C1443.2,576.985 1444.6,577.985 1444.6,579.985 C1444.6,582.344 1442.56,583.985 1439.65,583.985 C1435.4,583.985 1432.4,581.297 1431.2,576.297 L1429.2,576.297 L1429.2,585.735 L1430.95,585.735 L1432.7,583.688 C1434.74,585.344 1436.99,586.141 1439.56,586.141 C1444.45,586.141 1447.7,583.094 1447.7,578.438 C1447.7,576.235 1446.99,574.547 1445.6,573.391 C1444.4,572.344 1443.4,571.938 1440.35,571.297 L1437.85,570.735 C1435.1,570.141 1435.1,570.141 1434.2,569.641 C1433.1,569.141 1432.45,568.094 1432.45,566.985 C1432.45,564.938 1434.35,563.547 1437.1,563.547 C1441.2,563.547 1443.2,566.438 1444.4,569.938 L1446.15,569.938 L1446.15,561.547 M1462.24,561.344 C1456.1,561.344 1451.35,566.797 1451.35,573.797 C1451.35,580.641 1456.15,586.141 1462.15,586.141 C1468.15,586.141 1472.95,580.641 1472.95,573.735 C1472.95,566.891 1468.15,561.344 1462.24,561.344 M1462.24,563.485 C1465.74,563.485 1467.7,567.141 1467.7,573.735 C1467.7,580.391 1465.74,583.985 1462.15,583.985 C1458.56,583.985 1456.6,580.391 1456.6,573.797 C1456.6,566.985 1458.49,563.485 1462.24,563.485 M1484.85,548.531 L1475.6,549.094 L1475.6,551.235 L1478.06,551.235 C1479.9,551.281 1480.15,551.594 1480.15,553.735 L1480.15,581.594 C1480.1,582.344 1480.06,582.641 1479.85,582.891 C1479.49,583.344 1478.56,583.547 1476.4,583.594 L1476.06,583.594 L1476.06,585.391 L1488.99,585.391 L1488.99,583.594 L1488.65,583.594 C1485.31,583.485 1484.85,583.235 1484.85,581.438 L1484.85,548.531 "/>
<path class="Lyrics" d="M1896.32,561.547 L1894.57,561.547 L1893.11,563.344 C1891.32,561.938 1889.52,561.344 1887.02,561.344 C1882.61,561.344 1879.72,564.188 1879.72,568.594 C1879.72,573.297 1882.77,574.485 1886.77,575.438 L1889.41,576.047 C1893.36,576.985 1894.77,577.985 1894.77,579.985 C1894.77,582.344 1892.72,583.985 1889.82,583.985 C1885.57,583.985 1882.57,581.297 1881.36,576.297 L1879.36,576.297 L1879.36,585.735 L1881.11,585.735 L1882.86,583.688 C1884.91,585.344 1887.16,586.141 1889.72,586.141 C1894.61,586.141 1897.86,583.094 1897.86,578.438 C1897.86,576.235 1897.16,574.547 1895.77,573.391 C1894.57,572.344 1893.57,571.938 1890.52,571.297 L1888.02,570.735 C1885.27,570.141 1885.27,570.141 1884.36,569.641 C1883.27,569.141 1882.61,568.094 1882.61,566.985 C1882.61,564.938 1884.52,563.547 1887.27,563.547 C1891.36,563.547 1893.36,566.438 1894.57,569.938 L1896.32,569.938 L1896.32,561.547 M1907.77,549.641 C1906.16,549.641 1904.86,550.938 1904.86,552.531 C1904.86,554.141 1906.16,555.438 1907.72,555.438 C1909.36,555.438 1910.66,554.141 1910.66,552.531 C1910.66,550.938 1909.36,549.641 1907.77,549.641 M1910.11,562.094 L1900.72,562.641 L1900.72,564.797 L1903.27,564.797 C1905.16,564.844 1905.41,565.141 1905.41,567.297 L1905.41,581.594 C1905.36,582.344 1905.32,582.641 1905.11,582.891 C1904.77,583.344 1903.82,583.547 1901.66,583.594 L1901.32,583.594 L1901.32,585.391 L1914.27,585.391 L1914.27,583.594 L1913.91,583.594 C1910.57,583.485 1910.11,583.235 1910.11,581.438 L1910.11,562.094 "/>
<path class="Lyrics" d="M1227.86,562.094 L1227.86,559.235 C1227.86,556.735 1228.02,555.094 1228.41,554.094 C1229.22,551.891 1230.97,550.531 1232.97,550.531 C1234.02,550.531 1234.66,550.844 1234.66,551.391 C1234.66,551.594 1234.66,551.641 1234.36,552.031 C1234.07,552.485 1233.91,553.094 1233.91,553.641 C1233.91,555.141 1235.11,556.281 1236.66,556.281 C1238.32,556.281 1239.47,555.031 1239.47,553.235 C1239.47,550.344 1236.97,548.531 1232.91,548.531 C1229.47,548.531 1226.91,549.735 1225.16,552.235 C1223.66,554.344 1223.16,556.485 1223.16,560.547 L1223.16,562.094 L1218.77,562.094 L1218.77,564.235 L1223.16,564.235 L1223.16,581.594 C1223.11,582.297 1223.07,582.594 1222.86,582.891 C1222.52,583.344 1221.57,583.547 1219.41,583.594 L1219.22,583.594 L1219.22,585.391 L1232.57,585.391 L1232.57,583.594 L1231.66,583.594 C1228.32,583.485 1227.86,583.235 1227.86,581.438 L1227.86,564.235 L1233.36,564.235 L1233.36,562.094 L1227.86,562.094 M1256.41,569.297 C1256.41,566.141 1255.86,564.547 1254.41,563.344 C1252.77,561.985 1250.32,561.344 1247.11,561.344 C1241.47,561.344 1237.36,563.985 1237.36,567.641 C1237.36,569.485 1238.52,570.688 1240.27,570.688 C1241.86,570.688 1242.97,569.641 1242.97,568.141 C1242.97,567.485 1242.72,566.797 1242.22,566.094 C1241.91,565.735 1241.86,565.641 1241.86,565.391 C1241.86,564.391 1243.86,563.485 1246.27,563.485 C1247.86,563.485 1249.61,563.985 1250.41,564.735 C1251.36,565.547 1251.72,566.735 1251.72,568.985 L1251.72,570.938 C1246.52,571.844 1244.86,572.235 1242.41,573.188 C1238.07,574.797 1236.02,577.094 1236.02,580.297 C1236.02,583.891 1238.82,586.141 1243.27,586.141 C1246.72,586.141 1249.82,584.735 1251.97,582.188 C1252.77,584.735 1254.02,585.735 1256.36,585.735 C1258.61,585.735 1260.97,584.297 1260.97,582.844 C1260.97,582.485 1260.77,582.235 1260.47,582.235 C1260.27,582.235 1260.07,582.297 1259.72,582.438 C1259.02,582.735 1258.72,582.797 1258.32,582.797 C1256.91,582.797 1256.41,581.891 1256.41,579.344 L1256.41,569.297 M1251.72,575.391 C1251.72,578.391 1251.57,579.094 1250.72,580.391 C1249.47,582.235 1247.22,583.485 1245.02,583.485 C1242.72,583.485 1241.07,581.844 1241.07,579.594 C1241.07,577.485 1242.11,575.985 1244.32,574.938 C1245.86,574.235 1247.82,573.735 1251.72,573.094 L1251.72,575.391 "/>
<path class="Lyrics" d="M2107.15,585.735 L2115.85,585.391 L2115.85,583.235 L2114.95,583.235 C2112.1,583.094 2111.85,582.797 2111.85,579.594 L2111.85,548.531 L2102.05,549.094 L2102.05,551.235 L2104.99,551.235 C2106.9,551.281 2107.15,551.594 2107.15,553.735 L2107.15,565.047 C2105.3,562.485 2103.15,561.344 2100.24,561.344 C2094.6,561.344 2090.3,566.797 2090.3,573.985 C2090.3,581.094 2094.45,586.141 2100.24,586.141 C2103.4,586.141 2105.55,584.797 2107.15,581.797 L2107.15,585.735 M2101.24,564.047 C2103.3,564.047 2105.24,565.547 2106.15,567.844 C2106.8,569.344 2107.1,571.391 2107.1,573.844 C2107.1,579.688 2104.8,583.438 2101.2,583.438 C2097.65,583.438 2095.55,580.141 2095.55,574.594 C2095.55,571.594 2095.85,569.344 2096.49,567.688 C2097.35,565.438 2099.2,564.047 2101.24,564.047 M2129.74,561.344 C2123.6,561.344 2118.85,566.797 2118.85,573.797 C2118.85,580.641 2123.65,586.141 2129.65,586.141 C2135.65,586.141 2140.45,580.641 2140.45,573.735 C2140.45,566.891 2135.65,561.344 2129.74,561.344 M2129.74,563.485 C2133.24,563.485 2135.2,567.141 2135.2,573.735 C2135.2,580.391 2133.24,583.985 2129.65,583.985 C2126.05,583.985 2124.1,580.391 2124.1,573.797 C2124.1,566.985 2125.99,563.485 2129.74,563.485"/>
<path class="Lyrics" d="M789.056,562.094 L780.196,562.641 L780.196,564.797 L782.243,564.797 C784.149,564.844 784.399,565.141 784.399,567.297 L784.399,581.594 C784.352,582.344 784.306,582.641 784.102,582.891 C783.743,583.344 782.743,583.547 780.602,583.594 L780.399,583.594 L780.399,585.391 L793.743,585.391 L793.743,583.594 L792.852,583.594 C789.493,583.485 789.056,583.235 789.056,581.438 L789.056,578.735 C789.102,570.344 792.102,563.938 795.993,563.735 C795.306,564.547 795.102,565.047 795.102,565.985 C795.102,567.594 796.243,568.735 797.852,568.735 C799.696,568.735 800.899,567.391 800.899,565.391 C800.899,562.938 799.196,561.344 796.556,561.344 C793.399,561.344 790.696,563.844 789.056,568.297 L789.056,562.094 M824.399,574.141 C824.446,566.641 820.196,561.344 814.102,561.344 C807.696,561.344 802.899,566.891 802.899,574.391 C802.899,581.438 807.446,586.141 814.196,586.141 C818.993,586.141 822.352,583.797 824.399,579.047 L822.649,578.094 C820.602,581.938 818.493,583.438 815.149,583.438 C812.602,583.438 810.743,582.391 809.446,580.141 C808.556,578.641 808.149,576.891 808.196,574.141 L824.399,574.141 M808.243,571.985 C808.243,568.485 809.852,563.485 814.056,563.485 C817.056,563.485 819.056,566.141 819.056,570.188 C819.056,571.594 818.602,571.985 816.993,571.985 L808.243,571.985 "/>
<path class="Lyrics" d="M575.316,585.735 L584.019,585.391 L584.019,583.235 L583.113,583.235 C580.269,583.094 580.019,582.797 580.019,579.594 L580.019,548.531 L570.222,549.094 L570.222,551.235 L573.16,551.235 C575.066,551.281 575.316,551.594 575.316,553.735 L575.316,565.047 C573.472,562.485 571.316,561.344 568.41,561.344 C562.769,561.344 558.472,566.797 558.472,573.985 C558.472,581.094 562.613,586.141 568.41,586.141 C571.566,586.141 573.722,584.797 575.316,581.797 L575.316,585.735 M569.41,564.047 C571.472,564.047 573.41,565.547 574.316,567.844 C574.972,569.344 575.269,571.391 575.269,573.844 C575.269,579.688 572.972,583.438 569.363,583.438 C565.816,583.438 563.722,580.141 563.722,574.594 C563.722,571.594 564.019,569.344 564.66,567.688 C565.519,565.438 567.363,564.047 569.41,564.047 M597.91,561.344 C591.769,561.344 587.019,566.797 587.019,573.797 C587.019,580.641 591.816,586.141 597.816,586.141 C603.816,586.141 608.613,580.641 608.613,573.735 C608.613,566.891 603.816,561.344 597.91,561.344 M597.91,563.485 C601.41,563.485 603.363,567.141 603.363,573.735 C603.363,580.391 601.41,583.985 597.816,583.985 C594.222,583.985 592.269,580.391 592.269,573.797 C592.269,566.985 594.16,563.485 597.91,563.485"/>
<path class="Lyrics" d="M1001.53,562.094 L992.639,562.641 L992.639,564.797 L994.686,564.797 C996.576,564.844 996.826,565.141 996.826,567.297 L996.826,581.594 C996.779,582.344 996.732,582.641 996.529,582.891 C996.186,583.344 995.232,583.547 993.076,583.594 L992.889,583.594 L992.889,585.391 L1005.48,585.391 L1005.48,583.594 L1005.28,583.594 C1001.98,583.485 1001.53,583.235 1001.53,581.391 L1001.53,572.141 C1001.53,567.688 1003.98,564.391 1007.23,564.391 C1010.08,564.391 1011.53,566.438 1011.53,570.485 L1011.53,581.641 C1011.48,582.297 1011.44,582.641 1011.19,582.891 C1010.89,583.344 1009.89,583.547 1007.73,583.594 L1007.53,583.594 L1007.53,585.391 L1020.19,585.391 L1020.19,583.594 L1019.98,583.594 C1016.69,583.485 1016.23,583.235 1016.23,581.438 L1016.23,572.594 C1016.23,567.594 1018.48,564.391 1021.98,564.391 C1024.84,564.391 1026.23,566.547 1026.23,571.047 L1026.23,581.594 C1026.19,582.297 1026.14,582.641 1025.89,582.891 C1025.59,583.344 1024.59,583.547 1022.44,583.594 L1022.23,583.594 L1022.23,585.391 L1034.89,585.391 L1034.89,583.594 L1034.69,583.594 C1031.39,583.485 1030.94,583.235 1030.94,581.391 L1030.94,570.047 C1030.94,566.938 1030.64,565.891 1029.34,564.188 C1027.89,562.344 1025.84,561.344 1023.44,561.344 C1020.19,561.344 1017.78,562.891 1015.64,566.344 C1014.78,563.344 1012.08,561.344 1008.73,561.344 C1005.69,561.344 1003.48,562.797 1001.53,565.938 L1001.53,562.094 M1043.44,549.641 C1041.83,549.641 1040.53,550.938 1040.53,552.531 C1040.53,554.141 1041.83,555.438 1043.39,555.438 C1045.03,555.438 1046.33,554.141 1046.33,552.531 C1046.33,550.938 1045.03,549.641 1043.44,549.641 M1045.78,562.094 L1036.39,562.641 L1036.39,564.797 L1038.94,564.797 C1040.83,564.844 1041.08,565.141 1041.08,567.297 L1041.08,581.594 C1041.03,582.344 1040.98,582.641 1040.78,582.891 C1040.44,583.344 1039.48,583.547 1037.33,583.594 L1036.98,583.594 L1036.98,585.391 L1049.94,585.391 L1049.94,583.594 L1049.58,583.594 C1046.23,583.485 1045.78,583.235 1045.78,581.438 L1045.78,562.094 "/>
<path class="Lyrics" d="M1666.19,548.531 L1656.94,549.094 L1656.94,551.235 L1659.39,551.235 C1661.23,551.281 1661.48,551.594 1661.48,553.735 L1661.48,581.594 C1661.44,582.344 1661.39,582.641 1661.19,582.891 C1660.83,583.344 1659.89,583.547 1657.73,583.594 L1657.39,583.594 L1657.39,585.391 L1670.33,585.391 L1670.33,583.594 L1669.98,583.594 C1666.64,583.485 1666.19,583.235 1666.19,581.438 L1666.19,548.531 M1694.58,569.297 C1694.58,566.141 1694.03,564.547 1692.58,563.344 C1690.94,561.985 1688.48,561.344 1685.28,561.344 C1679.64,561.344 1675.53,563.985 1675.53,567.641 C1675.53,569.485 1676.69,570.688 1678.44,570.688 C1680.03,570.688 1681.14,569.641 1681.14,568.141 C1681.14,567.485 1680.89,566.797 1680.39,566.094 C1680.08,565.735 1680.03,565.641 1680.03,565.391 C1680.03,564.391 1682.03,563.485 1684.44,563.485 C1686.03,563.485 1687.78,563.985 1688.58,564.735 C1689.53,565.547 1689.89,566.735 1689.89,568.985 L1689.89,570.938 C1684.69,571.844 1683.03,572.235 1680.58,573.188 C1676.23,574.797 1674.19,577.094 1674.19,580.297 C1674.19,583.891 1676.98,586.141 1681.44,586.141 C1684.89,586.141 1687.98,584.735 1690.14,582.188 C1690.94,584.735 1692.19,585.735 1694.53,585.735 C1696.78,585.735 1699.14,584.297 1699.14,582.844 C1699.14,582.485 1698.94,582.235 1698.64,582.235 C1698.44,582.235 1698.23,582.297 1697.89,582.438 C1697.19,582.735 1696.89,582.797 1696.48,582.797 C1695.08,582.797 1694.58,581.891 1694.58,579.344 L1694.58,569.297 M1689.89,575.391 C1689.89,578.391 1689.73,579.094 1688.89,580.391 C1687.64,582.235 1685.39,583.485 1683.19,583.485 C1680.89,583.485 1679.23,581.844 1679.23,579.594 C1679.23,577.485 1680.28,575.985 1682.48,574.938 C1684.03,574.235 1685.98,573.735 1689.89,573.094 L1689.89,575.391 "/>
<path class="Lyrics" d="M1009.69,798.71 L1000.44,799.272 L1000.44,801.413 L1002.89,801.413 C1004.73,801.46 1004.98,801.772 1004.98,803.913 L1004.98,831.772 C1004.94,832.522 1004.89,832.819 1004.69,833.069 C1004.33,833.522 1003.39,833.725 1001.23,833.772 L1000.89,833.772 L1000.89,835.569 L1013.83,835.569 L1013.83,833.772 L1013.48,833.772 C1010.14,833.663 1009.69,833.413 1009.69,831.616 L1009.69,798.71 M1038.08,819.475 C1038.08,816.319 1037.53,814.725 1036.08,813.522 C1034.44,812.163 1031.98,811.522 1028.78,811.522 C1023.14,811.522 1019.03,814.163 1019.03,817.819 C1019.03,819.663 1020.19,820.866 1021.94,820.866 C1023.53,820.866 1024.64,819.819 1024.64,818.319 C1024.64,817.663 1024.39,816.975 1023.89,816.272 C1023.58,815.913 1023.53,815.819 1023.53,815.569 C1023.53,814.569 1025.53,813.663 1027.94,813.663 C1029.53,813.663 1031.28,814.163 1032.08,814.913 C1033.03,815.725 1033.39,816.913 1033.39,819.163 L1033.39,821.116 C1028.19,822.022 1026.53,822.413 1024.08,823.366 C1019.73,824.975 1017.69,827.272 1017.69,830.475 C1017.69,834.069 1020.48,836.319 1024.94,836.319 C1028.39,836.319 1031.48,834.913 1033.64,832.366 C1034.44,834.913 1035.69,835.913 1038.03,835.913 C1040.28,835.913 1042.64,834.475 1042.64,833.022 C1042.64,832.663 1042.44,832.413 1042.14,832.413 C1041.94,832.413 1041.73,832.475 1041.39,832.616 C1040.69,832.913 1040.39,832.975 1039.98,832.975 C1038.58,832.975 1038.08,832.069 1038.08,829.522 L1038.08,819.475 M1033.39,825.569 C1033.39,828.569 1033.23,829.272 1032.39,830.569 C1031.14,832.413 1028.89,833.663 1026.69,833.663 C1024.39,833.663 1022.73,832.022 1022.73,829.772 C1022.73,827.663 1023.78,826.163 1025.98,825.116 C1027.53,824.413 1029.48,823.913 1033.39,823.272 L1033.39,825.569 "/>
<path class="Lyrics" d="M1446.7,812.272 L1446.7,809.413 C1446.7,806.913 1446.85,805.272 1447.24,804.272 C1448.06,802.069 1449.81,800.71 1451.81,800.71 C1452.85,800.71 1453.49,801.022 1453.49,801.569 C1453.49,801.772 1453.49,801.819 1453.2,802.21 C1452.9,802.663 1452.74,803.272 1452.74,803.819 C1452.74,805.319 1453.95,806.46 1455.49,806.46 C1457.15,806.46 1458.31,805.21 1458.31,803.413 C1458.31,800.522 1455.81,798.71 1451.74,798.71 C1448.31,798.71 1445.74,799.913 1443.99,802.413 C1442.49,804.522 1441.99,806.663 1441.99,810.725 L1441.99,812.272 L1437.6,812.272 L1437.6,814.413 L1441.99,814.413 L1441.99,831.772 C1441.95,832.475 1441.9,832.772 1441.7,833.069 C1441.35,833.522 1440.4,833.725 1438.24,833.772 L1438.06,833.772 L1438.06,835.569 L1451.4,835.569 L1451.4,833.772 L1450.49,833.772 C1447.15,833.663 1446.7,833.413 1446.7,831.616 L1446.7,814.413 L1452.2,814.413 L1452.2,812.272 L1446.7,812.272 M1475.24,819.475 C1475.24,816.319 1474.7,814.725 1473.24,813.522 C1471.6,812.163 1469.15,811.522 1465.95,811.522 C1460.31,811.522 1456.2,814.163 1456.2,817.819 C1456.2,819.663 1457.35,820.866 1459.1,820.866 C1460.7,820.866 1461.81,819.819 1461.81,818.319 C1461.81,817.663 1461.56,816.975 1461.06,816.272 C1460.74,815.913 1460.7,815.819 1460.7,815.569 C1460.7,814.569 1462.7,813.663 1465.1,813.663 C1466.7,813.663 1468.45,814.163 1469.24,814.913 C1470.2,815.725 1470.56,816.913 1470.56,819.163 L1470.56,821.116 C1465.35,822.022 1463.7,822.413 1461.24,823.366 C1456.9,824.975 1454.85,827.272 1454.85,830.475 C1454.85,834.069 1457.65,836.319 1462.1,836.319 C1465.56,836.319 1468.65,834.913 1470.81,832.366 C1471.6,834.913 1472.85,835.913 1475.2,835.913 C1477.45,835.913 1479.81,834.475 1479.81,833.022 C1479.81,832.663 1479.6,832.413 1479.31,832.413 C1479.1,832.413 1478.9,832.475 1478.56,832.616 C1477.85,832.913 1477.56,832.975 1477.15,832.975 C1475.74,832.975 1475.24,832.069 1475.24,829.522 L1475.24,819.475 M1470.56,825.569 C1470.56,828.569 1470.4,829.272 1469.56,830.569 C1468.31,832.413 1466.06,833.663 1463.85,833.663 C1461.56,833.663 1459.9,832.022 1459.9,829.772 C1459.9,827.663 1460.95,826.163 1463.15,825.116 C1464.7,824.413 1466.65,823.913 1470.56,823.272 L1470.56,825.569 "/>
<path class="Lyrics" d="M1227.32,811.725 L1225.57,811.725 L1224.11,813.522 C1222.32,812.116 1220.52,811.522 1218.02,811.522 C1213.61,811.522 1210.72,814.366 1210.72,818.772 C1210.72,823.475 1213.77,824.663 1217.77,825.616 L1220.41,826.225 C1224.36,827.163 1225.77,828.163 1225.77,830.163 C1225.77,832.522 1223.72,834.163 1220.82,834.163 C1216.57,834.163 1213.57,831.475 1212.36,826.475 L1210.36,826.475 L1210.36,835.913 L1212.11,835.913 L1213.86,833.866 C1215.91,835.522 1218.16,836.319 1220.72,836.319 C1225.61,836.319 1228.86,833.272 1228.86,828.616 C1228.86,826.413 1228.16,824.725 1226.77,823.569 C1225.57,822.522 1224.57,822.116 1221.52,821.475 L1219.02,820.913 C1216.27,820.319 1216.27,820.319 1215.36,819.819 C1214.27,819.319 1213.61,818.272 1213.61,817.163 C1213.61,815.116 1215.52,813.725 1218.27,813.725 C1222.36,813.725 1224.36,816.616 1225.57,820.116 L1227.32,820.116 L1227.32,811.725 M1243.41,811.522 C1237.27,811.522 1232.52,816.975 1232.52,823.975 C1232.52,830.819 1237.32,836.319 1243.32,836.319 C1249.32,836.319 1254.11,830.819 1254.11,823.913 C1254.11,817.069 1249.32,811.522 1243.41,811.522 M1243.41,813.663 C1246.91,813.663 1248.86,817.319 1248.86,823.913 C1248.86,830.569 1246.91,834.163 1243.32,834.163 C1239.72,834.163 1237.77,830.569 1237.77,823.975 C1237.77,817.163 1239.66,813.663 1243.41,813.663 M1266.02,798.71 L1256.77,799.272 L1256.77,801.413 L1259.22,801.413 C1261.07,801.46 1261.32,801.772 1261.32,803.913 L1261.32,831.772 C1261.27,832.522 1261.22,832.819 1261.02,833.069 C1260.66,833.522 1259.72,833.725 1257.57,833.772 L1257.22,833.772 L1257.22,835.569 L1270.16,835.569 L1270.16,833.772 L1269.82,833.772 C1266.47,833.663 1266.02,833.413 1266.02,831.616 L1266.02,798.71 "/>
<path class="Lyrics" d="M575.316,835.913 L584.019,835.569 L584.019,833.413 L583.113,833.413 C580.269,833.272 580.019,832.975 580.019,829.772 L580.019,798.71 L570.222,799.272 L570.222,801.413 L573.16,801.413 C575.066,801.46 575.316,801.772 575.316,803.913 L575.316,815.225 C573.472,812.663 571.316,811.522 568.41,811.522 C562.769,811.522 558.472,816.975 558.472,824.163 C558.472,831.272 562.613,836.319 568.41,836.319 C571.566,836.319 573.722,834.975 575.316,831.975 L575.316,835.913 M569.41,814.225 C571.472,814.225 573.41,815.725 574.316,818.022 C574.972,819.522 575.269,821.569 575.269,824.022 C575.269,829.866 572.972,833.616 569.363,833.616 C565.816,833.616 563.722,830.319 563.722,824.772 C563.722,821.772 564.019,819.522 564.66,817.866 C565.519,815.616 567.363,814.225 569.41,814.225 M597.91,811.522 C591.769,811.522 587.019,816.975 587.019,823.975 C587.019,830.819 591.816,836.319 597.816,836.319 C603.816,836.319 608.613,830.819 608.613,823.913 C608.613,817.069 603.816,811.522 597.91,811.522 M597.91,813.663 C601.41,813.663 603.363,817.319 603.363,823.913 C603.363,830.569 601.41,834.163 597.816,834.163 C594.222,834.163 592.269,830.569 592.269,823.975 C592.269,817.163 594.16,813.663 597.91,813.663"/>
<path class="Lyrics" d="M1883.22,812.272 L1874.36,812.819 L1874.36,814.975 L1876.41,814.975 C1878.32,815.022 1878.57,815.319 1878.57,817.475 L1878.57,831.772 C1878.52,832.522 1878.47,832.819 1878.27,833.069 C1877.91,833.522 1876.91,833.725 1874.77,833.772 L1874.57,833.772 L1874.57,835.569 L1887.91,835.569 L1887.91,833.772 L1887.02,833.772 C1883.66,833.663 1883.22,833.413 1883.22,831.616 L1883.22,828.913 C1883.27,820.522 1886.27,814.116 1890.16,813.913 C1889.47,814.725 1889.27,815.225 1889.27,816.163 C1889.27,817.772 1890.41,818.913 1892.02,818.913 C1893.86,818.913 1895.07,817.569 1895.07,815.569 C1895.07,813.116 1893.36,811.522 1890.72,811.522 C1887.57,811.522 1884.86,814.022 1883.22,818.475 L1883.22,812.272 M1918.57,824.319 C1918.61,816.819 1914.36,811.522 1908.27,811.522 C1901.86,811.522 1897.07,817.069 1897.07,824.569 C1897.07,831.616 1901.61,836.319 1908.36,836.319 C1913.16,836.319 1916.52,833.975 1918.57,829.225 L1916.82,828.272 C1914.77,832.116 1912.66,833.616 1909.32,833.616 C1906.77,833.616 1904.91,832.569 1903.61,830.319 C1902.72,828.819 1902.32,827.069 1902.36,824.319 L1918.57,824.319 M1902.41,822.163 C1902.41,818.663 1904.02,813.663 1908.22,813.663 C1911.22,813.663 1913.22,816.319 1913.22,820.366 C1913.22,821.772 1912.77,822.163 1911.16,822.163 L1902.41,822.163 "/>
<path class="Lyrics" d="M1658.03,812.272 L1649.14,812.819 L1649.14,814.975 L1651.19,814.975 C1653.08,815.022 1653.33,815.319 1653.33,817.475 L1653.33,831.772 C1653.28,832.522 1653.23,832.819 1653.03,833.069 C1652.69,833.522 1651.73,833.725 1649.58,833.772 L1649.39,833.772 L1649.39,835.569 L1661.98,835.569 L1661.98,833.772 L1661.78,833.772 C1658.48,833.663 1658.03,833.413 1658.03,831.569 L1658.03,822.319 C1658.03,817.866 1660.48,814.569 1663.73,814.569 C1666.58,814.569 1668.03,816.616 1668.03,820.663 L1668.03,831.819 C1667.98,832.475 1667.94,832.819 1667.69,833.069 C1667.39,833.522 1666.39,833.725 1664.23,833.772 L1664.03,833.772 L1664.03,835.569 L1676.69,835.569 L1676.69,833.772 L1676.48,833.772 C1673.19,833.663 1672.73,833.413 1672.73,831.616 L1672.73,822.772 C1672.73,817.772 1674.98,814.569 1678.48,814.569 C1681.34,814.569 1682.73,816.725 1682.73,821.225 L1682.73,831.772 C1682.69,832.475 1682.64,832.819 1682.39,833.069 C1682.09,833.522 1681.09,833.725 1678.94,833.772 L1678.73,833.772 L1678.73,835.569 L1691.39,835.569 L1691.39,833.772 L1691.19,833.772 C1687.89,833.663 1687.44,833.413 1687.44,831.569 L1687.44,820.225 C1687.44,817.116 1687.14,816.069 1685.84,814.366 C1684.39,812.522 1682.34,811.522 1679.94,811.522 C1676.69,811.522 1674.28,813.069 1672.14,816.522 C1671.28,813.522 1668.58,811.522 1665.23,811.522 C1662.19,811.522 1659.98,812.975 1658.03,816.116 L1658.03,812.272 M1699.94,799.819 C1698.33,799.819 1697.03,801.116 1697.03,802.71 C1697.03,804.319 1698.33,805.616 1699.89,805.616 C1701.53,805.616 1702.83,804.319 1702.83,802.71 C1702.83,801.116 1701.53,799.819 1699.94,799.819 M1702.28,812.272 L1692.89,812.819 L1692.89,814.975 L1695.44,814.975 C1697.33,815.022 1697.58,815.319 1697.58,817.475 L1697.58,831.772 C1697.53,832.522 1697.48,832.819 1697.28,833.069 C1696.94,833.522 1695.98,833.725 1693.83,833.772 L1693.48,833.772 L1693.48,835.569 L1706.44,835.569 L1706.44,833.772 L1706.08,833.772 C1702.73,833.663 1702.28,833.413 1702.28,831.616 L1702.28,812.272 "/>
<path class="Lyrics" d="M2107.15,835.913 L2115.85,835.569 L2115.85,833.413 L2114.95,833.413 C2112.1,833.272 2111.85,832.975 2111.85,829.772 L2111.85,798.71 L2102.05,799.272 L2102.05,801.413 L2104.99,801.413 C2106.9,801.46 2107.15,801.772 2107.15,803.913 L2107.15,815.225 C2105.3,812.663 2103.15,811.522 2100.24,811.522 C2094.6,811.522 2090.3,816.975 2090.3,824.163 C2090.3,831.272 2094.45,836.319 2100.24,836.319 C2103.4,836.319 2105.55,834.975 2107.15,831.975 L2107.15,835.913 M2101.24,814.225 C2103.3,814.225 2105.24,815.725 2106.15,818.022 C2106.8,819.522 2107.1,821.569 2107.1,824.022 C2107.1,829.866 2104.8,833.616 2101.2,833.616 C2097.65,833.616 2095.55,830.319 2095.55,824.772 C2095.55,821.772 2095.85,819.522 2096.49,817.866 C2097.35,815.616 2099.2,814.225 2101.24,814.225 M2129.74,811.522 C2123.6,811.522 2118.85,816.975 2118.85,823.975 C2118.85,830.819 2123.65,836.319 2129.65,836.319 C2135.65,836.319 2140.45,830.819 2140.45,823.913 C2140.45,817.069 2135.65,811.522 2129.74,811.522 M2129.74,813.663 C2133.24,813.663 2135.2,817.319 2135.2,823.913 C2135.2,830.569 2133.24,834.163 2129.65,834.163 C2126.05,834.163 2124.1,830.569 2124.1,823.975 C2124.1,817.163 2125.99,813.663 2129.74,813.663"/>
<path class="Lyrics" d="M802.149,811.725 L800.399,811.725 L798.946,813.522 C797.149,812.116 795.352,811.522 792.852,811.522 C788.446,811.522 785.556,814.366 785.556,818.772 C785.556,823.475 788.602,824.663 792.602,825.616 L795.243,826.225 C799.196,827.163 800.602,828.163 800.602,830.163 C800.602,832.522 798.556,834.163 795.649,834.163 C791.399,834.163 788.399,831.475 787.196,826.475 L785.196,826.475 L785.196,835.913 L786.946,835.913 L788.696,833.866 C790.743,835.522 792.993,836.319 795.556,836.319 C800.446,836.319 803.696,833.272 803.696,828.616 C803.696,826.413 802.993,824.725 801.602,823.569 C800.399,822.522 799.399,822.116 796.352,821.475 L793.852,820.913 C791.102,820.319 791.102,820.319 790.196,819.819 C789.102,819.319 788.446,818.272 788.446,817.163 C788.446,815.116 790.352,813.725 793.102,813.725 C797.196,813.725 799.196,816.616 800.399,820.116 L802.149,820.116 L802.149,811.725 M813.602,799.819 C811.993,799.819 810.696,801.116 810.696,802.71 C810.696,804.319 811.993,805.616 813.556,805.616 C815.196,805.616 816.493,804.319 816.493,802.71 C816.493,801.116 815.196,799.819 813.602,799.819 M815.946,812.272 L806.556,812.819 L806.556,814.975 L809.102,814.975 C810.993,815.022 811.243,815.319 811.243,817.475 L811.243,831.772 C811.196,832.522 811.149,832.819 810.946,833.069 C810.602,833.522 809.649,833.725 807.493,833.772 L807.149,833.772 L807.149,835.569 L820.102,835.569 L820.102,833.772 L819.743,833.772 C816.399,833.663 815.946,833.413 815.946,831.616 L815.946,812.272 "/>
<path class="StaffText" d="M578.798,326.195 C577.11,328.242 572.501,329.789 567.907,329.899 L567.907,332.039 L572.298,332.039 C575.204,332.102 575.501,332.399 575.407,335.195 L575.407,355.242 C575.407,357.805 575.407,357.899 575.11,358.352 C574.704,358.852 573.751,359.055 570.954,359.055 L567.704,359.055 L567.704,361.399 L587.501,361.399 L587.501,359.055 L584.751,359.055 C581.954,359.055 581.001,358.852 580.61,358.352 C580.251,357.899 580.251,357.852 580.251,355.242 L580.251,334.602 C580.251,331.789 580.36,329.445 580.61,326.195 L578.798,326.195 M607.251,345.695 L632.454,345.695 L632.454,341.695 L607.251,341.695 L607.251,345.695 M607.251,355.805 L632.454,355.805 L632.454,351.805 L607.251,351.805 L607.251,355.805 M680.657,324.945 L678.751,324.945 L676.751,327.899 C673.11,325.242 671.251,324.539 667.798,324.539 C663.048,324.539 659.001,326.539 655.657,330.539 C652.454,334.352 650.954,338.555 650.954,343.695 C650.954,354.492 658.001,362.149 667.86,362.149 C675.86,362.149 680.954,357.445 682.11,349.055 L679.751,348.649 C678.407,356.102 674.61,359.805 668.454,359.805 C661.048,359.805 657.548,354.695 657.548,343.899 C657.548,338.195 658.298,334.445 660.001,331.445 C661.548,328.649 664.61,326.899 667.86,326.899 C671.36,326.899 674.454,328.742 676.36,331.945 C677.313,333.602 678.001,335.445 679.204,339.399 L681.407,339.399 L680.657,324.945 M693.704,324.539 L685.11,325.102 L685.11,327.242 L686.86,327.242 C688.751,327.289 689.001,327.602 689.001,329.742 L689.001,349.195 C689.001,356.149 688.704,359.945 688.11,362.102 L690.001,362.102 L692.454,358.195 C694.501,360.899 696.86,362.149 699.954,362.149 C706.157,362.149 710.704,356.852 710.704,349.602 C710.704,342.399 706.501,337.352 700.501,337.352 C697.454,337.352 695.61,338.399 693.704,341.242 L693.704,324.539 M699.61,339.899 C703.36,339.899 705.454,343.555 705.454,350.102 C705.454,356.445 703.407,359.992 699.751,359.992 C695.798,359.992 693.454,356.352 693.454,350.195 C693.454,343.492 695.61,339.899 699.61,339.899"/>
<path class="Page" d="M2266.2,212.661 L2264.28,212.661 C2260.81,215.255 2256.91,216.348 2250.36,216.458 L2250.36,219.536 L2252.67,219.536 C2257.56,219.536 2257.63,219.645 2257.56,224.161 L2257.56,243.676 C2257.56,247.083 2257.56,247.255 2257.19,247.801 C2256.69,248.411 2255.58,248.63 2252.61,248.63 L2250.86,248.63 L2250.86,251.598 L2272.8,251.598 L2272.8,248.63 L2271.03,248.63 C2268.13,248.63 2267.08,248.411 2266.58,247.801 C2266.2,247.255 2266.2,247.036 2266.2,243.676 L2266.2,212.661 M2282.36,230.708 C2281.09,232.02 2280.94,232.301 2280.94,233.176 C2280.94,234.333 2281.81,235.208 2282.97,235.208 C2284.17,235.208 2285.22,234.223 2285.22,233.005 C2285.22,232.786 2285.17,232.458 2285.11,232.13 C2286.81,230.755 2288.91,230.036 2291.22,230.036 C2295.34,230.036 2297.42,233.067 2297.42,239.005 C2297.42,245.708 2295.06,249.239 2290.67,249.239 C2288.19,249.239 2285.83,248.083 2285.83,246.926 C2285.83,246.598 2285.98,246.426 2286.48,246.161 C2288.69,245.114 2289.45,244.067 2289.45,242.192 C2289.45,239.442 2287.58,237.692 2284.78,237.692 C2281.59,237.692 2279.5,239.88 2279.5,243.301 C2279.5,248.801 2284.45,252.364 2292.05,252.364 C2301.06,252.364 2307.22,246.864 2307.22,238.723 C2307.22,231.583 2301.44,226.301 2293.53,226.301 C2290.94,226.301 2289.3,226.739 2285.61,228.395 L2286.44,221.301 C2289.08,221.848 2291.22,222.13 2293.36,222.13 C2297.92,222.13 2301.72,220.583 2303.75,217.895 C2304.8,216.52 2305.63,214.473 2305.63,213.27 C2305.63,212.88 2305.45,212.661 2305.19,212.661 C2304.97,212.661 2304.64,212.723 2304.3,212.833 C2302.33,213.317 2298.75,213.598 2294.34,213.598 C2289.73,213.598 2286.98,213.38 2283.63,212.661 C2283.34,217.286 2283.34,217.723 2282.69,226.739 L2282.36,230.708 "/>
<path class="Bracket" transform="matrix(3.596,0,0,3.7497,181.331,761.169)" d="M0.90625,-50 C2.70313,-51.9063 6.20313,-55.7969 6.20313,-63 C6.20313,-72.1094 2.29688,-81.3125 2.29688,-87 C2.29688,-93.1094 5.79688,-98.8125 6,-99 C6,-99.1094 6,-99.1094 6,-99.2031 C6,-99.3125 6,-99.4063 5.90625,-99.5 C5.79688,-99.5 5.59375,-99.5 5.5,-99.3125 C5.40625,-99.2031 0,-93.8125 0,-85.6094 C0,-76.8125 3.5,-70.6094 3.5,-59.1094 C3.5,-56.9063 2.59375,-53.4063 0.09375,-50.2969 C0,-50.2969 0,-50.1094 -0.09375,-50 C-0.09375,-49.9063 0,-49.7969 0.09375,-49.7031 C2.59375,-46.6094 3.5,-43.1094 3.5,-40.9063 C3.5,-29.4063 0,-23.2031 0,-14.4063 C0,-6.29688 5.40625,-0.796875 5.5,-0.703125 C5.59375,-0.5 5.79688,-0.40625 5.90625,-0.5 C6,-0.59375 6.09375,-0.703125 6,-0.796875 C6,-0.796875 6,-0.90625 6,-1 C5.79688,-1.20313 2.29688,-6.90625 2.29688,-13 C2.29688,-18.7031 6.20313,-27.9063 6.20313,-37 C6.20313,-44.2969 2.70313,-48.1094 0.90625,-50"/>
</svg>
