<?xml version="1.0" encoding="UTF-8" standalone="no"?>
<svg width="2520px" height="1008px" viewBox="0 0 2520 1008"
 xmlns="http://www.w3.org/2000/svg" xmlns:xlink="http://www.w3.org/1999/xlink" version="1.2" baseProfile="tiny">
<title>大调调性 (10)</title>
<desc>Generated by MuseScore Studio 4.4.4</desc>
<path class="" fill="#ffffff" fill-rule="evenodd" d="M0,0 L2520,0 L2520,1008 L0,1008 L0,0 "/>
<polyline class="StaffLines" fill="none" stroke="#000000" stroke-width="2.73" stroke-linejoin="bevel" points="212.598,386.199 2307.8,386.199"/>
<polyline class="StaffLines" fill="none" stroke="#000000" stroke-width="2.73" stroke-linejoin="bevel" points="212.598,410.999 2307.8,410.999"/>
<polyline class="StaffLines" fill="none" stroke="#000000" stroke-width="2.73" stroke-linejoin="bevel" points="212.598,435.799 2307.8,435.799"/>
<polyline class="StaffLines" fill="none" stroke="#000000" stroke-width="2.73" stroke-linejoin="bevel" points="212.598,460.599 2307.8,460.599"/>
<polyline class="StaffLines" fill="none" stroke="#000000" stroke-width="2.73" stroke-linejoin="bevel" points="212.598,485.399 2307.8,485.399"/>
<polyline class="StaffLines" fill="none" stroke="#000000" stroke-width="2.73" stroke-linejoin="bevel" points="212.598,661.969 2307.8,661.969"/>
<polyline class="StaffLines" fill="none" stroke="#000000" stroke-width="2.73" stroke-linejoin="bevel" points="212.598,686.769 2307.8,686.769"/>
<polyline class="StaffLines" fill="none" stroke="#000000" stroke-width="2.73" stroke-linejoin="bevel" points="212.598,711.569 2307.8,711.569"/>
<polyline class="StaffLines" fill="none" stroke="#000000" stroke-width="2.73" stroke-linejoin="bevel" points="212.598,736.369 2307.8,736.369"/>
<polyline class="StaffLines" fill="none" stroke="#000000" stroke-width="2.73" stroke-linejoin="bevel" points="212.598,761.169 2307.8,761.169"/>
<path class="MeasureNumber" d="M233.036,308.442 C230.911,308.677 228.317,308.849 226.083,308.849 C224.958,308.849 223.676,308.802 222.239,308.724 C220.911,308.645 219.598,308.567 218.239,308.489 L217.239,308.442 L213.364,316.88 L214.833,317.364 L215.801,315.755 C217.676,312.645 218.551,312.208 222.63,312.239 L229.395,312.239 L225.036,318.489 C219.911,325.677 219.911,325.677 217.958,328.88 C216.192,331.724 215.473,333.474 215.473,334.911 C215.473,336.317 216.364,337.192 217.755,337.192 C219.239,337.192 219.989,336.474 220.52,334.599 C222.52,327.083 223.723,324.474 229.27,315.489 L233.036,309.645 L233.036,308.442 M246.192,322.036 C248.083,321.442 248.833,321.114 249.801,320.474 C251.676,319.239 252.833,317.036 252.833,314.802 C252.833,311.005 249.801,308.442 245.317,308.442 C240.958,308.442 237.27,311.161 237.27,314.442 C237.27,316.083 238.27,317.208 239.801,317.208 C241.114,317.208 242.083,316.239 242.083,314.927 C242.083,314.239 241.88,313.755 241.239,313.13 C240.833,312.755 240.676,312.489 240.676,312.208 C240.676,311.239 242.676,310.239 244.551,310.239 C247.239,310.239 248.833,311.724 248.833,314.208 C248.833,317.755 246.317,321.114 243.63,321.114 C243.52,321.114 243.161,321.083 242.723,321.036 C241.551,320.958 241.551,320.958 241.317,320.958 C240.442,320.958 239.958,321.364 239.958,322.083 C239.958,322.724 240.395,323.114 241.114,323.114 C241.317,323.114 241.598,323.083 241.911,323.036 C242.473,322.927 243.083,322.88 243.442,322.88 C245.317,322.88 246.598,324.567 246.598,327.036 C246.598,331.364 244.473,335.52 239.63,335.52 C237.395,335.52 235.473,334.395 235.473,333.114 C235.473,332.677 235.645,332.52 236.27,332.239 C237.442,331.724 237.911,331.005 237.911,329.927 C237.911,328.52 236.801,327.442 235.364,327.442 C233.645,327.442 232.52,328.802 232.52,330.88 C232.52,334.755 235.473,337.192 240.27,337.192 C246.317,337.192 250.911,333.161 250.911,327.802 C250.911,324.677 248.989,322.927 246.192,322.036"/>
<polyline class="BarLine" fill="none" stroke="#000000" stroke-width="4.46" stroke-linejoin="bevel" points="214.83,384.835 214.83,661.969"/>
<polyline class="BarLine" fill="none" stroke="#000000" stroke-width="4.46" stroke-linejoin="bevel" points="685.401,384.835 685.401,661.969"/>
<polyline class="BarLine" fill="none" stroke="#000000" stroke-width="4.46" stroke-linejoin="bevel" points="1921.5,384.835 1921.5,661.969"/>
<polyline class="BarLine" fill="none" stroke="#000000" stroke-width="4.46" stroke-linejoin="bevel" points="891.418,384.835 891.418,661.969"/>
<polyline class="BarLine" fill="none" stroke="#000000" stroke-width="4.46" stroke-linejoin="bevel" points="1303.45,384.835 1303.45,661.969"/>
<polyline class="BarLine" fill="none" stroke="#000000" stroke-width="4.46" stroke-linejoin="bevel" points="1715.48,384.835 1715.48,661.969"/>
<polyline class="BarLine" fill="none" stroke="#000000" stroke-width="4.46" stroke-linejoin="bevel" points="1509.47,384.835 1509.47,661.969"/>
<polyline class="BarLine" fill="none" stroke="#000000" stroke-width="4.46" stroke-linejoin="bevel" points="1097.43,384.835 1097.43,661.969"/>
<polyline class="BarLine" fill="none" stroke="#000000" stroke-width="4.46" stroke-linejoin="bevel" points="2127.52,384.835 2127.52,661.969"/>
<polyline class="BarLine" fill="none" stroke="#000000" stroke-width="13.64" stroke-linejoin="bevel" points="2145.75,384.835 2145.75,661.969"/>
<polyline class="BarLine" fill="none" stroke="#000000" stroke-width="4.46" stroke-linejoin="bevel" points="2127.52,660.605 2127.52,762.533"/>
<polyline class="BarLine" fill="none" stroke="#000000" stroke-width="13.64" stroke-linejoin="bevel" points="2145.75,660.605 2145.75,762.533"/>
<polyline class="BarLine" fill="none" stroke="#000000" stroke-width="4.46" stroke-linejoin="bevel" points="1303.45,660.605 1303.45,762.533"/>
<polyline class="BarLine" fill="none" stroke="#000000" stroke-width="4.46" stroke-linejoin="bevel" points="214.83,660.605 214.83,762.533"/>
<polyline class="BarLine" fill="none" stroke="#000000" stroke-width="4.46" stroke-linejoin="bevel" points="891.418,660.605 891.418,762.533"/>
<polyline class="BarLine" fill="none" stroke="#000000" stroke-width="4.46" stroke-linejoin="bevel" points="1921.5,660.605 1921.5,762.533"/>
<polyline class="BarLine" fill="none" stroke="#000000" stroke-width="4.46" stroke-linejoin="bevel" points="1509.47,660.605 1509.47,762.533"/>
<polyline class="BarLine" fill="none" stroke="#000000" stroke-width="4.46" stroke-linejoin="bevel" points="685.401,660.605 685.401,762.533"/>
<polyline class="BarLine" fill="none" stroke="#000000" stroke-width="4.46" stroke-linejoin="bevel" points="1715.48,660.605 1715.48,762.533"/>
<polyline class="BarLine" fill="none" stroke="#000000" stroke-width="4.46" stroke-linejoin="bevel" points="1097.43,660.605 1097.43,762.533"/>
<polyline class="LedgerLine" fill="none" stroke="#000000" stroke-width="3.97" stroke-linejoin="bevel" points="710.449,510.199 763.816,510.199"/>
<polyline class="LedgerLine" fill="none" stroke="#000000" stroke-width="3.97" stroke-linejoin="bevel" points="504.433,510.199 557.799,510.199"/>
<path class="Note" transform="matrix(0.992001,0,0,0.992001,924.65,497.799)" d="M18.7031,-13.5938 C4.90625,-13.5938 0,-6.59375 0,-0.09375 C0,6.40625 4.90625,13.4063 18.7031,13.4063 C32.5,13.4063 37.2969,6.40625 37.2969,-0.09375 C37.2969,-6.59375 32.5,-13.5938 18.7031,-13.5938 M19.5,10.2031 C16.7031,10.2031 14.7969,9.40625 13.5,6.90625 C12.2031,4.40625 10.4063,-2.09375 10.2969,-4.70313 C10.0938,-7.40625 11.0938,-9 13.5,-9.79688 C14.7031,-10.2031 16.2969,-10.4063 17.9063,-10.4063 C20.5938,-10.4063 22.4063,-9.79688 23.7969,-7.09375 C25.2031,-4.5 27.1094,2 27.1094,4.5 C27.1094,9.40625 23.5,10.2031 19.5,10.2031"/>
<path class="Note" transform="matrix(0.992001,0,0,0.992001,1130.67,485.399)" d="M18.7031,-13.5938 C4.90625,-13.5938 0,-6.59375 0,-0.09375 C0,6.40625 4.90625,13.4063 18.7031,13.4063 C32.5,13.4063 37.2969,6.40625 37.2969,-0.09375 C37.2969,-6.59375 32.5,-13.5938 18.7031,-13.5938 M19.5,10.2031 C16.7031,10.2031 14.7969,9.40625 13.5,6.90625 C12.2031,4.40625 10.4063,-2.09375 10.2969,-4.70313 C10.0938,-7.40625 11.0938,-9 13.5,-9.79688 C14.7031,-10.2031 16.2969,-10.4063 17.9063,-10.4063 C20.5938,-10.4063 22.4063,-9.79688 23.7969,-7.09375 C25.2031,-4.5 27.1094,2 27.1094,4.5 C27.1094,9.40625 23.5,10.2031 19.5,10.2031"/>
<path class="Note" transform="matrix(0.992001,0,0,0.992001,1954.73,435.799)" d="M18.7031,-13.5938 C4.90625,-13.5938 0,-6.59375 0,-0.09375 C0,6.40625 4.90625,13.4063 18.7031,13.4063 C32.5,13.4063 37.2969,6.40625 37.2969,-0.09375 C37.2969,-6.59375 32.5,-13.5938 18.7031,-13.5938 M19.5,10.2031 C16.7031,10.2031 14.7969,9.40625 13.5,6.90625 C12.2031,4.40625 10.4063,-2.09375 10.2969,-4.70313 C10.0938,-7.40625 11.0938,-9 13.5,-9.79688 C14.7031,-10.2031 16.2969,-10.4063 17.9063,-10.4063 C20.5938,-10.4063 22.4063,-9.79688 23.7969,-7.09375 C25.2031,-4.5 27.1094,2 27.1094,4.5 C27.1094,9.40625 23.5,10.2031 19.5,10.2031"/>
<path class="Note" transform="matrix(0.992001,0,0,0.992001,1336.68,472.999)" d="M18.7031,-13.5938 C4.90625,-13.5938 0,-6.59375 0,-0.09375 C0,6.40625 4.90625,13.4063 18.7031,13.4063 C32.5,13.4063 37.2969,6.40625 37.2969,-0.09375 C37.2969,-6.59375 32.5,-13.5938 18.7031,-13.5938 M19.5,10.2031 C16.7031,10.2031 14.7969,9.40625 13.5,6.90625 C12.2031,4.40625 10.4063,-2.09375 10.2969,-4.70313 C10.0938,-7.40625 11.0938,-9 13.5,-9.79688 C14.7031,-10.2031 16.2969,-10.4063 17.9063,-10.4063 C20.5938,-10.4063 22.4063,-9.79688 23.7969,-7.09375 C25.2031,-4.5 27.1094,2 27.1094,4.5 C27.1094,9.40625 23.5,10.2031 19.5,10.2031"/>
<path class="Note" transform="matrix(0.992001,0,0,0.992001,1542.7,460.599)" d="M18.7031,-13.5938 C4.90625,-13.5938 0,-6.59375 0,-0.09375 C0,6.40625 4.90625,13.4063 18.7031,13.4063 C32.5,13.4063 37.2969,6.40625 37.2969,-0.09375 C37.2969,-6.59375 32.5,-13.5938 18.7031,-13.5938 M19.5,10.2031 C16.7031,10.2031 14.7969,9.40625 13.5,6.90625 C12.2031,4.40625 10.4063,-2.09375 10.2969,-4.70313 C10.0938,-7.40625 11.0938,-9 13.5,-9.79688 C14.7031,-10.2031 16.2969,-10.4063 17.9063,-10.4063 C20.5938,-10.4063 22.4063,-9.79688 23.7969,-7.09375 C25.2031,-4.5 27.1094,2 27.1094,4.5 C27.1094,9.40625 23.5,10.2031 19.5,10.2031"/>
<path class="Note" transform="matrix(0.992001,0,0,0.992001,1748.72,448.199)" d="M18.7031,-13.5938 C4.90625,-13.5938 0,-6.59375 0,-0.09375 C0,6.40625 4.90625,13.4063 18.7031,13.4063 C32.5,13.4063 37.2969,6.40625 37.2969,-0.09375 C37.2969,-6.59375 32.5,-13.5938 18.7031,-13.5938 M19.5,10.2031 C16.7031,10.2031 14.7969,9.40625 13.5,6.90625 C12.2031,4.40625 10.4063,-2.09375 10.2969,-4.70313 C10.0938,-7.40625 11.0938,-9 13.5,-9.79688 C14.7031,-10.2031 16.2969,-10.4063 17.9063,-10.4063 C20.5938,-10.4063 22.4063,-9.79688 23.7969,-7.09375 C25.2031,-4.5 27.1094,2 27.1094,4.5 C27.1094,9.40625 23.5,10.2031 19.5,10.2031"/>
<path class="Note" transform="matrix(0.992001,0,0,0.992001,512.617,522.599)" d="M18.7031,-13.5938 C4.90625,-13.5938 0,-6.59375 0,-0.09375 C0,6.40625 4.90625,13.4063 18.7031,13.4063 C32.5,13.4063 37.2969,6.40625 37.2969,-0.09375 C37.2969,-6.59375 32.5,-13.5938 18.7031,-13.5938 M19.5,10.2031 C16.7031,10.2031 14.7969,9.40625 13.5,6.90625 C12.2031,4.40625 10.4063,-2.09375 10.2969,-4.70313 C10.0938,-7.40625 11.0938,-9 13.5,-9.79688 C14.7031,-10.2031 16.2969,-10.4063 17.9063,-10.4063 C20.5938,-10.4063 22.4063,-9.79688 23.7969,-7.09375 C25.2031,-4.5 27.1094,2 27.1094,4.5 C27.1094,9.40625 23.5,10.2031 19.5,10.2031"/>
<path class="Note" transform="matrix(0.992001,0,0,0.992001,718.633,510.199)" d="M18.7031,-13.5938 C4.90625,-13.5938 0,-6.59375 0,-0.09375 C0,6.40625 4.90625,13.4063 18.7031,13.4063 C32.5,13.4063 37.2969,6.40625 37.2969,-0.09375 C37.2969,-6.59375 32.5,-13.5938 18.7031,-13.5938 M19.5,10.2031 C16.7031,10.2031 14.7969,9.40625 13.5,6.90625 C12.2031,4.40625 10.4063,-2.09375 10.2969,-4.70313 C10.0938,-7.40625 11.0938,-9 13.5,-9.79688 C14.7031,-10.2031 16.2969,-10.4063 17.9063,-10.4063 C20.5938,-10.4063 22.4063,-9.79688 23.7969,-7.09375 C25.2031,-4.5 27.1094,2 27.1094,4.5 C27.1094,9.40625 23.5,10.2031 19.5,10.2031"/>
<path class="Note" transform="matrix(0.992001,0,0,0.992001,1748.72,723.969)" d="M18.7031,-13.5938 C4.90625,-13.5938 0,-6.59375 0,-0.09375 C0,6.40625 4.90625,13.4063 18.7031,13.4063 C32.5,13.4063 37.2969,6.40625 37.2969,-0.09375 C37.2969,-6.59375 32.5,-13.5938 18.7031,-13.5938 M19.5,10.2031 C16.7031,10.2031 14.7969,9.40625 13.5,6.90625 C12.2031,4.40625 10.4063,-2.09375 10.2969,-4.70313 C10.0938,-7.40625 11.0938,-9 13.5,-9.79688 C14.7031,-10.2031 16.2969,-10.4063 17.9063,-10.4063 C20.5938,-10.4063 22.4063,-9.79688 23.7969,-7.09375 C25.2031,-4.5 27.1094,2 27.1094,4.5 C27.1094,9.40625 23.5,10.2031 19.5,10.2031"/>
<path class="Note" transform="matrix(0.992001,0,0,0.992001,1336.68,699.169)" d="M18.7031,-13.5938 C4.90625,-13.5938 0,-6.59375 0,-0.09375 C0,6.40625 4.90625,13.4063 18.7031,13.4063 C32.5,13.4063 37.2969,6.40625 37.2969,-0.09375 C37.2969,-6.59375 32.5,-13.5938 18.7031,-13.5938 M19.5,10.2031 C16.7031,10.2031 14.7969,9.40625 13.5,6.90625 C12.2031,4.40625 10.4063,-2.09375 10.2969,-4.70313 C10.0938,-7.40625 11.0938,-9 13.5,-9.79688 C14.7031,-10.2031 16.2969,-10.4063 17.9063,-10.4063 C20.5938,-10.4063 22.4063,-9.79688 23.7969,-7.09375 C25.2031,-4.5 27.1094,2 27.1094,4.5 C27.1094,9.40625 23.5,10.2031 19.5,10.2031"/>
<path class="Note" transform="matrix(0.992001,0,0,0.992001,1130.67,686.769)" d="M18.7031,-13.5938 C4.90625,-13.5938 0,-6.59375 0,-0.09375 C0,6.40625 4.90625,13.4063 18.7031,13.4063 C32.5,13.4063 37.2969,6.40625 37.2969,-0.09375 C37.2969,-6.59375 32.5,-13.5938 18.7031,-13.5938 M19.5,10.2031 C16.7031,10.2031 14.7969,9.40625 13.5,6.90625 C12.2031,4.40625 10.4063,-2.09375 10.2969,-4.70313 C10.0938,-7.40625 11.0938,-9 13.5,-9.79688 C14.7031,-10.2031 16.2969,-10.4063 17.9063,-10.4063 C20.5938,-10.4063 22.4063,-9.79688 23.7969,-7.09375 C25.2031,-4.5 27.1094,2 27.1094,4.5 C27.1094,9.40625 23.5,10.2031 19.5,10.2031"/>
<path class="Note" transform="matrix(0.992001,0,0,0.992001,1954.73,736.369)" d="M18.7031,-13.5938 C4.90625,-13.5938 0,-6.59375 0,-0.09375 C0,6.40625 4.90625,13.4063 18.7031,13.4063 C32.5,13.4063 37.2969,6.40625 37.2969,-0.09375 C37.2969,-6.59375 32.5,-13.5938 18.7031,-13.5938 M19.5,10.2031 C16.7031,10.2031 14.7969,9.40625 13.5,6.90625 C12.2031,4.40625 10.4063,-2.09375 10.2969,-4.70313 C10.0938,-7.40625 11.0938,-9 13.5,-9.79688 C14.7031,-10.2031 16.2969,-10.4063 17.9063,-10.4063 C20.5938,-10.4063 22.4063,-9.79688 23.7969,-7.09375 C25.2031,-4.5 27.1094,2 27.1094,4.5 C27.1094,9.40625 23.5,10.2031 19.5,10.2031"/>
<path class="Note" transform="matrix(0.992001,0,0,0.992001,924.65,674.369)" d="M18.7031,-13.5938 C4.90625,-13.5938 0,-6.59375 0,-0.09375 C0,6.40625 4.90625,13.4063 18.7031,13.4063 C32.5,13.4063 37.2969,6.40625 37.2969,-0.09375 C37.2969,-6.59375 32.5,-13.5938 18.7031,-13.5938 M19.5,10.2031 C16.7031,10.2031 14.7969,9.40625 13.5,6.90625 C12.2031,4.40625 10.4063,-2.09375 10.2969,-4.70313 C10.0938,-7.40625 11.0938,-9 13.5,-9.79688 C14.7031,-10.2031 16.2969,-10.4063 17.9063,-10.4063 C20.5938,-10.4063 22.4063,-9.79688 23.7969,-7.09375 C25.2031,-4.5 27.1094,2 27.1094,4.5 C27.1094,9.40625 23.5,10.2031 19.5,10.2031"/>
<path class="Note" transform="matrix(0.992001,0,0,0.992001,718.633,661.969)" d="M18.7031,-13.5938 C4.90625,-13.5938 0,-6.59375 0,-0.09375 C0,6.40625 4.90625,13.4063 18.7031,13.4063 C32.5,13.4063 37.2969,6.40625 37.2969,-0.09375 C37.2969,-6.59375 32.5,-13.5938 18.7031,-13.5938 M19.5,10.2031 C16.7031,10.2031 14.7969,9.40625 13.5,6.90625 C12.2031,4.40625 10.4063,-2.09375 10.2969,-4.70313 C10.0938,-7.40625 11.0938,-9 13.5,-9.79688 C14.7031,-10.2031 16.2969,-10.4063 17.9063,-10.4063 C20.5938,-10.4063 22.4063,-9.79688 23.7969,-7.09375 C25.2031,-4.5 27.1094,2 27.1094,4.5 C27.1094,9.40625 23.5,10.2031 19.5,10.2031"/>
<path class="Note" transform="matrix(0.992001,0,0,0.992001,512.617,649.569)" d="M18.7031,-13.5938 C4.90625,-13.5938 0,-6.59375 0,-0.09375 C0,6.40625 4.90625,13.4063 18.7031,13.4063 C32.5,13.4063 37.2969,6.40625 37.2969,-0.09375 C37.2969,-6.59375 32.5,-13.5938 18.7031,-13.5938 M19.5,10.2031 C16.7031,10.2031 14.7969,9.40625 13.5,6.90625 C12.2031,4.40625 10.4063,-2.09375 10.2969,-4.70313 C10.0938,-7.40625 11.0938,-9 13.5,-9.79688 C14.7031,-10.2031 16.2969,-10.4063 17.9063,-10.4063 C20.5938,-10.4063 22.4063,-9.79688 23.7969,-7.09375 C25.2031,-4.5 27.1094,2 27.1094,4.5 C27.1094,9.40625 23.5,10.2031 19.5,10.2031"/>
<path class="Note" transform="matrix(0.992001,0,0,0.992001,1542.7,711.569)" d="M18.7031,-13.5938 C4.90625,-13.5938 0,-6.59375 0,-0.09375 C0,6.40625 4.90625,13.4063 18.7031,13.4063 C32.5,13.4063 37.2969,6.40625 37.2969,-0.09375 C37.2969,-6.59375 32.5,-13.5938 18.7031,-13.5938 M19.5,10.2031 C16.7031,10.2031 14.7969,9.40625 13.5,6.90625 C12.2031,4.40625 10.4063,-2.09375 10.2969,-4.70313 C10.0938,-7.40625 11.0938,-9 13.5,-9.79688 C14.7031,-10.2031 16.2969,-10.4063 17.9063,-10.4063 C20.5938,-10.4063 22.4063,-9.79688 23.7969,-7.09375 C25.2031,-4.5 27.1094,2 27.1094,4.5 C27.1094,9.40625 23.5,10.2031 19.5,10.2031"/>
<path class="Clef" transform="matrix(0.992001,0,0,0.992001,235.662,460.599)" d="M12.2969,51.2969 C12.2969,57.9063 17.2969,66.6094 30.7969,66.6094 C35.5,66.6094 39.6094,65.4063 43.2031,63.2031 C48.6094,59.4063 50,52.7969 50,46.5 C50,42.6094 49.4063,38.1094 48.4063,32.4063 C48.1094,30.4063 47.5,27.4063 46.9063,23.5 C56.7031,20.2969 64,10.0938 64,-0.203125 C64,-15.2969 53.2969,-25.5 38.7031,-25.5 C37.7031,-31.5 36.7031,-37.4063 35.9063,-43 C46.4063,-54.1094 53.7031,-66.6094 53.7031,-82.5 C53.7031,-91.6094 50.9063,-99 49.2969,-102.609 C46.9063,-107.703 44,-111.203 42.2031,-111.203 C41.5,-111.203 38.4063,-110 35.1094,-106.109 C28.7031,-98.5 26.9063,-85.7031 26.9063,-77.3125 C26.9063,-71.9063 27.4063,-67 29.1094,-55.7969 C29,-55.7031 23.7969,-50.4063 21.7031,-48.7031 C12.5938,-40.2969 0,-28.1094 0,-8.09375 C0,10.5938 16.2969,25.2969 34.9063,25.2969 C37.7969,25.2969 40.5,25 42.7969,24.5938 C44.7031,34.2031 45.9063,41.2031 45.9063,46.5 C45.9063,56.9063 40.5,62.4063 30.4063,62.4063 C28,62.4063 25.9063,61.9063 25.7031,61.9063 C25.6094,61.7969 25.4063,61.7031 25.4063,61.6094 C25.4063,61.4063 25.6094,61.2969 25.9063,61.2969 C30.6094,60.5 35.2969,56.5 35.2969,50.1094 C35.2969,44.7031 31.2031,39 23.7031,39 C16.7031,39 12.2969,44.7031 12.2969,51.2969 M33.2031,-82.2031 C34.1094,-86.2031 38.7031,-96.7031 43.9063,-96.7031 C45.4063,-96.7031 47.7969,-91.9063 47.7969,-84.9063 C47.7969,-74.5 40.1094,-66.7031 33.2031,-59.9063 C32.6094,-63.9063 32.1094,-67.7969 32.1094,-72 C32.1094,-75.7031 32.4063,-79.1094 33.2031,-82.2031 M42,20.5938 C40,21 38.1094,21.2031 36.2031,21.2031 C21.9063,21.2031 9.70313,11.2031 9.70313,-3.90625 C9.70313,-16.0938 18.2969,-27 27.1094,-34.6094 C28.7969,-36.1094 30.4063,-37.5 31.9063,-39 C32.7969,-33.6094 33.5,-28.9063 34.2031,-24.7969 C25.0938,-22.0938 18.9063,-12.5 18.9063,-3.09375 C18.9063,3.90625 24.4063,13.5 32.4063,13.5 C33.2031,13.5 34.1094,13.0938 34.1094,12.2031 C34.1094,11.2969 33.1094,10.7969 31.9063,10 C28,7.59375 25.7969,5 25.7969,0.09375 C25.7969,-6 30.4063,-10.9063 36.2031,-12.2969 L42,20.5938 M56.2031,2.09375 C56.2031,9.20313 53.2969,16.5 46.2031,19.4063 C44.1094,7.40625 41.4063,-8.5 40.7031,-12.9063 C49.7031,-12.9063 56.2031,-6.79688 56.2031,2.09375"/>
<path class="Clef" transform="matrix(0.992001,0,0,0.992001,235.662,686.769)" d="M25.4063,-25.0938 C17.7969,-25.0938 11.7031,-20.7031 11.5938,-20.7031 C5.70313,-16.4063 1.90625,-9.79688 1.90625,-2.5 C1.90625,4.79688 6.09375,10.2031 13.5,10.2031 C19.9063,10.2031 24.9063,5.90625 24.9063,-0.703125 C24.9063,-6.40625 19.9063,-11.0938 14.2969,-11.0938 C13.0938,-11.0938 12,-10.9063 11.0938,-10.5938 C10.0938,-10.2031 8.40625,-9.20313 7.59375,-8.5 C8.29688,-12.9063 11.2969,-17.2969 15.2031,-19.4063 C17.7031,-20.7969 20.9063,-21.4063 24.4063,-21.4063 C34.6094,-21.4063 39.6094,-13.2031 39.6094,3.59375 C39.6094,16.5938 31.2969,35.2969 21.5,44.1094 C11.0938,53.6094 1.29688,58.1094 1.20313,58.1094 C1.20313,58.1094 0,58.7969 0,60 C0,60.2031 0.09375,60.2969 0.09375,60.5 C0.40625,61.5 1.29688,61.7031 2,61.7031 L2.29688,61.6094 C2.5,61.6094 13.9063,56.9063 23,49.7969 C37,39.7031 52.7969,21.9063 52.7969,3.5 C52.7969,-13.9063 43.4063,-25.0938 25.4063,-25.0938 M56.7969,-12.4063 C56.7969,-9.59375 59,-7.40625 61.6094,-7.40625 C64.2031,-7.40625 66.4063,-9.59375 66.4063,-12.4063 C66.4063,-15.2031 64.2031,-17.5 61.6094,-17.5 C59,-17.5 56.7969,-15.2031 56.7969,-12.4063 M56.7969,12.2969 C56.7969,15.0938 59,17.4063 61.6094,17.4063 C64.2031,17.4063 66.4063,15.0938 66.4063,12.2969 C66.4063,9.5 64.2031,7.20313 61.6094,7.20313 C59,7.20313 56.7969,9.5 56.7969,12.2969"/>
<path class="KeySig" transform="matrix(0.992001,0,0,0.992001,320.122,386.199)" d="M23.2969,-10.5 C23.9063,-10.5938 24.4063,-11.2969 24.4063,-11.9063 L24.4063,-17.7969 C24.4063,-18.7969 23.7031,-19.2031 22.7969,-19.2031 L19.5,-18.5 L19.5,-33.4063 L16.7031,-33.4063 L16.7031,-17.9063 L7.79688,-16.0938 L7.79688,-30.2031 L5,-30.2031 L5,-15.5 L1.09375,-14.7031 C0.5,-14.5938 0,-13.9063 0,-13.2969 L0,-7.5 C0,-6.40625 0.796875,-6.09375 1.70313,-6.09375 L5,-6.79688 L5,9.70313 L1.09375,10.5 C0.5,10.5938 0,11.2969 0,11.9063 L0,17.7031 C0,18.7969 0.796875,19.0938 1.70313,19.0938 L5,18.4063 L5,33.2969 L7.79688,33.2969 L7.79688,17.7969 L16.7031,16 L16.7031,30.1094 L19.5,30.1094 L19.5,15.4063 L23.2969,14.7031 C23.9063,14.5938 24.4063,13.9063 24.4063,13.2969 L24.4063,7.40625 C24.4063,6.40625 23.7031,6 22.7969,6 L19.5,6.70313 L19.5,-9.79688 L23.2969,-10.5 M7.79688,-7.40625 L16.7031,-9.20313 L16.7031,7.29688 L7.79688,9.20313 L7.79688,-7.40625 "/>
<path class="KeySig" transform="matrix(0.992001,0,0,0.992001,347.294,423.399)" d="M23.2969,-10.5 C23.9063,-10.5938 24.4063,-11.2969 24.4063,-11.9063 L24.4063,-17.7969 C24.4063,-18.7969 23.7031,-19.2031 22.7969,-19.2031 L19.5,-18.5 L19.5,-33.4063 L16.7031,-33.4063 L16.7031,-17.9063 L7.79688,-16.0938 L7.79688,-30.2031 L5,-30.2031 L5,-15.5 L1.09375,-14.7031 C0.5,-14.5938 0,-13.9063 0,-13.2969 L0,-7.5 C0,-6.40625 0.796875,-6.09375 1.70313,-6.09375 L5,-6.79688 L5,9.70313 L1.09375,10.5 C0.5,10.5938 0,11.2969 0,11.9063 L0,17.7031 C0,18.7969 0.796875,19.0938 1.70313,19.0938 L5,18.4063 L5,33.2969 L7.79688,33.2969 L7.79688,17.7969 L16.7031,16 L16.7031,30.1094 L19.5,30.1094 L19.5,15.4063 L23.2969,14.7031 C23.9063,14.5938 24.4063,13.9063 24.4063,13.2969 L24.4063,7.40625 C24.4063,6.40625 23.7031,6 22.7969,6 L19.5,6.70313 L19.5,-9.79688 L23.2969,-10.5 M7.79688,-7.40625 L16.7031,-9.20313 L16.7031,7.29688 L7.79688,9.20313 L7.79688,-7.40625 "/>
<path class="KeySig" transform="matrix(0.992001,0,0,0.992001,374.45,373.799)" d="M23.2969,-10.5 C23.9063,-10.5938 24.4063,-11.2969 24.4063,-11.9063 L24.4063,-17.7969 C24.4063,-18.7969 23.7031,-19.2031 22.7969,-19.2031 L19.5,-18.5 L19.5,-33.4063 L16.7031,-33.4063 L16.7031,-17.9063 L7.79688,-16.0938 L7.79688,-30.2031 L5,-30.2031 L5,-15.5 L1.09375,-14.7031 C0.5,-14.5938 0,-13.9063 0,-13.2969 L0,-7.5 C0,-6.40625 0.796875,-6.09375 1.70313,-6.09375 L5,-6.79688 L5,9.70313 L1.09375,10.5 C0.5,10.5938 0,11.2969 0,11.9063 L0,17.7031 C0,18.7969 0.796875,19.0938 1.70313,19.0938 L5,18.4063 L5,33.2969 L7.79688,33.2969 L7.79688,17.7969 L16.7031,16 L16.7031,30.1094 L19.5,30.1094 L19.5,15.4063 L23.2969,14.7031 C23.9063,14.5938 24.4063,13.9063 24.4063,13.2969 L24.4063,7.40625 C24.4063,6.40625 23.7031,6 22.7969,6 L19.5,6.70313 L19.5,-9.79688 L23.2969,-10.5 M7.79688,-7.40625 L16.7031,-9.20313 L16.7031,7.29688 L7.79688,9.20313 L7.79688,-7.40625 "/>
<path class="KeySig" transform="matrix(0.992001,0,0,0.992001,401.621,410.999)" d="M23.2969,-10.5 C23.9063,-10.5938 24.4063,-11.2969 24.4063,-11.9063 L24.4063,-17.7969 C24.4063,-18.7969 23.7031,-19.2031 22.7969,-19.2031 L19.5,-18.5 L19.5,-33.4063 L16.7031,-33.4063 L16.7031,-17.9063 L7.79688,-16.0938 L7.79688,-30.2031 L5,-30.2031 L5,-15.5 L1.09375,-14.7031 C0.5,-14.5938 0,-13.9063 0,-13.2969 L0,-7.5 C0,-6.40625 0.796875,-6.09375 1.70313,-6.09375 L5,-6.79688 L5,9.70313 L1.09375,10.5 C0.5,10.5938 0,11.2969 0,11.9063 L0,17.7031 C0,18.7969 0.796875,19.0938 1.70313,19.0938 L5,18.4063 L5,33.2969 L7.79688,33.2969 L7.79688,17.7969 L16.7031,16 L16.7031,30.1094 L19.5,30.1094 L19.5,15.4063 L23.2969,14.7031 C23.9063,14.5938 24.4063,13.9063 24.4063,13.2969 L24.4063,7.40625 C24.4063,6.40625 23.7031,6 22.7969,6 L19.5,6.70313 L19.5,-9.79688 L23.2969,-10.5 M7.79688,-7.40625 L16.7031,-9.20313 L16.7031,7.29688 L7.79688,9.20313 L7.79688,-7.40625 "/>
<path class="KeySig" transform="matrix(0.992001,0,0,0.992001,428.793,448.199)" d="M23.2969,-10.5 C23.9063,-10.5938 24.4063,-11.2969 24.4063,-11.9063 L24.4063,-17.7969 C24.4063,-18.7969 23.7031,-19.2031 22.7969,-19.2031 L19.5,-18.5 L19.5,-33.4063 L16.7031,-33.4063 L16.7031,-17.9063 L7.79688,-16.0938 L7.79688,-30.2031 L5,-30.2031 L5,-15.5 L1.09375,-14.7031 C0.5,-14.5938 0,-13.9063 0,-13.2969 L0,-7.5 C0,-6.40625 0.796875,-6.09375 1.70313,-6.09375 L5,-6.79688 L5,9.70313 L1.09375,10.5 C0.5,10.5938 0,11.2969 0,11.9063 L0,17.7031 C0,18.7969 0.796875,19.0938 1.70313,19.0938 L5,18.4063 L5,33.2969 L7.79688,33.2969 L7.79688,17.7969 L16.7031,16 L16.7031,30.1094 L19.5,30.1094 L19.5,15.4063 L23.2969,14.7031 C23.9063,14.5938 24.4063,13.9063 24.4063,13.2969 L24.4063,7.40625 C24.4063,6.40625 23.7031,6 22.7969,6 L19.5,6.70313 L19.5,-9.79688 L23.2969,-10.5 M7.79688,-7.40625 L16.7031,-9.20313 L16.7031,7.29688 L7.79688,9.20313 L7.79688,-7.40625 "/>
<path class="KeySig" transform="matrix(0.992001,0,0,0.992001,2164.97,435.799)" d="M12,-15.5 C7,-15.5 4.09375,-12.4063 3.59375,-11.7969 L4,-43.9063 C4,-44.7031 3.40625,-45.2969 2.59375,-45.2969 L1.40625,-45.2969 C0.59375,-45.2969 0,-44.7031 0,-43.9063 L0.5,16.2031 C0.5,17 1.09375,17.5938 1.90625,17.5938 C2.09375,17.5938 2.5,17.5 2.70313,17.4063 C11.2969,13.0938 20.2969,4.90625 20.2969,-5.40625 C20.2969,-10.5938 17.9063,-15.5 12,-15.5 M3.29688,12.7031 L3.59375,-6.79688 C3.79688,-7.70313 5.29688,-10.5938 9.29688,-10.5938 C12.9063,-10.5938 13.2031,-7.20313 13.2031,-5.09375 C13.2031,3.79688 9.90625,7.5 3.29688,12.7031"/>
<path class="KeySig" transform="matrix(0.992001,0,0,0.992001,2192.54,398.599)" d="M12,-15.5 C7,-15.5 4.09375,-12.4063 3.59375,-11.7969 L4,-43.9063 C4,-44.7031 3.40625,-45.2969 2.59375,-45.2969 L1.40625,-45.2969 C0.59375,-45.2969 0,-44.7031 0,-43.9063 L0.5,16.2031 C0.5,17 1.09375,17.5938 1.90625,17.5938 C2.09375,17.5938 2.5,17.5 2.70313,17.4063 C11.2969,13.0938 20.2969,4.90625 20.2969,-5.40625 C20.2969,-10.5938 17.9063,-15.5 12,-15.5 M3.29688,12.7031 L3.59375,-6.79688 C3.79688,-7.70313 5.29688,-10.5938 9.29688,-10.5938 C12.9063,-10.5938 13.2031,-7.20313 13.2031,-5.09375 C13.2031,3.79688 9.90625,7.5 3.29688,12.7031"/>
<path class="KeySig" transform="matrix(0.992001,0,0,0.992001,2220.11,448.199)" d="M12,-15.5 C7,-15.5 4.09375,-12.4063 3.59375,-11.7969 L4,-43.9063 C4,-44.7031 3.40625,-45.2969 2.59375,-45.2969 L1.40625,-45.2969 C0.59375,-45.2969 0,-44.7031 0,-43.9063 L0.5,16.2031 C0.5,17 1.09375,17.5938 1.90625,17.5938 C2.09375,17.5938 2.5,17.5 2.70313,17.4063 C11.2969,13.0938 20.2969,4.90625 20.2969,-5.40625 C20.2969,-10.5938 17.9063,-15.5 12,-15.5 M3.29688,12.7031 L3.59375,-6.79688 C3.79688,-7.70313 5.29688,-10.5938 9.29688,-10.5938 C12.9063,-10.5938 13.2031,-7.20313 13.2031,-5.09375 C13.2031,3.79688 9.90625,7.5 3.29688,12.7031"/>
<path class="KeySig" transform="matrix(0.992001,0,0,0.992001,2247.69,410.999)" d="M12,-15.5 C7,-15.5 4.09375,-12.4063 3.59375,-11.7969 L4,-43.9063 C4,-44.7031 3.40625,-45.2969 2.59375,-45.2969 L1.40625,-45.2969 C0.59375,-45.2969 0,-44.7031 0,-43.9063 L0.5,16.2031 C0.5,17 1.09375,17.5938 1.90625,17.5938 C2.09375,17.5938 2.5,17.5 2.70313,17.4063 C11.2969,13.0938 20.2969,4.90625 20.2969,-5.40625 C20.2969,-10.5938 17.9063,-15.5 12,-15.5 M3.29688,12.7031 L3.59375,-6.79688 C3.79688,-7.70313 5.29688,-10.5938 9.29688,-10.5938 C12.9063,-10.5938 13.2031,-7.20313 13.2031,-5.09375 C13.2031,3.79688 9.90625,7.5 3.29688,12.7031"/>
<path class="KeySig" transform="matrix(0.992001,0,0,0.992001,2275.26,460.599)" d="M12,-15.5 C7,-15.5 4.09375,-12.4063 3.59375,-11.7969 L4,-43.9063 C4,-44.7031 3.40625,-45.2969 2.59375,-45.2969 L1.40625,-45.2969 C0.59375,-45.2969 0,-44.7031 0,-43.9063 L0.5,16.2031 C0.5,17 1.09375,17.5938 1.90625,17.5938 C2.09375,17.5938 2.5,17.5 2.70313,17.4063 C11.2969,13.0938 20.2969,4.90625 20.2969,-5.40625 C20.2969,-10.5938 17.9063,-15.5 12,-15.5 M3.29688,12.7031 L3.59375,-6.79688 C3.79688,-7.70313 5.29688,-10.5938 9.29688,-10.5938 C12.9063,-10.5938 13.2031,-7.20313 13.2031,-5.09375 C13.2031,3.79688 9.90625,7.5 3.29688,12.7031"/>
<path class="KeySig" transform="matrix(0.992001,0,0,0.992001,320.122,686.769)" d="M23.2969,-10.5 C23.9063,-10.5938 24.4063,-11.2969 24.4063,-11.9063 L24.4063,-17.7969 C24.4063,-18.7969 23.7031,-19.2031 22.7969,-19.2031 L19.5,-18.5 L19.5,-33.4063 L16.7031,-33.4063 L16.7031,-17.9063 L7.79688,-16.0938 L7.79688,-30.2031 L5,-30.2031 L5,-15.5 L1.09375,-14.7031 C0.5,-14.5938 0,-13.9063 0,-13.2969 L0,-7.5 C0,-6.40625 0.796875,-6.09375 1.70313,-6.09375 L5,-6.79688 L5,9.70313 L1.09375,10.5 C0.5,10.5938 0,11.2969 0,11.9063 L0,17.7031 C0,18.7969 0.796875,19.0938 1.70313,19.0938 L5,18.4063 L5,33.2969 L7.79688,33.2969 L7.79688,17.7969 L16.7031,16 L16.7031,30.1094 L19.5,30.1094 L19.5,15.4063 L23.2969,14.7031 C23.9063,14.5938 24.4063,13.9063 24.4063,13.2969 L24.4063,7.40625 C24.4063,6.40625 23.7031,6 22.7969,6 L19.5,6.70313 L19.5,-9.79688 L23.2969,-10.5 M7.79688,-7.40625 L16.7031,-9.20313 L16.7031,7.29688 L7.79688,9.20313 L7.79688,-7.40625 "/>
<path class="KeySig" transform="matrix(0.992001,0,0,0.992001,347.294,723.969)" d="M23.2969,-10.5 C23.9063,-10.5938 24.4063,-11.2969 24.4063,-11.9063 L24.4063,-17.7969 C24.4063,-18.7969 23.7031,-19.2031 22.7969,-19.2031 L19.5,-18.5 L19.5,-33.4063 L16.7031,-33.4063 L16.7031,-17.9063 L7.79688,-16.0938 L7.79688,-30.2031 L5,-30.2031 L5,-15.5 L1.09375,-14.7031 C0.5,-14.5938 0,-13.9063 0,-13.2969 L0,-7.5 C0,-6.40625 0.796875,-6.09375 1.70313,-6.09375 L5,-6.79688 L5,9.70313 L1.09375,10.5 C0.5,10.5938 0,11.2969 0,11.9063 L0,17.7031 C0,18.7969 0.796875,19.0938 1.70313,19.0938 L5,18.4063 L5,33.2969 L7.79688,33.2969 L7.79688,17.7969 L16.7031,16 L16.7031,30.1094 L19.5,30.1094 L19.5,15.4063 L23.2969,14.7031 C23.9063,14.5938 24.4063,13.9063 24.4063,13.2969 L24.4063,7.40625 C24.4063,6.40625 23.7031,6 22.7969,6 L19.5,6.70313 L19.5,-9.79688 L23.2969,-10.5 M7.79688,-7.40625 L16.7031,-9.20313 L16.7031,7.29688 L7.79688,9.20313 L7.79688,-7.40625 "/>
<path class="KeySig" transform="matrix(0.992001,0,0,0.992001,374.45,674.369)" d="M23.2969,-10.5 C23.9063,-10.5938 24.4063,-11.2969 24.4063,-11.9063 L24.4063,-17.7969 C24.4063,-18.7969 23.7031,-19.2031 22.7969,-19.2031 L19.5,-18.5 L19.5,-33.4063 L16.7031,-33.4063 L16.7031,-17.9063 L7.79688,-16.0938 L7.79688,-30.2031 L5,-30.2031 L5,-15.5 L1.09375,-14.7031 C0.5,-14.5938 0,-13.9063 0,-13.2969 L0,-7.5 C0,-6.40625 0.796875,-6.09375 1.70313,-6.09375 L5,-6.79688 L5,9.70313 L1.09375,10.5 C0.5,10.5938 0,11.2969 0,11.9063 L0,17.7031 C0,18.7969 0.796875,19.0938 1.70313,19.0938 L5,18.4063 L5,33.2969 L7.79688,33.2969 L7.79688,17.7969 L16.7031,16 L16.7031,30.1094 L19.5,30.1094 L19.5,15.4063 L23.2969,14.7031 C23.9063,14.5938 24.4063,13.9063 24.4063,13.2969 L24.4063,7.40625 C24.4063,6.40625 23.7031,6 22.7969,6 L19.5,6.70313 L19.5,-9.79688 L23.2969,-10.5 M7.79688,-7.40625 L16.7031,-9.20313 L16.7031,7.29688 L7.79688,9.20313 L7.79688,-7.40625 "/>
<path class="KeySig" transform="matrix(0.992001,0,0,0.992001,401.621,711.569)" d="M23.2969,-10.5 C23.9063,-10.5938 24.4063,-11.2969 24.4063,-11.9063 L24.4063,-17.7969 C24.4063,-18.7969 23.7031,-19.2031 22.7969,-19.2031 L19.5,-18.5 L19.5,-33.4063 L16.7031,-33.4063 L16.7031,-17.9063 L7.79688,-16.0938 L7.79688,-30.2031 L5,-30.2031 L5,-15.5 L1.09375,-14.7031 C0.5,-14.5938 0,-13.9063 0,-13.2969 L0,-7.5 C0,-6.40625 0.796875,-6.09375 1.70313,-6.09375 L5,-6.79688 L5,9.70313 L1.09375,10.5 C0.5,10.5938 0,11.2969 0,11.9063 L0,17.7031 C0,18.7969 0.796875,19.0938 1.70313,19.0938 L5,18.4063 L5,33.2969 L7.79688,33.2969 L7.79688,17.7969 L16.7031,16 L16.7031,30.1094 L19.5,30.1094 L19.5,15.4063 L23.2969,14.7031 C23.9063,14.5938 24.4063,13.9063 24.4063,13.2969 L24.4063,7.40625 C24.4063,6.40625 23.7031,6 22.7969,6 L19.5,6.70313 L19.5,-9.79688 L23.2969,-10.5 M7.79688,-7.40625 L16.7031,-9.20313 L16.7031,7.29688 L7.79688,9.20313 L7.79688,-7.40625 "/>
<path class="KeySig" transform="matrix(0.992001,0,0,0.992001,428.793,748.769)" d="M23.2969,-10.5 C23.9063,-10.5938 24.4063,-11.2969 24.4063,-11.9063 L24.4063,-17.7969 C24.4063,-18.7969 23.7031,-19.2031 22.7969,-19.2031 L19.5,-18.5 L19.5,-33.4063 L16.7031,-33.4063 L16.7031,-17.9063 L7.79688,-16.0938 L7.79688,-30.2031 L5,-30.2031 L5,-15.5 L1.09375,-14.7031 C0.5,-14.5938 0,-13.9063 0,-13.2969 L0,-7.5 C0,-6.40625 0.796875,-6.09375 1.70313,-6.09375 L5,-6.79688 L5,9.70313 L1.09375,10.5 C0.5,10.5938 0,11.2969 0,11.9063 L0,17.7031 C0,18.7969 0.796875,19.0938 1.70313,19.0938 L5,18.4063 L5,33.2969 L7.79688,33.2969 L7.79688,17.7969 L16.7031,16 L16.7031,30.1094 L19.5,30.1094 L19.5,15.4063 L23.2969,14.7031 C23.9063,14.5938 24.4063,13.9063 24.4063,13.2969 L24.4063,7.40625 C24.4063,6.40625 23.7031,6 22.7969,6 L19.5,6.70313 L19.5,-9.79688 L23.2969,-10.5 M7.79688,-7.40625 L16.7031,-9.20313 L16.7031,7.29688 L7.79688,9.20313 L7.79688,-7.40625 "/>
<path class="KeySig" transform="matrix(0.992001,0,0,0.992001,2164.97,736.369)" d="M12,-15.5 C7,-15.5 4.09375,-12.4063 3.59375,-11.7969 L4,-43.9063 C4,-44.7031 3.40625,-45.2969 2.59375,-45.2969 L1.40625,-45.2969 C0.59375,-45.2969 0,-44.7031 0,-43.9063 L0.5,16.2031 C0.5,17 1.09375,17.5938 1.90625,17.5938 C2.09375,17.5938 2.5,17.5 2.70313,17.4063 C11.2969,13.0938 20.2969,4.90625 20.2969,-5.40625 C20.2969,-10.5938 17.9063,-15.5 12,-15.5 M3.29688,12.7031 L3.59375,-6.79688 C3.79688,-7.70313 5.29688,-10.5938 9.29688,-10.5938 C12.9063,-10.5938 13.2031,-7.20313 13.2031,-5.09375 C13.2031,3.79688 9.90625,7.5 3.29688,12.7031"/>
<path class="KeySig" transform="matrix(0.992001,0,0,0.992001,2192.54,699.169)" d="M12,-15.5 C7,-15.5 4.09375,-12.4063 3.59375,-11.7969 L4,-43.9063 C4,-44.7031 3.40625,-45.2969 2.59375,-45.2969 L1.40625,-45.2969 C0.59375,-45.2969 0,-44.7031 0,-43.9063 L0.5,16.2031 C0.5,17 1.09375,17.5938 1.90625,17.5938 C2.09375,17.5938 2.5,17.5 2.70313,17.4063 C11.2969,13.0938 20.2969,4.90625 20.2969,-5.40625 C20.2969,-10.5938 17.9063,-15.5 12,-15.5 M3.29688,12.7031 L3.59375,-6.79688 C3.79688,-7.70313 5.29688,-10.5938 9.29688,-10.5938 C12.9063,-10.5938 13.2031,-7.20313 13.2031,-5.09375 C13.2031,3.79688 9.90625,7.5 3.29688,12.7031"/>
<path class="KeySig" transform="matrix(0.992001,0,0,0.992001,2220.11,748.769)" d="M12,-15.5 C7,-15.5 4.09375,-12.4063 3.59375,-11.7969 L4,-43.9063 C4,-44.7031 3.40625,-45.2969 2.59375,-45.2969 L1.40625,-45.2969 C0.59375,-45.2969 0,-44.7031 0,-43.9063 L0.5,16.2031 C0.5,17 1.09375,17.5938 1.90625,17.5938 C2.09375,17.5938 2.5,17.5 2.70313,17.4063 C11.2969,13.0938 20.2969,4.90625 20.2969,-5.40625 C20.2969,-10.5938 17.9063,-15.5 12,-15.5 M3.29688,12.7031 L3.59375,-6.79688 C3.79688,-7.70313 5.29688,-10.5938 9.29688,-10.5938 C12.9063,-10.5938 13.2031,-7.20313 13.2031,-5.09375 C13.2031,3.79688 9.90625,7.5 3.29688,12.7031"/>
<path class="KeySig" transform="matrix(0.992001,0,0,0.992001,2247.69,711.569)" d="M12,-15.5 C7,-15.5 4.09375,-12.4063 3.59375,-11.7969 L4,-43.9063 C4,-44.7031 3.40625,-45.2969 2.59375,-45.2969 L1.40625,-45.2969 C0.59375,-45.2969 0,-44.7031 0,-43.9063 L0.5,16.2031 C0.5,17 1.09375,17.5938 1.90625,17.5938 C2.09375,17.5938 2.5,17.5 2.70313,17.4063 C11.2969,13.0938 20.2969,4.90625 20.2969,-5.40625 C20.2969,-10.5938 17.9063,-15.5 12,-15.5 M3.29688,12.7031 L3.59375,-6.79688 C3.79688,-7.70313 5.29688,-10.5938 9.29688,-10.5938 C12.9063,-10.5938 13.2031,-7.20313 13.2031,-5.09375 C13.2031,3.79688 9.90625,7.5 3.29688,12.7031"/>
<path class="KeySig" transform="matrix(0.992001,0,0,0.992001,2275.26,761.169)" d="M12,-15.5 C7,-15.5 4.09375,-12.4063 3.59375,-11.7969 L4,-43.9063 C4,-44.7031 3.40625,-45.2969 2.59375,-45.2969 L1.40625,-45.2969 C0.59375,-45.2969 0,-44.7031 0,-43.9063 L0.5,16.2031 C0.5,17 1.09375,17.5938 1.90625,17.5938 C2.09375,17.5938 2.5,17.5 2.70313,17.4063 C11.2969,13.0938 20.2969,4.90625 20.2969,-5.40625 C20.2969,-10.5938 17.9063,-15.5 12,-15.5 M3.29688,12.7031 L3.59375,-6.79688 C3.79688,-7.70313 5.29688,-10.5938 9.29688,-10.5938 C12.9063,-10.5938 13.2031,-7.20313 13.2031,-5.09375 C13.2031,3.79688 9.90625,7.5 3.29688,12.7031"/>
<path class="Lyrics" d="M1549.4,560.931 L1540.15,561.494 L1540.15,563.635 L1542.61,563.635 C1544.45,563.681 1544.7,563.994 1544.7,566.135 L1544.7,593.994 C1544.65,594.744 1544.61,595.041 1544.4,595.291 C1544.04,595.744 1543.11,595.947 1540.95,595.994 L1540.61,595.994 L1540.61,597.791 L1553.54,597.791 L1553.54,595.994 L1553.2,595.994 C1549.86,595.885 1549.4,595.635 1549.4,593.838 L1549.4,560.931 M1577.79,581.697 C1577.79,578.541 1577.25,576.947 1575.79,575.744 C1574.15,574.385 1571.7,573.744 1568.5,573.744 C1562.86,573.744 1558.75,576.385 1558.75,580.041 C1558.75,581.885 1559.9,583.088 1561.65,583.088 C1563.25,583.088 1564.36,582.041 1564.36,580.541 C1564.36,579.885 1564.11,579.197 1563.61,578.494 C1563.29,578.135 1563.25,578.041 1563.25,577.791 C1563.25,576.791 1565.25,575.885 1567.65,575.885 C1569.25,575.885 1571,576.385 1571.79,577.135 C1572.75,577.947 1573.11,579.135 1573.11,581.385 L1573.11,583.338 C1567.9,584.244 1566.25,584.635 1563.79,585.588 C1559.45,587.197 1557.4,589.494 1557.4,592.697 C1557.4,596.291 1560.2,598.541 1564.65,598.541 C1568.11,598.541 1571.2,597.135 1573.36,594.588 C1574.15,597.135 1575.4,598.135 1577.75,598.135 C1580,598.135 1582.36,596.697 1582.36,595.244 C1582.36,594.885 1582.15,594.635 1581.86,594.635 C1581.65,594.635 1581.45,594.697 1581.11,594.838 C1580.4,595.135 1580.11,595.197 1579.7,595.197 C1578.29,595.197 1577.79,594.291 1577.79,591.744 L1577.79,581.697 M1573.11,587.791 C1573.11,590.791 1572.95,591.494 1572.11,592.791 C1570.86,594.635 1568.61,595.885 1566.4,595.885 C1564.11,595.885 1562.45,594.244 1562.45,591.994 C1562.45,589.885 1563.5,588.385 1565.7,587.338 C1567.25,586.635 1569.2,586.135 1573.11,585.494 L1573.11,587.791 "/>
<path class="Lyrics" d="M522.616,598.135 L531.319,597.791 L531.319,595.635 L530.413,595.635 C527.569,595.494 527.319,595.197 527.319,591.994 L527.319,560.931 L517.522,561.494 L517.522,563.635 L520.46,563.635 C522.366,563.681 522.616,563.994 522.616,566.135 L522.616,577.447 C520.772,574.885 518.616,573.744 515.71,573.744 C510.069,573.744 505.772,579.197 505.772,586.385 C505.772,593.494 509.913,598.541 515.71,598.541 C518.866,598.541 521.022,597.197 522.616,594.197 L522.616,598.135 M516.71,576.447 C518.772,576.447 520.71,577.947 521.616,580.244 C522.272,581.744 522.569,583.791 522.569,586.244 C522.569,592.088 520.272,595.838 516.663,595.838 C513.116,595.838 511.022,592.541 511.022,586.994 C511.022,583.994 511.319,581.744 511.96,580.088 C512.819,577.838 514.663,576.447 516.71,576.447 M545.21,573.744 C539.069,573.744 534.319,579.197 534.319,586.197 C534.319,593.041 539.116,598.541 545.116,598.541 C551.116,598.541 555.913,593.041 555.913,586.135 C555.913,579.291 551.116,573.744 545.21,573.744 M545.21,575.885 C548.71,575.885 550.663,579.541 550.663,586.135 C550.663,592.791 548.71,596.385 545.116,596.385 C541.522,596.385 539.569,592.791 539.569,586.197 C539.569,579.385 541.46,575.885 545.21,575.885"/>
<path class="Lyrics" d="M1766.72,573.947 L1764.97,573.947 L1763.51,575.744 C1761.72,574.338 1759.92,573.744 1757.42,573.744 C1753.01,573.744 1750.12,576.588 1750.12,580.994 C1750.12,585.697 1753.17,586.885 1757.17,587.838 L1759.81,588.447 C1763.76,589.385 1765.17,590.385 1765.17,592.385 C1765.17,594.744 1763.12,596.385 1760.22,596.385 C1755.97,596.385 1752.97,593.697 1751.76,588.697 L1749.76,588.697 L1749.76,598.135 L1751.51,598.135 L1753.26,596.088 C1755.31,597.744 1757.56,598.541 1760.12,598.541 C1765.01,598.541 1768.26,595.494 1768.26,590.838 C1768.26,588.635 1767.56,586.947 1766.17,585.791 C1764.97,584.744 1763.97,584.338 1760.92,583.697 L1758.42,583.135 C1755.67,582.541 1755.67,582.541 1754.76,582.041 C1753.67,581.541 1753.01,580.494 1753.01,579.385 C1753.01,577.338 1754.92,575.947 1757.67,575.947 C1761.76,575.947 1763.76,578.838 1764.97,582.338 L1766.72,582.338 L1766.72,573.947 M1778.17,562.041 C1776.56,562.041 1775.26,563.338 1775.26,564.931 C1775.26,566.541 1776.56,567.838 1778.12,567.838 C1779.76,567.838 1781.06,566.541 1781.06,564.931 C1781.06,563.338 1779.76,562.041 1778.17,562.041 M1780.51,574.494 L1771.12,575.041 L1771.12,577.197 L1773.67,577.197 C1775.56,577.244 1775.81,577.541 1775.81,579.697 L1775.81,593.994 C1775.76,594.744 1775.72,595.041 1775.51,595.291 C1775.17,595.744 1774.22,595.947 1772.06,595.994 L1771.72,595.994 L1771.72,597.791 L1784.67,597.791 L1784.67,595.994 L1784.31,595.994 C1780.97,595.885 1780.51,595.635 1780.51,593.838 L1780.51,574.494 "/>
<path class="Lyrics" d="M1342.18,573.947 L1340.43,573.947 L1338.98,575.744 C1337.18,574.338 1335.39,573.744 1332.89,573.744 C1328.48,573.744 1325.59,576.588 1325.59,580.994 C1325.59,585.697 1328.64,586.885 1332.64,587.838 L1335.28,588.447 C1339.23,589.385 1340.64,590.385 1340.64,592.385 C1340.64,594.744 1338.59,596.385 1335.68,596.385 C1331.43,596.385 1328.43,593.697 1327.23,588.697 L1325.23,588.697 L1325.23,598.135 L1326.98,598.135 L1328.73,596.088 C1330.78,597.744 1333.03,598.541 1335.59,598.541 C1340.48,598.541 1343.73,595.494 1343.73,590.838 C1343.73,588.635 1343.03,586.947 1341.64,585.791 C1340.43,584.744 1339.43,584.338 1336.39,583.697 L1333.89,583.135 C1331.14,582.541 1331.14,582.541 1330.23,582.041 C1329.14,581.541 1328.48,580.494 1328.48,579.385 C1328.48,577.338 1330.39,575.947 1333.14,575.947 C1337.23,575.947 1339.23,578.838 1340.43,582.338 L1342.18,582.338 L1342.18,573.947 M1358.28,573.744 C1352.14,573.744 1347.39,579.197 1347.39,586.197 C1347.39,593.041 1352.18,598.541 1358.18,598.541 C1364.18,598.541 1368.98,593.041 1368.98,586.135 C1368.98,579.291 1364.18,573.744 1358.28,573.744 M1358.28,575.885 C1361.78,575.885 1363.73,579.541 1363.73,586.135 C1363.73,592.791 1361.78,596.385 1358.18,596.385 C1354.59,596.385 1352.64,592.791 1352.64,586.197 C1352.64,579.385 1354.53,575.885 1358.28,575.885 M1380.89,560.931 L1371.64,561.494 L1371.64,563.635 L1374.09,563.635 C1375.93,563.681 1376.18,563.994 1376.18,566.135 L1376.18,593.994 C1376.14,594.744 1376.09,595.041 1375.89,595.291 C1375.53,595.744 1374.59,595.947 1372.43,595.994 L1372.09,595.994 L1372.09,597.791 L1385.03,597.791 L1385.03,595.994 L1384.68,595.994 C1381.34,595.885 1380.89,595.635 1380.89,593.838 L1380.89,560.931 "/>
<path class="Lyrics" d="M1964.73,598.135 L1973.44,597.791 L1973.44,595.635 L1972.53,595.635 C1969.69,595.494 1969.44,595.197 1969.44,591.994 L1969.44,560.931 L1959.64,561.494 L1959.64,563.635 L1962.58,563.635 C1964.48,563.681 1964.73,563.994 1964.73,566.135 L1964.73,577.447 C1962.89,574.885 1960.73,573.744 1957.83,573.744 C1952.19,573.744 1947.89,579.197 1947.89,586.385 C1947.89,593.494 1952.03,598.541 1957.83,598.541 C1960.98,598.541 1963.14,597.197 1964.73,594.197 L1964.73,598.135 M1958.83,576.447 C1960.89,576.447 1962.83,577.947 1963.73,580.244 C1964.39,581.744 1964.69,583.791 1964.69,586.244 C1964.69,592.088 1962.39,595.838 1958.78,595.838 C1955.23,595.838 1953.14,592.541 1953.14,586.994 C1953.14,583.994 1953.44,581.744 1954.08,580.088 C1954.94,577.838 1956.78,576.447 1958.83,576.447 M1987.33,573.744 C1981.19,573.744 1976.44,579.197 1976.44,586.197 C1976.44,593.041 1981.23,598.541 1987.23,598.541 C1993.23,598.541 1998.03,593.041 1998.03,586.135 C1998.03,579.291 1993.23,573.744 1987.33,573.744 M1987.33,575.885 C1990.83,575.885 1992.78,579.541 1992.78,586.135 C1992.78,592.791 1990.83,596.385 1987.23,596.385 C1983.64,596.385 1981.69,592.791 1981.69,586.197 C1981.69,579.385 1983.58,575.885 1987.33,575.885"/>
<path class="Lyrics" d="M923.196,574.494 L914.305,575.041 L914.305,577.197 L916.352,577.197 C918.243,577.244 918.493,577.541 918.493,579.697 L918.493,593.994 C918.446,594.744 918.399,595.041 918.196,595.291 C917.852,595.744 916.899,595.947 914.743,595.994 L914.555,595.994 L914.555,597.791 L927.149,597.791 L927.149,595.994 L926.946,595.994 C923.649,595.885 923.196,595.635 923.196,593.791 L923.196,584.541 C923.196,580.088 925.649,576.791 928.899,576.791 C931.743,576.791 933.196,578.838 933.196,582.885 L933.196,594.041 C933.149,594.697 933.102,595.041 932.852,595.291 C932.555,595.744 931.555,595.947 929.399,595.994 L929.196,595.994 L929.196,597.791 L941.852,597.791 L941.852,595.994 L941.649,595.994 C938.352,595.885 937.899,595.635 937.899,593.838 L937.899,584.994 C937.899,579.994 940.149,576.791 943.649,576.791 C946.509,576.791 947.899,578.947 947.899,583.447 L947.899,593.994 C947.852,594.697 947.805,595.041 947.555,595.291 C947.259,595.744 946.259,595.947 944.102,595.994 L943.899,595.994 L943.899,597.791 L956.555,597.791 L956.555,595.994 L956.352,595.994 C953.055,595.885 952.602,595.635 952.602,593.791 L952.602,582.447 C952.602,579.338 952.305,578.291 951.009,576.588 C949.555,574.744 947.509,573.744 945.102,573.744 C941.852,573.744 939.446,575.291 937.305,578.744 C936.446,575.744 933.743,573.744 930.399,573.744 C927.352,573.744 925.149,575.197 923.196,578.338 L923.196,574.494 M965.102,562.041 C963.493,562.041 962.196,563.338 962.196,564.931 C962.196,566.541 963.493,567.838 965.055,567.838 C966.696,567.838 967.993,566.541 967.993,564.931 C967.993,563.338 966.696,562.041 965.102,562.041 M967.446,574.494 L958.055,575.041 L958.055,577.197 L960.602,577.197 C962.493,577.244 962.743,577.541 962.743,579.697 L962.743,593.994 C962.696,594.744 962.649,595.041 962.446,595.291 C962.102,595.744 961.149,595.947 958.993,595.994 L958.649,595.994 L958.649,597.791 L971.602,597.791 L971.602,595.994 L971.243,595.994 C967.899,595.885 967.446,595.635 967.446,593.838 L967.446,574.494 "/>
<path class="Lyrics" d="M723.539,574.494 L714.68,575.041 L714.68,577.197 L716.726,577.197 C718.633,577.244 718.883,577.541 718.883,579.697 L718.883,593.994 C718.836,594.744 718.789,595.041 718.586,595.291 C718.226,595.744 717.226,595.947 715.086,595.994 L714.883,595.994 L714.883,597.791 L728.226,597.791 L728.226,595.994 L727.336,595.994 C723.976,595.885 723.539,595.635 723.539,593.838 L723.539,591.135 C723.586,582.744 726.586,576.338 730.476,576.135 C729.789,576.947 729.586,577.447 729.586,578.385 C729.586,579.994 730.726,581.135 732.336,581.135 C734.18,581.135 735.383,579.791 735.383,577.791 C735.383,575.338 733.68,573.744 731.039,573.744 C727.883,573.744 725.18,576.244 723.539,580.697 L723.539,574.494 M758.883,586.541 C758.93,579.041 754.68,573.744 748.586,573.744 C742.18,573.744 737.383,579.291 737.383,586.791 C737.383,593.838 741.93,598.541 748.68,598.541 C753.476,598.541 756.836,596.197 758.883,591.447 L757.133,590.494 C755.086,594.338 752.976,595.838 749.633,595.838 C747.086,595.838 745.226,594.791 743.93,592.541 C743.039,591.041 742.633,589.291 742.68,586.541 L758.883,586.541 M742.726,584.385 C742.726,580.885 744.336,575.885 748.539,575.885 C751.539,575.885 753.539,578.541 753.539,582.588 C753.539,583.994 753.086,584.385 751.476,584.385 L742.726,584.385 "/>
<path class="Lyrics" d="M1136.71,574.494 L1136.71,571.635 C1136.71,569.135 1136.87,567.494 1137.26,566.494 C1138.07,564.291 1139.82,562.931 1141.82,562.931 C1142.87,562.931 1143.51,563.244 1143.51,563.791 C1143.51,563.994 1143.51,564.041 1143.21,564.431 C1142.92,564.885 1142.76,565.494 1142.76,566.041 C1142.76,567.541 1143.96,568.681 1145.51,568.681 C1147.17,568.681 1148.32,567.431 1148.32,565.635 C1148.32,562.744 1145.82,560.931 1141.76,560.931 C1138.32,560.931 1135.76,562.135 1134.01,564.635 C1132.51,566.744 1132.01,568.885 1132.01,572.947 L1132.01,574.494 L1127.62,574.494 L1127.62,576.635 L1132.01,576.635 L1132.01,593.994 C1131.96,594.697 1131.92,594.994 1131.71,595.291 C1131.37,595.744 1130.42,595.947 1128.26,595.994 L1128.07,595.994 L1128.07,597.791 L1141.42,597.791 L1141.42,595.994 L1140.51,595.994 C1137.17,595.885 1136.71,595.635 1136.71,593.838 L1136.71,576.635 L1142.21,576.635 L1142.21,574.494 L1136.71,574.494 M1165.26,581.697 C1165.26,578.541 1164.71,576.947 1163.26,575.744 C1161.62,574.385 1159.17,573.744 1155.96,573.744 C1150.32,573.744 1146.21,576.385 1146.21,580.041 C1146.21,581.885 1147.37,583.088 1149.12,583.088 C1150.71,583.088 1151.82,582.041 1151.82,580.541 C1151.82,579.885 1151.57,579.197 1151.07,578.494 C1150.76,578.135 1150.71,578.041 1150.71,577.791 C1150.71,576.791 1152.71,575.885 1155.12,575.885 C1156.71,575.885 1158.46,576.385 1159.26,577.135 C1160.21,577.947 1160.57,579.135 1160.57,581.385 L1160.57,583.338 C1155.37,584.244 1153.71,584.635 1151.26,585.588 C1146.92,587.197 1144.87,589.494 1144.87,592.697 C1144.87,596.291 1147.67,598.541 1152.12,598.541 C1155.57,598.541 1158.67,597.135 1160.82,594.588 C1161.62,597.135 1162.87,598.135 1165.21,598.135 C1167.46,598.135 1169.82,596.697 1169.82,595.244 C1169.82,594.885 1169.62,594.635 1169.32,594.635 C1169.12,594.635 1168.92,594.697 1168.57,594.838 C1167.87,595.135 1167.57,595.197 1167.17,595.197 C1165.76,595.197 1165.26,594.291 1165.26,591.744 L1165.26,581.697 M1160.57,587.791 C1160.57,590.791 1160.42,591.494 1159.57,592.791 C1158.32,594.635 1156.07,595.885 1153.87,595.885 C1151.57,595.885 1149.92,594.244 1149.92,591.994 C1149.92,589.885 1150.96,588.385 1153.17,587.338 C1154.71,586.635 1156.67,586.135 1160.57,585.494 L1160.57,587.791 "/>
<path class="Lyrics" d="M1541.25,812.272 L1532.36,812.819 L1532.36,814.975 L1534.4,814.975 C1536.29,815.022 1536.54,815.319 1536.54,817.475 L1536.54,831.772 C1536.5,832.522 1536.45,832.819 1536.25,833.069 C1535.9,833.522 1534.95,833.725 1532.79,833.772 L1532.61,833.772 L1532.61,835.569 L1545.2,835.569 L1545.2,833.772 L1545,833.772 C1541.7,833.663 1541.25,833.413 1541.25,831.569 L1541.25,822.319 C1541.25,817.866 1543.7,814.569 1546.95,814.569 C1549.79,814.569 1551.25,816.616 1551.25,820.663 L1551.25,831.819 C1551.2,832.475 1551.15,832.819 1550.9,833.069 C1550.61,833.522 1549.61,833.725 1547.45,833.772 L1547.25,833.772 L1547.25,835.569 L1559.9,835.569 L1559.9,833.772 L1559.7,833.772 C1556.4,833.663 1555.95,833.413 1555.95,831.616 L1555.95,822.772 C1555.95,817.772 1558.2,814.569 1561.7,814.569 C1564.56,814.569 1565.95,816.725 1565.95,821.225 L1565.95,831.772 C1565.9,832.475 1565.86,832.819 1565.61,833.069 C1565.31,833.522 1564.31,833.725 1562.15,833.772 L1561.95,833.772 L1561.95,835.569 L1574.61,835.569 L1574.61,833.772 L1574.4,833.772 C1571.11,833.663 1570.65,833.413 1570.65,831.569 L1570.65,820.225 C1570.65,817.116 1570.36,816.069 1569.06,814.366 C1567.61,812.522 1565.56,811.522 1563.15,811.522 C1559.9,811.522 1557.5,813.069 1555.36,816.522 C1554.5,813.522 1551.79,811.522 1548.45,811.522 C1545.4,811.522 1543.2,812.975 1541.25,816.116 L1541.25,812.272 M1583.15,799.819 C1581.54,799.819 1580.25,801.116 1580.25,802.71 C1580.25,804.319 1581.54,805.616 1583.11,805.616 C1584.75,805.616 1586.04,804.319 1586.04,802.71 C1586.04,801.116 1584.75,799.819 1583.15,799.819 M1585.5,812.272 L1576.11,812.819 L1576.11,814.975 L1578.65,814.975 C1580.54,815.022 1580.79,815.319 1580.79,817.475 L1580.79,831.772 C1580.75,832.522 1580.7,832.819 1580.5,833.069 C1580.15,833.522 1579.2,833.725 1577.04,833.772 L1576.7,833.772 L1576.7,835.569 L1589.65,835.569 L1589.65,833.772 L1589.29,833.772 C1585.95,833.663 1585.5,833.413 1585.5,831.616 L1585.5,812.272 "/>
<path class="Lyrics" d="M736.633,811.725 L734.883,811.725 L733.43,813.522 C731.633,812.116 729.836,811.522 727.336,811.522 C722.93,811.522 720.039,814.366 720.039,818.772 C720.039,823.475 723.086,824.663 727.086,825.616 L729.726,826.225 C733.68,827.163 735.086,828.163 735.086,830.163 C735.086,832.522 733.039,834.163 730.133,834.163 C725.883,834.163 722.883,831.475 721.68,826.475 L719.68,826.475 L719.68,835.913 L721.43,835.913 L723.18,833.866 C725.226,835.522 727.476,836.319 730.039,836.319 C734.93,836.319 738.18,833.272 738.18,828.616 C738.18,826.413 737.476,824.725 736.086,823.569 C734.883,822.522 733.883,822.116 730.836,821.475 L728.336,820.913 C725.586,820.319 725.586,820.319 724.68,819.819 C723.586,819.319 722.93,818.272 722.93,817.163 C722.93,815.116 724.836,813.725 727.586,813.725 C731.68,813.725 733.68,816.616 734.883,820.116 L736.633,820.116 L736.633,811.725 M748.086,799.819 C746.476,799.819 745.18,801.116 745.18,802.71 C745.18,804.319 746.476,805.616 748.039,805.616 C749.68,805.616 750.976,804.319 750.976,802.71 C750.976,801.116 749.68,799.819 748.086,799.819 M750.43,812.272 L741.039,812.819 L741.039,814.975 L743.586,814.975 C745.476,815.022 745.726,815.319 745.726,817.475 L745.726,831.772 C745.68,832.522 745.633,832.819 745.43,833.069 C745.086,833.522 744.133,833.725 741.976,833.772 L741.633,833.772 L741.633,835.569 L754.586,835.569 L754.586,833.772 L754.226,833.772 C750.883,833.663 750.43,833.413 750.43,831.616 L750.43,812.272 "/>
<path class="Lyrics" d="M1753.62,812.272 L1744.76,812.819 L1744.76,814.975 L1746.81,814.975 C1748.72,815.022 1748.97,815.319 1748.97,817.475 L1748.97,831.772 C1748.92,832.522 1748.87,832.819 1748.67,833.069 C1748.31,833.522 1747.31,833.725 1745.17,833.772 L1744.97,833.772 L1744.97,835.569 L1758.31,835.569 L1758.31,833.772 L1757.42,833.772 C1754.06,833.663 1753.62,833.413 1753.62,831.616 L1753.62,828.913 C1753.67,820.522 1756.67,814.116 1760.56,813.913 C1759.87,814.725 1759.67,815.225 1759.67,816.163 C1759.67,817.772 1760.81,818.913 1762.42,818.913 C1764.26,818.913 1765.47,817.569 1765.47,815.569 C1765.47,813.116 1763.76,811.522 1761.12,811.522 C1757.97,811.522 1755.26,814.022 1753.62,818.475 L1753.62,812.272 M1788.97,824.319 C1789.01,816.819 1784.76,811.522 1778.67,811.522 C1772.26,811.522 1767.47,817.069 1767.47,824.569 C1767.47,831.616 1772.01,836.319 1778.76,836.319 C1783.56,836.319 1786.92,833.975 1788.97,829.225 L1787.22,828.272 C1785.17,832.116 1783.06,833.616 1779.72,833.616 C1777.17,833.616 1775.31,832.569 1774.01,830.319 C1773.12,828.819 1772.72,827.069 1772.76,824.319 L1788.97,824.319 M1772.81,822.163 C1772.81,818.663 1774.42,813.663 1778.62,813.663 C1781.62,813.663 1783.62,816.319 1783.62,820.366 C1783.62,821.772 1783.17,822.163 1781.56,822.163 L1772.81,822.163 "/>
<path class="Lyrics" d="M1136.17,811.725 L1134.42,811.725 L1132.96,813.522 C1131.17,812.116 1129.37,811.522 1126.87,811.522 C1122.46,811.522 1119.57,814.366 1119.57,818.772 C1119.57,823.475 1122.62,824.663 1126.62,825.616 L1129.26,826.225 C1133.21,827.163 1134.62,828.163 1134.62,830.163 C1134.62,832.522 1132.57,834.163 1129.67,834.163 C1125.42,834.163 1122.42,831.475 1121.21,826.475 L1119.21,826.475 L1119.21,835.913 L1120.96,835.913 L1122.71,833.866 C1124.76,835.522 1127.01,836.319 1129.57,836.319 C1134.46,836.319 1137.71,833.272 1137.71,828.616 C1137.71,826.413 1137.01,824.725 1135.62,823.569 C1134.42,822.522 1133.42,822.116 1130.37,821.475 L1127.87,820.913 C1125.12,820.319 1125.12,820.319 1124.21,819.819 C1123.12,819.319 1122.46,818.272 1122.46,817.163 C1122.46,815.116 1124.37,813.725 1127.12,813.725 C1131.21,813.725 1133.21,816.616 1134.42,820.116 L1136.17,820.116 L1136.17,811.725 M1152.26,811.522 C1146.12,811.522 1141.37,816.975 1141.37,823.975 C1141.37,830.819 1146.17,836.319 1152.17,836.319 C1158.17,836.319 1162.96,830.819 1162.96,823.913 C1162.96,817.069 1158.17,811.522 1152.26,811.522 M1152.26,813.663 C1155.76,813.663 1157.71,817.319 1157.71,823.913 C1157.71,830.569 1155.76,834.163 1152.17,834.163 C1148.57,834.163 1146.62,830.569 1146.62,823.975 C1146.62,817.163 1148.51,813.663 1152.26,813.663 M1174.87,798.71 L1165.62,799.272 L1165.62,801.413 L1168.07,801.413 C1169.92,801.46 1170.17,801.772 1170.17,803.913 L1170.17,831.772 C1170.12,832.522 1170.07,832.819 1169.87,833.069 C1169.51,833.522 1168.57,833.725 1166.42,833.772 L1166.07,833.772 L1166.07,835.569 L1179.01,835.569 L1179.01,833.772 L1178.67,833.772 C1175.32,833.663 1174.87,833.413 1174.87,831.616 L1174.87,798.71 "/>
<path class="Lyrics" d="M1964.73,835.913 L1973.44,835.569 L1973.44,833.413 L1972.53,833.413 C1969.69,833.272 1969.44,832.975 1969.44,829.772 L1969.44,798.71 L1959.64,799.272 L1959.64,801.413 L1962.58,801.413 C1964.48,801.46 1964.73,801.772 1964.73,803.913 L1964.73,815.225 C1962.89,812.663 1960.73,811.522 1957.83,811.522 C1952.19,811.522 1947.89,816.975 1947.89,824.163 C1947.89,831.272 1952.03,836.319 1957.83,836.319 C1960.98,836.319 1963.14,834.975 1964.73,831.975 L1964.73,835.913 M1958.83,814.225 C1960.89,814.225 1962.83,815.725 1963.73,818.022 C1964.39,819.522 1964.69,821.569 1964.69,824.022 C1964.69,829.866 1962.39,833.616 1958.78,833.616 C1955.23,833.616 1953.14,830.319 1953.14,824.772 C1953.14,821.772 1953.44,819.522 1954.08,817.866 C1954.94,815.616 1956.78,814.225 1958.83,814.225 M1987.33,811.522 C1981.19,811.522 1976.44,816.975 1976.44,823.975 C1976.44,830.819 1981.23,836.319 1987.23,836.319 C1993.23,836.319 1998.03,830.819 1998.03,823.913 C1998.03,817.069 1993.23,811.522 1987.33,811.522 M1987.33,813.663 C1990.83,813.663 1992.78,817.319 1992.78,823.913 C1992.78,830.569 1990.83,834.163 1987.23,834.163 C1983.64,834.163 1981.69,830.569 1981.69,823.975 C1981.69,817.163 1983.58,813.663 1987.33,813.663"/>
<path class="Lyrics" d="M931.352,798.71 L922.102,799.272 L922.102,801.413 L924.555,801.413 C926.399,801.46 926.649,801.772 926.649,803.913 L926.649,831.772 C926.602,832.522 926.555,832.819 926.352,833.069 C925.993,833.522 925.055,833.725 922.899,833.772 L922.555,833.772 L922.555,835.569 L935.493,835.569 L935.493,833.772 L935.149,833.772 C931.805,833.663 931.352,833.413 931.352,831.616 L931.352,798.71 M959.743,819.475 C959.743,816.319 959.196,814.725 957.743,813.522 C956.102,812.163 953.649,811.522 950.446,811.522 C944.805,811.522 940.696,814.163 940.696,817.819 C940.696,819.663 941.852,820.866 943.602,820.866 C945.196,820.866 946.305,819.819 946.305,818.319 C946.305,817.663 946.055,816.975 945.555,816.272 C945.243,815.913 945.196,815.819 945.196,815.569 C945.196,814.569 947.196,813.663 949.602,813.663 C951.196,813.663 952.946,814.163 953.743,814.913 C954.696,815.725 955.055,816.913 955.055,819.163 L955.055,821.116 C949.852,822.022 948.196,822.413 945.743,823.366 C941.399,824.975 939.352,827.272 939.352,830.475 C939.352,834.069 942.149,836.319 946.602,836.319 C950.055,836.319 953.149,834.913 955.305,832.366 C956.102,834.913 957.352,835.913 959.696,835.913 C961.946,835.913 964.305,834.475 964.305,833.022 C964.305,832.663 964.102,832.413 963.805,832.413 C963.602,832.413 963.399,832.475 963.055,832.616 C962.352,832.913 962.055,832.975 961.649,832.975 C960.243,832.975 959.743,832.069 959.743,829.522 L959.743,819.475 M955.055,825.569 C955.055,828.569 954.899,829.272 954.055,830.569 C952.805,832.413 950.555,833.663 948.352,833.663 C946.055,833.663 944.399,832.022 944.399,829.772 C944.399,827.663 945.446,826.163 947.649,825.116 C949.196,824.413 951.149,823.913 955.055,823.272 L955.055,825.569 "/>
<path class="Lyrics" d="M1342.73,812.272 L1342.73,809.413 C1342.73,806.913 1342.89,805.272 1343.28,804.272 C1344.09,802.069 1345.84,800.71 1347.84,800.71 C1348.89,800.71 1349.53,801.022 1349.53,801.569 C1349.53,801.772 1349.53,801.819 1349.23,802.21 C1348.93,802.663 1348.78,803.272 1348.78,803.819 C1348.78,805.319 1349.98,806.46 1351.53,806.46 C1353.18,806.46 1354.34,805.21 1354.34,803.413 C1354.34,800.522 1351.84,798.71 1347.78,798.71 C1344.34,798.71 1341.78,799.913 1340.03,802.413 C1338.53,804.522 1338.03,806.663 1338.03,810.725 L1338.03,812.272 L1333.64,812.272 L1333.64,814.413 L1338.03,814.413 L1338.03,831.772 C1337.98,832.475 1337.93,832.772 1337.73,833.069 C1337.39,833.522 1336.43,833.725 1334.28,833.772 L1334.09,833.772 L1334.09,835.569 L1347.43,835.569 L1347.43,833.772 L1346.53,833.772 C1343.18,833.663 1342.73,833.413 1342.73,831.616 L1342.73,814.413 L1348.23,814.413 L1348.23,812.272 L1342.73,812.272 M1371.28,819.475 C1371.28,816.319 1370.73,814.725 1369.28,813.522 C1367.64,812.163 1365.18,811.522 1361.98,811.522 C1356.34,811.522 1352.23,814.163 1352.23,817.819 C1352.23,819.663 1353.39,820.866 1355.14,820.866 C1356.73,820.866 1357.84,819.819 1357.84,818.319 C1357.84,817.663 1357.59,816.975 1357.09,816.272 C1356.78,815.913 1356.73,815.819 1356.73,815.569 C1356.73,814.569 1358.73,813.663 1361.14,813.663 C1362.73,813.663 1364.48,814.163 1365.28,814.913 C1366.23,815.725 1366.59,816.913 1366.59,819.163 L1366.59,821.116 C1361.39,822.022 1359.73,822.413 1357.28,823.366 C1352.93,824.975 1350.89,827.272 1350.89,830.475 C1350.89,834.069 1353.68,836.319 1358.14,836.319 C1361.59,836.319 1364.68,834.913 1366.84,832.366 C1367.64,834.913 1368.89,835.913 1371.23,835.913 C1373.48,835.913 1375.84,834.475 1375.84,833.022 C1375.84,832.663 1375.64,832.413 1375.34,832.413 C1375.14,832.413 1374.93,832.475 1374.59,832.616 C1373.89,832.913 1373.59,832.975 1373.18,832.975 C1371.78,832.975 1371.28,832.069 1371.28,829.522 L1371.28,819.475 M1366.59,825.569 C1366.59,828.569 1366.43,829.272 1365.59,830.569 C1364.34,832.413 1362.09,833.663 1359.89,833.663 C1357.59,833.663 1355.93,832.022 1355.93,829.772 C1355.93,827.663 1356.98,826.163 1359.18,825.116 C1360.73,824.413 1362.68,823.913 1366.59,823.272 L1366.59,825.569 "/>
<path class="Lyrics" d="M522.616,835.913 L531.319,835.569 L531.319,833.413 L530.413,833.413 C527.569,833.272 527.319,832.975 527.319,829.772 L527.319,798.71 L517.522,799.272 L517.522,801.413 L520.46,801.413 C522.366,801.46 522.616,801.772 522.616,803.913 L522.616,815.225 C520.772,812.663 518.616,811.522 515.71,811.522 C510.069,811.522 505.772,816.975 505.772,824.163 C505.772,831.272 509.913,836.319 515.71,836.319 C518.866,836.319 521.022,834.975 522.616,831.975 L522.616,835.913 M516.71,814.225 C518.772,814.225 520.71,815.725 521.616,818.022 C522.272,819.522 522.569,821.569 522.569,824.022 C522.569,829.866 520.272,833.616 516.663,833.616 C513.116,833.616 511.022,830.319 511.022,824.772 C511.022,821.772 511.319,819.522 511.96,817.866 C512.819,815.616 514.663,814.225 516.71,814.225 M545.21,811.522 C539.069,811.522 534.319,816.975 534.319,823.975 C534.319,830.819 539.116,836.319 545.116,836.319 C551.116,836.319 555.913,830.819 555.913,823.913 C555.913,817.069 551.116,811.522 545.21,811.522 M545.21,813.663 C548.71,813.663 550.663,817.319 550.663,823.913 C550.663,830.569 548.71,834.163 545.116,834.163 C541.522,834.163 539.569,830.569 539.569,823.975 C539.569,817.163 541.46,813.663 545.21,813.663"/>
<path class="StaffText" d="M526.097,326.195 C524.41,328.242 519.801,329.789 515.207,329.899 L515.207,332.039 L519.597,332.039 C522.504,332.102 522.801,332.399 522.707,335.195 L522.707,355.242 C522.707,357.805 522.707,357.899 522.41,358.352 C522.004,358.852 521.051,359.055 518.254,359.055 L515.004,359.055 L515.004,361.399 L534.801,361.399 L534.801,359.055 L532.051,359.055 C529.254,359.055 528.301,358.852 527.91,358.352 C527.551,357.899 527.551,357.852 527.551,355.242 L527.551,334.602 C527.551,331.789 527.66,329.445 527.91,326.195 L526.097,326.195 M554.551,345.695 L579.754,345.695 L579.754,341.695 L554.551,341.695 L554.551,345.695 M554.551,355.805 L579.754,355.805 L579.754,351.805 L554.551,351.805 L554.551,355.805 M597.504,325.289 L597.504,327.649 L598.41,327.649 C601.254,327.695 602.207,327.852 602.597,328.352 C602.91,328.789 602.91,328.899 602.91,331.445 L602.91,355.242 C602.91,357.805 602.91,357.899 602.597,358.352 C602.207,358.852 601.254,359.055 598.41,359.055 L597.504,359.055 L597.504,361.399 L615.66,361.399 C624.301,361.399 629.504,357.742 629.504,351.602 C629.504,346.602 626.363,343.742 619.504,342.555 C621.91,342.055 623.004,341.602 624.301,340.649 C626.363,339.102 627.613,336.649 627.613,334.149 C627.613,330.899 625.613,327.742 622.707,326.492 C620.91,325.695 618.41,325.289 615.457,325.289 L597.504,325.289 M608.504,341.555 L608.504,330.149 C608.504,328.195 609.16,327.695 611.801,327.649 L613.801,327.649 C618.707,327.649 621.801,329.242 621.801,334.695 C621.801,339.649 619.41,341.555 612.957,341.555 L608.504,341.555 M608.504,343.899 L612.91,343.899 C620.551,343.899 623.363,345.945 623.363,351.445 C623.363,358.149 619.16,359.055 613.504,359.055 L611.41,359.055 C608.91,359.055 608.41,358.555 608.504,355.899 L608.504,343.899 "/>
<path class="Page" d="M229,212.661 L227.078,212.661 C223.609,215.255 219.703,216.348 213.156,216.458 L213.156,219.536 L215.469,219.536 C220.359,219.536 220.422,219.645 220.359,224.161 L220.359,243.676 C220.359,247.083 220.359,247.255 219.984,247.801 C219.484,248.411 218.375,248.63 215.406,248.63 L213.656,248.63 L213.656,251.598 L235.594,251.598 L235.594,248.63 L233.828,248.63 C230.922,248.63 229.875,248.411 229.375,247.801 C229,247.255 229,247.036 229,243.676 L229,212.661 M256.375,212.661 C248.125,212.661 242.078,221.083 242.078,232.52 C242.078,243.958 248.125,252.364 256.375,252.364 C264.453,252.364 270.625,243.958 270.625,232.786 C270.625,226.301 269.141,221.52 265.891,217.442 C263.313,214.317 260.063,212.661 256.375,212.661 M256.328,215.52 C257.969,215.52 259.297,216.52 259.891,218.27 C260.609,220.083 261.047,225.864 261.047,232.676 C261.047,238.348 260.609,244.286 260.109,246.161 C259.516,248.348 258.188,249.505 256.328,249.505 C254.609,249.505 253.359,248.567 252.688,246.755 C251.984,244.942 251.531,239.114 251.531,232.52 C251.531,226.739 251.984,220.755 252.469,218.88 C253.078,216.676 254.391,215.52 256.328,215.52"/>
<path class="Bracket" transform="matrix(3.596,0,0,3.7497,181.331,761.169)" d="M0.90625,-50 C2.70313,-51.9063 6.20313,-55.7969 6.20313,-63 C6.20313,-72.1094 2.29688,-81.3125 2.29688,-87 C2.29688,-93.1094 5.79688,-98.8125 6,-99 C6,-99.1094 6,-99.1094 6,-99.2031 C6,-99.3125 6,-99.4063 5.90625,-99.5 C5.79688,-99.5 5.59375,-99.5 5.5,-99.3125 C5.40625,-99.2031 0,-93.8125 0,-85.6094 C0,-76.8125 3.5,-70.6094 3.5,-59.1094 C3.5,-56.9063 2.59375,-53.4063 0.09375,-50.2969 C0,-50.2969 0,-50.1094 -0.09375,-50 C-0.09375,-49.9063 0,-49.7969 0.09375,-49.7031 C2.59375,-46.6094 3.5,-43.1094 3.5,-40.9063 C3.5,-29.4063 0,-23.2031 0,-14.4063 C0,-6.29688 5.40625,-0.796875 5.5,-0.703125 C5.59375,-0.5 5.79688,-0.40625 5.90625,-0.5 C6,-0.59375 6.09375,-0.703125 6,-0.796875 C6,-0.796875 6,-0.90625 6,-1 C5.79688,-1.20313 2.29688,-6.90625 2.29688,-13 C2.29688,-18.7031 6.20313,-27.9063 6.20313,-37 C6.20313,-44.2969 2.70313,-48.1094 0.90625,-50"/>
</svg>
