<?xml version="1.0" encoding="UTF-8" standalone="no"?>
<svg width="2520px" height="1008px" viewBox="0 0 2520 1008"
 xmlns="http://www.w3.org/2000/svg" xmlns:xlink="http://www.w3.org/1999/xlink" version="1.2" baseProfile="tiny">
<title>大调调性 (8)</title>
<desc>Generated by MuseScore Studio 4.4.4</desc>
<path class="" fill="#ffffff" fill-rule="evenodd" d="M0,0 L2520,0 L2520,1008 L0,1008 L0,0 "/>
<polyline class="StaffLines" fill="none" stroke="#000000" stroke-width="2.73" stroke-linejoin="bevel" points="212.598,386.199 2307.8,386.199"/>
<polyline class="StaffLines" fill="none" stroke="#000000" stroke-width="2.73" stroke-linejoin="bevel" points="212.598,410.999 2307.8,410.999"/>
<polyline class="StaffLines" fill="none" stroke="#000000" stroke-width="2.73" stroke-linejoin="bevel" points="212.598,435.799 2307.8,435.799"/>
<polyline class="StaffLines" fill="none" stroke="#000000" stroke-width="2.73" stroke-linejoin="bevel" points="212.598,460.599 2307.8,460.599"/>
<polyline class="StaffLines" fill="none" stroke="#000000" stroke-width="2.73" stroke-linejoin="bevel" points="212.598,485.399 2307.8,485.399"/>
<polyline class="StaffLines" fill="none" stroke="#000000" stroke-width="2.73" stroke-linejoin="bevel" points="212.598,661.969 2307.8,661.969"/>
<polyline class="StaffLines" fill="none" stroke="#000000" stroke-width="2.73" stroke-linejoin="bevel" points="212.598,686.769 2307.8,686.769"/>
<polyline class="StaffLines" fill="none" stroke="#000000" stroke-width="2.73" stroke-linejoin="bevel" points="212.598,711.569 2307.8,711.569"/>
<polyline class="StaffLines" fill="none" stroke="#000000" stroke-width="2.73" stroke-linejoin="bevel" points="212.598,736.369 2307.8,736.369"/>
<polyline class="StaffLines" fill="none" stroke="#000000" stroke-width="2.73" stroke-linejoin="bevel" points="212.598,761.169 2307.8,761.169"/>
<path class="MeasureNumber" d="M217.083,321.286 C215.833,322.036 215.473,322.52 215.473,323.317 C215.473,324.083 216.114,324.645 216.911,324.645 C217.958,324.645 218.551,323.88 218.676,322.395 C219.911,321.395 221.239,320.958 222.833,320.958 C225.801,320.958 227.442,322.802 227.442,326.114 C227.442,331.317 224.083,335.552 219.958,335.552 C217.598,335.552 215.676,334.442 215.676,333.114 C215.676,332.88 215.723,332.802 215.911,332.677 C217.192,332.083 218.239,331.645 218.239,329.958 C218.239,328.677 217.239,327.724 215.833,327.724 C214.083,327.724 212.755,329.192 212.755,331.114 C212.755,334.645 215.801,337.192 220.083,337.192 C226.551,337.192 231.801,332.036 231.801,325.645 C231.801,321.599 228.723,318.755 224.364,318.755 C222.63,318.755 221.239,319.114 219.317,320.083 L221.551,312.52 C223.676,312.958 225.364,313.161 226.801,313.161 C229.442,313.161 231.801,312.317 233.114,310.927 C233.801,310.13 234.192,309.442 234.192,308.927 C234.192,308.677 234.067,308.442 233.911,308.442 C233.801,308.442 233.708,308.489 233.473,308.599 C232.161,309.239 230.473,309.599 228.911,309.599 C226.52,309.599 223.676,309.208 220.723,308.442 L217.083,321.286 M257.036,308.442 C254.911,308.677 252.317,308.849 250.083,308.849 C248.958,308.849 247.676,308.802 246.239,308.724 C244.911,308.645 243.598,308.567 242.239,308.489 L241.239,308.442 L237.364,316.88 L238.833,317.364 L239.801,315.755 C241.676,312.645 242.551,312.208 246.63,312.239 L253.395,312.239 L249.036,318.489 C243.911,325.677 243.911,325.677 241.958,328.88 C240.192,331.724 239.473,333.474 239.473,334.911 C239.473,336.317 240.364,337.192 241.755,337.192 C243.239,337.192 243.989,336.474 244.52,334.599 C246.52,327.083 247.723,324.474 253.27,315.489 L257.036,309.645 L257.036,308.442 "/>
<polyline class="BarLine" fill="none" stroke="#000000" stroke-width="4.46" stroke-linejoin="bevel" points="214.83,384.835 214.83,661.969"/>
<polyline class="BarLine" fill="none" stroke="#000000" stroke-width="4.46" stroke-linejoin="bevel" points="665.073,384.835 665.073,661.969"/>
<polyline class="BarLine" fill="none" stroke="#000000" stroke-width="4.46" stroke-linejoin="bevel" points="1942.23,384.835 1942.23,661.969"/>
<polyline class="BarLine" fill="none" stroke="#000000" stroke-width="4.46" stroke-linejoin="bevel" points="1516.51,384.835 1516.51,661.969"/>
<polyline class="BarLine" fill="none" stroke="#000000" stroke-width="4.46" stroke-linejoin="bevel" points="1303.65,384.835 1303.65,661.969"/>
<polyline class="BarLine" fill="none" stroke="#000000" stroke-width="4.46" stroke-linejoin="bevel" points="877.933,384.835 877.933,661.969"/>
<polyline class="BarLine" fill="none" stroke="#000000" stroke-width="4.46" stroke-linejoin="bevel" points="1729.37,384.835 1729.37,661.969"/>
<polyline class="BarLine" fill="none" stroke="#000000" stroke-width="4.46" stroke-linejoin="bevel" points="1090.79,384.835 1090.79,661.969"/>
<polyline class="BarLine" fill="none" stroke="#000000" stroke-width="4.46" stroke-linejoin="bevel" points="2155.09,384.835 2155.09,661.969"/>
<polyline class="BarLine" fill="none" stroke="#000000" stroke-width="13.64" stroke-linejoin="bevel" points="2173.32,384.835 2173.32,661.969"/>
<polyline class="BarLine" fill="none" stroke="#000000" stroke-width="4.46" stroke-linejoin="bevel" points="2155.09,660.605 2155.09,762.533"/>
<polyline class="BarLine" fill="none" stroke="#000000" stroke-width="13.64" stroke-linejoin="bevel" points="2173.32,660.605 2173.32,762.533"/>
<polyline class="BarLine" fill="none" stroke="#000000" stroke-width="4.46" stroke-linejoin="bevel" points="1303.65,660.605 1303.65,762.533"/>
<polyline class="BarLine" fill="none" stroke="#000000" stroke-width="4.46" stroke-linejoin="bevel" points="214.83,660.605 214.83,762.533"/>
<polyline class="BarLine" fill="none" stroke="#000000" stroke-width="4.46" stroke-linejoin="bevel" points="1942.23,660.605 1942.23,762.533"/>
<polyline class="BarLine" fill="none" stroke="#000000" stroke-width="4.46" stroke-linejoin="bevel" points="877.933,660.605 877.933,762.533"/>
<polyline class="BarLine" fill="none" stroke="#000000" stroke-width="4.46" stroke-linejoin="bevel" points="1516.51,660.605 1516.51,762.533"/>
<polyline class="BarLine" fill="none" stroke="#000000" stroke-width="4.46" stroke-linejoin="bevel" points="665.073,660.605 665.073,762.533"/>
<polyline class="BarLine" fill="none" stroke="#000000" stroke-width="4.46" stroke-linejoin="bevel" points="1729.37,660.605 1729.37,762.533"/>
<polyline class="BarLine" fill="none" stroke="#000000" stroke-width="4.46" stroke-linejoin="bevel" points="1090.79,660.605 1090.79,762.533"/>
<polyline class="LedgerLine" fill="none" stroke="#000000" stroke-width="3.97" stroke-linejoin="bevel" points="902.981,637.169 956.348,637.169"/>
<polyline class="LedgerLine" fill="none" stroke="#000000" stroke-width="3.97" stroke-linejoin="bevel" points="690.121,637.169 743.488,637.169"/>
<polyline class="LedgerLine" fill="none" stroke="#000000" stroke-width="3.97" stroke-linejoin="bevel" points="477.261,637.169 530.628,637.169"/>
<polyline class="LedgerLine" fill="none" stroke="#000000" stroke-width="3.97" stroke-linejoin="bevel" points="477.261,612.369 530.628,612.369"/>
<path class="Note" transform="matrix(0.992001,0,0,0.992001,1124.02,448.199)" d="M18.7031,-13.5938 C4.90625,-13.5938 0,-6.59375 0,-0.09375 C0,6.40625 4.90625,13.4063 18.7031,13.4063 C32.5,13.4063 37.2969,6.40625 37.2969,-0.09375 C37.2969,-6.59375 32.5,-13.5938 18.7031,-13.5938 M19.5,10.2031 C16.7031,10.2031 14.7969,9.40625 13.5,6.90625 C12.2031,4.40625 10.4063,-2.09375 10.2969,-4.70313 C10.0938,-7.40625 11.0938,-9 13.5,-9.79688 C14.7031,-10.2031 16.2969,-10.4063 17.9063,-10.4063 C20.5938,-10.4063 22.4063,-9.79688 23.7969,-7.09375 C25.2031,-4.5 27.1094,2 27.1094,4.5 C27.1094,9.40625 23.5,10.2031 19.5,10.2031"/>
<path class="Note" transform="matrix(0.992001,0,0,0.992001,698.305,472.999)" d="M18.7031,-13.5938 C4.90625,-13.5938 0,-6.59375 0,-0.09375 C0,6.40625 4.90625,13.4063 18.7031,13.4063 C32.5,13.4063 37.2969,6.40625 37.2969,-0.09375 C37.2969,-6.59375 32.5,-13.5938 18.7031,-13.5938 M19.5,10.2031 C16.7031,10.2031 14.7969,9.40625 13.5,6.90625 C12.2031,4.40625 10.4063,-2.09375 10.2969,-4.70313 C10.0938,-7.40625 11.0938,-9 13.5,-9.79688 C14.7031,-10.2031 16.2969,-10.4063 17.9063,-10.4063 C20.5938,-10.4063 22.4063,-9.79688 23.7969,-7.09375 C25.2031,-4.5 27.1094,2 27.1094,4.5 C27.1094,9.40625 23.5,10.2031 19.5,10.2031"/>
<path class="Note" transform="matrix(0.992001,0,0,0.992001,1336.88,435.799)" d="M18.7031,-13.5938 C4.90625,-13.5938 0,-6.59375 0,-0.09375 C0,6.40625 4.90625,13.4063 18.7031,13.4063 C32.5,13.4063 37.2969,6.40625 37.2969,-0.09375 C37.2969,-6.59375 32.5,-13.5938 18.7031,-13.5938 M19.5,10.2031 C16.7031,10.2031 14.7969,9.40625 13.5,6.90625 C12.2031,4.40625 10.4063,-2.09375 10.2969,-4.70313 C10.0938,-7.40625 11.0938,-9 13.5,-9.79688 C14.7031,-10.2031 16.2969,-10.4063 17.9063,-10.4063 C20.5938,-10.4063 22.4063,-9.79688 23.7969,-7.09375 C25.2031,-4.5 27.1094,2 27.1094,4.5 C27.1094,9.40625 23.5,10.2031 19.5,10.2031"/>
<path class="Note" transform="matrix(0.992001,0,0,0.992001,1549.74,423.399)" d="M18.7031,-13.5938 C4.90625,-13.5938 0,-6.59375 0,-0.09375 C0,6.40625 4.90625,13.4063 18.7031,13.4063 C32.5,13.4063 37.2969,6.40625 37.2969,-0.09375 C37.2969,-6.59375 32.5,-13.5938 18.7031,-13.5938 M19.5,10.2031 C16.7031,10.2031 14.7969,9.40625 13.5,6.90625 C12.2031,4.40625 10.4063,-2.09375 10.2969,-4.70313 C10.0938,-7.40625 11.0938,-9 13.5,-9.79688 C14.7031,-10.2031 16.2969,-10.4063 17.9063,-10.4063 C20.5938,-10.4063 22.4063,-9.79688 23.7969,-7.09375 C25.2031,-4.5 27.1094,2 27.1094,4.5 C27.1094,9.40625 23.5,10.2031 19.5,10.2031"/>
<path class="Note" transform="matrix(0.992001,0,0,0.992001,1762.6,410.999)" d="M18.7031,-13.5938 C4.90625,-13.5938 0,-6.59375 0,-0.09375 C0,6.40625 4.90625,13.4063 18.7031,13.4063 C32.5,13.4063 37.2969,6.40625 37.2969,-0.09375 C37.2969,-6.59375 32.5,-13.5938 18.7031,-13.5938 M19.5,10.2031 C16.7031,10.2031 14.7969,9.40625 13.5,6.90625 C12.2031,4.40625 10.4063,-2.09375 10.2969,-4.70313 C10.0938,-7.40625 11.0938,-9 13.5,-9.79688 C14.7031,-10.2031 16.2969,-10.4063 17.9063,-10.4063 C20.5938,-10.4063 22.4063,-9.79688 23.7969,-7.09375 C25.2031,-4.5 27.1094,2 27.1094,4.5 C27.1094,9.40625 23.5,10.2031 19.5,10.2031"/>
<path class="Note" transform="matrix(0.992001,0,0,0.992001,1975.46,398.599)" d="M18.7031,-13.5938 C4.90625,-13.5938 0,-6.59375 0,-0.09375 C0,6.40625 4.90625,13.4063 18.7031,13.4063 C32.5,13.4063 37.2969,6.40625 37.2969,-0.09375 C37.2969,-6.59375 32.5,-13.5938 18.7031,-13.5938 M19.5,10.2031 C16.7031,10.2031 14.7969,9.40625 13.5,6.90625 C12.2031,4.40625 10.4063,-2.09375 10.2969,-4.70313 C10.0938,-7.40625 11.0938,-9 13.5,-9.79688 C14.7031,-10.2031 16.2969,-10.4063 17.9063,-10.4063 C20.5938,-10.4063 22.4063,-9.79688 23.7969,-7.09375 C25.2031,-4.5 27.1094,2 27.1094,4.5 C27.1094,9.40625 23.5,10.2031 19.5,10.2031"/>
<path class="Note" transform="matrix(0.992001,0,0,0.992001,485.445,485.399)" d="M18.7031,-13.5938 C4.90625,-13.5938 0,-6.59375 0,-0.09375 C0,6.40625 4.90625,13.4063 18.7031,13.4063 C32.5,13.4063 37.2969,6.40625 37.2969,-0.09375 C37.2969,-6.59375 32.5,-13.5938 18.7031,-13.5938 M19.5,10.2031 C16.7031,10.2031 14.7969,9.40625 13.5,6.90625 C12.2031,4.40625 10.4063,-2.09375 10.2969,-4.70313 C10.0938,-7.40625 11.0938,-9 13.5,-9.79688 C14.7031,-10.2031 16.2969,-10.4063 17.9063,-10.4063 C20.5938,-10.4063 22.4063,-9.79688 23.7969,-7.09375 C25.2031,-4.5 27.1094,2 27.1094,4.5 C27.1094,9.40625 23.5,10.2031 19.5,10.2031"/>
<path class="Note" transform="matrix(0.992001,0,0,0.992001,911.165,460.599)" d="M18.7031,-13.5938 C4.90625,-13.5938 0,-6.59375 0,-0.09375 C0,6.40625 4.90625,13.4063 18.7031,13.4063 C32.5,13.4063 37.2969,6.40625 37.2969,-0.09375 C37.2969,-6.59375 32.5,-13.5938 18.7031,-13.5938 M19.5,10.2031 C16.7031,10.2031 14.7969,9.40625 13.5,6.90625 C12.2031,4.40625 10.4063,-2.09375 10.2969,-4.70313 C10.0938,-7.40625 11.0938,-9 13.5,-9.79688 C14.7031,-10.2031 16.2969,-10.4063 17.9063,-10.4063 C20.5938,-10.4063 22.4063,-9.79688 23.7969,-7.09375 C25.2031,-4.5 27.1094,2 27.1094,4.5 C27.1094,9.40625 23.5,10.2031 19.5,10.2031"/>
<path class="Note" transform="matrix(0.992001,0,0,0.992001,1762.6,686.769)" d="M18.7031,-13.5938 C4.90625,-13.5938 0,-6.59375 0,-0.09375 C0,6.40625 4.90625,13.4063 18.7031,13.4063 C32.5,13.4063 37.2969,6.40625 37.2969,-0.09375 C37.2969,-6.59375 32.5,-13.5938 18.7031,-13.5938 M19.5,10.2031 C16.7031,10.2031 14.7969,9.40625 13.5,6.90625 C12.2031,4.40625 10.4063,-2.09375 10.2969,-4.70313 C10.0938,-7.40625 11.0938,-9 13.5,-9.79688 C14.7031,-10.2031 16.2969,-10.4063 17.9063,-10.4063 C20.5938,-10.4063 22.4063,-9.79688 23.7969,-7.09375 C25.2031,-4.5 27.1094,2 27.1094,4.5 C27.1094,9.40625 23.5,10.2031 19.5,10.2031"/>
<path class="Note" transform="matrix(0.992001,0,0,0.992001,1336.88,661.969)" d="M18.7031,-13.5938 C4.90625,-13.5938 0,-6.59375 0,-0.09375 C0,6.40625 4.90625,13.4063 18.7031,13.4063 C32.5,13.4063 37.2969,6.40625 37.2969,-0.09375 C37.2969,-6.59375 32.5,-13.5938 18.7031,-13.5938 M19.5,10.2031 C16.7031,10.2031 14.7969,9.40625 13.5,6.90625 C12.2031,4.40625 10.4063,-2.09375 10.2969,-4.70313 C10.0938,-7.40625 11.0938,-9 13.5,-9.79688 C14.7031,-10.2031 16.2969,-10.4063 17.9063,-10.4063 C20.5938,-10.4063 22.4063,-9.79688 23.7969,-7.09375 C25.2031,-4.5 27.1094,2 27.1094,4.5 C27.1094,9.40625 23.5,10.2031 19.5,10.2031"/>
<path class="Note" transform="matrix(0.992001,0,0,0.992001,911.165,637.169)" d="M18.7031,-13.5938 C4.90625,-13.5938 0,-6.59375 0,-0.09375 C0,6.40625 4.90625,13.4063 18.7031,13.4063 C32.5,13.4063 37.2969,6.40625 37.2969,-0.09375 C37.2969,-6.59375 32.5,-13.5938 18.7031,-13.5938 M19.5,10.2031 C16.7031,10.2031 14.7969,9.40625 13.5,6.90625 C12.2031,4.40625 10.4063,-2.09375 10.2969,-4.70313 C10.0938,-7.40625 11.0938,-9 13.5,-9.79688 C14.7031,-10.2031 16.2969,-10.4063 17.9063,-10.4063 C20.5938,-10.4063 22.4063,-9.79688 23.7969,-7.09375 C25.2031,-4.5 27.1094,2 27.1094,4.5 C27.1094,9.40625 23.5,10.2031 19.5,10.2031"/>
<path class="Note" transform="matrix(0.992001,0,0,0.992001,698.305,624.769)" d="M18.7031,-13.5938 C4.90625,-13.5938 0,-6.59375 0,-0.09375 C0,6.40625 4.90625,13.4063 18.7031,13.4063 C32.5,13.4063 37.2969,6.40625 37.2969,-0.09375 C37.2969,-6.59375 32.5,-13.5938 18.7031,-13.5938 M19.5,10.2031 C16.7031,10.2031 14.7969,9.40625 13.5,6.90625 C12.2031,4.40625 10.4063,-2.09375 10.2969,-4.70313 C10.0938,-7.40625 11.0938,-9 13.5,-9.79688 C14.7031,-10.2031 16.2969,-10.4063 17.9063,-10.4063 C20.5938,-10.4063 22.4063,-9.79688 23.7969,-7.09375 C25.2031,-4.5 27.1094,2 27.1094,4.5 C27.1094,9.40625 23.5,10.2031 19.5,10.2031"/>
<path class="Note" transform="matrix(0.992001,0,0,0.992001,485.445,612.369)" d="M18.7031,-13.5938 C4.90625,-13.5938 0,-6.59375 0,-0.09375 C0,6.40625 4.90625,13.4063 18.7031,13.4063 C32.5,13.4063 37.2969,6.40625 37.2969,-0.09375 C37.2969,-6.59375 32.5,-13.5938 18.7031,-13.5938 M19.5,10.2031 C16.7031,10.2031 14.7969,9.40625 13.5,6.90625 C12.2031,4.40625 10.4063,-2.09375 10.2969,-4.70313 C10.0938,-7.40625 11.0938,-9 13.5,-9.79688 C14.7031,-10.2031 16.2969,-10.4063 17.9063,-10.4063 C20.5938,-10.4063 22.4063,-9.79688 23.7969,-7.09375 C25.2031,-4.5 27.1094,2 27.1094,4.5 C27.1094,9.40625 23.5,10.2031 19.5,10.2031"/>
<path class="Note" transform="matrix(0.992001,0,0,0.992001,1549.74,674.369)" d="M18.7031,-13.5938 C4.90625,-13.5938 0,-6.59375 0,-0.09375 C0,6.40625 4.90625,13.4063 18.7031,13.4063 C32.5,13.4063 37.2969,6.40625 37.2969,-0.09375 C37.2969,-6.59375 32.5,-13.5938 18.7031,-13.5938 M19.5,10.2031 C16.7031,10.2031 14.7969,9.40625 13.5,6.90625 C12.2031,4.40625 10.4063,-2.09375 10.2969,-4.70313 C10.0938,-7.40625 11.0938,-9 13.5,-9.79688 C14.7031,-10.2031 16.2969,-10.4063 17.9063,-10.4063 C20.5938,-10.4063 22.4063,-9.79688 23.7969,-7.09375 C25.2031,-4.5 27.1094,2 27.1094,4.5 C27.1094,9.40625 23.5,10.2031 19.5,10.2031"/>
<path class="Note" transform="matrix(0.992001,0,0,0.992001,1124.02,649.569)" d="M18.7031,-13.5938 C4.90625,-13.5938 0,-6.59375 0,-0.09375 C0,6.40625 4.90625,13.4063 18.7031,13.4063 C32.5,13.4063 37.2969,6.40625 37.2969,-0.09375 C37.2969,-6.59375 32.5,-13.5938 18.7031,-13.5938 M19.5,10.2031 C16.7031,10.2031 14.7969,9.40625 13.5,6.90625 C12.2031,4.40625 10.4063,-2.09375 10.2969,-4.70313 C10.0938,-7.40625 11.0938,-9 13.5,-9.79688 C14.7031,-10.2031 16.2969,-10.4063 17.9063,-10.4063 C20.5938,-10.4063 22.4063,-9.79688 23.7969,-7.09375 C25.2031,-4.5 27.1094,2 27.1094,4.5 C27.1094,9.40625 23.5,10.2031 19.5,10.2031"/>
<path class="Note" transform="matrix(0.992001,0,0,0.992001,1975.46,699.169)" d="M18.7031,-13.5938 C4.90625,-13.5938 0,-6.59375 0,-0.09375 C0,6.40625 4.90625,13.4063 18.7031,13.4063 C32.5,13.4063 37.2969,6.40625 37.2969,-0.09375 C37.2969,-6.59375 32.5,-13.5938 18.7031,-13.5938 M19.5,10.2031 C16.7031,10.2031 14.7969,9.40625 13.5,6.90625 C12.2031,4.40625 10.4063,-2.09375 10.2969,-4.70313 C10.0938,-7.40625 11.0938,-9 13.5,-9.79688 C14.7031,-10.2031 16.2969,-10.4063 17.9063,-10.4063 C20.5938,-10.4063 22.4063,-9.79688 23.7969,-7.09375 C25.2031,-4.5 27.1094,2 27.1094,4.5 C27.1094,9.40625 23.5,10.2031 19.5,10.2031"/>
<path class="Clef" transform="matrix(0.992001,0,0,0.992001,235.662,460.599)" d="M12.2969,51.2969 C12.2969,57.9063 17.2969,66.6094 30.7969,66.6094 C35.5,66.6094 39.6094,65.4063 43.2031,63.2031 C48.6094,59.4063 50,52.7969 50,46.5 C50,42.6094 49.4063,38.1094 48.4063,32.4063 C48.1094,30.4063 47.5,27.4063 46.9063,23.5 C56.7031,20.2969 64,10.0938 64,-0.203125 C64,-15.2969 53.2969,-25.5 38.7031,-25.5 C37.7031,-31.5 36.7031,-37.4063 35.9063,-43 C46.4063,-54.1094 53.7031,-66.6094 53.7031,-82.5 C53.7031,-91.6094 50.9063,-99 49.2969,-102.609 C46.9063,-107.703 44,-111.203 42.2031,-111.203 C41.5,-111.203 38.4063,-110 35.1094,-106.109 C28.7031,-98.5 26.9063,-85.7031 26.9063,-77.3125 C26.9063,-71.9063 27.4063,-67 29.1094,-55.7969 C29,-55.7031 23.7969,-50.4063 21.7031,-48.7031 C12.5938,-40.2969 0,-28.1094 0,-8.09375 C0,10.5938 16.2969,25.2969 34.9063,25.2969 C37.7969,25.2969 40.5,25 42.7969,24.5938 C44.7031,34.2031 45.9063,41.2031 45.9063,46.5 C45.9063,56.9063 40.5,62.4063 30.4063,62.4063 C28,62.4063 25.9063,61.9063 25.7031,61.9063 C25.6094,61.7969 25.4063,61.7031 25.4063,61.6094 C25.4063,61.4063 25.6094,61.2969 25.9063,61.2969 C30.6094,60.5 35.2969,56.5 35.2969,50.1094 C35.2969,44.7031 31.2031,39 23.7031,39 C16.7031,39 12.2969,44.7031 12.2969,51.2969 M33.2031,-82.2031 C34.1094,-86.2031 38.7031,-96.7031 43.9063,-96.7031 C45.4063,-96.7031 47.7969,-91.9063 47.7969,-84.9063 C47.7969,-74.5 40.1094,-66.7031 33.2031,-59.9063 C32.6094,-63.9063 32.1094,-67.7969 32.1094,-72 C32.1094,-75.7031 32.4063,-79.1094 33.2031,-82.2031 M42,20.5938 C40,21 38.1094,21.2031 36.2031,21.2031 C21.9063,21.2031 9.70313,11.2031 9.70313,-3.90625 C9.70313,-16.0938 18.2969,-27 27.1094,-34.6094 C28.7969,-36.1094 30.4063,-37.5 31.9063,-39 C32.7969,-33.6094 33.5,-28.9063 34.2031,-24.7969 C25.0938,-22.0938 18.9063,-12.5 18.9063,-3.09375 C18.9063,3.90625 24.4063,13.5 32.4063,13.5 C33.2031,13.5 34.1094,13.0938 34.1094,12.2031 C34.1094,11.2969 33.1094,10.7969 31.9063,10 C28,7.59375 25.7969,5 25.7969,0.09375 C25.7969,-6 30.4063,-10.9063 36.2031,-12.2969 L42,20.5938 M56.2031,2.09375 C56.2031,9.20313 53.2969,16.5 46.2031,19.4063 C44.1094,7.40625 41.4063,-8.5 40.7031,-12.9063 C49.7031,-12.9063 56.2031,-6.79688 56.2031,2.09375"/>
<path class="Clef" transform="matrix(0.992001,0,0,0.992001,235.662,686.769)" d="M25.4063,-25.0938 C17.7969,-25.0938 11.7031,-20.7031 11.5938,-20.7031 C5.70313,-16.4063 1.90625,-9.79688 1.90625,-2.5 C1.90625,4.79688 6.09375,10.2031 13.5,10.2031 C19.9063,10.2031 24.9063,5.90625 24.9063,-0.703125 C24.9063,-6.40625 19.9063,-11.0938 14.2969,-11.0938 C13.0938,-11.0938 12,-10.9063 11.0938,-10.5938 C10.0938,-10.2031 8.40625,-9.20313 7.59375,-8.5 C8.29688,-12.9063 11.2969,-17.2969 15.2031,-19.4063 C17.7031,-20.7969 20.9063,-21.4063 24.4063,-21.4063 C34.6094,-21.4063 39.6094,-13.2031 39.6094,3.59375 C39.6094,16.5938 31.2969,35.2969 21.5,44.1094 C11.0938,53.6094 1.29688,58.1094 1.20313,58.1094 C1.20313,58.1094 0,58.7969 0,60 C0,60.2031 0.09375,60.2969 0.09375,60.5 C0.40625,61.5 1.29688,61.7031 2,61.7031 L2.29688,61.6094 C2.5,61.6094 13.9063,56.9063 23,49.7969 C37,39.7031 52.7969,21.9063 52.7969,3.5 C52.7969,-13.9063 43.4063,-25.0938 25.4063,-25.0938 M56.7969,-12.4063 C56.7969,-9.59375 59,-7.40625 61.6094,-7.40625 C64.2031,-7.40625 66.4063,-9.59375 66.4063,-12.4063 C66.4063,-15.2031 64.2031,-17.5 61.6094,-17.5 C59,-17.5 56.7969,-15.2031 56.7969,-12.4063 M56.7969,12.2969 C56.7969,15.0938 59,17.4063 61.6094,17.4063 C64.2031,17.4063 66.4063,15.0938 66.4063,12.2969 C66.4063,9.5 64.2031,7.20313 61.6094,7.20313 C59,7.20313 56.7969,9.5 56.7969,12.2969"/>
<path class="KeySig" transform="matrix(0.992001,0,0,0.992001,320.122,386.199)" d="M23.2969,-10.5 C23.9063,-10.5938 24.4063,-11.2969 24.4063,-11.9063 L24.4063,-17.7969 C24.4063,-18.7969 23.7031,-19.2031 22.7969,-19.2031 L19.5,-18.5 L19.5,-33.4063 L16.7031,-33.4063 L16.7031,-17.9063 L7.79688,-16.0938 L7.79688,-30.2031 L5,-30.2031 L5,-15.5 L1.09375,-14.7031 C0.5,-14.5938 0,-13.9063 0,-13.2969 L0,-7.5 C0,-6.40625 0.796875,-6.09375 1.70313,-6.09375 L5,-6.79688 L5,9.70313 L1.09375,10.5 C0.5,10.5938 0,11.2969 0,11.9063 L0,17.7031 C0,18.7969 0.796875,19.0938 1.70313,19.0938 L5,18.4063 L5,33.2969 L7.79688,33.2969 L7.79688,17.7969 L16.7031,16 L16.7031,30.1094 L19.5,30.1094 L19.5,15.4063 L23.2969,14.7031 C23.9063,14.5938 24.4063,13.9063 24.4063,13.2969 L24.4063,7.40625 C24.4063,6.40625 23.7031,6 22.7969,6 L19.5,6.70313 L19.5,-9.79688 L23.2969,-10.5 M7.79688,-7.40625 L16.7031,-9.20313 L16.7031,7.29688 L7.79688,9.20313 L7.79688,-7.40625 "/>
<path class="KeySig" transform="matrix(0.992001,0,0,0.992001,347.294,423.399)" d="M23.2969,-10.5 C23.9063,-10.5938 24.4063,-11.2969 24.4063,-11.9063 L24.4063,-17.7969 C24.4063,-18.7969 23.7031,-19.2031 22.7969,-19.2031 L19.5,-18.5 L19.5,-33.4063 L16.7031,-33.4063 L16.7031,-17.9063 L7.79688,-16.0938 L7.79688,-30.2031 L5,-30.2031 L5,-15.5 L1.09375,-14.7031 C0.5,-14.5938 0,-13.9063 0,-13.2969 L0,-7.5 C0,-6.40625 0.796875,-6.09375 1.70313,-6.09375 L5,-6.79688 L5,9.70313 L1.09375,10.5 C0.5,10.5938 0,11.2969 0,11.9063 L0,17.7031 C0,18.7969 0.796875,19.0938 1.70313,19.0938 L5,18.4063 L5,33.2969 L7.79688,33.2969 L7.79688,17.7969 L16.7031,16 L16.7031,30.1094 L19.5,30.1094 L19.5,15.4063 L23.2969,14.7031 C23.9063,14.5938 24.4063,13.9063 24.4063,13.2969 L24.4063,7.40625 C24.4063,6.40625 23.7031,6 22.7969,6 L19.5,6.70313 L19.5,-9.79688 L23.2969,-10.5 M7.79688,-7.40625 L16.7031,-9.20313 L16.7031,7.29688 L7.79688,9.20313 L7.79688,-7.40625 "/>
<path class="KeySig" transform="matrix(0.992001,0,0,0.992001,374.45,373.799)" d="M23.2969,-10.5 C23.9063,-10.5938 24.4063,-11.2969 24.4063,-11.9063 L24.4063,-17.7969 C24.4063,-18.7969 23.7031,-19.2031 22.7969,-19.2031 L19.5,-18.5 L19.5,-33.4063 L16.7031,-33.4063 L16.7031,-17.9063 L7.79688,-16.0938 L7.79688,-30.2031 L5,-30.2031 L5,-15.5 L1.09375,-14.7031 C0.5,-14.5938 0,-13.9063 0,-13.2969 L0,-7.5 C0,-6.40625 0.796875,-6.09375 1.70313,-6.09375 L5,-6.79688 L5,9.70313 L1.09375,10.5 C0.5,10.5938 0,11.2969 0,11.9063 L0,17.7031 C0,18.7969 0.796875,19.0938 1.70313,19.0938 L5,18.4063 L5,33.2969 L7.79688,33.2969 L7.79688,17.7969 L16.7031,16 L16.7031,30.1094 L19.5,30.1094 L19.5,15.4063 L23.2969,14.7031 C23.9063,14.5938 24.4063,13.9063 24.4063,13.2969 L24.4063,7.40625 C24.4063,6.40625 23.7031,6 22.7969,6 L19.5,6.70313 L19.5,-9.79688 L23.2969,-10.5 M7.79688,-7.40625 L16.7031,-9.20313 L16.7031,7.29688 L7.79688,9.20313 L7.79688,-7.40625 "/>
<path class="KeySig" transform="matrix(0.992001,0,0,0.992001,401.621,410.999)" d="M23.2969,-10.5 C23.9063,-10.5938 24.4063,-11.2969 24.4063,-11.9063 L24.4063,-17.7969 C24.4063,-18.7969 23.7031,-19.2031 22.7969,-19.2031 L19.5,-18.5 L19.5,-33.4063 L16.7031,-33.4063 L16.7031,-17.9063 L7.79688,-16.0938 L7.79688,-30.2031 L5,-30.2031 L5,-15.5 L1.09375,-14.7031 C0.5,-14.5938 0,-13.9063 0,-13.2969 L0,-7.5 C0,-6.40625 0.796875,-6.09375 1.70313,-6.09375 L5,-6.79688 L5,9.70313 L1.09375,10.5 C0.5,10.5938 0,11.2969 0,11.9063 L0,17.7031 C0,18.7969 0.796875,19.0938 1.70313,19.0938 L5,18.4063 L5,33.2969 L7.79688,33.2969 L7.79688,17.7969 L16.7031,16 L16.7031,30.1094 L19.5,30.1094 L19.5,15.4063 L23.2969,14.7031 C23.9063,14.5938 24.4063,13.9063 24.4063,13.2969 L24.4063,7.40625 C24.4063,6.40625 23.7031,6 22.7969,6 L19.5,6.70313 L19.5,-9.79688 L23.2969,-10.5 M7.79688,-7.40625 L16.7031,-9.20313 L16.7031,7.29688 L7.79688,9.20313 L7.79688,-7.40625 "/>
<path class="KeySig" transform="matrix(0.992001,0,0,0.992001,2192.54,435.799)" d="M12,-15.5 C7,-15.5 4.09375,-12.4063 3.59375,-11.7969 L4,-43.9063 C4,-44.7031 3.40625,-45.2969 2.59375,-45.2969 L1.40625,-45.2969 C0.59375,-45.2969 0,-44.7031 0,-43.9063 L0.5,16.2031 C0.5,17 1.09375,17.5938 1.90625,17.5938 C2.09375,17.5938 2.5,17.5 2.70313,17.4063 C11.2969,13.0938 20.2969,4.90625 20.2969,-5.40625 C20.2969,-10.5938 17.9063,-15.5 12,-15.5 M3.29688,12.7031 L3.59375,-6.79688 C3.79688,-7.70313 5.29688,-10.5938 9.29688,-10.5938 C12.9063,-10.5938 13.2031,-7.20313 13.2031,-5.09375 C13.2031,3.79688 9.90625,7.5 3.29688,12.7031"/>
<path class="KeySig" transform="matrix(0.992001,0,0,0.992001,2220.11,398.599)" d="M12,-15.5 C7,-15.5 4.09375,-12.4063 3.59375,-11.7969 L4,-43.9063 C4,-44.7031 3.40625,-45.2969 2.59375,-45.2969 L1.40625,-45.2969 C0.59375,-45.2969 0,-44.7031 0,-43.9063 L0.5,16.2031 C0.5,17 1.09375,17.5938 1.90625,17.5938 C2.09375,17.5938 2.5,17.5 2.70313,17.4063 C11.2969,13.0938 20.2969,4.90625 20.2969,-5.40625 C20.2969,-10.5938 17.9063,-15.5 12,-15.5 M3.29688,12.7031 L3.59375,-6.79688 C3.79688,-7.70313 5.29688,-10.5938 9.29688,-10.5938 C12.9063,-10.5938 13.2031,-7.20313 13.2031,-5.09375 C13.2031,3.79688 9.90625,7.5 3.29688,12.7031"/>
<path class="KeySig" transform="matrix(0.992001,0,0,0.992001,2247.69,448.199)" d="M12,-15.5 C7,-15.5 4.09375,-12.4063 3.59375,-11.7969 L4,-43.9063 C4,-44.7031 3.40625,-45.2969 2.59375,-45.2969 L1.40625,-45.2969 C0.59375,-45.2969 0,-44.7031 0,-43.9063 L0.5,16.2031 C0.5,17 1.09375,17.5938 1.90625,17.5938 C2.09375,17.5938 2.5,17.5 2.70313,17.4063 C11.2969,13.0938 20.2969,4.90625 20.2969,-5.40625 C20.2969,-10.5938 17.9063,-15.5 12,-15.5 M3.29688,12.7031 L3.59375,-6.79688 C3.79688,-7.70313 5.29688,-10.5938 9.29688,-10.5938 C12.9063,-10.5938 13.2031,-7.20313 13.2031,-5.09375 C13.2031,3.79688 9.90625,7.5 3.29688,12.7031"/>
<path class="KeySig" transform="matrix(0.992001,0,0,0.992001,2275.26,410.999)" d="M12,-15.5 C7,-15.5 4.09375,-12.4063 3.59375,-11.7969 L4,-43.9063 C4,-44.7031 3.40625,-45.2969 2.59375,-45.2969 L1.40625,-45.2969 C0.59375,-45.2969 0,-44.7031 0,-43.9063 L0.5,16.2031 C0.5,17 1.09375,17.5938 1.90625,17.5938 C2.09375,17.5938 2.5,17.5 2.70313,17.4063 C11.2969,13.0938 20.2969,4.90625 20.2969,-5.40625 C20.2969,-10.5938 17.9063,-15.5 12,-15.5 M3.29688,12.7031 L3.59375,-6.79688 C3.79688,-7.70313 5.29688,-10.5938 9.29688,-10.5938 C12.9063,-10.5938 13.2031,-7.20313 13.2031,-5.09375 C13.2031,3.79688 9.90625,7.5 3.29688,12.7031"/>
<path class="KeySig" transform="matrix(0.992001,0,0,0.992001,320.122,686.769)" d="M23.2969,-10.5 C23.9063,-10.5938 24.4063,-11.2969 24.4063,-11.9063 L24.4063,-17.7969 C24.4063,-18.7969 23.7031,-19.2031 22.7969,-19.2031 L19.5,-18.5 L19.5,-33.4063 L16.7031,-33.4063 L16.7031,-17.9063 L7.79688,-16.0938 L7.79688,-30.2031 L5,-30.2031 L5,-15.5 L1.09375,-14.7031 C0.5,-14.5938 0,-13.9063 0,-13.2969 L0,-7.5 C0,-6.40625 0.796875,-6.09375 1.70313,-6.09375 L5,-6.79688 L5,9.70313 L1.09375,10.5 C0.5,10.5938 0,11.2969 0,11.9063 L0,17.7031 C0,18.7969 0.796875,19.0938 1.70313,19.0938 L5,18.4063 L5,33.2969 L7.79688,33.2969 L7.79688,17.7969 L16.7031,16 L16.7031,30.1094 L19.5,30.1094 L19.5,15.4063 L23.2969,14.7031 C23.9063,14.5938 24.4063,13.9063 24.4063,13.2969 L24.4063,7.40625 C24.4063,6.40625 23.7031,6 22.7969,6 L19.5,6.70313 L19.5,-9.79688 L23.2969,-10.5 M7.79688,-7.40625 L16.7031,-9.20313 L16.7031,7.29688 L7.79688,9.20313 L7.79688,-7.40625 "/>
<path class="KeySig" transform="matrix(0.992001,0,0,0.992001,347.294,723.969)" d="M23.2969,-10.5 C23.9063,-10.5938 24.4063,-11.2969 24.4063,-11.9063 L24.4063,-17.7969 C24.4063,-18.7969 23.7031,-19.2031 22.7969,-19.2031 L19.5,-18.5 L19.5,-33.4063 L16.7031,-33.4063 L16.7031,-17.9063 L7.79688,-16.0938 L7.79688,-30.2031 L5,-30.2031 L5,-15.5 L1.09375,-14.7031 C0.5,-14.5938 0,-13.9063 0,-13.2969 L0,-7.5 C0,-6.40625 0.796875,-6.09375 1.70313,-6.09375 L5,-6.79688 L5,9.70313 L1.09375,10.5 C0.5,10.5938 0,11.2969 0,11.9063 L0,17.7031 C0,18.7969 0.796875,19.0938 1.70313,19.0938 L5,18.4063 L5,33.2969 L7.79688,33.2969 L7.79688,17.7969 L16.7031,16 L16.7031,30.1094 L19.5,30.1094 L19.5,15.4063 L23.2969,14.7031 C23.9063,14.5938 24.4063,13.9063 24.4063,13.2969 L24.4063,7.40625 C24.4063,6.40625 23.7031,6 22.7969,6 L19.5,6.70313 L19.5,-9.79688 L23.2969,-10.5 M7.79688,-7.40625 L16.7031,-9.20313 L16.7031,7.29688 L7.79688,9.20313 L7.79688,-7.40625 "/>
<path class="KeySig" transform="matrix(0.992001,0,0,0.992001,374.45,674.369)" d="M23.2969,-10.5 C23.9063,-10.5938 24.4063,-11.2969 24.4063,-11.9063 L24.4063,-17.7969 C24.4063,-18.7969 23.7031,-19.2031 22.7969,-19.2031 L19.5,-18.5 L19.5,-33.4063 L16.7031,-33.4063 L16.7031,-17.9063 L7.79688,-16.0938 L7.79688,-30.2031 L5,-30.2031 L5,-15.5 L1.09375,-14.7031 C0.5,-14.5938 0,-13.9063 0,-13.2969 L0,-7.5 C0,-6.40625 0.796875,-6.09375 1.70313,-6.09375 L5,-6.79688 L5,9.70313 L1.09375,10.5 C0.5,10.5938 0,11.2969 0,11.9063 L0,17.7031 C0,18.7969 0.796875,19.0938 1.70313,19.0938 L5,18.4063 L5,33.2969 L7.79688,33.2969 L7.79688,17.7969 L16.7031,16 L16.7031,30.1094 L19.5,30.1094 L19.5,15.4063 L23.2969,14.7031 C23.9063,14.5938 24.4063,13.9063 24.4063,13.2969 L24.4063,7.40625 C24.4063,6.40625 23.7031,6 22.7969,6 L19.5,6.70313 L19.5,-9.79688 L23.2969,-10.5 M7.79688,-7.40625 L16.7031,-9.20313 L16.7031,7.29688 L7.79688,9.20313 L7.79688,-7.40625 "/>
<path class="KeySig" transform="matrix(0.992001,0,0,0.992001,401.621,711.569)" d="M23.2969,-10.5 C23.9063,-10.5938 24.4063,-11.2969 24.4063,-11.9063 L24.4063,-17.7969 C24.4063,-18.7969 23.7031,-19.2031 22.7969,-19.2031 L19.5,-18.5 L19.5,-33.4063 L16.7031,-33.4063 L16.7031,-17.9063 L7.79688,-16.0938 L7.79688,-30.2031 L5,-30.2031 L5,-15.5 L1.09375,-14.7031 C0.5,-14.5938 0,-13.9063 0,-13.2969 L0,-7.5 C0,-6.40625 0.796875,-6.09375 1.70313,-6.09375 L5,-6.79688 L5,9.70313 L1.09375,10.5 C0.5,10.5938 0,11.2969 0,11.9063 L0,17.7031 C0,18.7969 0.796875,19.0938 1.70313,19.0938 L5,18.4063 L5,33.2969 L7.79688,33.2969 L7.79688,17.7969 L16.7031,16 L16.7031,30.1094 L19.5,30.1094 L19.5,15.4063 L23.2969,14.7031 C23.9063,14.5938 24.4063,13.9063 24.4063,13.2969 L24.4063,7.40625 C24.4063,6.40625 23.7031,6 22.7969,6 L19.5,6.70313 L19.5,-9.79688 L23.2969,-10.5 M7.79688,-7.40625 L16.7031,-9.20313 L16.7031,7.29688 L7.79688,9.20313 L7.79688,-7.40625 "/>
<path class="KeySig" transform="matrix(0.992001,0,0,0.992001,2192.54,736.369)" d="M12,-15.5 C7,-15.5 4.09375,-12.4063 3.59375,-11.7969 L4,-43.9063 C4,-44.7031 3.40625,-45.2969 2.59375,-45.2969 L1.40625,-45.2969 C0.59375,-45.2969 0,-44.7031 0,-43.9063 L0.5,16.2031 C0.5,17 1.09375,17.5938 1.90625,17.5938 C2.09375,17.5938 2.5,17.5 2.70313,17.4063 C11.2969,13.0938 20.2969,4.90625 20.2969,-5.40625 C20.2969,-10.5938 17.9063,-15.5 12,-15.5 M3.29688,12.7031 L3.59375,-6.79688 C3.79688,-7.70313 5.29688,-10.5938 9.29688,-10.5938 C12.9063,-10.5938 13.2031,-7.20313 13.2031,-5.09375 C13.2031,3.79688 9.90625,7.5 3.29688,12.7031"/>
<path class="KeySig" transform="matrix(0.992001,0,0,0.992001,2220.11,699.169)" d="M12,-15.5 C7,-15.5 4.09375,-12.4063 3.59375,-11.7969 L4,-43.9063 C4,-44.7031 3.40625,-45.2969 2.59375,-45.2969 L1.40625,-45.2969 C0.59375,-45.2969 0,-44.7031 0,-43.9063 L0.5,16.2031 C0.5,17 1.09375,17.5938 1.90625,17.5938 C2.09375,17.5938 2.5,17.5 2.70313,17.4063 C11.2969,13.0938 20.2969,4.90625 20.2969,-5.40625 C20.2969,-10.5938 17.9063,-15.5 12,-15.5 M3.29688,12.7031 L3.59375,-6.79688 C3.79688,-7.70313 5.29688,-10.5938 9.29688,-10.5938 C12.9063,-10.5938 13.2031,-7.20313 13.2031,-5.09375 C13.2031,3.79688 9.90625,7.5 3.29688,12.7031"/>
<path class="KeySig" transform="matrix(0.992001,0,0,0.992001,2247.69,748.769)" d="M12,-15.5 C7,-15.5 4.09375,-12.4063 3.59375,-11.7969 L4,-43.9063 C4,-44.7031 3.40625,-45.2969 2.59375,-45.2969 L1.40625,-45.2969 C0.59375,-45.2969 0,-44.7031 0,-43.9063 L0.5,16.2031 C0.5,17 1.09375,17.5938 1.90625,17.5938 C2.09375,17.5938 2.5,17.5 2.70313,17.4063 C11.2969,13.0938 20.2969,4.90625 20.2969,-5.40625 C20.2969,-10.5938 17.9063,-15.5 12,-15.5 M3.29688,12.7031 L3.59375,-6.79688 C3.79688,-7.70313 5.29688,-10.5938 9.29688,-10.5938 C12.9063,-10.5938 13.2031,-7.20313 13.2031,-5.09375 C13.2031,3.79688 9.90625,7.5 3.29688,12.7031"/>
<path class="KeySig" transform="matrix(0.992001,0,0,0.992001,2275.26,711.569)" d="M12,-15.5 C7,-15.5 4.09375,-12.4063 3.59375,-11.7969 L4,-43.9063 C4,-44.7031 3.40625,-45.2969 2.59375,-45.2969 L1.40625,-45.2969 C0.59375,-45.2969 0,-44.7031 0,-43.9063 L0.5,16.2031 C0.5,17 1.09375,17.5938 1.90625,17.5938 C2.09375,17.5938 2.5,17.5 2.70313,17.4063 C11.2969,13.0938 20.2969,4.90625 20.2969,-5.40625 C20.2969,-10.5938 17.9063,-15.5 12,-15.5 M3.29688,12.7031 L3.59375,-6.79688 C3.79688,-7.70313 5.29688,-10.5938 9.29688,-10.5938 C12.9063,-10.5938 13.2031,-7.20313 13.2031,-5.09375 C13.2031,3.79688 9.90625,7.5 3.29688,12.7031"/>
<path class="Lyrics" d="M1130.07,537.294 L1130.07,534.435 C1130.07,531.935 1130.23,530.294 1130.62,529.294 C1131.43,527.091 1133.18,525.731 1135.18,525.731 C1136.23,525.731 1136.87,526.044 1136.87,526.591 C1136.87,526.794 1136.87,526.841 1136.57,527.231 C1136.27,527.685 1136.12,528.294 1136.12,528.841 C1136.12,530.341 1137.32,531.481 1138.87,531.481 C1140.52,531.481 1141.68,530.231 1141.68,528.435 C1141.68,525.544 1139.18,523.731 1135.12,523.731 C1131.68,523.731 1129.12,524.935 1127.37,527.435 C1125.87,529.544 1125.37,531.685 1125.37,535.747 L1125.37,537.294 L1120.98,537.294 L1120.98,539.435 L1125.37,539.435 L1125.37,556.794 C1125.32,557.497 1125.27,557.794 1125.07,558.091 C1124.73,558.544 1123.77,558.747 1121.62,558.794 L1121.43,558.794 L1121.43,560.591 L1134.77,560.591 L1134.77,558.794 L1133.87,558.794 C1130.52,558.685 1130.07,558.435 1130.07,556.638 L1130.07,539.435 L1135.57,539.435 L1135.57,537.294 L1130.07,537.294 M1158.62,544.497 C1158.62,541.341 1158.07,539.747 1156.62,538.544 C1154.98,537.185 1152.52,536.544 1149.32,536.544 C1143.68,536.544 1139.57,539.185 1139.57,542.841 C1139.57,544.685 1140.73,545.888 1142.48,545.888 C1144.07,545.888 1145.18,544.841 1145.18,543.341 C1145.18,542.685 1144.93,541.997 1144.43,541.294 C1144.12,540.935 1144.07,540.841 1144.07,540.591 C1144.07,539.591 1146.07,538.685 1148.48,538.685 C1150.07,538.685 1151.82,539.185 1152.62,539.935 C1153.57,540.747 1153.93,541.935 1153.93,544.185 L1153.93,546.138 C1148.73,547.044 1147.07,547.435 1144.62,548.388 C1140.27,549.997 1138.23,552.294 1138.23,555.497 C1138.23,559.091 1141.02,561.341 1145.48,561.341 C1148.93,561.341 1152.02,559.935 1154.18,557.388 C1154.98,559.935 1156.23,560.935 1158.57,560.935 C1160.82,560.935 1163.18,559.497 1163.18,558.044 C1163.18,557.685 1162.98,557.435 1162.68,557.435 C1162.48,557.435 1162.27,557.497 1161.93,557.638 C1161.23,557.935 1160.93,557.997 1160.52,557.997 C1159.12,557.997 1158.62,557.091 1158.62,554.544 L1158.62,544.497 M1153.93,550.591 C1153.93,553.591 1153.77,554.294 1152.93,555.591 C1151.68,557.435 1149.43,558.685 1147.23,558.685 C1144.93,558.685 1143.27,557.044 1143.27,554.794 C1143.27,552.685 1144.32,551.185 1146.52,550.138 C1148.07,549.435 1150.02,548.935 1153.93,548.294 L1153.93,550.591 "/>
<path class="Lyrics" d="M1556.45,523.731 L1547.2,524.294 L1547.2,526.435 L1549.65,526.435 C1551.49,526.481 1551.74,526.794 1551.74,528.935 L1551.74,556.794 C1551.7,557.544 1551.65,557.841 1551.45,558.091 C1551.09,558.544 1550.15,558.747 1547.99,558.794 L1547.65,558.794 L1547.65,560.591 L1560.59,560.591 L1560.59,558.794 L1560.24,558.794 C1556.9,558.685 1556.45,558.435 1556.45,556.638 L1556.45,523.731 M1584.84,544.497 C1584.84,541.341 1584.29,539.747 1582.84,538.544 C1581.2,537.185 1578.74,536.544 1575.54,536.544 C1569.9,536.544 1565.79,539.185 1565.79,542.841 C1565.79,544.685 1566.95,545.888 1568.7,545.888 C1570.29,545.888 1571.4,544.841 1571.4,543.341 C1571.4,542.685 1571.15,541.997 1570.65,541.294 C1570.34,540.935 1570.29,540.841 1570.29,540.591 C1570.29,539.591 1572.29,538.685 1574.7,538.685 C1576.29,538.685 1578.04,539.185 1578.84,539.935 C1579.79,540.747 1580.15,541.935 1580.15,544.185 L1580.15,546.138 C1574.95,547.044 1573.29,547.435 1570.84,548.388 C1566.49,549.997 1564.45,552.294 1564.45,555.497 C1564.45,559.091 1567.24,561.341 1571.7,561.341 C1575.15,561.341 1578.24,559.935 1580.4,557.388 C1581.2,559.935 1582.45,560.935 1584.79,560.935 C1587.04,560.935 1589.4,559.497 1589.4,558.044 C1589.4,557.685 1589.2,557.435 1588.9,557.435 C1588.7,557.435 1588.49,557.497 1588.15,557.638 C1587.45,557.935 1587.15,557.997 1586.74,557.997 C1585.34,557.997 1584.84,557.091 1584.84,554.544 L1584.84,544.497 M1580.15,550.591 C1580.15,553.591 1579.99,554.294 1579.15,555.591 C1577.9,557.435 1575.65,558.685 1573.45,558.685 C1571.15,558.685 1569.49,557.044 1569.49,554.794 C1569.49,552.685 1570.54,551.185 1572.74,550.138 C1574.29,549.435 1576.24,548.935 1580.15,548.294 L1580.15,550.591 "/>
<path class="Lyrics" d="M1780.6,536.747 L1778.85,536.747 L1777.4,538.544 C1775.6,537.138 1773.81,536.544 1771.31,536.544 C1766.9,536.544 1764.01,539.388 1764.01,543.794 C1764.01,548.497 1767.06,549.685 1771.06,550.638 L1773.7,551.247 C1777.65,552.185 1779.06,553.185 1779.06,555.185 C1779.06,557.544 1777.01,559.185 1774.1,559.185 C1769.85,559.185 1766.85,556.497 1765.65,551.497 L1763.65,551.497 L1763.65,560.935 L1765.4,560.935 L1767.15,558.888 C1769.2,560.544 1771.45,561.341 1774.01,561.341 C1778.9,561.341 1782.15,558.294 1782.15,553.638 C1782.15,551.435 1781.45,549.747 1780.06,548.591 C1778.85,547.544 1777.85,547.138 1774.81,546.497 L1772.31,545.935 C1769.56,545.341 1769.56,545.341 1768.65,544.841 C1767.56,544.341 1766.9,543.294 1766.9,542.185 C1766.9,540.138 1768.81,538.747 1771.56,538.747 C1775.65,538.747 1777.65,541.638 1778.85,545.138 L1780.6,545.138 L1780.6,536.747 M1792.06,524.841 C1790.45,524.841 1789.15,526.138 1789.15,527.731 C1789.15,529.341 1790.45,530.638 1792.01,530.638 C1793.65,530.638 1794.95,529.341 1794.95,527.731 C1794.95,526.138 1793.65,524.841 1792.06,524.841 M1794.4,537.294 L1785.01,537.841 L1785.01,539.997 L1787.56,539.997 C1789.45,540.044 1789.7,540.341 1789.7,542.497 L1789.7,556.794 C1789.65,557.544 1789.6,557.841 1789.4,558.091 C1789.06,558.544 1788.1,558.747 1785.95,558.794 L1785.6,558.794 L1785.6,560.591 L1798.56,560.591 L1798.56,558.794 L1798.2,558.794 C1794.85,558.685 1794.4,558.435 1794.4,556.638 L1794.4,537.294 "/>
<path class="Lyrics" d="M1342.38,536.747 L1340.63,536.747 L1339.18,538.544 C1337.38,537.138 1335.59,536.544 1333.09,536.544 C1328.68,536.544 1325.79,539.388 1325.79,543.794 C1325.79,548.497 1328.84,549.685 1332.84,550.638 L1335.48,551.247 C1339.43,552.185 1340.84,553.185 1340.84,555.185 C1340.84,557.544 1338.79,559.185 1335.88,559.185 C1331.63,559.185 1328.63,556.497 1327.43,551.497 L1325.43,551.497 L1325.43,560.935 L1327.18,560.935 L1328.93,558.888 C1330.98,560.544 1333.23,561.341 1335.79,561.341 C1340.68,561.341 1343.93,558.294 1343.93,553.638 C1343.93,551.435 1343.23,549.747 1341.84,548.591 C1340.63,547.544 1339.63,547.138 1336.59,546.497 L1334.09,545.935 C1331.34,545.341 1331.34,545.341 1330.43,544.841 C1329.34,544.341 1328.68,543.294 1328.68,542.185 C1328.68,540.138 1330.59,538.747 1333.34,538.747 C1337.43,538.747 1339.43,541.638 1340.63,545.138 L1342.38,545.138 L1342.38,536.747 M1358.48,536.544 C1352.34,536.544 1347.59,541.997 1347.59,548.997 C1347.59,555.841 1352.38,561.341 1358.38,561.341 C1364.38,561.341 1369.18,555.841 1369.18,548.935 C1369.18,542.091 1364.38,536.544 1358.48,536.544 M1358.48,538.685 C1361.98,538.685 1363.93,542.341 1363.93,548.935 C1363.93,555.591 1361.98,559.185 1358.38,559.185 C1354.79,559.185 1352.84,555.591 1352.84,548.997 C1352.84,542.185 1354.73,538.685 1358.48,538.685 M1381.09,523.731 L1371.84,524.294 L1371.84,526.435 L1374.29,526.435 C1376.13,526.481 1376.38,526.794 1376.38,528.935 L1376.38,556.794 C1376.34,557.544 1376.29,557.841 1376.09,558.091 C1375.73,558.544 1374.79,558.747 1372.63,558.794 L1372.29,558.794 L1372.29,560.591 L1385.23,560.591 L1385.23,558.794 L1384.88,558.794 C1381.54,558.685 1381.09,558.435 1381.09,556.638 L1381.09,523.731 "/>
<path class="Lyrics" d="M1985.46,560.935 L1994.17,560.591 L1994.17,558.435 L1993.26,558.435 C1990.42,558.294 1990.17,557.997 1990.17,554.794 L1990.17,523.731 L1980.37,524.294 L1980.37,526.435 L1983.31,526.435 C1985.21,526.481 1985.46,526.794 1985.46,528.935 L1985.46,540.247 C1983.62,537.685 1981.46,536.544 1978.56,536.544 C1972.92,536.544 1968.62,541.997 1968.62,549.185 C1968.62,556.294 1972.76,561.341 1978.56,561.341 C1981.71,561.341 1983.87,559.997 1985.46,556.997 L1985.46,560.935 M1979.56,539.247 C1981.62,539.247 1983.56,540.747 1984.46,543.044 C1985.12,544.544 1985.42,546.591 1985.42,549.044 C1985.42,554.888 1983.12,558.638 1979.51,558.638 C1975.96,558.638 1973.87,555.341 1973.87,549.794 C1973.87,546.794 1974.17,544.544 1974.81,542.888 C1975.67,540.638 1977.51,539.247 1979.56,539.247 M2008.06,536.544 C2001.92,536.544 1997.17,541.997 1997.17,548.997 C1997.17,555.841 2001.96,561.341 2007.96,561.341 C2013.96,561.341 2018.76,555.841 2018.76,548.935 C2018.76,542.091 2013.96,536.544 2008.06,536.544 M2008.06,538.685 C2011.56,538.685 2013.51,542.341 2013.51,548.935 C2013.51,555.591 2011.56,559.185 2007.96,559.185 C2004.37,559.185 2002.42,555.591 2002.42,548.997 C2002.42,542.185 2004.31,538.685 2008.06,538.685"/>
<path class="Lyrics" d="M909.711,537.294 L900.82,537.841 L900.82,539.997 L902.867,539.997 C904.758,540.044 905.008,540.341 905.008,542.497 L905.008,556.794 C904.961,557.544 904.914,557.841 904.711,558.091 C904.367,558.544 903.414,558.747 901.258,558.794 L901.07,558.794 L901.07,560.591 L913.664,560.591 L913.664,558.794 L913.461,558.794 C910.164,558.685 909.711,558.435 909.711,556.591 L909.711,547.341 C909.711,542.888 912.164,539.591 915.414,539.591 C918.258,539.591 919.711,541.638 919.711,545.685 L919.711,556.841 C919.664,557.497 919.617,557.841 919.367,558.091 C919.07,558.544 918.07,558.747 915.914,558.794 L915.711,558.794 L915.711,560.591 L928.367,560.591 L928.367,558.794 L928.164,558.794 C924.867,558.685 924.414,558.435 924.414,556.638 L924.414,547.794 C924.414,542.794 926.664,539.591 930.164,539.591 C933.024,539.591 934.414,541.747 934.414,546.247 L934.414,556.794 C934.367,557.497 934.32,557.841 934.07,558.091 C933.774,558.544 932.774,558.747 930.617,558.794 L930.414,558.794 L930.414,560.591 L943.07,560.591 L943.07,558.794 L942.867,558.794 C939.57,558.685 939.117,558.435 939.117,556.591 L939.117,545.247 C939.117,542.138 938.82,541.091 937.524,539.388 C936.07,537.544 934.024,536.544 931.617,536.544 C928.367,536.544 925.961,538.091 923.82,541.544 C922.961,538.544 920.258,536.544 916.914,536.544 C913.867,536.544 911.664,537.997 909.711,541.138 L909.711,537.294 M951.617,524.841 C950.008,524.841 948.711,526.138 948.711,527.731 C948.711,529.341 950.008,530.638 951.57,530.638 C953.211,530.638 954.508,529.341 954.508,527.731 C954.508,526.138 953.211,524.841 951.617,524.841 M953.961,537.294 L944.57,537.841 L944.57,539.997 L947.117,539.997 C949.008,540.044 949.258,540.341 949.258,542.497 L949.258,556.794 C949.211,557.544 949.164,557.841 948.961,558.091 C948.617,558.544 947.664,558.747 945.508,558.794 L945.164,558.794 L945.164,560.591 L958.117,560.591 L958.117,558.794 L957.758,558.794 C954.414,558.685 953.961,558.435 953.961,556.638 L953.961,537.294 "/>
<path class="Lyrics" d="M703.211,537.294 L694.351,537.841 L694.351,539.997 L696.398,539.997 C698.304,540.044 698.554,540.341 698.554,542.497 L698.554,556.794 C698.507,557.544 698.461,557.841 698.257,558.091 C697.898,558.544 696.898,558.747 694.757,558.794 L694.554,558.794 L694.554,560.591 L707.898,560.591 L707.898,558.794 L707.007,558.794 C703.648,558.685 703.211,558.435 703.211,556.638 L703.211,553.935 C703.257,545.544 706.257,539.138 710.148,538.935 C709.461,539.747 709.257,540.247 709.257,541.185 C709.257,542.794 710.398,543.935 712.007,543.935 C713.851,543.935 715.054,542.591 715.054,540.591 C715.054,538.138 713.351,536.544 710.711,536.544 C707.554,536.544 704.851,539.044 703.211,543.497 L703.211,537.294 M738.554,549.341 C738.601,541.841 734.351,536.544 728.257,536.544 C721.851,536.544 717.054,542.091 717.054,549.591 C717.054,556.638 721.601,561.341 728.351,561.341 C733.148,561.341 736.507,558.997 738.554,554.247 L736.804,553.294 C734.757,557.138 732.648,558.638 729.304,558.638 C726.757,558.638 724.898,557.591 723.601,555.341 C722.711,553.841 722.304,552.091 722.351,549.341 L738.554,549.341 M722.398,547.185 C722.398,543.685 724.007,538.685 728.211,538.685 C731.211,538.685 733.211,541.341 733.211,545.388 C733.211,546.794 732.757,547.185 731.148,547.185 L722.398,547.185 "/>
<path class="Lyrics" d="M495.444,560.935 L504.148,560.591 L504.148,558.435 L503.241,558.435 C500.398,558.294 500.148,557.997 500.148,554.794 L500.148,523.731 L490.351,524.294 L490.351,526.435 L493.288,526.435 C495.194,526.481 495.444,526.794 495.444,528.935 L495.444,540.247 C493.601,537.685 491.444,536.544 488.538,536.544 C482.898,536.544 478.601,541.997 478.601,549.185 C478.601,556.294 482.741,561.341 488.538,561.341 C491.694,561.341 493.851,559.997 495.444,556.997 L495.444,560.935 M489.538,539.247 C491.601,539.247 493.538,540.747 494.444,543.044 C495.101,544.544 495.398,546.591 495.398,549.044 C495.398,554.888 493.101,558.638 489.491,558.638 C485.944,558.638 483.851,555.341 483.851,549.794 C483.851,546.794 484.148,544.544 484.788,542.888 C485.648,540.638 487.491,539.247 489.538,539.247 M518.038,536.544 C511.898,536.544 507.148,541.997 507.148,548.997 C507.148,555.841 511.944,561.341 517.944,561.341 C523.944,561.341 528.741,555.841 528.741,548.935 C528.741,542.091 523.944,536.544 518.038,536.544 M518.038,538.685 C521.538,538.685 523.491,542.341 523.491,548.935 C523.491,555.591 521.538,559.185 517.944,559.185 C514.351,559.185 512.398,555.591 512.398,548.997 C512.398,542.185 514.288,538.685 518.038,538.685"/>
<path class="Lyrics" d="M1548.29,812.272 L1539.4,812.819 L1539.4,814.975 L1541.45,814.975 C1543.34,815.022 1543.59,815.319 1543.59,817.475 L1543.59,831.772 C1543.54,832.522 1543.49,832.819 1543.29,833.069 C1542.95,833.522 1541.99,833.725 1539.84,833.772 L1539.65,833.772 L1539.65,835.569 L1552.24,835.569 L1552.24,833.772 L1552.04,833.772 C1548.74,833.663 1548.29,833.413 1548.29,831.569 L1548.29,822.319 C1548.29,817.866 1550.74,814.569 1553.99,814.569 C1556.84,814.569 1558.29,816.616 1558.29,820.663 L1558.29,831.819 C1558.24,832.475 1558.2,832.819 1557.95,833.069 C1557.65,833.522 1556.65,833.725 1554.49,833.772 L1554.29,833.772 L1554.29,835.569 L1566.95,835.569 L1566.95,833.772 L1566.74,833.772 C1563.45,833.663 1562.99,833.413 1562.99,831.616 L1562.99,822.772 C1562.99,817.772 1565.24,814.569 1568.74,814.569 C1571.6,814.569 1572.99,816.725 1572.99,821.225 L1572.99,831.772 C1572.95,832.475 1572.9,832.819 1572.65,833.069 C1572.35,833.522 1571.35,833.725 1569.2,833.772 L1568.99,833.772 L1568.99,835.569 L1581.65,835.569 L1581.65,833.772 L1581.45,833.772 C1578.15,833.663 1577.7,833.413 1577.7,831.569 L1577.7,820.225 C1577.7,817.116 1577.4,816.069 1576.1,814.366 C1574.65,812.522 1572.6,811.522 1570.2,811.522 C1566.95,811.522 1564.54,813.069 1562.4,816.522 C1561.54,813.522 1558.84,811.522 1555.49,811.522 C1552.45,811.522 1550.24,812.975 1548.29,816.116 L1548.29,812.272 M1590.2,799.819 C1588.59,799.819 1587.29,801.116 1587.29,802.71 C1587.29,804.319 1588.59,805.616 1590.15,805.616 C1591.79,805.616 1593.09,804.319 1593.09,802.71 C1593.09,801.116 1591.79,799.819 1590.2,799.819 M1592.54,812.272 L1583.15,812.819 L1583.15,814.975 L1585.7,814.975 C1587.59,815.022 1587.84,815.319 1587.84,817.475 L1587.84,831.772 C1587.79,832.522 1587.74,832.819 1587.54,833.069 C1587.2,833.522 1586.24,833.725 1584.09,833.772 L1583.74,833.772 L1583.74,835.569 L1596.7,835.569 L1596.7,833.772 L1596.34,833.772 C1592.99,833.663 1592.54,833.413 1592.54,831.616 L1592.54,812.272 "/>
<path class="Lyrics" d="M1342.93,812.272 L1342.93,809.413 C1342.93,806.913 1343.09,805.272 1343.48,804.272 C1344.29,802.069 1346.04,800.71 1348.04,800.71 C1349.09,800.71 1349.73,801.022 1349.73,801.569 C1349.73,801.772 1349.73,801.819 1349.43,802.21 C1349.13,802.663 1348.98,803.272 1348.98,803.819 C1348.98,805.319 1350.18,806.46 1351.73,806.46 C1353.38,806.46 1354.54,805.21 1354.54,803.413 C1354.54,800.522 1352.04,798.71 1347.98,798.71 C1344.54,798.71 1341.98,799.913 1340.23,802.413 C1338.73,804.522 1338.23,806.663 1338.23,810.725 L1338.23,812.272 L1333.84,812.272 L1333.84,814.413 L1338.23,814.413 L1338.23,831.772 C1338.18,832.475 1338.13,832.772 1337.93,833.069 C1337.59,833.522 1336.63,833.725 1334.48,833.772 L1334.29,833.772 L1334.29,835.569 L1347.63,835.569 L1347.63,833.772 L1346.73,833.772 C1343.38,833.663 1342.93,833.413 1342.93,831.616 L1342.93,814.413 L1348.43,814.413 L1348.43,812.272 L1342.93,812.272 M1371.48,819.475 C1371.48,816.319 1370.93,814.725 1369.48,813.522 C1367.84,812.163 1365.38,811.522 1362.18,811.522 C1356.54,811.522 1352.43,814.163 1352.43,817.819 C1352.43,819.663 1353.59,820.866 1355.34,820.866 C1356.93,820.866 1358.04,819.819 1358.04,818.319 C1358.04,817.663 1357.79,816.975 1357.29,816.272 C1356.98,815.913 1356.93,815.819 1356.93,815.569 C1356.93,814.569 1358.93,813.663 1361.34,813.663 C1362.93,813.663 1364.68,814.163 1365.48,814.913 C1366.43,815.725 1366.79,816.913 1366.79,819.163 L1366.79,821.116 C1361.59,822.022 1359.93,822.413 1357.48,823.366 C1353.13,824.975 1351.09,827.272 1351.09,830.475 C1351.09,834.069 1353.88,836.319 1358.34,836.319 C1361.79,836.319 1364.88,834.913 1367.04,832.366 C1367.84,834.913 1369.09,835.913 1371.43,835.913 C1373.68,835.913 1376.04,834.475 1376.04,833.022 C1376.04,832.663 1375.84,832.413 1375.54,832.413 C1375.34,832.413 1375.13,832.475 1374.79,832.616 C1374.09,832.913 1373.79,832.975 1373.38,832.975 C1371.98,832.975 1371.48,832.069 1371.48,829.522 L1371.48,819.475 M1366.79,825.569 C1366.79,828.569 1366.63,829.272 1365.79,830.569 C1364.54,832.413 1362.29,833.663 1360.09,833.663 C1357.79,833.663 1356.13,832.022 1356.13,829.772 C1356.13,827.663 1357.18,826.163 1359.38,825.116 C1360.93,824.413 1362.88,823.913 1366.79,823.272 L1366.79,825.569 "/>
<path class="Lyrics" d="M1767.51,812.272 L1758.65,812.819 L1758.65,814.975 L1760.7,814.975 C1762.6,815.022 1762.85,815.319 1762.85,817.475 L1762.85,831.772 C1762.81,832.522 1762.76,832.819 1762.56,833.069 C1762.2,833.522 1761.2,833.725 1759.06,833.772 L1758.85,833.772 L1758.85,835.569 L1772.2,835.569 L1772.2,833.772 L1771.31,833.772 C1767.95,833.663 1767.51,833.413 1767.51,831.616 L1767.51,828.913 C1767.56,820.522 1770.56,814.116 1774.45,813.913 C1773.76,814.725 1773.56,815.225 1773.56,816.163 C1773.56,817.772 1774.7,818.913 1776.31,818.913 C1778.15,818.913 1779.35,817.569 1779.35,815.569 C1779.35,813.116 1777.65,811.522 1775.01,811.522 C1771.85,811.522 1769.15,814.022 1767.51,818.475 L1767.51,812.272 M1802.85,824.319 C1802.9,816.819 1798.65,811.522 1792.56,811.522 C1786.15,811.522 1781.35,817.069 1781.35,824.569 C1781.35,831.616 1785.9,836.319 1792.65,836.319 C1797.45,836.319 1800.81,833.975 1802.85,829.225 L1801.1,828.272 C1799.06,832.116 1796.95,833.616 1793.6,833.616 C1791.06,833.616 1789.2,832.569 1787.9,830.319 C1787.01,828.819 1786.6,827.069 1786.65,824.319 L1802.85,824.319 M1786.7,822.163 C1786.7,818.663 1788.31,813.663 1792.51,813.663 C1795.51,813.663 1797.51,816.319 1797.51,820.366 C1797.51,821.772 1797.06,822.163 1795.45,822.163 L1786.7,822.163 "/>
<path class="Lyrics" d="M917.867,798.71 L908.617,799.272 L908.617,801.413 L911.07,801.413 C912.914,801.46 913.164,801.772 913.164,803.913 L913.164,831.772 C913.117,832.522 913.07,832.819 912.867,833.069 C912.508,833.522 911.57,833.725 909.414,833.772 L909.07,833.772 L909.07,835.569 L922.008,835.569 L922.008,833.772 L921.664,833.772 C918.32,833.663 917.867,833.413 917.867,831.616 L917.867,798.71 M946.258,819.475 C946.258,816.319 945.711,814.725 944.258,813.522 C942.617,812.163 940.164,811.522 936.961,811.522 C931.32,811.522 927.211,814.163 927.211,817.819 C927.211,819.663 928.367,820.866 930.117,820.866 C931.711,820.866 932.82,819.819 932.82,818.319 C932.82,817.663 932.57,816.975 932.07,816.272 C931.758,815.913 931.711,815.819 931.711,815.569 C931.711,814.569 933.711,813.663 936.117,813.663 C937.711,813.663 939.461,814.163 940.258,814.913 C941.211,815.725 941.57,816.913 941.57,819.163 L941.57,821.116 C936.367,822.022 934.711,822.413 932.258,823.366 C927.914,824.975 925.867,827.272 925.867,830.475 C925.867,834.069 928.664,836.319 933.117,836.319 C936.57,836.319 939.664,834.913 941.82,832.366 C942.617,834.913 943.867,835.913 946.211,835.913 C948.461,835.913 950.82,834.475 950.82,833.022 C950.82,832.663 950.617,832.413 950.32,832.413 C950.117,832.413 949.914,832.475 949.57,832.616 C948.867,832.913 948.57,832.975 948.164,832.975 C946.758,832.975 946.258,832.069 946.258,829.522 L946.258,819.475 M941.57,825.569 C941.57,828.569 941.414,829.272 940.57,830.569 C939.32,832.413 937.07,833.663 934.867,833.663 C932.57,833.663 930.914,832.022 930.914,829.772 C930.914,827.663 931.961,826.163 934.164,825.116 C935.711,824.413 937.664,823.913 941.57,823.272 L941.57,825.569 "/>
<path class="Lyrics" d="M1985.46,835.913 L1994.17,835.569 L1994.17,833.413 L1993.26,833.413 C1990.42,833.272 1990.17,832.975 1990.17,829.772 L1990.17,798.71 L1980.37,799.272 L1980.37,801.413 L1983.31,801.413 C1985.21,801.46 1985.46,801.772 1985.46,803.913 L1985.46,815.225 C1983.62,812.663 1981.46,811.522 1978.56,811.522 C1972.92,811.522 1968.62,816.975 1968.62,824.163 C1968.62,831.272 1972.76,836.319 1978.56,836.319 C1981.71,836.319 1983.87,834.975 1985.46,831.975 L1985.46,835.913 M1979.56,814.225 C1981.62,814.225 1983.56,815.725 1984.46,818.022 C1985.12,819.522 1985.42,821.569 1985.42,824.022 C1985.42,829.866 1983.12,833.616 1979.51,833.616 C1975.96,833.616 1973.87,830.319 1973.87,824.772 C1973.87,821.772 1974.17,819.522 1974.81,817.866 C1975.67,815.616 1977.51,814.225 1979.56,814.225 M2008.06,811.522 C2001.92,811.522 1997.17,816.975 1997.17,823.975 C1997.17,830.819 2001.96,836.319 2007.96,836.319 C2013.96,836.319 2018.76,830.819 2018.76,823.913 C2018.76,817.069 2013.96,811.522 2008.06,811.522 M2008.06,813.663 C2011.56,813.663 2013.51,817.319 2013.51,823.913 C2013.51,830.569 2011.56,834.163 2007.96,834.163 C2004.37,834.163 2002.42,830.569 2002.42,823.975 C2002.42,817.163 2004.31,813.663 2008.06,813.663"/>
<path class="Lyrics" d="M716.304,811.725 L714.554,811.725 L713.101,813.522 C711.304,812.116 709.507,811.522 707.007,811.522 C702.601,811.522 699.711,814.366 699.711,818.772 C699.711,823.475 702.757,824.663 706.757,825.616 L709.398,826.225 C713.351,827.163 714.757,828.163 714.757,830.163 C714.757,832.522 712.711,834.163 709.804,834.163 C705.554,834.163 702.554,831.475 701.351,826.475 L699.351,826.475 L699.351,835.913 L701.101,835.913 L702.851,833.866 C704.898,835.522 707.148,836.319 709.711,836.319 C714.601,836.319 717.851,833.272 717.851,828.616 C717.851,826.413 717.148,824.725 715.757,823.569 C714.554,822.522 713.554,822.116 710.507,821.475 L708.007,820.913 C705.257,820.319 705.257,820.319 704.351,819.819 C703.257,819.319 702.601,818.272 702.601,817.163 C702.601,815.116 704.507,813.725 707.257,813.725 C711.351,813.725 713.351,816.616 714.554,820.116 L716.304,820.116 L716.304,811.725 M727.757,799.819 C726.148,799.819 724.851,801.116 724.851,802.71 C724.851,804.319 726.148,805.616 727.711,805.616 C729.351,805.616 730.648,804.319 730.648,802.71 C730.648,801.116 729.351,799.819 727.757,799.819 M730.101,812.272 L720.711,812.819 L720.711,814.975 L723.257,814.975 C725.148,815.022 725.398,815.319 725.398,817.475 L725.398,831.772 C725.351,832.522 725.304,832.819 725.101,833.069 C724.757,833.522 723.804,833.725 721.648,833.772 L721.304,833.772 L721.304,835.569 L734.257,835.569 L734.257,833.772 L733.898,833.772 C730.554,833.663 730.101,833.413 730.101,831.616 L730.101,812.272 "/>
<path class="Lyrics" d="M1129.52,811.725 L1127.77,811.725 L1126.32,813.522 C1124.52,812.116 1122.73,811.522 1120.23,811.522 C1115.82,811.522 1112.93,814.366 1112.93,818.772 C1112.93,823.475 1115.98,824.663 1119.98,825.616 L1122.62,826.225 C1126.57,827.163 1127.98,828.163 1127.98,830.163 C1127.98,832.522 1125.93,834.163 1123.02,834.163 C1118.77,834.163 1115.77,831.475 1114.57,826.475 L1112.57,826.475 L1112.57,835.913 L1114.32,835.913 L1116.07,833.866 C1118.12,835.522 1120.37,836.319 1122.93,836.319 C1127.82,836.319 1131.07,833.272 1131.07,828.616 C1131.07,826.413 1130.37,824.725 1128.98,823.569 C1127.77,822.522 1126.77,822.116 1123.73,821.475 L1121.23,820.913 C1118.48,820.319 1118.48,820.319 1117.57,819.819 C1116.48,819.319 1115.82,818.272 1115.82,817.163 C1115.82,815.116 1117.73,813.725 1120.48,813.725 C1124.57,813.725 1126.57,816.616 1127.77,820.116 L1129.52,820.116 L1129.52,811.725 M1145.62,811.522 C1139.48,811.522 1134.73,816.975 1134.73,823.975 C1134.73,830.819 1139.52,836.319 1145.52,836.319 C1151.52,836.319 1156.32,830.819 1156.32,823.913 C1156.32,817.069 1151.52,811.522 1145.62,811.522 M1145.62,813.663 C1149.12,813.663 1151.07,817.319 1151.07,823.913 C1151.07,830.569 1149.12,834.163 1145.52,834.163 C1141.93,834.163 1139.98,830.569 1139.98,823.975 C1139.98,817.163 1141.87,813.663 1145.62,813.663 M1168.23,798.71 L1158.98,799.272 L1158.98,801.413 L1161.43,801.413 C1163.27,801.46 1163.52,801.772 1163.52,803.913 L1163.52,831.772 C1163.48,832.522 1163.43,832.819 1163.23,833.069 C1162.87,833.522 1161.93,833.725 1159.77,833.772 L1159.43,833.772 L1159.43,835.569 L1172.37,835.569 L1172.37,833.772 L1172.02,833.772 C1168.68,833.663 1168.23,833.413 1168.23,831.616 L1168.23,798.71 "/>
<path class="Lyrics" d="M495.444,835.913 L504.148,835.569 L504.148,833.413 L503.241,833.413 C500.398,833.272 500.148,832.975 500.148,829.772 L500.148,798.71 L490.351,799.272 L490.351,801.413 L493.288,801.413 C495.194,801.46 495.444,801.772 495.444,803.913 L495.444,815.225 C493.601,812.663 491.444,811.522 488.538,811.522 C482.898,811.522 478.601,816.975 478.601,824.163 C478.601,831.272 482.741,836.319 488.538,836.319 C491.694,836.319 493.851,834.975 495.444,831.975 L495.444,835.913 M489.538,814.225 C491.601,814.225 493.538,815.725 494.444,818.022 C495.101,819.522 495.398,821.569 495.398,824.022 C495.398,829.866 493.101,833.616 489.491,833.616 C485.944,833.616 483.851,830.319 483.851,824.772 C483.851,821.772 484.148,819.522 484.788,817.866 C485.648,815.616 487.491,814.225 489.538,814.225 M518.038,811.522 C511.898,811.522 507.148,816.975 507.148,823.975 C507.148,830.819 511.944,836.319 517.944,836.319 C523.944,836.319 528.741,830.819 528.741,823.913 C528.741,817.069 523.944,811.522 518.038,811.522 M518.038,813.663 C521.538,813.663 523.491,817.319 523.491,823.913 C523.491,830.569 521.538,834.163 517.944,834.163 C514.351,834.163 512.398,830.569 512.398,823.975 C512.398,817.163 514.288,813.663 518.038,813.663"/>
<path class="StaffText" d="M498.926,326.195 C497.238,328.242 492.629,329.789 488.035,329.899 L488.035,332.039 L492.426,332.039 C495.332,332.102 495.629,332.399 495.535,335.195 L495.535,355.242 C495.535,357.805 495.535,357.899 495.238,358.352 C494.832,358.852 493.879,359.055 491.082,359.055 L487.832,359.055 L487.832,361.399 L507.629,361.399 L507.629,359.055 L504.879,359.055 C502.082,359.055 501.129,358.852 500.738,358.352 C500.379,357.899 500.379,357.852 500.379,355.242 L500.379,334.602 C500.379,331.789 500.488,329.445 500.738,326.195 L498.926,326.195 M527.379,345.695 L552.582,345.695 L552.582,341.695 L527.379,341.695 L527.379,345.695 M527.379,355.805 L552.582,355.805 L552.582,351.805 L527.379,351.805 L527.379,355.805 M600.332,325.289 L570.285,325.289 L570.285,327.649 L571.176,327.649 C574.035,327.695 574.988,327.852 575.379,328.352 C575.676,328.789 575.676,328.899 575.676,331.445 L575.676,355.242 C575.676,357.805 575.676,357.899 575.379,358.352 C574.988,358.852 574.035,359.055 571.176,359.055 L570.285,359.055 L570.285,361.399 L600.988,361.399 L601.988,348.055 L599.785,348.055 C597.879,356.945 595.832,358.852 588.176,359.055 L584.879,359.055 C581.879,358.945 581.129,358.445 581.285,356.649 L581.285,343.899 L582.285,343.899 C587.426,343.695 589.285,345.555 589.488,351.102 L591.832,351.102 L591.832,334.695 L589.488,334.695 C589.176,339.602 587.238,341.555 582.488,341.555 L581.285,341.555 L581.285,330.149 C581.238,328.039 581.738,327.695 584.426,327.649 L587.035,327.649 C595.238,327.602 597.285,329.399 598.879,338.055 L601.035,338.055 L600.332,325.289 "/>
<path class="Page" d="M233.75,228.989 C237.391,227.614 240.25,225.473 240.25,221.13 C240.25,216.067 235.453,212.661 228.313,212.661 C219.781,212.661 214.281,217.223 214.281,224.38 C214.281,228.723 216.328,231.911 220.672,234.223 C218.969,234.77 218.25,234.989 217.313,235.489 C214.563,236.911 213.078,239.442 213.078,242.63 C213.078,248.567 218.406,252.364 226.766,252.364 C235.625,252.364 241.625,247.301 241.625,239.77 C241.625,234.598 239.094,231.192 233.75,228.989 M230.672,227.848 C228.359,227.286 226.656,226.801 225.609,226.411 C223.094,225.473 221.438,223.223 221.438,220.801 C221.438,217.77 223.969,215.52 227.375,215.52 C231.063,215.52 233.375,217.942 233.375,221.786 C233.375,224.27 232.438,226.364 230.672,227.848 M223.641,235.708 C225.891,236.317 228.641,237.13 230.016,237.583 C233.484,238.786 234.797,240.27 234.797,243.067 C234.797,246.817 231.719,249.505 227.375,249.505 C222.922,249.505 220.234,246.864 220.234,242.473 C220.234,239.551 221.156,237.692 223.641,235.708"/>
<path class="Bracket" transform="matrix(3.596,0,0,3.7497,181.331,761.169)" d="M0.90625,-50 C2.70313,-51.9063 6.20313,-55.7969 6.20313,-63 C6.20313,-72.1094 2.29688,-81.3125 2.29688,-87 C2.29688,-93.1094 5.79688,-98.8125 6,-99 C6,-99.1094 6,-99.1094 6,-99.2031 C6,-99.3125 6,-99.4063 5.90625,-99.5 C5.79688,-99.5 5.59375,-99.5 5.5,-99.3125 C5.40625,-99.2031 0,-93.8125 0,-85.6094 C0,-76.8125 3.5,-70.6094 3.5,-59.1094 C3.5,-56.9063 2.59375,-53.4063 0.09375,-50.2969 C0,-50.2969 0,-50.1094 -0.09375,-50 C-0.09375,-49.9063 0,-49.7969 0.09375,-49.7031 C2.59375,-46.6094 3.5,-43.1094 3.5,-40.9063 C3.5,-29.4063 0,-23.2031 0,-14.4063 C0,-6.29688 5.40625,-0.796875 5.5,-0.703125 C5.59375,-0.5 5.79688,-0.40625 5.90625,-0.5 C6,-0.59375 6.09375,-0.703125 6,-0.796875 C6,-0.796875 6,-0.90625 6,-1 C5.79688,-1.20313 2.29688,-6.90625 2.29688,-13 C2.29688,-18.7031 6.20313,-27.9063 6.20313,-37 C6.20313,-44.2969 2.70313,-48.1094 0.90625,-50"/>
</svg>
