<?xml version="1.0" encoding="UTF-8" standalone="no"?>
<svg width="2520px" height="1008px" viewBox="0 0 2520 1008"
 xmlns="http://www.w3.org/2000/svg" xmlns:xlink="http://www.w3.org/1999/xlink" version="1.2" baseProfile="tiny">
<title>大调调性 (14)</title>
<desc>Generated by MuseScore Studio 4.4.4</desc>
<path class="" fill="#ffffff" fill-rule="evenodd" d="M0,0 L2520,0 L2520,1008 L0,1008 L0,0 "/>
<polyline class="StaffLines" fill="none" stroke="#000000" stroke-width="2.73" stroke-linejoin="bevel" points="212.598,386.199 2307.8,386.199"/>
<polyline class="StaffLines" fill="none" stroke="#000000" stroke-width="2.73" stroke-linejoin="bevel" points="212.598,410.999 2307.8,410.999"/>
<polyline class="StaffLines" fill="none" stroke="#000000" stroke-width="2.73" stroke-linejoin="bevel" points="212.598,435.799 2307.8,435.799"/>
<polyline class="StaffLines" fill="none" stroke="#000000" stroke-width="2.73" stroke-linejoin="bevel" points="212.598,460.599 2307.8,460.599"/>
<polyline class="StaffLines" fill="none" stroke="#000000" stroke-width="2.73" stroke-linejoin="bevel" points="212.598,485.399 2307.8,485.399"/>
<polyline class="StaffLines" fill="none" stroke="#000000" stroke-width="2.73" stroke-linejoin="bevel" points="212.598,661.969 2307.8,661.969"/>
<polyline class="StaffLines" fill="none" stroke="#000000" stroke-width="2.73" stroke-linejoin="bevel" points="212.598,686.769 2307.8,686.769"/>
<polyline class="StaffLines" fill="none" stroke="#000000" stroke-width="2.73" stroke-linejoin="bevel" points="212.598,711.569 2307.8,711.569"/>
<polyline class="StaffLines" fill="none" stroke="#000000" stroke-width="2.73" stroke-linejoin="bevel" points="212.598,736.369 2307.8,736.369"/>
<polyline class="StaffLines" fill="none" stroke="#000000" stroke-width="2.73" stroke-linejoin="bevel" points="212.598,761.169 2307.8,761.169"/>
<path class="MeasureNumber" d="M229.958,308.286 L228.801,308.286 C226.598,309.927 222.364,311.317 219.473,311.317 L219.005,313.083 L221.755,313.083 C224.192,313.083 224.473,313.161 224.473,313.88 C224.473,314.239 224.473,314.239 224.083,315.677 L219.801,331.677 C219.27,333.677 219.239,333.802 218.88,334.161 C218.473,334.552 217.63,334.677 215.52,334.724 L213.801,334.724 L213.598,336.599 L228.395,336.599 L228.63,334.724 L226.473,334.724 C223.88,334.724 223.317,334.52 223.317,333.645 C223.317,333.364 223.473,332.442 223.676,331.677 L229.958,308.286 M247.63,308.442 C239.036,308.442 234.755,320.286 234.755,327.317 C234.755,333.114 237.645,337.192 241.723,337.192 C248.551,337.192 254.676,328.317 254.676,318.395 C254.676,312.442 251.833,308.442 247.63,308.442 M247.598,310.036 C249.676,310.036 250.801,311.88 250.801,315.317 C250.801,319.239 249.801,324.317 248.161,328.442 C246.239,333.442 244.317,335.599 241.911,335.599 C239.755,335.599 238.551,333.677 238.551,330.286 C238.551,325.083 240.395,318.114 242.958,313.489 C244.192,311.239 245.801,310.036 247.598,310.036 M260.083,321.286 C258.833,322.036 258.473,322.52 258.473,323.317 C258.473,324.083 259.114,324.645 259.911,324.645 C260.958,324.645 261.551,323.88 261.676,322.395 C262.911,321.395 264.239,320.958 265.833,320.958 C268.801,320.958 270.442,322.802 270.442,326.114 C270.442,331.317 267.083,335.552 262.958,335.552 C260.598,335.552 258.676,334.442 258.676,333.114 C258.676,332.88 258.723,332.802 258.911,332.677 C260.192,332.083 261.239,331.645 261.239,329.958 C261.239,328.677 260.239,327.724 258.833,327.724 C257.083,327.724 255.755,329.192 255.755,331.114 C255.755,334.645 258.801,337.192 263.083,337.192 C269.551,337.192 274.801,332.036 274.801,325.645 C274.801,321.599 271.723,318.755 267.364,318.755 C265.63,318.755 264.239,319.114 262.317,320.083 L264.551,312.52 C266.676,312.958 268.364,313.161 269.801,313.161 C272.442,313.161 274.801,312.317 276.114,310.927 C276.801,310.13 277.192,309.442 277.192,308.927 C277.192,308.677 277.067,308.442 276.911,308.442 C276.801,308.442 276.708,308.489 276.473,308.599 C275.161,309.239 273.473,309.599 271.911,309.599 C269.52,309.599 266.676,309.208 263.723,308.442 L260.083,321.286 "/>
<polyline class="BarLine" fill="none" stroke="#000000" stroke-width="4.46" stroke-linejoin="bevel" points="214.83,384.835 214.83,661.969"/>
<polyline class="BarLine" fill="none" stroke="#000000" stroke-width="4.46" stroke-linejoin="bevel" points="1715.95,384.835 1715.95,661.969"/>
<polyline class="BarLine" fill="none" stroke="#000000" stroke-width="4.46" stroke-linejoin="bevel" points="1914.35,384.835 1914.35,661.969"/>
<polyline class="BarLine" fill="none" stroke="#000000" stroke-width="4.46" stroke-linejoin="bevel" points="723.944,384.835 723.944,661.969"/>
<polyline class="BarLine" fill="none" stroke="#000000" stroke-width="4.46" stroke-linejoin="bevel" points="922.344,384.835 922.344,661.969"/>
<polyline class="BarLine" fill="none" stroke="#000000" stroke-width="4.46" stroke-linejoin="bevel" points="1319.14,384.835 1319.14,661.969"/>
<polyline class="BarLine" fill="none" stroke="#000000" stroke-width="4.46" stroke-linejoin="bevel" points="1517.55,384.835 1517.55,661.969"/>
<polyline class="BarLine" fill="none" stroke="#000000" stroke-width="4.46" stroke-linejoin="bevel" points="1120.74,384.835 1120.74,661.969"/>
<polyline class="BarLine" fill="none" stroke="#000000" stroke-width="4.46" stroke-linejoin="bevel" points="2072.37,384.835 2072.37,661.969"/>
<polyline class="BarLine" fill="none" stroke="#000000" stroke-width="13.64" stroke-linejoin="bevel" points="2090.6,384.835 2090.6,661.969"/>
<polyline class="BarLine" fill="none" stroke="#000000" stroke-width="4.46" stroke-linejoin="bevel" points="2072.37,660.605 2072.37,762.533"/>
<polyline class="BarLine" fill="none" stroke="#000000" stroke-width="13.64" stroke-linejoin="bevel" points="2090.6,660.605 2090.6,762.533"/>
<polyline class="BarLine" fill="none" stroke="#000000" stroke-width="4.46" stroke-linejoin="bevel" points="1319.14,660.605 1319.14,762.533"/>
<polyline class="BarLine" fill="none" stroke="#000000" stroke-width="4.46" stroke-linejoin="bevel" points="214.83,660.605 214.83,762.533"/>
<polyline class="BarLine" fill="none" stroke="#000000" stroke-width="4.46" stroke-linejoin="bevel" points="922.344,660.605 922.344,762.533"/>
<polyline class="BarLine" fill="none" stroke="#000000" stroke-width="4.46" stroke-linejoin="bevel" points="1914.35,660.605 1914.35,762.533"/>
<polyline class="BarLine" fill="none" stroke="#000000" stroke-width="4.46" stroke-linejoin="bevel" points="1517.55,660.605 1517.55,762.533"/>
<polyline class="BarLine" fill="none" stroke="#000000" stroke-width="4.46" stroke-linejoin="bevel" points="723.944,660.605 723.944,762.533"/>
<polyline class="BarLine" fill="none" stroke="#000000" stroke-width="4.46" stroke-linejoin="bevel" points="1715.95,660.605 1715.95,762.533"/>
<polyline class="BarLine" fill="none" stroke="#000000" stroke-width="4.46" stroke-linejoin="bevel" points="1120.74,660.605 1120.74,762.533"/>
<polyline class="LedgerLine" fill="none" stroke="#000000" stroke-width="3.97" stroke-linejoin="bevel" points="558.776,510.199 612.142,510.199"/>
<polyline class="LedgerLine" fill="none" stroke="#000000" stroke-width="3.97" stroke-linejoin="bevel" points="558.776,637.169 612.142,637.169"/>
<path class="Note" transform="matrix(0.992001,0,0,0.992001,955.576,485.399)" d="M18.7031,-13.5938 C4.90625,-13.5938 0,-6.59375 0,-0.09375 C0,6.40625 4.90625,13.4063 18.7031,13.4063 C32.5,13.4063 37.2969,6.40625 37.2969,-0.09375 C37.2969,-6.59375 32.5,-13.5938 18.7031,-13.5938 M19.5,10.2031 C16.7031,10.2031 14.7969,9.40625 13.5,6.90625 C12.2031,4.40625 10.4063,-2.09375 10.2969,-4.70313 C10.0938,-7.40625 11.0938,-9 13.5,-9.79688 C14.7031,-10.2031 16.2969,-10.4063 17.9063,-10.4063 C20.5938,-10.4063 22.4063,-9.79688 23.7969,-7.09375 C25.2031,-4.5 27.1094,2 27.1094,4.5 C27.1094,9.40625 23.5,10.2031 19.5,10.2031"/>
<path class="Note" transform="matrix(0.992001,0,0,0.992001,1153.98,472.999)" d="M18.7031,-13.5938 C4.90625,-13.5938 0,-6.59375 0,-0.09375 C0,6.40625 4.90625,13.4063 18.7031,13.4063 C32.5,13.4063 37.2969,6.40625 37.2969,-0.09375 C37.2969,-6.59375 32.5,-13.5938 18.7031,-13.5938 M19.5,10.2031 C16.7031,10.2031 14.7969,9.40625 13.5,6.90625 C12.2031,4.40625 10.4063,-2.09375 10.2969,-4.70313 C10.0938,-7.40625 11.0938,-9 13.5,-9.79688 C14.7031,-10.2031 16.2969,-10.4063 17.9063,-10.4063 C20.5938,-10.4063 22.4063,-9.79688 23.7969,-7.09375 C25.2031,-4.5 27.1094,2 27.1094,4.5 C27.1094,9.40625 23.5,10.2031 19.5,10.2031"/>
<path class="Note" transform="matrix(0.992001,0,0,0.992001,1947.58,423.399)" d="M18.7031,-13.5938 C4.90625,-13.5938 0,-6.59375 0,-0.09375 C0,6.40625 4.90625,13.4063 18.7031,13.4063 C32.5,13.4063 37.2969,6.40625 37.2969,-0.09375 C37.2969,-6.59375 32.5,-13.5938 18.7031,-13.5938 M19.5,10.2031 C16.7031,10.2031 14.7969,9.40625 13.5,6.90625 C12.2031,4.40625 10.4063,-2.09375 10.2969,-4.70313 C10.0938,-7.40625 11.0938,-9 13.5,-9.79688 C14.7031,-10.2031 16.2969,-10.4063 17.9063,-10.4063 C20.5938,-10.4063 22.4063,-9.79688 23.7969,-7.09375 C25.2031,-4.5 27.1094,2 27.1094,4.5 C27.1094,9.40625 23.5,10.2031 19.5,10.2031"/>
<path class="Note" transform="matrix(0.992001,0,0,0.992001,1352.38,460.599)" d="M18.7031,-13.5938 C4.90625,-13.5938 0,-6.59375 0,-0.09375 C0,6.40625 4.90625,13.4063 18.7031,13.4063 C32.5,13.4063 37.2969,6.40625 37.2969,-0.09375 C37.2969,-6.59375 32.5,-13.5938 18.7031,-13.5938 M19.5,10.2031 C16.7031,10.2031 14.7969,9.40625 13.5,6.90625 C12.2031,4.40625 10.4063,-2.09375 10.2969,-4.70313 C10.0938,-7.40625 11.0938,-9 13.5,-9.79688 C14.7031,-10.2031 16.2969,-10.4063 17.9063,-10.4063 C20.5938,-10.4063 22.4063,-9.79688 23.7969,-7.09375 C25.2031,-4.5 27.1094,2 27.1094,4.5 C27.1094,9.40625 23.5,10.2031 19.5,10.2031"/>
<path class="Note" transform="matrix(0.992001,0,0,0.992001,1550.78,448.199)" d="M18.7031,-13.5938 C4.90625,-13.5938 0,-6.59375 0,-0.09375 C0,6.40625 4.90625,13.4063 18.7031,13.4063 C32.5,13.4063 37.2969,6.40625 37.2969,-0.09375 C37.2969,-6.59375 32.5,-13.5938 18.7031,-13.5938 M19.5,10.2031 C16.7031,10.2031 14.7969,9.40625 13.5,6.90625 C12.2031,4.40625 10.4063,-2.09375 10.2969,-4.70313 C10.0938,-7.40625 11.0938,-9 13.5,-9.79688 C14.7031,-10.2031 16.2969,-10.4063 17.9063,-10.4063 C20.5938,-10.4063 22.4063,-9.79688 23.7969,-7.09375 C25.2031,-4.5 27.1094,2 27.1094,4.5 C27.1094,9.40625 23.5,10.2031 19.5,10.2031"/>
<path class="Note" transform="matrix(0.992001,0,0,0.992001,1749.18,435.799)" d="M18.7031,-13.5938 C4.90625,-13.5938 0,-6.59375 0,-0.09375 C0,6.40625 4.90625,13.4063 18.7031,13.4063 C32.5,13.4063 37.2969,6.40625 37.2969,-0.09375 C37.2969,-6.59375 32.5,-13.5938 18.7031,-13.5938 M19.5,10.2031 C16.7031,10.2031 14.7969,9.40625 13.5,6.90625 C12.2031,4.40625 10.4063,-2.09375 10.2969,-4.70313 C10.0938,-7.40625 11.0938,-9 13.5,-9.79688 C14.7031,-10.2031 16.2969,-10.4063 17.9063,-10.4063 C20.5938,-10.4063 22.4063,-9.79688 23.7969,-7.09375 C25.2031,-4.5 27.1094,2 27.1094,4.5 C27.1094,9.40625 23.5,10.2031 19.5,10.2031"/>
<path class="Note" transform="matrix(0.992001,0,0,0.992001,566.96,510.199)" d="M18.7031,-13.5938 C4.90625,-13.5938 0,-6.59375 0,-0.09375 C0,6.40625 4.90625,13.4063 18.7031,13.4063 C32.5,13.4063 37.2969,6.40625 37.2969,-0.09375 C37.2969,-6.59375 32.5,-13.5938 18.7031,-13.5938 M19.5,10.2031 C16.7031,10.2031 14.7969,9.40625 13.5,6.90625 C12.2031,4.40625 10.4063,-2.09375 10.2969,-4.70313 C10.0938,-7.40625 11.0938,-9 13.5,-9.79688 C14.7031,-10.2031 16.2969,-10.4063 17.9063,-10.4063 C20.5938,-10.4063 22.4063,-9.79688 23.7969,-7.09375 C25.2031,-4.5 27.1094,2 27.1094,4.5 C27.1094,9.40625 23.5,10.2031 19.5,10.2031"/>
<path class="Note" transform="matrix(0.992001,0,0,0.992001,757.176,497.799)" d="M18.7031,-13.5938 C4.90625,-13.5938 0,-6.59375 0,-0.09375 C0,6.40625 4.90625,13.4063 18.7031,13.4063 C32.5,13.4063 37.2969,6.40625 37.2969,-0.09375 C37.2969,-6.59375 32.5,-13.5938 18.7031,-13.5938 M19.5,10.2031 C16.7031,10.2031 14.7969,9.40625 13.5,6.90625 C12.2031,4.40625 10.4063,-2.09375 10.2969,-4.70313 C10.0938,-7.40625 11.0938,-9 13.5,-9.79688 C14.7031,-10.2031 16.2969,-10.4063 17.9063,-10.4063 C20.5938,-10.4063 22.4063,-9.79688 23.7969,-7.09375 C25.2031,-4.5 27.1094,2 27.1094,4.5 C27.1094,9.40625 23.5,10.2031 19.5,10.2031"/>
<path class="Note" transform="matrix(0.992001,0,0,0.992001,1749.18,711.569)" d="M18.7031,-13.5938 C4.90625,-13.5938 0,-6.59375 0,-0.09375 C0,6.40625 4.90625,13.4063 18.7031,13.4063 C32.5,13.4063 37.2969,6.40625 37.2969,-0.09375 C37.2969,-6.59375 32.5,-13.5938 18.7031,-13.5938 M19.5,10.2031 C16.7031,10.2031 14.7969,9.40625 13.5,6.90625 C12.2031,4.40625 10.4063,-2.09375 10.2969,-4.70313 C10.0938,-7.40625 11.0938,-9 13.5,-9.79688 C14.7031,-10.2031 16.2969,-10.4063 17.9063,-10.4063 C20.5938,-10.4063 22.4063,-9.79688 23.7969,-7.09375 C25.2031,-4.5 27.1094,2 27.1094,4.5 C27.1094,9.40625 23.5,10.2031 19.5,10.2031"/>
<path class="Note" transform="matrix(0.992001,0,0,0.992001,1352.38,686.769)" d="M18.7031,-13.5938 C4.90625,-13.5938 0,-6.59375 0,-0.09375 C0,6.40625 4.90625,13.4063 18.7031,13.4063 C32.5,13.4063 37.2969,6.40625 37.2969,-0.09375 C37.2969,-6.59375 32.5,-13.5938 18.7031,-13.5938 M19.5,10.2031 C16.7031,10.2031 14.7969,9.40625 13.5,6.90625 C12.2031,4.40625 10.4063,-2.09375 10.2969,-4.70313 C10.0938,-7.40625 11.0938,-9 13.5,-9.79688 C14.7031,-10.2031 16.2969,-10.4063 17.9063,-10.4063 C20.5938,-10.4063 22.4063,-9.79688 23.7969,-7.09375 C25.2031,-4.5 27.1094,2 27.1094,4.5 C27.1094,9.40625 23.5,10.2031 19.5,10.2031"/>
<path class="Note" transform="matrix(0.992001,0,0,0.992001,1153.98,674.369)" d="M18.7031,-13.5938 C4.90625,-13.5938 0,-6.59375 0,-0.09375 C0,6.40625 4.90625,13.4063 18.7031,13.4063 C32.5,13.4063 37.2969,6.40625 37.2969,-0.09375 C37.2969,-6.59375 32.5,-13.5938 18.7031,-13.5938 M19.5,10.2031 C16.7031,10.2031 14.7969,9.40625 13.5,6.90625 C12.2031,4.40625 10.4063,-2.09375 10.2969,-4.70313 C10.0938,-7.40625 11.0938,-9 13.5,-9.79688 C14.7031,-10.2031 16.2969,-10.4063 17.9063,-10.4063 C20.5938,-10.4063 22.4063,-9.79688 23.7969,-7.09375 C25.2031,-4.5 27.1094,2 27.1094,4.5 C27.1094,9.40625 23.5,10.2031 19.5,10.2031"/>
<path class="Note" transform="matrix(0.992001,0,0,0.992001,1947.58,723.969)" d="M18.7031,-13.5938 C4.90625,-13.5938 0,-6.59375 0,-0.09375 C0,6.40625 4.90625,13.4063 18.7031,13.4063 C32.5,13.4063 37.2969,6.40625 37.2969,-0.09375 C37.2969,-6.59375 32.5,-13.5938 18.7031,-13.5938 M19.5,10.2031 C16.7031,10.2031 14.7969,9.40625 13.5,6.90625 C12.2031,4.40625 10.4063,-2.09375 10.2969,-4.70313 C10.0938,-7.40625 11.0938,-9 13.5,-9.79688 C14.7031,-10.2031 16.2969,-10.4063 17.9063,-10.4063 C20.5938,-10.4063 22.4063,-9.79688 23.7969,-7.09375 C25.2031,-4.5 27.1094,2 27.1094,4.5 C27.1094,9.40625 23.5,10.2031 19.5,10.2031"/>
<path class="Note" transform="matrix(0.992001,0,0,0.992001,955.576,661.969)" d="M18.7031,-13.5938 C4.90625,-13.5938 0,-6.59375 0,-0.09375 C0,6.40625 4.90625,13.4063 18.7031,13.4063 C32.5,13.4063 37.2969,6.40625 37.2969,-0.09375 C37.2969,-6.59375 32.5,-13.5938 18.7031,-13.5938 M19.5,10.2031 C16.7031,10.2031 14.7969,9.40625 13.5,6.90625 C12.2031,4.40625 10.4063,-2.09375 10.2969,-4.70313 C10.0938,-7.40625 11.0938,-9 13.5,-9.79688 C14.7031,-10.2031 16.2969,-10.4063 17.9063,-10.4063 C20.5938,-10.4063 22.4063,-9.79688 23.7969,-7.09375 C25.2031,-4.5 27.1094,2 27.1094,4.5 C27.1094,9.40625 23.5,10.2031 19.5,10.2031"/>
<path class="Note" transform="matrix(0.992001,0,0,0.992001,757.176,649.569)" d="M18.7031,-13.5938 C4.90625,-13.5938 0,-6.59375 0,-0.09375 C0,6.40625 4.90625,13.4063 18.7031,13.4063 C32.5,13.4063 37.2969,6.40625 37.2969,-0.09375 C37.2969,-6.59375 32.5,-13.5938 18.7031,-13.5938 M19.5,10.2031 C16.7031,10.2031 14.7969,9.40625 13.5,6.90625 C12.2031,4.40625 10.4063,-2.09375 10.2969,-4.70313 C10.0938,-7.40625 11.0938,-9 13.5,-9.79688 C14.7031,-10.2031 16.2969,-10.4063 17.9063,-10.4063 C20.5938,-10.4063 22.4063,-9.79688 23.7969,-7.09375 C25.2031,-4.5 27.1094,2 27.1094,4.5 C27.1094,9.40625 23.5,10.2031 19.5,10.2031"/>
<path class="Note" transform="matrix(0.992001,0,0,0.992001,566.96,637.169)" d="M18.7031,-13.5938 C4.90625,-13.5938 0,-6.59375 0,-0.09375 C0,6.40625 4.90625,13.4063 18.7031,13.4063 C32.5,13.4063 37.2969,6.40625 37.2969,-0.09375 C37.2969,-6.59375 32.5,-13.5938 18.7031,-13.5938 M19.5,10.2031 C16.7031,10.2031 14.7969,9.40625 13.5,6.90625 C12.2031,4.40625 10.4063,-2.09375 10.2969,-4.70313 C10.0938,-7.40625 11.0938,-9 13.5,-9.79688 C14.7031,-10.2031 16.2969,-10.4063 17.9063,-10.4063 C20.5938,-10.4063 22.4063,-9.79688 23.7969,-7.09375 C25.2031,-4.5 27.1094,2 27.1094,4.5 C27.1094,9.40625 23.5,10.2031 19.5,10.2031"/>
<path class="Note" transform="matrix(0.992001,0,0,0.992001,1550.78,699.169)" d="M18.7031,-13.5938 C4.90625,-13.5938 0,-6.59375 0,-0.09375 C0,6.40625 4.90625,13.4063 18.7031,13.4063 C32.5,13.4063 37.2969,6.40625 37.2969,-0.09375 C37.2969,-6.59375 32.5,-13.5938 18.7031,-13.5938 M19.5,10.2031 C16.7031,10.2031 14.7969,9.40625 13.5,6.90625 C12.2031,4.40625 10.4063,-2.09375 10.2969,-4.70313 C10.0938,-7.40625 11.0938,-9 13.5,-9.79688 C14.7031,-10.2031 16.2969,-10.4063 17.9063,-10.4063 C20.5938,-10.4063 22.4063,-9.79688 23.7969,-7.09375 C25.2031,-4.5 27.1094,2 27.1094,4.5 C27.1094,9.40625 23.5,10.2031 19.5,10.2031"/>
<path class="Clef" transform="matrix(0.992001,0,0,0.992001,235.662,460.599)" d="M12.2969,51.2969 C12.2969,57.9063 17.2969,66.6094 30.7969,66.6094 C35.5,66.6094 39.6094,65.4063 43.2031,63.2031 C48.6094,59.4063 50,52.7969 50,46.5 C50,42.6094 49.4063,38.1094 48.4063,32.4063 C48.1094,30.4063 47.5,27.4063 46.9063,23.5 C56.7031,20.2969 64,10.0938 64,-0.203125 C64,-15.2969 53.2969,-25.5 38.7031,-25.5 C37.7031,-31.5 36.7031,-37.4063 35.9063,-43 C46.4063,-54.1094 53.7031,-66.6094 53.7031,-82.5 C53.7031,-91.6094 50.9063,-99 49.2969,-102.609 C46.9063,-107.703 44,-111.203 42.2031,-111.203 C41.5,-111.203 38.4063,-110 35.1094,-106.109 C28.7031,-98.5 26.9063,-85.7031 26.9063,-77.3125 C26.9063,-71.9063 27.4063,-67 29.1094,-55.7969 C29,-55.7031 23.7969,-50.4063 21.7031,-48.7031 C12.5938,-40.2969 0,-28.1094 0,-8.09375 C0,10.5938 16.2969,25.2969 34.9063,25.2969 C37.7969,25.2969 40.5,25 42.7969,24.5938 C44.7031,34.2031 45.9063,41.2031 45.9063,46.5 C45.9063,56.9063 40.5,62.4063 30.4063,62.4063 C28,62.4063 25.9063,61.9063 25.7031,61.9063 C25.6094,61.7969 25.4063,61.7031 25.4063,61.6094 C25.4063,61.4063 25.6094,61.2969 25.9063,61.2969 C30.6094,60.5 35.2969,56.5 35.2969,50.1094 C35.2969,44.7031 31.2031,39 23.7031,39 C16.7031,39 12.2969,44.7031 12.2969,51.2969 M33.2031,-82.2031 C34.1094,-86.2031 38.7031,-96.7031 43.9063,-96.7031 C45.4063,-96.7031 47.7969,-91.9063 47.7969,-84.9063 C47.7969,-74.5 40.1094,-66.7031 33.2031,-59.9063 C32.6094,-63.9063 32.1094,-67.7969 32.1094,-72 C32.1094,-75.7031 32.4063,-79.1094 33.2031,-82.2031 M42,20.5938 C40,21 38.1094,21.2031 36.2031,21.2031 C21.9063,21.2031 9.70313,11.2031 9.70313,-3.90625 C9.70313,-16.0938 18.2969,-27 27.1094,-34.6094 C28.7969,-36.1094 30.4063,-37.5 31.9063,-39 C32.7969,-33.6094 33.5,-28.9063 34.2031,-24.7969 C25.0938,-22.0938 18.9063,-12.5 18.9063,-3.09375 C18.9063,3.90625 24.4063,13.5 32.4063,13.5 C33.2031,13.5 34.1094,13.0938 34.1094,12.2031 C34.1094,11.2969 33.1094,10.7969 31.9063,10 C28,7.59375 25.7969,5 25.7969,0.09375 C25.7969,-6 30.4063,-10.9063 36.2031,-12.2969 L42,20.5938 M56.2031,2.09375 C56.2031,9.20313 53.2969,16.5 46.2031,19.4063 C44.1094,7.40625 41.4063,-8.5 40.7031,-12.9063 C49.7031,-12.9063 56.2031,-6.79688 56.2031,2.09375"/>
<path class="Clef" transform="matrix(0.992001,0,0,0.992001,235.662,686.769)" d="M25.4063,-25.0938 C17.7969,-25.0938 11.7031,-20.7031 11.5938,-20.7031 C5.70313,-16.4063 1.90625,-9.79688 1.90625,-2.5 C1.90625,4.79688 6.09375,10.2031 13.5,10.2031 C19.9063,10.2031 24.9063,5.90625 24.9063,-0.703125 C24.9063,-6.40625 19.9063,-11.0938 14.2969,-11.0938 C13.0938,-11.0938 12,-10.9063 11.0938,-10.5938 C10.0938,-10.2031 8.40625,-9.20313 7.59375,-8.5 C8.29688,-12.9063 11.2969,-17.2969 15.2031,-19.4063 C17.7031,-20.7969 20.9063,-21.4063 24.4063,-21.4063 C34.6094,-21.4063 39.6094,-13.2031 39.6094,3.59375 C39.6094,16.5938 31.2969,35.2969 21.5,44.1094 C11.0938,53.6094 1.29688,58.1094 1.20313,58.1094 C1.20313,58.1094 0,58.7969 0,60 C0,60.2031 0.09375,60.2969 0.09375,60.5 C0.40625,61.5 1.29688,61.7031 2,61.7031 L2.29688,61.6094 C2.5,61.6094 13.9063,56.9063 23,49.7969 C37,39.7031 52.7969,21.9063 52.7969,3.5 C52.7969,-13.9063 43.4063,-25.0938 25.4063,-25.0938 M56.7969,-12.4063 C56.7969,-9.59375 59,-7.40625 61.6094,-7.40625 C64.2031,-7.40625 66.4063,-9.59375 66.4063,-12.4063 C66.4063,-15.2031 64.2031,-17.5 61.6094,-17.5 C59,-17.5 56.7969,-15.2031 56.7969,-12.4063 M56.7969,12.2969 C56.7969,15.0938 59,17.4063 61.6094,17.4063 C64.2031,17.4063 66.4063,15.0938 66.4063,12.2969 C66.4063,9.5 64.2031,7.20313 61.6094,7.20313 C59,7.20313 56.7969,9.5 56.7969,12.2969"/>
<path class="KeySig" transform="matrix(0.992001,0,0,0.992001,320.122,386.199)" d="M23.2969,-10.5 C23.9063,-10.5938 24.4063,-11.2969 24.4063,-11.9063 L24.4063,-17.7969 C24.4063,-18.7969 23.7031,-19.2031 22.7969,-19.2031 L19.5,-18.5 L19.5,-33.4063 L16.7031,-33.4063 L16.7031,-17.9063 L7.79688,-16.0938 L7.79688,-30.2031 L5,-30.2031 L5,-15.5 L1.09375,-14.7031 C0.5,-14.5938 0,-13.9063 0,-13.2969 L0,-7.5 C0,-6.40625 0.796875,-6.09375 1.70313,-6.09375 L5,-6.79688 L5,9.70313 L1.09375,10.5 C0.5,10.5938 0,11.2969 0,11.9063 L0,17.7031 C0,18.7969 0.796875,19.0938 1.70313,19.0938 L5,18.4063 L5,33.2969 L7.79688,33.2969 L7.79688,17.7969 L16.7031,16 L16.7031,30.1094 L19.5,30.1094 L19.5,15.4063 L23.2969,14.7031 C23.9063,14.5938 24.4063,13.9063 24.4063,13.2969 L24.4063,7.40625 C24.4063,6.40625 23.7031,6 22.7969,6 L19.5,6.70313 L19.5,-9.79688 L23.2969,-10.5 M7.79688,-7.40625 L16.7031,-9.20313 L16.7031,7.29688 L7.79688,9.20313 L7.79688,-7.40625 "/>
<path class="KeySig" transform="matrix(0.992001,0,0,0.992001,347.294,423.399)" d="M23.2969,-10.5 C23.9063,-10.5938 24.4063,-11.2969 24.4063,-11.9063 L24.4063,-17.7969 C24.4063,-18.7969 23.7031,-19.2031 22.7969,-19.2031 L19.5,-18.5 L19.5,-33.4063 L16.7031,-33.4063 L16.7031,-17.9063 L7.79688,-16.0938 L7.79688,-30.2031 L5,-30.2031 L5,-15.5 L1.09375,-14.7031 C0.5,-14.5938 0,-13.9063 0,-13.2969 L0,-7.5 C0,-6.40625 0.796875,-6.09375 1.70313,-6.09375 L5,-6.79688 L5,9.70313 L1.09375,10.5 C0.5,10.5938 0,11.2969 0,11.9063 L0,17.7031 C0,18.7969 0.796875,19.0938 1.70313,19.0938 L5,18.4063 L5,33.2969 L7.79688,33.2969 L7.79688,17.7969 L16.7031,16 L16.7031,30.1094 L19.5,30.1094 L19.5,15.4063 L23.2969,14.7031 C23.9063,14.5938 24.4063,13.9063 24.4063,13.2969 L24.4063,7.40625 C24.4063,6.40625 23.7031,6 22.7969,6 L19.5,6.70313 L19.5,-9.79688 L23.2969,-10.5 M7.79688,-7.40625 L16.7031,-9.20313 L16.7031,7.29688 L7.79688,9.20313 L7.79688,-7.40625 "/>
<path class="KeySig" transform="matrix(0.992001,0,0,0.992001,374.45,373.799)" d="M23.2969,-10.5 C23.9063,-10.5938 24.4063,-11.2969 24.4063,-11.9063 L24.4063,-17.7969 C24.4063,-18.7969 23.7031,-19.2031 22.7969,-19.2031 L19.5,-18.5 L19.5,-33.4063 L16.7031,-33.4063 L16.7031,-17.9063 L7.79688,-16.0938 L7.79688,-30.2031 L5,-30.2031 L5,-15.5 L1.09375,-14.7031 C0.5,-14.5938 0,-13.9063 0,-13.2969 L0,-7.5 C0,-6.40625 0.796875,-6.09375 1.70313,-6.09375 L5,-6.79688 L5,9.70313 L1.09375,10.5 C0.5,10.5938 0,11.2969 0,11.9063 L0,17.7031 C0,18.7969 0.796875,19.0938 1.70313,19.0938 L5,18.4063 L5,33.2969 L7.79688,33.2969 L7.79688,17.7969 L16.7031,16 L16.7031,30.1094 L19.5,30.1094 L19.5,15.4063 L23.2969,14.7031 C23.9063,14.5938 24.4063,13.9063 24.4063,13.2969 L24.4063,7.40625 C24.4063,6.40625 23.7031,6 22.7969,6 L19.5,6.70313 L19.5,-9.79688 L23.2969,-10.5 M7.79688,-7.40625 L16.7031,-9.20313 L16.7031,7.29688 L7.79688,9.20313 L7.79688,-7.40625 "/>
<path class="KeySig" transform="matrix(0.992001,0,0,0.992001,401.621,410.999)" d="M23.2969,-10.5 C23.9063,-10.5938 24.4063,-11.2969 24.4063,-11.9063 L24.4063,-17.7969 C24.4063,-18.7969 23.7031,-19.2031 22.7969,-19.2031 L19.5,-18.5 L19.5,-33.4063 L16.7031,-33.4063 L16.7031,-17.9063 L7.79688,-16.0938 L7.79688,-30.2031 L5,-30.2031 L5,-15.5 L1.09375,-14.7031 C0.5,-14.5938 0,-13.9063 0,-13.2969 L0,-7.5 C0,-6.40625 0.796875,-6.09375 1.70313,-6.09375 L5,-6.79688 L5,9.70313 L1.09375,10.5 C0.5,10.5938 0,11.2969 0,11.9063 L0,17.7031 C0,18.7969 0.796875,19.0938 1.70313,19.0938 L5,18.4063 L5,33.2969 L7.79688,33.2969 L7.79688,17.7969 L16.7031,16 L16.7031,30.1094 L19.5,30.1094 L19.5,15.4063 L23.2969,14.7031 C23.9063,14.5938 24.4063,13.9063 24.4063,13.2969 L24.4063,7.40625 C24.4063,6.40625 23.7031,6 22.7969,6 L19.5,6.70313 L19.5,-9.79688 L23.2969,-10.5 M7.79688,-7.40625 L16.7031,-9.20313 L16.7031,7.29688 L7.79688,9.20313 L7.79688,-7.40625 "/>
<path class="KeySig" transform="matrix(0.992001,0,0,0.992001,428.793,448.199)" d="M23.2969,-10.5 C23.9063,-10.5938 24.4063,-11.2969 24.4063,-11.9063 L24.4063,-17.7969 C24.4063,-18.7969 23.7031,-19.2031 22.7969,-19.2031 L19.5,-18.5 L19.5,-33.4063 L16.7031,-33.4063 L16.7031,-17.9063 L7.79688,-16.0938 L7.79688,-30.2031 L5,-30.2031 L5,-15.5 L1.09375,-14.7031 C0.5,-14.5938 0,-13.9063 0,-13.2969 L0,-7.5 C0,-6.40625 0.796875,-6.09375 1.70313,-6.09375 L5,-6.79688 L5,9.70313 L1.09375,10.5 C0.5,10.5938 0,11.2969 0,11.9063 L0,17.7031 C0,18.7969 0.796875,19.0938 1.70313,19.0938 L5,18.4063 L5,33.2969 L7.79688,33.2969 L7.79688,17.7969 L16.7031,16 L16.7031,30.1094 L19.5,30.1094 L19.5,15.4063 L23.2969,14.7031 C23.9063,14.5938 24.4063,13.9063 24.4063,13.2969 L24.4063,7.40625 C24.4063,6.40625 23.7031,6 22.7969,6 L19.5,6.70313 L19.5,-9.79688 L23.2969,-10.5 M7.79688,-7.40625 L16.7031,-9.20313 L16.7031,7.29688 L7.79688,9.20313 L7.79688,-7.40625 "/>
<path class="KeySig" transform="matrix(0.992001,0,0,0.992001,455.98,398.599)" d="M23.2969,-10.5 C23.9063,-10.5938 24.4063,-11.2969 24.4063,-11.9063 L24.4063,-17.7969 C24.4063,-18.7969 23.7031,-19.2031 22.7969,-19.2031 L19.5,-18.5 L19.5,-33.4063 L16.7031,-33.4063 L16.7031,-17.9063 L7.79688,-16.0938 L7.79688,-30.2031 L5,-30.2031 L5,-15.5 L1.09375,-14.7031 C0.5,-14.5938 0,-13.9063 0,-13.2969 L0,-7.5 C0,-6.40625 0.796875,-6.09375 1.70313,-6.09375 L5,-6.79688 L5,9.70313 L1.09375,10.5 C0.5,10.5938 0,11.2969 0,11.9063 L0,17.7031 C0,18.7969 0.796875,19.0938 1.70313,19.0938 L5,18.4063 L5,33.2969 L7.79688,33.2969 L7.79688,17.7969 L16.7031,16 L16.7031,30.1094 L19.5,30.1094 L19.5,15.4063 L23.2969,14.7031 C23.9063,14.5938 24.4063,13.9063 24.4063,13.2969 L24.4063,7.40625 C24.4063,6.40625 23.7031,6 22.7969,6 L19.5,6.70313 L19.5,-9.79688 L23.2969,-10.5 M7.79688,-7.40625 L16.7031,-9.20313 L16.7031,7.29688 L7.79688,9.20313 L7.79688,-7.40625 "/>
<path class="KeySig" transform="matrix(0.992001,0,0,0.992001,483.151,435.799)" d="M23.2969,-10.5 C23.9063,-10.5938 24.4063,-11.2969 24.4063,-11.9063 L24.4063,-17.7969 C24.4063,-18.7969 23.7031,-19.2031 22.7969,-19.2031 L19.5,-18.5 L19.5,-33.4063 L16.7031,-33.4063 L16.7031,-17.9063 L7.79688,-16.0938 L7.79688,-30.2031 L5,-30.2031 L5,-15.5 L1.09375,-14.7031 C0.5,-14.5938 0,-13.9063 0,-13.2969 L0,-7.5 C0,-6.40625 0.796875,-6.09375 1.70313,-6.09375 L5,-6.79688 L5,9.70313 L1.09375,10.5 C0.5,10.5938 0,11.2969 0,11.9063 L0,17.7031 C0,18.7969 0.796875,19.0938 1.70313,19.0938 L5,18.4063 L5,33.2969 L7.79688,33.2969 L7.79688,17.7969 L16.7031,16 L16.7031,30.1094 L19.5,30.1094 L19.5,15.4063 L23.2969,14.7031 C23.9063,14.5938 24.4063,13.9063 24.4063,13.2969 L24.4063,7.40625 C24.4063,6.40625 23.7031,6 22.7969,6 L19.5,6.70313 L19.5,-9.79688 L23.2969,-10.5 M7.79688,-7.40625 L16.7031,-9.20313 L16.7031,7.29688 L7.79688,9.20313 L7.79688,-7.40625 "/>
<path class="KeySig" transform="matrix(0.992001,0,0,0.992001,2109.82,435.799)" d="M12,-15.5 C7,-15.5 4.09375,-12.4063 3.59375,-11.7969 L4,-43.9063 C4,-44.7031 3.40625,-45.2969 2.59375,-45.2969 L1.40625,-45.2969 C0.59375,-45.2969 0,-44.7031 0,-43.9063 L0.5,16.2031 C0.5,17 1.09375,17.5938 1.90625,17.5938 C2.09375,17.5938 2.5,17.5 2.70313,17.4063 C11.2969,13.0938 20.2969,4.90625 20.2969,-5.40625 C20.2969,-10.5938 17.9063,-15.5 12,-15.5 M3.29688,12.7031 L3.59375,-6.79688 C3.79688,-7.70313 5.29688,-10.5938 9.29688,-10.5938 C12.9063,-10.5938 13.2031,-7.20313 13.2031,-5.09375 C13.2031,3.79688 9.90625,7.5 3.29688,12.7031"/>
<path class="KeySig" transform="matrix(0.992001,0,0,0.992001,2137.39,398.599)" d="M12,-15.5 C7,-15.5 4.09375,-12.4063 3.59375,-11.7969 L4,-43.9063 C4,-44.7031 3.40625,-45.2969 2.59375,-45.2969 L1.40625,-45.2969 C0.59375,-45.2969 0,-44.7031 0,-43.9063 L0.5,16.2031 C0.5,17 1.09375,17.5938 1.90625,17.5938 C2.09375,17.5938 2.5,17.5 2.70313,17.4063 C11.2969,13.0938 20.2969,4.90625 20.2969,-5.40625 C20.2969,-10.5938 17.9063,-15.5 12,-15.5 M3.29688,12.7031 L3.59375,-6.79688 C3.79688,-7.70313 5.29688,-10.5938 9.29688,-10.5938 C12.9063,-10.5938 13.2031,-7.20313 13.2031,-5.09375 C13.2031,3.79688 9.90625,7.5 3.29688,12.7031"/>
<path class="KeySig" transform="matrix(0.992001,0,0,0.992001,2164.97,448.199)" d="M12,-15.5 C7,-15.5 4.09375,-12.4063 3.59375,-11.7969 L4,-43.9063 C4,-44.7031 3.40625,-45.2969 2.59375,-45.2969 L1.40625,-45.2969 C0.59375,-45.2969 0,-44.7031 0,-43.9063 L0.5,16.2031 C0.5,17 1.09375,17.5938 1.90625,17.5938 C2.09375,17.5938 2.5,17.5 2.70313,17.4063 C11.2969,13.0938 20.2969,4.90625 20.2969,-5.40625 C20.2969,-10.5938 17.9063,-15.5 12,-15.5 M3.29688,12.7031 L3.59375,-6.79688 C3.79688,-7.70313 5.29688,-10.5938 9.29688,-10.5938 C12.9063,-10.5938 13.2031,-7.20313 13.2031,-5.09375 C13.2031,3.79688 9.90625,7.5 3.29688,12.7031"/>
<path class="KeySig" transform="matrix(0.992001,0,0,0.992001,2192.54,410.999)" d="M12,-15.5 C7,-15.5 4.09375,-12.4063 3.59375,-11.7969 L4,-43.9063 C4,-44.7031 3.40625,-45.2969 2.59375,-45.2969 L1.40625,-45.2969 C0.59375,-45.2969 0,-44.7031 0,-43.9063 L0.5,16.2031 C0.5,17 1.09375,17.5938 1.90625,17.5938 C2.09375,17.5938 2.5,17.5 2.70313,17.4063 C11.2969,13.0938 20.2969,4.90625 20.2969,-5.40625 C20.2969,-10.5938 17.9063,-15.5 12,-15.5 M3.29688,12.7031 L3.59375,-6.79688 C3.79688,-7.70313 5.29688,-10.5938 9.29688,-10.5938 C12.9063,-10.5938 13.2031,-7.20313 13.2031,-5.09375 C13.2031,3.79688 9.90625,7.5 3.29688,12.7031"/>
<path class="KeySig" transform="matrix(0.992001,0,0,0.992001,2220.11,460.599)" d="M12,-15.5 C7,-15.5 4.09375,-12.4063 3.59375,-11.7969 L4,-43.9063 C4,-44.7031 3.40625,-45.2969 2.59375,-45.2969 L1.40625,-45.2969 C0.59375,-45.2969 0,-44.7031 0,-43.9063 L0.5,16.2031 C0.5,17 1.09375,17.5938 1.90625,17.5938 C2.09375,17.5938 2.5,17.5 2.70313,17.4063 C11.2969,13.0938 20.2969,4.90625 20.2969,-5.40625 C20.2969,-10.5938 17.9063,-15.5 12,-15.5 M3.29688,12.7031 L3.59375,-6.79688 C3.79688,-7.70313 5.29688,-10.5938 9.29688,-10.5938 C12.9063,-10.5938 13.2031,-7.20313 13.2031,-5.09375 C13.2031,3.79688 9.90625,7.5 3.29688,12.7031"/>
<path class="KeySig" transform="matrix(0.992001,0,0,0.992001,2247.69,423.399)" d="M12,-15.5 C7,-15.5 4.09375,-12.4063 3.59375,-11.7969 L4,-43.9063 C4,-44.7031 3.40625,-45.2969 2.59375,-45.2969 L1.40625,-45.2969 C0.59375,-45.2969 0,-44.7031 0,-43.9063 L0.5,16.2031 C0.5,17 1.09375,17.5938 1.90625,17.5938 C2.09375,17.5938 2.5,17.5 2.70313,17.4063 C11.2969,13.0938 20.2969,4.90625 20.2969,-5.40625 C20.2969,-10.5938 17.9063,-15.5 12,-15.5 M3.29688,12.7031 L3.59375,-6.79688 C3.79688,-7.70313 5.29688,-10.5938 9.29688,-10.5938 C12.9063,-10.5938 13.2031,-7.20313 13.2031,-5.09375 C13.2031,3.79688 9.90625,7.5 3.29688,12.7031"/>
<path class="KeySig" transform="matrix(0.992001,0,0,0.992001,2275.25,472.999)" d="M12,-15.5 C7,-15.5 4.09375,-12.4063 3.59375,-11.7969 L4,-43.9063 C4,-44.7031 3.40625,-45.2969 2.59375,-45.2969 L1.40625,-45.2969 C0.59375,-45.2969 0,-44.7031 0,-43.9063 L0.5,16.2031 C0.5,17 1.09375,17.5938 1.90625,17.5938 C2.09375,17.5938 2.5,17.5 2.70313,17.4063 C11.2969,13.0938 20.2969,4.90625 20.2969,-5.40625 C20.2969,-10.5938 17.9063,-15.5 12,-15.5 M3.29688,12.7031 L3.59375,-6.79688 C3.79688,-7.70313 5.29688,-10.5938 9.29688,-10.5938 C12.9063,-10.5938 13.2031,-7.20313 13.2031,-5.09375 C13.2031,3.79688 9.90625,7.5 3.29688,12.7031"/>
<path class="KeySig" transform="matrix(0.992001,0,0,0.992001,320.122,686.769)" d="M23.2969,-10.5 C23.9063,-10.5938 24.4063,-11.2969 24.4063,-11.9063 L24.4063,-17.7969 C24.4063,-18.7969 23.7031,-19.2031 22.7969,-19.2031 L19.5,-18.5 L19.5,-33.4063 L16.7031,-33.4063 L16.7031,-17.9063 L7.79688,-16.0938 L7.79688,-30.2031 L5,-30.2031 L5,-15.5 L1.09375,-14.7031 C0.5,-14.5938 0,-13.9063 0,-13.2969 L0,-7.5 C0,-6.40625 0.796875,-6.09375 1.70313,-6.09375 L5,-6.79688 L5,9.70313 L1.09375,10.5 C0.5,10.5938 0,11.2969 0,11.9063 L0,17.7031 C0,18.7969 0.796875,19.0938 1.70313,19.0938 L5,18.4063 L5,33.2969 L7.79688,33.2969 L7.79688,17.7969 L16.7031,16 L16.7031,30.1094 L19.5,30.1094 L19.5,15.4063 L23.2969,14.7031 C23.9063,14.5938 24.4063,13.9063 24.4063,13.2969 L24.4063,7.40625 C24.4063,6.40625 23.7031,6 22.7969,6 L19.5,6.70313 L19.5,-9.79688 L23.2969,-10.5 M7.79688,-7.40625 L16.7031,-9.20313 L16.7031,7.29688 L7.79688,9.20313 L7.79688,-7.40625 "/>
<path class="KeySig" transform="matrix(0.992001,0,0,0.992001,347.294,723.969)" d="M23.2969,-10.5 C23.9063,-10.5938 24.4063,-11.2969 24.4063,-11.9063 L24.4063,-17.7969 C24.4063,-18.7969 23.7031,-19.2031 22.7969,-19.2031 L19.5,-18.5 L19.5,-33.4063 L16.7031,-33.4063 L16.7031,-17.9063 L7.79688,-16.0938 L7.79688,-30.2031 L5,-30.2031 L5,-15.5 L1.09375,-14.7031 C0.5,-14.5938 0,-13.9063 0,-13.2969 L0,-7.5 C0,-6.40625 0.796875,-6.09375 1.70313,-6.09375 L5,-6.79688 L5,9.70313 L1.09375,10.5 C0.5,10.5938 0,11.2969 0,11.9063 L0,17.7031 C0,18.7969 0.796875,19.0938 1.70313,19.0938 L5,18.4063 L5,33.2969 L7.79688,33.2969 L7.79688,17.7969 L16.7031,16 L16.7031,30.1094 L19.5,30.1094 L19.5,15.4063 L23.2969,14.7031 C23.9063,14.5938 24.4063,13.9063 24.4063,13.2969 L24.4063,7.40625 C24.4063,6.40625 23.7031,6 22.7969,6 L19.5,6.70313 L19.5,-9.79688 L23.2969,-10.5 M7.79688,-7.40625 L16.7031,-9.20313 L16.7031,7.29688 L7.79688,9.20313 L7.79688,-7.40625 "/>
<path class="KeySig" transform="matrix(0.992001,0,0,0.992001,374.45,674.369)" d="M23.2969,-10.5 C23.9063,-10.5938 24.4063,-11.2969 24.4063,-11.9063 L24.4063,-17.7969 C24.4063,-18.7969 23.7031,-19.2031 22.7969,-19.2031 L19.5,-18.5 L19.5,-33.4063 L16.7031,-33.4063 L16.7031,-17.9063 L7.79688,-16.0938 L7.79688,-30.2031 L5,-30.2031 L5,-15.5 L1.09375,-14.7031 C0.5,-14.5938 0,-13.9063 0,-13.2969 L0,-7.5 C0,-6.40625 0.796875,-6.09375 1.70313,-6.09375 L5,-6.79688 L5,9.70313 L1.09375,10.5 C0.5,10.5938 0,11.2969 0,11.9063 L0,17.7031 C0,18.7969 0.796875,19.0938 1.70313,19.0938 L5,18.4063 L5,33.2969 L7.79688,33.2969 L7.79688,17.7969 L16.7031,16 L16.7031,30.1094 L19.5,30.1094 L19.5,15.4063 L23.2969,14.7031 C23.9063,14.5938 24.4063,13.9063 24.4063,13.2969 L24.4063,7.40625 C24.4063,6.40625 23.7031,6 22.7969,6 L19.5,6.70313 L19.5,-9.79688 L23.2969,-10.5 M7.79688,-7.40625 L16.7031,-9.20313 L16.7031,7.29688 L7.79688,9.20313 L7.79688,-7.40625 "/>
<path class="KeySig" transform="matrix(0.992001,0,0,0.992001,401.621,711.569)" d="M23.2969,-10.5 C23.9063,-10.5938 24.4063,-11.2969 24.4063,-11.9063 L24.4063,-17.7969 C24.4063,-18.7969 23.7031,-19.2031 22.7969,-19.2031 L19.5,-18.5 L19.5,-33.4063 L16.7031,-33.4063 L16.7031,-17.9063 L7.79688,-16.0938 L7.79688,-30.2031 L5,-30.2031 L5,-15.5 L1.09375,-14.7031 C0.5,-14.5938 0,-13.9063 0,-13.2969 L0,-7.5 C0,-6.40625 0.796875,-6.09375 1.70313,-6.09375 L5,-6.79688 L5,9.70313 L1.09375,10.5 C0.5,10.5938 0,11.2969 0,11.9063 L0,17.7031 C0,18.7969 0.796875,19.0938 1.70313,19.0938 L5,18.4063 L5,33.2969 L7.79688,33.2969 L7.79688,17.7969 L16.7031,16 L16.7031,30.1094 L19.5,30.1094 L19.5,15.4063 L23.2969,14.7031 C23.9063,14.5938 24.4063,13.9063 24.4063,13.2969 L24.4063,7.40625 C24.4063,6.40625 23.7031,6 22.7969,6 L19.5,6.70313 L19.5,-9.79688 L23.2969,-10.5 M7.79688,-7.40625 L16.7031,-9.20313 L16.7031,7.29688 L7.79688,9.20313 L7.79688,-7.40625 "/>
<path class="KeySig" transform="matrix(0.992001,0,0,0.992001,428.793,748.769)" d="M23.2969,-10.5 C23.9063,-10.5938 24.4063,-11.2969 24.4063,-11.9063 L24.4063,-17.7969 C24.4063,-18.7969 23.7031,-19.2031 22.7969,-19.2031 L19.5,-18.5 L19.5,-33.4063 L16.7031,-33.4063 L16.7031,-17.9063 L7.79688,-16.0938 L7.79688,-30.2031 L5,-30.2031 L5,-15.5 L1.09375,-14.7031 C0.5,-14.5938 0,-13.9063 0,-13.2969 L0,-7.5 C0,-6.40625 0.796875,-6.09375 1.70313,-6.09375 L5,-6.79688 L5,9.70313 L1.09375,10.5 C0.5,10.5938 0,11.2969 0,11.9063 L0,17.7031 C0,18.7969 0.796875,19.0938 1.70313,19.0938 L5,18.4063 L5,33.2969 L7.79688,33.2969 L7.79688,17.7969 L16.7031,16 L16.7031,30.1094 L19.5,30.1094 L19.5,15.4063 L23.2969,14.7031 C23.9063,14.5938 24.4063,13.9063 24.4063,13.2969 L24.4063,7.40625 C24.4063,6.40625 23.7031,6 22.7969,6 L19.5,6.70313 L19.5,-9.79688 L23.2969,-10.5 M7.79688,-7.40625 L16.7031,-9.20313 L16.7031,7.29688 L7.79688,9.20313 L7.79688,-7.40625 "/>
<path class="KeySig" transform="matrix(0.992001,0,0,0.992001,455.98,699.169)" d="M23.2969,-10.5 C23.9063,-10.5938 24.4063,-11.2969 24.4063,-11.9063 L24.4063,-17.7969 C24.4063,-18.7969 23.7031,-19.2031 22.7969,-19.2031 L19.5,-18.5 L19.5,-33.4063 L16.7031,-33.4063 L16.7031,-17.9063 L7.79688,-16.0938 L7.79688,-30.2031 L5,-30.2031 L5,-15.5 L1.09375,-14.7031 C0.5,-14.5938 0,-13.9063 0,-13.2969 L0,-7.5 C0,-6.40625 0.796875,-6.09375 1.70313,-6.09375 L5,-6.79688 L5,9.70313 L1.09375,10.5 C0.5,10.5938 0,11.2969 0,11.9063 L0,17.7031 C0,18.7969 0.796875,19.0938 1.70313,19.0938 L5,18.4063 L5,33.2969 L7.79688,33.2969 L7.79688,17.7969 L16.7031,16 L16.7031,30.1094 L19.5,30.1094 L19.5,15.4063 L23.2969,14.7031 C23.9063,14.5938 24.4063,13.9063 24.4063,13.2969 L24.4063,7.40625 C24.4063,6.40625 23.7031,6 22.7969,6 L19.5,6.70313 L19.5,-9.79688 L23.2969,-10.5 M7.79688,-7.40625 L16.7031,-9.20313 L16.7031,7.29688 L7.79688,9.20313 L7.79688,-7.40625 "/>
<path class="KeySig" transform="matrix(0.992001,0,0,0.992001,483.151,736.369)" d="M23.2969,-10.5 C23.9063,-10.5938 24.4063,-11.2969 24.4063,-11.9063 L24.4063,-17.7969 C24.4063,-18.7969 23.7031,-19.2031 22.7969,-19.2031 L19.5,-18.5 L19.5,-33.4063 L16.7031,-33.4063 L16.7031,-17.9063 L7.79688,-16.0938 L7.79688,-30.2031 L5,-30.2031 L5,-15.5 L1.09375,-14.7031 C0.5,-14.5938 0,-13.9063 0,-13.2969 L0,-7.5 C0,-6.40625 0.796875,-6.09375 1.70313,-6.09375 L5,-6.79688 L5,9.70313 L1.09375,10.5 C0.5,10.5938 0,11.2969 0,11.9063 L0,17.7031 C0,18.7969 0.796875,19.0938 1.70313,19.0938 L5,18.4063 L5,33.2969 L7.79688,33.2969 L7.79688,17.7969 L16.7031,16 L16.7031,30.1094 L19.5,30.1094 L19.5,15.4063 L23.2969,14.7031 C23.9063,14.5938 24.4063,13.9063 24.4063,13.2969 L24.4063,7.40625 C24.4063,6.40625 23.7031,6 22.7969,6 L19.5,6.70313 L19.5,-9.79688 L23.2969,-10.5 M7.79688,-7.40625 L16.7031,-9.20313 L16.7031,7.29688 L7.79688,9.20313 L7.79688,-7.40625 "/>
<path class="KeySig" transform="matrix(0.992001,0,0,0.992001,2109.82,736.369)" d="M12,-15.5 C7,-15.5 4.09375,-12.4063 3.59375,-11.7969 L4,-43.9063 C4,-44.7031 3.40625,-45.2969 2.59375,-45.2969 L1.40625,-45.2969 C0.59375,-45.2969 0,-44.7031 0,-43.9063 L0.5,16.2031 C0.5,17 1.09375,17.5938 1.90625,17.5938 C2.09375,17.5938 2.5,17.5 2.70313,17.4063 C11.2969,13.0938 20.2969,4.90625 20.2969,-5.40625 C20.2969,-10.5938 17.9063,-15.5 12,-15.5 M3.29688,12.7031 L3.59375,-6.79688 C3.79688,-7.70313 5.29688,-10.5938 9.29688,-10.5938 C12.9063,-10.5938 13.2031,-7.20313 13.2031,-5.09375 C13.2031,3.79688 9.90625,7.5 3.29688,12.7031"/>
<path class="KeySig" transform="matrix(0.992001,0,0,0.992001,2137.39,699.169)" d="M12,-15.5 C7,-15.5 4.09375,-12.4063 3.59375,-11.7969 L4,-43.9063 C4,-44.7031 3.40625,-45.2969 2.59375,-45.2969 L1.40625,-45.2969 C0.59375,-45.2969 0,-44.7031 0,-43.9063 L0.5,16.2031 C0.5,17 1.09375,17.5938 1.90625,17.5938 C2.09375,17.5938 2.5,17.5 2.70313,17.4063 C11.2969,13.0938 20.2969,4.90625 20.2969,-5.40625 C20.2969,-10.5938 17.9063,-15.5 12,-15.5 M3.29688,12.7031 L3.59375,-6.79688 C3.79688,-7.70313 5.29688,-10.5938 9.29688,-10.5938 C12.9063,-10.5938 13.2031,-7.20313 13.2031,-5.09375 C13.2031,3.79688 9.90625,7.5 3.29688,12.7031"/>
<path class="KeySig" transform="matrix(0.992001,0,0,0.992001,2164.97,748.769)" d="M12,-15.5 C7,-15.5 4.09375,-12.4063 3.59375,-11.7969 L4,-43.9063 C4,-44.7031 3.40625,-45.2969 2.59375,-45.2969 L1.40625,-45.2969 C0.59375,-45.2969 0,-44.7031 0,-43.9063 L0.5,16.2031 C0.5,17 1.09375,17.5938 1.90625,17.5938 C2.09375,17.5938 2.5,17.5 2.70313,17.4063 C11.2969,13.0938 20.2969,4.90625 20.2969,-5.40625 C20.2969,-10.5938 17.9063,-15.5 12,-15.5 M3.29688,12.7031 L3.59375,-6.79688 C3.79688,-7.70313 5.29688,-10.5938 9.29688,-10.5938 C12.9063,-10.5938 13.2031,-7.20313 13.2031,-5.09375 C13.2031,3.79688 9.90625,7.5 3.29688,12.7031"/>
<path class="KeySig" transform="matrix(0.992001,0,0,0.992001,2192.54,711.569)" d="M12,-15.5 C7,-15.5 4.09375,-12.4063 3.59375,-11.7969 L4,-43.9063 C4,-44.7031 3.40625,-45.2969 2.59375,-45.2969 L1.40625,-45.2969 C0.59375,-45.2969 0,-44.7031 0,-43.9063 L0.5,16.2031 C0.5,17 1.09375,17.5938 1.90625,17.5938 C2.09375,17.5938 2.5,17.5 2.70313,17.4063 C11.2969,13.0938 20.2969,4.90625 20.2969,-5.40625 C20.2969,-10.5938 17.9063,-15.5 12,-15.5 M3.29688,12.7031 L3.59375,-6.79688 C3.79688,-7.70313 5.29688,-10.5938 9.29688,-10.5938 C12.9063,-10.5938 13.2031,-7.20313 13.2031,-5.09375 C13.2031,3.79688 9.90625,7.5 3.29688,12.7031"/>
<path class="KeySig" transform="matrix(0.992001,0,0,0.992001,2220.11,761.169)" d="M12,-15.5 C7,-15.5 4.09375,-12.4063 3.59375,-11.7969 L4,-43.9063 C4,-44.7031 3.40625,-45.2969 2.59375,-45.2969 L1.40625,-45.2969 C0.59375,-45.2969 0,-44.7031 0,-43.9063 L0.5,16.2031 C0.5,17 1.09375,17.5938 1.90625,17.5938 C2.09375,17.5938 2.5,17.5 2.70313,17.4063 C11.2969,13.0938 20.2969,4.90625 20.2969,-5.40625 C20.2969,-10.5938 17.9063,-15.5 12,-15.5 M3.29688,12.7031 L3.59375,-6.79688 C3.79688,-7.70313 5.29688,-10.5938 9.29688,-10.5938 C12.9063,-10.5938 13.2031,-7.20313 13.2031,-5.09375 C13.2031,3.79688 9.90625,7.5 3.29688,12.7031"/>
<path class="KeySig" transform="matrix(0.992001,0,0,0.992001,2247.69,723.969)" d="M12,-15.5 C7,-15.5 4.09375,-12.4063 3.59375,-11.7969 L4,-43.9063 C4,-44.7031 3.40625,-45.2969 2.59375,-45.2969 L1.40625,-45.2969 C0.59375,-45.2969 0,-44.7031 0,-43.9063 L0.5,16.2031 C0.5,17 1.09375,17.5938 1.90625,17.5938 C2.09375,17.5938 2.5,17.5 2.70313,17.4063 C11.2969,13.0938 20.2969,4.90625 20.2969,-5.40625 C20.2969,-10.5938 17.9063,-15.5 12,-15.5 M3.29688,12.7031 L3.59375,-6.79688 C3.79688,-7.70313 5.29688,-10.5938 9.29688,-10.5938 C12.9063,-10.5938 13.2031,-7.20313 13.2031,-5.09375 C13.2031,3.79688 9.90625,7.5 3.29688,12.7031"/>
<path class="KeySig" transform="matrix(0.992001,0,0,0.992001,2275.25,773.569)" d="M12,-15.5 C7,-15.5 4.09375,-12.4063 3.59375,-11.7969 L4,-43.9063 C4,-44.7031 3.40625,-45.2969 2.59375,-45.2969 L1.40625,-45.2969 C0.59375,-45.2969 0,-44.7031 0,-43.9063 L0.5,16.2031 C0.5,17 1.09375,17.5938 1.90625,17.5938 C2.09375,17.5938 2.5,17.5 2.70313,17.4063 C11.2969,13.0938 20.2969,4.90625 20.2969,-5.40625 C20.2969,-10.5938 17.9063,-15.5 12,-15.5 M3.29688,12.7031 L3.59375,-6.79688 C3.79688,-7.70313 5.29688,-10.5938 9.29688,-10.5938 C12.9063,-10.5938 13.2031,-7.20313 13.2031,-5.09375 C13.2031,3.79688 9.90625,7.5 3.29688,12.7031"/>
<path class="Lyrics" d="M1557.48,548.531 L1548.23,549.094 L1548.23,551.235 L1550.68,551.235 C1552.53,551.281 1552.78,551.594 1552.78,553.735 L1552.78,581.594 C1552.73,582.344 1552.68,582.641 1552.48,582.891 C1552.12,583.344 1551.18,583.547 1549.03,583.594 L1548.68,583.594 L1548.68,585.391 L1561.62,585.391 L1561.62,583.594 L1561.28,583.594 C1557.93,583.485 1557.48,583.235 1557.48,581.438 L1557.48,548.531 M1585.87,569.297 C1585.87,566.141 1585.32,564.547 1583.87,563.344 C1582.23,561.985 1579.78,561.344 1576.57,561.344 C1570.93,561.344 1566.82,563.985 1566.82,567.641 C1566.82,569.485 1567.98,570.688 1569.73,570.688 C1571.32,570.688 1572.43,569.641 1572.43,568.141 C1572.43,567.485 1572.18,566.797 1571.68,566.094 C1571.37,565.735 1571.32,565.641 1571.32,565.391 C1571.32,564.391 1573.32,563.485 1575.73,563.485 C1577.32,563.485 1579.07,563.985 1579.87,564.735 C1580.82,565.547 1581.18,566.735 1581.18,568.985 L1581.18,570.938 C1575.98,571.844 1574.32,572.235 1571.87,573.188 C1567.53,574.797 1565.48,577.094 1565.48,580.297 C1565.48,583.891 1568.28,586.141 1572.73,586.141 C1576.18,586.141 1579.28,584.735 1581.43,582.188 C1582.23,584.735 1583.48,585.735 1585.82,585.735 C1588.07,585.735 1590.43,584.297 1590.43,582.844 C1590.43,582.485 1590.23,582.235 1589.93,582.235 C1589.73,582.235 1589.53,582.297 1589.18,582.438 C1588.48,582.735 1588.18,582.797 1587.78,582.797 C1586.37,582.797 1585.87,581.891 1585.87,579.344 L1585.87,569.297 M1581.18,575.391 C1581.18,578.391 1581.03,579.094 1580.18,580.391 C1578.93,582.235 1576.68,583.485 1574.48,583.485 C1572.18,583.485 1570.53,581.844 1570.53,579.594 C1570.53,577.485 1571.57,575.985 1573.78,574.938 C1575.32,574.235 1577.28,573.735 1581.18,573.094 L1581.18,575.391 "/>
<path class="Lyrics" d="M576.959,585.735 L585.662,585.391 L585.662,583.235 L584.756,583.235 C581.912,583.094 581.662,582.797 581.662,579.594 L581.662,548.531 L571.865,549.094 L571.865,551.235 L574.803,551.235 C576.709,551.281 576.959,551.594 576.959,553.735 L576.959,565.047 C575.115,562.485 572.959,561.344 570.053,561.344 C564.412,561.344 560.115,566.797 560.115,573.985 C560.115,581.094 564.256,586.141 570.053,586.141 C573.209,586.141 575.365,584.797 576.959,581.797 L576.959,585.735 M571.053,564.047 C573.115,564.047 575.053,565.547 575.959,567.844 C576.615,569.344 576.912,571.391 576.912,573.844 C576.912,579.688 574.615,583.438 571.006,583.438 C567.459,583.438 565.365,580.141 565.365,574.594 C565.365,571.594 565.662,569.344 566.303,567.688 C567.162,565.438 569.006,564.047 571.053,564.047 M599.553,561.344 C593.412,561.344 588.662,566.797 588.662,573.797 C588.662,580.641 593.459,586.141 599.459,586.141 C605.459,586.141 610.256,580.641 610.256,573.735 C610.256,566.891 605.459,561.344 599.553,561.344 M599.553,563.485 C603.053,563.485 605.006,567.141 605.006,573.735 C605.006,580.391 603.053,583.985 599.459,583.985 C595.865,583.985 593.912,580.391 593.912,573.797 C593.912,566.985 595.803,563.485 599.553,563.485"/>
<path class="Lyrics" d="M1767.18,561.547 L1765.43,561.547 L1763.97,563.344 C1762.18,561.938 1760.38,561.344 1757.88,561.344 C1753.47,561.344 1750.58,564.188 1750.58,568.594 C1750.58,573.297 1753.63,574.485 1757.63,575.438 L1760.27,576.047 C1764.22,576.985 1765.63,577.985 1765.63,579.985 C1765.63,582.344 1763.58,583.985 1760.68,583.985 C1756.43,583.985 1753.43,581.297 1752.22,576.297 L1750.22,576.297 L1750.22,585.735 L1751.97,585.735 L1753.72,583.688 C1755.77,585.344 1758.02,586.141 1760.58,586.141 C1765.47,586.141 1768.72,583.094 1768.72,578.438 C1768.72,576.235 1768.02,574.547 1766.63,573.391 C1765.43,572.344 1764.43,571.938 1761.38,571.297 L1758.88,570.735 C1756.13,570.141 1756.13,570.141 1755.22,569.641 C1754.13,569.141 1753.47,568.094 1753.47,566.985 C1753.47,564.938 1755.38,563.547 1758.13,563.547 C1762.22,563.547 1764.22,566.438 1765.43,569.938 L1767.18,569.938 L1767.18,561.547 M1778.63,549.641 C1777.02,549.641 1775.72,550.938 1775.72,552.531 C1775.72,554.141 1777.02,555.438 1778.58,555.438 C1780.22,555.438 1781.52,554.141 1781.52,552.531 C1781.52,550.938 1780.22,549.641 1778.63,549.641 M1780.97,562.094 L1771.58,562.641 L1771.58,564.797 L1774.13,564.797 C1776.02,564.844 1776.27,565.141 1776.27,567.297 L1776.27,581.594 C1776.22,582.344 1776.18,582.641 1775.97,582.891 C1775.63,583.344 1774.68,583.547 1772.52,583.594 L1772.18,583.594 L1772.18,585.391 L1785.13,585.391 L1785.13,583.594 L1784.77,583.594 C1781.43,583.485 1780.97,583.235 1780.97,581.438 L1780.97,562.094 "/>
<path class="Lyrics" d="M1357.88,561.547 L1356.13,561.547 L1354.67,563.344 C1352.88,561.938 1351.08,561.344 1348.58,561.344 C1344.17,561.344 1341.28,564.188 1341.28,568.594 C1341.28,573.297 1344.33,574.485 1348.33,575.438 L1350.97,576.047 C1354.92,576.985 1356.33,577.985 1356.33,579.985 C1356.33,582.344 1354.28,583.985 1351.38,583.985 C1347.13,583.985 1344.13,581.297 1342.92,576.297 L1340.92,576.297 L1340.92,585.735 L1342.67,585.735 L1344.42,583.688 C1346.47,585.344 1348.72,586.141 1351.28,586.141 C1356.17,586.141 1359.42,583.094 1359.42,578.438 C1359.42,576.235 1358.72,574.547 1357.33,573.391 C1356.13,572.344 1355.13,571.938 1352.08,571.297 L1349.58,570.735 C1346.83,570.141 1346.83,570.141 1345.92,569.641 C1344.83,569.141 1344.17,568.094 1344.17,566.985 C1344.17,564.938 1346.08,563.547 1348.83,563.547 C1352.92,563.547 1354.92,566.438 1356.13,569.938 L1357.88,569.938 L1357.88,561.547 M1373.97,561.344 C1367.83,561.344 1363.08,566.797 1363.08,573.797 C1363.08,580.641 1367.88,586.141 1373.88,586.141 C1379.88,586.141 1384.67,580.641 1384.67,573.735 C1384.67,566.891 1379.88,561.344 1373.97,561.344 M1373.97,563.485 C1377.47,563.485 1379.42,567.141 1379.42,573.735 C1379.42,580.391 1377.47,583.985 1373.88,583.985 C1370.28,583.985 1368.33,580.391 1368.33,573.797 C1368.33,566.985 1370.22,563.485 1373.97,563.485 M1396.58,548.531 L1387.33,549.094 L1387.33,551.235 L1389.78,551.235 C1391.63,551.281 1391.88,551.594 1391.88,553.735 L1391.88,581.594 C1391.83,582.344 1391.78,582.641 1391.58,582.891 C1391.22,583.344 1390.28,583.547 1388.13,583.594 L1387.78,583.594 L1387.78,585.391 L1400.72,585.391 L1400.72,583.594 L1400.38,583.594 C1397.03,583.485 1396.58,583.235 1396.58,581.438 L1396.58,548.531 "/>
<path class="Lyrics" d="M1957.58,585.735 L1966.28,585.391 L1966.28,583.235 L1965.37,583.235 C1962.53,583.094 1962.28,582.797 1962.28,579.594 L1962.28,548.531 L1952.48,549.094 L1952.48,551.235 L1955.42,551.235 C1957.33,551.281 1957.58,551.594 1957.58,553.735 L1957.58,565.047 C1955.73,562.485 1953.58,561.344 1950.67,561.344 C1945.03,561.344 1940.73,566.797 1940.73,573.985 C1940.73,581.094 1944.87,586.141 1950.67,586.141 C1953.83,586.141 1955.98,584.797 1957.58,581.797 L1957.58,585.735 M1951.67,564.047 C1953.73,564.047 1955.67,565.547 1956.58,567.844 C1957.23,569.344 1957.53,571.391 1957.53,573.844 C1957.53,579.688 1955.23,583.438 1951.62,583.438 C1948.08,583.438 1945.98,580.141 1945.98,574.594 C1945.98,571.594 1946.28,569.344 1946.92,567.688 C1947.78,565.438 1949.62,564.047 1951.67,564.047 M1980.17,561.344 C1974.03,561.344 1969.28,566.797 1969.28,573.797 C1969.28,580.641 1974.08,586.141 1980.08,586.141 C1986.08,586.141 1990.87,580.641 1990.87,573.735 C1990.87,566.891 1986.08,561.344 1980.17,561.344 M1980.17,563.485 C1983.67,563.485 1985.62,567.141 1985.62,573.735 C1985.62,580.391 1983.67,583.985 1980.08,583.985 C1976.48,583.985 1974.53,580.391 1974.53,573.797 C1974.53,566.985 1976.42,563.485 1980.17,563.485"/>
<path class="Lyrics" d="M954.122,562.094 L945.232,562.641 L945.232,564.797 L947.279,564.797 C949.169,564.844 949.419,565.141 949.419,567.297 L949.419,581.594 C949.372,582.344 949.326,582.641 949.122,582.891 C948.779,583.344 947.826,583.547 945.669,583.594 L945.482,583.594 L945.482,585.391 L958.076,585.391 L958.076,583.594 L957.872,583.594 C954.576,583.485 954.122,583.235 954.122,581.391 L954.122,572.141 C954.122,567.688 956.576,564.391 959.826,564.391 C962.669,564.391 964.122,566.438 964.122,570.485 L964.122,581.641 C964.076,582.297 964.029,582.641 963.779,582.891 C963.482,583.344 962.482,583.547 960.326,583.594 L960.122,583.594 L960.122,585.391 L972.779,585.391 L972.779,583.594 L972.576,583.594 C969.279,583.485 968.826,583.235 968.826,581.438 L968.826,572.594 C968.826,567.594 971.076,564.391 974.576,564.391 C977.435,564.391 978.826,566.547 978.826,571.047 L978.826,581.594 C978.779,582.297 978.732,582.641 978.482,582.891 C978.185,583.344 977.185,583.547 975.029,583.594 L974.826,583.594 L974.826,585.391 L987.482,585.391 L987.482,583.594 L987.279,583.594 C983.982,583.485 983.529,583.235 983.529,581.391 L983.529,570.047 C983.529,566.938 983.232,565.891 981.935,564.188 C980.482,562.344 978.435,561.344 976.029,561.344 C972.779,561.344 970.372,562.891 968.232,566.344 C967.372,563.344 964.669,561.344 961.326,561.344 C958.279,561.344 956.076,562.797 954.122,565.938 L954.122,562.094 M996.029,549.641 C994.419,549.641 993.122,550.938 993.122,552.531 C993.122,554.141 994.419,555.438 995.982,555.438 C997.622,555.438 998.919,554.141 998.919,552.531 C998.919,550.938 997.622,549.641 996.029,549.641 M998.372,562.094 L988.982,562.641 L988.982,564.797 L991.529,564.797 C993.419,564.844 993.669,565.141 993.669,567.297 L993.669,581.594 C993.622,582.344 993.576,582.641 993.372,582.891 C993.029,583.344 992.076,583.547 989.919,583.594 L989.576,583.594 L989.576,585.391 L1002.53,585.391 L1002.53,583.594 L1002.17,583.594 C998.826,583.485 998.372,583.235 998.372,581.438 L998.372,562.094 "/>
<path class="Lyrics" d="M762.082,562.094 L753.222,562.641 L753.222,564.797 L755.269,564.797 C757.175,564.844 757.425,565.141 757.425,567.297 L757.425,581.594 C757.378,582.344 757.332,582.641 757.128,582.891 C756.769,583.344 755.769,583.547 753.628,583.594 L753.425,583.594 L753.425,585.391 L766.769,585.391 L766.769,583.594 L765.878,583.594 C762.519,583.485 762.082,583.235 762.082,581.438 L762.082,578.735 C762.128,570.344 765.128,563.938 769.019,563.735 C768.332,564.547 768.128,565.047 768.128,565.985 C768.128,567.594 769.269,568.735 770.878,568.735 C772.722,568.735 773.925,567.391 773.925,565.391 C773.925,562.938 772.222,561.344 769.582,561.344 C766.425,561.344 763.722,563.844 762.082,568.297 L762.082,562.094 M797.425,574.141 C797.472,566.641 793.222,561.344 787.128,561.344 C780.722,561.344 775.925,566.891 775.925,574.391 C775.925,581.438 780.472,586.141 787.222,586.141 C792.019,586.141 795.378,583.797 797.425,579.047 L795.675,578.094 C793.628,581.938 791.519,583.438 788.175,583.438 C785.628,583.438 783.769,582.391 782.472,580.141 C781.582,578.641 781.175,576.891 781.222,574.141 L797.425,574.141 M781.269,571.985 C781.269,568.485 782.878,563.485 787.082,563.485 C790.082,563.485 792.082,566.141 792.082,570.188 C792.082,571.594 791.628,571.985 790.019,571.985 L781.269,571.985 "/>
<path class="Lyrics" d="M1160.02,562.094 L1160.02,559.235 C1160.02,556.735 1160.18,555.094 1160.57,554.094 C1161.38,551.891 1163.13,550.531 1165.13,550.531 C1166.18,550.531 1166.82,550.844 1166.82,551.391 C1166.82,551.594 1166.82,551.641 1166.52,552.031 C1166.23,552.485 1166.07,553.094 1166.07,553.641 C1166.07,555.141 1167.27,556.281 1168.82,556.281 C1170.48,556.281 1171.63,555.031 1171.63,553.235 C1171.63,550.344 1169.13,548.531 1165.07,548.531 C1161.63,548.531 1159.07,549.735 1157.32,552.235 C1155.82,554.344 1155.32,556.485 1155.32,560.547 L1155.32,562.094 L1150.93,562.094 L1150.93,564.235 L1155.32,564.235 L1155.32,581.594 C1155.27,582.297 1155.23,582.594 1155.02,582.891 C1154.68,583.344 1153.73,583.547 1151.57,583.594 L1151.38,583.594 L1151.38,585.391 L1164.73,585.391 L1164.73,583.594 L1163.82,583.594 C1160.48,583.485 1160.02,583.235 1160.02,581.438 L1160.02,564.235 L1165.52,564.235 L1165.52,562.094 L1160.02,562.094 M1188.57,569.297 C1188.57,566.141 1188.02,564.547 1186.57,563.344 C1184.93,561.985 1182.48,561.344 1179.27,561.344 C1173.63,561.344 1169.52,563.985 1169.52,567.641 C1169.52,569.485 1170.68,570.688 1172.43,570.688 C1174.02,570.688 1175.13,569.641 1175.13,568.141 C1175.13,567.485 1174.88,566.797 1174.38,566.094 C1174.07,565.735 1174.02,565.641 1174.02,565.391 C1174.02,564.391 1176.02,563.485 1178.43,563.485 C1180.02,563.485 1181.77,563.985 1182.57,564.735 C1183.52,565.547 1183.88,566.735 1183.88,568.985 L1183.88,570.938 C1178.68,571.844 1177.02,572.235 1174.57,573.188 C1170.23,574.797 1168.18,577.094 1168.18,580.297 C1168.18,583.891 1170.98,586.141 1175.43,586.141 C1178.88,586.141 1181.98,584.735 1184.13,582.188 C1184.93,584.735 1186.18,585.735 1188.52,585.735 C1190.77,585.735 1193.13,584.297 1193.13,582.844 C1193.13,582.485 1192.93,582.235 1192.63,582.235 C1192.43,582.235 1192.23,582.297 1191.88,582.438 C1191.18,582.735 1190.88,582.797 1190.48,582.797 C1189.07,582.797 1188.57,581.891 1188.57,579.344 L1188.57,569.297 M1183.88,575.391 C1183.88,578.391 1183.73,579.094 1182.88,580.391 C1181.63,582.235 1179.38,583.485 1177.18,583.485 C1174.88,583.485 1173.23,581.844 1173.23,579.594 C1173.23,577.485 1174.27,575.985 1176.48,574.938 C1178.02,574.235 1179.98,573.735 1183.88,573.094 L1183.88,575.391 "/>
<path class="Lyrics" d="M1549.32,812.272 L1540.43,812.819 L1540.43,814.975 L1542.48,814.975 C1544.37,815.022 1544.62,815.319 1544.62,817.475 L1544.62,831.772 C1544.57,832.522 1544.53,832.819 1544.32,833.069 C1543.98,833.522 1543.03,833.725 1540.87,833.772 L1540.68,833.772 L1540.68,835.569 L1553.28,835.569 L1553.28,833.772 L1553.07,833.772 C1549.78,833.663 1549.32,833.413 1549.32,831.569 L1549.32,822.319 C1549.32,817.866 1551.78,814.569 1555.03,814.569 C1557.87,814.569 1559.32,816.616 1559.32,820.663 L1559.32,831.819 C1559.28,832.475 1559.23,832.819 1558.98,833.069 C1558.68,833.522 1557.68,833.725 1555.53,833.772 L1555.32,833.772 L1555.32,835.569 L1567.98,835.569 L1567.98,833.772 L1567.78,833.772 C1564.48,833.663 1564.03,833.413 1564.03,831.616 L1564.03,822.772 C1564.03,817.772 1566.28,814.569 1569.78,814.569 C1572.64,814.569 1574.03,816.725 1574.03,821.225 L1574.03,831.772 C1573.98,832.475 1573.93,832.819 1573.68,833.069 C1573.39,833.522 1572.39,833.725 1570.23,833.772 L1570.03,833.772 L1570.03,835.569 L1582.68,835.569 L1582.68,833.772 L1582.48,833.772 C1579.18,833.663 1578.73,833.413 1578.73,831.569 L1578.73,820.225 C1578.73,817.116 1578.43,816.069 1577.14,814.366 C1575.68,812.522 1573.64,811.522 1571.23,811.522 C1567.98,811.522 1565.57,813.069 1563.43,816.522 C1562.57,813.522 1559.87,811.522 1556.53,811.522 C1553.48,811.522 1551.28,812.975 1549.32,816.116 L1549.32,812.272 M1591.23,799.819 C1589.62,799.819 1588.32,801.116 1588.32,802.71 C1588.32,804.319 1589.62,805.616 1591.18,805.616 C1592.82,805.616 1594.12,804.319 1594.12,802.71 C1594.12,801.116 1592.82,799.819 1591.23,799.819 M1593.57,812.272 L1584.18,812.819 L1584.18,814.975 L1586.73,814.975 C1588.62,815.022 1588.87,815.319 1588.87,817.475 L1588.87,831.772 C1588.82,832.522 1588.78,832.819 1588.57,833.069 C1588.23,833.522 1587.28,833.725 1585.12,833.772 L1584.78,833.772 L1584.78,835.569 L1597.73,835.569 L1597.73,833.772 L1597.37,833.772 C1594.03,833.663 1593.57,833.413 1593.57,831.616 L1593.57,812.272 "/>
<path class="Lyrics" d="M775.175,811.725 L773.425,811.725 L771.972,813.522 C770.175,812.116 768.378,811.522 765.878,811.522 C761.472,811.522 758.582,814.366 758.582,818.772 C758.582,823.475 761.628,824.663 765.628,825.616 L768.269,826.225 C772.222,827.163 773.628,828.163 773.628,830.163 C773.628,832.522 771.582,834.163 768.675,834.163 C764.425,834.163 761.425,831.475 760.222,826.475 L758.222,826.475 L758.222,835.913 L759.972,835.913 L761.722,833.866 C763.769,835.522 766.019,836.319 768.582,836.319 C773.472,836.319 776.722,833.272 776.722,828.616 C776.722,826.413 776.019,824.725 774.628,823.569 C773.425,822.522 772.425,822.116 769.378,821.475 L766.878,820.913 C764.128,820.319 764.128,820.319 763.222,819.819 C762.128,819.319 761.472,818.272 761.472,817.163 C761.472,815.116 763.378,813.725 766.128,813.725 C770.222,813.725 772.222,816.616 773.425,820.116 L775.175,820.116 L775.175,811.725 M786.628,799.819 C785.019,799.819 783.722,801.116 783.722,802.71 C783.722,804.319 785.019,805.616 786.582,805.616 C788.222,805.616 789.519,804.319 789.519,802.71 C789.519,801.116 788.222,799.819 786.628,799.819 M788.972,812.272 L779.582,812.819 L779.582,814.975 L782.128,814.975 C784.019,815.022 784.269,815.319 784.269,817.475 L784.269,831.772 C784.222,832.522 784.175,832.819 783.972,833.069 C783.628,833.522 782.675,833.725 780.519,833.772 L780.175,833.772 L780.175,835.569 L793.128,835.569 L793.128,833.772 L792.769,833.772 C789.425,833.663 788.972,833.413 788.972,831.616 L788.972,812.272 "/>
<path class="Lyrics" d="M1754.08,812.272 L1745.22,812.819 L1745.22,814.975 L1747.27,814.975 C1749.18,815.022 1749.43,815.319 1749.43,817.475 L1749.43,831.772 C1749.38,832.522 1749.33,832.819 1749.13,833.069 C1748.77,833.522 1747.77,833.725 1745.63,833.772 L1745.43,833.772 L1745.43,835.569 L1758.77,835.569 L1758.77,833.772 L1757.88,833.772 C1754.52,833.663 1754.08,833.413 1754.08,831.616 L1754.08,828.913 C1754.13,820.522 1757.13,814.116 1761.02,813.913 C1760.33,814.725 1760.13,815.225 1760.13,816.163 C1760.13,817.772 1761.27,818.913 1762.88,818.913 C1764.72,818.913 1765.93,817.569 1765.93,815.569 C1765.93,813.116 1764.22,811.522 1761.58,811.522 C1758.43,811.522 1755.72,814.022 1754.08,818.475 L1754.08,812.272 M1789.43,824.319 C1789.47,816.819 1785.22,811.522 1779.13,811.522 C1772.72,811.522 1767.93,817.069 1767.93,824.569 C1767.93,831.616 1772.47,836.319 1779.22,836.319 C1784.02,836.319 1787.38,833.975 1789.43,829.225 L1787.68,828.272 C1785.63,832.116 1783.52,833.616 1780.18,833.616 C1777.63,833.616 1775.77,832.569 1774.47,830.319 C1773.58,828.819 1773.18,827.069 1773.22,824.319 L1789.43,824.319 M1773.27,822.163 C1773.27,818.663 1774.88,813.663 1779.08,813.663 C1782.08,813.663 1784.08,816.319 1784.08,820.366 C1784.08,821.772 1783.63,822.163 1782.02,822.163 L1773.27,822.163 "/>
<path class="Lyrics" d="M1159.48,811.725 L1157.73,811.725 L1156.27,813.522 C1154.48,812.116 1152.68,811.522 1150.18,811.522 C1145.77,811.522 1142.88,814.366 1142.88,818.772 C1142.88,823.475 1145.93,824.663 1149.93,825.616 L1152.57,826.225 C1156.52,827.163 1157.93,828.163 1157.93,830.163 C1157.93,832.522 1155.88,834.163 1152.98,834.163 C1148.73,834.163 1145.73,831.475 1144.52,826.475 L1142.52,826.475 L1142.52,835.913 L1144.27,835.913 L1146.02,833.866 C1148.07,835.522 1150.32,836.319 1152.88,836.319 C1157.77,836.319 1161.02,833.272 1161.02,828.616 C1161.02,826.413 1160.32,824.725 1158.93,823.569 C1157.73,822.522 1156.73,822.116 1153.68,821.475 L1151.18,820.913 C1148.43,820.319 1148.43,820.319 1147.52,819.819 C1146.43,819.319 1145.77,818.272 1145.77,817.163 C1145.77,815.116 1147.68,813.725 1150.43,813.725 C1154.52,813.725 1156.52,816.616 1157.73,820.116 L1159.48,820.116 L1159.48,811.725 M1175.57,811.522 C1169.43,811.522 1164.68,816.975 1164.68,823.975 C1164.68,830.819 1169.48,836.319 1175.48,836.319 C1181.48,836.319 1186.27,830.819 1186.27,823.913 C1186.27,817.069 1181.48,811.522 1175.57,811.522 M1175.57,813.663 C1179.07,813.663 1181.02,817.319 1181.02,823.913 C1181.02,830.569 1179.07,834.163 1175.48,834.163 C1171.88,834.163 1169.93,830.569 1169.93,823.975 C1169.93,817.163 1171.82,813.663 1175.57,813.663 M1198.18,798.71 L1188.93,799.272 L1188.93,801.413 L1191.38,801.413 C1193.23,801.46 1193.48,801.772 1193.48,803.913 L1193.48,831.772 C1193.43,832.522 1193.38,832.819 1193.18,833.069 C1192.82,833.522 1191.88,833.725 1189.73,833.772 L1189.38,833.772 L1189.38,835.569 L1202.32,835.569 L1202.32,833.772 L1201.98,833.772 C1198.63,833.663 1198.18,833.413 1198.18,831.616 L1198.18,798.71 "/>
<path class="Lyrics" d="M1957.58,835.913 L1966.28,835.569 L1966.28,833.413 L1965.37,833.413 C1962.53,833.272 1962.28,832.975 1962.28,829.772 L1962.28,798.71 L1952.48,799.272 L1952.48,801.413 L1955.42,801.413 C1957.33,801.46 1957.58,801.772 1957.58,803.913 L1957.58,815.225 C1955.73,812.663 1953.58,811.522 1950.67,811.522 C1945.03,811.522 1940.73,816.975 1940.73,824.163 C1940.73,831.272 1944.87,836.319 1950.67,836.319 C1953.83,836.319 1955.98,834.975 1957.58,831.975 L1957.58,835.913 M1951.67,814.225 C1953.73,814.225 1955.67,815.725 1956.58,818.022 C1957.23,819.522 1957.53,821.569 1957.53,824.022 C1957.53,829.866 1955.23,833.616 1951.62,833.616 C1948.08,833.616 1945.98,830.319 1945.98,824.772 C1945.98,821.772 1946.28,819.522 1946.92,817.866 C1947.78,815.616 1949.62,814.225 1951.67,814.225 M1980.17,811.522 C1974.03,811.522 1969.28,816.975 1969.28,823.975 C1969.28,830.819 1974.08,836.319 1980.08,836.319 C1986.08,836.319 1990.87,830.819 1990.87,823.913 C1990.87,817.069 1986.08,811.522 1980.17,811.522 M1980.17,813.663 C1983.67,813.663 1985.62,817.319 1985.62,823.913 C1985.62,830.569 1983.67,834.163 1980.08,834.163 C1976.48,834.163 1974.53,830.569 1974.53,823.975 C1974.53,817.163 1976.42,813.663 1980.17,813.663"/>
<path class="Lyrics" d="M962.279,798.71 L953.029,799.272 L953.029,801.413 L955.482,801.413 C957.326,801.46 957.576,801.772 957.576,803.913 L957.576,831.772 C957.529,832.522 957.482,832.819 957.279,833.069 C956.919,833.522 955.982,833.725 953.826,833.772 L953.482,833.772 L953.482,835.569 L966.419,835.569 L966.419,833.772 L966.076,833.772 C962.732,833.663 962.279,833.413 962.279,831.616 L962.279,798.71 M990.669,819.475 C990.669,816.319 990.122,814.725 988.669,813.522 C987.029,812.163 984.576,811.522 981.372,811.522 C975.732,811.522 971.622,814.163 971.622,817.819 C971.622,819.663 972.779,820.866 974.529,820.866 C976.122,820.866 977.232,819.819 977.232,818.319 C977.232,817.663 976.982,816.975 976.482,816.272 C976.169,815.913 976.122,815.819 976.122,815.569 C976.122,814.569 978.122,813.663 980.529,813.663 C982.122,813.663 983.872,814.163 984.669,814.913 C985.622,815.725 985.982,816.913 985.982,819.163 L985.982,821.116 C980.779,822.022 979.122,822.413 976.669,823.366 C972.326,824.975 970.279,827.272 970.279,830.475 C970.279,834.069 973.076,836.319 977.529,836.319 C980.982,836.319 984.076,834.913 986.232,832.366 C987.029,834.913 988.279,835.913 990.622,835.913 C992.872,835.913 995.232,834.475 995.232,833.022 C995.232,832.663 995.029,832.413 994.732,832.413 C994.529,832.413 994.326,832.475 993.982,832.616 C993.279,832.913 992.982,832.975 992.576,832.975 C991.169,832.975 990.669,832.069 990.669,829.522 L990.669,819.475 M985.982,825.569 C985.982,828.569 985.826,829.272 984.982,830.569 C983.732,832.413 981.482,833.663 979.279,833.663 C976.982,833.663 975.326,832.022 975.326,829.772 C975.326,827.663 976.372,826.163 978.576,825.116 C980.122,824.413 982.076,823.913 985.982,823.272 L985.982,825.569 "/>
<path class="Lyrics" d="M1358.42,812.272 L1358.42,809.413 C1358.42,806.913 1358.58,805.272 1358.97,804.272 C1359.78,802.069 1361.53,800.71 1363.53,800.71 C1364.58,800.71 1365.22,801.022 1365.22,801.569 C1365.22,801.772 1365.22,801.819 1364.92,802.21 C1364.63,802.663 1364.47,803.272 1364.47,803.819 C1364.47,805.319 1365.67,806.46 1367.22,806.46 C1368.88,806.46 1370.03,805.21 1370.03,803.413 C1370.03,800.522 1367.53,798.71 1363.47,798.71 C1360.03,798.71 1357.47,799.913 1355.72,802.413 C1354.22,804.522 1353.72,806.663 1353.72,810.725 L1353.72,812.272 L1349.33,812.272 L1349.33,814.413 L1353.72,814.413 L1353.72,831.772 C1353.67,832.475 1353.63,832.772 1353.42,833.069 C1353.08,833.522 1352.13,833.725 1349.97,833.772 L1349.78,833.772 L1349.78,835.569 L1363.13,835.569 L1363.13,833.772 L1362.22,833.772 C1358.88,833.663 1358.42,833.413 1358.42,831.616 L1358.42,814.413 L1363.92,814.413 L1363.92,812.272 L1358.42,812.272 M1386.97,819.475 C1386.97,816.319 1386.42,814.725 1384.97,813.522 C1383.33,812.163 1380.88,811.522 1377.67,811.522 C1372.03,811.522 1367.92,814.163 1367.92,817.819 C1367.92,819.663 1369.08,820.866 1370.83,820.866 C1372.42,820.866 1373.53,819.819 1373.53,818.319 C1373.53,817.663 1373.28,816.975 1372.78,816.272 C1372.47,815.913 1372.42,815.819 1372.42,815.569 C1372.42,814.569 1374.42,813.663 1376.83,813.663 C1378.42,813.663 1380.17,814.163 1380.97,814.913 C1381.92,815.725 1382.28,816.913 1382.28,819.163 L1382.28,821.116 C1377.08,822.022 1375.42,822.413 1372.97,823.366 C1368.63,824.975 1366.58,827.272 1366.58,830.475 C1366.58,834.069 1369.38,836.319 1373.83,836.319 C1377.28,836.319 1380.38,834.913 1382.53,832.366 C1383.33,834.913 1384.58,835.913 1386.92,835.913 C1389.17,835.913 1391.53,834.475 1391.53,833.022 C1391.53,832.663 1391.33,832.413 1391.03,832.413 C1390.83,832.413 1390.63,832.475 1390.28,832.616 C1389.58,832.913 1389.28,832.975 1388.88,832.975 C1387.47,832.975 1386.97,832.069 1386.97,829.522 L1386.97,819.475 M1382.28,825.569 C1382.28,828.569 1382.13,829.272 1381.28,830.569 C1380.03,832.413 1377.78,833.663 1375.58,833.663 C1373.28,833.663 1371.63,832.022 1371.63,829.772 C1371.63,827.663 1372.67,826.163 1374.88,825.116 C1376.42,824.413 1378.38,823.913 1382.28,823.272 L1382.28,825.569 "/>
<path class="Lyrics" d="M576.959,835.913 L585.662,835.569 L585.662,833.413 L584.756,833.413 C581.912,833.272 581.662,832.975 581.662,829.772 L581.662,798.71 L571.865,799.272 L571.865,801.413 L574.803,801.413 C576.709,801.46 576.959,801.772 576.959,803.913 L576.959,815.225 C575.115,812.663 572.959,811.522 570.053,811.522 C564.412,811.522 560.115,816.975 560.115,824.163 C560.115,831.272 564.256,836.319 570.053,836.319 C573.209,836.319 575.365,834.975 576.959,831.975 L576.959,835.913 M571.053,814.225 C573.115,814.225 575.053,815.725 575.959,818.022 C576.615,819.522 576.912,821.569 576.912,824.022 C576.912,829.866 574.615,833.616 571.006,833.616 C567.459,833.616 565.365,830.319 565.365,824.772 C565.365,821.772 565.662,819.522 566.303,817.866 C567.162,815.616 569.006,814.225 571.053,814.225 M599.553,811.522 C593.412,811.522 588.662,816.975 588.662,823.975 C588.662,830.819 593.459,836.319 599.459,836.319 C605.459,836.319 610.256,830.819 610.256,823.913 C610.256,817.069 605.459,811.522 599.553,811.522 M599.553,813.663 C603.053,813.663 605.006,817.319 605.006,823.913 C605.006,830.569 603.053,834.163 599.459,834.163 C595.865,834.163 593.912,830.569 593.912,823.975 C593.912,817.163 595.803,813.663 599.553,813.663"/>
<path class="StaffText" d="M580.441,326.195 C578.753,328.242 574.144,329.789 569.55,329.899 L569.55,332.039 L573.941,332.039 C576.847,332.102 577.144,332.399 577.05,335.195 L577.05,355.242 C577.05,357.805 577.05,357.899 576.753,358.352 C576.347,358.852 575.394,359.055 572.597,359.055 L569.347,359.055 L569.347,361.399 L589.144,361.399 L589.144,359.055 L586.394,359.055 C583.597,359.055 582.644,358.852 582.253,358.352 C581.894,357.899 581.894,357.852 581.894,355.242 L581.894,334.602 C581.894,331.789 582.003,329.445 582.253,326.195 L580.441,326.195 M608.894,345.695 L634.097,345.695 L634.097,341.695 L608.894,341.695 L608.894,345.695 M608.894,355.805 L634.097,355.805 L634.097,351.805 L608.894,351.805 L608.894,355.805 M682.3,324.945 L680.394,324.945 L678.394,327.899 C674.753,325.242 672.894,324.539 669.441,324.539 C664.691,324.539 660.644,326.539 657.3,330.539 C654.097,334.352 652.597,338.555 652.597,343.695 C652.597,354.492 659.644,362.149 669.503,362.149 C677.503,362.149 682.597,357.445 683.753,349.055 L681.394,348.649 C680.05,356.102 676.253,359.805 670.097,359.805 C662.691,359.805 659.191,354.695 659.191,343.899 C659.191,338.195 659.941,334.445 661.644,331.445 C663.191,328.649 666.253,326.899 669.503,326.899 C673.003,326.899 676.097,328.742 678.003,331.945 C678.956,333.602 679.644,335.445 680.847,339.399 L683.05,339.399 L682.3,324.945 M693.097,349.992 L691.441,361.399 L694.691,361.399 L696.347,349.992 L702.503,349.992 L700.847,361.399 L704.097,361.399 L705.753,349.992 L711.191,349.992 L711.191,347.195 L706.144,347.195 L707.097,340.602 L712.55,340.602 L712.55,337.805 L707.503,337.805 L709.05,327.102 L705.8,327.102 L704.253,337.805 L698.097,337.805 L699.644,327.102 L696.394,327.102 L694.847,337.805 L689.347,337.805 L689.347,340.602 L694.441,340.602 L693.503,347.195 L688.003,347.195 L688.003,349.992 L693.097,349.992 M697.691,340.602 L703.847,340.602 L702.894,347.195 L696.753,347.195 L697.691,340.602 "/>
<path class="Page" d="M229,212.661 L227.078,212.661 C223.609,215.255 219.703,216.348 213.156,216.458 L213.156,219.536 L215.469,219.536 C220.359,219.536 220.422,219.645 220.359,224.161 L220.359,243.676 C220.359,247.083 220.359,247.255 219.984,247.801 C219.484,248.411 218.375,248.63 215.406,248.63 L213.656,248.63 L213.656,251.598 L235.594,251.598 L235.594,248.63 L233.828,248.63 C230.922,248.63 229.875,248.411 229.375,247.801 C229,247.255 229,247.036 229,243.676 L229,212.661 M265.125,237.958 L265.125,221.02 C265.125,220.192 265.234,216.63 265.453,212.661 L261.656,212.661 L241.641,237.583 L241.641,241.645 L256.484,241.645 L256.484,243.676 C256.484,247.083 256.484,247.301 256.109,247.864 C255.656,248.411 254.5,248.63 251.922,248.63 L251.313,248.63 L251.313,251.598 L270.063,251.598 L270.063,248.63 L269.469,248.63 C267.047,248.567 265.891,248.348 265.5,247.864 C265.125,247.255 265.125,247.083 265.125,243.676 L265.125,241.645 L270.625,241.645 L270.625,237.958 L265.125,237.958 M256.484,237.958 L245.656,237.958 L256.484,224.208 L256.484,237.958 "/>
<path class="Bracket" transform="matrix(3.596,0,0,3.7497,181.331,761.169)" d="M0.90625,-50 C2.70313,-51.9063 6.20313,-55.7969 6.20313,-63 C6.20313,-72.1094 2.29688,-81.3125 2.29688,-87 C2.29688,-93.1094 5.79688,-98.8125 6,-99 C6,-99.1094 6,-99.1094 6,-99.2031 C6,-99.3125 6,-99.4063 5.90625,-99.5 C5.79688,-99.5 5.59375,-99.5 5.5,-99.3125 C5.40625,-99.2031 0,-93.8125 0,-85.6094 C0,-76.8125 3.5,-70.6094 3.5,-59.1094 C3.5,-56.9063 2.59375,-53.4063 0.09375,-50.2969 C0,-50.2969 0,-50.1094 -0.09375,-50 C-0.09375,-49.9063 0,-49.7969 0.09375,-49.7031 C2.59375,-46.6094 3.5,-43.1094 3.5,-40.9063 C3.5,-29.4063 0,-23.2031 0,-14.4063 C0,-6.29688 5.40625,-0.796875 5.5,-0.703125 C5.59375,-0.5 5.79688,-0.40625 5.90625,-0.5 C6,-0.59375 6.09375,-0.703125 6,-0.796875 C6,-0.796875 6,-0.90625 6,-1 C5.79688,-1.20313 2.29688,-6.90625 2.29688,-13 C2.29688,-18.7031 6.20313,-27.9063 6.20313,-37 C6.20313,-44.2969 2.70313,-48.1094 0.90625,-50"/>
</svg>
