<?xml version="1.0" encoding="UTF-8" standalone="no"?>
<svg width="2520px" height="1008px" viewBox="0 0 2520 1008"
 xmlns="http://www.w3.org/2000/svg" xmlns:xlink="http://www.w3.org/1999/xlink" version="1.2" baseProfile="tiny">
<title>大调调性 (12)</title>
<desc>Generated by MuseScore Studio 4.4.4</desc>
<path class="" fill="#ffffff" fill-rule="evenodd" d="M0,0 L2520,0 L2520,1008 L0,1008 L0,0 "/>
<polyline class="StaffLines" fill="none" stroke="#000000" stroke-width="2.73" stroke-linejoin="bevel" points="212.598,386.199 2307.8,386.199"/>
<polyline class="StaffLines" fill="none" stroke="#000000" stroke-width="2.73" stroke-linejoin="bevel" points="212.598,410.999 2307.8,410.999"/>
<polyline class="StaffLines" fill="none" stroke="#000000" stroke-width="2.73" stroke-linejoin="bevel" points="212.598,435.799 2307.8,435.799"/>
<polyline class="StaffLines" fill="none" stroke="#000000" stroke-width="2.73" stroke-linejoin="bevel" points="212.598,460.599 2307.8,460.599"/>
<polyline class="StaffLines" fill="none" stroke="#000000" stroke-width="2.73" stroke-linejoin="bevel" points="212.598,485.399 2307.8,485.399"/>
<polyline class="StaffLines" fill="none" stroke="#000000" stroke-width="2.73" stroke-linejoin="bevel" points="212.598,673.577 2307.8,673.577"/>
<polyline class="StaffLines" fill="none" stroke="#000000" stroke-width="2.73" stroke-linejoin="bevel" points="212.598,698.377 2307.8,698.377"/>
<polyline class="StaffLines" fill="none" stroke="#000000" stroke-width="2.73" stroke-linejoin="bevel" points="212.598,723.177 2307.8,723.177"/>
<polyline class="StaffLines" fill="none" stroke="#000000" stroke-width="2.73" stroke-linejoin="bevel" points="212.598,747.977 2307.8,747.977"/>
<polyline class="StaffLines" fill="none" stroke="#000000" stroke-width="2.73" stroke-linejoin="bevel" points="212.598,772.777 2307.8,772.777"/>
<path class="MeasureNumber" d="M227.63,321.802 C230.755,320.317 233.676,318.677 233.676,314.677 C233.676,311.036 230.598,308.442 226.317,308.442 C221.161,308.442 217.161,312.161 217.161,317.005 C217.161,319.442 218.005,321.005 220.161,322.567 C215.442,324.364 212.911,327.286 212.911,330.927 C212.911,334.802 216.114,337.192 221.239,337.192 C227.395,337.192 231.801,333.442 231.801,328.239 C231.801,325.083 230.083,323.395 227.63,321.802 M225.911,320.849 C221.833,318.927 220.364,317.364 220.364,315.083 C220.364,312.317 222.833,310.161 225.989,310.161 C228.755,310.161 230.676,311.927 230.676,314.442 C230.676,317.442 228.598,319.802 225.911,320.849 M221.676,323.645 C223.598,324.52 224.239,324.833 225.239,325.442 C227.239,326.645 228.317,328.239 228.317,330.036 C228.317,333.114 225.442,335.442 221.676,335.442 C218.27,335.442 216.161,333.52 216.161,330.442 C216.161,327.442 218.083,325.083 221.676,323.645 M250.317,322.927 C249.317,327.567 246.63,335.52 240.911,335.52 C239.755,335.52 239.005,335.036 239.005,334.317 C239.005,334.036 239.083,333.927 239.395,333.442 C239.801,332.927 240.005,332.442 240.005,331.88 C240.005,330.567 238.958,329.567 237.598,329.567 C236.005,329.567 234.88,330.755 234.88,332.52 C234.88,335.239 237.442,337.192 241.005,337.192 C249.755,337.192 255.348,326.005 255.348,318.395 C255.348,312.161 252.348,308.442 247.395,308.442 C241.442,308.442 237.005,313.927 237.005,319.645 C237.005,323.442 239.911,326.317 243.801,326.317 C246.442,326.317 248.473,325.239 250.317,322.927 M247.364,310.13 C249.911,310.13 251.551,312.161 251.551,315.364 C251.551,320.317 248.833,323.958 245.161,323.958 C242.63,323.958 241.239,322.239 241.239,319.239 C241.239,315.645 242.958,310.13 247.364,310.13"/>
<polyline class="BarLine" fill="none" stroke="#000000" stroke-width="4.46" stroke-linejoin="bevel" points="214.83,384.835 214.83,673.577"/>
<polyline class="BarLine" fill="none" stroke="#000000" stroke-width="4.46" stroke-linejoin="bevel" points="1900.77,384.835 1900.77,673.577"/>
<polyline class="BarLine" fill="none" stroke="#000000" stroke-width="4.46" stroke-linejoin="bevel" points="1104.08,384.835 1104.08,673.577"/>
<polyline class="BarLine" fill="none" stroke="#000000" stroke-width="4.46" stroke-linejoin="bevel" points="1303.25,384.835 1303.25,673.577"/>
<polyline class="BarLine" fill="none" stroke="#000000" stroke-width="4.46" stroke-linejoin="bevel" points="904.903,384.835 904.903,673.577"/>
<polyline class="BarLine" fill="none" stroke="#000000" stroke-width="4.46" stroke-linejoin="bevel" points="1701.6,384.835 1701.6,673.577"/>
<polyline class="BarLine" fill="none" stroke="#000000" stroke-width="4.46" stroke-linejoin="bevel" points="1502.42,384.835 1502.42,673.577"/>
<polyline class="BarLine" fill="none" stroke="#000000" stroke-width="4.46" stroke-linejoin="bevel" points="705.73,384.835 705.73,673.577"/>
<polyline class="BarLine" fill="none" stroke="#000000" stroke-width="4.46" stroke-linejoin="bevel" points="2099.94,384.835 2099.94,673.577"/>
<polyline class="BarLine" fill="none" stroke="#000000" stroke-width="13.64" stroke-linejoin="bevel" points="2118.17,384.835 2118.17,673.577"/>
<polyline class="BarLine" fill="none" stroke="#000000" stroke-width="4.46" stroke-linejoin="bevel" points="2099.94,672.213 2099.94,774.141"/>
<polyline class="BarLine" fill="none" stroke="#000000" stroke-width="13.64" stroke-linejoin="bevel" points="2118.17,672.213 2118.17,774.141"/>
<polyline class="BarLine" fill="none" stroke="#000000" stroke-width="4.46" stroke-linejoin="bevel" points="1104.08,672.213 1104.08,774.141"/>
<polyline class="BarLine" fill="none" stroke="#000000" stroke-width="4.46" stroke-linejoin="bevel" points="214.83,672.213 214.83,774.141"/>
<polyline class="BarLine" fill="none" stroke="#000000" stroke-width="4.46" stroke-linejoin="bevel" points="1900.77,672.213 1900.77,774.141"/>
<polyline class="BarLine" fill="none" stroke="#000000" stroke-width="4.46" stroke-linejoin="bevel" points="1502.42,672.213 1502.42,774.141"/>
<polyline class="BarLine" fill="none" stroke="#000000" stroke-width="4.46" stroke-linejoin="bevel" points="1303.25,672.213 1303.25,774.141"/>
<polyline class="BarLine" fill="none" stroke="#000000" stroke-width="4.46" stroke-linejoin="bevel" points="904.903,672.213 904.903,774.141"/>
<polyline class="BarLine" fill="none" stroke="#000000" stroke-width="4.46" stroke-linejoin="bevel" points="1701.6,672.213 1701.6,774.141"/>
<polyline class="BarLine" fill="none" stroke="#000000" stroke-width="4.46" stroke-linejoin="bevel" points="705.73,672.213 705.73,774.141"/>
<polyline class="LedgerLine" fill="none" stroke="#000000" stroke-width="3.97" stroke-linejoin="bevel" points="531.604,623.977 584.971,623.977"/>
<polyline class="LedgerLine" fill="none" stroke="#000000" stroke-width="3.97" stroke-linejoin="bevel" points="1129.12,648.777 1182.49,648.777"/>
<polyline class="LedgerLine" fill="none" stroke="#000000" stroke-width="3.97" stroke-linejoin="bevel" points="929.951,648.777 983.318,648.777"/>
<polyline class="LedgerLine" fill="none" stroke="#000000" stroke-width="3.97" stroke-linejoin="bevel" points="730.778,623.977 784.144,623.977"/>
<polyline class="LedgerLine" fill="none" stroke="#000000" stroke-width="3.97" stroke-linejoin="bevel" points="730.778,648.777 784.144,648.777"/>
<polyline class="LedgerLine" fill="none" stroke="#000000" stroke-width="3.97" stroke-linejoin="bevel" points="531.604,648.777 584.971,648.777"/>
<path class="Note" transform="matrix(0.992001,0,0,0.992001,738.962,460.599)" d="M18.7031,-13.5938 C4.90625,-13.5938 0,-6.59375 0,-0.09375 C0,6.40625 4.90625,13.4063 18.7031,13.4063 C32.5,13.4063 37.2969,6.40625 37.2969,-0.09375 C37.2969,-6.59375 32.5,-13.5938 18.7031,-13.5938 M19.5,10.2031 C16.7031,10.2031 14.7969,9.40625 13.5,6.90625 C12.2031,4.40625 10.4063,-2.09375 10.2969,-4.70313 C10.0938,-7.40625 11.0938,-9 13.5,-9.79688 C14.7031,-10.2031 16.2969,-10.4063 17.9063,-10.4063 C20.5938,-10.4063 22.4063,-9.79688 23.7969,-7.09375 C25.2031,-4.5 27.1094,2 27.1094,4.5 C27.1094,9.40625 23.5,10.2031 19.5,10.2031"/>
<path class="Note" transform="matrix(0.992001,0,0,0.992001,1336.48,423.399)" d="M18.7031,-13.5938 C4.90625,-13.5938 0,-6.59375 0,-0.09375 C0,6.40625 4.90625,13.4063 18.7031,13.4063 C32.5,13.4063 37.2969,6.40625 37.2969,-0.09375 C37.2969,-6.59375 32.5,-13.5938 18.7031,-13.5938 M19.5,10.2031 C16.7031,10.2031 14.7969,9.40625 13.5,6.90625 C12.2031,4.40625 10.4063,-2.09375 10.2969,-4.70313 C10.0938,-7.40625 11.0938,-9 13.5,-9.79688 C14.7031,-10.2031 16.2969,-10.4063 17.9063,-10.4063 C20.5938,-10.4063 22.4063,-9.79688 23.7969,-7.09375 C25.2031,-4.5 27.1094,2 27.1094,4.5 C27.1094,9.40625 23.5,10.2031 19.5,10.2031"/>
<path class="Note" transform="matrix(0.992001,0,0,0.992001,1535.66,410.999)" d="M18.7031,-13.5938 C4.90625,-13.5938 0,-6.59375 0,-0.09375 C0,6.40625 4.90625,13.4063 18.7031,13.4063 C32.5,13.4063 37.2969,6.40625 37.2969,-0.09375 C37.2969,-6.59375 32.5,-13.5938 18.7031,-13.5938 M19.5,10.2031 C16.7031,10.2031 14.7969,9.40625 13.5,6.90625 C12.2031,4.40625 10.4063,-2.09375 10.2969,-4.70313 C10.0938,-7.40625 11.0938,-9 13.5,-9.79688 C14.7031,-10.2031 16.2969,-10.4063 17.9063,-10.4063 C20.5938,-10.4063 22.4063,-9.79688 23.7969,-7.09375 C25.2031,-4.5 27.1094,2 27.1094,4.5 C27.1094,9.40625 23.5,10.2031 19.5,10.2031"/>
<path class="Note" transform="matrix(0.992001,0,0,0.992001,1734.83,398.599)" d="M18.7031,-13.5938 C4.90625,-13.5938 0,-6.59375 0,-0.09375 C0,6.40625 4.90625,13.4063 18.7031,13.4063 C32.5,13.4063 37.2969,6.40625 37.2969,-0.09375 C37.2969,-6.59375 32.5,-13.5938 18.7031,-13.5938 M19.5,10.2031 C16.7031,10.2031 14.7969,9.40625 13.5,6.90625 C12.2031,4.40625 10.4063,-2.09375 10.2969,-4.70313 C10.0938,-7.40625 11.0938,-9 13.5,-9.79688 C14.7031,-10.2031 16.2969,-10.4063 17.9063,-10.4063 C20.5938,-10.4063 22.4063,-9.79688 23.7969,-7.09375 C25.2031,-4.5 27.1094,2 27.1094,4.5 C27.1094,9.40625 23.5,10.2031 19.5,10.2031"/>
<path class="Note" transform="matrix(0.992001,0,0,0.992001,539.788,472.999)" d="M18.7031,-13.5938 C4.90625,-13.5938 0,-6.59375 0,-0.09375 C0,6.40625 4.90625,13.4063 18.7031,13.4063 C32.5,13.4063 37.2969,6.40625 37.2969,-0.09375 C37.2969,-6.59375 32.5,-13.5938 18.7031,-13.5938 M19.5,10.2031 C16.7031,10.2031 14.7969,9.40625 13.5,6.90625 C12.2031,4.40625 10.4063,-2.09375 10.2969,-4.70313 C10.0938,-7.40625 11.0938,-9 13.5,-9.79688 C14.7031,-10.2031 16.2969,-10.4063 17.9063,-10.4063 C20.5938,-10.4063 22.4063,-9.79688 23.7969,-7.09375 C25.2031,-4.5 27.1094,2 27.1094,4.5 C27.1094,9.40625 23.5,10.2031 19.5,10.2031"/>
<path class="Note" transform="matrix(0.992001,0,0,0.992001,1934,386.199)" d="M18.7031,-13.5938 C4.90625,-13.5938 0,-6.59375 0,-0.09375 C0,6.40625 4.90625,13.4063 18.7031,13.4063 C32.5,13.4063 37.2969,6.40625 37.2969,-0.09375 C37.2969,-6.59375 32.5,-13.5938 18.7031,-13.5938 M19.5,10.2031 C16.7031,10.2031 14.7969,9.40625 13.5,6.90625 C12.2031,4.40625 10.4063,-2.09375 10.2969,-4.70313 C10.0938,-7.40625 11.0938,-9 13.5,-9.79688 C14.7031,-10.2031 16.2969,-10.4063 17.9063,-10.4063 C20.5938,-10.4063 22.4063,-9.79688 23.7969,-7.09375 C25.2031,-4.5 27.1094,2 27.1094,4.5 C27.1094,9.40625 23.5,10.2031 19.5,10.2031"/>
<path class="Note" transform="matrix(0.992001,0,0,0.992001,938.135,448.199)" d="M18.7031,-13.5938 C4.90625,-13.5938 0,-6.59375 0,-0.09375 C0,6.40625 4.90625,13.4063 18.7031,13.4063 C32.5,13.4063 37.2969,6.40625 37.2969,-0.09375 C37.2969,-6.59375 32.5,-13.5938 18.7031,-13.5938 M19.5,10.2031 C16.7031,10.2031 14.7969,9.40625 13.5,6.90625 C12.2031,4.40625 10.4063,-2.09375 10.2969,-4.70313 C10.0938,-7.40625 11.0938,-9 13.5,-9.79688 C14.7031,-10.2031 16.2969,-10.4063 17.9063,-10.4063 C20.5938,-10.4063 22.4063,-9.79688 23.7969,-7.09375 C25.2031,-4.5 27.1094,2 27.1094,4.5 C27.1094,9.40625 23.5,10.2031 19.5,10.2031"/>
<path class="Note" transform="matrix(0.992001,0,0,0.992001,1137.31,435.799)" d="M18.7031,-13.5938 C4.90625,-13.5938 0,-6.59375 0,-0.09375 C0,6.40625 4.90625,13.4063 18.7031,13.4063 C32.5,13.4063 37.2969,6.40625 37.2969,-0.09375 C37.2969,-6.59375 32.5,-13.5938 18.7031,-13.5938 M19.5,10.2031 C16.7031,10.2031 14.7969,9.40625 13.5,6.90625 C12.2031,4.40625 10.4063,-2.09375 10.2969,-4.70313 C10.0938,-7.40625 11.0938,-9 13.5,-9.79688 C14.7031,-10.2031 16.2969,-10.4063 17.9063,-10.4063 C20.5938,-10.4063 22.4063,-9.79688 23.7969,-7.09375 C25.2031,-4.5 27.1094,2 27.1094,4.5 C27.1094,9.40625 23.5,10.2031 19.5,10.2031"/>
<path class="Note" transform="matrix(0.992001,0,0,0.992001,1734.83,685.977)" d="M18.7031,-13.5938 C4.90625,-13.5938 0,-6.59375 0,-0.09375 C0,6.40625 4.90625,13.4063 18.7031,13.4063 C32.5,13.4063 37.2969,6.40625 37.2969,-0.09375 C37.2969,-6.59375 32.5,-13.5938 18.7031,-13.5938 M19.5,10.2031 C16.7031,10.2031 14.7969,9.40625 13.5,6.90625 C12.2031,4.40625 10.4063,-2.09375 10.2969,-4.70313 C10.0938,-7.40625 11.0938,-9 13.5,-9.79688 C14.7031,-10.2031 16.2969,-10.4063 17.9063,-10.4063 C20.5938,-10.4063 22.4063,-9.79688 23.7969,-7.09375 C25.2031,-4.5 27.1094,2 27.1094,4.5 C27.1094,9.40625 23.5,10.2031 19.5,10.2031"/>
<path class="Note" transform="matrix(0.992001,0,0,0.992001,1336.48,661.177)" d="M18.7031,-13.5938 C4.90625,-13.5938 0,-6.59375 0,-0.09375 C0,6.40625 4.90625,13.4063 18.7031,13.4063 C32.5,13.4063 37.2969,6.40625 37.2969,-0.09375 C37.2969,-6.59375 32.5,-13.5938 18.7031,-13.5938 M19.5,10.2031 C16.7031,10.2031 14.7969,9.40625 13.5,6.90625 C12.2031,4.40625 10.4063,-2.09375 10.2969,-4.70313 C10.0938,-7.40625 11.0938,-9 13.5,-9.79688 C14.7031,-10.2031 16.2969,-10.4063 17.9063,-10.4063 C20.5938,-10.4063 22.4063,-9.79688 23.7969,-7.09375 C25.2031,-4.5 27.1094,2 27.1094,4.5 C27.1094,9.40625 23.5,10.2031 19.5,10.2031"/>
<path class="Note" transform="matrix(0.992001,0,0,0.992001,1137.31,648.777)" d="M18.7031,-13.5938 C4.90625,-13.5938 0,-6.59375 0,-0.09375 C0,6.40625 4.90625,13.4063 18.7031,13.4063 C32.5,13.4063 37.2969,6.40625 37.2969,-0.09375 C37.2969,-6.59375 32.5,-13.5938 18.7031,-13.5938 M19.5,10.2031 C16.7031,10.2031 14.7969,9.40625 13.5,6.90625 C12.2031,4.40625 10.4063,-2.09375 10.2969,-4.70313 C10.0938,-7.40625 11.0938,-9 13.5,-9.79688 C14.7031,-10.2031 16.2969,-10.4063 17.9063,-10.4063 C20.5938,-10.4063 22.4063,-9.79688 23.7969,-7.09375 C25.2031,-4.5 27.1094,2 27.1094,4.5 C27.1094,9.40625 23.5,10.2031 19.5,10.2031"/>
<path class="Note" transform="matrix(0.992001,0,0,0.992001,738.962,623.977)" d="M18.7031,-13.5938 C4.90625,-13.5938 0,-6.59375 0,-0.09375 C0,6.40625 4.90625,13.4063 18.7031,13.4063 C32.5,13.4063 37.2969,6.40625 37.2969,-0.09375 C37.2969,-6.59375 32.5,-13.5938 18.7031,-13.5938 M19.5,10.2031 C16.7031,10.2031 14.7969,9.40625 13.5,6.90625 C12.2031,4.40625 10.4063,-2.09375 10.2969,-4.70313 C10.0938,-7.40625 11.0938,-9 13.5,-9.79688 C14.7031,-10.2031 16.2969,-10.4063 17.9063,-10.4063 C20.5938,-10.4063 22.4063,-9.79688 23.7969,-7.09375 C25.2031,-4.5 27.1094,2 27.1094,4.5 C27.1094,9.40625 23.5,10.2031 19.5,10.2031"/>
<path class="Note" transform="matrix(0.992001,0,0,0.992001,539.788,611.577)" d="M18.7031,-13.5938 C4.90625,-13.5938 0,-6.59375 0,-0.09375 C0,6.40625 4.90625,13.4063 18.7031,13.4063 C32.5,13.4063 37.2969,6.40625 37.2969,-0.09375 C37.2969,-6.59375 32.5,-13.5938 18.7031,-13.5938 M19.5,10.2031 C16.7031,10.2031 14.7969,9.40625 13.5,6.90625 C12.2031,4.40625 10.4063,-2.09375 10.2969,-4.70313 C10.0938,-7.40625 11.0938,-9 13.5,-9.79688 C14.7031,-10.2031 16.2969,-10.4063 17.9063,-10.4063 C20.5938,-10.4063 22.4063,-9.79688 23.7969,-7.09375 C25.2031,-4.5 27.1094,2 27.1094,4.5 C27.1094,9.40625 23.5,10.2031 19.5,10.2031"/>
<path class="Note" transform="matrix(0.992001,0,0,0.992001,1934,698.377)" d="M18.7031,-13.5938 C4.90625,-13.5938 0,-6.59375 0,-0.09375 C0,6.40625 4.90625,13.4063 18.7031,13.4063 C32.5,13.4063 37.2969,6.40625 37.2969,-0.09375 C37.2969,-6.59375 32.5,-13.5938 18.7031,-13.5938 M19.5,10.2031 C16.7031,10.2031 14.7969,9.40625 13.5,6.90625 C12.2031,4.40625 10.4063,-2.09375 10.2969,-4.70313 C10.0938,-7.40625 11.0938,-9 13.5,-9.79688 C14.7031,-10.2031 16.2969,-10.4063 17.9063,-10.4063 C20.5938,-10.4063 22.4063,-9.79688 23.7969,-7.09375 C25.2031,-4.5 27.1094,2 27.1094,4.5 C27.1094,9.40625 23.5,10.2031 19.5,10.2031"/>
<path class="Note" transform="matrix(0.992001,0,0,0.992001,938.135,636.377)" d="M18.7031,-13.5938 C4.90625,-13.5938 0,-6.59375 0,-0.09375 C0,6.40625 4.90625,13.4063 18.7031,13.4063 C32.5,13.4063 37.2969,6.40625 37.2969,-0.09375 C37.2969,-6.59375 32.5,-13.5938 18.7031,-13.5938 M19.5,10.2031 C16.7031,10.2031 14.7969,9.40625 13.5,6.90625 C12.2031,4.40625 10.4063,-2.09375 10.2969,-4.70313 C10.0938,-7.40625 11.0938,-9 13.5,-9.79688 C14.7031,-10.2031 16.2969,-10.4063 17.9063,-10.4063 C20.5938,-10.4063 22.4063,-9.79688 23.7969,-7.09375 C25.2031,-4.5 27.1094,2 27.1094,4.5 C27.1094,9.40625 23.5,10.2031 19.5,10.2031"/>
<path class="Note" transform="matrix(0.992001,0,0,0.992001,1535.66,673.577)" d="M18.7031,-13.5938 C4.90625,-13.5938 0,-6.59375 0,-0.09375 C0,6.40625 4.90625,13.4063 18.7031,13.4063 C32.5,13.4063 37.2969,6.40625 37.2969,-0.09375 C37.2969,-6.59375 32.5,-13.5938 18.7031,-13.5938 M19.5,10.2031 C16.7031,10.2031 14.7969,9.40625 13.5,6.90625 C12.2031,4.40625 10.4063,-2.09375 10.2969,-4.70313 C10.0938,-7.40625 11.0938,-9 13.5,-9.79688 C14.7031,-10.2031 16.2969,-10.4063 17.9063,-10.4063 C20.5938,-10.4063 22.4063,-9.79688 23.7969,-7.09375 C25.2031,-4.5 27.1094,2 27.1094,4.5 C27.1094,9.40625 23.5,10.2031 19.5,10.2031"/>
<path class="Clef" transform="matrix(0.992001,0,0,0.992001,235.662,460.599)" d="M12.2969,51.2969 C12.2969,57.9063 17.2969,66.6094 30.7969,66.6094 C35.5,66.6094 39.6094,65.4063 43.2031,63.2031 C48.6094,59.4063 50,52.7969 50,46.5 C50,42.6094 49.4063,38.1094 48.4063,32.4063 C48.1094,30.4063 47.5,27.4063 46.9063,23.5 C56.7031,20.2969 64,10.0938 64,-0.203125 C64,-15.2969 53.2969,-25.5 38.7031,-25.5 C37.7031,-31.5 36.7031,-37.4063 35.9063,-43 C46.4063,-54.1094 53.7031,-66.6094 53.7031,-82.5 C53.7031,-91.6094 50.9063,-99 49.2969,-102.609 C46.9063,-107.703 44,-111.203 42.2031,-111.203 C41.5,-111.203 38.4063,-110 35.1094,-106.109 C28.7031,-98.5 26.9063,-85.7031 26.9063,-77.3125 C26.9063,-71.9063 27.4063,-67 29.1094,-55.7969 C29,-55.7031 23.7969,-50.4063 21.7031,-48.7031 C12.5938,-40.2969 0,-28.1094 0,-8.09375 C0,10.5938 16.2969,25.2969 34.9063,25.2969 C37.7969,25.2969 40.5,25 42.7969,24.5938 C44.7031,34.2031 45.9063,41.2031 45.9063,46.5 C45.9063,56.9063 40.5,62.4063 30.4063,62.4063 C28,62.4063 25.9063,61.9063 25.7031,61.9063 C25.6094,61.7969 25.4063,61.7031 25.4063,61.6094 C25.4063,61.4063 25.6094,61.2969 25.9063,61.2969 C30.6094,60.5 35.2969,56.5 35.2969,50.1094 C35.2969,44.7031 31.2031,39 23.7031,39 C16.7031,39 12.2969,44.7031 12.2969,51.2969 M33.2031,-82.2031 C34.1094,-86.2031 38.7031,-96.7031 43.9063,-96.7031 C45.4063,-96.7031 47.7969,-91.9063 47.7969,-84.9063 C47.7969,-74.5 40.1094,-66.7031 33.2031,-59.9063 C32.6094,-63.9063 32.1094,-67.7969 32.1094,-72 C32.1094,-75.7031 32.4063,-79.1094 33.2031,-82.2031 M42,20.5938 C40,21 38.1094,21.2031 36.2031,21.2031 C21.9063,21.2031 9.70313,11.2031 9.70313,-3.90625 C9.70313,-16.0938 18.2969,-27 27.1094,-34.6094 C28.7969,-36.1094 30.4063,-37.5 31.9063,-39 C32.7969,-33.6094 33.5,-28.9063 34.2031,-24.7969 C25.0938,-22.0938 18.9063,-12.5 18.9063,-3.09375 C18.9063,3.90625 24.4063,13.5 32.4063,13.5 C33.2031,13.5 34.1094,13.0938 34.1094,12.2031 C34.1094,11.2969 33.1094,10.7969 31.9063,10 C28,7.59375 25.7969,5 25.7969,0.09375 C25.7969,-6 30.4063,-10.9063 36.2031,-12.2969 L42,20.5938 M56.2031,2.09375 C56.2031,9.20313 53.2969,16.5 46.2031,19.4063 C44.1094,7.40625 41.4063,-8.5 40.7031,-12.9063 C49.7031,-12.9063 56.2031,-6.79688 56.2031,2.09375"/>
<path class="Clef" transform="matrix(0.992001,0,0,0.992001,235.662,698.377)" d="M25.4063,-25.0938 C17.7969,-25.0938 11.7031,-20.7031 11.5938,-20.7031 C5.70313,-16.4063 1.90625,-9.79688 1.90625,-2.5 C1.90625,4.79688 6.09375,10.2031 13.5,10.2031 C19.9063,10.2031 24.9063,5.90625 24.9063,-0.703125 C24.9063,-6.40625 19.9063,-11.0938 14.2969,-11.0938 C13.0938,-11.0938 12,-10.9063 11.0938,-10.5938 C10.0938,-10.2031 8.40625,-9.20313 7.59375,-8.5 C8.29688,-12.9063 11.2969,-17.2969 15.2031,-19.4063 C17.7031,-20.7969 20.9063,-21.4063 24.4063,-21.4063 C34.6094,-21.4063 39.6094,-13.2031 39.6094,3.59375 C39.6094,16.5938 31.2969,35.2969 21.5,44.1094 C11.0938,53.6094 1.29688,58.1094 1.20313,58.1094 C1.20313,58.1094 0,58.7969 0,60 C0,60.2031 0.09375,60.2969 0.09375,60.5 C0.40625,61.5 1.29688,61.7031 2,61.7031 L2.29688,61.6094 C2.5,61.6094 13.9063,56.9063 23,49.7969 C37,39.7031 52.7969,21.9063 52.7969,3.5 C52.7969,-13.9063 43.4063,-25.0938 25.4063,-25.0938 M56.7969,-12.4063 C56.7969,-9.59375 59,-7.40625 61.6094,-7.40625 C64.2031,-7.40625 66.4063,-9.59375 66.4063,-12.4063 C66.4063,-15.2031 64.2031,-17.5 61.6094,-17.5 C59,-17.5 56.7969,-15.2031 56.7969,-12.4063 M56.7969,12.2969 C56.7969,15.0938 59,17.4063 61.6094,17.4063 C64.2031,17.4063 66.4063,15.0938 66.4063,12.2969 C66.4063,9.5 64.2031,7.20313 61.6094,7.20313 C59,7.20313 56.7969,9.5 56.7969,12.2969"/>
<path class="KeySig" transform="matrix(0.992001,0,0,0.992001,320.122,386.199)" d="M23.2969,-10.5 C23.9063,-10.5938 24.4063,-11.2969 24.4063,-11.9063 L24.4063,-17.7969 C24.4063,-18.7969 23.7031,-19.2031 22.7969,-19.2031 L19.5,-18.5 L19.5,-33.4063 L16.7031,-33.4063 L16.7031,-17.9063 L7.79688,-16.0938 L7.79688,-30.2031 L5,-30.2031 L5,-15.5 L1.09375,-14.7031 C0.5,-14.5938 0,-13.9063 0,-13.2969 L0,-7.5 C0,-6.40625 0.796875,-6.09375 1.70313,-6.09375 L5,-6.79688 L5,9.70313 L1.09375,10.5 C0.5,10.5938 0,11.2969 0,11.9063 L0,17.7031 C0,18.7969 0.796875,19.0938 1.70313,19.0938 L5,18.4063 L5,33.2969 L7.79688,33.2969 L7.79688,17.7969 L16.7031,16 L16.7031,30.1094 L19.5,30.1094 L19.5,15.4063 L23.2969,14.7031 C23.9063,14.5938 24.4063,13.9063 24.4063,13.2969 L24.4063,7.40625 C24.4063,6.40625 23.7031,6 22.7969,6 L19.5,6.70313 L19.5,-9.79688 L23.2969,-10.5 M7.79688,-7.40625 L16.7031,-9.20313 L16.7031,7.29688 L7.79688,9.20313 L7.79688,-7.40625 "/>
<path class="KeySig" transform="matrix(0.992001,0,0,0.992001,347.294,423.399)" d="M23.2969,-10.5 C23.9063,-10.5938 24.4063,-11.2969 24.4063,-11.9063 L24.4063,-17.7969 C24.4063,-18.7969 23.7031,-19.2031 22.7969,-19.2031 L19.5,-18.5 L19.5,-33.4063 L16.7031,-33.4063 L16.7031,-17.9063 L7.79688,-16.0938 L7.79688,-30.2031 L5,-30.2031 L5,-15.5 L1.09375,-14.7031 C0.5,-14.5938 0,-13.9063 0,-13.2969 L0,-7.5 C0,-6.40625 0.796875,-6.09375 1.70313,-6.09375 L5,-6.79688 L5,9.70313 L1.09375,10.5 C0.5,10.5938 0,11.2969 0,11.9063 L0,17.7031 C0,18.7969 0.796875,19.0938 1.70313,19.0938 L5,18.4063 L5,33.2969 L7.79688,33.2969 L7.79688,17.7969 L16.7031,16 L16.7031,30.1094 L19.5,30.1094 L19.5,15.4063 L23.2969,14.7031 C23.9063,14.5938 24.4063,13.9063 24.4063,13.2969 L24.4063,7.40625 C24.4063,6.40625 23.7031,6 22.7969,6 L19.5,6.70313 L19.5,-9.79688 L23.2969,-10.5 M7.79688,-7.40625 L16.7031,-9.20313 L16.7031,7.29688 L7.79688,9.20313 L7.79688,-7.40625 "/>
<path class="KeySig" transform="matrix(0.992001,0,0,0.992001,374.45,373.799)" d="M23.2969,-10.5 C23.9063,-10.5938 24.4063,-11.2969 24.4063,-11.9063 L24.4063,-17.7969 C24.4063,-18.7969 23.7031,-19.2031 22.7969,-19.2031 L19.5,-18.5 L19.5,-33.4063 L16.7031,-33.4063 L16.7031,-17.9063 L7.79688,-16.0938 L7.79688,-30.2031 L5,-30.2031 L5,-15.5 L1.09375,-14.7031 C0.5,-14.5938 0,-13.9063 0,-13.2969 L0,-7.5 C0,-6.40625 0.796875,-6.09375 1.70313,-6.09375 L5,-6.79688 L5,9.70313 L1.09375,10.5 C0.5,10.5938 0,11.2969 0,11.9063 L0,17.7031 C0,18.7969 0.796875,19.0938 1.70313,19.0938 L5,18.4063 L5,33.2969 L7.79688,33.2969 L7.79688,17.7969 L16.7031,16 L16.7031,30.1094 L19.5,30.1094 L19.5,15.4063 L23.2969,14.7031 C23.9063,14.5938 24.4063,13.9063 24.4063,13.2969 L24.4063,7.40625 C24.4063,6.40625 23.7031,6 22.7969,6 L19.5,6.70313 L19.5,-9.79688 L23.2969,-10.5 M7.79688,-7.40625 L16.7031,-9.20313 L16.7031,7.29688 L7.79688,9.20313 L7.79688,-7.40625 "/>
<path class="KeySig" transform="matrix(0.992001,0,0,0.992001,401.621,410.999)" d="M23.2969,-10.5 C23.9063,-10.5938 24.4063,-11.2969 24.4063,-11.9063 L24.4063,-17.7969 C24.4063,-18.7969 23.7031,-19.2031 22.7969,-19.2031 L19.5,-18.5 L19.5,-33.4063 L16.7031,-33.4063 L16.7031,-17.9063 L7.79688,-16.0938 L7.79688,-30.2031 L5,-30.2031 L5,-15.5 L1.09375,-14.7031 C0.5,-14.5938 0,-13.9063 0,-13.2969 L0,-7.5 C0,-6.40625 0.796875,-6.09375 1.70313,-6.09375 L5,-6.79688 L5,9.70313 L1.09375,10.5 C0.5,10.5938 0,11.2969 0,11.9063 L0,17.7031 C0,18.7969 0.796875,19.0938 1.70313,19.0938 L5,18.4063 L5,33.2969 L7.79688,33.2969 L7.79688,17.7969 L16.7031,16 L16.7031,30.1094 L19.5,30.1094 L19.5,15.4063 L23.2969,14.7031 C23.9063,14.5938 24.4063,13.9063 24.4063,13.2969 L24.4063,7.40625 C24.4063,6.40625 23.7031,6 22.7969,6 L19.5,6.70313 L19.5,-9.79688 L23.2969,-10.5 M7.79688,-7.40625 L16.7031,-9.20313 L16.7031,7.29688 L7.79688,9.20313 L7.79688,-7.40625 "/>
<path class="KeySig" transform="matrix(0.992001,0,0,0.992001,428.793,448.199)" d="M23.2969,-10.5 C23.9063,-10.5938 24.4063,-11.2969 24.4063,-11.9063 L24.4063,-17.7969 C24.4063,-18.7969 23.7031,-19.2031 22.7969,-19.2031 L19.5,-18.5 L19.5,-33.4063 L16.7031,-33.4063 L16.7031,-17.9063 L7.79688,-16.0938 L7.79688,-30.2031 L5,-30.2031 L5,-15.5 L1.09375,-14.7031 C0.5,-14.5938 0,-13.9063 0,-13.2969 L0,-7.5 C0,-6.40625 0.796875,-6.09375 1.70313,-6.09375 L5,-6.79688 L5,9.70313 L1.09375,10.5 C0.5,10.5938 0,11.2969 0,11.9063 L0,17.7031 C0,18.7969 0.796875,19.0938 1.70313,19.0938 L5,18.4063 L5,33.2969 L7.79688,33.2969 L7.79688,17.7969 L16.7031,16 L16.7031,30.1094 L19.5,30.1094 L19.5,15.4063 L23.2969,14.7031 C23.9063,14.5938 24.4063,13.9063 24.4063,13.2969 L24.4063,7.40625 C24.4063,6.40625 23.7031,6 22.7969,6 L19.5,6.70313 L19.5,-9.79688 L23.2969,-10.5 M7.79688,-7.40625 L16.7031,-9.20313 L16.7031,7.29688 L7.79688,9.20313 L7.79688,-7.40625 "/>
<path class="KeySig" transform="matrix(0.992001,0,0,0.992001,455.98,398.599)" d="M23.2969,-10.5 C23.9063,-10.5938 24.4063,-11.2969 24.4063,-11.9063 L24.4063,-17.7969 C24.4063,-18.7969 23.7031,-19.2031 22.7969,-19.2031 L19.5,-18.5 L19.5,-33.4063 L16.7031,-33.4063 L16.7031,-17.9063 L7.79688,-16.0938 L7.79688,-30.2031 L5,-30.2031 L5,-15.5 L1.09375,-14.7031 C0.5,-14.5938 0,-13.9063 0,-13.2969 L0,-7.5 C0,-6.40625 0.796875,-6.09375 1.70313,-6.09375 L5,-6.79688 L5,9.70313 L1.09375,10.5 C0.5,10.5938 0,11.2969 0,11.9063 L0,17.7031 C0,18.7969 0.796875,19.0938 1.70313,19.0938 L5,18.4063 L5,33.2969 L7.79688,33.2969 L7.79688,17.7969 L16.7031,16 L16.7031,30.1094 L19.5,30.1094 L19.5,15.4063 L23.2969,14.7031 C23.9063,14.5938 24.4063,13.9063 24.4063,13.2969 L24.4063,7.40625 C24.4063,6.40625 23.7031,6 22.7969,6 L19.5,6.70313 L19.5,-9.79688 L23.2969,-10.5 M7.79688,-7.40625 L16.7031,-9.20313 L16.7031,7.29688 L7.79688,9.20313 L7.79688,-7.40625 "/>
<path class="KeySig" transform="matrix(0.992001,0,0,0.992001,2137.39,435.799)" d="M12,-15.5 C7,-15.5 4.09375,-12.4063 3.59375,-11.7969 L4,-43.9063 C4,-44.7031 3.40625,-45.2969 2.59375,-45.2969 L1.40625,-45.2969 C0.59375,-45.2969 0,-44.7031 0,-43.9063 L0.5,16.2031 C0.5,17 1.09375,17.5938 1.90625,17.5938 C2.09375,17.5938 2.5,17.5 2.70313,17.4063 C11.2969,13.0938 20.2969,4.90625 20.2969,-5.40625 C20.2969,-10.5938 17.9063,-15.5 12,-15.5 M3.29688,12.7031 L3.59375,-6.79688 C3.79688,-7.70313 5.29688,-10.5938 9.29688,-10.5938 C12.9063,-10.5938 13.2031,-7.20313 13.2031,-5.09375 C13.2031,3.79688 9.90625,7.5 3.29688,12.7031"/>
<path class="KeySig" transform="matrix(0.992001,0,0,0.992001,2164.97,398.599)" d="M12,-15.5 C7,-15.5 4.09375,-12.4063 3.59375,-11.7969 L4,-43.9063 C4,-44.7031 3.40625,-45.2969 2.59375,-45.2969 L1.40625,-45.2969 C0.59375,-45.2969 0,-44.7031 0,-43.9063 L0.5,16.2031 C0.5,17 1.09375,17.5938 1.90625,17.5938 C2.09375,17.5938 2.5,17.5 2.70313,17.4063 C11.2969,13.0938 20.2969,4.90625 20.2969,-5.40625 C20.2969,-10.5938 17.9063,-15.5 12,-15.5 M3.29688,12.7031 L3.59375,-6.79688 C3.79688,-7.70313 5.29688,-10.5938 9.29688,-10.5938 C12.9063,-10.5938 13.2031,-7.20313 13.2031,-5.09375 C13.2031,3.79688 9.90625,7.5 3.29688,12.7031"/>
<path class="KeySig" transform="matrix(0.992001,0,0,0.992001,2192.54,448.199)" d="M12,-15.5 C7,-15.5 4.09375,-12.4063 3.59375,-11.7969 L4,-43.9063 C4,-44.7031 3.40625,-45.2969 2.59375,-45.2969 L1.40625,-45.2969 C0.59375,-45.2969 0,-44.7031 0,-43.9063 L0.5,16.2031 C0.5,17 1.09375,17.5938 1.90625,17.5938 C2.09375,17.5938 2.5,17.5 2.70313,17.4063 C11.2969,13.0938 20.2969,4.90625 20.2969,-5.40625 C20.2969,-10.5938 17.9063,-15.5 12,-15.5 M3.29688,12.7031 L3.59375,-6.79688 C3.79688,-7.70313 5.29688,-10.5938 9.29688,-10.5938 C12.9063,-10.5938 13.2031,-7.20313 13.2031,-5.09375 C13.2031,3.79688 9.90625,7.5 3.29688,12.7031"/>
<path class="KeySig" transform="matrix(0.992001,0,0,0.992001,2220.11,410.999)" d="M12,-15.5 C7,-15.5 4.09375,-12.4063 3.59375,-11.7969 L4,-43.9063 C4,-44.7031 3.40625,-45.2969 2.59375,-45.2969 L1.40625,-45.2969 C0.59375,-45.2969 0,-44.7031 0,-43.9063 L0.5,16.2031 C0.5,17 1.09375,17.5938 1.90625,17.5938 C2.09375,17.5938 2.5,17.5 2.70313,17.4063 C11.2969,13.0938 20.2969,4.90625 20.2969,-5.40625 C20.2969,-10.5938 17.9063,-15.5 12,-15.5 M3.29688,12.7031 L3.59375,-6.79688 C3.79688,-7.70313 5.29688,-10.5938 9.29688,-10.5938 C12.9063,-10.5938 13.2031,-7.20313 13.2031,-5.09375 C13.2031,3.79688 9.90625,7.5 3.29688,12.7031"/>
<path class="KeySig" transform="matrix(0.992001,0,0,0.992001,2247.69,460.599)" d="M12,-15.5 C7,-15.5 4.09375,-12.4063 3.59375,-11.7969 L4,-43.9063 C4,-44.7031 3.40625,-45.2969 2.59375,-45.2969 L1.40625,-45.2969 C0.59375,-45.2969 0,-44.7031 0,-43.9063 L0.5,16.2031 C0.5,17 1.09375,17.5938 1.90625,17.5938 C2.09375,17.5938 2.5,17.5 2.70313,17.4063 C11.2969,13.0938 20.2969,4.90625 20.2969,-5.40625 C20.2969,-10.5938 17.9063,-15.5 12,-15.5 M3.29688,12.7031 L3.59375,-6.79688 C3.79688,-7.70313 5.29688,-10.5938 9.29688,-10.5938 C12.9063,-10.5938 13.2031,-7.20313 13.2031,-5.09375 C13.2031,3.79688 9.90625,7.5 3.29688,12.7031"/>
<path class="KeySig" transform="matrix(0.992001,0,0,0.992001,2275.26,423.399)" d="M12,-15.5 C7,-15.5 4.09375,-12.4063 3.59375,-11.7969 L4,-43.9063 C4,-44.7031 3.40625,-45.2969 2.59375,-45.2969 L1.40625,-45.2969 C0.59375,-45.2969 0,-44.7031 0,-43.9063 L0.5,16.2031 C0.5,17 1.09375,17.5938 1.90625,17.5938 C2.09375,17.5938 2.5,17.5 2.70313,17.4063 C11.2969,13.0938 20.2969,4.90625 20.2969,-5.40625 C20.2969,-10.5938 17.9063,-15.5 12,-15.5 M3.29688,12.7031 L3.59375,-6.79688 C3.79688,-7.70313 5.29688,-10.5938 9.29688,-10.5938 C12.9063,-10.5938 13.2031,-7.20313 13.2031,-5.09375 C13.2031,3.79688 9.90625,7.5 3.29688,12.7031"/>
<path class="KeySig" transform="matrix(0.992001,0,0,0.992001,320.122,698.377)" d="M23.2969,-10.5 C23.9063,-10.5938 24.4063,-11.2969 24.4063,-11.9063 L24.4063,-17.7969 C24.4063,-18.7969 23.7031,-19.2031 22.7969,-19.2031 L19.5,-18.5 L19.5,-33.4063 L16.7031,-33.4063 L16.7031,-17.9063 L7.79688,-16.0938 L7.79688,-30.2031 L5,-30.2031 L5,-15.5 L1.09375,-14.7031 C0.5,-14.5938 0,-13.9063 0,-13.2969 L0,-7.5 C0,-6.40625 0.796875,-6.09375 1.70313,-6.09375 L5,-6.79688 L5,9.70313 L1.09375,10.5 C0.5,10.5938 0,11.2969 0,11.9063 L0,17.7031 C0,18.7969 0.796875,19.0938 1.70313,19.0938 L5,18.4063 L5,33.2969 L7.79688,33.2969 L7.79688,17.7969 L16.7031,16 L16.7031,30.1094 L19.5,30.1094 L19.5,15.4063 L23.2969,14.7031 C23.9063,14.5938 24.4063,13.9063 24.4063,13.2969 L24.4063,7.40625 C24.4063,6.40625 23.7031,6 22.7969,6 L19.5,6.70313 L19.5,-9.79688 L23.2969,-10.5 M7.79688,-7.40625 L16.7031,-9.20313 L16.7031,7.29688 L7.79688,9.20313 L7.79688,-7.40625 "/>
<path class="KeySig" transform="matrix(0.992001,0,0,0.992001,347.294,735.577)" d="M23.2969,-10.5 C23.9063,-10.5938 24.4063,-11.2969 24.4063,-11.9063 L24.4063,-17.7969 C24.4063,-18.7969 23.7031,-19.2031 22.7969,-19.2031 L19.5,-18.5 L19.5,-33.4063 L16.7031,-33.4063 L16.7031,-17.9063 L7.79688,-16.0938 L7.79688,-30.2031 L5,-30.2031 L5,-15.5 L1.09375,-14.7031 C0.5,-14.5938 0,-13.9063 0,-13.2969 L0,-7.5 C0,-6.40625 0.796875,-6.09375 1.70313,-6.09375 L5,-6.79688 L5,9.70313 L1.09375,10.5 C0.5,10.5938 0,11.2969 0,11.9063 L0,17.7031 C0,18.7969 0.796875,19.0938 1.70313,19.0938 L5,18.4063 L5,33.2969 L7.79688,33.2969 L7.79688,17.7969 L16.7031,16 L16.7031,30.1094 L19.5,30.1094 L19.5,15.4063 L23.2969,14.7031 C23.9063,14.5938 24.4063,13.9063 24.4063,13.2969 L24.4063,7.40625 C24.4063,6.40625 23.7031,6 22.7969,6 L19.5,6.70313 L19.5,-9.79688 L23.2969,-10.5 M7.79688,-7.40625 L16.7031,-9.20313 L16.7031,7.29688 L7.79688,9.20313 L7.79688,-7.40625 "/>
<path class="KeySig" transform="matrix(0.992001,0,0,0.992001,374.45,685.977)" d="M23.2969,-10.5 C23.9063,-10.5938 24.4063,-11.2969 24.4063,-11.9063 L24.4063,-17.7969 C24.4063,-18.7969 23.7031,-19.2031 22.7969,-19.2031 L19.5,-18.5 L19.5,-33.4063 L16.7031,-33.4063 L16.7031,-17.9063 L7.79688,-16.0938 L7.79688,-30.2031 L5,-30.2031 L5,-15.5 L1.09375,-14.7031 C0.5,-14.5938 0,-13.9063 0,-13.2969 L0,-7.5 C0,-6.40625 0.796875,-6.09375 1.70313,-6.09375 L5,-6.79688 L5,9.70313 L1.09375,10.5 C0.5,10.5938 0,11.2969 0,11.9063 L0,17.7031 C0,18.7969 0.796875,19.0938 1.70313,19.0938 L5,18.4063 L5,33.2969 L7.79688,33.2969 L7.79688,17.7969 L16.7031,16 L16.7031,30.1094 L19.5,30.1094 L19.5,15.4063 L23.2969,14.7031 C23.9063,14.5938 24.4063,13.9063 24.4063,13.2969 L24.4063,7.40625 C24.4063,6.40625 23.7031,6 22.7969,6 L19.5,6.70313 L19.5,-9.79688 L23.2969,-10.5 M7.79688,-7.40625 L16.7031,-9.20313 L16.7031,7.29688 L7.79688,9.20313 L7.79688,-7.40625 "/>
<path class="KeySig" transform="matrix(0.992001,0,0,0.992001,401.621,723.177)" d="M23.2969,-10.5 C23.9063,-10.5938 24.4063,-11.2969 24.4063,-11.9063 L24.4063,-17.7969 C24.4063,-18.7969 23.7031,-19.2031 22.7969,-19.2031 L19.5,-18.5 L19.5,-33.4063 L16.7031,-33.4063 L16.7031,-17.9063 L7.79688,-16.0938 L7.79688,-30.2031 L5,-30.2031 L5,-15.5 L1.09375,-14.7031 C0.5,-14.5938 0,-13.9063 0,-13.2969 L0,-7.5 C0,-6.40625 0.796875,-6.09375 1.70313,-6.09375 L5,-6.79688 L5,9.70313 L1.09375,10.5 C0.5,10.5938 0,11.2969 0,11.9063 L0,17.7031 C0,18.7969 0.796875,19.0938 1.70313,19.0938 L5,18.4063 L5,33.2969 L7.79688,33.2969 L7.79688,17.7969 L16.7031,16 L16.7031,30.1094 L19.5,30.1094 L19.5,15.4063 L23.2969,14.7031 C23.9063,14.5938 24.4063,13.9063 24.4063,13.2969 L24.4063,7.40625 C24.4063,6.40625 23.7031,6 22.7969,6 L19.5,6.70313 L19.5,-9.79688 L23.2969,-10.5 M7.79688,-7.40625 L16.7031,-9.20313 L16.7031,7.29688 L7.79688,9.20313 L7.79688,-7.40625 "/>
<path class="KeySig" transform="matrix(0.992001,0,0,0.992001,428.793,760.377)" d="M23.2969,-10.5 C23.9063,-10.5938 24.4063,-11.2969 24.4063,-11.9063 L24.4063,-17.7969 C24.4063,-18.7969 23.7031,-19.2031 22.7969,-19.2031 L19.5,-18.5 L19.5,-33.4063 L16.7031,-33.4063 L16.7031,-17.9063 L7.79688,-16.0938 L7.79688,-30.2031 L5,-30.2031 L5,-15.5 L1.09375,-14.7031 C0.5,-14.5938 0,-13.9063 0,-13.2969 L0,-7.5 C0,-6.40625 0.796875,-6.09375 1.70313,-6.09375 L5,-6.79688 L5,9.70313 L1.09375,10.5 C0.5,10.5938 0,11.2969 0,11.9063 L0,17.7031 C0,18.7969 0.796875,19.0938 1.70313,19.0938 L5,18.4063 L5,33.2969 L7.79688,33.2969 L7.79688,17.7969 L16.7031,16 L16.7031,30.1094 L19.5,30.1094 L19.5,15.4063 L23.2969,14.7031 C23.9063,14.5938 24.4063,13.9063 24.4063,13.2969 L24.4063,7.40625 C24.4063,6.40625 23.7031,6 22.7969,6 L19.5,6.70313 L19.5,-9.79688 L23.2969,-10.5 M7.79688,-7.40625 L16.7031,-9.20313 L16.7031,7.29688 L7.79688,9.20313 L7.79688,-7.40625 "/>
<path class="KeySig" transform="matrix(0.992001,0,0,0.992001,455.98,710.777)" d="M23.2969,-10.5 C23.9063,-10.5938 24.4063,-11.2969 24.4063,-11.9063 L24.4063,-17.7969 C24.4063,-18.7969 23.7031,-19.2031 22.7969,-19.2031 L19.5,-18.5 L19.5,-33.4063 L16.7031,-33.4063 L16.7031,-17.9063 L7.79688,-16.0938 L7.79688,-30.2031 L5,-30.2031 L5,-15.5 L1.09375,-14.7031 C0.5,-14.5938 0,-13.9063 0,-13.2969 L0,-7.5 C0,-6.40625 0.796875,-6.09375 1.70313,-6.09375 L5,-6.79688 L5,9.70313 L1.09375,10.5 C0.5,10.5938 0,11.2969 0,11.9063 L0,17.7031 C0,18.7969 0.796875,19.0938 1.70313,19.0938 L5,18.4063 L5,33.2969 L7.79688,33.2969 L7.79688,17.7969 L16.7031,16 L16.7031,30.1094 L19.5,30.1094 L19.5,15.4063 L23.2969,14.7031 C23.9063,14.5938 24.4063,13.9063 24.4063,13.2969 L24.4063,7.40625 C24.4063,6.40625 23.7031,6 22.7969,6 L19.5,6.70313 L19.5,-9.79688 L23.2969,-10.5 M7.79688,-7.40625 L16.7031,-9.20313 L16.7031,7.29688 L7.79688,9.20313 L7.79688,-7.40625 "/>
<path class="KeySig" transform="matrix(0.992001,0,0,0.992001,2137.39,747.977)" d="M12,-15.5 C7,-15.5 4.09375,-12.4063 3.59375,-11.7969 L4,-43.9063 C4,-44.7031 3.40625,-45.2969 2.59375,-45.2969 L1.40625,-45.2969 C0.59375,-45.2969 0,-44.7031 0,-43.9063 L0.5,16.2031 C0.5,17 1.09375,17.5938 1.90625,17.5938 C2.09375,17.5938 2.5,17.5 2.70313,17.4063 C11.2969,13.0938 20.2969,4.90625 20.2969,-5.40625 C20.2969,-10.5938 17.9063,-15.5 12,-15.5 M3.29688,12.7031 L3.59375,-6.79688 C3.79688,-7.70313 5.29688,-10.5938 9.29688,-10.5938 C12.9063,-10.5938 13.2031,-7.20313 13.2031,-5.09375 C13.2031,3.79688 9.90625,7.5 3.29688,12.7031"/>
<path class="KeySig" transform="matrix(0.992001,0,0,0.992001,2164.97,710.777)" d="M12,-15.5 C7,-15.5 4.09375,-12.4063 3.59375,-11.7969 L4,-43.9063 C4,-44.7031 3.40625,-45.2969 2.59375,-45.2969 L1.40625,-45.2969 C0.59375,-45.2969 0,-44.7031 0,-43.9063 L0.5,16.2031 C0.5,17 1.09375,17.5938 1.90625,17.5938 C2.09375,17.5938 2.5,17.5 2.70313,17.4063 C11.2969,13.0938 20.2969,4.90625 20.2969,-5.40625 C20.2969,-10.5938 17.9063,-15.5 12,-15.5 M3.29688,12.7031 L3.59375,-6.79688 C3.79688,-7.70313 5.29688,-10.5938 9.29688,-10.5938 C12.9063,-10.5938 13.2031,-7.20313 13.2031,-5.09375 C13.2031,3.79688 9.90625,7.5 3.29688,12.7031"/>
<path class="KeySig" transform="matrix(0.992001,0,0,0.992001,2192.54,760.377)" d="M12,-15.5 C7,-15.5 4.09375,-12.4063 3.59375,-11.7969 L4,-43.9063 C4,-44.7031 3.40625,-45.2969 2.59375,-45.2969 L1.40625,-45.2969 C0.59375,-45.2969 0,-44.7031 0,-43.9063 L0.5,16.2031 C0.5,17 1.09375,17.5938 1.90625,17.5938 C2.09375,17.5938 2.5,17.5 2.70313,17.4063 C11.2969,13.0938 20.2969,4.90625 20.2969,-5.40625 C20.2969,-10.5938 17.9063,-15.5 12,-15.5 M3.29688,12.7031 L3.59375,-6.79688 C3.79688,-7.70313 5.29688,-10.5938 9.29688,-10.5938 C12.9063,-10.5938 13.2031,-7.20313 13.2031,-5.09375 C13.2031,3.79688 9.90625,7.5 3.29688,12.7031"/>
<path class="KeySig" transform="matrix(0.992001,0,0,0.992001,2220.11,723.177)" d="M12,-15.5 C7,-15.5 4.09375,-12.4063 3.59375,-11.7969 L4,-43.9063 C4,-44.7031 3.40625,-45.2969 2.59375,-45.2969 L1.40625,-45.2969 C0.59375,-45.2969 0,-44.7031 0,-43.9063 L0.5,16.2031 C0.5,17 1.09375,17.5938 1.90625,17.5938 C2.09375,17.5938 2.5,17.5 2.70313,17.4063 C11.2969,13.0938 20.2969,4.90625 20.2969,-5.40625 C20.2969,-10.5938 17.9063,-15.5 12,-15.5 M3.29688,12.7031 L3.59375,-6.79688 C3.79688,-7.70313 5.29688,-10.5938 9.29688,-10.5938 C12.9063,-10.5938 13.2031,-7.20313 13.2031,-5.09375 C13.2031,3.79688 9.90625,7.5 3.29688,12.7031"/>
<path class="KeySig" transform="matrix(0.992001,0,0,0.992001,2247.69,772.777)" d="M12,-15.5 C7,-15.5 4.09375,-12.4063 3.59375,-11.7969 L4,-43.9063 C4,-44.7031 3.40625,-45.2969 2.59375,-45.2969 L1.40625,-45.2969 C0.59375,-45.2969 0,-44.7031 0,-43.9063 L0.5,16.2031 C0.5,17 1.09375,17.5938 1.90625,17.5938 C2.09375,17.5938 2.5,17.5 2.70313,17.4063 C11.2969,13.0938 20.2969,4.90625 20.2969,-5.40625 C20.2969,-10.5938 17.9063,-15.5 12,-15.5 M3.29688,12.7031 L3.59375,-6.79688 C3.79688,-7.70313 5.29688,-10.5938 9.29688,-10.5938 C12.9063,-10.5938 13.2031,-7.20313 13.2031,-5.09375 C13.2031,3.79688 9.90625,7.5 3.29688,12.7031"/>
<path class="KeySig" transform="matrix(0.992001,0,0,0.992001,2275.26,735.577)" d="M12,-15.5 C7,-15.5 4.09375,-12.4063 3.59375,-11.7969 L4,-43.9063 C4,-44.7031 3.40625,-45.2969 2.59375,-45.2969 L1.40625,-45.2969 C0.59375,-45.2969 0,-44.7031 0,-43.9063 L0.5,16.2031 C0.5,17 1.09375,17.5938 1.90625,17.5938 C2.09375,17.5938 2.5,17.5 2.70313,17.4063 C11.2969,13.0938 20.2969,4.90625 20.2969,-5.40625 C20.2969,-10.5938 17.9063,-15.5 12,-15.5 M3.29688,12.7031 L3.59375,-6.79688 C3.79688,-7.70313 5.29688,-10.5938 9.29688,-10.5938 C12.9063,-10.5938 13.2031,-7.20313 13.2031,-5.09375 C13.2031,3.79688 9.90625,7.5 3.29688,12.7031"/>
<path class="Lyrics" d="M1542.36,522.939 L1533.11,523.502 L1533.11,525.643 L1535.56,525.643 C1537.4,525.689 1537.65,526.002 1537.65,528.143 L1537.65,556.002 C1537.61,556.752 1537.56,557.049 1537.36,557.299 C1537,557.752 1536.06,557.955 1533.9,558.002 L1533.56,558.002 L1533.56,559.799 L1546.5,559.799 L1546.5,558.002 L1546.15,558.002 C1542.81,557.893 1542.36,557.643 1542.36,555.846 L1542.36,522.939 M1570.75,543.705 C1570.75,540.549 1570.2,538.955 1568.75,537.752 C1567.11,536.393 1564.65,535.752 1561.45,535.752 C1555.81,535.752 1551.7,538.393 1551.7,542.049 C1551.7,543.893 1552.86,545.096 1554.61,545.096 C1556.2,545.096 1557.31,544.049 1557.31,542.549 C1557.31,541.893 1557.06,541.205 1556.56,540.502 C1556.25,540.143 1556.2,540.049 1556.2,539.799 C1556.2,538.799 1558.2,537.893 1560.61,537.893 C1562.2,537.893 1563.95,538.393 1564.75,539.143 C1565.7,539.955 1566.06,541.143 1566.06,543.393 L1566.06,545.346 C1560.86,546.252 1559.2,546.643 1556.75,547.596 C1552.4,549.205 1550.36,551.502 1550.36,554.705 C1550.36,558.299 1553.15,560.549 1557.61,560.549 C1561.06,560.549 1564.15,559.143 1566.31,556.596 C1567.11,559.143 1568.36,560.143 1570.7,560.143 C1572.95,560.143 1575.31,558.705 1575.31,557.252 C1575.31,556.893 1575.11,556.643 1574.81,556.643 C1574.61,556.643 1574.4,556.705 1574.06,556.846 C1573.36,557.143 1573.06,557.205 1572.65,557.205 C1571.25,557.205 1570.75,556.299 1570.75,553.752 L1570.75,543.705 M1566.06,549.799 C1566.06,552.799 1565.9,553.502 1565.06,554.799 C1563.81,556.643 1561.56,557.893 1559.36,557.893 C1557.06,557.893 1555.4,556.252 1555.4,554.002 C1555.4,551.893 1556.45,550.393 1558.65,549.346 C1560.2,548.643 1562.15,548.143 1566.06,547.502 L1566.06,549.799 "/>
<path class="Lyrics" d="M1143.35,536.502 L1143.35,533.643 C1143.35,531.143 1143.51,529.502 1143.9,528.502 C1144.71,526.299 1146.46,524.939 1148.46,524.939 C1149.51,524.939 1150.15,525.252 1150.15,525.799 C1150.15,526.002 1150.15,526.049 1149.85,526.439 C1149.56,526.893 1149.4,527.502 1149.4,528.049 C1149.4,529.549 1150.6,530.689 1152.15,530.689 C1153.81,530.689 1154.96,529.439 1154.96,527.643 C1154.96,524.752 1152.46,522.939 1148.4,522.939 C1144.96,522.939 1142.4,524.143 1140.65,526.643 C1139.15,528.752 1138.65,530.893 1138.65,534.955 L1138.65,536.502 L1134.26,536.502 L1134.26,538.643 L1138.65,538.643 L1138.65,556.002 C1138.6,556.705 1138.56,557.002 1138.35,557.299 C1138.01,557.752 1137.06,557.955 1134.9,558.002 L1134.71,558.002 L1134.71,559.799 L1148.06,559.799 L1148.06,558.002 L1147.15,558.002 C1143.81,557.893 1143.35,557.643 1143.35,555.846 L1143.35,538.643 L1148.85,538.643 L1148.85,536.502 L1143.35,536.502 M1171.9,543.705 C1171.9,540.549 1171.35,538.955 1169.9,537.752 C1168.26,536.393 1165.81,535.752 1162.6,535.752 C1156.96,535.752 1152.85,538.393 1152.85,542.049 C1152.85,543.893 1154.01,545.096 1155.76,545.096 C1157.35,545.096 1158.46,544.049 1158.46,542.549 C1158.46,541.893 1158.21,541.205 1157.71,540.502 C1157.4,540.143 1157.35,540.049 1157.35,539.799 C1157.35,538.799 1159.35,537.893 1161.76,537.893 C1163.35,537.893 1165.1,538.393 1165.9,539.143 C1166.85,539.955 1167.21,541.143 1167.21,543.393 L1167.21,545.346 C1162.01,546.252 1160.35,546.643 1157.9,547.596 C1153.56,549.205 1151.51,551.502 1151.51,554.705 C1151.51,558.299 1154.31,560.549 1158.76,560.549 C1162.21,560.549 1165.31,559.143 1167.46,556.596 C1168.26,559.143 1169.51,560.143 1171.85,560.143 C1174.1,560.143 1176.46,558.705 1176.46,557.252 C1176.46,556.893 1176.26,556.643 1175.96,556.643 C1175.76,556.643 1175.56,556.705 1175.21,556.846 C1174.51,557.143 1174.21,557.205 1173.81,557.205 C1172.4,557.205 1171.9,556.299 1171.9,553.752 L1171.9,543.705 M1167.21,549.799 C1167.21,552.799 1167.06,553.502 1166.21,554.799 C1164.96,556.643 1162.71,557.893 1160.51,557.893 C1158.21,557.893 1156.56,556.252 1156.56,554.002 C1156.56,551.893 1157.6,550.393 1159.81,549.346 C1161.35,548.643 1163.31,548.143 1167.21,547.502 L1167.21,549.799 "/>
<path class="Lyrics" d="M1752.83,535.955 L1751.08,535.955 L1749.62,537.752 C1747.83,536.346 1746.03,535.752 1743.53,535.752 C1739.12,535.752 1736.23,538.596 1736.23,543.002 C1736.23,547.705 1739.28,548.893 1743.28,549.846 L1745.92,550.455 C1749.87,551.393 1751.28,552.393 1751.28,554.393 C1751.28,556.752 1749.23,558.393 1746.33,558.393 C1742.08,558.393 1739.08,555.705 1737.87,550.705 L1735.87,550.705 L1735.87,560.143 L1737.62,560.143 L1739.37,558.096 C1741.42,559.752 1743.67,560.549 1746.23,560.549 C1751.12,560.549 1754.37,557.502 1754.37,552.846 C1754.37,550.643 1753.67,548.955 1752.28,547.799 C1751.08,546.752 1750.08,546.346 1747.03,545.705 L1744.53,545.143 C1741.78,544.549 1741.78,544.549 1740.87,544.049 C1739.78,543.549 1739.12,542.502 1739.12,541.393 C1739.12,539.346 1741.03,537.955 1743.78,537.955 C1747.87,537.955 1749.87,540.846 1751.08,544.346 L1752.83,544.346 L1752.83,535.955 M1764.28,524.049 C1762.67,524.049 1761.37,525.346 1761.37,526.939 C1761.37,528.549 1762.67,529.846 1764.23,529.846 C1765.87,529.846 1767.17,528.549 1767.17,526.939 C1767.17,525.346 1765.87,524.049 1764.28,524.049 M1766.62,536.502 L1757.23,537.049 L1757.23,539.205 L1759.78,539.205 C1761.67,539.252 1761.92,539.549 1761.92,541.705 L1761.92,556.002 C1761.87,556.752 1761.83,557.049 1761.62,557.299 C1761.28,557.752 1760.33,557.955 1758.17,558.002 L1757.83,558.002 L1757.83,559.799 L1770.78,559.799 L1770.78,558.002 L1770.42,558.002 C1767.08,557.893 1766.62,557.643 1766.62,555.846 L1766.62,536.502 "/>
<path class="Lyrics" d="M1341.98,535.955 L1340.23,535.955 L1338.78,537.752 C1336.98,536.346 1335.18,535.752 1332.68,535.752 C1328.28,535.752 1325.39,538.596 1325.39,543.002 C1325.39,547.705 1328.43,548.893 1332.43,549.846 L1335.07,550.455 C1339.03,551.393 1340.43,552.393 1340.43,554.393 C1340.43,556.752 1338.39,558.393 1335.48,558.393 C1331.23,558.393 1328.23,555.705 1327.03,550.705 L1325.03,550.705 L1325.03,560.143 L1326.78,560.143 L1328.53,558.096 C1330.57,559.752 1332.82,560.549 1335.39,560.549 C1340.28,560.549 1343.53,557.502 1343.53,552.846 C1343.53,550.643 1342.82,548.955 1341.43,547.799 C1340.23,546.752 1339.23,546.346 1336.18,545.705 L1333.68,545.143 C1330.93,544.549 1330.93,544.549 1330.03,544.049 C1328.93,543.549 1328.28,542.502 1328.28,541.393 C1328.28,539.346 1330.18,537.955 1332.93,537.955 C1337.03,537.955 1339.03,540.846 1340.23,544.346 L1341.98,544.346 L1341.98,535.955 M1358.07,535.752 C1351.93,535.752 1347.18,541.205 1347.18,548.205 C1347.18,555.049 1351.98,560.549 1357.98,560.549 C1363.98,560.549 1368.78,555.049 1368.78,548.143 C1368.78,541.299 1363.98,535.752 1358.07,535.752 M1358.07,537.893 C1361.57,537.893 1363.53,541.549 1363.53,548.143 C1363.53,554.799 1361.57,558.393 1357.98,558.393 C1354.39,558.393 1352.43,554.799 1352.43,548.205 C1352.43,541.393 1354.32,537.893 1358.07,537.893 M1380.68,522.939 L1371.43,523.502 L1371.43,525.643 L1373.89,525.643 C1375.73,525.689 1375.98,526.002 1375.98,528.143 L1375.98,556.002 C1375.93,556.752 1375.89,557.049 1375.68,557.299 C1375.32,557.752 1374.39,557.955 1372.23,558.002 L1371.89,558.002 L1371.89,559.799 L1384.82,559.799 L1384.82,558.002 L1384.48,558.002 C1381.14,557.893 1380.68,557.643 1380.68,555.846 L1380.68,522.939 "/>
<path class="Lyrics" d="M936.681,536.502 L927.791,537.049 L927.791,539.205 L929.837,539.205 C931.728,539.252 931.978,539.549 931.978,541.705 L931.978,556.002 C931.931,556.752 931.884,557.049 931.681,557.299 C931.337,557.752 930.384,557.955 928.228,558.002 L928.041,558.002 L928.041,559.799 L940.634,559.799 L940.634,558.002 L940.431,558.002 C937.134,557.893 936.681,557.643 936.681,555.799 L936.681,546.549 C936.681,542.096 939.134,538.799 942.384,538.799 C945.228,538.799 946.681,540.846 946.681,544.893 L946.681,556.049 C946.634,556.705 946.587,557.049 946.337,557.299 C946.041,557.752 945.041,557.955 942.884,558.002 L942.681,558.002 L942.681,559.799 L955.337,559.799 L955.337,558.002 L955.134,558.002 C951.837,557.893 951.384,557.643 951.384,555.846 L951.384,547.002 C951.384,542.002 953.634,538.799 957.134,538.799 C959.994,538.799 961.384,540.955 961.384,545.455 L961.384,556.002 C961.337,556.705 961.291,557.049 961.041,557.299 C960.744,557.752 959.744,557.955 957.587,558.002 L957.384,558.002 L957.384,559.799 L970.041,559.799 L970.041,558.002 L969.837,558.002 C966.541,557.893 966.087,557.643 966.087,555.799 L966.087,544.455 C966.087,541.346 965.791,540.299 964.494,538.596 C963.041,536.752 960.994,535.752 958.587,535.752 C955.337,535.752 952.931,537.299 950.791,540.752 C949.931,537.752 947.228,535.752 943.884,535.752 C940.837,535.752 938.634,537.205 936.681,540.346 L936.681,536.502 M978.587,524.049 C976.978,524.049 975.681,525.346 975.681,526.939 C975.681,528.549 976.978,529.846 978.541,529.846 C980.181,529.846 981.478,528.549 981.478,526.939 C981.478,525.346 980.181,524.049 978.587,524.049 M980.931,536.502 L971.541,537.049 L971.541,539.205 L974.087,539.205 C975.978,539.252 976.228,539.549 976.228,541.705 L976.228,556.002 C976.181,556.752 976.134,557.049 975.931,557.299 C975.587,557.752 974.634,557.955 972.478,558.002 L972.134,558.002 L972.134,559.799 L985.087,559.799 L985.087,558.002 L984.728,558.002 C981.384,557.893 980.931,557.643 980.931,555.846 L980.931,536.502 "/>
<path class="Lyrics" d="M1944,560.143 L1952.7,559.799 L1952.7,557.643 L1951.8,557.643 C1948.95,557.502 1948.7,557.205 1948.7,554.002 L1948.7,522.939 L1938.91,523.502 L1938.91,525.643 L1941.84,525.643 C1943.75,525.689 1944,526.002 1944,528.143 L1944,539.455 C1942.16,536.893 1940,535.752 1937.09,535.752 C1931.45,535.752 1927.16,541.205 1927.16,548.393 C1927.16,555.502 1931.3,560.549 1937.09,560.549 C1940.25,560.549 1942.41,559.205 1944,556.205 L1944,560.143 M1938.09,538.455 C1940.16,538.455 1942.09,539.955 1943,542.252 C1943.66,543.752 1943.95,545.799 1943.95,548.252 C1943.95,554.096 1941.66,557.846 1938.05,557.846 C1934.5,557.846 1932.41,554.549 1932.41,549.002 C1932.41,546.002 1932.7,543.752 1933.34,542.096 C1934.2,539.846 1936.05,538.455 1938.09,538.455 M1966.59,535.752 C1960.45,535.752 1955.7,541.205 1955.7,548.205 C1955.7,555.049 1960.5,560.549 1966.5,560.549 C1972.5,560.549 1977.3,555.049 1977.3,548.143 C1977.3,541.299 1972.5,535.752 1966.59,535.752 M1966.59,537.893 C1970.09,537.893 1972.05,541.549 1972.05,548.143 C1972.05,554.799 1970.09,558.393 1966.5,558.393 C1962.91,558.393 1960.95,554.799 1960.95,548.205 C1960.95,541.393 1962.84,537.893 1966.59,537.893"/>
<path class="Lyrics" d="M743.867,536.502 L735.008,537.049 L735.008,539.205 L737.055,539.205 C738.961,539.252 739.211,539.549 739.211,541.705 L739.211,556.002 C739.164,556.752 739.117,557.049 738.914,557.299 C738.555,557.752 737.555,557.955 735.414,558.002 L735.211,558.002 L735.211,559.799 L748.555,559.799 L748.555,558.002 L747.664,558.002 C744.305,557.893 743.867,557.643 743.867,555.846 L743.867,553.143 C743.914,544.752 746.914,538.346 750.805,538.143 C750.117,538.955 749.914,539.455 749.914,540.393 C749.914,542.002 751.055,543.143 752.664,543.143 C754.508,543.143 755.711,541.799 755.711,539.799 C755.711,537.346 754.008,535.752 751.367,535.752 C748.211,535.752 745.508,538.252 743.867,542.705 L743.867,536.502 M779.211,548.549 C779.258,541.049 775.008,535.752 768.914,535.752 C762.508,535.752 757.711,541.299 757.711,548.799 C757.711,555.846 762.258,560.549 769.008,560.549 C773.805,560.549 777.164,558.205 779.211,553.455 L777.461,552.502 C775.414,556.346 773.305,557.846 769.961,557.846 C767.414,557.846 765.555,556.799 764.258,554.549 C763.367,553.049 762.961,551.299 763.008,548.549 L779.211,548.549 M763.055,546.393 C763.055,542.893 764.664,537.893 768.867,537.893 C771.867,537.893 773.867,540.549 773.867,544.596 C773.867,546.002 773.414,546.393 771.805,546.393 L763.055,546.393 "/>
<path class="Lyrics" d="M549.788,560.143 L558.491,559.799 L558.491,557.643 L557.584,557.643 C554.741,557.502 554.491,557.205 554.491,554.002 L554.491,522.939 L544.694,523.502 L544.694,525.643 L547.631,525.643 C549.538,525.689 549.788,526.002 549.788,528.143 L549.788,539.455 C547.944,536.893 545.788,535.752 542.881,535.752 C537.241,535.752 532.944,541.205 532.944,548.393 C532.944,555.502 537.084,560.549 542.881,560.549 C546.038,560.549 548.194,559.205 549.788,556.205 L549.788,560.143 M543.881,538.455 C545.944,538.455 547.881,539.955 548.788,542.252 C549.444,543.752 549.741,545.799 549.741,548.252 C549.741,554.096 547.444,557.846 543.834,557.846 C540.288,557.846 538.194,554.549 538.194,549.002 C538.194,546.002 538.491,543.752 539.131,542.096 C539.991,539.846 541.834,538.455 543.881,538.455 M572.381,535.752 C566.241,535.752 561.491,541.205 561.491,548.205 C561.491,555.049 566.288,560.549 572.288,560.549 C578.288,560.549 583.084,555.049 583.084,548.143 C583.084,541.299 578.288,535.752 572.381,535.752 M572.381,537.893 C575.881,537.893 577.834,541.549 577.834,548.143 C577.834,554.799 575.881,558.393 572.288,558.393 C568.694,558.393 566.741,554.799 566.741,548.205 C566.741,541.393 568.631,537.893 572.381,537.893"/>
<path class="Lyrics" d="M944.837,810.318 L935.587,810.88 L935.587,813.021 L938.041,813.021 C939.884,813.068 940.134,813.38 940.134,815.521 L940.134,843.38 C940.087,844.13 940.041,844.427 939.837,844.677 C939.478,845.13 938.541,845.333 936.384,845.38 L936.041,845.38 L936.041,847.177 L948.978,847.177 L948.978,845.38 L948.634,845.38 C945.291,845.271 944.837,845.021 944.837,843.224 L944.837,810.318 M973.228,831.083 C973.228,827.927 972.681,826.333 971.228,825.13 C969.587,823.771 967.134,823.13 963.931,823.13 C958.291,823.13 954.181,825.771 954.181,829.427 C954.181,831.271 955.337,832.474 957.087,832.474 C958.681,832.474 959.791,831.427 959.791,829.927 C959.791,829.271 959.541,828.583 959.041,827.88 C958.728,827.521 958.681,827.427 958.681,827.177 C958.681,826.177 960.681,825.271 963.087,825.271 C964.681,825.271 966.431,825.771 967.228,826.521 C968.181,827.333 968.541,828.521 968.541,830.771 L968.541,832.724 C963.337,833.63 961.681,834.021 959.228,834.974 C954.884,836.583 952.837,838.88 952.837,842.083 C952.837,845.677 955.634,847.927 960.087,847.927 C963.541,847.927 966.634,846.521 968.791,843.974 C969.587,846.521 970.837,847.521 973.181,847.521 C975.431,847.521 977.791,846.083 977.791,844.63 C977.791,844.271 977.587,844.021 977.291,844.021 C977.087,844.021 976.884,844.083 976.541,844.224 C975.837,844.521 975.541,844.583 975.134,844.583 C973.728,844.583 973.228,843.677 973.228,841.13 L973.228,831.083 M968.541,837.177 C968.541,840.177 968.384,840.88 967.541,842.177 C966.291,844.021 964.041,845.271 961.837,845.271 C959.541,845.271 957.884,843.63 957.884,841.38 C957.884,839.271 958.931,837.771 961.134,836.724 C962.681,836.021 964.634,835.521 968.541,834.88 L968.541,837.177 "/>
<path class="Lyrics" d="M1739.73,823.88 L1730.87,824.427 L1730.87,826.583 L1732.92,826.583 C1734.83,826.63 1735.08,826.927 1735.08,829.083 L1735.08,843.38 C1735.03,844.13 1734.98,844.427 1734.78,844.677 C1734.42,845.13 1733.42,845.333 1731.28,845.38 L1731.08,845.38 L1731.08,847.177 L1744.42,847.177 L1744.42,845.38 L1743.53,845.38 C1740.17,845.271 1739.73,845.021 1739.73,843.224 L1739.73,840.521 C1739.78,832.13 1742.78,825.724 1746.67,825.521 C1745.98,826.333 1745.78,826.833 1745.78,827.771 C1745.78,829.38 1746.92,830.521 1748.53,830.521 C1750.37,830.521 1751.58,829.177 1751.58,827.177 C1751.58,824.724 1749.87,823.13 1747.23,823.13 C1744.08,823.13 1741.37,825.63 1739.73,830.083 L1739.73,823.88 M1775.08,835.927 C1775.12,828.427 1770.87,823.13 1764.78,823.13 C1758.37,823.13 1753.58,828.677 1753.58,836.177 C1753.58,843.224 1758.12,847.927 1764.87,847.927 C1769.67,847.927 1773.03,845.583 1775.08,840.833 L1773.33,839.88 C1771.28,843.724 1769.17,845.224 1765.83,845.224 C1763.28,845.224 1761.42,844.177 1760.12,841.927 C1759.23,840.427 1758.83,838.677 1758.87,835.927 L1775.08,835.927 M1758.92,833.771 C1758.92,830.271 1760.53,825.271 1764.73,825.271 C1767.73,825.271 1769.73,827.927 1769.73,831.974 C1769.73,833.38 1769.28,833.771 1767.67,833.771 L1758.92,833.771 "/>
<path class="Lyrics" d="M1142.81,823.333 L1141.06,823.333 L1139.6,825.13 C1137.81,823.724 1136.01,823.13 1133.51,823.13 C1129.1,823.13 1126.21,825.974 1126.21,830.38 C1126.21,835.083 1129.26,836.271 1133.26,837.224 L1135.9,837.833 C1139.85,838.771 1141.26,839.771 1141.26,841.771 C1141.26,844.13 1139.21,845.771 1136.31,845.771 C1132.06,845.771 1129.06,843.083 1127.85,838.083 L1125.85,838.083 L1125.85,847.521 L1127.6,847.521 L1129.35,845.474 C1131.4,847.13 1133.65,847.927 1136.21,847.927 C1141.1,847.927 1144.35,844.88 1144.35,840.224 C1144.35,838.021 1143.65,836.333 1142.26,835.177 C1141.06,834.13 1140.06,833.724 1137.01,833.083 L1134.51,832.521 C1131.76,831.927 1131.76,831.927 1130.85,831.427 C1129.76,830.927 1129.1,829.88 1129.1,828.771 C1129.1,826.724 1131.01,825.333 1133.76,825.333 C1137.85,825.333 1139.85,828.224 1141.06,831.724 L1142.81,831.724 L1142.81,823.333 M1158.9,823.13 C1152.76,823.13 1148.01,828.583 1148.01,835.583 C1148.01,842.427 1152.81,847.927 1158.81,847.927 C1164.81,847.927 1169.6,842.427 1169.6,835.521 C1169.6,828.677 1164.81,823.13 1158.9,823.13 M1158.9,825.271 C1162.4,825.271 1164.35,828.927 1164.35,835.521 C1164.35,842.177 1162.4,845.771 1158.81,845.771 C1155.21,845.771 1153.26,842.177 1153.26,835.583 C1153.26,828.771 1155.15,825.271 1158.9,825.271 M1181.51,810.318 L1172.26,810.88 L1172.26,813.021 L1174.71,813.021 C1176.56,813.068 1176.81,813.38 1176.81,815.521 L1176.81,843.38 C1176.76,844.13 1176.71,844.427 1176.51,844.677 C1176.15,845.13 1175.21,845.333 1173.06,845.38 L1172.71,845.38 L1172.71,847.177 L1185.65,847.177 L1185.65,845.38 L1185.31,845.38 C1181.96,845.271 1181.51,845.021 1181.51,843.224 L1181.51,810.318 "/>
<path class="Lyrics" d="M549.788,847.521 L558.491,847.177 L558.491,845.021 L557.584,845.021 C554.741,844.88 554.491,844.583 554.491,841.38 L554.491,810.318 L544.694,810.88 L544.694,813.021 L547.631,813.021 C549.538,813.068 549.788,813.38 549.788,815.521 L549.788,826.833 C547.944,824.271 545.788,823.13 542.881,823.13 C537.241,823.13 532.944,828.583 532.944,835.771 C532.944,842.88 537.084,847.927 542.881,847.927 C546.038,847.927 548.194,846.583 549.788,843.583 L549.788,847.521 M543.881,825.833 C545.944,825.833 547.881,827.333 548.788,829.63 C549.444,831.13 549.741,833.177 549.741,835.63 C549.741,841.474 547.444,845.224 543.834,845.224 C540.288,845.224 538.194,841.927 538.194,836.38 C538.194,833.38 538.491,831.13 539.131,829.474 C539.991,827.224 541.834,825.833 543.881,825.833 M572.381,823.13 C566.241,823.13 561.491,828.583 561.491,835.583 C561.491,842.427 566.288,847.927 572.288,847.927 C578.288,847.927 583.084,842.427 583.084,835.521 C583.084,828.677 578.288,823.13 572.381,823.13 M572.381,825.271 C575.881,825.271 577.834,828.927 577.834,835.521 C577.834,842.177 575.881,845.771 572.288,845.771 C568.694,845.771 566.741,842.177 566.741,835.583 C566.741,828.771 568.631,825.271 572.381,825.271"/>
<path class="Lyrics" d="M1944,847.521 L1952.7,847.177 L1952.7,845.021 L1951.8,845.021 C1948.95,844.88 1948.7,844.583 1948.7,841.38 L1948.7,810.318 L1938.91,810.88 L1938.91,813.021 L1941.84,813.021 C1943.75,813.068 1944,813.38 1944,815.521 L1944,826.833 C1942.16,824.271 1940,823.13 1937.09,823.13 C1931.45,823.13 1927.16,828.583 1927.16,835.771 C1927.16,842.88 1931.3,847.927 1937.09,847.927 C1940.25,847.927 1942.41,846.583 1944,843.583 L1944,847.521 M1938.09,825.833 C1940.16,825.833 1942.09,827.333 1943,829.63 C1943.66,831.13 1943.95,833.177 1943.95,835.63 C1943.95,841.474 1941.66,845.224 1938.05,845.224 C1934.5,845.224 1932.41,841.927 1932.41,836.38 C1932.41,833.38 1932.7,831.13 1933.34,829.474 C1934.2,827.224 1936.05,825.833 1938.09,825.833 M1966.59,823.13 C1960.45,823.13 1955.7,828.583 1955.7,835.583 C1955.7,842.427 1960.5,847.927 1966.5,847.927 C1972.5,847.927 1977.3,842.427 1977.3,835.521 C1977.3,828.677 1972.5,823.13 1966.59,823.13 M1966.59,825.271 C1970.09,825.271 1972.05,828.927 1972.05,835.521 C1972.05,842.177 1970.09,845.771 1966.5,845.771 C1962.91,845.771 1960.95,842.177 1960.95,835.583 C1960.95,828.771 1962.84,825.271 1966.59,825.271"/>
<path class="Lyrics" d="M756.961,823.333 L755.211,823.333 L753.758,825.13 C751.961,823.724 750.164,823.13 747.664,823.13 C743.258,823.13 740.367,825.974 740.367,830.38 C740.367,835.083 743.414,836.271 747.414,837.224 L750.055,837.833 C754.008,838.771 755.414,839.771 755.414,841.771 C755.414,844.13 753.367,845.771 750.461,845.771 C746.211,845.771 743.211,843.083 742.008,838.083 L740.008,838.083 L740.008,847.521 L741.758,847.521 L743.508,845.474 C745.555,847.13 747.805,847.927 750.367,847.927 C755.258,847.927 758.508,844.88 758.508,840.224 C758.508,838.021 757.805,836.333 756.414,835.177 C755.211,834.13 754.211,833.724 751.164,833.083 L748.664,832.521 C745.914,831.927 745.914,831.927 745.008,831.427 C743.914,830.927 743.258,829.88 743.258,828.771 C743.258,826.724 745.164,825.333 747.914,825.333 C752.008,825.333 754.008,828.224 755.211,831.724 L756.961,831.724 L756.961,823.333 M768.414,811.427 C766.805,811.427 765.508,812.724 765.508,814.318 C765.508,815.927 766.805,817.224 768.367,817.224 C770.008,817.224 771.305,815.927 771.305,814.318 C771.305,812.724 770.008,811.427 768.414,811.427 M770.758,823.88 L761.367,824.427 L761.367,826.583 L763.914,826.583 C765.805,826.63 766.055,826.927 766.055,829.083 L766.055,843.38 C766.008,844.13 765.961,844.427 765.758,844.677 C765.414,845.13 764.461,845.333 762.305,845.38 L761.961,845.38 L761.961,847.177 L774.914,847.177 L774.914,845.38 L774.555,845.38 C771.211,845.271 770.758,845.021 770.758,843.224 L770.758,823.88 "/>
<path class="Lyrics" d="M1342.53,823.88 L1342.53,821.021 C1342.53,818.521 1342.68,816.88 1343.07,815.88 C1343.89,813.677 1345.64,812.318 1347.64,812.318 C1348.68,812.318 1349.32,812.63 1349.32,813.177 C1349.32,813.38 1349.32,813.427 1349.03,813.818 C1348.73,814.271 1348.57,814.88 1348.57,815.427 C1348.57,816.927 1349.78,818.068 1351.32,818.068 C1352.98,818.068 1354.14,816.818 1354.14,815.021 C1354.14,812.13 1351.64,810.318 1347.57,810.318 C1344.14,810.318 1341.57,811.521 1339.82,814.021 C1338.32,816.13 1337.82,818.271 1337.82,822.333 L1337.82,823.88 L1333.43,823.88 L1333.43,826.021 L1337.82,826.021 L1337.82,843.38 C1337.78,844.083 1337.73,844.38 1337.53,844.677 C1337.18,845.13 1336.23,845.333 1334.07,845.38 L1333.89,845.38 L1333.89,847.177 L1347.23,847.177 L1347.23,845.38 L1346.32,845.38 C1342.98,845.271 1342.53,845.021 1342.53,843.224 L1342.53,826.021 L1348.03,826.021 L1348.03,823.88 L1342.53,823.88 M1371.07,831.083 C1371.07,827.927 1370.53,826.333 1369.07,825.13 C1367.43,823.771 1364.98,823.13 1361.78,823.13 C1356.14,823.13 1352.03,825.771 1352.03,829.427 C1352.03,831.271 1353.18,832.474 1354.93,832.474 C1356.53,832.474 1357.64,831.427 1357.64,829.927 C1357.64,829.271 1357.39,828.583 1356.89,827.88 C1356.57,827.521 1356.53,827.427 1356.53,827.177 C1356.53,826.177 1358.53,825.271 1360.93,825.271 C1362.53,825.271 1364.28,825.771 1365.07,826.521 C1366.03,827.333 1366.39,828.521 1366.39,830.771 L1366.39,832.724 C1361.18,833.63 1359.53,834.021 1357.07,834.974 C1352.73,836.583 1350.68,838.88 1350.68,842.083 C1350.68,845.677 1353.48,847.927 1357.93,847.927 C1361.39,847.927 1364.48,846.521 1366.64,843.974 C1367.43,846.521 1368.68,847.521 1371.03,847.521 C1373.28,847.521 1375.64,846.083 1375.64,844.63 C1375.64,844.271 1375.43,844.021 1375.14,844.021 C1374.93,844.021 1374.73,844.083 1374.39,844.224 C1373.68,844.521 1373.39,844.583 1372.98,844.583 C1371.57,844.583 1371.07,843.677 1371.07,841.13 L1371.07,831.083 M1366.39,837.177 C1366.39,840.177 1366.23,840.88 1365.39,842.177 C1364.14,844.021 1361.89,845.271 1359.68,845.271 C1357.39,845.271 1355.73,843.63 1355.73,841.38 C1355.73,839.271 1356.78,837.771 1358.98,836.724 C1360.53,836.021 1362.48,835.521 1366.39,834.88 L1366.39,837.177 "/>
<path class="Lyrics" d="M1534.2,823.88 L1525.31,824.427 L1525.31,826.583 L1527.36,826.583 C1529.25,826.63 1529.5,826.927 1529.5,829.083 L1529.5,843.38 C1529.45,844.13 1529.4,844.427 1529.2,844.677 C1528.86,845.13 1527.9,845.333 1525.75,845.38 L1525.56,845.38 L1525.56,847.177 L1538.15,847.177 L1538.15,845.38 L1537.95,845.38 C1534.65,845.271 1534.2,845.021 1534.2,843.177 L1534.2,833.927 C1534.2,829.474 1536.65,826.177 1539.9,826.177 C1542.75,826.177 1544.2,828.224 1544.2,832.271 L1544.2,843.427 C1544.15,844.083 1544.11,844.427 1543.86,844.677 C1543.56,845.13 1542.56,845.333 1540.4,845.38 L1540.2,845.38 L1540.2,847.177 L1552.86,847.177 L1552.86,845.38 L1552.65,845.38 C1549.36,845.271 1548.9,845.021 1548.9,843.224 L1548.9,834.38 C1548.9,829.38 1551.15,826.177 1554.65,826.177 C1557.51,826.177 1558.9,828.333 1558.9,832.833 L1558.9,843.38 C1558.86,844.083 1558.81,844.427 1558.56,844.677 C1558.26,845.13 1557.26,845.333 1555.11,845.38 L1554.9,845.38 L1554.9,847.177 L1567.56,847.177 L1567.56,845.38 L1567.36,845.38 C1564.06,845.271 1563.61,845.021 1563.61,843.177 L1563.61,831.833 C1563.61,828.724 1563.31,827.677 1562.01,825.974 C1560.56,824.13 1558.51,823.13 1556.11,823.13 C1552.86,823.13 1550.45,824.677 1548.31,828.13 C1547.45,825.13 1544.75,823.13 1541.4,823.13 C1538.36,823.13 1536.15,824.583 1534.2,827.724 L1534.2,823.88 M1576.11,811.427 C1574.5,811.427 1573.2,812.724 1573.2,814.318 C1573.2,815.927 1574.5,817.224 1576.06,817.224 C1577.7,817.224 1579,815.927 1579,814.318 C1579,812.724 1577.7,811.427 1576.11,811.427 M1578.45,823.88 L1569.06,824.427 L1569.06,826.583 L1571.61,826.583 C1573.5,826.63 1573.75,826.927 1573.75,829.083 L1573.75,843.38 C1573.7,844.13 1573.65,844.427 1573.45,844.677 C1573.11,845.13 1572.15,845.333 1570,845.38 L1569.65,845.38 L1569.65,847.177 L1582.61,847.177 L1582.61,845.38 L1582.25,845.38 C1578.9,845.271 1578.45,845.021 1578.45,843.224 L1578.45,823.88 "/>
<path class="StaffText" d="M553.269,326.195 C551.582,328.242 546.972,329.789 542.378,329.899 L542.378,332.039 L546.769,332.039 C549.675,332.102 549.972,332.399 549.878,335.195 L549.878,355.242 C549.878,357.805 549.878,357.899 549.582,358.352 C549.175,358.852 548.222,359.055 545.425,359.055 L542.175,359.055 L542.175,361.399 L561.972,361.399 L561.972,359.055 L559.222,359.055 C556.425,359.055 555.472,358.852 555.082,358.352 C554.722,357.899 554.722,357.852 554.722,355.242 L554.722,334.602 C554.722,331.789 554.832,329.445 555.082,326.195 L553.269,326.195 M581.722,345.695 L606.925,345.695 L606.925,341.695 L581.722,341.695 L581.722,345.695 M581.722,355.805 L606.925,355.805 L606.925,351.805 L581.722,351.805 L581.722,355.805 M654.378,325.289 L624.628,325.289 L624.628,327.649 L625.519,327.649 C628.378,327.695 629.332,327.852 629.722,328.352 C630.019,328.789 630.019,328.899 630.019,331.445 L630.019,355.242 C630.019,357.805 630.019,357.899 629.722,358.352 C629.332,358.852 628.378,359.055 625.519,359.055 L624.628,359.055 L624.628,361.399 L641.769,361.399 L641.769,359.055 L640.128,359.055 C637.269,359.055 636.332,358.852 635.925,358.352 C635.628,357.899 635.628,357.742 635.628,355.242 L635.628,343.899 L636.628,343.899 C641.769,343.695 643.628,345.555 643.832,351.102 L646.175,351.102 L646.175,334.695 L643.832,334.695 C643.519,339.602 641.582,341.492 636.832,341.555 L635.628,341.555 L635.628,330.149 C635.582,328.039 636.082,327.695 638.769,327.649 L641.082,327.649 C649.285,327.602 651.332,329.445 652.878,338.055 L655.082,338.055 L654.378,325.289 M662.925,349.992 L661.269,361.399 L664.519,361.399 L666.175,349.992 L672.332,349.992 L670.675,361.399 L673.925,361.399 L675.582,349.992 L681.019,349.992 L681.019,347.195 L675.972,347.195 L676.925,340.602 L682.378,340.602 L682.378,337.805 L677.332,337.805 L678.878,327.102 L675.628,327.102 L674.082,337.805 L667.925,337.805 L669.472,327.102 L666.222,327.102 L664.675,337.805 L659.175,337.805 L659.175,340.602 L664.269,340.602 L663.332,347.195 L657.832,347.195 L657.832,349.992 L662.925,349.992 M667.519,340.602 L673.675,340.602 L672.722,347.195 L666.582,347.195 L667.519,340.602 "/>
<path class="Page" d="M229,213.661 L227.078,213.661 C223.609,216.255 219.703,217.348 213.156,217.458 L213.156,220.536 L215.469,220.536 C220.359,220.536 220.422,220.645 220.359,225.161 L220.359,244.676 C220.359,248.083 220.359,248.255 219.984,248.801 C219.484,249.411 218.375,249.63 215.406,249.63 L213.656,249.63 L213.656,252.598 L235.594,252.598 L235.594,249.63 L233.828,249.63 C230.922,249.63 229.875,249.411 229.375,248.801 C229,248.255 229,248.036 229,244.676 L229,213.661 M266.828,237.973 L266.219,240.723 C265.719,242.926 265.391,243.63 264.953,243.911 C264.406,244.301 264.297,244.301 260.828,244.348 L250.219,244.348 C252.141,242.692 253.578,241.661 255.719,240.223 C263.469,235.223 265.063,234.005 266.656,231.973 C268.531,229.505 269.625,226.583 269.625,224.005 C269.625,218.114 263.859,213.661 256.109,213.661 C248.625,213.661 242.844,218.505 242.844,224.77 C242.844,228.614 245,231.098 248.297,231.098 C251.156,231.098 252.969,229.286 252.969,226.426 C252.969,224.051 251.922,222.676 249.391,221.473 C248.781,221.192 248.516,220.864 248.516,220.426 C248.516,218.661 251.484,216.801 254.234,216.801 C258.078,216.801 260.281,219.161 260.281,223.239 C260.281,227.801 258.516,231.036 252.688,237.255 C246.531,243.801 244.391,246.27 241.641,250.239 L241.641,252.817 C243.063,252.661 243.672,252.598 244.5,252.598 L265.172,252.598 C266.219,252.598 266.875,252.661 268.531,252.817 L269.797,237.973 L266.828,237.973 "/>
<path class="Bracket" transform="matrix(3.596,0,0,3.86578,181.331,772.777)" d="M0.90625,-50 C2.70313,-51.9063 6.20313,-55.7969 6.20313,-63 C6.20313,-72.1094 2.29688,-81.3125 2.29688,-87 C2.29688,-93.1094 5.79688,-98.8125 6,-99 C6,-99.1094 6,-99.1094 6,-99.2031 C6,-99.3125 6,-99.4063 5.90625,-99.5 C5.79688,-99.5 5.59375,-99.5 5.5,-99.3125 C5.40625,-99.2031 0,-93.8125 0,-85.6094 C0,-76.8125 3.5,-70.6094 3.5,-59.1094 C3.5,-56.9063 2.59375,-53.4063 0.09375,-50.2969 C0,-50.2969 0,-50.1094 -0.09375,-50 C-0.09375,-49.9063 0,-49.7969 0.09375,-49.7031 C2.59375,-46.6094 3.5,-43.1094 3.5,-40.9063 C3.5,-29.4063 0,-23.2031 0,-14.4063 C0,-6.29688 5.40625,-0.796875 5.5,-0.703125 C5.59375,-0.5 5.79688,-0.40625 5.90625,-0.5 C6,-0.59375 6.09375,-0.703125 6,-0.796875 C6,-0.796875 6,-0.90625 6,-1 C5.79688,-1.20313 2.29688,-6.90625 2.29688,-13 C2.29688,-18.7031 6.20313,-27.9063 6.20313,-37 C6.20313,-44.2969 2.70313,-48.1094 0.90625,-50"/>
</svg>
