<?xml version="1.0" encoding="UTF-8" standalone="no"?>
<svg width="2520px" height="1008px" viewBox="0 0 2520 1008"
 xmlns="http://www.w3.org/2000/svg" xmlns:xlink="http://www.w3.org/1999/xlink" version="1.2" baseProfile="tiny">
<title>大调调性 (9)</title>
<desc>Generated by MuseScore Studio 4.4.4</desc>
<path class="" fill="#ffffff" fill-rule="evenodd" d="M0,0 L2520,0 L2520,1008 L0,1008 L0,0 "/>
<polyline class="StaffLines" fill="none" stroke="#000000" stroke-width="2.73" stroke-linejoin="bevel" points="212.598,386.199 2307.8,386.199"/>
<polyline class="StaffLines" fill="none" stroke="#000000" stroke-width="2.73" stroke-linejoin="bevel" points="212.598,410.999 2307.8,410.999"/>
<polyline class="StaffLines" fill="none" stroke="#000000" stroke-width="2.73" stroke-linejoin="bevel" points="212.598,435.799 2307.8,435.799"/>
<polyline class="StaffLines" fill="none" stroke="#000000" stroke-width="2.73" stroke-linejoin="bevel" points="212.598,460.599 2307.8,460.599"/>
<polyline class="StaffLines" fill="none" stroke="#000000" stroke-width="2.73" stroke-linejoin="bevel" points="212.598,485.399 2307.8,485.399"/>
<polyline class="StaffLines" fill="none" stroke="#000000" stroke-width="2.73" stroke-linejoin="bevel" points="212.598,698.377 2307.8,698.377"/>
<polyline class="StaffLines" fill="none" stroke="#000000" stroke-width="2.73" stroke-linejoin="bevel" points="212.598,723.177 2307.8,723.177"/>
<polyline class="StaffLines" fill="none" stroke="#000000" stroke-width="2.73" stroke-linejoin="bevel" points="212.598,747.977 2307.8,747.977"/>
<polyline class="StaffLines" fill="none" stroke="#000000" stroke-width="2.73" stroke-linejoin="bevel" points="212.598,772.777 2307.8,772.777"/>
<polyline class="StaffLines" fill="none" stroke="#000000" stroke-width="2.73" stroke-linejoin="bevel" points="212.598,797.577 2307.8,797.577"/>
<path class="MeasureNumber" d="M217.911,323.208 C218.598,319.677 219.395,317.489 220.911,314.802 C222.723,311.645 224.88,310.036 227.27,310.036 C228.52,310.036 229.27,310.52 229.27,311.286 C229.27,311.567 229.192,311.724 228.911,312.239 C228.551,312.927 228.395,313.395 228.395,314.005 C228.395,315.286 229.348,316.161 230.708,316.161 C232.348,316.161 233.473,314.958 233.473,313.161 C233.473,310.442 230.911,308.442 227.348,308.442 C218.442,308.442 213.036,320.083 213.036,327.755 C213.036,333.645 215.958,337.192 220.833,337.192 C226.833,337.192 231.27,332.239 231.27,326.364 C231.27,322.286 228.52,319.442 224.52,319.442 C221.723,319.442 219.551,320.645 217.911,323.208 M223.239,321.755 C225.723,321.755 227.083,323.474 227.083,326.599 C227.083,331.677 224.395,335.552 220.833,335.552 C218.27,335.552 216.755,333.677 216.755,330.474 C216.755,325.474 219.52,321.755 223.239,321.755 M238.083,321.286 C236.833,322.036 236.473,322.52 236.473,323.317 C236.473,324.083 237.114,324.645 237.911,324.645 C238.958,324.645 239.551,323.88 239.676,322.395 C240.911,321.395 242.239,320.958 243.833,320.958 C246.801,320.958 248.442,322.802 248.442,326.114 C248.442,331.317 245.083,335.552 240.958,335.552 C238.598,335.552 236.676,334.442 236.676,333.114 C236.676,332.88 236.723,332.802 236.911,332.677 C238.192,332.083 239.239,331.645 239.239,329.958 C239.239,328.677 238.239,327.724 236.833,327.724 C235.083,327.724 233.755,329.192 233.755,331.114 C233.755,334.645 236.801,337.192 241.083,337.192 C247.551,337.192 252.801,332.036 252.801,325.645 C252.801,321.599 249.723,318.755 245.364,318.755 C243.63,318.755 242.239,319.114 240.317,320.083 L242.551,312.52 C244.676,312.958 246.364,313.161 247.801,313.161 C250.442,313.161 252.801,312.317 254.114,310.927 C254.801,310.13 255.192,309.442 255.192,308.927 C255.192,308.677 255.067,308.442 254.911,308.442 C254.801,308.442 254.708,308.489 254.473,308.599 C253.161,309.239 251.473,309.599 249.911,309.599 C247.52,309.599 244.676,309.208 241.723,308.442 L238.083,321.286 "/>
<polyline class="BarLine" fill="none" stroke="#000000" stroke-width="4.46" stroke-linejoin="bevel" points="1287.21,384.835 1287.21,698.377"/>
<polyline class="BarLine" fill="none" stroke="#000000" stroke-width="4.46" stroke-linejoin="bevel" points="1706.14,384.835 1706.14,698.377"/>
<polyline class="BarLine" fill="none" stroke="#000000" stroke-width="4.46" stroke-linejoin="bevel" points="214.83,384.835 214.83,698.377"/>
<polyline class="BarLine" fill="none" stroke="#000000" stroke-width="4.46" stroke-linejoin="bevel" points="658.825,384.835 658.825,698.377"/>
<polyline class="BarLine" fill="none" stroke="#000000" stroke-width="4.46" stroke-linejoin="bevel" points="1496.68,384.835 1496.68,698.377"/>
<polyline class="BarLine" fill="none" stroke="#000000" stroke-width="4.46" stroke-linejoin="bevel" points="1077.75,384.835 1077.75,698.377"/>
<polyline class="BarLine" fill="none" stroke="#000000" stroke-width="4.46" stroke-linejoin="bevel" points="2125.07,384.835 2125.07,698.377"/>
<polyline class="BarLine" fill="none" stroke="#000000" stroke-width="13.64" stroke-linejoin="bevel" points="2143.3,384.835 2143.3,698.377"/>
<polyline class="BarLine" fill="none" stroke="#000000" stroke-width="4.46" stroke-linejoin="bevel" points="1915.61,384.835 1915.61,698.377"/>
<polyline class="BarLine" fill="none" stroke="#000000" stroke-width="4.46" stroke-linejoin="bevel" points="868.288,384.835 868.288,698.377"/>
<polyline class="BarLine" fill="none" stroke="#000000" stroke-width="4.46" stroke-linejoin="bevel" points="1706.14,697.013 1706.14,798.941"/>
<polyline class="BarLine" fill="none" stroke="#000000" stroke-width="4.46" stroke-linejoin="bevel" points="214.83,697.013 214.83,798.941"/>
<polyline class="BarLine" fill="none" stroke="#000000" stroke-width="4.46" stroke-linejoin="bevel" points="1077.75,697.013 1077.75,798.941"/>
<polyline class="BarLine" fill="none" stroke="#000000" stroke-width="4.46" stroke-linejoin="bevel" points="2125.07,697.013 2125.07,798.941"/>
<polyline class="BarLine" fill="none" stroke="#000000" stroke-width="13.64" stroke-linejoin="bevel" points="2143.3,697.013 2143.3,798.941"/>
<polyline class="BarLine" fill="none" stroke="#000000" stroke-width="4.46" stroke-linejoin="bevel" points="868.288,697.013 868.288,798.941"/>
<polyline class="BarLine" fill="none" stroke="#000000" stroke-width="4.46" stroke-linejoin="bevel" points="1496.68,697.013 1496.68,798.941"/>
<polyline class="BarLine" fill="none" stroke="#000000" stroke-width="4.46" stroke-linejoin="bevel" points="1915.61,697.013 1915.61,798.941"/>
<polyline class="BarLine" fill="none" stroke="#000000" stroke-width="4.46" stroke-linejoin="bevel" points="1287.21,697.013 1287.21,798.941"/>
<polyline class="BarLine" fill="none" stroke="#000000" stroke-width="4.46" stroke-linejoin="bevel" points="658.825,697.013 658.825,798.941"/>
<polyline class="LedgerLine" fill="none" stroke="#000000" stroke-width="3.97" stroke-linejoin="bevel" points="1940.65,361.399 1994.02,361.399"/>
<polyline class="LedgerLine" fill="none" stroke="#000000" stroke-width="3.97" stroke-linejoin="bevel" points="1102.8,673.577 1156.17,673.577"/>
<polyline class="LedgerLine" fill="none" stroke="#000000" stroke-width="3.97" stroke-linejoin="bevel" points="474.409,648.777 527.776,648.777"/>
<polyline class="LedgerLine" fill="none" stroke="#000000" stroke-width="3.97" stroke-linejoin="bevel" points="474.409,673.577 527.776,673.577"/>
<polyline class="LedgerLine" fill="none" stroke="#000000" stroke-width="3.97" stroke-linejoin="bevel" points="683.873,623.977 737.239,623.977"/>
<polyline class="LedgerLine" fill="none" stroke="#000000" stroke-width="3.97" stroke-linejoin="bevel" points="683.873,648.777 737.239,648.777"/>
<polyline class="LedgerLine" fill="none" stroke="#000000" stroke-width="3.97" stroke-linejoin="bevel" points="683.873,673.577 737.239,673.577"/>
<polyline class="LedgerLine" fill="none" stroke="#000000" stroke-width="3.97" stroke-linejoin="bevel" points="893.336,648.777 946.703,648.777"/>
<polyline class="LedgerLine" fill="none" stroke="#000000" stroke-width="3.97" stroke-linejoin="bevel" points="893.336,673.577 946.703,673.577"/>
<polyline class="LedgerLine" fill="none" stroke="#000000" stroke-width="3.97" stroke-linejoin="bevel" points="1102.8,648.777 1156.17,648.777"/>
<polyline class="LedgerLine" fill="none" stroke="#000000" stroke-width="3.97" stroke-linejoin="bevel" points="474.409,623.977 527.776,623.977"/>
<polyline class="LedgerLine" fill="none" stroke="#000000" stroke-width="3.97" stroke-linejoin="bevel" points="1312.26,673.577 1365.63,673.577"/>
<polyline class="LedgerLine" fill="none" stroke="#000000" stroke-width="3.97" stroke-linejoin="bevel" points="1521.73,673.577 1575.09,673.577"/>
<path class="Note" transform="matrix(0.992001,0,0,0.992001,901.52,423.399)" d="M18.7031,-13.5938 C4.90625,-13.5938 0,-6.59375 0,-0.09375 C0,6.40625 4.90625,13.4063 18.7031,13.4063 C32.5,13.4063 37.2969,6.40625 37.2969,-0.09375 C37.2969,-6.59375 32.5,-13.5938 18.7031,-13.5938 M19.5,10.2031 C16.7031,10.2031 14.7969,9.40625 13.5,6.90625 C12.2031,4.40625 10.4063,-2.09375 10.2969,-4.70313 C10.0938,-7.40625 11.0938,-9 13.5,-9.79688 C14.7031,-10.2031 16.2969,-10.4063 17.9063,-10.4063 C20.5938,-10.4063 22.4063,-9.79688 23.7969,-7.09375 C25.2031,-4.5 27.1094,2 27.1094,4.5 C27.1094,9.40625 23.5,10.2031 19.5,10.2031"/>
<path class="Note" transform="matrix(0.992001,0,0,0.992001,1110.98,410.999)" d="M18.7031,-13.5938 C4.90625,-13.5938 0,-6.59375 0,-0.09375 C0,6.40625 4.90625,13.4063 18.7031,13.4063 C32.5,13.4063 37.2969,6.40625 37.2969,-0.09375 C37.2969,-6.59375 32.5,-13.5938 18.7031,-13.5938 M19.5,10.2031 C16.7031,10.2031 14.7969,9.40625 13.5,6.90625 C12.2031,4.40625 10.4063,-2.09375 10.2969,-4.70313 C10.0938,-7.40625 11.0938,-9 13.5,-9.79688 C14.7031,-10.2031 16.2969,-10.4063 17.9063,-10.4063 C20.5938,-10.4063 22.4063,-9.79688 23.7969,-7.09375 C25.2031,-4.5 27.1094,2 27.1094,4.5 C27.1094,9.40625 23.5,10.2031 19.5,10.2031"/>
<path class="Note" transform="matrix(0.992001,0,0,0.992001,1320.45,398.599)" d="M18.7031,-13.5938 C4.90625,-13.5938 0,-6.59375 0,-0.09375 C0,6.40625 4.90625,13.4063 18.7031,13.4063 C32.5,13.4063 37.2969,6.40625 37.2969,-0.09375 C37.2969,-6.59375 32.5,-13.5938 18.7031,-13.5938 M19.5,10.2031 C16.7031,10.2031 14.7969,9.40625 13.5,6.90625 C12.2031,4.40625 10.4063,-2.09375 10.2969,-4.70313 C10.0938,-7.40625 11.0938,-9 13.5,-9.79688 C14.7031,-10.2031 16.2969,-10.4063 17.9063,-10.4063 C20.5938,-10.4063 22.4063,-9.79688 23.7969,-7.09375 C25.2031,-4.5 27.1094,2 27.1094,4.5 C27.1094,9.40625 23.5,10.2031 19.5,10.2031"/>
<path class="Note" transform="matrix(0.992001,0,0,0.992001,482.593,448.199)" d="M18.7031,-13.5938 C4.90625,-13.5938 0,-6.59375 0,-0.09375 C0,6.40625 4.90625,13.4063 18.7031,13.4063 C32.5,13.4063 37.2969,6.40625 37.2969,-0.09375 C37.2969,-6.59375 32.5,-13.5938 18.7031,-13.5938 M19.5,10.2031 C16.7031,10.2031 14.7969,9.40625 13.5,6.90625 C12.2031,4.40625 10.4063,-2.09375 10.2969,-4.70313 C10.0938,-7.40625 11.0938,-9 13.5,-9.79688 C14.7031,-10.2031 16.2969,-10.4063 17.9063,-10.4063 C20.5938,-10.4063 22.4063,-9.79688 23.7969,-7.09375 C25.2031,-4.5 27.1094,2 27.1094,4.5 C27.1094,9.40625 23.5,10.2031 19.5,10.2031"/>
<path class="Note" transform="matrix(0.992001,0,0,0.992001,692.057,435.799)" d="M18.7031,-13.5938 C4.90625,-13.5938 0,-6.59375 0,-0.09375 C0,6.40625 4.90625,13.4063 18.7031,13.4063 C32.5,13.4063 37.2969,6.40625 37.2969,-0.09375 C37.2969,-6.59375 32.5,-13.5938 18.7031,-13.5938 M19.5,10.2031 C16.7031,10.2031 14.7969,9.40625 13.5,6.90625 C12.2031,4.40625 10.4063,-2.09375 10.2969,-4.70313 C10.0938,-7.40625 11.0938,-9 13.5,-9.79688 C14.7031,-10.2031 16.2969,-10.4063 17.9063,-10.4063 C20.5938,-10.4063 22.4063,-9.79688 23.7969,-7.09375 C25.2031,-4.5 27.1094,2 27.1094,4.5 C27.1094,9.40625 23.5,10.2031 19.5,10.2031"/>
<path class="Note" transform="matrix(0.992001,0,0,0.992001,1739.37,373.799)" d="M18.7031,-13.5938 C4.90625,-13.5938 0,-6.59375 0,-0.09375 C0,6.40625 4.90625,13.4063 18.7031,13.4063 C32.5,13.4063 37.2969,6.40625 37.2969,-0.09375 C37.2969,-6.59375 32.5,-13.5938 18.7031,-13.5938 M19.5,10.2031 C16.7031,10.2031 14.7969,9.40625 13.5,6.90625 C12.2031,4.40625 10.4063,-2.09375 10.2969,-4.70313 C10.0938,-7.40625 11.0938,-9 13.5,-9.79688 C14.7031,-10.2031 16.2969,-10.4063 17.9063,-10.4063 C20.5938,-10.4063 22.4063,-9.79688 23.7969,-7.09375 C25.2031,-4.5 27.1094,2 27.1094,4.5 C27.1094,9.40625 23.5,10.2031 19.5,10.2031"/>
<path class="Note" transform="matrix(0.992001,0,0,0.992001,1529.91,386.199)" d="M18.7031,-13.5938 C4.90625,-13.5938 0,-6.59375 0,-0.09375 C0,6.40625 4.90625,13.4063 18.7031,13.4063 C32.5,13.4063 37.2969,6.40625 37.2969,-0.09375 C37.2969,-6.59375 32.5,-13.5938 18.7031,-13.5938 M19.5,10.2031 C16.7031,10.2031 14.7969,9.40625 13.5,6.90625 C12.2031,4.40625 10.4063,-2.09375 10.2969,-4.70313 C10.0938,-7.40625 11.0938,-9 13.5,-9.79688 C14.7031,-10.2031 16.2969,-10.4063 17.9063,-10.4063 C20.5938,-10.4063 22.4063,-9.79688 23.7969,-7.09375 C25.2031,-4.5 27.1094,2 27.1094,4.5 C27.1094,9.40625 23.5,10.2031 19.5,10.2031"/>
<path class="Note" transform="matrix(0.992001,0,0,0.992001,1948.84,361.399)" d="M18.7031,-13.5938 C4.90625,-13.5938 0,-6.59375 0,-0.09375 C0,6.40625 4.90625,13.4063 18.7031,13.4063 C32.5,13.4063 37.2969,6.40625 37.2969,-0.09375 C37.2969,-6.59375 32.5,-13.5938 18.7031,-13.5938 M19.5,10.2031 C16.7031,10.2031 14.7969,9.40625 13.5,6.90625 C12.2031,4.40625 10.4063,-2.09375 10.2969,-4.70313 C10.0938,-7.40625 11.0938,-9 13.5,-9.79688 C14.7031,-10.2031 16.2969,-10.4063 17.9063,-10.4063 C20.5938,-10.4063 22.4063,-9.79688 23.7969,-7.09375 C25.2031,-4.5 27.1094,2 27.1094,4.5 C27.1094,9.40625 23.5,10.2031 19.5,10.2031"/>
<path class="Note" transform="matrix(0.992001,0,0,0.992001,1529.91,673.577)" d="M18.7031,-13.5938 C4.90625,-13.5938 0,-6.59375 0,-0.09375 C0,6.40625 4.90625,13.4063 18.7031,13.4063 C32.5,13.4063 37.2969,6.40625 37.2969,-0.09375 C37.2969,-6.59375 32.5,-13.5938 18.7031,-13.5938 M19.5,10.2031 C16.7031,10.2031 14.7969,9.40625 13.5,6.90625 C12.2031,4.40625 10.4063,-2.09375 10.2969,-4.70313 C10.0938,-7.40625 11.0938,-9 13.5,-9.79688 C14.7031,-10.2031 16.2969,-10.4063 17.9063,-10.4063 C20.5938,-10.4063 22.4063,-9.79688 23.7969,-7.09375 C25.2031,-4.5 27.1094,2 27.1094,4.5 C27.1094,9.40625 23.5,10.2031 19.5,10.2031"/>
<path class="Note" transform="matrix(0.992001,0,0,0.992001,901.52,636.377)" d="M18.7031,-13.5938 C4.90625,-13.5938 0,-6.59375 0,-0.09375 C0,6.40625 4.90625,13.4063 18.7031,13.4063 C32.5,13.4063 37.2969,6.40625 37.2969,-0.09375 C37.2969,-6.59375 32.5,-13.5938 18.7031,-13.5938 M19.5,10.2031 C16.7031,10.2031 14.7969,9.40625 13.5,6.90625 C12.2031,4.40625 10.4063,-2.09375 10.2969,-4.70313 C10.0938,-7.40625 11.0938,-9 13.5,-9.79688 C14.7031,-10.2031 16.2969,-10.4063 17.9063,-10.4063 C20.5938,-10.4063 22.4063,-9.79688 23.7969,-7.09375 C25.2031,-4.5 27.1094,2 27.1094,4.5 C27.1094,9.40625 23.5,10.2031 19.5,10.2031"/>
<path class="Note" transform="matrix(0.992001,0,0,0.992001,482.593,611.577)" d="M18.7031,-13.5938 C4.90625,-13.5938 0,-6.59375 0,-0.09375 C0,6.40625 4.90625,13.4063 18.7031,13.4063 C32.5,13.4063 37.2969,6.40625 37.2969,-0.09375 C37.2969,-6.59375 32.5,-13.5938 18.7031,-13.5938 M19.5,10.2031 C16.7031,10.2031 14.7969,9.40625 13.5,6.90625 C12.2031,4.40625 10.4063,-2.09375 10.2969,-4.70313 C10.0938,-7.40625 11.0938,-9 13.5,-9.79688 C14.7031,-10.2031 16.2969,-10.4063 17.9063,-10.4063 C20.5938,-10.4063 22.4063,-9.79688 23.7969,-7.09375 C25.2031,-4.5 27.1094,2 27.1094,4.5 C27.1094,9.40625 23.5,10.2031 19.5,10.2031"/>
<path class="Note" transform="matrix(0.992001,0,0,0.992001,1110.98,648.777)" d="M18.7031,-13.5938 C4.90625,-13.5938 0,-6.59375 0,-0.09375 C0,6.40625 4.90625,13.4063 18.7031,13.4063 C32.5,13.4063 37.2969,6.40625 37.2969,-0.09375 C37.2969,-6.59375 32.5,-13.5938 18.7031,-13.5938 M19.5,10.2031 C16.7031,10.2031 14.7969,9.40625 13.5,6.90625 C12.2031,4.40625 10.4063,-2.09375 10.2969,-4.70313 C10.0938,-7.40625 11.0938,-9 13.5,-9.79688 C14.7031,-10.2031 16.2969,-10.4063 17.9063,-10.4063 C20.5938,-10.4063 22.4063,-9.79688 23.7969,-7.09375 C25.2031,-4.5 27.1094,2 27.1094,4.5 C27.1094,9.40625 23.5,10.2031 19.5,10.2031"/>
<path class="Note" transform="matrix(0.992001,0,0,0.992001,1320.45,661.177)" d="M18.7031,-13.5938 C4.90625,-13.5938 0,-6.59375 0,-0.09375 C0,6.40625 4.90625,13.4063 18.7031,13.4063 C32.5,13.4063 37.2969,6.40625 37.2969,-0.09375 C37.2969,-6.59375 32.5,-13.5938 18.7031,-13.5938 M19.5,10.2031 C16.7031,10.2031 14.7969,9.40625 13.5,6.90625 C12.2031,4.40625 10.4063,-2.09375 10.2969,-4.70313 C10.0938,-7.40625 11.0938,-9 13.5,-9.79688 C14.7031,-10.2031 16.2969,-10.4063 17.9063,-10.4063 C20.5938,-10.4063 22.4063,-9.79688 23.7969,-7.09375 C25.2031,-4.5 27.1094,2 27.1094,4.5 C27.1094,9.40625 23.5,10.2031 19.5,10.2031"/>
<path class="Note" transform="matrix(0.992001,0,0,0.992001,1739.37,685.977)" d="M18.7031,-13.5938 C4.90625,-13.5938 0,-6.59375 0,-0.09375 C0,6.40625 4.90625,13.4063 18.7031,13.4063 C32.5,13.4063 37.2969,6.40625 37.2969,-0.09375 C37.2969,-6.59375 32.5,-13.5938 18.7031,-13.5938 M19.5,10.2031 C16.7031,10.2031 14.7969,9.40625 13.5,6.90625 C12.2031,4.40625 10.4063,-2.09375 10.2969,-4.70313 C10.0938,-7.40625 11.0938,-9 13.5,-9.79688 C14.7031,-10.2031 16.2969,-10.4063 17.9063,-10.4063 C20.5938,-10.4063 22.4063,-9.79688 23.7969,-7.09375 C25.2031,-4.5 27.1094,2 27.1094,4.5 C27.1094,9.40625 23.5,10.2031 19.5,10.2031"/>
<path class="Note" transform="matrix(0.992001,0,0,0.992001,692.057,623.977)" d="M18.7031,-13.5938 C4.90625,-13.5938 0,-6.59375 0,-0.09375 C0,6.40625 4.90625,13.4063 18.7031,13.4063 C32.5,13.4063 37.2969,6.40625 37.2969,-0.09375 C37.2969,-6.59375 32.5,-13.5938 18.7031,-13.5938 M19.5,10.2031 C16.7031,10.2031 14.7969,9.40625 13.5,6.90625 C12.2031,4.40625 10.4063,-2.09375 10.2969,-4.70313 C10.0938,-7.40625 11.0938,-9 13.5,-9.79688 C14.7031,-10.2031 16.2969,-10.4063 17.9063,-10.4063 C20.5938,-10.4063 22.4063,-9.79688 23.7969,-7.09375 C25.2031,-4.5 27.1094,2 27.1094,4.5 C27.1094,9.40625 23.5,10.2031 19.5,10.2031"/>
<path class="Note" transform="matrix(0.992001,0,0,0.992001,1948.84,698.377)" d="M18.7031,-13.5938 C4.90625,-13.5938 0,-6.59375 0,-0.09375 C0,6.40625 4.90625,13.4063 18.7031,13.4063 C32.5,13.4063 37.2969,6.40625 37.2969,-0.09375 C37.2969,-6.59375 32.5,-13.5938 18.7031,-13.5938 M19.5,10.2031 C16.7031,10.2031 14.7969,9.40625 13.5,6.90625 C12.2031,4.40625 10.4063,-2.09375 10.2969,-4.70313 C10.0938,-7.40625 11.0938,-9 13.5,-9.79688 C14.7031,-10.2031 16.2969,-10.4063 17.9063,-10.4063 C20.5938,-10.4063 22.4063,-9.79688 23.7969,-7.09375 C25.2031,-4.5 27.1094,2 27.1094,4.5 C27.1094,9.40625 23.5,10.2031 19.5,10.2031"/>
<path class="Clef" transform="matrix(0.992001,0,0,0.992001,235.662,460.599)" d="M12.2969,51.2969 C12.2969,57.9063 17.2969,66.6094 30.7969,66.6094 C35.5,66.6094 39.6094,65.4063 43.2031,63.2031 C48.6094,59.4063 50,52.7969 50,46.5 C50,42.6094 49.4063,38.1094 48.4063,32.4063 C48.1094,30.4063 47.5,27.4063 46.9063,23.5 C56.7031,20.2969 64,10.0938 64,-0.203125 C64,-15.2969 53.2969,-25.5 38.7031,-25.5 C37.7031,-31.5 36.7031,-37.4063 35.9063,-43 C46.4063,-54.1094 53.7031,-66.6094 53.7031,-82.5 C53.7031,-91.6094 50.9063,-99 49.2969,-102.609 C46.9063,-107.703 44,-111.203 42.2031,-111.203 C41.5,-111.203 38.4063,-110 35.1094,-106.109 C28.7031,-98.5 26.9063,-85.7031 26.9063,-77.3125 C26.9063,-71.9063 27.4063,-67 29.1094,-55.7969 C29,-55.7031 23.7969,-50.4063 21.7031,-48.7031 C12.5938,-40.2969 0,-28.1094 0,-8.09375 C0,10.5938 16.2969,25.2969 34.9063,25.2969 C37.7969,25.2969 40.5,25 42.7969,24.5938 C44.7031,34.2031 45.9063,41.2031 45.9063,46.5 C45.9063,56.9063 40.5,62.4063 30.4063,62.4063 C28,62.4063 25.9063,61.9063 25.7031,61.9063 C25.6094,61.7969 25.4063,61.7031 25.4063,61.6094 C25.4063,61.4063 25.6094,61.2969 25.9063,61.2969 C30.6094,60.5 35.2969,56.5 35.2969,50.1094 C35.2969,44.7031 31.2031,39 23.7031,39 C16.7031,39 12.2969,44.7031 12.2969,51.2969 M33.2031,-82.2031 C34.1094,-86.2031 38.7031,-96.7031 43.9063,-96.7031 C45.4063,-96.7031 47.7969,-91.9063 47.7969,-84.9063 C47.7969,-74.5 40.1094,-66.7031 33.2031,-59.9063 C32.6094,-63.9063 32.1094,-67.7969 32.1094,-72 C32.1094,-75.7031 32.4063,-79.1094 33.2031,-82.2031 M42,20.5938 C40,21 38.1094,21.2031 36.2031,21.2031 C21.9063,21.2031 9.70313,11.2031 9.70313,-3.90625 C9.70313,-16.0938 18.2969,-27 27.1094,-34.6094 C28.7969,-36.1094 30.4063,-37.5 31.9063,-39 C32.7969,-33.6094 33.5,-28.9063 34.2031,-24.7969 C25.0938,-22.0938 18.9063,-12.5 18.9063,-3.09375 C18.9063,3.90625 24.4063,13.5 32.4063,13.5 C33.2031,13.5 34.1094,13.0938 34.1094,12.2031 C34.1094,11.2969 33.1094,10.7969 31.9063,10 C28,7.59375 25.7969,5 25.7969,0.09375 C25.7969,-6 30.4063,-10.9063 36.2031,-12.2969 L42,20.5938 M56.2031,2.09375 C56.2031,9.20313 53.2969,16.5 46.2031,19.4063 C44.1094,7.40625 41.4063,-8.5 40.7031,-12.9063 C49.7031,-12.9063 56.2031,-6.79688 56.2031,2.09375"/>
<path class="Clef" transform="matrix(0.992001,0,0,0.992001,235.662,723.177)" d="M25.4063,-25.0938 C17.7969,-25.0938 11.7031,-20.7031 11.5938,-20.7031 C5.70313,-16.4063 1.90625,-9.79688 1.90625,-2.5 C1.90625,4.79688 6.09375,10.2031 13.5,10.2031 C19.9063,10.2031 24.9063,5.90625 24.9063,-0.703125 C24.9063,-6.40625 19.9063,-11.0938 14.2969,-11.0938 C13.0938,-11.0938 12,-10.9063 11.0938,-10.5938 C10.0938,-10.2031 8.40625,-9.20313 7.59375,-8.5 C8.29688,-12.9063 11.2969,-17.2969 15.2031,-19.4063 C17.7031,-20.7969 20.9063,-21.4063 24.4063,-21.4063 C34.6094,-21.4063 39.6094,-13.2031 39.6094,3.59375 C39.6094,16.5938 31.2969,35.2969 21.5,44.1094 C11.0938,53.6094 1.29688,58.1094 1.20313,58.1094 C1.20313,58.1094 0,58.7969 0,60 C0,60.2031 0.09375,60.2969 0.09375,60.5 C0.40625,61.5 1.29688,61.7031 2,61.7031 L2.29688,61.6094 C2.5,61.6094 13.9063,56.9063 23,49.7969 C37,39.7031 52.7969,21.9063 52.7969,3.5 C52.7969,-13.9063 43.4063,-25.0938 25.4063,-25.0938 M56.7969,-12.4063 C56.7969,-9.59375 59,-7.40625 61.6094,-7.40625 C64.2031,-7.40625 66.4063,-9.59375 66.4063,-12.4063 C66.4063,-15.2031 64.2031,-17.5 61.6094,-17.5 C59,-17.5 56.7969,-15.2031 56.7969,-12.4063 M56.7969,12.2969 C56.7969,15.0938 59,17.4063 61.6094,17.4063 C64.2031,17.4063 66.4063,15.0938 66.4063,12.2969 C66.4063,9.5 64.2031,7.20313 61.6094,7.20313 C59,7.20313 56.7969,9.5 56.7969,12.2969"/>
<path class="KeySig" transform="matrix(0.992001,0,0,0.992001,320.122,435.799)" d="M12,-15.5 C7,-15.5 4.09375,-12.4063 3.59375,-11.7969 L4,-43.9063 C4,-44.7031 3.40625,-45.2969 2.59375,-45.2969 L1.40625,-45.2969 C0.59375,-45.2969 0,-44.7031 0,-43.9063 L0.5,16.2031 C0.5,17 1.09375,17.5938 1.90625,17.5938 C2.09375,17.5938 2.5,17.5 2.70313,17.4063 C11.2969,13.0938 20.2969,4.90625 20.2969,-5.40625 C20.2969,-10.5938 17.9063,-15.5 12,-15.5 M3.29688,12.7031 L3.59375,-6.79688 C3.79688,-7.70313 5.29688,-10.5938 9.29688,-10.5938 C12.9063,-10.5938 13.2031,-7.20313 13.2031,-5.09375 C13.2031,3.79688 9.90625,7.5 3.29688,12.7031"/>
<path class="KeySig" transform="matrix(0.992001,0,0,0.992001,347.697,398.599)" d="M12,-15.5 C7,-15.5 4.09375,-12.4063 3.59375,-11.7969 L4,-43.9063 C4,-44.7031 3.40625,-45.2969 2.59375,-45.2969 L1.40625,-45.2969 C0.59375,-45.2969 0,-44.7031 0,-43.9063 L0.5,16.2031 C0.5,17 1.09375,17.5938 1.90625,17.5938 C2.09375,17.5938 2.5,17.5 2.70313,17.4063 C11.2969,13.0938 20.2969,4.90625 20.2969,-5.40625 C20.2969,-10.5938 17.9063,-15.5 12,-15.5 M3.29688,12.7031 L3.59375,-6.79688 C3.79688,-7.70313 5.29688,-10.5938 9.29688,-10.5938 C12.9063,-10.5938 13.2031,-7.20313 13.2031,-5.09375 C13.2031,3.79688 9.90625,7.5 3.29688,12.7031"/>
<path class="KeySig" transform="matrix(0.992001,0,0,0.992001,375.271,448.199)" d="M12,-15.5 C7,-15.5 4.09375,-12.4063 3.59375,-11.7969 L4,-43.9063 C4,-44.7031 3.40625,-45.2969 2.59375,-45.2969 L1.40625,-45.2969 C0.59375,-45.2969 0,-44.7031 0,-43.9063 L0.5,16.2031 C0.5,17 1.09375,17.5938 1.90625,17.5938 C2.09375,17.5938 2.5,17.5 2.70313,17.4063 C11.2969,13.0938 20.2969,4.90625 20.2969,-5.40625 C20.2969,-10.5938 17.9063,-15.5 12,-15.5 M3.29688,12.7031 L3.59375,-6.79688 C3.79688,-7.70313 5.29688,-10.5938 9.29688,-10.5938 C12.9063,-10.5938 13.2031,-7.20313 13.2031,-5.09375 C13.2031,3.79688 9.90625,7.5 3.29688,12.7031"/>
<path class="KeySig" transform="matrix(0.992001,0,0,0.992001,402.846,410.999)" d="M12,-15.5 C7,-15.5 4.09375,-12.4063 3.59375,-11.7969 L4,-43.9063 C4,-44.7031 3.40625,-45.2969 2.59375,-45.2969 L1.40625,-45.2969 C0.59375,-45.2969 0,-44.7031 0,-43.9063 L0.5,16.2031 C0.5,17 1.09375,17.5938 1.90625,17.5938 C2.09375,17.5938 2.5,17.5 2.70313,17.4063 C11.2969,13.0938 20.2969,4.90625 20.2969,-5.40625 C20.2969,-10.5938 17.9063,-15.5 12,-15.5 M3.29688,12.7031 L3.59375,-6.79688 C3.79688,-7.70313 5.29688,-10.5938 9.29688,-10.5938 C12.9063,-10.5938 13.2031,-7.20313 13.2031,-5.09375 C13.2031,3.79688 9.90625,7.5 3.29688,12.7031"/>
<path class="KeySig" transform="matrix(0.992001,0,0,0.992001,2162.52,386.199)" d="M23.2969,-10.5 C23.9063,-10.5938 24.4063,-11.2969 24.4063,-11.9063 L24.4063,-17.7969 C24.4063,-18.7969 23.7031,-19.2031 22.7969,-19.2031 L19.5,-18.5 L19.5,-33.4063 L16.7031,-33.4063 L16.7031,-17.9063 L7.79688,-16.0938 L7.79688,-30.2031 L5,-30.2031 L5,-15.5 L1.09375,-14.7031 C0.5,-14.5938 0,-13.9063 0,-13.2969 L0,-7.5 C0,-6.40625 0.796875,-6.09375 1.70313,-6.09375 L5,-6.79688 L5,9.70313 L1.09375,10.5 C0.5,10.5938 0,11.2969 0,11.9063 L0,17.7031 C0,18.7969 0.796875,19.0938 1.70313,19.0938 L5,18.4063 L5,33.2969 L7.79688,33.2969 L7.79688,17.7969 L16.7031,16 L16.7031,30.1094 L19.5,30.1094 L19.5,15.4063 L23.2969,14.7031 C23.9063,14.5938 24.4063,13.9063 24.4063,13.2969 L24.4063,7.40625 C24.4063,6.40625 23.7031,6 22.7969,6 L19.5,6.70313 L19.5,-9.79688 L23.2969,-10.5 M7.79688,-7.40625 L16.7031,-9.20313 L16.7031,7.29688 L7.79688,9.20313 L7.79688,-7.40625 "/>
<path class="KeySig" transform="matrix(0.992001,0,0,0.992001,2189.69,423.399)" d="M23.2969,-10.5 C23.9063,-10.5938 24.4063,-11.2969 24.4063,-11.9063 L24.4063,-17.7969 C24.4063,-18.7969 23.7031,-19.2031 22.7969,-19.2031 L19.5,-18.5 L19.5,-33.4063 L16.7031,-33.4063 L16.7031,-17.9063 L7.79688,-16.0938 L7.79688,-30.2031 L5,-30.2031 L5,-15.5 L1.09375,-14.7031 C0.5,-14.5938 0,-13.9063 0,-13.2969 L0,-7.5 C0,-6.40625 0.796875,-6.09375 1.70313,-6.09375 L5,-6.79688 L5,9.70313 L1.09375,10.5 C0.5,10.5938 0,11.2969 0,11.9063 L0,17.7031 C0,18.7969 0.796875,19.0938 1.70313,19.0938 L5,18.4063 L5,33.2969 L7.79688,33.2969 L7.79688,17.7969 L16.7031,16 L16.7031,30.1094 L19.5,30.1094 L19.5,15.4063 L23.2969,14.7031 C23.9063,14.5938 24.4063,13.9063 24.4063,13.2969 L24.4063,7.40625 C24.4063,6.40625 23.7031,6 22.7969,6 L19.5,6.70313 L19.5,-9.79688 L23.2969,-10.5 M7.79688,-7.40625 L16.7031,-9.20313 L16.7031,7.29688 L7.79688,9.20313 L7.79688,-7.40625 "/>
<path class="KeySig" transform="matrix(0.992001,0,0,0.992001,2216.84,373.799)" d="M23.2969,-10.5 C23.9063,-10.5938 24.4063,-11.2969 24.4063,-11.9063 L24.4063,-17.7969 C24.4063,-18.7969 23.7031,-19.2031 22.7969,-19.2031 L19.5,-18.5 L19.5,-33.4063 L16.7031,-33.4063 L16.7031,-17.9063 L7.79688,-16.0938 L7.79688,-30.2031 L5,-30.2031 L5,-15.5 L1.09375,-14.7031 C0.5,-14.5938 0,-13.9063 0,-13.2969 L0,-7.5 C0,-6.40625 0.796875,-6.09375 1.70313,-6.09375 L5,-6.79688 L5,9.70313 L1.09375,10.5 C0.5,10.5938 0,11.2969 0,11.9063 L0,17.7031 C0,18.7969 0.796875,19.0938 1.70313,19.0938 L5,18.4063 L5,33.2969 L7.79688,33.2969 L7.79688,17.7969 L16.7031,16 L16.7031,30.1094 L19.5,30.1094 L19.5,15.4063 L23.2969,14.7031 C23.9063,14.5938 24.4063,13.9063 24.4063,13.2969 L24.4063,7.40625 C24.4063,6.40625 23.7031,6 22.7969,6 L19.5,6.70313 L19.5,-9.79688 L23.2969,-10.5 M7.79688,-7.40625 L16.7031,-9.20313 L16.7031,7.29688 L7.79688,9.20313 L7.79688,-7.40625 "/>
<path class="KeySig" transform="matrix(0.992001,0,0,0.992001,2244.02,410.999)" d="M23.2969,-10.5 C23.9063,-10.5938 24.4063,-11.2969 24.4063,-11.9063 L24.4063,-17.7969 C24.4063,-18.7969 23.7031,-19.2031 22.7969,-19.2031 L19.5,-18.5 L19.5,-33.4063 L16.7031,-33.4063 L16.7031,-17.9063 L7.79688,-16.0938 L7.79688,-30.2031 L5,-30.2031 L5,-15.5 L1.09375,-14.7031 C0.5,-14.5938 0,-13.9063 0,-13.2969 L0,-7.5 C0,-6.40625 0.796875,-6.09375 1.70313,-6.09375 L5,-6.79688 L5,9.70313 L1.09375,10.5 C0.5,10.5938 0,11.2969 0,11.9063 L0,17.7031 C0,18.7969 0.796875,19.0938 1.70313,19.0938 L5,18.4063 L5,33.2969 L7.79688,33.2969 L7.79688,17.7969 L16.7031,16 L16.7031,30.1094 L19.5,30.1094 L19.5,15.4063 L23.2969,14.7031 C23.9063,14.5938 24.4063,13.9063 24.4063,13.2969 L24.4063,7.40625 C24.4063,6.40625 23.7031,6 22.7969,6 L19.5,6.70313 L19.5,-9.79688 L23.2969,-10.5 M7.79688,-7.40625 L16.7031,-9.20313 L16.7031,7.29688 L7.79688,9.20313 L7.79688,-7.40625 "/>
<path class="KeySig" transform="matrix(0.992001,0,0,0.992001,2271.19,448.199)" d="M23.2969,-10.5 C23.9063,-10.5938 24.4063,-11.2969 24.4063,-11.9063 L24.4063,-17.7969 C24.4063,-18.7969 23.7031,-19.2031 22.7969,-19.2031 L19.5,-18.5 L19.5,-33.4063 L16.7031,-33.4063 L16.7031,-17.9063 L7.79688,-16.0938 L7.79688,-30.2031 L5,-30.2031 L5,-15.5 L1.09375,-14.7031 C0.5,-14.5938 0,-13.9063 0,-13.2969 L0,-7.5 C0,-6.40625 0.796875,-6.09375 1.70313,-6.09375 L5,-6.79688 L5,9.70313 L1.09375,10.5 C0.5,10.5938 0,11.2969 0,11.9063 L0,17.7031 C0,18.7969 0.796875,19.0938 1.70313,19.0938 L5,18.4063 L5,33.2969 L7.79688,33.2969 L7.79688,17.7969 L16.7031,16 L16.7031,30.1094 L19.5,30.1094 L19.5,15.4063 L23.2969,14.7031 C23.9063,14.5938 24.4063,13.9063 24.4063,13.2969 L24.4063,7.40625 C24.4063,6.40625 23.7031,6 22.7969,6 L19.5,6.70313 L19.5,-9.79688 L23.2969,-10.5 M7.79688,-7.40625 L16.7031,-9.20313 L16.7031,7.29688 L7.79688,9.20313 L7.79688,-7.40625 "/>
<path class="KeySig" transform="matrix(0.992001,0,0,0.992001,320.122,772.777)" d="M12,-15.5 C7,-15.5 4.09375,-12.4063 3.59375,-11.7969 L4,-43.9063 C4,-44.7031 3.40625,-45.2969 2.59375,-45.2969 L1.40625,-45.2969 C0.59375,-45.2969 0,-44.7031 0,-43.9063 L0.5,16.2031 C0.5,17 1.09375,17.5938 1.90625,17.5938 C2.09375,17.5938 2.5,17.5 2.70313,17.4063 C11.2969,13.0938 20.2969,4.90625 20.2969,-5.40625 C20.2969,-10.5938 17.9063,-15.5 12,-15.5 M3.29688,12.7031 L3.59375,-6.79688 C3.79688,-7.70313 5.29688,-10.5938 9.29688,-10.5938 C12.9063,-10.5938 13.2031,-7.20313 13.2031,-5.09375 C13.2031,3.79688 9.90625,7.5 3.29688,12.7031"/>
<path class="KeySig" transform="matrix(0.992001,0,0,0.992001,347.697,735.577)" d="M12,-15.5 C7,-15.5 4.09375,-12.4063 3.59375,-11.7969 L4,-43.9063 C4,-44.7031 3.40625,-45.2969 2.59375,-45.2969 L1.40625,-45.2969 C0.59375,-45.2969 0,-44.7031 0,-43.9063 L0.5,16.2031 C0.5,17 1.09375,17.5938 1.90625,17.5938 C2.09375,17.5938 2.5,17.5 2.70313,17.4063 C11.2969,13.0938 20.2969,4.90625 20.2969,-5.40625 C20.2969,-10.5938 17.9063,-15.5 12,-15.5 M3.29688,12.7031 L3.59375,-6.79688 C3.79688,-7.70313 5.29688,-10.5938 9.29688,-10.5938 C12.9063,-10.5938 13.2031,-7.20313 13.2031,-5.09375 C13.2031,3.79688 9.90625,7.5 3.29688,12.7031"/>
<path class="KeySig" transform="matrix(0.992001,0,0,0.992001,375.271,785.177)" d="M12,-15.5 C7,-15.5 4.09375,-12.4063 3.59375,-11.7969 L4,-43.9063 C4,-44.7031 3.40625,-45.2969 2.59375,-45.2969 L1.40625,-45.2969 C0.59375,-45.2969 0,-44.7031 0,-43.9063 L0.5,16.2031 C0.5,17 1.09375,17.5938 1.90625,17.5938 C2.09375,17.5938 2.5,17.5 2.70313,17.4063 C11.2969,13.0938 20.2969,4.90625 20.2969,-5.40625 C20.2969,-10.5938 17.9063,-15.5 12,-15.5 M3.29688,12.7031 L3.59375,-6.79688 C3.79688,-7.70313 5.29688,-10.5938 9.29688,-10.5938 C12.9063,-10.5938 13.2031,-7.20313 13.2031,-5.09375 C13.2031,3.79688 9.90625,7.5 3.29688,12.7031"/>
<path class="KeySig" transform="matrix(0.992001,0,0,0.992001,402.846,747.977)" d="M12,-15.5 C7,-15.5 4.09375,-12.4063 3.59375,-11.7969 L4,-43.9063 C4,-44.7031 3.40625,-45.2969 2.59375,-45.2969 L1.40625,-45.2969 C0.59375,-45.2969 0,-44.7031 0,-43.9063 L0.5,16.2031 C0.5,17 1.09375,17.5938 1.90625,17.5938 C2.09375,17.5938 2.5,17.5 2.70313,17.4063 C11.2969,13.0938 20.2969,4.90625 20.2969,-5.40625 C20.2969,-10.5938 17.9063,-15.5 12,-15.5 M3.29688,12.7031 L3.59375,-6.79688 C3.79688,-7.70313 5.29688,-10.5938 9.29688,-10.5938 C12.9063,-10.5938 13.2031,-7.20313 13.2031,-5.09375 C13.2031,3.79688 9.90625,7.5 3.29688,12.7031"/>
<path class="KeySig" transform="matrix(0.992001,0,0,0.992001,2162.52,723.177)" d="M23.2969,-10.5 C23.9063,-10.5938 24.4063,-11.2969 24.4063,-11.9063 L24.4063,-17.7969 C24.4063,-18.7969 23.7031,-19.2031 22.7969,-19.2031 L19.5,-18.5 L19.5,-33.4063 L16.7031,-33.4063 L16.7031,-17.9063 L7.79688,-16.0938 L7.79688,-30.2031 L5,-30.2031 L5,-15.5 L1.09375,-14.7031 C0.5,-14.5938 0,-13.9063 0,-13.2969 L0,-7.5 C0,-6.40625 0.796875,-6.09375 1.70313,-6.09375 L5,-6.79688 L5,9.70313 L1.09375,10.5 C0.5,10.5938 0,11.2969 0,11.9063 L0,17.7031 C0,18.7969 0.796875,19.0938 1.70313,19.0938 L5,18.4063 L5,33.2969 L7.79688,33.2969 L7.79688,17.7969 L16.7031,16 L16.7031,30.1094 L19.5,30.1094 L19.5,15.4063 L23.2969,14.7031 C23.9063,14.5938 24.4063,13.9063 24.4063,13.2969 L24.4063,7.40625 C24.4063,6.40625 23.7031,6 22.7969,6 L19.5,6.70313 L19.5,-9.79688 L23.2969,-10.5 M7.79688,-7.40625 L16.7031,-9.20313 L16.7031,7.29688 L7.79688,9.20313 L7.79688,-7.40625 "/>
<path class="KeySig" transform="matrix(0.992001,0,0,0.992001,2189.69,760.377)" d="M23.2969,-10.5 C23.9063,-10.5938 24.4063,-11.2969 24.4063,-11.9063 L24.4063,-17.7969 C24.4063,-18.7969 23.7031,-19.2031 22.7969,-19.2031 L19.5,-18.5 L19.5,-33.4063 L16.7031,-33.4063 L16.7031,-17.9063 L7.79688,-16.0938 L7.79688,-30.2031 L5,-30.2031 L5,-15.5 L1.09375,-14.7031 C0.5,-14.5938 0,-13.9063 0,-13.2969 L0,-7.5 C0,-6.40625 0.796875,-6.09375 1.70313,-6.09375 L5,-6.79688 L5,9.70313 L1.09375,10.5 C0.5,10.5938 0,11.2969 0,11.9063 L0,17.7031 C0,18.7969 0.796875,19.0938 1.70313,19.0938 L5,18.4063 L5,33.2969 L7.79688,33.2969 L7.79688,17.7969 L16.7031,16 L16.7031,30.1094 L19.5,30.1094 L19.5,15.4063 L23.2969,14.7031 C23.9063,14.5938 24.4063,13.9063 24.4063,13.2969 L24.4063,7.40625 C24.4063,6.40625 23.7031,6 22.7969,6 L19.5,6.70313 L19.5,-9.79688 L23.2969,-10.5 M7.79688,-7.40625 L16.7031,-9.20313 L16.7031,7.29688 L7.79688,9.20313 L7.79688,-7.40625 "/>
<path class="KeySig" transform="matrix(0.992001,0,0,0.992001,2216.84,710.777)" d="M23.2969,-10.5 C23.9063,-10.5938 24.4063,-11.2969 24.4063,-11.9063 L24.4063,-17.7969 C24.4063,-18.7969 23.7031,-19.2031 22.7969,-19.2031 L19.5,-18.5 L19.5,-33.4063 L16.7031,-33.4063 L16.7031,-17.9063 L7.79688,-16.0938 L7.79688,-30.2031 L5,-30.2031 L5,-15.5 L1.09375,-14.7031 C0.5,-14.5938 0,-13.9063 0,-13.2969 L0,-7.5 C0,-6.40625 0.796875,-6.09375 1.70313,-6.09375 L5,-6.79688 L5,9.70313 L1.09375,10.5 C0.5,10.5938 0,11.2969 0,11.9063 L0,17.7031 C0,18.7969 0.796875,19.0938 1.70313,19.0938 L5,18.4063 L5,33.2969 L7.79688,33.2969 L7.79688,17.7969 L16.7031,16 L16.7031,30.1094 L19.5,30.1094 L19.5,15.4063 L23.2969,14.7031 C23.9063,14.5938 24.4063,13.9063 24.4063,13.2969 L24.4063,7.40625 C24.4063,6.40625 23.7031,6 22.7969,6 L19.5,6.70313 L19.5,-9.79688 L23.2969,-10.5 M7.79688,-7.40625 L16.7031,-9.20313 L16.7031,7.29688 L7.79688,9.20313 L7.79688,-7.40625 "/>
<path class="KeySig" transform="matrix(0.992001,0,0,0.992001,2244.02,747.977)" d="M23.2969,-10.5 C23.9063,-10.5938 24.4063,-11.2969 24.4063,-11.9063 L24.4063,-17.7969 C24.4063,-18.7969 23.7031,-19.2031 22.7969,-19.2031 L19.5,-18.5 L19.5,-33.4063 L16.7031,-33.4063 L16.7031,-17.9063 L7.79688,-16.0938 L7.79688,-30.2031 L5,-30.2031 L5,-15.5 L1.09375,-14.7031 C0.5,-14.5938 0,-13.9063 0,-13.2969 L0,-7.5 C0,-6.40625 0.796875,-6.09375 1.70313,-6.09375 L5,-6.79688 L5,9.70313 L1.09375,10.5 C0.5,10.5938 0,11.2969 0,11.9063 L0,17.7031 C0,18.7969 0.796875,19.0938 1.70313,19.0938 L5,18.4063 L5,33.2969 L7.79688,33.2969 L7.79688,17.7969 L16.7031,16 L16.7031,30.1094 L19.5,30.1094 L19.5,15.4063 L23.2969,14.7031 C23.9063,14.5938 24.4063,13.9063 24.4063,13.2969 L24.4063,7.40625 C24.4063,6.40625 23.7031,6 22.7969,6 L19.5,6.70313 L19.5,-9.79688 L23.2969,-10.5 M7.79688,-7.40625 L16.7031,-9.20313 L16.7031,7.29688 L7.79688,9.20313 L7.79688,-7.40625 "/>
<path class="KeySig" transform="matrix(0.992001,0,0,0.992001,2271.19,785.177)" d="M23.2969,-10.5 C23.9063,-10.5938 24.4063,-11.2969 24.4063,-11.9063 L24.4063,-17.7969 C24.4063,-18.7969 23.7031,-19.2031 22.7969,-19.2031 L19.5,-18.5 L19.5,-33.4063 L16.7031,-33.4063 L16.7031,-17.9063 L7.79688,-16.0938 L7.79688,-30.2031 L5,-30.2031 L5,-15.5 L1.09375,-14.7031 C0.5,-14.5938 0,-13.9063 0,-13.2969 L0,-7.5 C0,-6.40625 0.796875,-6.09375 1.70313,-6.09375 L5,-6.79688 L5,9.70313 L1.09375,10.5 C0.5,10.5938 0,11.2969 0,11.9063 L0,17.7031 C0,18.7969 0.796875,19.0938 1.70313,19.0938 L5,18.4063 L5,33.2969 L7.79688,33.2969 L7.79688,17.7969 L16.7031,16 L16.7031,30.1094 L19.5,30.1094 L19.5,15.4063 L23.2969,14.7031 C23.9063,14.5938 24.4063,13.9063 24.4063,13.2969 L24.4063,7.40625 C24.4063,6.40625 23.7031,6 22.7969,6 L19.5,6.70313 L19.5,-9.79688 L23.2969,-10.5 M7.79688,-7.40625 L16.7031,-9.20313 L16.7031,7.29688 L7.79688,9.20313 L7.79688,-7.40625 "/>
<path class="Lyrics" d="M900.066,536.502 L891.176,537.049 L891.176,539.205 L893.222,539.205 C895.113,539.252 895.363,539.549 895.363,541.705 L895.363,556.002 C895.316,556.752 895.269,557.049 895.066,557.299 C894.722,557.752 893.769,557.955 891.613,558.002 L891.426,558.002 L891.426,559.799 L904.019,559.799 L904.019,558.002 L903.816,558.002 C900.519,557.893 900.066,557.643 900.066,555.799 L900.066,546.549 C900.066,542.096 902.519,538.799 905.769,538.799 C908.613,538.799 910.066,540.846 910.066,544.893 L910.066,556.049 C910.019,556.705 909.972,557.049 909.722,557.299 C909.426,557.752 908.426,557.955 906.269,558.002 L906.066,558.002 L906.066,559.799 L918.722,559.799 L918.722,558.002 L918.519,558.002 C915.222,557.893 914.769,557.643 914.769,555.846 L914.769,547.002 C914.769,542.002 917.019,538.799 920.519,538.799 C923.379,538.799 924.769,540.955 924.769,545.455 L924.769,556.002 C924.722,556.705 924.676,557.049 924.426,557.299 C924.129,557.752 923.129,557.955 920.972,558.002 L920.769,558.002 L920.769,559.799 L933.426,559.799 L933.426,558.002 L933.222,558.002 C929.926,557.893 929.472,557.643 929.472,555.799 L929.472,544.455 C929.472,541.346 929.176,540.299 927.879,538.596 C926.426,536.752 924.379,535.752 921.972,535.752 C918.722,535.752 916.316,537.299 914.176,540.752 C913.316,537.752 910.613,535.752 907.269,535.752 C904.222,535.752 902.019,537.205 900.066,540.346 L900.066,536.502 M941.972,524.049 C940.363,524.049 939.066,525.346 939.066,526.939 C939.066,528.549 940.363,529.846 941.926,529.846 C943.566,529.846 944.863,528.549 944.863,526.939 C944.863,525.346 943.566,524.049 941.972,524.049 M944.316,536.502 L934.926,537.049 L934.926,539.205 L937.472,539.205 C939.363,539.252 939.613,539.549 939.613,541.705 L939.613,556.002 C939.566,556.752 939.519,557.049 939.316,557.299 C938.972,557.752 938.019,557.955 935.863,558.002 L935.519,558.002 L935.519,559.799 L948.472,559.799 L948.472,558.002 L948.113,558.002 C944.769,557.893 944.316,557.643 944.316,555.846 L944.316,536.502 "/>
<path class="Lyrics" d="M1325.95,535.955 L1324.2,535.955 L1322.74,537.752 C1320.95,536.346 1319.15,535.752 1316.65,535.752 C1312.24,535.752 1309.35,538.596 1309.35,543.002 C1309.35,547.705 1312.4,548.893 1316.4,549.846 L1319.04,550.455 C1322.99,551.393 1324.4,552.393 1324.4,554.393 C1324.4,556.752 1322.35,558.393 1319.45,558.393 C1315.2,558.393 1312.2,555.705 1310.99,550.705 L1308.99,550.705 L1308.99,560.143 L1310.74,560.143 L1312.49,558.096 C1314.54,559.752 1316.79,560.549 1319.35,560.549 C1324.24,560.549 1327.49,557.502 1327.49,552.846 C1327.49,550.643 1326.79,548.955 1325.4,547.799 C1324.2,546.752 1323.2,546.346 1320.15,545.705 L1317.65,545.143 C1314.9,544.549 1314.9,544.549 1313.99,544.049 C1312.9,543.549 1312.24,542.502 1312.24,541.393 C1312.24,539.346 1314.15,537.955 1316.9,537.955 C1320.99,537.955 1322.99,540.846 1324.2,544.346 L1325.95,544.346 L1325.95,535.955 M1342.04,535.752 C1335.9,535.752 1331.15,541.205 1331.15,548.205 C1331.15,555.049 1335.95,560.549 1341.95,560.549 C1347.95,560.549 1352.74,555.049 1352.74,548.143 C1352.74,541.299 1347.95,535.752 1342.04,535.752 M1342.04,537.893 C1345.54,537.893 1347.49,541.549 1347.49,548.143 C1347.49,554.799 1345.54,558.393 1341.95,558.393 C1338.35,558.393 1336.4,554.799 1336.4,548.205 C1336.4,541.393 1338.29,537.893 1342.04,537.893 M1364.65,522.939 L1355.4,523.502 L1355.4,525.643 L1357.85,525.643 C1359.7,525.689 1359.95,526.002 1359.95,528.143 L1359.95,556.002 C1359.9,556.752 1359.85,557.049 1359.65,557.299 C1359.29,557.752 1358.35,557.955 1356.2,558.002 L1355.85,558.002 L1355.85,559.799 L1368.79,559.799 L1368.79,558.002 L1368.45,558.002 C1365.1,557.893 1364.65,557.643 1364.65,555.846 L1364.65,522.939 "/>
<path class="Lyrics" d="M1757.37,535.955 L1755.62,535.955 L1754.17,537.752 C1752.37,536.346 1750.58,535.752 1748.08,535.752 C1743.67,535.752 1740.78,538.596 1740.78,543.002 C1740.78,547.705 1743.83,548.893 1747.83,549.846 L1750.47,550.455 C1754.42,551.393 1755.83,552.393 1755.83,554.393 C1755.83,556.752 1753.78,558.393 1750.87,558.393 C1746.62,558.393 1743.62,555.705 1742.42,550.705 L1740.42,550.705 L1740.42,560.143 L1742.17,560.143 L1743.92,558.096 C1745.97,559.752 1748.22,560.549 1750.78,560.549 C1755.67,560.549 1758.92,557.502 1758.92,552.846 C1758.92,550.643 1758.22,548.955 1756.83,547.799 C1755.62,546.752 1754.62,546.346 1751.58,545.705 L1749.08,545.143 C1746.33,544.549 1746.33,544.549 1745.42,544.049 C1744.33,543.549 1743.67,542.502 1743.67,541.393 C1743.67,539.346 1745.58,537.955 1748.33,537.955 C1752.42,537.955 1754.42,540.846 1755.62,544.346 L1757.37,544.346 L1757.37,535.955 M1768.83,524.049 C1767.22,524.049 1765.92,525.346 1765.92,526.939 C1765.92,528.549 1767.22,529.846 1768.78,529.846 C1770.42,529.846 1771.72,528.549 1771.72,526.939 C1771.72,525.346 1770.42,524.049 1768.83,524.049 M1771.17,536.502 L1761.78,537.049 L1761.78,539.205 L1764.33,539.205 C1766.22,539.252 1766.47,539.549 1766.47,541.705 L1766.47,556.002 C1766.42,556.752 1766.37,557.049 1766.17,557.299 C1765.83,557.752 1764.87,557.955 1762.72,558.002 L1762.37,558.002 L1762.37,559.799 L1775.33,559.799 L1775.33,558.002 L1774.97,558.002 C1771.62,557.893 1771.17,557.643 1771.17,555.846 L1771.17,536.502 "/>
<path class="Lyrics" d="M696.962,536.502 L688.103,537.049 L688.103,539.205 L690.15,539.205 C692.056,539.252 692.306,539.549 692.306,541.705 L692.306,556.002 C692.259,556.752 692.212,557.049 692.009,557.299 C691.65,557.752 690.65,557.955 688.509,558.002 L688.306,558.002 L688.306,559.799 L701.65,559.799 L701.65,558.002 L700.759,558.002 C697.4,557.893 696.962,557.643 696.962,555.846 L696.962,553.143 C697.009,544.752 700.009,538.346 703.9,538.143 C703.212,538.955 703.009,539.455 703.009,540.393 C703.009,542.002 704.15,543.143 705.759,543.143 C707.603,543.143 708.806,541.799 708.806,539.799 C708.806,537.346 707.103,535.752 704.462,535.752 C701.306,535.752 698.603,538.252 696.962,542.705 L696.962,536.502 M732.306,548.549 C732.353,541.049 728.103,535.752 722.009,535.752 C715.603,535.752 710.806,541.299 710.806,548.799 C710.806,555.846 715.353,560.549 722.103,560.549 C726.9,560.549 730.259,558.205 732.306,553.455 L730.556,552.502 C728.509,556.346 726.4,557.846 723.056,557.846 C720.509,557.846 718.65,556.799 717.353,554.549 C716.462,553.049 716.056,551.299 716.103,548.549 L732.306,548.549 M716.15,546.393 C716.15,542.893 717.759,537.893 721.962,537.893 C724.962,537.893 726.962,540.549 726.962,544.596 C726.962,546.002 726.509,546.393 724.9,546.393 L716.15,546.393 "/>
<path class="Lyrics" d="M492.592,560.143 L501.296,559.799 L501.296,557.643 L500.389,557.643 C497.546,557.502 497.296,557.205 497.296,554.002 L497.296,522.939 L487.499,523.502 L487.499,525.643 L490.436,525.643 C492.342,525.689 492.592,526.002 492.592,528.143 L492.592,539.455 C490.749,536.893 488.592,535.752 485.686,535.752 C480.046,535.752 475.749,541.205 475.749,548.393 C475.749,555.502 479.889,560.549 485.686,560.549 C488.842,560.549 490.999,559.205 492.592,556.205 L492.592,560.143 M486.686,538.455 C488.749,538.455 490.686,539.955 491.592,542.252 C492.249,543.752 492.546,545.799 492.546,548.252 C492.546,554.096 490.249,557.846 486.639,557.846 C483.092,557.846 480.999,554.549 480.999,549.002 C480.999,546.002 481.296,543.752 481.936,542.096 C482.796,539.846 484.639,538.455 486.686,538.455 M515.186,535.752 C509.046,535.752 504.296,541.205 504.296,548.205 C504.296,555.049 509.092,560.549 515.092,560.549 C521.092,560.549 525.889,555.049 525.889,548.143 C525.889,541.299 521.092,535.752 515.186,535.752 M515.186,537.893 C518.686,537.893 520.639,541.549 520.639,548.143 C520.639,554.799 518.686,558.393 515.092,558.393 C511.499,558.393 509.546,554.799 509.546,548.205 C509.546,541.393 511.436,537.893 515.186,537.893"/>
<path class="Lyrics" d="M1117.03,536.502 L1117.03,533.643 C1117.03,531.143 1117.19,529.502 1117.58,528.502 C1118.39,526.299 1120.14,524.939 1122.14,524.939 C1123.19,524.939 1123.83,525.252 1123.83,525.799 C1123.83,526.002 1123.83,526.049 1123.53,526.439 C1123.23,526.893 1123.08,527.502 1123.08,528.049 C1123.08,529.549 1124.28,530.689 1125.83,530.689 C1127.48,530.689 1128.64,529.439 1128.64,527.643 C1128.64,524.752 1126.14,522.939 1122.08,522.939 C1118.64,522.939 1116.08,524.143 1114.33,526.643 C1112.83,528.752 1112.33,530.893 1112.33,534.955 L1112.33,536.502 L1107.94,536.502 L1107.94,538.643 L1112.33,538.643 L1112.33,556.002 C1112.28,556.705 1112.23,557.002 1112.03,557.299 C1111.69,557.752 1110.73,557.955 1108.58,558.002 L1108.39,558.002 L1108.39,559.799 L1121.73,559.799 L1121.73,558.002 L1120.83,558.002 C1117.48,557.893 1117.03,557.643 1117.03,555.846 L1117.03,538.643 L1122.53,538.643 L1122.53,536.502 L1117.03,536.502 M1145.58,543.705 C1145.58,540.549 1145.03,538.955 1143.58,537.752 C1141.94,536.393 1139.48,535.752 1136.28,535.752 C1130.64,535.752 1126.53,538.393 1126.53,542.049 C1126.53,543.893 1127.69,545.096 1129.44,545.096 C1131.03,545.096 1132.14,544.049 1132.14,542.549 C1132.14,541.893 1131.89,541.205 1131.39,540.502 C1131.08,540.143 1131.03,540.049 1131.03,539.799 C1131.03,538.799 1133.03,537.893 1135.44,537.893 C1137.03,537.893 1138.78,538.393 1139.58,539.143 C1140.53,539.955 1140.89,541.143 1140.89,543.393 L1140.89,545.346 C1135.69,546.252 1134.03,546.643 1131.58,547.596 C1127.23,549.205 1125.19,551.502 1125.19,554.705 C1125.19,558.299 1127.98,560.549 1132.44,560.549 C1135.89,560.549 1138.98,559.143 1141.14,556.596 C1141.94,559.143 1143.19,560.143 1145.53,560.143 C1147.78,560.143 1150.14,558.705 1150.14,557.252 C1150.14,556.893 1149.94,556.643 1149.64,556.643 C1149.44,556.643 1149.23,556.705 1148.89,556.846 C1148.19,557.143 1147.89,557.205 1147.48,557.205 C1146.08,557.205 1145.58,556.299 1145.58,553.752 L1145.58,543.705 M1140.89,549.799 C1140.89,552.799 1140.73,553.502 1139.89,554.799 C1138.64,556.643 1136.39,557.893 1134.19,557.893 C1131.89,557.893 1130.23,556.252 1130.23,554.002 C1130.23,551.893 1131.28,550.393 1133.48,549.346 C1135.03,548.643 1136.98,548.143 1140.89,547.502 L1140.89,549.799 "/>
<path class="Lyrics" d="M1958.84,560.143 L1967.54,559.799 L1967.54,557.643 L1966.63,557.643 C1963.79,557.502 1963.54,557.205 1963.54,554.002 L1963.54,522.939 L1953.74,523.502 L1953.74,525.643 L1956.68,525.643 C1958.59,525.689 1958.84,526.002 1958.84,528.143 L1958.84,539.455 C1956.99,536.893 1954.84,535.752 1951.93,535.752 C1946.29,535.752 1941.99,541.205 1941.99,548.393 C1941.99,555.502 1946.13,560.549 1951.93,560.549 C1955.09,560.549 1957.24,559.205 1958.84,556.205 L1958.84,560.143 M1952.93,538.455 C1954.99,538.455 1956.93,539.955 1957.84,542.252 C1958.49,543.752 1958.79,545.799 1958.79,548.252 C1958.79,554.096 1956.49,557.846 1952.88,557.846 C1949.34,557.846 1947.24,554.549 1947.24,549.002 C1947.24,546.002 1947.54,543.752 1948.18,542.096 C1949.04,539.846 1950.88,538.455 1952.93,538.455 M1981.43,535.752 C1975.29,535.752 1970.54,541.205 1970.54,548.205 C1970.54,555.049 1975.34,560.549 1981.34,560.549 C1987.34,560.549 1992.13,555.049 1992.13,548.143 C1992.13,541.299 1987.34,535.752 1981.43,535.752 M1981.43,537.893 C1984.93,537.893 1986.88,541.549 1986.88,548.143 C1986.88,554.799 1984.93,558.393 1981.34,558.393 C1977.74,558.393 1975.79,554.799 1975.79,548.205 C1975.79,541.393 1977.68,537.893 1981.43,537.893"/>
<path class="Lyrics" d="M1536.61,522.939 L1527.36,523.502 L1527.36,525.643 L1529.82,525.643 C1531.66,525.689 1531.91,526.002 1531.91,528.143 L1531.91,556.002 C1531.86,556.752 1531.82,557.049 1531.61,557.299 C1531.25,557.752 1530.32,557.955 1528.16,558.002 L1527.82,558.002 L1527.82,559.799 L1540.75,559.799 L1540.75,558.002 L1540.41,558.002 C1537.07,557.893 1536.61,557.643 1536.61,555.846 L1536.61,522.939 M1565,543.705 C1565,540.549 1564.46,538.955 1563,537.752 C1561.36,536.393 1558.91,535.752 1555.71,535.752 C1550.07,535.752 1545.96,538.393 1545.96,542.049 C1545.96,543.893 1547.11,545.096 1548.86,545.096 C1550.46,545.096 1551.57,544.049 1551.57,542.549 C1551.57,541.893 1551.32,541.205 1550.82,540.502 C1550.5,540.143 1550.46,540.049 1550.46,539.799 C1550.46,538.799 1552.46,537.893 1554.86,537.893 C1556.46,537.893 1558.21,538.393 1559,539.143 C1559.96,539.955 1560.32,541.143 1560.32,543.393 L1560.32,545.346 C1555.11,546.252 1553.46,546.643 1551,547.596 C1546.66,549.205 1544.61,551.502 1544.61,554.705 C1544.61,558.299 1547.41,560.549 1551.86,560.549 C1555.32,560.549 1558.41,559.143 1560.57,556.596 C1561.36,559.143 1562.61,560.143 1564.96,560.143 C1567.21,560.143 1569.57,558.705 1569.57,557.252 C1569.57,556.893 1569.36,556.643 1569.07,556.643 C1568.86,556.643 1568.66,556.705 1568.32,556.846 C1567.61,557.143 1567.32,557.205 1566.91,557.205 C1565.5,557.205 1565,556.299 1565,553.752 L1565,543.705 M1560.32,549.799 C1560.32,552.799 1560.16,553.502 1559.32,554.799 C1558.07,556.643 1555.82,557.893 1553.61,557.893 C1551.32,557.893 1549.66,556.252 1549.66,554.002 C1549.66,551.893 1550.71,550.393 1552.91,549.346 C1554.46,548.643 1556.41,548.143 1560.32,547.502 L1560.32,549.799 "/>
<path class="Lyrics" d="M908.222,835.118 L898.972,835.68 L898.972,837.821 L901.426,837.821 C903.269,837.868 903.519,838.18 903.519,840.321 L903.519,868.18 C903.472,868.93 903.426,869.227 903.222,869.477 C902.863,869.93 901.926,870.133 899.769,870.18 L899.426,870.18 L899.426,871.977 L912.363,871.977 L912.363,870.18 L912.019,870.18 C908.676,870.071 908.222,869.821 908.222,868.024 L908.222,835.118 M936.613,855.883 C936.613,852.727 936.066,851.133 934.613,849.93 C932.972,848.571 930.519,847.93 927.316,847.93 C921.676,847.93 917.566,850.571 917.566,854.227 C917.566,856.071 918.722,857.274 920.472,857.274 C922.066,857.274 923.176,856.227 923.176,854.727 C923.176,854.071 922.926,853.383 922.426,852.68 C922.113,852.321 922.066,852.227 922.066,851.977 C922.066,850.977 924.066,850.071 926.472,850.071 C928.066,850.071 929.816,850.571 930.613,851.321 C931.566,852.133 931.926,853.321 931.926,855.571 L931.926,857.524 C926.722,858.43 925.066,858.821 922.613,859.774 C918.269,861.383 916.222,863.68 916.222,866.883 C916.222,870.477 919.019,872.727 923.472,872.727 C926.926,872.727 930.019,871.321 932.176,868.774 C932.972,871.321 934.222,872.321 936.566,872.321 C938.816,872.321 941.176,870.883 941.176,869.43 C941.176,869.071 940.972,868.821 940.676,868.821 C940.472,868.821 940.269,868.883 939.926,869.024 C939.222,869.321 938.926,869.383 938.519,869.383 C937.113,869.383 936.613,868.477 936.613,865.93 L936.613,855.883 M931.926,861.977 C931.926,864.977 931.769,865.68 930.926,866.977 C929.676,868.821 927.426,870.071 925.222,870.071 C922.926,870.071 921.269,868.43 921.269,866.18 C921.269,864.071 922.316,862.571 924.519,861.524 C926.066,860.821 928.019,860.321 931.926,859.68 L931.926,861.977 "/>
<path class="Lyrics" d="M1326.49,848.68 L1326.49,845.821 C1326.49,843.321 1326.65,841.68 1327.04,840.68 C1327.85,838.477 1329.6,837.118 1331.6,837.118 C1332.65,837.118 1333.29,837.43 1333.29,837.977 C1333.29,838.18 1333.29,838.227 1332.99,838.618 C1332.7,839.071 1332.54,839.68 1332.54,840.227 C1332.54,841.727 1333.74,842.868 1335.29,842.868 C1336.95,842.868 1338.1,841.618 1338.1,839.821 C1338.1,836.93 1335.6,835.118 1331.54,835.118 C1328.1,835.118 1325.54,836.321 1323.79,838.821 C1322.29,840.93 1321.79,843.071 1321.79,847.133 L1321.79,848.68 L1317.4,848.68 L1317.4,850.821 L1321.79,850.821 L1321.79,868.18 C1321.74,868.883 1321.7,869.18 1321.49,869.477 C1321.15,869.93 1320.2,870.133 1318.04,870.18 L1317.85,870.18 L1317.85,871.977 L1331.2,871.977 L1331.2,870.18 L1330.29,870.18 C1326.95,870.071 1326.49,869.821 1326.49,868.024 L1326.49,850.821 L1331.99,850.821 L1331.99,848.68 L1326.49,848.68 M1355.04,855.883 C1355.04,852.727 1354.49,851.133 1353.04,849.93 C1351.4,848.571 1348.95,847.93 1345.74,847.93 C1340.1,847.93 1335.99,850.571 1335.99,854.227 C1335.99,856.071 1337.15,857.274 1338.9,857.274 C1340.49,857.274 1341.6,856.227 1341.6,854.727 C1341.6,854.071 1341.35,853.383 1340.85,852.68 C1340.54,852.321 1340.49,852.227 1340.49,851.977 C1340.49,850.977 1342.49,850.071 1344.9,850.071 C1346.49,850.071 1348.24,850.571 1349.04,851.321 C1349.99,852.133 1350.35,853.321 1350.35,855.571 L1350.35,857.524 C1345.15,858.43 1343.49,858.821 1341.04,859.774 C1336.7,861.383 1334.65,863.68 1334.65,866.883 C1334.65,870.477 1337.45,872.727 1341.9,872.727 C1345.35,872.727 1348.45,871.321 1350.6,868.774 C1351.4,871.321 1352.65,872.321 1354.99,872.321 C1357.24,872.321 1359.6,870.883 1359.6,869.43 C1359.6,869.071 1359.4,868.821 1359.1,868.821 C1358.9,868.821 1358.7,868.883 1358.35,869.024 C1357.65,869.321 1357.35,869.383 1356.95,869.383 C1355.54,869.383 1355.04,868.477 1355.04,865.93 L1355.04,855.883 M1350.35,861.977 C1350.35,864.977 1350.2,865.68 1349.35,866.977 C1348.1,868.821 1345.85,870.071 1343.65,870.071 C1341.35,870.071 1339.7,868.43 1339.7,866.18 C1339.7,864.071 1340.74,862.571 1342.95,861.524 C1344.49,860.821 1346.45,860.321 1350.35,859.68 L1350.35,861.977 "/>
<path class="Lyrics" d="M710.056,848.133 L708.306,848.133 L706.853,849.93 C705.056,848.524 703.259,847.93 700.759,847.93 C696.353,847.93 693.462,850.774 693.462,855.18 C693.462,859.883 696.509,861.071 700.509,862.024 L703.15,862.633 C707.103,863.571 708.509,864.571 708.509,866.571 C708.509,868.93 706.462,870.571 703.556,870.571 C699.306,870.571 696.306,867.883 695.103,862.883 L693.103,862.883 L693.103,872.321 L694.853,872.321 L696.603,870.274 C698.65,871.93 700.9,872.727 703.462,872.727 C708.353,872.727 711.603,869.68 711.603,865.024 C711.603,862.821 710.9,861.133 709.509,859.977 C708.306,858.93 707.306,858.524 704.259,857.883 L701.759,857.321 C699.009,856.727 699.009,856.727 698.103,856.227 C697.009,855.727 696.353,854.68 696.353,853.571 C696.353,851.524 698.259,850.133 701.009,850.133 C705.103,850.133 707.103,853.024 708.306,856.524 L710.056,856.524 L710.056,848.133 M721.509,836.227 C719.9,836.227 718.603,837.524 718.603,839.118 C718.603,840.727 719.9,842.024 721.462,842.024 C723.103,842.024 724.4,840.727 724.4,839.118 C724.4,837.524 723.103,836.227 721.509,836.227 M723.853,848.68 L714.462,849.227 L714.462,851.383 L717.009,851.383 C718.9,851.43 719.15,851.727 719.15,853.883 L719.15,868.18 C719.103,868.93 719.056,869.227 718.853,869.477 C718.509,869.93 717.556,870.133 715.4,870.18 L715.056,870.18 L715.056,871.977 L728.009,871.977 L728.009,870.18 L727.65,870.18 C724.306,870.071 723.853,869.821 723.853,868.024 L723.853,848.68 "/>
<path class="Lyrics" d="M1744.28,848.68 L1735.42,849.227 L1735.42,851.383 L1737.47,851.383 C1739.37,851.43 1739.62,851.727 1739.62,853.883 L1739.62,868.18 C1739.58,868.93 1739.53,869.227 1739.33,869.477 C1738.97,869.93 1737.97,870.133 1735.83,870.18 L1735.62,870.18 L1735.62,871.977 L1748.97,871.977 L1748.97,870.18 L1748.08,870.18 C1744.72,870.071 1744.28,869.821 1744.28,868.024 L1744.28,865.321 C1744.33,856.93 1747.33,850.524 1751.22,850.321 C1750.53,851.133 1750.33,851.633 1750.33,852.571 C1750.33,854.18 1751.47,855.321 1753.08,855.321 C1754.92,855.321 1756.12,853.977 1756.12,851.977 C1756.12,849.524 1754.42,847.93 1751.78,847.93 C1748.62,847.93 1745.92,850.43 1744.28,854.883 L1744.28,848.68 M1779.62,860.727 C1779.67,853.227 1775.42,847.93 1769.33,847.93 C1762.92,847.93 1758.12,853.477 1758.12,860.977 C1758.12,868.024 1762.67,872.727 1769.42,872.727 C1774.22,872.727 1777.58,870.383 1779.62,865.633 L1777.87,864.68 C1775.83,868.524 1773.72,870.024 1770.37,870.024 C1767.83,870.024 1765.97,868.977 1764.67,866.727 C1763.78,865.227 1763.37,863.477 1763.42,860.727 L1779.62,860.727 M1763.47,858.571 C1763.47,855.071 1765.08,850.071 1769.28,850.071 C1772.28,850.071 1774.28,852.727 1774.28,856.774 C1774.28,858.18 1773.83,858.571 1772.22,858.571 L1763.47,858.571 "/>
<path class="Lyrics" d="M492.592,872.321 L501.296,871.977 L501.296,869.821 L500.389,869.821 C497.546,869.68 497.296,869.383 497.296,866.18 L497.296,835.118 L487.499,835.68 L487.499,837.821 L490.436,837.821 C492.342,837.868 492.592,838.18 492.592,840.321 L492.592,851.633 C490.749,849.071 488.592,847.93 485.686,847.93 C480.046,847.93 475.749,853.383 475.749,860.571 C475.749,867.68 479.889,872.727 485.686,872.727 C488.842,872.727 490.999,871.383 492.592,868.383 L492.592,872.321 M486.686,850.633 C488.749,850.633 490.686,852.133 491.592,854.43 C492.249,855.93 492.546,857.977 492.546,860.43 C492.546,866.274 490.249,870.024 486.639,870.024 C483.092,870.024 480.999,866.727 480.999,861.18 C480.999,858.18 481.296,855.93 481.936,854.274 C482.796,852.024 484.639,850.633 486.686,850.633 M515.186,847.93 C509.046,847.93 504.296,853.383 504.296,860.383 C504.296,867.227 509.092,872.727 515.092,872.727 C521.092,872.727 525.889,867.227 525.889,860.321 C525.889,853.477 521.092,847.93 515.186,847.93 M515.186,850.071 C518.686,850.071 520.639,853.727 520.639,860.321 C520.639,866.977 518.686,870.571 515.092,870.571 C511.499,870.571 509.546,866.977 509.546,860.383 C509.546,853.571 511.436,850.071 515.186,850.071"/>
<path class="Lyrics" d="M1528.46,848.68 L1519.57,849.227 L1519.57,851.383 L1521.61,851.383 C1523.5,851.43 1523.75,851.727 1523.75,853.883 L1523.75,868.18 C1523.71,868.93 1523.66,869.227 1523.46,869.477 C1523.11,869.93 1522.16,870.133 1520,870.18 L1519.82,870.18 L1519.82,871.977 L1532.41,871.977 L1532.41,870.18 L1532.21,870.18 C1528.91,870.071 1528.46,869.821 1528.46,867.977 L1528.46,858.727 C1528.46,854.274 1530.91,850.977 1534.16,850.977 C1537,850.977 1538.46,853.024 1538.46,857.071 L1538.46,868.227 C1538.41,868.883 1538.36,869.227 1538.11,869.477 C1537.82,869.93 1536.82,870.133 1534.66,870.18 L1534.46,870.18 L1534.46,871.977 L1547.11,871.977 L1547.11,870.18 L1546.91,870.18 C1543.61,870.071 1543.16,869.821 1543.16,868.024 L1543.16,859.18 C1543.16,854.18 1545.41,850.977 1548.91,850.977 C1551.77,850.977 1553.16,853.133 1553.16,857.633 L1553.16,868.18 C1553.11,868.883 1553.07,869.227 1552.82,869.477 C1552.52,869.93 1551.52,870.133 1549.36,870.18 L1549.16,870.18 L1549.16,871.977 L1561.82,871.977 L1561.82,870.18 L1561.61,870.18 C1558.32,870.071 1557.86,869.821 1557.86,867.977 L1557.86,856.633 C1557.86,853.524 1557.57,852.477 1556.27,850.774 C1554.82,848.93 1552.77,847.93 1550.36,847.93 C1547.11,847.93 1544.71,849.477 1542.57,852.93 C1541.71,849.93 1539,847.93 1535.66,847.93 C1532.61,847.93 1530.41,849.383 1528.46,852.524 L1528.46,848.68 M1570.36,836.227 C1568.75,836.227 1567.46,837.524 1567.46,839.118 C1567.46,840.727 1568.75,842.024 1570.32,842.024 C1571.96,842.024 1573.25,840.727 1573.25,839.118 C1573.25,837.524 1571.96,836.227 1570.36,836.227 M1572.71,848.68 L1563.32,849.227 L1563.32,851.383 L1565.86,851.383 C1567.75,851.43 1568,851.727 1568,853.883 L1568,868.18 C1567.96,868.93 1567.91,869.227 1567.71,869.477 C1567.36,869.93 1566.41,870.133 1564.25,870.18 L1563.91,870.18 L1563.91,871.977 L1576.86,871.977 L1576.86,870.18 L1576.5,870.18 C1573.16,870.071 1572.71,869.821 1572.71,868.024 L1572.71,848.68 "/>
<path class="Lyrics" d="M1116.48,848.133 L1114.73,848.133 L1113.28,849.93 C1111.48,848.524 1109.69,847.93 1107.19,847.93 C1102.78,847.93 1099.89,850.774 1099.89,855.18 C1099.89,859.883 1102.94,861.071 1106.94,862.024 L1109.58,862.633 C1113.53,863.571 1114.94,864.571 1114.94,866.571 C1114.94,868.93 1112.89,870.571 1109.98,870.571 C1105.73,870.571 1102.73,867.883 1101.53,862.883 L1099.53,862.883 L1099.53,872.321 L1101.28,872.321 L1103.03,870.274 C1105.08,871.93 1107.33,872.727 1109.89,872.727 C1114.78,872.727 1118.03,869.68 1118.03,865.024 C1118.03,862.821 1117.33,861.133 1115.94,859.977 C1114.73,858.93 1113.73,858.524 1110.69,857.883 L1108.19,857.321 C1105.44,856.727 1105.44,856.727 1104.53,856.227 C1103.44,855.727 1102.78,854.68 1102.78,853.571 C1102.78,851.524 1104.69,850.133 1107.44,850.133 C1111.53,850.133 1113.53,853.024 1114.73,856.524 L1116.48,856.524 L1116.48,848.133 M1132.58,847.93 C1126.44,847.93 1121.69,853.383 1121.69,860.383 C1121.69,867.227 1126.48,872.727 1132.48,872.727 C1138.48,872.727 1143.28,867.227 1143.28,860.321 C1143.28,853.477 1138.48,847.93 1132.58,847.93 M1132.58,850.071 C1136.08,850.071 1138.03,853.727 1138.03,860.321 C1138.03,866.977 1136.08,870.571 1132.48,870.571 C1128.89,870.571 1126.94,866.977 1126.94,860.383 C1126.94,853.571 1128.83,850.071 1132.58,850.071 M1155.19,835.118 L1145.94,835.68 L1145.94,837.821 L1148.39,837.821 C1150.23,837.868 1150.48,838.18 1150.48,840.321 L1150.48,868.18 C1150.44,868.93 1150.39,869.227 1150.19,869.477 C1149.83,869.93 1148.89,870.133 1146.73,870.18 L1146.39,870.18 L1146.39,871.977 L1159.33,871.977 L1159.33,870.18 L1158.98,870.18 C1155.64,870.071 1155.19,869.821 1155.19,868.024 L1155.19,835.118 "/>
<path class="Lyrics" d="M1958.84,872.321 L1967.54,871.977 L1967.54,869.821 L1966.63,869.821 C1963.79,869.68 1963.54,869.383 1963.54,866.18 L1963.54,835.118 L1953.74,835.68 L1953.74,837.821 L1956.68,837.821 C1958.59,837.868 1958.84,838.18 1958.84,840.321 L1958.84,851.633 C1956.99,849.071 1954.84,847.93 1951.93,847.93 C1946.29,847.93 1941.99,853.383 1941.99,860.571 C1941.99,867.68 1946.13,872.727 1951.93,872.727 C1955.09,872.727 1957.24,871.383 1958.84,868.383 L1958.84,872.321 M1952.93,850.633 C1954.99,850.633 1956.93,852.133 1957.84,854.43 C1958.49,855.93 1958.79,857.977 1958.79,860.43 C1958.79,866.274 1956.49,870.024 1952.88,870.024 C1949.34,870.024 1947.24,866.727 1947.24,861.18 C1947.24,858.18 1947.54,855.93 1948.18,854.274 C1949.04,852.024 1950.88,850.633 1952.93,850.633 M1981.43,847.93 C1975.29,847.93 1970.54,853.383 1970.54,860.383 C1970.54,867.227 1975.34,872.727 1981.34,872.727 C1987.34,872.727 1992.13,867.227 1992.13,860.321 C1992.13,853.477 1987.34,847.93 1981.43,847.93 M1981.43,850.071 C1984.93,850.071 1986.88,853.727 1986.88,860.321 C1986.88,866.977 1984.93,870.571 1981.34,870.571 C1977.74,870.571 1975.79,866.977 1975.79,860.383 C1975.79,853.571 1977.68,850.071 1981.43,850.071"/>
<path class="StaffText" d="M496.074,326.195 C494.386,328.242 489.777,329.789 485.183,329.899 L485.183,332.039 L489.574,332.039 C492.48,332.102 492.777,332.399 492.683,335.195 L492.683,355.242 C492.683,357.805 492.683,357.899 492.386,358.352 C491.98,358.852 491.027,359.055 488.23,359.055 L484.98,359.055 L484.98,361.399 L504.777,361.399 L504.777,359.055 L502.027,359.055 C499.23,359.055 498.277,358.852 497.886,358.352 C497.527,357.899 497.527,357.852 497.527,355.242 L497.527,334.602 C497.527,331.789 497.636,329.445 497.886,326.195 L496.074,326.195 M524.527,345.695 L549.73,345.695 L549.73,341.695 L524.527,341.695 L524.527,345.695 M524.527,355.805 L549.73,355.805 L549.73,351.805 L524.527,351.805 L524.527,355.805 M584.886,324.602 L582.777,324.602 L571.277,353.742 C569.933,357.649 568.636,358.852 565.777,359.055 L565.574,359.055 L565.574,361.399 L578.824,361.399 L578.824,359.055 L577.824,359.055 C575.136,359.055 573.777,358.102 573.777,356.195 C573.777,355.555 573.933,354.945 574.23,354.102 L575.886,349.695 L589.136,349.695 L591.84,356.399 C592.136,357.195 592.23,357.492 592.23,357.742 C592.23,358.555 590.98,359.055 589.136,359.055 L587.027,359.055 L587.027,361.399 L602.527,361.399 L602.527,359.055 L601.84,359.055 C599.23,358.992 598.777,358.695 597.636,355.852 L584.886,324.602 M582.433,332.789 L588.074,346.992 L576.886,346.992 L582.433,332.789 M610.98,324.539 L602.386,325.102 L602.386,327.242 L604.136,327.242 C606.027,327.289 606.277,327.602 606.277,329.742 L606.277,349.195 C606.277,356.149 605.98,359.945 605.386,362.102 L607.277,362.102 L609.73,358.195 C611.777,360.899 614.136,362.149 617.23,362.149 C623.433,362.149 627.98,356.852 627.98,349.602 C627.98,342.399 623.777,337.352 617.777,337.352 C614.73,337.352 612.886,338.399 610.98,341.242 L610.98,324.539 M616.886,339.899 C620.636,339.899 622.73,343.555 622.73,350.102 C622.73,356.445 620.683,359.992 617.027,359.992 C613.074,359.992 610.73,356.352 610.73,350.195 C610.73,343.492 612.886,339.899 616.886,339.899"/>
<path class="Page" d="M2298.09,233.505 C2298.09,238.723 2297.88,249.505 2290.5,249.505 C2289.34,249.505 2288.69,249.13 2288.69,248.411 C2288.69,248.083 2288.8,247.755 2289.02,247.426 C2290,245.817 2290.11,245.489 2290.11,244.286 C2290.11,241.645 2288.25,239.833 2285.5,239.833 C2282.47,239.833 2280.27,242.145 2280.27,245.333 C2280.27,249.614 2284.28,252.364 2290.5,252.364 C2302.98,252.364 2307.77,241.255 2307.77,230.364 C2307.77,225.317 2306.67,221.567 2304.36,218.442 C2301.55,214.692 2297.55,212.661 2292.92,212.661 C2284.95,212.661 2279.17,218.223 2279.17,225.864 C2279.17,232.348 2283.8,237.13 2290.06,237.13 C2293.47,237.13 2295.78,236.083 2298.09,233.505 M2293.36,215.52 C2297.38,215.52 2297.88,222.286 2297.88,225.098 C2297.88,229.926 2296.11,233.005 2293.31,233.005 C2288.95,233.005 2288.69,227.739 2288.69,224.598 C2288.69,218.598 2290.28,215.52 2293.36,215.52"/>
<path class="Bracket" transform="matrix(3.596,0,0,4.11379,181.331,797.577)" d="M0.90625,-50 C2.70313,-51.9063 6.20313,-55.7969 6.20313,-63 C6.20313,-72.1094 2.29688,-81.3125 2.29688,-87 C2.29688,-93.1094 5.79688,-98.8125 6,-99 C6,-99.1094 6,-99.1094 6,-99.2031 C6,-99.3125 6,-99.4063 5.90625,-99.5 C5.79688,-99.5 5.59375,-99.5 5.5,-99.3125 C5.40625,-99.2031 0,-93.8125 0,-85.6094 C0,-76.8125 3.5,-70.6094 3.5,-59.1094 C3.5,-56.9063 2.59375,-53.4063 0.09375,-50.2969 C0,-50.2969 0,-50.1094 -0.09375,-50 C-0.09375,-49.9063 0,-49.7969 0.09375,-49.7031 C2.59375,-46.6094 3.5,-43.1094 3.5,-40.9063 C3.5,-29.4063 0,-23.2031 0,-14.4063 C0,-6.29688 5.40625,-0.796875 5.5,-0.703125 C5.59375,-0.5 5.79688,-0.40625 5.90625,-0.5 C6,-0.59375 6.09375,-0.703125 6,-0.796875 C6,-0.796875 6,-0.90625 6,-1 C5.79688,-1.20313 2.29688,-6.90625 2.29688,-13 C2.29688,-18.7031 6.20313,-27.9063 6.20313,-37 C6.20313,-44.2969 2.70313,-48.1094 0.90625,-50"/>
</svg>
