<?xml version="1.0" encoding="UTF-8" standalone="no"?>
<!DOCTYPE svg PUBLIC "-//W3C//DTD SVG 1.1//EN" "http://www.w3.org/Graphics/SVG/1.1/DTD/svg11.dtd">
<!-- 由 Microsoft Visio, SVG Export 生成 经济基础决定上层建筑.svg Page-1 -->
<svg xmlns="http://www.w3.org/2000/svg" xmlns:xlink="http://www.w3.org/1999/xlink" xmlns:ev="http://www.w3.org/2001/xml-events"
		xmlns:v="http://schemas.microsoft.com/visio/2003/SVGExtensions/" width="6.41245in" height="2.48449in"
		viewBox="0 0 461.697 178.883" xml:space="preserve" color-interpolation-filters="sRGB" class="st12">
	<v:documentProperties v:langID="2052" v:metric="true" v:viewMarkup="false">
		<v:userDefs>
			<v:ud v:nameU="msvSubprocessMaster" v:prompt="" v:val="VT4(Rectangle)"/>
			<v:ud v:nameU="msvNoAutoConnect" v:val="VT0(1):26"/>
		</v:userDefs>
	</v:documentProperties>

	<style type="text/css">
	<![CDATA[
		.st1 {visibility:visible}
		.st2 {fill:#5b9bd5;fill-opacity:0.22;filter:url(#filter_2);stroke:#5b9bd5;stroke-opacity:0.22}
		.st3 {fill:#5b9bd5;stroke:#c7c8c8;stroke-width:0.25}
		.st4 {fill:#feffff;font-family:黑体;font-size:0.833336em}
		.st5 {font-family:Calibri;font-size:1em}
		.st6 {marker-end:url(#mrkr4-26);stroke:#5b9bd5;stroke-linecap:round;stroke-linejoin:round;stroke-width:1}
		.st7 {fill:#5b9bd5;fill-opacity:1;stroke:#5b9bd5;stroke-opacity:1;stroke-width:0.28409090909091}
		.st8 {fill:none;stroke:none;stroke-width:0.25}
		.st9 {fill:#5b9bd5;font-family:黑体;font-size:1.00001em}
		.st10 {stroke:#5b9bd5;stroke-width:1}
		.st11 {stroke:#5b9bd5;stroke-linecap:round;stroke-linejoin:round;stroke-width:1}
		.st12 {fill:none;fill-rule:evenodd;font-size:12px;overflow:visible;stroke-linecap:square;stroke-miterlimit:3}
	]]>
	</style>

	<defs id="Markers">
		<g id="lend4">
			<path d="M 2 1 L 0 0 L 2 -1 L 2 1 " style="stroke:none"/>
		</g>
		<marker id="mrkr4-26" class="st7" v:arrowType="4" v:arrowSize="2" v:setback="7.04" refX="-7.04" orient="auto"
				markerUnits="strokeWidth" overflow="visible">
			<use xlink:href="#lend4" transform="scale(-3.52,-3.52) "/>
		</marker>
	</defs>
	<defs id="Filters">
		<filter id="filter_2">
			<feGaussianBlur stdDeviation="2"/>
		</filter>
	</defs>
	<g v:mID="0" v:index="1" v:groupContext="foregroundPage">
		<v:userDefs>
			<v:ud v:nameU="msvThemeOrder" v:val="VT0(0):26"/>
		</v:userDefs>
		<title>页-1</title>
		<v:pageProperties v:drawingScale="0.0393701" v:pageScale="0.0393701" v:drawingUnits="24" v:shadowOffsetX="8.50394"
				v:shadowOffsetY="-8.50394"/>
		<v:layer v:name="连接线" v:index="0"/>
		<g id="shape1-1" v:mID="1" v:groupContext="shape" transform="translate(18.2499,-25.9877)">
			<title>圆角矩形</title>
			<desc>生产力</desc>
			<v:userDefs>
				<v:ud v:nameU="CTypeTopLeftSnip" v:prompt="" v:val="VT0(0):5"/>
				<v:ud v:nameU="CTypeTopRightSnip" v:prompt="" v:val="VT0(0):5"/>
				<v:ud v:nameU="CTypeBotLeftSnip" v:prompt="" v:val="VT0(0):5"/>
				<v:ud v:nameU="CTypeBotRightSnip" v:prompt="" v:val="VT0(0):5"/>
				<v:ud v:nameU="CornerLockHoriz" v:prompt="" v:val="VT0(1):5"/>
				<v:ud v:nameU="CornerLockVert" v:prompt="" v:val="VT0(1):5"/>
				<v:ud v:nameU="CornerLockDiag" v:prompt="" v:val="VT0(0):5"/>
				<v:ud v:nameU="TopLeftOffset" v:prompt="" v:val="VT0(0.15748031496063):24"/>
				<v:ud v:nameU="TopRightOffset" v:prompt="" v:val="VT0(0.15748031496063):24"/>
				<v:ud v:nameU="BotLeftOffset" v:prompt="" v:val="VT0(0.15748031496063):24"/>
				<v:ud v:nameU="BotRightOffset" v:prompt="" v:val="VT0(0.15748031496063):24"/>
				<v:ud v:nameU="visVersion" v:prompt="" v:val="VT0(15):26"/>
				<v:ud v:nameU="TopLeftOffset" v:prompt="" v:val="VT0(0.073818930620089):1"/>
				<v:ud v:nameU="TopRightOffset" v:prompt="" v:val="VT0(0.073818930620089):1"/>
				<v:ud v:nameU="BotLeftOffset" v:prompt="" v:val="VT0(0.073818930620089):1"/>
				<v:ud v:nameU="BotRightOffset" v:prompt="" v:val="VT0(0.073818930620089):1"/>
			</v:userDefs>
			<v:textBlock v:margins="rect(4,4,4,4)" v:tabSpace="42.5197"/>
			<v:textRect cx="42.5197" cy="164.71" width="85.04" height="28.3465"/>
			<g id="shadow1-2" v:groupContext="shadow" v:shadowOffsetX="0.345598" v:shadowOffsetY="-1.97279" v:shadowType="1"
					transform="matrix(1,0,0,1,0.345598,1.97279)" class="st1">
				<path d="M5.31 178.88 L79.72 178.88 A5.31488 5.31488 -180 0 0 85.04 173.57 L85.04 155.85 A5.31488 5.31488 -180 0
							 0 79.72 150.54 L5.31 150.54 A5.31488 5.31488 -180 0 0 0 155.85 L0 173.57 A5.31488 5.31488 -180 0 0 5.31
							 178.88 Z" class="st2"/>
			</g>
			<path d="M5.31 178.88 L79.72 178.88 A5.31488 5.31488 -180 0 0 85.04 173.57 L85.04 155.85 A5.31488 5.31488 -180 0 0 79.72
						 150.54 L5.31 150.54 A5.31488 5.31488 -180 0 0 0 155.85 L0 173.57 A5.31488 5.31488 -180 0 0 5.31 178.88 Z"
					class="st3"/>
			<text x="27.52" y="168.04" class="st4" v:langID="2052"><v:paragraph v:horizAlign="1"/><v:tabList/>生产力</text>		</g>
		<g id="shape2-7" v:mID="2" v:groupContext="shape" transform="translate(216.675,-111.027)">
			<title>圆角矩形.2</title>
			<desc>上层建筑</desc>
			<v:userDefs>
				<v:ud v:nameU="CTypeTopLeftSnip" v:prompt="" v:val="VT0(0):5"/>
				<v:ud v:nameU="CTypeTopRightSnip" v:prompt="" v:val="VT0(0):5"/>
				<v:ud v:nameU="CTypeBotLeftSnip" v:prompt="" v:val="VT0(0):5"/>
				<v:ud v:nameU="CTypeBotRightSnip" v:prompt="" v:val="VT0(0):5"/>
				<v:ud v:nameU="CornerLockHoriz" v:prompt="" v:val="VT0(1):5"/>
				<v:ud v:nameU="CornerLockVert" v:prompt="" v:val="VT0(1):5"/>
				<v:ud v:nameU="CornerLockDiag" v:prompt="" v:val="VT0(0):5"/>
				<v:ud v:nameU="TopLeftOffset" v:prompt="" v:val="VT0(0.15748031496063):24"/>
				<v:ud v:nameU="TopRightOffset" v:prompt="" v:val="VT0(0.15748031496063):24"/>
				<v:ud v:nameU="BotLeftOffset" v:prompt="" v:val="VT0(0.15748031496063):24"/>
				<v:ud v:nameU="BotRightOffset" v:prompt="" v:val="VT0(0.15748031496063):24"/>
				<v:ud v:nameU="visVersion" v:prompt="" v:val="VT0(15):26"/>
				<v:ud v:nameU="TopLeftOffset" v:prompt="" v:val="VT0(0.098425243967959):24"/>
				<v:ud v:nameU="TopRightOffset" v:prompt="" v:val="VT0(0.098425243967959):24"/>
				<v:ud v:nameU="BotLeftOffset" v:prompt="" v:val="VT0(0.098425243967959):24"/>
				<v:ud v:nameU="BotRightOffset" v:prompt="" v:val="VT0(0.098425243967959):24"/>
			</v:userDefs>
			<v:textBlock v:margins="rect(4,4,4,4)" v:tabSpace="42.5197"/>
			<v:textRect cx="42.5197" cy="164.71" width="85.04" height="28.3465"/>
			<g id="shadow2-8" v:groupContext="shadow" v:shadowOffsetX="0.345598" v:shadowOffsetY="-1.97279" v:shadowType="1"
					transform="matrix(1,0,0,1,0.345598,1.97279)" class="st1">
				<path d="M7.09 178.88 L77.95 178.88 A7.0865 7.0865 -180 0 0 85.04 171.8 L85.04 157.62 A7.0865 7.0865 -180 0 0 77.95
							 150.54 L7.09 150.54 A7.0865 7.0865 -180 0 0 0 157.62 L0 171.8 A7.0865 7.0865 -180 0 0 7.09 178.88 Z"
						class="st2"/>
			</g>
			<path d="M7.09 178.88 L77.95 178.88 A7.0865 7.0865 -180 0 0 85.04 171.8 L85.04 157.62 A7.0865 7.0865 -180 0 0 77.95 150.54
						 L7.09 150.54 A7.0865 7.0865 -180 0 0 0 157.62 L0 171.8 A7.0865 7.0865 -180 0 0 7.09 178.88 Z" class="st3"/>
			<text x="22.52" y="168.04" class="st4" v:langID="2052"><v:paragraph v:horizAlign="1"/><v:tabList/>上层建筑</text>		</g>
		<g id="shape3-13" v:mID="3" v:groupContext="shape" transform="translate(174.155,-25.9877)">
			<title>圆角矩形.3</title>
			<desc>生产关系 · 经济基础</desc>
			<v:userDefs>
				<v:ud v:nameU="CTypeTopLeftSnip" v:prompt="" v:val="VT0(0):5"/>
				<v:ud v:nameU="CTypeTopRightSnip" v:prompt="" v:val="VT0(0):5"/>
				<v:ud v:nameU="CTypeBotLeftSnip" v:prompt="" v:val="VT0(0):5"/>
				<v:ud v:nameU="CTypeBotRightSnip" v:prompt="" v:val="VT0(0):5"/>
				<v:ud v:nameU="CornerLockHoriz" v:prompt="" v:val="VT0(1):5"/>
				<v:ud v:nameU="CornerLockVert" v:prompt="" v:val="VT0(1):5"/>
				<v:ud v:nameU="CornerLockDiag" v:prompt="" v:val="VT0(0):5"/>
				<v:ud v:nameU="TopLeftOffset" v:prompt="" v:val="VT0(0.15748031496063):24"/>
				<v:ud v:nameU="TopRightOffset" v:prompt="" v:val="VT0(0.15748031496063):24"/>
				<v:ud v:nameU="BotLeftOffset" v:prompt="" v:val="VT0(0.15748031496063):24"/>
				<v:ud v:nameU="BotRightOffset" v:prompt="" v:val="VT0(0.15748031496063):24"/>
				<v:ud v:nameU="visVersion" v:prompt="" v:val="VT0(15):26"/>
				<v:ud v:nameU="TopLeftOffset" v:prompt="" v:val="VT0(0.11072839907131):1"/>
				<v:ud v:nameU="TopRightOffset" v:prompt="" v:val="VT0(0.11072839907131):1"/>
				<v:ud v:nameU="BotLeftOffset" v:prompt="" v:val="VT0(0.11072839907131):1"/>
				<v:ud v:nameU="BotRightOffset" v:prompt="" v:val="VT0(0.11072839907131):1"/>
			</v:userDefs>
			<v:textBlock v:margins="rect(4,4,4,4)" v:tabSpace="42.5197"/>
			<v:textRect cx="63.7795" cy="164.71" width="127.56" height="28.3465"/>
			<g id="shadow3-14" v:groupContext="shadow" v:shadowOffsetX="0.345598" v:shadowOffsetY="-1.97279" v:shadowType="1"
					transform="matrix(1,0,0,1,0.345598,1.97279)" class="st1">
				<path d="M7.97 178.88 L119.59 178.88 A7.97231 7.97231 -180 0 0 127.56 170.91 L127.56 158.51 A7.97231 7.97231 -180
							 0 0 119.59 150.54 L7.97 150.54 A7.97231 7.97231 -180 0 0 0 158.51 L0 170.91 A7.97231 7.97231 -180 0
							 0 7.97 178.88 Z" class="st2"/>
			</g>
			<path d="M7.97 178.88 L119.59 178.88 A7.97231 7.97231 -180 0 0 127.56 170.91 L127.56 158.51 A7.97231 7.97231 -180 0 0
						 119.59 150.54 L7.97 150.54 A7.97231 7.97231 -180 0 0 0 158.51 L0 170.91 A7.97231 7.97231 -180 0 0 7.97 178.88
						 Z" class="st3"/>
			<text x="20.26" y="168.04" class="st4" v:langID="2052"><v:paragraph v:horizAlign="1"/><v:tabList/>生产关系<tspan
						class="st5"> </tspan><tspan class="st5">· </tspan>经济基础</text>		</g>
		<g id="shape5-21" v:mID="5" v:groupContext="shape" v:layerMember="0" transform="translate(103.289,-35.909)">
			<title>动态连接线</title>
			<path d="M0 171.8 L63.83 171.8" class="st6"/>
		</g>
		<g id="shape6-27" v:mID="6" v:groupContext="shape" v:layerMember="0" transform="translate(174.155,-44.4129)">
			<title>动态连接线.6</title>
			<path d="M0 185.97 L-63.83 185.97" class="st6"/>
		</g>
		<g id="shape7-32" v:mID="7" v:groupContext="shape" v:layerMember="0" transform="translate(263.447,-54.3342)">
			<title>动态连接线.7</title>
			<path d="M-7.09 178.88 L-7.09 129.23" class="st6"/>
		</g>
		<g id="shape8-37" v:mID="8" v:groupContext="shape" v:layerMember="0" transform="translate(269.116,-111.027)">
			<title>动态连接线.8</title>
			<path d="M-7.09 178.88 L-7.09 228.54" class="st6"/>
		</g>
		<g id="shape9-42" v:mID="9" v:groupContext="shape" transform="translate(216.675,-75.594)">
			<title>工作表.9</title>
			<desc>决定</desc>
			<v:textBlock v:margins="rect(4,4,4,4)" v:tabSpace="42.5197"/>
			<v:textRect cx="21.2598" cy="171.797" width="42.52" height="14.1732"/>
			<rect x="0" y="164.71" width="42.5197" height="14.1732" class="st8"/>
			<text x="9.26" y="175.79" class="st9" v:langID="2052"><v:paragraph v:horizAlign="1"/><v:tabList/>决定</text>		</g>
		<g id="shape10-45" v:mID="10" v:groupContext="shape" transform="translate(259.195,-75.594)">
			<title>工作表.10</title>
			<desc>反作用</desc>
			<v:textBlock v:margins="rect(4,4,4,4)" v:tabSpace="42.5197"/>
			<v:textRect cx="28.3465" cy="171.797" width="56.7" height="14.1732"/>
			<rect x="0" y="164.71" width="56.6929" height="14.1732" class="st8"/>
			<text x="10.35" y="175.79" class="st9" v:langID="2052"><v:paragraph v:horizAlign="1"/><v:tabList/>反作用</text>		</g>
		<g id="shape11-48" v:mID="11" v:groupContext="shape" transform="translate(117.463,-47.2476)">
			<title>工作表.11</title>
			<desc>决定</desc>
			<v:textBlock v:margins="rect(4,4,4,4)" v:tabSpace="42.5197"/>
			<v:textRect cx="21.2598" cy="171.797" width="42.52" height="14.1732"/>
			<rect x="0" y="164.71" width="42.5197" height="14.1732" class="st8"/>
			<text x="9.26" y="175.79" class="st9" v:langID="2052"><v:paragraph v:horizAlign="1"/><v:tabList/>决定</text>		</g>
		<g id="shape12-51" v:mID="12" v:groupContext="shape" transform="translate(110.376,-18.9011)">
			<title>工作表.12</title>
			<desc>反作用</desc>
			<v:textBlock v:margins="rect(4,4,4,4)" v:tabSpace="42.5197"/>
			<v:textRect cx="28.3465" cy="171.797" width="56.7" height="14.1732"/>
			<rect x="0" y="164.71" width="56.6929" height="14.1732" class="st8"/>
			<text x="10.35" y="175.79" class="st9" v:langID="2052"><v:paragraph v:horizAlign="1"/><v:tabList/>反作用</text>		</g>
		<g id="shape13-54" v:mID="13" v:groupContext="shape" transform="translate(308.801,-103.94)">
			<title>左圆括号</title>
			<v:userDefs>
				<v:ud v:nameU="visVersion" v:prompt="" v:val="VT0(15):26"/>
			</v:userDefs>
			<path d="M7.09 178.88 A7.56274 5.67206 0 0 1 0 174.63 L0 140.62 A7.56274 5.67206 0 0 1 7.09 136.36" class="st10"/>
		</g>
		<g id="shape14-57" v:mID="14" v:groupContext="shape" transform="translate(315.888,-132.287)">
			<title>圆角矩形.14</title>
			<desc>意识形态</desc>
			<v:userDefs>
				<v:ud v:nameU="CTypeTopLeftSnip" v:prompt="" v:val="VT0(0):5"/>
				<v:ud v:nameU="CTypeTopRightSnip" v:prompt="" v:val="VT0(0):5"/>
				<v:ud v:nameU="CTypeBotLeftSnip" v:prompt="" v:val="VT0(0):5"/>
				<v:ud v:nameU="CTypeBotRightSnip" v:prompt="" v:val="VT0(0):5"/>
				<v:ud v:nameU="CornerLockHoriz" v:prompt="" v:val="VT0(1):5"/>
				<v:ud v:nameU="CornerLockVert" v:prompt="" v:val="VT0(1):5"/>
				<v:ud v:nameU="CornerLockDiag" v:prompt="" v:val="VT0(0):5"/>
				<v:ud v:nameU="TopLeftOffset" v:prompt="" v:val="VT0(0.15748031496063):24"/>
				<v:ud v:nameU="TopRightOffset" v:prompt="" v:val="VT0(0.15748031496063):24"/>
				<v:ud v:nameU="BotLeftOffset" v:prompt="" v:val="VT0(0.15748031496063):24"/>
				<v:ud v:nameU="BotRightOffset" v:prompt="" v:val="VT0(0.15748031496063):24"/>
				<v:ud v:nameU="visVersion" v:prompt="" v:val="VT0(15):26"/>
				<v:ud v:nameU="TopLeftOffset" v:prompt="" v:val="VT0(0.098425243967959):24"/>
				<v:ud v:nameU="TopRightOffset" v:prompt="" v:val="VT0(0.098425243967959):24"/>
				<v:ud v:nameU="BotLeftOffset" v:prompt="" v:val="VT0(0.098425243967959):24"/>
				<v:ud v:nameU="BotRightOffset" v:prompt="" v:val="VT0(0.098425243967959):24"/>
			</v:userDefs>
			<v:textBlock v:margins="rect(4,4,4,4)" v:tabSpace="42.5197"/>
			<v:textRect cx="42.5197" cy="164.71" width="85.04" height="28.3465"/>
			<g id="shadow14-58" v:groupContext="shadow" v:shadowOffsetX="0.345598" v:shadowOffsetY="-1.97279" v:shadowType="1"
					transform="matrix(1,0,0,1,0.345598,1.97279)" class="st1">
				<path d="M7.09 178.88 L77.95 178.88 A7.0865 7.0865 -180 0 0 85.04 171.8 L85.04 157.62 A7.0865 7.0865 -180 0 0 77.95
							 150.54 L7.09 150.54 A7.0865 7.0865 -180 0 0 0 157.62 L0 171.8 A7.0865 7.0865 -180 0 0 7.09 178.88 Z"
						class="st2"/>
			</g>
			<path d="M7.09 178.88 L77.95 178.88 A7.0865 7.0865 -180 0 0 85.04 171.8 L85.04 157.62 A7.0865 7.0865 -180 0 0 77.95 150.54
						 L7.09 150.54 A7.0865 7.0865 -180 0 0 0 157.62 L0 171.8 A7.0865 7.0865 -180 0 0 7.09 178.88 Z" class="st3"/>
			<text x="22.52" y="168.04" class="st4" v:langID="2052"><v:paragraph v:horizAlign="1"/><v:tabList/>意识形态</text>		</g>
		<g id="shape15-63" v:mID="15" v:groupContext="shape" transform="translate(315.888,-89.7672)">
			<title>圆角矩形.15</title>
			<desc>制度、组织和设施</desc>
			<v:userDefs>
				<v:ud v:nameU="CTypeTopLeftSnip" v:prompt="" v:val="VT0(0):5"/>
				<v:ud v:nameU="CTypeTopRightSnip" v:prompt="" v:val="VT0(0):5"/>
				<v:ud v:nameU="CTypeBotLeftSnip" v:prompt="" v:val="VT0(0):5"/>
				<v:ud v:nameU="CTypeBotRightSnip" v:prompt="" v:val="VT0(0):5"/>
				<v:ud v:nameU="CornerLockHoriz" v:prompt="" v:val="VT0(1):5"/>
				<v:ud v:nameU="CornerLockVert" v:prompt="" v:val="VT0(1):5"/>
				<v:ud v:nameU="CornerLockDiag" v:prompt="" v:val="VT0(0):5"/>
				<v:ud v:nameU="TopLeftOffset" v:prompt="" v:val="VT0(0.15748031496063):24"/>
				<v:ud v:nameU="TopRightOffset" v:prompt="" v:val="VT0(0.15748031496063):24"/>
				<v:ud v:nameU="BotLeftOffset" v:prompt="" v:val="VT0(0.15748031496063):24"/>
				<v:ud v:nameU="BotRightOffset" v:prompt="" v:val="VT0(0.15748031496063):24"/>
				<v:ud v:nameU="visVersion" v:prompt="" v:val="VT0(15):26"/>
				<v:ud v:nameU="TopLeftOffset" v:prompt="" v:val="VT0(0.11072839907131):1"/>
				<v:ud v:nameU="TopRightOffset" v:prompt="" v:val="VT0(0.11072839907131):1"/>
				<v:ud v:nameU="BotLeftOffset" v:prompt="" v:val="VT0(0.11072839907131):1"/>
				<v:ud v:nameU="BotRightOffset" v:prompt="" v:val="VT0(0.11072839907131):1"/>
			</v:userDefs>
			<v:textBlock v:margins="rect(4,4,4,4)" v:tabSpace="42.5197"/>
			<v:textRect cx="63.7795" cy="164.71" width="127.56" height="28.3465"/>
			<g id="shadow15-64" v:groupContext="shadow" v:shadowOffsetX="0.345598" v:shadowOffsetY="-1.97279" v:shadowType="1"
					transform="matrix(1,0,0,1,0.345598,1.97279)" class="st1">
				<path d="M7.97 178.88 L119.59 178.88 A7.97231 7.97231 -180 0 0 127.56 170.91 L127.56 158.51 A7.97231 7.97231 -180
							 0 0 119.59 150.54 L7.97 150.54 A7.97231 7.97231 -180 0 0 0 158.51 L0 170.91 A7.97231 7.97231 -180 0
							 0 7.97 178.88 Z" class="st2"/>
			</g>
			<path d="M7.97 178.88 L119.59 178.88 A7.97231 7.97231 -180 0 0 127.56 170.91 L127.56 158.51 A7.97231 7.97231 -180 0 0
						 119.59 150.54 L7.97 150.54 A7.97231 7.97231 -180 0 0 0 158.51 L0 170.91 A7.97231 7.97231 -180 0 0 7.97 178.88
						 Z" class="st3"/>
			<text x="23.78" y="168.04" class="st4" v:langID="2052"><v:paragraph v:horizAlign="1"/><v:tabList/>制度、组织和设施</text>		</g>
		<g id="shape16-69" v:mID="16" v:groupContext="shape" transform="translate(301.714,-125.2)">
			<title>工作表.16</title>
			<path d="M0 178.88 L7.09 178.88" class="st11"/>
		</g>
	</g>
</svg>
