<?xml version="1.0" encoding="UTF-8" standalone="no"?>
<svg width="2520px" height="1008px" viewBox="0 0 2520 1008"
 xmlns="http://www.w3.org/2000/svg" xmlns:xlink="http://www.w3.org/1999/xlink" version="1.2" baseProfile="tiny">
<title>大调调性 (6)</title>
<desc>Generated by MuseScore Studio 4.4.4</desc>
<path class="" fill="#ffffff" fill-rule="evenodd" d="M0,0 L2520,0 L2520,1008 L0,1008 L0,0 "/>
<polyline class="StaffLines" fill="none" stroke="#000000" stroke-width="2.73" stroke-linejoin="bevel" points="212.598,386.199 2307.8,386.199"/>
<polyline class="StaffLines" fill="none" stroke="#000000" stroke-width="2.73" stroke-linejoin="bevel" points="212.598,410.999 2307.8,410.999"/>
<polyline class="StaffLines" fill="none" stroke="#000000" stroke-width="2.73" stroke-linejoin="bevel" points="212.598,435.799 2307.8,435.799"/>
<polyline class="StaffLines" fill="none" stroke="#000000" stroke-width="2.73" stroke-linejoin="bevel" points="212.598,460.599 2307.8,460.599"/>
<polyline class="StaffLines" fill="none" stroke="#000000" stroke-width="2.73" stroke-linejoin="bevel" points="212.598,485.399 2307.8,485.399"/>
<polyline class="StaffLines" fill="none" stroke="#000000" stroke-width="2.73" stroke-linejoin="bevel" points="212.598,698.377 2307.8,698.377"/>
<polyline class="StaffLines" fill="none" stroke="#000000" stroke-width="2.73" stroke-linejoin="bevel" points="212.598,723.177 2307.8,723.177"/>
<polyline class="StaffLines" fill="none" stroke="#000000" stroke-width="2.73" stroke-linejoin="bevel" points="212.598,747.977 2307.8,747.977"/>
<polyline class="StaffLines" fill="none" stroke="#000000" stroke-width="2.73" stroke-linejoin="bevel" points="212.598,772.777 2307.8,772.777"/>
<polyline class="StaffLines" fill="none" stroke="#000000" stroke-width="2.73" stroke-linejoin="bevel" points="212.598,797.577 2307.8,797.577"/>
<path class="MeasureNumber" d="M234.083,308.286 L231.911,308.286 L213.286,327.567 L213.286,329.239 L224.551,329.239 L223.911,331.677 C223.114,334.724 223.114,334.724 219.63,334.724 L218.911,334.724 L218.676,336.599 L231.114,336.599 L231.317,334.724 L230.598,334.724 C227.958,334.724 227.395,334.52 227.395,333.645 C227.395,333.317 227.473,332.927 227.801,331.677 L228.473,329.239 L233.036,329.239 L233.63,327.083 L229.036,327.083 L234.083,308.286 M225.161,327.083 L216.192,327.083 L228.551,314.364 L225.161,327.083 M253.958,308.286 L252.801,308.286 C250.598,309.927 246.364,311.317 243.473,311.317 L243.005,313.083 L245.755,313.083 C248.192,313.083 248.473,313.161 248.473,313.88 C248.473,314.239 248.473,314.239 248.083,315.677 L243.801,331.677 C243.27,333.677 243.239,333.802 242.88,334.161 C242.473,334.552 241.63,334.677 239.52,334.724 L237.801,334.724 L237.598,336.599 L252.395,336.599 L252.63,334.724 L250.473,334.724 C247.88,334.724 247.317,334.52 247.317,333.645 C247.317,333.364 247.473,332.442 247.676,331.677 L253.958,308.286 "/>
<polyline class="BarLine" fill="none" stroke="#000000" stroke-width="4.46" stroke-linejoin="bevel" points="1303.85,384.835 1303.85,698.377"/>
<polyline class="BarLine" fill="none" stroke="#000000" stroke-width="4.46" stroke-linejoin="bevel" points="1743.26,384.835 1743.26,698.377"/>
<polyline class="BarLine" fill="none" stroke="#000000" stroke-width="4.46" stroke-linejoin="bevel" points="214.83,384.835 214.83,698.377"/>
<polyline class="BarLine" fill="none" stroke="#000000" stroke-width="4.46" stroke-linejoin="bevel" points="644.745,384.835 644.745,698.377"/>
<polyline class="BarLine" fill="none" stroke="#000000" stroke-width="4.46" stroke-linejoin="bevel" points="1523.56,384.835 1523.56,698.377"/>
<polyline class="BarLine" fill="none" stroke="#000000" stroke-width="4.46" stroke-linejoin="bevel" points="1084.15,384.835 1084.15,698.377"/>
<polyline class="BarLine" fill="none" stroke="#000000" stroke-width="4.46" stroke-linejoin="bevel" points="2182.67,384.835 2182.67,698.377"/>
<polyline class="BarLine" fill="none" stroke="#000000" stroke-width="13.64" stroke-linejoin="bevel" points="2200.89,384.835 2200.89,698.377"/>
<polyline class="BarLine" fill="none" stroke="#000000" stroke-width="4.46" stroke-linejoin="bevel" points="1962.96,384.835 1962.96,698.377"/>
<polyline class="BarLine" fill="none" stroke="#000000" stroke-width="4.46" stroke-linejoin="bevel" points="864.448,384.835 864.448,698.377"/>
<polyline class="BarLine" fill="none" stroke="#000000" stroke-width="4.46" stroke-linejoin="bevel" points="1743.26,697.013 1743.26,798.941"/>
<polyline class="BarLine" fill="none" stroke="#000000" stroke-width="4.46" stroke-linejoin="bevel" points="214.83,697.013 214.83,798.941"/>
<polyline class="BarLine" fill="none" stroke="#000000" stroke-width="4.46" stroke-linejoin="bevel" points="1084.15,697.013 1084.15,798.941"/>
<polyline class="BarLine" fill="none" stroke="#000000" stroke-width="4.46" stroke-linejoin="bevel" points="2182.67,697.013 2182.67,798.941"/>
<polyline class="BarLine" fill="none" stroke="#000000" stroke-width="13.64" stroke-linejoin="bevel" points="2200.89,697.013 2200.89,798.941"/>
<polyline class="BarLine" fill="none" stroke="#000000" stroke-width="4.46" stroke-linejoin="bevel" points="864.448,697.013 864.448,798.941"/>
<polyline class="BarLine" fill="none" stroke="#000000" stroke-width="4.46" stroke-linejoin="bevel" points="1523.56,697.013 1523.56,798.941"/>
<polyline class="BarLine" fill="none" stroke="#000000" stroke-width="4.46" stroke-linejoin="bevel" points="1962.96,697.013 1962.96,798.941"/>
<polyline class="BarLine" fill="none" stroke="#000000" stroke-width="4.46" stroke-linejoin="bevel" points="1303.85,697.013 1303.85,798.941"/>
<polyline class="BarLine" fill="none" stroke="#000000" stroke-width="4.46" stroke-linejoin="bevel" points="644.745,697.013 644.745,798.941"/>
<polyline class="LedgerLine" fill="none" stroke="#000000" stroke-width="3.97" stroke-linejoin="bevel" points="1988.01,361.399 2041.38,361.399"/>
<polyline class="LedgerLine" fill="none" stroke="#000000" stroke-width="3.97" stroke-linejoin="bevel" points="1109.2,673.577 1162.57,673.577"/>
<polyline class="LedgerLine" fill="none" stroke="#000000" stroke-width="3.97" stroke-linejoin="bevel" points="450.09,648.777 503.456,648.777"/>
<polyline class="LedgerLine" fill="none" stroke="#000000" stroke-width="3.97" stroke-linejoin="bevel" points="450.09,673.577 503.456,673.577"/>
<polyline class="LedgerLine" fill="none" stroke="#000000" stroke-width="3.97" stroke-linejoin="bevel" points="669.793,623.977 723.159,623.977"/>
<polyline class="LedgerLine" fill="none" stroke="#000000" stroke-width="3.97" stroke-linejoin="bevel" points="669.793,648.777 723.159,648.777"/>
<polyline class="LedgerLine" fill="none" stroke="#000000" stroke-width="3.97" stroke-linejoin="bevel" points="669.793,673.577 723.159,673.577"/>
<polyline class="LedgerLine" fill="none" stroke="#000000" stroke-width="3.97" stroke-linejoin="bevel" points="889.496,648.777 942.862,648.777"/>
<polyline class="LedgerLine" fill="none" stroke="#000000" stroke-width="3.97" stroke-linejoin="bevel" points="889.496,673.577 942.862,673.577"/>
<polyline class="LedgerLine" fill="none" stroke="#000000" stroke-width="3.97" stroke-linejoin="bevel" points="1109.2,648.777 1162.57,648.777"/>
<polyline class="LedgerLine" fill="none" stroke="#000000" stroke-width="3.97" stroke-linejoin="bevel" points="450.09,623.977 503.456,623.977"/>
<polyline class="LedgerLine" fill="none" stroke="#000000" stroke-width="3.97" stroke-linejoin="bevel" points="1328.9,673.577 1382.27,673.577"/>
<polyline class="LedgerLine" fill="none" stroke="#000000" stroke-width="3.97" stroke-linejoin="bevel" points="1548.61,673.577 1601.97,673.577"/>
<path class="Note" transform="matrix(0.992001,0,0,0.992001,897.68,423.399)" d="M18.7031,-13.5938 C4.90625,-13.5938 0,-6.59375 0,-0.09375 C0,6.40625 4.90625,13.4063 18.7031,13.4063 C32.5,13.4063 37.2969,6.40625 37.2969,-0.09375 C37.2969,-6.59375 32.5,-13.5938 18.7031,-13.5938 M19.5,10.2031 C16.7031,10.2031 14.7969,9.40625 13.5,6.90625 C12.2031,4.40625 10.4063,-2.09375 10.2969,-4.70313 C10.0938,-7.40625 11.0938,-9 13.5,-9.79688 C14.7031,-10.2031 16.2969,-10.4063 17.9063,-10.4063 C20.5938,-10.4063 22.4063,-9.79688 23.7969,-7.09375 C25.2031,-4.5 27.1094,2 27.1094,4.5 C27.1094,9.40625 23.5,10.2031 19.5,10.2031"/>
<path class="Note" transform="matrix(0.992001,0,0,0.992001,1117.38,410.999)" d="M18.7031,-13.5938 C4.90625,-13.5938 0,-6.59375 0,-0.09375 C0,6.40625 4.90625,13.4063 18.7031,13.4063 C32.5,13.4063 37.2969,6.40625 37.2969,-0.09375 C37.2969,-6.59375 32.5,-13.5938 18.7031,-13.5938 M19.5,10.2031 C16.7031,10.2031 14.7969,9.40625 13.5,6.90625 C12.2031,4.40625 10.4063,-2.09375 10.2969,-4.70313 C10.0938,-7.40625 11.0938,-9 13.5,-9.79688 C14.7031,-10.2031 16.2969,-10.4063 17.9063,-10.4063 C20.5938,-10.4063 22.4063,-9.79688 23.7969,-7.09375 C25.2031,-4.5 27.1094,2 27.1094,4.5 C27.1094,9.40625 23.5,10.2031 19.5,10.2031"/>
<path class="Note" transform="matrix(0.992001,0,0,0.992001,1337.09,398.599)" d="M18.7031,-13.5938 C4.90625,-13.5938 0,-6.59375 0,-0.09375 C0,6.40625 4.90625,13.4063 18.7031,13.4063 C32.5,13.4063 37.2969,6.40625 37.2969,-0.09375 C37.2969,-6.59375 32.5,-13.5938 18.7031,-13.5938 M19.5,10.2031 C16.7031,10.2031 14.7969,9.40625 13.5,6.90625 C12.2031,4.40625 10.4063,-2.09375 10.2969,-4.70313 C10.0938,-7.40625 11.0938,-9 13.5,-9.79688 C14.7031,-10.2031 16.2969,-10.4063 17.9063,-10.4063 C20.5938,-10.4063 22.4063,-9.79688 23.7969,-7.09375 C25.2031,-4.5 27.1094,2 27.1094,4.5 C27.1094,9.40625 23.5,10.2031 19.5,10.2031"/>
<path class="Note" transform="matrix(0.992001,0,0,0.992001,458.274,448.199)" d="M18.7031,-13.5938 C4.90625,-13.5938 0,-6.59375 0,-0.09375 C0,6.40625 4.90625,13.4063 18.7031,13.4063 C32.5,13.4063 37.2969,6.40625 37.2969,-0.09375 C37.2969,-6.59375 32.5,-13.5938 18.7031,-13.5938 M19.5,10.2031 C16.7031,10.2031 14.7969,9.40625 13.5,6.90625 C12.2031,4.40625 10.4063,-2.09375 10.2969,-4.70313 C10.0938,-7.40625 11.0938,-9 13.5,-9.79688 C14.7031,-10.2031 16.2969,-10.4063 17.9063,-10.4063 C20.5938,-10.4063 22.4063,-9.79688 23.7969,-7.09375 C25.2031,-4.5 27.1094,2 27.1094,4.5 C27.1094,9.40625 23.5,10.2031 19.5,10.2031"/>
<path class="Note" transform="matrix(0.992001,0,0,0.992001,677.977,435.799)" d="M18.7031,-13.5938 C4.90625,-13.5938 0,-6.59375 0,-0.09375 C0,6.40625 4.90625,13.4063 18.7031,13.4063 C32.5,13.4063 37.2969,6.40625 37.2969,-0.09375 C37.2969,-6.59375 32.5,-13.5938 18.7031,-13.5938 M19.5,10.2031 C16.7031,10.2031 14.7969,9.40625 13.5,6.90625 C12.2031,4.40625 10.4063,-2.09375 10.2969,-4.70313 C10.0938,-7.40625 11.0938,-9 13.5,-9.79688 C14.7031,-10.2031 16.2969,-10.4063 17.9063,-10.4063 C20.5938,-10.4063 22.4063,-9.79688 23.7969,-7.09375 C25.2031,-4.5 27.1094,2 27.1094,4.5 C27.1094,9.40625 23.5,10.2031 19.5,10.2031"/>
<path class="Note" transform="matrix(0.992001,0,0,0.992001,1776.49,373.799)" d="M18.7031,-13.5938 C4.90625,-13.5938 0,-6.59375 0,-0.09375 C0,6.40625 4.90625,13.4063 18.7031,13.4063 C32.5,13.4063 37.2969,6.40625 37.2969,-0.09375 C37.2969,-6.59375 32.5,-13.5938 18.7031,-13.5938 M19.5,10.2031 C16.7031,10.2031 14.7969,9.40625 13.5,6.90625 C12.2031,4.40625 10.4063,-2.09375 10.2969,-4.70313 C10.0938,-7.40625 11.0938,-9 13.5,-9.79688 C14.7031,-10.2031 16.2969,-10.4063 17.9063,-10.4063 C20.5938,-10.4063 22.4063,-9.79688 23.7969,-7.09375 C25.2031,-4.5 27.1094,2 27.1094,4.5 C27.1094,9.40625 23.5,10.2031 19.5,10.2031"/>
<path class="Note" transform="matrix(0.992001,0,0,0.992001,1556.79,386.199)" d="M18.7031,-13.5938 C4.90625,-13.5938 0,-6.59375 0,-0.09375 C0,6.40625 4.90625,13.4063 18.7031,13.4063 C32.5,13.4063 37.2969,6.40625 37.2969,-0.09375 C37.2969,-6.59375 32.5,-13.5938 18.7031,-13.5938 M19.5,10.2031 C16.7031,10.2031 14.7969,9.40625 13.5,6.90625 C12.2031,4.40625 10.4063,-2.09375 10.2969,-4.70313 C10.0938,-7.40625 11.0938,-9 13.5,-9.79688 C14.7031,-10.2031 16.2969,-10.4063 17.9063,-10.4063 C20.5938,-10.4063 22.4063,-9.79688 23.7969,-7.09375 C25.2031,-4.5 27.1094,2 27.1094,4.5 C27.1094,9.40625 23.5,10.2031 19.5,10.2031"/>
<path class="Note" transform="matrix(0.992001,0,0,0.992001,1996.2,361.399)" d="M18.7031,-13.5938 C4.90625,-13.5938 0,-6.59375 0,-0.09375 C0,6.40625 4.90625,13.4063 18.7031,13.4063 C32.5,13.4063 37.2969,6.40625 37.2969,-0.09375 C37.2969,-6.59375 32.5,-13.5938 18.7031,-13.5938 M19.5,10.2031 C16.7031,10.2031 14.7969,9.40625 13.5,6.90625 C12.2031,4.40625 10.4063,-2.09375 10.2969,-4.70313 C10.0938,-7.40625 11.0938,-9 13.5,-9.79688 C14.7031,-10.2031 16.2969,-10.4063 17.9063,-10.4063 C20.5938,-10.4063 22.4063,-9.79688 23.7969,-7.09375 C25.2031,-4.5 27.1094,2 27.1094,4.5 C27.1094,9.40625 23.5,10.2031 19.5,10.2031"/>
<path class="Note" transform="matrix(0.992001,0,0,0.992001,1556.79,673.577)" d="M18.7031,-13.5938 C4.90625,-13.5938 0,-6.59375 0,-0.09375 C0,6.40625 4.90625,13.4063 18.7031,13.4063 C32.5,13.4063 37.2969,6.40625 37.2969,-0.09375 C37.2969,-6.59375 32.5,-13.5938 18.7031,-13.5938 M19.5,10.2031 C16.7031,10.2031 14.7969,9.40625 13.5,6.90625 C12.2031,4.40625 10.4063,-2.09375 10.2969,-4.70313 C10.0938,-7.40625 11.0938,-9 13.5,-9.79688 C14.7031,-10.2031 16.2969,-10.4063 17.9063,-10.4063 C20.5938,-10.4063 22.4063,-9.79688 23.7969,-7.09375 C25.2031,-4.5 27.1094,2 27.1094,4.5 C27.1094,9.40625 23.5,10.2031 19.5,10.2031"/>
<path class="Note" transform="matrix(0.992001,0,0,0.992001,897.68,636.377)" d="M18.7031,-13.5938 C4.90625,-13.5938 0,-6.59375 0,-0.09375 C0,6.40625 4.90625,13.4063 18.7031,13.4063 C32.5,13.4063 37.2969,6.40625 37.2969,-0.09375 C37.2969,-6.59375 32.5,-13.5938 18.7031,-13.5938 M19.5,10.2031 C16.7031,10.2031 14.7969,9.40625 13.5,6.90625 C12.2031,4.40625 10.4063,-2.09375 10.2969,-4.70313 C10.0938,-7.40625 11.0938,-9 13.5,-9.79688 C14.7031,-10.2031 16.2969,-10.4063 17.9063,-10.4063 C20.5938,-10.4063 22.4063,-9.79688 23.7969,-7.09375 C25.2031,-4.5 27.1094,2 27.1094,4.5 C27.1094,9.40625 23.5,10.2031 19.5,10.2031"/>
<path class="Note" transform="matrix(0.992001,0,0,0.992001,458.274,611.577)" d="M18.7031,-13.5938 C4.90625,-13.5938 0,-6.59375 0,-0.09375 C0,6.40625 4.90625,13.4063 18.7031,13.4063 C32.5,13.4063 37.2969,6.40625 37.2969,-0.09375 C37.2969,-6.59375 32.5,-13.5938 18.7031,-13.5938 M19.5,10.2031 C16.7031,10.2031 14.7969,9.40625 13.5,6.90625 C12.2031,4.40625 10.4063,-2.09375 10.2969,-4.70313 C10.0938,-7.40625 11.0938,-9 13.5,-9.79688 C14.7031,-10.2031 16.2969,-10.4063 17.9063,-10.4063 C20.5938,-10.4063 22.4063,-9.79688 23.7969,-7.09375 C25.2031,-4.5 27.1094,2 27.1094,4.5 C27.1094,9.40625 23.5,10.2031 19.5,10.2031"/>
<path class="Note" transform="matrix(0.992001,0,0,0.992001,1117.38,648.777)" d="M18.7031,-13.5938 C4.90625,-13.5938 0,-6.59375 0,-0.09375 C0,6.40625 4.90625,13.4063 18.7031,13.4063 C32.5,13.4063 37.2969,6.40625 37.2969,-0.09375 C37.2969,-6.59375 32.5,-13.5938 18.7031,-13.5938 M19.5,10.2031 C16.7031,10.2031 14.7969,9.40625 13.5,6.90625 C12.2031,4.40625 10.4063,-2.09375 10.2969,-4.70313 C10.0938,-7.40625 11.0938,-9 13.5,-9.79688 C14.7031,-10.2031 16.2969,-10.4063 17.9063,-10.4063 C20.5938,-10.4063 22.4063,-9.79688 23.7969,-7.09375 C25.2031,-4.5 27.1094,2 27.1094,4.5 C27.1094,9.40625 23.5,10.2031 19.5,10.2031"/>
<path class="Note" transform="matrix(0.992001,0,0,0.992001,1337.09,661.177)" d="M18.7031,-13.5938 C4.90625,-13.5938 0,-6.59375 0,-0.09375 C0,6.40625 4.90625,13.4063 18.7031,13.4063 C32.5,13.4063 37.2969,6.40625 37.2969,-0.09375 C37.2969,-6.59375 32.5,-13.5938 18.7031,-13.5938 M19.5,10.2031 C16.7031,10.2031 14.7969,9.40625 13.5,6.90625 C12.2031,4.40625 10.4063,-2.09375 10.2969,-4.70313 C10.0938,-7.40625 11.0938,-9 13.5,-9.79688 C14.7031,-10.2031 16.2969,-10.4063 17.9063,-10.4063 C20.5938,-10.4063 22.4063,-9.79688 23.7969,-7.09375 C25.2031,-4.5 27.1094,2 27.1094,4.5 C27.1094,9.40625 23.5,10.2031 19.5,10.2031"/>
<path class="Note" transform="matrix(0.992001,0,0,0.992001,1776.49,685.977)" d="M18.7031,-13.5938 C4.90625,-13.5938 0,-6.59375 0,-0.09375 C0,6.40625 4.90625,13.4063 18.7031,13.4063 C32.5,13.4063 37.2969,6.40625 37.2969,-0.09375 C37.2969,-6.59375 32.5,-13.5938 18.7031,-13.5938 M19.5,10.2031 C16.7031,10.2031 14.7969,9.40625 13.5,6.90625 C12.2031,4.40625 10.4063,-2.09375 10.2969,-4.70313 C10.0938,-7.40625 11.0938,-9 13.5,-9.79688 C14.7031,-10.2031 16.2969,-10.4063 17.9063,-10.4063 C20.5938,-10.4063 22.4063,-9.79688 23.7969,-7.09375 C25.2031,-4.5 27.1094,2 27.1094,4.5 C27.1094,9.40625 23.5,10.2031 19.5,10.2031"/>
<path class="Note" transform="matrix(0.992001,0,0,0.992001,677.977,623.977)" d="M18.7031,-13.5938 C4.90625,-13.5938 0,-6.59375 0,-0.09375 C0,6.40625 4.90625,13.4063 18.7031,13.4063 C32.5,13.4063 37.2969,6.40625 37.2969,-0.09375 C37.2969,-6.59375 32.5,-13.5938 18.7031,-13.5938 M19.5,10.2031 C16.7031,10.2031 14.7969,9.40625 13.5,6.90625 C12.2031,4.40625 10.4063,-2.09375 10.2969,-4.70313 C10.0938,-7.40625 11.0938,-9 13.5,-9.79688 C14.7031,-10.2031 16.2969,-10.4063 17.9063,-10.4063 C20.5938,-10.4063 22.4063,-9.79688 23.7969,-7.09375 C25.2031,-4.5 27.1094,2 27.1094,4.5 C27.1094,9.40625 23.5,10.2031 19.5,10.2031"/>
<path class="Note" transform="matrix(0.992001,0,0,0.992001,1996.2,698.377)" d="M18.7031,-13.5938 C4.90625,-13.5938 0,-6.59375 0,-0.09375 C0,6.40625 4.90625,13.4063 18.7031,13.4063 C32.5,13.4063 37.2969,6.40625 37.2969,-0.09375 C37.2969,-6.59375 32.5,-13.5938 18.7031,-13.5938 M19.5,10.2031 C16.7031,10.2031 14.7969,9.40625 13.5,6.90625 C12.2031,4.40625 10.4063,-2.09375 10.2969,-4.70313 C10.0938,-7.40625 11.0938,-9 13.5,-9.79688 C14.7031,-10.2031 16.2969,-10.4063 17.9063,-10.4063 C20.5938,-10.4063 22.4063,-9.79688 23.7969,-7.09375 C25.2031,-4.5 27.1094,2 27.1094,4.5 C27.1094,9.40625 23.5,10.2031 19.5,10.2031"/>
<path class="Clef" transform="matrix(0.992001,0,0,0.992001,235.662,460.599)" d="M12.2969,51.2969 C12.2969,57.9063 17.2969,66.6094 30.7969,66.6094 C35.5,66.6094 39.6094,65.4063 43.2031,63.2031 C48.6094,59.4063 50,52.7969 50,46.5 C50,42.6094 49.4063,38.1094 48.4063,32.4063 C48.1094,30.4063 47.5,27.4063 46.9063,23.5 C56.7031,20.2969 64,10.0938 64,-0.203125 C64,-15.2969 53.2969,-25.5 38.7031,-25.5 C37.7031,-31.5 36.7031,-37.4063 35.9063,-43 C46.4063,-54.1094 53.7031,-66.6094 53.7031,-82.5 C53.7031,-91.6094 50.9063,-99 49.2969,-102.609 C46.9063,-107.703 44,-111.203 42.2031,-111.203 C41.5,-111.203 38.4063,-110 35.1094,-106.109 C28.7031,-98.5 26.9063,-85.7031 26.9063,-77.3125 C26.9063,-71.9063 27.4063,-67 29.1094,-55.7969 C29,-55.7031 23.7969,-50.4063 21.7031,-48.7031 C12.5938,-40.2969 0,-28.1094 0,-8.09375 C0,10.5938 16.2969,25.2969 34.9063,25.2969 C37.7969,25.2969 40.5,25 42.7969,24.5938 C44.7031,34.2031 45.9063,41.2031 45.9063,46.5 C45.9063,56.9063 40.5,62.4063 30.4063,62.4063 C28,62.4063 25.9063,61.9063 25.7031,61.9063 C25.6094,61.7969 25.4063,61.7031 25.4063,61.6094 C25.4063,61.4063 25.6094,61.2969 25.9063,61.2969 C30.6094,60.5 35.2969,56.5 35.2969,50.1094 C35.2969,44.7031 31.2031,39 23.7031,39 C16.7031,39 12.2969,44.7031 12.2969,51.2969 M33.2031,-82.2031 C34.1094,-86.2031 38.7031,-96.7031 43.9063,-96.7031 C45.4063,-96.7031 47.7969,-91.9063 47.7969,-84.9063 C47.7969,-74.5 40.1094,-66.7031 33.2031,-59.9063 C32.6094,-63.9063 32.1094,-67.7969 32.1094,-72 C32.1094,-75.7031 32.4063,-79.1094 33.2031,-82.2031 M42,20.5938 C40,21 38.1094,21.2031 36.2031,21.2031 C21.9063,21.2031 9.70313,11.2031 9.70313,-3.90625 C9.70313,-16.0938 18.2969,-27 27.1094,-34.6094 C28.7969,-36.1094 30.4063,-37.5 31.9063,-39 C32.7969,-33.6094 33.5,-28.9063 34.2031,-24.7969 C25.0938,-22.0938 18.9063,-12.5 18.9063,-3.09375 C18.9063,3.90625 24.4063,13.5 32.4063,13.5 C33.2031,13.5 34.1094,13.0938 34.1094,12.2031 C34.1094,11.2969 33.1094,10.7969 31.9063,10 C28,7.59375 25.7969,5 25.7969,0.09375 C25.7969,-6 30.4063,-10.9063 36.2031,-12.2969 L42,20.5938 M56.2031,2.09375 C56.2031,9.20313 53.2969,16.5 46.2031,19.4063 C44.1094,7.40625 41.4063,-8.5 40.7031,-12.9063 C49.7031,-12.9063 56.2031,-6.79688 56.2031,2.09375"/>
<path class="Clef" transform="matrix(0.992001,0,0,0.992001,235.662,723.177)" d="M25.4063,-25.0938 C17.7969,-25.0938 11.7031,-20.7031 11.5938,-20.7031 C5.70313,-16.4063 1.90625,-9.79688 1.90625,-2.5 C1.90625,4.79688 6.09375,10.2031 13.5,10.2031 C19.9063,10.2031 24.9063,5.90625 24.9063,-0.703125 C24.9063,-6.40625 19.9063,-11.0938 14.2969,-11.0938 C13.0938,-11.0938 12,-10.9063 11.0938,-10.5938 C10.0938,-10.2031 8.40625,-9.20313 7.59375,-8.5 C8.29688,-12.9063 11.2969,-17.2969 15.2031,-19.4063 C17.7031,-20.7969 20.9063,-21.4063 24.4063,-21.4063 C34.6094,-21.4063 39.6094,-13.2031 39.6094,3.59375 C39.6094,16.5938 31.2969,35.2969 21.5,44.1094 C11.0938,53.6094 1.29688,58.1094 1.20313,58.1094 C1.20313,58.1094 0,58.7969 0,60 C0,60.2031 0.09375,60.2969 0.09375,60.5 C0.40625,61.5 1.29688,61.7031 2,61.7031 L2.29688,61.6094 C2.5,61.6094 13.9063,56.9063 23,49.7969 C37,39.7031 52.7969,21.9063 52.7969,3.5 C52.7969,-13.9063 43.4063,-25.0938 25.4063,-25.0938 M56.7969,-12.4063 C56.7969,-9.59375 59,-7.40625 61.6094,-7.40625 C64.2031,-7.40625 66.4063,-9.59375 66.4063,-12.4063 C66.4063,-15.2031 64.2031,-17.5 61.6094,-17.5 C59,-17.5 56.7969,-15.2031 56.7969,-12.4063 M56.7969,12.2969 C56.7969,15.0938 59,17.4063 61.6094,17.4063 C64.2031,17.4063 66.4063,15.0938 66.4063,12.2969 C66.4063,9.5 64.2031,7.20313 61.6094,7.20313 C59,7.20313 56.7969,9.5 56.7969,12.2969"/>
<path class="KeySig" transform="matrix(0.992001,0,0,0.992001,320.122,386.199)" d="M23.2969,-10.5 C23.9063,-10.5938 24.4063,-11.2969 24.4063,-11.9063 L24.4063,-17.7969 C24.4063,-18.7969 23.7031,-19.2031 22.7969,-19.2031 L19.5,-18.5 L19.5,-33.4063 L16.7031,-33.4063 L16.7031,-17.9063 L7.79688,-16.0938 L7.79688,-30.2031 L5,-30.2031 L5,-15.5 L1.09375,-14.7031 C0.5,-14.5938 0,-13.9063 0,-13.2969 L0,-7.5 C0,-6.40625 0.796875,-6.09375 1.70313,-6.09375 L5,-6.79688 L5,9.70313 L1.09375,10.5 C0.5,10.5938 0,11.2969 0,11.9063 L0,17.7031 C0,18.7969 0.796875,19.0938 1.70313,19.0938 L5,18.4063 L5,33.2969 L7.79688,33.2969 L7.79688,17.7969 L16.7031,16 L16.7031,30.1094 L19.5,30.1094 L19.5,15.4063 L23.2969,14.7031 C23.9063,14.5938 24.4063,13.9063 24.4063,13.2969 L24.4063,7.40625 C24.4063,6.40625 23.7031,6 22.7969,6 L19.5,6.70313 L19.5,-9.79688 L23.2969,-10.5 M7.79688,-7.40625 L16.7031,-9.20313 L16.7031,7.29688 L7.79688,9.20313 L7.79688,-7.40625 "/>
<path class="KeySig" transform="matrix(0.992001,0,0,0.992001,347.294,423.399)" d="M23.2969,-10.5 C23.9063,-10.5938 24.4063,-11.2969 24.4063,-11.9063 L24.4063,-17.7969 C24.4063,-18.7969 23.7031,-19.2031 22.7969,-19.2031 L19.5,-18.5 L19.5,-33.4063 L16.7031,-33.4063 L16.7031,-17.9063 L7.79688,-16.0938 L7.79688,-30.2031 L5,-30.2031 L5,-15.5 L1.09375,-14.7031 C0.5,-14.5938 0,-13.9063 0,-13.2969 L0,-7.5 C0,-6.40625 0.796875,-6.09375 1.70313,-6.09375 L5,-6.79688 L5,9.70313 L1.09375,10.5 C0.5,10.5938 0,11.2969 0,11.9063 L0,17.7031 C0,18.7969 0.796875,19.0938 1.70313,19.0938 L5,18.4063 L5,33.2969 L7.79688,33.2969 L7.79688,17.7969 L16.7031,16 L16.7031,30.1094 L19.5,30.1094 L19.5,15.4063 L23.2969,14.7031 C23.9063,14.5938 24.4063,13.9063 24.4063,13.2969 L24.4063,7.40625 C24.4063,6.40625 23.7031,6 22.7969,6 L19.5,6.70313 L19.5,-9.79688 L23.2969,-10.5 M7.79688,-7.40625 L16.7031,-9.20313 L16.7031,7.29688 L7.79688,9.20313 L7.79688,-7.40625 "/>
<path class="KeySig" transform="matrix(0.992001,0,0,0.992001,374.45,373.799)" d="M23.2969,-10.5 C23.9063,-10.5938 24.4063,-11.2969 24.4063,-11.9063 L24.4063,-17.7969 C24.4063,-18.7969 23.7031,-19.2031 22.7969,-19.2031 L19.5,-18.5 L19.5,-33.4063 L16.7031,-33.4063 L16.7031,-17.9063 L7.79688,-16.0938 L7.79688,-30.2031 L5,-30.2031 L5,-15.5 L1.09375,-14.7031 C0.5,-14.5938 0,-13.9063 0,-13.2969 L0,-7.5 C0,-6.40625 0.796875,-6.09375 1.70313,-6.09375 L5,-6.79688 L5,9.70313 L1.09375,10.5 C0.5,10.5938 0,11.2969 0,11.9063 L0,17.7031 C0,18.7969 0.796875,19.0938 1.70313,19.0938 L5,18.4063 L5,33.2969 L7.79688,33.2969 L7.79688,17.7969 L16.7031,16 L16.7031,30.1094 L19.5,30.1094 L19.5,15.4063 L23.2969,14.7031 C23.9063,14.5938 24.4063,13.9063 24.4063,13.2969 L24.4063,7.40625 C24.4063,6.40625 23.7031,6 22.7969,6 L19.5,6.70313 L19.5,-9.79688 L23.2969,-10.5 M7.79688,-7.40625 L16.7031,-9.20313 L16.7031,7.29688 L7.79688,9.20313 L7.79688,-7.40625 "/>
<path class="KeySig" transform="matrix(0.992001,0,0,0.992001,2220.11,435.799)" d="M12,-15.5 C7,-15.5 4.09375,-12.4063 3.59375,-11.7969 L4,-43.9063 C4,-44.7031 3.40625,-45.2969 2.59375,-45.2969 L1.40625,-45.2969 C0.59375,-45.2969 0,-44.7031 0,-43.9063 L0.5,16.2031 C0.5,17 1.09375,17.5938 1.90625,17.5938 C2.09375,17.5938 2.5,17.5 2.70313,17.4063 C11.2969,13.0938 20.2969,4.90625 20.2969,-5.40625 C20.2969,-10.5938 17.9063,-15.5 12,-15.5 M3.29688,12.7031 L3.59375,-6.79688 C3.79688,-7.70313 5.29688,-10.5938 9.29688,-10.5938 C12.9063,-10.5938 13.2031,-7.20313 13.2031,-5.09375 C13.2031,3.79688 9.90625,7.5 3.29688,12.7031"/>
<path class="KeySig" transform="matrix(0.992001,0,0,0.992001,2247.69,398.599)" d="M12,-15.5 C7,-15.5 4.09375,-12.4063 3.59375,-11.7969 L4,-43.9063 C4,-44.7031 3.40625,-45.2969 2.59375,-45.2969 L1.40625,-45.2969 C0.59375,-45.2969 0,-44.7031 0,-43.9063 L0.5,16.2031 C0.5,17 1.09375,17.5938 1.90625,17.5938 C2.09375,17.5938 2.5,17.5 2.70313,17.4063 C11.2969,13.0938 20.2969,4.90625 20.2969,-5.40625 C20.2969,-10.5938 17.9063,-15.5 12,-15.5 M3.29688,12.7031 L3.59375,-6.79688 C3.79688,-7.70313 5.29688,-10.5938 9.29688,-10.5938 C12.9063,-10.5938 13.2031,-7.20313 13.2031,-5.09375 C13.2031,3.79688 9.90625,7.5 3.29688,12.7031"/>
<path class="KeySig" transform="matrix(0.992001,0,0,0.992001,2275.26,448.199)" d="M12,-15.5 C7,-15.5 4.09375,-12.4063 3.59375,-11.7969 L4,-43.9063 C4,-44.7031 3.40625,-45.2969 2.59375,-45.2969 L1.40625,-45.2969 C0.59375,-45.2969 0,-44.7031 0,-43.9063 L0.5,16.2031 C0.5,17 1.09375,17.5938 1.90625,17.5938 C2.09375,17.5938 2.5,17.5 2.70313,17.4063 C11.2969,13.0938 20.2969,4.90625 20.2969,-5.40625 C20.2969,-10.5938 17.9063,-15.5 12,-15.5 M3.29688,12.7031 L3.59375,-6.79688 C3.79688,-7.70313 5.29688,-10.5938 9.29688,-10.5938 C12.9063,-10.5938 13.2031,-7.20313 13.2031,-5.09375 C13.2031,3.79688 9.90625,7.5 3.29688,12.7031"/>
<path class="KeySig" transform="matrix(0.992001,0,0,0.992001,320.122,723.177)" d="M23.2969,-10.5 C23.9063,-10.5938 24.4063,-11.2969 24.4063,-11.9063 L24.4063,-17.7969 C24.4063,-18.7969 23.7031,-19.2031 22.7969,-19.2031 L19.5,-18.5 L19.5,-33.4063 L16.7031,-33.4063 L16.7031,-17.9063 L7.79688,-16.0938 L7.79688,-30.2031 L5,-30.2031 L5,-15.5 L1.09375,-14.7031 C0.5,-14.5938 0,-13.9063 0,-13.2969 L0,-7.5 C0,-6.40625 0.796875,-6.09375 1.70313,-6.09375 L5,-6.79688 L5,9.70313 L1.09375,10.5 C0.5,10.5938 0,11.2969 0,11.9063 L0,17.7031 C0,18.7969 0.796875,19.0938 1.70313,19.0938 L5,18.4063 L5,33.2969 L7.79688,33.2969 L7.79688,17.7969 L16.7031,16 L16.7031,30.1094 L19.5,30.1094 L19.5,15.4063 L23.2969,14.7031 C23.9063,14.5938 24.4063,13.9063 24.4063,13.2969 L24.4063,7.40625 C24.4063,6.40625 23.7031,6 22.7969,6 L19.5,6.70313 L19.5,-9.79688 L23.2969,-10.5 M7.79688,-7.40625 L16.7031,-9.20313 L16.7031,7.29688 L7.79688,9.20313 L7.79688,-7.40625 "/>
<path class="KeySig" transform="matrix(0.992001,0,0,0.992001,347.294,760.377)" d="M23.2969,-10.5 C23.9063,-10.5938 24.4063,-11.2969 24.4063,-11.9063 L24.4063,-17.7969 C24.4063,-18.7969 23.7031,-19.2031 22.7969,-19.2031 L19.5,-18.5 L19.5,-33.4063 L16.7031,-33.4063 L16.7031,-17.9063 L7.79688,-16.0938 L7.79688,-30.2031 L5,-30.2031 L5,-15.5 L1.09375,-14.7031 C0.5,-14.5938 0,-13.9063 0,-13.2969 L0,-7.5 C0,-6.40625 0.796875,-6.09375 1.70313,-6.09375 L5,-6.79688 L5,9.70313 L1.09375,10.5 C0.5,10.5938 0,11.2969 0,11.9063 L0,17.7031 C0,18.7969 0.796875,19.0938 1.70313,19.0938 L5,18.4063 L5,33.2969 L7.79688,33.2969 L7.79688,17.7969 L16.7031,16 L16.7031,30.1094 L19.5,30.1094 L19.5,15.4063 L23.2969,14.7031 C23.9063,14.5938 24.4063,13.9063 24.4063,13.2969 L24.4063,7.40625 C24.4063,6.40625 23.7031,6 22.7969,6 L19.5,6.70313 L19.5,-9.79688 L23.2969,-10.5 M7.79688,-7.40625 L16.7031,-9.20313 L16.7031,7.29688 L7.79688,9.20313 L7.79688,-7.40625 "/>
<path class="KeySig" transform="matrix(0.992001,0,0,0.992001,374.45,710.777)" d="M23.2969,-10.5 C23.9063,-10.5938 24.4063,-11.2969 24.4063,-11.9063 L24.4063,-17.7969 C24.4063,-18.7969 23.7031,-19.2031 22.7969,-19.2031 L19.5,-18.5 L19.5,-33.4063 L16.7031,-33.4063 L16.7031,-17.9063 L7.79688,-16.0938 L7.79688,-30.2031 L5,-30.2031 L5,-15.5 L1.09375,-14.7031 C0.5,-14.5938 0,-13.9063 0,-13.2969 L0,-7.5 C0,-6.40625 0.796875,-6.09375 1.70313,-6.09375 L5,-6.79688 L5,9.70313 L1.09375,10.5 C0.5,10.5938 0,11.2969 0,11.9063 L0,17.7031 C0,18.7969 0.796875,19.0938 1.70313,19.0938 L5,18.4063 L5,33.2969 L7.79688,33.2969 L7.79688,17.7969 L16.7031,16 L16.7031,30.1094 L19.5,30.1094 L19.5,15.4063 L23.2969,14.7031 C23.9063,14.5938 24.4063,13.9063 24.4063,13.2969 L24.4063,7.40625 C24.4063,6.40625 23.7031,6 22.7969,6 L19.5,6.70313 L19.5,-9.79688 L23.2969,-10.5 M7.79688,-7.40625 L16.7031,-9.20313 L16.7031,7.29688 L7.79688,9.20313 L7.79688,-7.40625 "/>
<path class="KeySig" transform="matrix(0.992001,0,0,0.992001,2220.11,772.777)" d="M12,-15.5 C7,-15.5 4.09375,-12.4063 3.59375,-11.7969 L4,-43.9063 C4,-44.7031 3.40625,-45.2969 2.59375,-45.2969 L1.40625,-45.2969 C0.59375,-45.2969 0,-44.7031 0,-43.9063 L0.5,16.2031 C0.5,17 1.09375,17.5938 1.90625,17.5938 C2.09375,17.5938 2.5,17.5 2.70313,17.4063 C11.2969,13.0938 20.2969,4.90625 20.2969,-5.40625 C20.2969,-10.5938 17.9063,-15.5 12,-15.5 M3.29688,12.7031 L3.59375,-6.79688 C3.79688,-7.70313 5.29688,-10.5938 9.29688,-10.5938 C12.9063,-10.5938 13.2031,-7.20313 13.2031,-5.09375 C13.2031,3.79688 9.90625,7.5 3.29688,12.7031"/>
<path class="KeySig" transform="matrix(0.992001,0,0,0.992001,2247.69,735.577)" d="M12,-15.5 C7,-15.5 4.09375,-12.4063 3.59375,-11.7969 L4,-43.9063 C4,-44.7031 3.40625,-45.2969 2.59375,-45.2969 L1.40625,-45.2969 C0.59375,-45.2969 0,-44.7031 0,-43.9063 L0.5,16.2031 C0.5,17 1.09375,17.5938 1.90625,17.5938 C2.09375,17.5938 2.5,17.5 2.70313,17.4063 C11.2969,13.0938 20.2969,4.90625 20.2969,-5.40625 C20.2969,-10.5938 17.9063,-15.5 12,-15.5 M3.29688,12.7031 L3.59375,-6.79688 C3.79688,-7.70313 5.29688,-10.5938 9.29688,-10.5938 C12.9063,-10.5938 13.2031,-7.20313 13.2031,-5.09375 C13.2031,3.79688 9.90625,7.5 3.29688,12.7031"/>
<path class="KeySig" transform="matrix(0.992001,0,0,0.992001,2275.26,785.177)" d="M12,-15.5 C7,-15.5 4.09375,-12.4063 3.59375,-11.7969 L4,-43.9063 C4,-44.7031 3.40625,-45.2969 2.59375,-45.2969 L1.40625,-45.2969 C0.59375,-45.2969 0,-44.7031 0,-43.9063 L0.5,16.2031 C0.5,17 1.09375,17.5938 1.90625,17.5938 C2.09375,17.5938 2.5,17.5 2.70313,17.4063 C11.2969,13.0938 20.2969,4.90625 20.2969,-5.40625 C20.2969,-10.5938 17.9063,-15.5 12,-15.5 M3.29688,12.7031 L3.59375,-6.79688 C3.79688,-7.70313 5.29688,-10.5938 9.29688,-10.5938 C12.9063,-10.5938 13.2031,-7.20313 13.2031,-5.09375 C13.2031,3.79688 9.90625,7.5 3.29688,12.7031"/>
<path class="Lyrics" d="M896.226,536.502 L887.335,537.049 L887.335,539.205 L889.382,539.205 C891.273,539.252 891.523,539.549 891.523,541.705 L891.523,556.002 C891.476,556.752 891.429,557.049 891.226,557.299 C890.882,557.752 889.929,557.955 887.773,558.002 L887.585,558.002 L887.585,559.799 L900.179,559.799 L900.179,558.002 L899.976,558.002 C896.679,557.893 896.226,557.643 896.226,555.799 L896.226,546.549 C896.226,542.096 898.679,538.799 901.929,538.799 C904.773,538.799 906.226,540.846 906.226,544.893 L906.226,556.049 C906.179,556.705 906.132,557.049 905.882,557.299 C905.585,557.752 904.585,557.955 902.429,558.002 L902.226,558.002 L902.226,559.799 L914.882,559.799 L914.882,558.002 L914.679,558.002 C911.382,557.893 910.929,557.643 910.929,555.846 L910.929,547.002 C910.929,542.002 913.179,538.799 916.679,538.799 C919.539,538.799 920.929,540.955 920.929,545.455 L920.929,556.002 C920.882,556.705 920.835,557.049 920.585,557.299 C920.289,557.752 919.289,557.955 917.132,558.002 L916.929,558.002 L916.929,559.799 L929.585,559.799 L929.585,558.002 L929.382,558.002 C926.085,557.893 925.632,557.643 925.632,555.799 L925.632,544.455 C925.632,541.346 925.335,540.299 924.039,538.596 C922.585,536.752 920.539,535.752 918.132,535.752 C914.882,535.752 912.476,537.299 910.335,540.752 C909.476,537.752 906.773,535.752 903.429,535.752 C900.382,535.752 898.179,537.205 896.226,540.346 L896.226,536.502 M938.132,524.049 C936.523,524.049 935.226,525.346 935.226,526.939 C935.226,528.549 936.523,529.846 938.085,529.846 C939.726,529.846 941.023,528.549 941.023,526.939 C941.023,525.346 939.726,524.049 938.132,524.049 M940.476,536.502 L931.085,537.049 L931.085,539.205 L933.632,539.205 C935.523,539.252 935.773,539.549 935.773,541.705 L935.773,556.002 C935.726,556.752 935.679,557.049 935.476,557.299 C935.132,557.752 934.179,557.955 932.023,558.002 L931.679,558.002 L931.679,559.799 L944.632,559.799 L944.632,558.002 L944.273,558.002 C940.929,557.893 940.476,557.643 940.476,555.846 L940.476,536.502 "/>
<path class="Lyrics" d="M1342.59,535.955 L1340.84,535.955 L1339.38,537.752 C1337.59,536.346 1335.79,535.752 1333.29,535.752 C1328.88,535.752 1325.99,538.596 1325.99,543.002 C1325.99,547.705 1329.04,548.893 1333.04,549.846 L1335.68,550.455 C1339.63,551.393 1341.04,552.393 1341.04,554.393 C1341.04,556.752 1338.99,558.393 1336.09,558.393 C1331.84,558.393 1328.84,555.705 1327.63,550.705 L1325.63,550.705 L1325.63,560.143 L1327.38,560.143 L1329.13,558.096 C1331.18,559.752 1333.43,560.549 1335.99,560.549 C1340.88,560.549 1344.13,557.502 1344.13,552.846 C1344.13,550.643 1343.43,548.955 1342.04,547.799 C1340.84,546.752 1339.84,546.346 1336.79,545.705 L1334.29,545.143 C1331.54,544.549 1331.54,544.549 1330.63,544.049 C1329.54,543.549 1328.88,542.502 1328.88,541.393 C1328.88,539.346 1330.79,537.955 1333.54,537.955 C1337.63,537.955 1339.63,540.846 1340.84,544.346 L1342.59,544.346 L1342.59,535.955 M1358.68,535.752 C1352.54,535.752 1347.79,541.205 1347.79,548.205 C1347.79,555.049 1352.59,560.549 1358.59,560.549 C1364.59,560.549 1369.38,555.049 1369.38,548.143 C1369.38,541.299 1364.59,535.752 1358.68,535.752 M1358.68,537.893 C1362.18,537.893 1364.13,541.549 1364.13,548.143 C1364.13,554.799 1362.18,558.393 1358.59,558.393 C1354.99,558.393 1353.04,554.799 1353.04,548.205 C1353.04,541.393 1354.93,537.893 1358.68,537.893 M1381.29,522.939 L1372.04,523.502 L1372.04,525.643 L1374.49,525.643 C1376.34,525.689 1376.59,526.002 1376.59,528.143 L1376.59,556.002 C1376.54,556.752 1376.49,557.049 1376.29,557.299 C1375.93,557.752 1374.99,557.955 1372.84,558.002 L1372.49,558.002 L1372.49,559.799 L1385.43,559.799 L1385.43,558.002 L1385.09,558.002 C1381.74,557.893 1381.29,557.643 1381.29,555.846 L1381.29,522.939 "/>
<path class="Lyrics" d="M1794.49,535.955 L1792.74,535.955 L1791.29,537.752 C1789.49,536.346 1787.69,535.752 1785.19,535.752 C1780.79,535.752 1777.9,538.596 1777.9,543.002 C1777.9,547.705 1780.94,548.893 1784.94,549.846 L1787.59,550.455 C1791.54,551.393 1792.94,552.393 1792.94,554.393 C1792.94,556.752 1790.9,558.393 1787.99,558.393 C1783.74,558.393 1780.74,555.705 1779.54,550.705 L1777.54,550.705 L1777.54,560.143 L1779.29,560.143 L1781.04,558.096 C1783.09,559.752 1785.34,560.549 1787.9,560.549 C1792.79,560.549 1796.04,557.502 1796.04,552.846 C1796.04,550.643 1795.34,548.955 1793.94,547.799 C1792.74,546.752 1791.74,546.346 1788.69,545.705 L1786.19,545.143 C1783.44,544.549 1783.44,544.549 1782.54,544.049 C1781.44,543.549 1780.79,542.502 1780.79,541.393 C1780.79,539.346 1782.69,537.955 1785.44,537.955 C1789.54,537.955 1791.54,540.846 1792.74,544.346 L1794.49,544.346 L1794.49,535.955 M1805.94,524.049 C1804.34,524.049 1803.04,525.346 1803.04,526.939 C1803.04,528.549 1804.34,529.846 1805.9,529.846 C1807.54,529.846 1808.84,528.549 1808.84,526.939 C1808.84,525.346 1807.54,524.049 1805.94,524.049 M1808.29,536.502 L1798.9,537.049 L1798.9,539.205 L1801.44,539.205 C1803.34,539.252 1803.59,539.549 1803.59,541.705 L1803.59,556.002 C1803.54,556.752 1803.49,557.049 1803.29,557.299 C1802.94,557.752 1801.99,557.955 1799.84,558.002 L1799.49,558.002 L1799.49,559.799 L1812.44,559.799 L1812.44,558.002 L1812.09,558.002 C1808.74,557.893 1808.29,557.643 1808.29,555.846 L1808.29,536.502 "/>
<path class="Lyrics" d="M682.882,536.502 L674.023,537.049 L674.023,539.205 L676.07,539.205 C677.976,539.252 678.226,539.549 678.226,541.705 L678.226,556.002 C678.179,556.752 678.132,557.049 677.929,557.299 C677.57,557.752 676.57,557.955 674.429,558.002 L674.226,558.002 L674.226,559.799 L687.57,559.799 L687.57,558.002 L686.679,558.002 C683.32,557.893 682.882,557.643 682.882,555.846 L682.882,553.143 C682.929,544.752 685.929,538.346 689.82,538.143 C689.132,538.955 688.929,539.455 688.929,540.393 C688.929,542.002 690.07,543.143 691.679,543.143 C693.523,543.143 694.726,541.799 694.726,539.799 C694.726,537.346 693.023,535.752 690.382,535.752 C687.226,535.752 684.523,538.252 682.882,542.705 L682.882,536.502 M718.226,548.549 C718.273,541.049 714.023,535.752 707.929,535.752 C701.523,535.752 696.726,541.299 696.726,548.799 C696.726,555.846 701.273,560.549 708.023,560.549 C712.82,560.549 716.179,558.205 718.226,553.455 L716.476,552.502 C714.429,556.346 712.32,557.846 708.976,557.846 C706.429,557.846 704.57,556.799 703.273,554.549 C702.382,553.049 701.976,551.299 702.023,548.549 L718.226,548.549 M702.07,546.393 C702.07,542.893 703.679,537.893 707.882,537.893 C710.882,537.893 712.882,540.549 712.882,544.596 C712.882,546.002 712.429,546.393 710.82,546.393 L702.07,546.393 "/>
<path class="Lyrics" d="M468.273,560.143 L476.976,559.799 L476.976,557.643 L476.07,557.643 C473.226,557.502 472.976,557.205 472.976,554.002 L472.976,522.939 L463.179,523.502 L463.179,525.643 L466.117,525.643 C468.023,525.689 468.273,526.002 468.273,528.143 L468.273,539.455 C466.429,536.893 464.273,535.752 461.367,535.752 C455.726,535.752 451.429,541.205 451.429,548.393 C451.429,555.502 455.57,560.549 461.367,560.549 C464.523,560.549 466.679,559.205 468.273,556.205 L468.273,560.143 M462.367,538.455 C464.429,538.455 466.367,539.955 467.273,542.252 C467.929,543.752 468.226,545.799 468.226,548.252 C468.226,554.096 465.929,557.846 462.32,557.846 C458.773,557.846 456.679,554.549 456.679,549.002 C456.679,546.002 456.976,543.752 457.617,542.096 C458.476,539.846 460.32,538.455 462.367,538.455 M490.867,535.752 C484.726,535.752 479.976,541.205 479.976,548.205 C479.976,555.049 484.773,560.549 490.773,560.549 C496.773,560.549 501.57,555.049 501.57,548.143 C501.57,541.299 496.773,535.752 490.867,535.752 M490.867,537.893 C494.367,537.893 496.32,541.549 496.32,548.143 C496.32,554.799 494.367,558.393 490.773,558.393 C487.179,558.393 485.226,554.799 485.226,548.205 C485.226,541.393 487.117,537.893 490.867,537.893"/>
<path class="Lyrics" d="M1123.43,536.502 L1123.43,533.643 C1123.43,531.143 1123.59,529.502 1123.98,528.502 C1124.79,526.299 1126.54,524.939 1128.54,524.939 C1129.59,524.939 1130.23,525.252 1130.23,525.799 C1130.23,526.002 1130.23,526.049 1129.93,526.439 C1129.63,526.893 1129.48,527.502 1129.48,528.049 C1129.48,529.549 1130.68,530.689 1132.23,530.689 C1133.88,530.689 1135.04,529.439 1135.04,527.643 C1135.04,524.752 1132.54,522.939 1128.48,522.939 C1125.04,522.939 1122.48,524.143 1120.73,526.643 C1119.23,528.752 1118.73,530.893 1118.73,534.955 L1118.73,536.502 L1114.34,536.502 L1114.34,538.643 L1118.73,538.643 L1118.73,556.002 C1118.68,556.705 1118.63,557.002 1118.43,557.299 C1118.09,557.752 1117.13,557.955 1114.98,558.002 L1114.79,558.002 L1114.79,559.799 L1128.13,559.799 L1128.13,558.002 L1127.23,558.002 C1123.88,557.893 1123.43,557.643 1123.43,555.846 L1123.43,538.643 L1128.93,538.643 L1128.93,536.502 L1123.43,536.502 M1151.98,543.705 C1151.98,540.549 1151.43,538.955 1149.98,537.752 C1148.34,536.393 1145.88,535.752 1142.68,535.752 C1137.04,535.752 1132.93,538.393 1132.93,542.049 C1132.93,543.893 1134.09,545.096 1135.84,545.096 C1137.43,545.096 1138.54,544.049 1138.54,542.549 C1138.54,541.893 1138.29,541.205 1137.79,540.502 C1137.48,540.143 1137.43,540.049 1137.43,539.799 C1137.43,538.799 1139.43,537.893 1141.84,537.893 C1143.43,537.893 1145.18,538.393 1145.98,539.143 C1146.93,539.955 1147.29,541.143 1147.29,543.393 L1147.29,545.346 C1142.09,546.252 1140.43,546.643 1137.98,547.596 C1133.63,549.205 1131.59,551.502 1131.59,554.705 C1131.59,558.299 1134.38,560.549 1138.84,560.549 C1142.29,560.549 1145.38,559.143 1147.54,556.596 C1148.34,559.143 1149.59,560.143 1151.93,560.143 C1154.18,560.143 1156.54,558.705 1156.54,557.252 C1156.54,556.893 1156.34,556.643 1156.04,556.643 C1155.84,556.643 1155.63,556.705 1155.29,556.846 C1154.59,557.143 1154.29,557.205 1153.88,557.205 C1152.48,557.205 1151.98,556.299 1151.98,553.752 L1151.98,543.705 M1147.29,549.799 C1147.29,552.799 1147.13,553.502 1146.29,554.799 C1145.04,556.643 1142.79,557.893 1140.59,557.893 C1138.29,557.893 1136.63,556.252 1136.63,554.002 C1136.63,551.893 1137.68,550.393 1139.88,549.346 C1141.43,548.643 1143.38,548.143 1147.29,547.502 L1147.29,549.799 "/>
<path class="Lyrics" d="M2006.19,560.143 L2014.9,559.799 L2014.9,557.643 L2013.99,557.643 C2011.15,557.502 2010.9,557.205 2010.9,554.002 L2010.9,522.939 L2001.1,523.502 L2001.1,525.643 L2004.04,525.643 C2005.94,525.689 2006.19,526.002 2006.19,528.143 L2006.19,539.455 C2004.35,536.893 2002.19,535.752 1999.29,535.752 C1993.65,535.752 1989.35,541.205 1989.35,548.393 C1989.35,555.502 1993.49,560.549 1999.29,560.549 C2002.44,560.549 2004.6,559.205 2006.19,556.205 L2006.19,560.143 M2000.29,538.455 C2002.35,538.455 2004.29,539.955 2005.19,542.252 C2005.85,543.752 2006.15,545.799 2006.15,548.252 C2006.15,554.096 2003.85,557.846 2000.24,557.846 C1996.69,557.846 1994.6,554.549 1994.6,549.002 C1994.6,546.002 1994.9,543.752 1995.54,542.096 C1996.4,539.846 1998.24,538.455 2000.29,538.455 M2028.79,535.752 C2022.65,535.752 2017.9,541.205 2017.9,548.205 C2017.9,555.049 2022.69,560.549 2028.69,560.549 C2034.69,560.549 2039.49,555.049 2039.49,548.143 C2039.49,541.299 2034.69,535.752 2028.79,535.752 M2028.79,537.893 C2032.29,537.893 2034.24,541.549 2034.24,548.143 C2034.24,554.799 2032.29,558.393 2028.69,558.393 C2025.1,558.393 2023.15,554.799 2023.15,548.205 C2023.15,541.393 2025.04,537.893 2028.79,537.893"/>
<path class="Lyrics" d="M1563.49,522.939 L1554.24,523.502 L1554.24,525.643 L1556.69,525.643 C1558.54,525.689 1558.79,526.002 1558.79,528.143 L1558.79,556.002 C1558.74,556.752 1558.69,557.049 1558.49,557.299 C1558.13,557.752 1557.19,557.955 1555.04,558.002 L1554.69,558.002 L1554.69,559.799 L1567.63,559.799 L1567.63,558.002 L1567.29,558.002 C1563.94,557.893 1563.49,557.643 1563.49,555.846 L1563.49,522.939 M1591.88,543.705 C1591.88,540.549 1591.34,538.955 1589.88,537.752 C1588.24,536.393 1585.79,535.752 1582.59,535.752 C1576.94,535.752 1572.84,538.393 1572.84,542.049 C1572.84,543.893 1573.99,545.096 1575.74,545.096 C1577.34,545.096 1578.44,544.049 1578.44,542.549 C1578.44,541.893 1578.19,541.205 1577.69,540.502 C1577.38,540.143 1577.34,540.049 1577.34,539.799 C1577.34,538.799 1579.34,537.893 1581.74,537.893 C1583.34,537.893 1585.09,538.393 1585.88,539.143 C1586.84,539.955 1587.19,541.143 1587.19,543.393 L1587.19,545.346 C1581.99,546.252 1580.34,546.643 1577.88,547.596 C1573.54,549.205 1571.49,551.502 1571.49,554.705 C1571.49,558.299 1574.29,560.549 1578.74,560.549 C1582.19,560.549 1585.29,559.143 1587.44,556.596 C1588.24,559.143 1589.49,560.143 1591.84,560.143 C1594.09,560.143 1596.44,558.705 1596.44,557.252 C1596.44,556.893 1596.24,556.643 1595.94,556.643 C1595.74,556.643 1595.54,556.705 1595.19,556.846 C1594.49,557.143 1594.19,557.205 1593.79,557.205 C1592.38,557.205 1591.88,556.299 1591.88,553.752 L1591.88,543.705 M1587.19,549.799 C1587.19,552.799 1587.04,553.502 1586.19,554.799 C1584.94,556.643 1582.69,557.893 1580.49,557.893 C1578.19,557.893 1576.54,556.252 1576.54,554.002 C1576.54,551.893 1577.59,550.393 1579.79,549.346 C1581.34,548.643 1583.29,548.143 1587.19,547.502 L1587.19,549.799 "/>
<path class="Lyrics" d="M904.382,835.118 L895.132,835.68 L895.132,837.821 L897.585,837.821 C899.429,837.868 899.679,838.18 899.679,840.321 L899.679,868.18 C899.632,868.93 899.585,869.227 899.382,869.477 C899.023,869.93 898.085,870.133 895.929,870.18 L895.585,870.18 L895.585,871.977 L908.523,871.977 L908.523,870.18 L908.179,870.18 C904.835,870.071 904.382,869.821 904.382,868.024 L904.382,835.118 M932.773,855.883 C932.773,852.727 932.226,851.133 930.773,849.93 C929.132,848.571 926.679,847.93 923.476,847.93 C917.835,847.93 913.726,850.571 913.726,854.227 C913.726,856.071 914.882,857.274 916.632,857.274 C918.226,857.274 919.335,856.227 919.335,854.727 C919.335,854.071 919.085,853.383 918.585,852.68 C918.273,852.321 918.226,852.227 918.226,851.977 C918.226,850.977 920.226,850.071 922.632,850.071 C924.226,850.071 925.976,850.571 926.773,851.321 C927.726,852.133 928.085,853.321 928.085,855.571 L928.085,857.524 C922.882,858.43 921.226,858.821 918.773,859.774 C914.429,861.383 912.382,863.68 912.382,866.883 C912.382,870.477 915.179,872.727 919.632,872.727 C923.085,872.727 926.179,871.321 928.335,868.774 C929.132,871.321 930.382,872.321 932.726,872.321 C934.976,872.321 937.335,870.883 937.335,869.43 C937.335,869.071 937.132,868.821 936.835,868.821 C936.632,868.821 936.429,868.883 936.085,869.024 C935.382,869.321 935.085,869.383 934.679,869.383 C933.273,869.383 932.773,868.477 932.773,865.93 L932.773,855.883 M928.085,861.977 C928.085,864.977 927.929,865.68 927.085,866.977 C925.835,868.821 923.585,870.071 921.382,870.071 C919.085,870.071 917.429,868.43 917.429,866.18 C917.429,864.071 918.476,862.571 920.679,861.524 C922.226,860.821 924.179,860.321 928.085,859.68 L928.085,861.977 "/>
<path class="Lyrics" d="M1343.13,848.68 L1343.13,845.821 C1343.13,843.321 1343.29,841.68 1343.68,840.68 C1344.49,838.477 1346.24,837.118 1348.24,837.118 C1349.29,837.118 1349.93,837.43 1349.93,837.977 C1349.93,838.18 1349.93,838.227 1349.63,838.618 C1349.34,839.071 1349.18,839.68 1349.18,840.227 C1349.18,841.727 1350.38,842.868 1351.93,842.868 C1353.59,842.868 1354.74,841.618 1354.74,839.821 C1354.74,836.93 1352.24,835.118 1348.18,835.118 C1344.74,835.118 1342.18,836.321 1340.43,838.821 C1338.93,840.93 1338.43,843.071 1338.43,847.133 L1338.43,848.68 L1334.04,848.68 L1334.04,850.821 L1338.43,850.821 L1338.43,868.18 C1338.38,868.883 1338.34,869.18 1338.13,869.477 C1337.79,869.93 1336.84,870.133 1334.68,870.18 L1334.49,870.18 L1334.49,871.977 L1347.84,871.977 L1347.84,870.18 L1346.93,870.18 C1343.59,870.071 1343.13,869.821 1343.13,868.024 L1343.13,850.821 L1348.63,850.821 L1348.63,848.68 L1343.13,848.68 M1371.68,855.883 C1371.68,852.727 1371.13,851.133 1369.68,849.93 C1368.04,848.571 1365.59,847.93 1362.38,847.93 C1356.74,847.93 1352.63,850.571 1352.63,854.227 C1352.63,856.071 1353.79,857.274 1355.54,857.274 C1357.13,857.274 1358.24,856.227 1358.24,854.727 C1358.24,854.071 1357.99,853.383 1357.49,852.68 C1357.18,852.321 1357.13,852.227 1357.13,851.977 C1357.13,850.977 1359.13,850.071 1361.54,850.071 C1363.13,850.071 1364.88,850.571 1365.68,851.321 C1366.63,852.133 1366.99,853.321 1366.99,855.571 L1366.99,857.524 C1361.79,858.43 1360.13,858.821 1357.68,859.774 C1353.34,861.383 1351.29,863.68 1351.29,866.883 C1351.29,870.477 1354.09,872.727 1358.54,872.727 C1361.99,872.727 1365.09,871.321 1367.24,868.774 C1368.04,871.321 1369.29,872.321 1371.63,872.321 C1373.88,872.321 1376.24,870.883 1376.24,869.43 C1376.24,869.071 1376.04,868.821 1375.74,868.821 C1375.54,868.821 1375.34,868.883 1374.99,869.024 C1374.29,869.321 1373.99,869.383 1373.59,869.383 C1372.18,869.383 1371.68,868.477 1371.68,865.93 L1371.68,855.883 M1366.99,861.977 C1366.99,864.977 1366.84,865.68 1365.99,866.977 C1364.74,868.821 1362.49,870.071 1360.29,870.071 C1357.99,870.071 1356.34,868.43 1356.34,866.18 C1356.34,864.071 1357.38,862.571 1359.59,861.524 C1361.13,860.821 1363.09,860.321 1366.99,859.68 L1366.99,861.977 "/>
<path class="Lyrics" d="M695.976,848.133 L694.226,848.133 L692.773,849.93 C690.976,848.524 689.179,847.93 686.679,847.93 C682.273,847.93 679.382,850.774 679.382,855.18 C679.382,859.883 682.429,861.071 686.429,862.024 L689.07,862.633 C693.023,863.571 694.429,864.571 694.429,866.571 C694.429,868.93 692.382,870.571 689.476,870.571 C685.226,870.571 682.226,867.883 681.023,862.883 L679.023,862.883 L679.023,872.321 L680.773,872.321 L682.523,870.274 C684.57,871.93 686.82,872.727 689.382,872.727 C694.273,872.727 697.523,869.68 697.523,865.024 C697.523,862.821 696.82,861.133 695.429,859.977 C694.226,858.93 693.226,858.524 690.179,857.883 L687.679,857.321 C684.929,856.727 684.929,856.727 684.023,856.227 C682.929,855.727 682.273,854.68 682.273,853.571 C682.273,851.524 684.179,850.133 686.929,850.133 C691.023,850.133 693.023,853.024 694.226,856.524 L695.976,856.524 L695.976,848.133 M707.429,836.227 C705.82,836.227 704.523,837.524 704.523,839.118 C704.523,840.727 705.82,842.024 707.382,842.024 C709.023,842.024 710.32,840.727 710.32,839.118 C710.32,837.524 709.023,836.227 707.429,836.227 M709.773,848.68 L700.382,849.227 L700.382,851.383 L702.929,851.383 C704.82,851.43 705.07,851.727 705.07,853.883 L705.07,868.18 C705.023,868.93 704.976,869.227 704.773,869.477 C704.429,869.93 703.476,870.133 701.32,870.18 L700.976,870.18 L700.976,871.977 L713.929,871.977 L713.929,870.18 L713.57,870.18 C710.226,870.071 709.773,869.821 709.773,868.024 L709.773,848.68 "/>
<path class="Lyrics" d="M1781.4,848.68 L1772.54,849.227 L1772.54,851.383 L1774.59,851.383 C1776.49,851.43 1776.74,851.727 1776.74,853.883 L1776.74,868.18 C1776.69,868.93 1776.65,869.227 1776.44,869.477 C1776.09,869.93 1775.09,870.133 1772.94,870.18 L1772.74,870.18 L1772.74,871.977 L1786.09,871.977 L1786.09,870.18 L1785.19,870.18 C1781.84,870.071 1781.4,869.821 1781.4,868.024 L1781.4,865.321 C1781.44,856.93 1784.44,850.524 1788.34,850.321 C1787.65,851.133 1787.44,851.633 1787.44,852.571 C1787.44,854.18 1788.59,855.321 1790.19,855.321 C1792.04,855.321 1793.24,853.977 1793.24,851.977 C1793.24,849.524 1791.54,847.93 1788.9,847.93 C1785.74,847.93 1783.04,850.43 1781.4,854.883 L1781.4,848.68 M1816.74,860.727 C1816.79,853.227 1812.54,847.93 1806.44,847.93 C1800.04,847.93 1795.24,853.477 1795.24,860.977 C1795.24,868.024 1799.79,872.727 1806.54,872.727 C1811.34,872.727 1814.69,870.383 1816.74,865.633 L1814.99,864.68 C1812.94,868.524 1810.84,870.024 1807.49,870.024 C1804.94,870.024 1803.09,868.977 1801.79,866.727 C1800.9,865.227 1800.49,863.477 1800.54,860.727 L1816.74,860.727 M1800.59,858.571 C1800.59,855.071 1802.19,850.071 1806.4,850.071 C1809.4,850.071 1811.4,852.727 1811.4,856.774 C1811.4,858.18 1810.94,858.571 1809.34,858.571 L1800.59,858.571 "/>
<path class="Lyrics" d="M468.273,872.321 L476.976,871.977 L476.976,869.821 L476.07,869.821 C473.226,869.68 472.976,869.383 472.976,866.18 L472.976,835.118 L463.179,835.68 L463.179,837.821 L466.117,837.821 C468.023,837.868 468.273,838.18 468.273,840.321 L468.273,851.633 C466.429,849.071 464.273,847.93 461.367,847.93 C455.726,847.93 451.429,853.383 451.429,860.571 C451.429,867.68 455.57,872.727 461.367,872.727 C464.523,872.727 466.679,871.383 468.273,868.383 L468.273,872.321 M462.367,850.633 C464.429,850.633 466.367,852.133 467.273,854.43 C467.929,855.93 468.226,857.977 468.226,860.43 C468.226,866.274 465.929,870.024 462.32,870.024 C458.773,870.024 456.679,866.727 456.679,861.18 C456.679,858.18 456.976,855.93 457.617,854.274 C458.476,852.024 460.32,850.633 462.367,850.633 M490.867,847.93 C484.726,847.93 479.976,853.383 479.976,860.383 C479.976,867.227 484.773,872.727 490.773,872.727 C496.773,872.727 501.57,867.227 501.57,860.321 C501.57,853.477 496.773,847.93 490.867,847.93 M490.867,850.071 C494.367,850.071 496.32,853.727 496.32,860.321 C496.32,866.977 494.367,870.571 490.773,870.571 C487.179,870.571 485.226,866.977 485.226,860.383 C485.226,853.571 487.117,850.071 490.867,850.071"/>
<path class="Lyrics" d="M1555.34,848.68 L1546.44,849.227 L1546.44,851.383 L1548.49,851.383 C1550.38,851.43 1550.63,851.727 1550.63,853.883 L1550.63,868.18 C1550.59,868.93 1550.54,869.227 1550.34,869.477 C1549.99,869.93 1549.04,870.133 1546.88,870.18 L1546.69,870.18 L1546.69,871.977 L1559.29,871.977 L1559.29,870.18 L1559.09,870.18 C1555.79,870.071 1555.34,869.821 1555.34,867.977 L1555.34,858.727 C1555.34,854.274 1557.79,850.977 1561.04,850.977 C1563.88,850.977 1565.34,853.024 1565.34,857.071 L1565.34,868.227 C1565.29,868.883 1565.24,869.227 1564.99,869.477 C1564.69,869.93 1563.69,870.133 1561.54,870.18 L1561.34,870.18 L1561.34,871.977 L1573.99,871.977 L1573.99,870.18 L1573.79,870.18 C1570.49,870.071 1570.04,869.821 1570.04,868.024 L1570.04,859.18 C1570.04,854.18 1572.29,850.977 1575.79,850.977 C1578.65,850.977 1580.04,853.133 1580.04,857.633 L1580.04,868.18 C1579.99,868.883 1579.94,869.227 1579.69,869.477 C1579.4,869.93 1578.4,870.133 1576.24,870.18 L1576.04,870.18 L1576.04,871.977 L1588.69,871.977 L1588.69,870.18 L1588.49,870.18 C1585.19,870.071 1584.74,869.821 1584.74,867.977 L1584.74,856.633 C1584.74,853.524 1584.44,852.477 1583.15,850.774 C1581.69,848.93 1579.65,847.93 1577.24,847.93 C1573.99,847.93 1571.59,849.477 1569.44,852.93 C1568.59,849.93 1565.88,847.93 1562.54,847.93 C1559.49,847.93 1557.29,849.383 1555.34,852.524 L1555.34,848.68 M1597.24,836.227 C1595.63,836.227 1594.34,837.524 1594.34,839.118 C1594.34,840.727 1595.63,842.024 1597.19,842.024 C1598.84,842.024 1600.13,840.727 1600.13,839.118 C1600.13,837.524 1598.84,836.227 1597.24,836.227 M1599.59,848.68 L1590.19,849.227 L1590.19,851.383 L1592.74,851.383 C1594.63,851.43 1594.88,851.727 1594.88,853.883 L1594.88,868.18 C1594.84,868.93 1594.79,869.227 1594.59,869.477 C1594.24,869.93 1593.29,870.133 1591.13,870.18 L1590.79,870.18 L1590.79,871.977 L1603.74,871.977 L1603.74,870.18 L1603.38,870.18 C1600.04,870.071 1599.59,869.821 1599.59,868.024 L1599.59,848.68 "/>
<path class="Lyrics" d="M1122.88,848.133 L1121.13,848.133 L1119.68,849.93 C1117.88,848.524 1116.09,847.93 1113.59,847.93 C1109.18,847.93 1106.29,850.774 1106.29,855.18 C1106.29,859.883 1109.34,861.071 1113.34,862.024 L1115.98,862.633 C1119.93,863.571 1121.34,864.571 1121.34,866.571 C1121.34,868.93 1119.29,870.571 1116.38,870.571 C1112.13,870.571 1109.13,867.883 1107.93,862.883 L1105.93,862.883 L1105.93,872.321 L1107.68,872.321 L1109.43,870.274 C1111.48,871.93 1113.73,872.727 1116.29,872.727 C1121.18,872.727 1124.43,869.68 1124.43,865.024 C1124.43,862.821 1123.73,861.133 1122.34,859.977 C1121.13,858.93 1120.13,858.524 1117.09,857.883 L1114.59,857.321 C1111.84,856.727 1111.84,856.727 1110.93,856.227 C1109.84,855.727 1109.18,854.68 1109.18,853.571 C1109.18,851.524 1111.09,850.133 1113.84,850.133 C1117.93,850.133 1119.93,853.024 1121.13,856.524 L1122.88,856.524 L1122.88,848.133 M1138.98,847.93 C1132.84,847.93 1128.09,853.383 1128.09,860.383 C1128.09,867.227 1132.88,872.727 1138.88,872.727 C1144.88,872.727 1149.68,867.227 1149.68,860.321 C1149.68,853.477 1144.88,847.93 1138.98,847.93 M1138.98,850.071 C1142.48,850.071 1144.43,853.727 1144.43,860.321 C1144.43,866.977 1142.48,870.571 1138.88,870.571 C1135.29,870.571 1133.34,866.977 1133.34,860.383 C1133.34,853.571 1135.23,850.071 1138.98,850.071 M1161.59,835.118 L1152.34,835.68 L1152.34,837.821 L1154.79,837.821 C1156.63,837.868 1156.88,838.18 1156.88,840.321 L1156.88,868.18 C1156.84,868.93 1156.79,869.227 1156.59,869.477 C1156.23,869.93 1155.29,870.133 1153.13,870.18 L1152.79,870.18 L1152.79,871.977 L1165.73,871.977 L1165.73,870.18 L1165.38,870.18 C1162.04,870.071 1161.59,869.821 1161.59,868.024 L1161.59,835.118 "/>
<path class="Lyrics" d="M2006.19,872.321 L2014.9,871.977 L2014.9,869.821 L2013.99,869.821 C2011.15,869.68 2010.9,869.383 2010.9,866.18 L2010.9,835.118 L2001.1,835.68 L2001.1,837.821 L2004.04,837.821 C2005.94,837.868 2006.19,838.18 2006.19,840.321 L2006.19,851.633 C2004.35,849.071 2002.19,847.93 1999.29,847.93 C1993.65,847.93 1989.35,853.383 1989.35,860.571 C1989.35,867.68 1993.49,872.727 1999.29,872.727 C2002.44,872.727 2004.6,871.383 2006.19,868.383 L2006.19,872.321 M2000.29,850.633 C2002.35,850.633 2004.29,852.133 2005.19,854.43 C2005.85,855.93 2006.15,857.977 2006.15,860.43 C2006.15,866.274 2003.85,870.024 2000.24,870.024 C1996.69,870.024 1994.6,866.727 1994.6,861.18 C1994.6,858.18 1994.9,855.93 1995.54,854.274 C1996.4,852.024 1998.24,850.633 2000.29,850.633 M2028.79,847.93 C2022.65,847.93 2017.9,853.383 2017.9,860.383 C2017.9,867.227 2022.69,872.727 2028.69,872.727 C2034.69,872.727 2039.49,867.227 2039.49,860.321 C2039.49,853.477 2034.69,847.93 2028.79,847.93 M2028.79,850.071 C2032.29,850.071 2034.24,853.727 2034.24,860.321 C2034.24,866.977 2032.29,870.571 2028.69,870.571 C2025.1,870.571 2023.15,866.977 2023.15,860.383 C2023.15,853.571 2025.04,850.071 2028.79,850.071"/>
<path class="StaffText" d="M471.754,326.195 C470.067,328.242 465.458,329.789 460.864,329.899 L460.864,332.039 L465.254,332.039 C468.161,332.102 468.458,332.399 468.364,335.195 L468.364,355.242 C468.364,357.805 468.364,357.899 468.067,358.352 C467.661,358.852 466.708,359.055 463.911,359.055 L460.661,359.055 L460.661,361.399 L480.458,361.399 L480.458,359.055 L477.708,359.055 C474.911,359.055 473.958,358.852 473.567,358.352 C473.208,357.899 473.208,357.852 473.208,355.242 L473.208,334.602 C473.208,331.789 473.317,329.445 473.567,326.195 L471.754,326.195 M500.208,345.695 L525.411,345.695 L525.411,341.695 L500.208,341.695 L500.208,345.695 M500.208,355.805 L525.411,355.805 L525.411,351.805 L500.208,351.805 L500.208,355.805 M560.567,324.602 L558.458,324.602 L546.958,353.742 C545.614,357.649 544.317,358.852 541.458,359.055 L541.254,359.055 L541.254,361.399 L554.504,361.399 L554.504,359.055 L553.504,359.055 C550.817,359.055 549.458,358.102 549.458,356.195 C549.458,355.555 549.614,354.945 549.911,354.102 L551.567,349.695 L564.817,349.695 L567.52,356.399 C567.817,357.195 567.911,357.492 567.911,357.742 C567.911,358.555 566.661,359.055 564.817,359.055 L562.708,359.055 L562.708,361.399 L578.208,361.399 L578.208,359.055 L577.52,359.055 C574.911,358.992 574.458,358.695 573.317,355.852 L560.567,324.602 M558.114,332.789 L563.754,346.992 L552.567,346.992 L558.114,332.789 "/>
<path class="Page" d="M222.703,231.739 C222.703,227.176 223.688,215.52 229.969,215.52 C231.344,215.52 232.328,216.02 232.328,216.786 C232.328,217.176 232.266,217.333 231.891,217.833 C231.172,218.77 230.781,219.973 230.781,221.083 C230.781,223.551 232.766,225.317 235.625,225.317 C238.766,225.317 240.734,223.38 240.734,220.364 C240.734,215.63 236.719,212.661 230.453,212.661 C225.172,212.661 221.109,214.692 217.922,218.926 C214.672,223.161 213.188,228.223 213.188,234.77 C213.188,240.27 214.344,244.176 216.922,247.364 C219.625,250.661 223.313,252.364 227.813,252.364 C235.906,252.364 241.781,246.926 241.781,239.333 C241.781,232.739 237.281,228.114 230.734,228.114 C227.156,228.114 225.016,229.114 222.703,231.739 M227.875,232.239 C230.734,232.348 232.219,234.989 232.219,239.942 C232.219,246.317 230.625,249.786 227.703,249.786 C224.734,249.786 223.031,246.598 223.031,240.926 C223.031,238.958 223.203,237.239 223.469,235.973 C224.078,233.614 225.781,232.13 227.875,232.239"/>
<path class="Bracket" transform="matrix(3.596,0,0,4.11379,181.331,797.577)" d="M0.90625,-50 C2.70313,-51.9063 6.20313,-55.7969 6.20313,-63 C6.20313,-72.1094 2.29688,-81.3125 2.29688,-87 C2.29688,-93.1094 5.79688,-98.8125 6,-99 C6,-99.1094 6,-99.1094 6,-99.2031 C6,-99.3125 6,-99.4063 5.90625,-99.5 C5.79688,-99.5 5.59375,-99.5 5.5,-99.3125 C5.40625,-99.2031 0,-93.8125 0,-85.6094 C0,-76.8125 3.5,-70.6094 3.5,-59.1094 C3.5,-56.9063 2.59375,-53.4063 0.09375,-50.2969 C0,-50.2969 0,-50.1094 -0.09375,-50 C-0.09375,-49.9063 0,-49.7969 0.09375,-49.7031 C2.59375,-46.6094 3.5,-43.1094 3.5,-40.9063 C3.5,-29.4063 0,-23.2031 0,-14.4063 C0,-6.29688 5.40625,-0.796875 5.5,-0.703125 C5.59375,-0.5 5.79688,-0.40625 5.90625,-0.5 C6,-0.59375 6.09375,-0.703125 6,-0.796875 C6,-0.796875 6,-0.90625 6,-1 C5.79688,-1.20313 2.29688,-6.90625 2.29688,-13 C2.29688,-18.7031 6.20313,-27.9063 6.20313,-37 C6.20313,-44.2969 2.70313,-48.1094 0.90625,-50"/>
</svg>
