<?xml version="1.0" encoding="UTF-8" standalone="no"?>
<svg width="2520px" height="1008px" viewBox="0 0 2520 1008"
 xmlns="http://www.w3.org/2000/svg" xmlns:xlink="http://www.w3.org/1999/xlink" version="1.2" baseProfile="tiny">
<title>大调调性 (3)</title>
<desc>Generated by MuseScore Studio 4.4.4</desc>
<path class="" fill="#ffffff" fill-rule="evenodd" d="M0,0 L2520,0 L2520,1008 L0,1008 L0,0 "/>
<polyline class="StaffLines" fill="none" stroke="#000000" stroke-width="2.73" stroke-linejoin="bevel" points="212.598,386.199 2307.8,386.199"/>
<polyline class="StaffLines" fill="none" stroke="#000000" stroke-width="2.73" stroke-linejoin="bevel" points="212.598,410.999 2307.8,410.999"/>
<polyline class="StaffLines" fill="none" stroke="#000000" stroke-width="2.73" stroke-linejoin="bevel" points="212.598,435.799 2307.8,435.799"/>
<polyline class="StaffLines" fill="none" stroke="#000000" stroke-width="2.73" stroke-linejoin="bevel" points="212.598,460.599 2307.8,460.599"/>
<polyline class="StaffLines" fill="none" stroke="#000000" stroke-width="2.73" stroke-linejoin="bevel" points="212.598,485.399 2307.8,485.399"/>
<polyline class="StaffLines" fill="none" stroke="#000000" stroke-width="2.73" stroke-linejoin="bevel" points="212.598,673.577 2307.8,673.577"/>
<polyline class="StaffLines" fill="none" stroke="#000000" stroke-width="2.73" stroke-linejoin="bevel" points="212.598,698.377 2307.8,698.377"/>
<polyline class="StaffLines" fill="none" stroke="#000000" stroke-width="2.73" stroke-linejoin="bevel" points="212.598,723.177 2307.8,723.177"/>
<polyline class="StaffLines" fill="none" stroke="#000000" stroke-width="2.73" stroke-linejoin="bevel" points="212.598,747.977 2307.8,747.977"/>
<polyline class="StaffLines" fill="none" stroke="#000000" stroke-width="2.73" stroke-linejoin="bevel" points="212.598,772.777 2307.8,772.777"/>
<path class="MeasureNumber" d="M229.958,308.286 L228.801,308.286 C226.598,309.927 222.364,311.317 219.473,311.317 L219.005,313.083 L221.755,313.083 C224.192,313.083 224.473,313.161 224.473,313.88 C224.473,314.239 224.473,314.239 224.083,315.677 L219.801,331.677 C219.27,333.677 219.239,333.802 218.88,334.161 C218.473,334.552 217.63,334.677 215.52,334.724 L213.801,334.724 L213.598,336.599 L228.395,336.599 L228.63,334.724 L226.473,334.724 C223.88,334.724 223.317,334.52 223.317,333.645 C223.317,333.364 223.473,332.442 223.676,331.677 L229.958,308.286 M256.036,308.442 C253.911,308.677 251.317,308.849 249.083,308.849 C247.958,308.849 246.676,308.802 245.239,308.724 C243.911,308.645 242.598,308.567 241.239,308.489 L240.239,308.442 L236.364,316.88 L237.833,317.364 L238.801,315.755 C240.676,312.645 241.551,312.208 245.63,312.239 L252.395,312.239 L248.036,318.489 C242.911,325.677 242.911,325.677 240.958,328.88 C239.192,331.724 238.473,333.474 238.473,334.911 C238.473,336.317 239.364,337.192 240.755,337.192 C242.239,337.192 242.989,336.474 243.52,334.599 C245.52,327.083 246.723,324.474 252.27,315.489 L256.036,309.645 L256.036,308.442 "/>
<polyline class="BarLine" fill="none" stroke="#000000" stroke-width="4.46" stroke-linejoin="bevel" points="214.83,384.835 214.83,673.577"/>
<polyline class="BarLine" fill="none" stroke="#000000" stroke-width="4.46" stroke-linejoin="bevel" points="1976.59,384.835 1976.59,673.577"/>
<polyline class="BarLine" fill="none" stroke="#000000" stroke-width="4.46" stroke-linejoin="bevel" points="1056.62,384.835 1056.62,673.577"/>
<polyline class="BarLine" fill="none" stroke="#000000" stroke-width="4.46" stroke-linejoin="bevel" points="1286.61,384.835 1286.61,673.577"/>
<polyline class="BarLine" fill="none" stroke="#000000" stroke-width="4.46" stroke-linejoin="bevel" points="826.624,384.835 826.624,673.577"/>
<polyline class="BarLine" fill="none" stroke="#000000" stroke-width="4.46" stroke-linejoin="bevel" points="1746.6,384.835 1746.6,673.577"/>
<polyline class="BarLine" fill="none" stroke="#000000" stroke-width="4.46" stroke-linejoin="bevel" points="1516.6,384.835 1516.6,673.577"/>
<polyline class="BarLine" fill="none" stroke="#000000" stroke-width="4.46" stroke-linejoin="bevel" points="596.631,384.835 596.631,673.577"/>
<polyline class="BarLine" fill="none" stroke="#000000" stroke-width="4.46" stroke-linejoin="bevel" points="2206.58,384.835 2206.58,673.577"/>
<polyline class="BarLine" fill="none" stroke="#000000" stroke-width="13.64" stroke-linejoin="bevel" points="2224.81,384.835 2224.81,673.577"/>
<polyline class="BarLine" fill="none" stroke="#000000" stroke-width="4.46" stroke-linejoin="bevel" points="2206.58,672.213 2206.58,774.141"/>
<polyline class="BarLine" fill="none" stroke="#000000" stroke-width="13.64" stroke-linejoin="bevel" points="2224.81,672.213 2224.81,774.141"/>
<polyline class="BarLine" fill="none" stroke="#000000" stroke-width="4.46" stroke-linejoin="bevel" points="1056.62,672.213 1056.62,774.141"/>
<polyline class="BarLine" fill="none" stroke="#000000" stroke-width="4.46" stroke-linejoin="bevel" points="214.83,672.213 214.83,774.141"/>
<polyline class="BarLine" fill="none" stroke="#000000" stroke-width="4.46" stroke-linejoin="bevel" points="1976.59,672.213 1976.59,774.141"/>
<polyline class="BarLine" fill="none" stroke="#000000" stroke-width="4.46" stroke-linejoin="bevel" points="1516.6,672.213 1516.6,774.141"/>
<polyline class="BarLine" fill="none" stroke="#000000" stroke-width="4.46" stroke-linejoin="bevel" points="1286.61,672.213 1286.61,774.141"/>
<polyline class="BarLine" fill="none" stroke="#000000" stroke-width="4.46" stroke-linejoin="bevel" points="826.624,672.213 826.624,774.141"/>
<polyline class="BarLine" fill="none" stroke="#000000" stroke-width="4.46" stroke-linejoin="bevel" points="1746.6,672.213 1746.6,774.141"/>
<polyline class="BarLine" fill="none" stroke="#000000" stroke-width="4.46" stroke-linejoin="bevel" points="596.631,672.213 596.631,774.141"/>
<polyline class="LedgerLine" fill="none" stroke="#000000" stroke-width="3.97" stroke-linejoin="bevel" points="391.686,623.977 445.052,623.977"/>
<polyline class="LedgerLine" fill="none" stroke="#000000" stroke-width="3.97" stroke-linejoin="bevel" points="1081.67,648.777 1135.03,648.777"/>
<polyline class="LedgerLine" fill="none" stroke="#000000" stroke-width="3.97" stroke-linejoin="bevel" points="851.672,648.777 905.039,648.777"/>
<polyline class="LedgerLine" fill="none" stroke="#000000" stroke-width="3.97" stroke-linejoin="bevel" points="621.679,623.977 675.045,623.977"/>
<polyline class="LedgerLine" fill="none" stroke="#000000" stroke-width="3.97" stroke-linejoin="bevel" points="621.679,648.777 675.045,648.777"/>
<polyline class="LedgerLine" fill="none" stroke="#000000" stroke-width="3.97" stroke-linejoin="bevel" points="391.686,648.777 445.052,648.777"/>
<path class="Note" transform="matrix(0.992001,0,0,0.992001,629.863,460.599)" d="M18.7031,-13.5938 C4.90625,-13.5938 0,-6.59375 0,-0.09375 C0,6.40625 4.90625,13.4063 18.7031,13.4063 C32.5,13.4063 37.2969,6.40625 37.2969,-0.09375 C37.2969,-6.59375 32.5,-13.5938 18.7031,-13.5938 M19.5,10.2031 C16.7031,10.2031 14.7969,9.40625 13.5,6.90625 C12.2031,4.40625 10.4063,-2.09375 10.2969,-4.70313 C10.0938,-7.40625 11.0938,-9 13.5,-9.79688 C14.7031,-10.2031 16.2969,-10.4063 17.9063,-10.4063 C20.5938,-10.4063 22.4063,-9.79688 23.7969,-7.09375 C25.2031,-4.5 27.1094,2 27.1094,4.5 C27.1094,9.40625 23.5,10.2031 19.5,10.2031"/>
<path class="Note" transform="matrix(0.992001,0,0,0.992001,1319.84,423.399)" d="M18.7031,-13.5938 C4.90625,-13.5938 0,-6.59375 0,-0.09375 C0,6.40625 4.90625,13.4063 18.7031,13.4063 C32.5,13.4063 37.2969,6.40625 37.2969,-0.09375 C37.2969,-6.59375 32.5,-13.5938 18.7031,-13.5938 M19.5,10.2031 C16.7031,10.2031 14.7969,9.40625 13.5,6.90625 C12.2031,4.40625 10.4063,-2.09375 10.2969,-4.70313 C10.0938,-7.40625 11.0938,-9 13.5,-9.79688 C14.7031,-10.2031 16.2969,-10.4063 17.9063,-10.4063 C20.5938,-10.4063 22.4063,-9.79688 23.7969,-7.09375 C25.2031,-4.5 27.1094,2 27.1094,4.5 C27.1094,9.40625 23.5,10.2031 19.5,10.2031"/>
<path class="Note" transform="matrix(0.992001,0,0,0.992001,1549.84,410.999)" d="M18.7031,-13.5938 C4.90625,-13.5938 0,-6.59375 0,-0.09375 C0,6.40625 4.90625,13.4063 18.7031,13.4063 C32.5,13.4063 37.2969,6.40625 37.2969,-0.09375 C37.2969,-6.59375 32.5,-13.5938 18.7031,-13.5938 M19.5,10.2031 C16.7031,10.2031 14.7969,9.40625 13.5,6.90625 C12.2031,4.40625 10.4063,-2.09375 10.2969,-4.70313 C10.0938,-7.40625 11.0938,-9 13.5,-9.79688 C14.7031,-10.2031 16.2969,-10.4063 17.9063,-10.4063 C20.5938,-10.4063 22.4063,-9.79688 23.7969,-7.09375 C25.2031,-4.5 27.1094,2 27.1094,4.5 C27.1094,9.40625 23.5,10.2031 19.5,10.2031"/>
<path class="Note" transform="matrix(0.992001,0,0,0.992001,1779.83,398.599)" d="M18.7031,-13.5938 C4.90625,-13.5938 0,-6.59375 0,-0.09375 C0,6.40625 4.90625,13.4063 18.7031,13.4063 C32.5,13.4063 37.2969,6.40625 37.2969,-0.09375 C37.2969,-6.59375 32.5,-13.5938 18.7031,-13.5938 M19.5,10.2031 C16.7031,10.2031 14.7969,9.40625 13.5,6.90625 C12.2031,4.40625 10.4063,-2.09375 10.2969,-4.70313 C10.0938,-7.40625 11.0938,-9 13.5,-9.79688 C14.7031,-10.2031 16.2969,-10.4063 17.9063,-10.4063 C20.5938,-10.4063 22.4063,-9.79688 23.7969,-7.09375 C25.2031,-4.5 27.1094,2 27.1094,4.5 C27.1094,9.40625 23.5,10.2031 19.5,10.2031"/>
<path class="Note" transform="matrix(0.992001,0,0,0.992001,399.87,472.999)" d="M18.7031,-13.5938 C4.90625,-13.5938 0,-6.59375 0,-0.09375 C0,6.40625 4.90625,13.4063 18.7031,13.4063 C32.5,13.4063 37.2969,6.40625 37.2969,-0.09375 C37.2969,-6.59375 32.5,-13.5938 18.7031,-13.5938 M19.5,10.2031 C16.7031,10.2031 14.7969,9.40625 13.5,6.90625 C12.2031,4.40625 10.4063,-2.09375 10.2969,-4.70313 C10.0938,-7.40625 11.0938,-9 13.5,-9.79688 C14.7031,-10.2031 16.2969,-10.4063 17.9063,-10.4063 C20.5938,-10.4063 22.4063,-9.79688 23.7969,-7.09375 C25.2031,-4.5 27.1094,2 27.1094,4.5 C27.1094,9.40625 23.5,10.2031 19.5,10.2031"/>
<path class="Note" transform="matrix(0.992001,0,0,0.992001,2009.82,386.199)" d="M18.7031,-13.5938 C4.90625,-13.5938 0,-6.59375 0,-0.09375 C0,6.40625 4.90625,13.4063 18.7031,13.4063 C32.5,13.4063 37.2969,6.40625 37.2969,-0.09375 C37.2969,-6.59375 32.5,-13.5938 18.7031,-13.5938 M19.5,10.2031 C16.7031,10.2031 14.7969,9.40625 13.5,6.90625 C12.2031,4.40625 10.4063,-2.09375 10.2969,-4.70313 C10.0938,-7.40625 11.0938,-9 13.5,-9.79688 C14.7031,-10.2031 16.2969,-10.4063 17.9063,-10.4063 C20.5938,-10.4063 22.4063,-9.79688 23.7969,-7.09375 C25.2031,-4.5 27.1094,2 27.1094,4.5 C27.1094,9.40625 23.5,10.2031 19.5,10.2031"/>
<path class="Note" transform="matrix(0.992001,0,0,0.992001,859.856,448.199)" d="M18.7031,-13.5938 C4.90625,-13.5938 0,-6.59375 0,-0.09375 C0,6.40625 4.90625,13.4063 18.7031,13.4063 C32.5,13.4063 37.2969,6.40625 37.2969,-0.09375 C37.2969,-6.59375 32.5,-13.5938 18.7031,-13.5938 M19.5,10.2031 C16.7031,10.2031 14.7969,9.40625 13.5,6.90625 C12.2031,4.40625 10.4063,-2.09375 10.2969,-4.70313 C10.0938,-7.40625 11.0938,-9 13.5,-9.79688 C14.7031,-10.2031 16.2969,-10.4063 17.9063,-10.4063 C20.5938,-10.4063 22.4063,-9.79688 23.7969,-7.09375 C25.2031,-4.5 27.1094,2 27.1094,4.5 C27.1094,9.40625 23.5,10.2031 19.5,10.2031"/>
<path class="Note" transform="matrix(0.992001,0,0,0.992001,1089.85,435.799)" d="M18.7031,-13.5938 C4.90625,-13.5938 0,-6.59375 0,-0.09375 C0,6.40625 4.90625,13.4063 18.7031,13.4063 C32.5,13.4063 37.2969,6.40625 37.2969,-0.09375 C37.2969,-6.59375 32.5,-13.5938 18.7031,-13.5938 M19.5,10.2031 C16.7031,10.2031 14.7969,9.40625 13.5,6.90625 C12.2031,4.40625 10.4063,-2.09375 10.2969,-4.70313 C10.0938,-7.40625 11.0938,-9 13.5,-9.79688 C14.7031,-10.2031 16.2969,-10.4063 17.9063,-10.4063 C20.5938,-10.4063 22.4063,-9.79688 23.7969,-7.09375 C25.2031,-4.5 27.1094,2 27.1094,4.5 C27.1094,9.40625 23.5,10.2031 19.5,10.2031"/>
<path class="Note" transform="matrix(0.992001,0,0,0.992001,1779.83,685.977)" d="M18.7031,-13.5938 C4.90625,-13.5938 0,-6.59375 0,-0.09375 C0,6.40625 4.90625,13.4063 18.7031,13.4063 C32.5,13.4063 37.2969,6.40625 37.2969,-0.09375 C37.2969,-6.59375 32.5,-13.5938 18.7031,-13.5938 M19.5,10.2031 C16.7031,10.2031 14.7969,9.40625 13.5,6.90625 C12.2031,4.40625 10.4063,-2.09375 10.2969,-4.70313 C10.0938,-7.40625 11.0938,-9 13.5,-9.79688 C14.7031,-10.2031 16.2969,-10.4063 17.9063,-10.4063 C20.5938,-10.4063 22.4063,-9.79688 23.7969,-7.09375 C25.2031,-4.5 27.1094,2 27.1094,4.5 C27.1094,9.40625 23.5,10.2031 19.5,10.2031"/>
<path class="Note" transform="matrix(0.992001,0,0,0.992001,1319.84,661.177)" d="M18.7031,-13.5938 C4.90625,-13.5938 0,-6.59375 0,-0.09375 C0,6.40625 4.90625,13.4063 18.7031,13.4063 C32.5,13.4063 37.2969,6.40625 37.2969,-0.09375 C37.2969,-6.59375 32.5,-13.5938 18.7031,-13.5938 M19.5,10.2031 C16.7031,10.2031 14.7969,9.40625 13.5,6.90625 C12.2031,4.40625 10.4063,-2.09375 10.2969,-4.70313 C10.0938,-7.40625 11.0938,-9 13.5,-9.79688 C14.7031,-10.2031 16.2969,-10.4063 17.9063,-10.4063 C20.5938,-10.4063 22.4063,-9.79688 23.7969,-7.09375 C25.2031,-4.5 27.1094,2 27.1094,4.5 C27.1094,9.40625 23.5,10.2031 19.5,10.2031"/>
<path class="Note" transform="matrix(0.992001,0,0,0.992001,1089.85,648.777)" d="M18.7031,-13.5938 C4.90625,-13.5938 0,-6.59375 0,-0.09375 C0,6.40625 4.90625,13.4063 18.7031,13.4063 C32.5,13.4063 37.2969,6.40625 37.2969,-0.09375 C37.2969,-6.59375 32.5,-13.5938 18.7031,-13.5938 M19.5,10.2031 C16.7031,10.2031 14.7969,9.40625 13.5,6.90625 C12.2031,4.40625 10.4063,-2.09375 10.2969,-4.70313 C10.0938,-7.40625 11.0938,-9 13.5,-9.79688 C14.7031,-10.2031 16.2969,-10.4063 17.9063,-10.4063 C20.5938,-10.4063 22.4063,-9.79688 23.7969,-7.09375 C25.2031,-4.5 27.1094,2 27.1094,4.5 C27.1094,9.40625 23.5,10.2031 19.5,10.2031"/>
<path class="Note" transform="matrix(0.992001,0,0,0.992001,629.863,623.977)" d="M18.7031,-13.5938 C4.90625,-13.5938 0,-6.59375 0,-0.09375 C0,6.40625 4.90625,13.4063 18.7031,13.4063 C32.5,13.4063 37.2969,6.40625 37.2969,-0.09375 C37.2969,-6.59375 32.5,-13.5938 18.7031,-13.5938 M19.5,10.2031 C16.7031,10.2031 14.7969,9.40625 13.5,6.90625 C12.2031,4.40625 10.4063,-2.09375 10.2969,-4.70313 C10.0938,-7.40625 11.0938,-9 13.5,-9.79688 C14.7031,-10.2031 16.2969,-10.4063 17.9063,-10.4063 C20.5938,-10.4063 22.4063,-9.79688 23.7969,-7.09375 C25.2031,-4.5 27.1094,2 27.1094,4.5 C27.1094,9.40625 23.5,10.2031 19.5,10.2031"/>
<path class="Note" transform="matrix(0.992001,0,0,0.992001,399.87,611.577)" d="M18.7031,-13.5938 C4.90625,-13.5938 0,-6.59375 0,-0.09375 C0,6.40625 4.90625,13.4063 18.7031,13.4063 C32.5,13.4063 37.2969,6.40625 37.2969,-0.09375 C37.2969,-6.59375 32.5,-13.5938 18.7031,-13.5938 M19.5,10.2031 C16.7031,10.2031 14.7969,9.40625 13.5,6.90625 C12.2031,4.40625 10.4063,-2.09375 10.2969,-4.70313 C10.0938,-7.40625 11.0938,-9 13.5,-9.79688 C14.7031,-10.2031 16.2969,-10.4063 17.9063,-10.4063 C20.5938,-10.4063 22.4063,-9.79688 23.7969,-7.09375 C25.2031,-4.5 27.1094,2 27.1094,4.5 C27.1094,9.40625 23.5,10.2031 19.5,10.2031"/>
<path class="Note" transform="matrix(0.992001,0,0,0.992001,2009.82,698.377)" d="M18.7031,-13.5938 C4.90625,-13.5938 0,-6.59375 0,-0.09375 C0,6.40625 4.90625,13.4063 18.7031,13.4063 C32.5,13.4063 37.2969,6.40625 37.2969,-0.09375 C37.2969,-6.59375 32.5,-13.5938 18.7031,-13.5938 M19.5,10.2031 C16.7031,10.2031 14.7969,9.40625 13.5,6.90625 C12.2031,4.40625 10.4063,-2.09375 10.2969,-4.70313 C10.0938,-7.40625 11.0938,-9 13.5,-9.79688 C14.7031,-10.2031 16.2969,-10.4063 17.9063,-10.4063 C20.5938,-10.4063 22.4063,-9.79688 23.7969,-7.09375 C25.2031,-4.5 27.1094,2 27.1094,4.5 C27.1094,9.40625 23.5,10.2031 19.5,10.2031"/>
<path class="Note" transform="matrix(0.992001,0,0,0.992001,859.856,636.377)" d="M18.7031,-13.5938 C4.90625,-13.5938 0,-6.59375 0,-0.09375 C0,6.40625 4.90625,13.4063 18.7031,13.4063 C32.5,13.4063 37.2969,6.40625 37.2969,-0.09375 C37.2969,-6.59375 32.5,-13.5938 18.7031,-13.5938 M19.5,10.2031 C16.7031,10.2031 14.7969,9.40625 13.5,6.90625 C12.2031,4.40625 10.4063,-2.09375 10.2969,-4.70313 C10.0938,-7.40625 11.0938,-9 13.5,-9.79688 C14.7031,-10.2031 16.2969,-10.4063 17.9063,-10.4063 C20.5938,-10.4063 22.4063,-9.79688 23.7969,-7.09375 C25.2031,-4.5 27.1094,2 27.1094,4.5 C27.1094,9.40625 23.5,10.2031 19.5,10.2031"/>
<path class="Note" transform="matrix(0.992001,0,0,0.992001,1549.84,673.577)" d="M18.7031,-13.5938 C4.90625,-13.5938 0,-6.59375 0,-0.09375 C0,6.40625 4.90625,13.4063 18.7031,13.4063 C32.5,13.4063 37.2969,6.40625 37.2969,-0.09375 C37.2969,-6.59375 32.5,-13.5938 18.7031,-13.5938 M19.5,10.2031 C16.7031,10.2031 14.7969,9.40625 13.5,6.90625 C12.2031,4.40625 10.4063,-2.09375 10.2969,-4.70313 C10.0938,-7.40625 11.0938,-9 13.5,-9.79688 C14.7031,-10.2031 16.2969,-10.4063 17.9063,-10.4063 C20.5938,-10.4063 22.4063,-9.79688 23.7969,-7.09375 C25.2031,-4.5 27.1094,2 27.1094,4.5 C27.1094,9.40625 23.5,10.2031 19.5,10.2031"/>
<path class="Clef" transform="matrix(0.992001,0,0,0.992001,235.662,460.599)" d="M12.2969,51.2969 C12.2969,57.9063 17.2969,66.6094 30.7969,66.6094 C35.5,66.6094 39.6094,65.4063 43.2031,63.2031 C48.6094,59.4063 50,52.7969 50,46.5 C50,42.6094 49.4063,38.1094 48.4063,32.4063 C48.1094,30.4063 47.5,27.4063 46.9063,23.5 C56.7031,20.2969 64,10.0938 64,-0.203125 C64,-15.2969 53.2969,-25.5 38.7031,-25.5 C37.7031,-31.5 36.7031,-37.4063 35.9063,-43 C46.4063,-54.1094 53.7031,-66.6094 53.7031,-82.5 C53.7031,-91.6094 50.9063,-99 49.2969,-102.609 C46.9063,-107.703 44,-111.203 42.2031,-111.203 C41.5,-111.203 38.4063,-110 35.1094,-106.109 C28.7031,-98.5 26.9063,-85.7031 26.9063,-77.3125 C26.9063,-71.9063 27.4063,-67 29.1094,-55.7969 C29,-55.7031 23.7969,-50.4063 21.7031,-48.7031 C12.5938,-40.2969 0,-28.1094 0,-8.09375 C0,10.5938 16.2969,25.2969 34.9063,25.2969 C37.7969,25.2969 40.5,25 42.7969,24.5938 C44.7031,34.2031 45.9063,41.2031 45.9063,46.5 C45.9063,56.9063 40.5,62.4063 30.4063,62.4063 C28,62.4063 25.9063,61.9063 25.7031,61.9063 C25.6094,61.7969 25.4063,61.7031 25.4063,61.6094 C25.4063,61.4063 25.6094,61.2969 25.9063,61.2969 C30.6094,60.5 35.2969,56.5 35.2969,50.1094 C35.2969,44.7031 31.2031,39 23.7031,39 C16.7031,39 12.2969,44.7031 12.2969,51.2969 M33.2031,-82.2031 C34.1094,-86.2031 38.7031,-96.7031 43.9063,-96.7031 C45.4063,-96.7031 47.7969,-91.9063 47.7969,-84.9063 C47.7969,-74.5 40.1094,-66.7031 33.2031,-59.9063 C32.6094,-63.9063 32.1094,-67.7969 32.1094,-72 C32.1094,-75.7031 32.4063,-79.1094 33.2031,-82.2031 M42,20.5938 C40,21 38.1094,21.2031 36.2031,21.2031 C21.9063,21.2031 9.70313,11.2031 9.70313,-3.90625 C9.70313,-16.0938 18.2969,-27 27.1094,-34.6094 C28.7969,-36.1094 30.4063,-37.5 31.9063,-39 C32.7969,-33.6094 33.5,-28.9063 34.2031,-24.7969 C25.0938,-22.0938 18.9063,-12.5 18.9063,-3.09375 C18.9063,3.90625 24.4063,13.5 32.4063,13.5 C33.2031,13.5 34.1094,13.0938 34.1094,12.2031 C34.1094,11.2969 33.1094,10.7969 31.9063,10 C28,7.59375 25.7969,5 25.7969,0.09375 C25.7969,-6 30.4063,-10.9063 36.2031,-12.2969 L42,20.5938 M56.2031,2.09375 C56.2031,9.20313 53.2969,16.5 46.2031,19.4063 C44.1094,7.40625 41.4063,-8.5 40.7031,-12.9063 C49.7031,-12.9063 56.2031,-6.79688 56.2031,2.09375"/>
<path class="Clef" transform="matrix(0.992001,0,0,0.992001,235.662,698.377)" d="M25.4063,-25.0938 C17.7969,-25.0938 11.7031,-20.7031 11.5938,-20.7031 C5.70313,-16.4063 1.90625,-9.79688 1.90625,-2.5 C1.90625,4.79688 6.09375,10.2031 13.5,10.2031 C19.9063,10.2031 24.9063,5.90625 24.9063,-0.703125 C24.9063,-6.40625 19.9063,-11.0938 14.2969,-11.0938 C13.0938,-11.0938 12,-10.9063 11.0938,-10.5938 C10.0938,-10.2031 8.40625,-9.20313 7.59375,-8.5 C8.29688,-12.9063 11.2969,-17.2969 15.2031,-19.4063 C17.7031,-20.7969 20.9063,-21.4063 24.4063,-21.4063 C34.6094,-21.4063 39.6094,-13.2031 39.6094,3.59375 C39.6094,16.5938 31.2969,35.2969 21.5,44.1094 C11.0938,53.6094 1.29688,58.1094 1.20313,58.1094 C1.20313,58.1094 0,58.7969 0,60 C0,60.2031 0.09375,60.2969 0.09375,60.5 C0.40625,61.5 1.29688,61.7031 2,61.7031 L2.29688,61.6094 C2.5,61.6094 13.9063,56.9063 23,49.7969 C37,39.7031 52.7969,21.9063 52.7969,3.5 C52.7969,-13.9063 43.4063,-25.0938 25.4063,-25.0938 M56.7969,-12.4063 C56.7969,-9.59375 59,-7.40625 61.6094,-7.40625 C64.2031,-7.40625 66.4063,-9.59375 66.4063,-12.4063 C66.4063,-15.2031 64.2031,-17.5 61.6094,-17.5 C59,-17.5 56.7969,-15.2031 56.7969,-12.4063 M56.7969,12.2969 C56.7969,15.0938 59,17.4063 61.6094,17.4063 C64.2031,17.4063 66.4063,15.0938 66.4063,12.2969 C66.4063,9.5 64.2031,7.20313 61.6094,7.20313 C59,7.20313 56.7969,9.5 56.7969,12.2969"/>
<path class="KeySig" transform="matrix(0.992001,0,0,0.992001,320.122,435.799)" d="M12,-15.5 C7,-15.5 4.09375,-12.4063 3.59375,-11.7969 L4,-43.9063 C4,-44.7031 3.40625,-45.2969 2.59375,-45.2969 L1.40625,-45.2969 C0.59375,-45.2969 0,-44.7031 0,-43.9063 L0.5,16.2031 C0.5,17 1.09375,17.5938 1.90625,17.5938 C2.09375,17.5938 2.5,17.5 2.70313,17.4063 C11.2969,13.0938 20.2969,4.90625 20.2969,-5.40625 C20.2969,-10.5938 17.9063,-15.5 12,-15.5 M3.29688,12.7031 L3.59375,-6.79688 C3.79688,-7.70313 5.29688,-10.5938 9.29688,-10.5938 C12.9063,-10.5938 13.2031,-7.20313 13.2031,-5.09375 C13.2031,3.79688 9.90625,7.5 3.29688,12.7031"/>
<path class="KeySig" transform="matrix(0.992001,0,0,0.992001,2244.03,386.199)" d="M23.2969,-10.5 C23.9063,-10.5938 24.4063,-11.2969 24.4063,-11.9063 L24.4063,-17.7969 C24.4063,-18.7969 23.7031,-19.2031 22.7969,-19.2031 L19.5,-18.5 L19.5,-33.4063 L16.7031,-33.4063 L16.7031,-17.9063 L7.79688,-16.0938 L7.79688,-30.2031 L5,-30.2031 L5,-15.5 L1.09375,-14.7031 C0.5,-14.5938 0,-13.9063 0,-13.2969 L0,-7.5 C0,-6.40625 0.796875,-6.09375 1.70313,-6.09375 L5,-6.79688 L5,9.70313 L1.09375,10.5 C0.5,10.5938 0,11.2969 0,11.9063 L0,17.7031 C0,18.7969 0.796875,19.0938 1.70313,19.0938 L5,18.4063 L5,33.2969 L7.79688,33.2969 L7.79688,17.7969 L16.7031,16 L16.7031,30.1094 L19.5,30.1094 L19.5,15.4063 L23.2969,14.7031 C23.9063,14.5938 24.4063,13.9063 24.4063,13.2969 L24.4063,7.40625 C24.4063,6.40625 23.7031,6 22.7969,6 L19.5,6.70313 L19.5,-9.79688 L23.2969,-10.5 M7.79688,-7.40625 L16.7031,-9.20313 L16.7031,7.29688 L7.79688,9.20313 L7.79688,-7.40625 "/>
<path class="KeySig" transform="matrix(0.992001,0,0,0.992001,2271.2,423.399)" d="M23.2969,-10.5 C23.9063,-10.5938 24.4063,-11.2969 24.4063,-11.9063 L24.4063,-17.7969 C24.4063,-18.7969 23.7031,-19.2031 22.7969,-19.2031 L19.5,-18.5 L19.5,-33.4063 L16.7031,-33.4063 L16.7031,-17.9063 L7.79688,-16.0938 L7.79688,-30.2031 L5,-30.2031 L5,-15.5 L1.09375,-14.7031 C0.5,-14.5938 0,-13.9063 0,-13.2969 L0,-7.5 C0,-6.40625 0.796875,-6.09375 1.70313,-6.09375 L5,-6.79688 L5,9.70313 L1.09375,10.5 C0.5,10.5938 0,11.2969 0,11.9063 L0,17.7031 C0,18.7969 0.796875,19.0938 1.70313,19.0938 L5,18.4063 L5,33.2969 L7.79688,33.2969 L7.79688,17.7969 L16.7031,16 L16.7031,30.1094 L19.5,30.1094 L19.5,15.4063 L23.2969,14.7031 C23.9063,14.5938 24.4063,13.9063 24.4063,13.2969 L24.4063,7.40625 C24.4063,6.40625 23.7031,6 22.7969,6 L19.5,6.70313 L19.5,-9.79688 L23.2969,-10.5 M7.79688,-7.40625 L16.7031,-9.20313 L16.7031,7.29688 L7.79688,9.20313 L7.79688,-7.40625 "/>
<path class="KeySig" transform="matrix(0.992001,0,0,0.992001,320.122,747.977)" d="M12,-15.5 C7,-15.5 4.09375,-12.4063 3.59375,-11.7969 L4,-43.9063 C4,-44.7031 3.40625,-45.2969 2.59375,-45.2969 L1.40625,-45.2969 C0.59375,-45.2969 0,-44.7031 0,-43.9063 L0.5,16.2031 C0.5,17 1.09375,17.5938 1.90625,17.5938 C2.09375,17.5938 2.5,17.5 2.70313,17.4063 C11.2969,13.0938 20.2969,4.90625 20.2969,-5.40625 C20.2969,-10.5938 17.9063,-15.5 12,-15.5 M3.29688,12.7031 L3.59375,-6.79688 C3.79688,-7.70313 5.29688,-10.5938 9.29688,-10.5938 C12.9063,-10.5938 13.2031,-7.20313 13.2031,-5.09375 C13.2031,3.79688 9.90625,7.5 3.29688,12.7031"/>
<path class="KeySig" transform="matrix(0.992001,0,0,0.992001,2244.03,698.377)" d="M23.2969,-10.5 C23.9063,-10.5938 24.4063,-11.2969 24.4063,-11.9063 L24.4063,-17.7969 C24.4063,-18.7969 23.7031,-19.2031 22.7969,-19.2031 L19.5,-18.5 L19.5,-33.4063 L16.7031,-33.4063 L16.7031,-17.9063 L7.79688,-16.0938 L7.79688,-30.2031 L5,-30.2031 L5,-15.5 L1.09375,-14.7031 C0.5,-14.5938 0,-13.9063 0,-13.2969 L0,-7.5 C0,-6.40625 0.796875,-6.09375 1.70313,-6.09375 L5,-6.79688 L5,9.70313 L1.09375,10.5 C0.5,10.5938 0,11.2969 0,11.9063 L0,17.7031 C0,18.7969 0.796875,19.0938 1.70313,19.0938 L5,18.4063 L5,33.2969 L7.79688,33.2969 L7.79688,17.7969 L16.7031,16 L16.7031,30.1094 L19.5,30.1094 L19.5,15.4063 L23.2969,14.7031 C23.9063,14.5938 24.4063,13.9063 24.4063,13.2969 L24.4063,7.40625 C24.4063,6.40625 23.7031,6 22.7969,6 L19.5,6.70313 L19.5,-9.79688 L23.2969,-10.5 M7.79688,-7.40625 L16.7031,-9.20313 L16.7031,7.29688 L7.79688,9.20313 L7.79688,-7.40625 "/>
<path class="KeySig" transform="matrix(0.992001,0,0,0.992001,2271.2,735.577)" d="M23.2969,-10.5 C23.9063,-10.5938 24.4063,-11.2969 24.4063,-11.9063 L24.4063,-17.7969 C24.4063,-18.7969 23.7031,-19.2031 22.7969,-19.2031 L19.5,-18.5 L19.5,-33.4063 L16.7031,-33.4063 L16.7031,-17.9063 L7.79688,-16.0938 L7.79688,-30.2031 L5,-30.2031 L5,-15.5 L1.09375,-14.7031 C0.5,-14.5938 0,-13.9063 0,-13.2969 L0,-7.5 C0,-6.40625 0.796875,-6.09375 1.70313,-6.09375 L5,-6.79688 L5,9.70313 L1.09375,10.5 C0.5,10.5938 0,11.2969 0,11.9063 L0,17.7031 C0,18.7969 0.796875,19.0938 1.70313,19.0938 L5,18.4063 L5,33.2969 L7.79688,33.2969 L7.79688,17.7969 L16.7031,16 L16.7031,30.1094 L19.5,30.1094 L19.5,15.4063 L23.2969,14.7031 C23.9063,14.5938 24.4063,13.9063 24.4063,13.2969 L24.4063,7.40625 C24.4063,6.40625 23.7031,6 22.7969,6 L19.5,6.70313 L19.5,-9.79688 L23.2969,-10.5 M7.79688,-7.40625 L16.7031,-9.20313 L16.7031,7.29688 L7.79688,9.20313 L7.79688,-7.40625 "/>
<path class="Lyrics" d="M1556.54,522.939 L1547.29,523.502 L1547.29,525.643 L1549.74,525.643 C1551.58,525.689 1551.83,526.002 1551.83,528.143 L1551.83,556.002 C1551.79,556.752 1551.74,557.049 1551.54,557.299 C1551.18,557.752 1550.24,557.955 1548.08,558.002 L1547.74,558.002 L1547.74,559.799 L1560.68,559.799 L1560.68,558.002 L1560.33,558.002 C1556.99,557.893 1556.54,557.643 1556.54,555.846 L1556.54,522.939 M1584.93,543.705 C1584.93,540.549 1584.38,538.955 1582.93,537.752 C1581.29,536.393 1578.83,535.752 1575.63,535.752 C1569.99,535.752 1565.88,538.393 1565.88,542.049 C1565.88,543.893 1567.04,545.096 1568.79,545.096 C1570.38,545.096 1571.49,544.049 1571.49,542.549 C1571.49,541.893 1571.24,541.205 1570.74,540.502 C1570.43,540.143 1570.38,540.049 1570.38,539.799 C1570.38,538.799 1572.38,537.893 1574.79,537.893 C1576.38,537.893 1578.13,538.393 1578.93,539.143 C1579.88,539.955 1580.24,541.143 1580.24,543.393 L1580.24,545.346 C1575.04,546.252 1573.38,546.643 1570.93,547.596 C1566.58,549.205 1564.54,551.502 1564.54,554.705 C1564.54,558.299 1567.33,560.549 1571.79,560.549 C1575.24,560.549 1578.33,559.143 1580.49,556.596 C1581.29,559.143 1582.54,560.143 1584.88,560.143 C1587.13,560.143 1589.49,558.705 1589.49,557.252 C1589.49,556.893 1589.29,556.643 1588.99,556.643 C1588.79,556.643 1588.58,556.705 1588.24,556.846 C1587.54,557.143 1587.24,557.205 1586.83,557.205 C1585.43,557.205 1584.93,556.299 1584.93,553.752 L1584.93,543.705 M1580.24,549.799 C1580.24,552.799 1580.08,553.502 1579.24,554.799 C1577.99,556.643 1575.74,557.893 1573.54,557.893 C1571.24,557.893 1569.58,556.252 1569.58,554.002 C1569.58,551.893 1570.63,550.393 1572.83,549.346 C1574.38,548.643 1576.33,548.143 1580.24,547.502 L1580.24,549.799 "/>
<path class="Lyrics" d="M1095.9,536.502 L1095.9,533.643 C1095.9,531.143 1096.05,529.502 1096.44,528.502 C1097.25,526.299 1099,524.939 1101,524.939 C1102.05,524.939 1102.69,525.252 1102.69,525.799 C1102.69,526.002 1102.69,526.049 1102.4,526.439 C1102.1,526.893 1101.94,527.502 1101.94,528.049 C1101.94,529.549 1103.15,530.689 1104.69,530.689 C1106.35,530.689 1107.5,529.439 1107.5,527.643 C1107.5,524.752 1105,522.939 1100.94,522.939 C1097.5,522.939 1094.94,524.143 1093.19,526.643 C1091.69,528.752 1091.19,530.893 1091.19,534.955 L1091.19,536.502 L1086.8,536.502 L1086.8,538.643 L1091.19,538.643 L1091.19,556.002 C1091.15,556.705 1091.1,557.002 1090.9,557.299 C1090.55,557.752 1089.6,557.955 1087.44,558.002 L1087.25,558.002 L1087.25,559.799 L1100.6,559.799 L1100.6,558.002 L1099.69,558.002 C1096.35,557.893 1095.9,557.643 1095.9,555.846 L1095.9,538.643 L1101.4,538.643 L1101.4,536.502 L1095.9,536.502 M1124.44,543.705 C1124.44,540.549 1123.9,538.955 1122.44,537.752 C1120.8,536.393 1118.35,535.752 1115.15,535.752 C1109.5,535.752 1105.4,538.393 1105.4,542.049 C1105.4,543.893 1106.55,545.096 1108.3,545.096 C1109.9,545.096 1111,544.049 1111,542.549 C1111,541.893 1110.75,541.205 1110.25,540.502 C1109.94,540.143 1109.9,540.049 1109.9,539.799 C1109.9,538.799 1111.9,537.893 1114.3,537.893 C1115.9,537.893 1117.65,538.393 1118.44,539.143 C1119.4,539.955 1119.75,541.143 1119.75,543.393 L1119.75,545.346 C1114.55,546.252 1112.9,546.643 1110.44,547.596 C1106.1,549.205 1104.05,551.502 1104.05,554.705 C1104.05,558.299 1106.85,560.549 1111.3,560.549 C1114.75,560.549 1117.85,559.143 1120,556.596 C1120.8,559.143 1122.05,560.143 1124.4,560.143 C1126.65,560.143 1129,558.705 1129,557.252 C1129,556.893 1128.8,556.643 1128.5,556.643 C1128.3,556.643 1128.1,556.705 1127.75,556.846 C1127.05,557.143 1126.75,557.205 1126.35,557.205 C1124.94,557.205 1124.44,556.299 1124.44,553.752 L1124.44,543.705 M1119.75,549.799 C1119.75,552.799 1119.6,553.502 1118.75,554.799 C1117.5,556.643 1115.25,557.893 1113.05,557.893 C1110.75,557.893 1109.1,556.252 1109.1,554.002 C1109.1,551.893 1110.15,550.393 1112.35,549.346 C1113.9,548.643 1115.85,548.143 1119.75,547.502 L1119.75,549.799 "/>
<path class="Lyrics" d="M1797.83,535.955 L1796.08,535.955 L1794.63,537.752 C1792.83,536.346 1791.03,535.752 1788.53,535.752 C1784.13,535.752 1781.23,538.596 1781.23,543.002 C1781.23,547.705 1784.28,548.893 1788.28,549.846 L1790.92,550.455 C1794.88,551.393 1796.28,552.393 1796.28,554.393 C1796.28,556.752 1794.23,558.393 1791.33,558.393 C1787.08,558.393 1784.08,555.705 1782.88,550.705 L1780.88,550.705 L1780.88,560.143 L1782.63,560.143 L1784.38,558.096 C1786.42,559.752 1788.67,560.549 1791.23,560.549 C1796.13,560.549 1799.38,557.502 1799.38,552.846 C1799.38,550.643 1798.67,548.955 1797.28,547.799 C1796.08,546.752 1795.08,546.346 1792.03,545.705 L1789.53,545.143 C1786.78,544.549 1786.78,544.549 1785.88,544.049 C1784.78,543.549 1784.13,542.502 1784.13,541.393 C1784.13,539.346 1786.03,537.955 1788.78,537.955 C1792.88,537.955 1794.88,540.846 1796.08,544.346 L1797.83,544.346 L1797.83,535.955 M1809.28,524.049 C1807.67,524.049 1806.38,525.346 1806.38,526.939 C1806.38,528.549 1807.67,529.846 1809.23,529.846 C1810.88,529.846 1812.17,528.549 1812.17,526.939 C1812.17,525.346 1810.88,524.049 1809.28,524.049 M1811.63,536.502 L1802.23,537.049 L1802.23,539.205 L1804.78,539.205 C1806.67,539.252 1806.92,539.549 1806.92,541.705 L1806.92,556.002 C1806.88,556.752 1806.83,557.049 1806.63,557.299 C1806.28,557.752 1805.33,557.955 1803.17,558.002 L1802.83,558.002 L1802.83,559.799 L1815.78,559.799 L1815.78,558.002 L1815.42,558.002 C1812.08,557.893 1811.63,557.643 1811.63,555.846 L1811.63,536.502 "/>
<path class="Lyrics" d="M1325.34,535.955 L1323.59,535.955 L1322.14,537.752 C1320.34,536.346 1318.54,535.752 1316.04,535.752 C1311.64,535.752 1308.75,538.596 1308.75,543.002 C1308.75,547.705 1311.79,548.893 1315.79,549.846 L1318.44,550.455 C1322.39,551.393 1323.79,552.393 1323.79,554.393 C1323.79,556.752 1321.75,558.393 1318.84,558.393 C1314.59,558.393 1311.59,555.705 1310.39,550.705 L1308.39,550.705 L1308.39,560.143 L1310.14,560.143 L1311.89,558.096 C1313.94,559.752 1316.19,560.549 1318.75,560.549 C1323.64,560.549 1326.89,557.502 1326.89,552.846 C1326.89,550.643 1326.19,548.955 1324.79,547.799 C1323.59,546.752 1322.59,546.346 1319.54,545.705 L1317.04,545.143 C1314.29,544.549 1314.29,544.549 1313.39,544.049 C1312.29,543.549 1311.64,542.502 1311.64,541.393 C1311.64,539.346 1313.54,537.955 1316.29,537.955 C1320.39,537.955 1322.39,540.846 1323.59,544.346 L1325.34,544.346 L1325.34,535.955 M1341.44,535.752 C1335.29,535.752 1330.54,541.205 1330.54,548.205 C1330.54,555.049 1335.34,560.549 1341.34,560.549 C1347.34,560.549 1352.14,555.049 1352.14,548.143 C1352.14,541.299 1347.34,535.752 1341.44,535.752 M1341.44,537.893 C1344.94,537.893 1346.89,541.549 1346.89,548.143 C1346.89,554.799 1344.94,558.393 1341.34,558.393 C1337.75,558.393 1335.79,554.799 1335.79,548.205 C1335.79,541.393 1337.69,537.893 1341.44,537.893 M1364.04,522.939 L1354.79,523.502 L1354.79,525.643 L1357.25,525.643 C1359.09,525.689 1359.34,526.002 1359.34,528.143 L1359.34,556.002 C1359.29,556.752 1359.25,557.049 1359.04,557.299 C1358.69,557.752 1357.75,557.955 1355.59,558.002 L1355.25,558.002 L1355.25,559.799 L1368.19,559.799 L1368.19,558.002 L1367.84,558.002 C1364.5,557.893 1364.04,557.643 1364.04,555.846 L1364.04,522.939 "/>
<path class="Lyrics" d="M858.402,536.502 L849.512,537.049 L849.512,539.205 L851.558,539.205 C853.449,539.252 853.699,539.549 853.699,541.705 L853.699,556.002 C853.652,556.752 853.605,557.049 853.402,557.299 C853.058,557.752 852.105,557.955 849.949,558.002 L849.762,558.002 L849.762,559.799 L862.355,559.799 L862.355,558.002 L862.152,558.002 C858.855,557.893 858.402,557.643 858.402,555.799 L858.402,546.549 C858.402,542.096 860.855,538.799 864.105,538.799 C866.949,538.799 868.402,540.846 868.402,544.893 L868.402,556.049 C868.355,556.705 868.308,557.049 868.058,557.299 C867.762,557.752 866.762,557.955 864.605,558.002 L864.402,558.002 L864.402,559.799 L877.058,559.799 L877.058,558.002 L876.855,558.002 C873.558,557.893 873.105,557.643 873.105,555.846 L873.105,547.002 C873.105,542.002 875.355,538.799 878.855,538.799 C881.715,538.799 883.105,540.955 883.105,545.455 L883.105,556.002 C883.058,556.705 883.012,557.049 882.762,557.299 C882.465,557.752 881.465,557.955 879.308,558.002 L879.105,558.002 L879.105,559.799 L891.762,559.799 L891.762,558.002 L891.558,558.002 C888.262,557.893 887.808,557.643 887.808,555.799 L887.808,544.455 C887.808,541.346 887.512,540.299 886.215,538.596 C884.762,536.752 882.715,535.752 880.308,535.752 C877.058,535.752 874.652,537.299 872.512,540.752 C871.652,537.752 868.949,535.752 865.605,535.752 C862.558,535.752 860.355,537.205 858.402,540.346 L858.402,536.502 M900.308,524.049 C898.699,524.049 897.402,525.346 897.402,526.939 C897.402,528.549 898.699,529.846 900.262,529.846 C901.902,529.846 903.199,528.549 903.199,526.939 C903.199,525.346 901.902,524.049 900.308,524.049 M902.652,536.502 L893.262,537.049 L893.262,539.205 L895.808,539.205 C897.699,539.252 897.949,539.549 897.949,541.705 L897.949,556.002 C897.902,556.752 897.855,557.049 897.652,557.299 C897.308,557.752 896.355,557.955 894.199,558.002 L893.855,558.002 L893.855,559.799 L906.808,559.799 L906.808,558.002 L906.449,558.002 C903.105,557.893 902.652,557.643 902.652,555.846 L902.652,536.502 "/>
<path class="Lyrics" d="M2019.82,560.143 L2028.52,559.799 L2028.52,557.643 L2027.62,557.643 C2024.77,557.502 2024.52,557.205 2024.52,554.002 L2024.52,522.939 L2014.73,523.502 L2014.73,525.643 L2017.67,525.643 C2019.57,525.689 2019.82,526.002 2019.82,528.143 L2019.82,539.455 C2017.98,536.893 2015.82,535.752 2012.92,535.752 C2007.27,535.752 2002.98,541.205 2002.98,548.393 C2002.98,555.502 2007.12,560.549 2012.92,560.549 C2016.07,560.549 2018.23,559.205 2019.82,556.205 L2019.82,560.143 M2013.92,538.455 C2015.98,538.455 2017.92,539.955 2018.82,542.252 C2019.48,543.752 2019.77,545.799 2019.77,548.252 C2019.77,554.096 2017.48,557.846 2013.87,557.846 C2010.32,557.846 2008.23,554.549 2008.23,549.002 C2008.23,546.002 2008.52,543.752 2009.17,542.096 C2010.02,539.846 2011.87,538.455 2013.92,538.455 M2042.42,535.752 C2036.27,535.752 2031.52,541.205 2031.52,548.205 C2031.52,555.049 2036.32,560.549 2042.32,560.549 C2048.32,560.549 2053.12,555.049 2053.12,548.143 C2053.12,541.299 2048.32,535.752 2042.42,535.752 M2042.42,537.893 C2045.92,537.893 2047.87,541.549 2047.87,548.143 C2047.87,554.799 2045.92,558.393 2042.32,558.393 C2038.73,558.393 2036.77,554.799 2036.77,548.205 C2036.77,541.393 2038.67,537.893 2042.42,537.893"/>
<path class="Lyrics" d="M634.768,536.502 L625.909,537.049 L625.909,539.205 L627.956,539.205 C629.862,539.252 630.112,539.549 630.112,541.705 L630.112,556.002 C630.065,556.752 630.018,557.049 629.815,557.299 C629.456,557.752 628.456,557.955 626.315,558.002 L626.112,558.002 L626.112,559.799 L639.456,559.799 L639.456,558.002 L638.565,558.002 C635.206,557.893 634.768,557.643 634.768,555.846 L634.768,553.143 C634.815,544.752 637.815,538.346 641.706,538.143 C641.018,538.955 640.815,539.455 640.815,540.393 C640.815,542.002 641.956,543.143 643.565,543.143 C645.409,543.143 646.612,541.799 646.612,539.799 C646.612,537.346 644.909,535.752 642.268,535.752 C639.112,535.752 636.409,538.252 634.768,542.705 L634.768,536.502 M670.112,548.549 C670.159,541.049 665.909,535.752 659.815,535.752 C653.409,535.752 648.612,541.299 648.612,548.799 C648.612,555.846 653.159,560.549 659.909,560.549 C664.706,560.549 668.065,558.205 670.112,553.455 L668.362,552.502 C666.315,556.346 664.206,557.846 660.862,557.846 C658.315,557.846 656.456,556.799 655.159,554.549 C654.268,553.049 653.862,551.299 653.909,548.549 L670.112,548.549 M653.956,546.393 C653.956,542.893 655.565,537.893 659.768,537.893 C662.768,537.893 664.768,540.549 664.768,544.596 C664.768,546.002 664.315,546.393 662.706,546.393 L653.956,546.393 "/>
<path class="Lyrics" d="M409.869,560.143 L418.572,559.799 L418.572,557.643 L417.666,557.643 C414.822,557.502 414.572,557.205 414.572,554.002 L414.572,522.939 L404.775,523.502 L404.775,525.643 L407.713,525.643 C409.619,525.689 409.869,526.002 409.869,528.143 L409.869,539.455 C408.025,536.893 405.869,535.752 402.963,535.752 C397.322,535.752 393.025,541.205 393.025,548.393 C393.025,555.502 397.166,560.549 402.963,560.549 C406.119,560.549 408.275,559.205 409.869,556.205 L409.869,560.143 M403.963,538.455 C406.025,538.455 407.963,539.955 408.869,542.252 C409.525,543.752 409.822,545.799 409.822,548.252 C409.822,554.096 407.525,557.846 403.916,557.846 C400.369,557.846 398.275,554.549 398.275,549.002 C398.275,546.002 398.572,543.752 399.213,542.096 C400.072,539.846 401.916,538.455 403.963,538.455 M432.463,535.752 C426.322,535.752 421.572,541.205 421.572,548.205 C421.572,555.049 426.369,560.549 432.369,560.549 C438.369,560.549 443.166,555.049 443.166,548.143 C443.166,541.299 438.369,535.752 432.463,535.752 M432.463,537.893 C435.963,537.893 437.916,541.549 437.916,548.143 C437.916,554.799 435.963,558.393 432.369,558.393 C428.775,558.393 426.822,554.799 426.822,548.205 C426.822,541.393 428.713,537.893 432.463,537.893"/>
<path class="Lyrics" d="M866.558,810.318 L857.308,810.88 L857.308,813.021 L859.762,813.021 C861.605,813.068 861.855,813.38 861.855,815.521 L861.855,843.38 C861.808,844.13 861.762,844.427 861.558,844.677 C861.199,845.13 860.262,845.333 858.105,845.38 L857.762,845.38 L857.762,847.177 L870.699,847.177 L870.699,845.38 L870.355,845.38 C867.012,845.271 866.558,845.021 866.558,843.224 L866.558,810.318 M894.949,831.083 C894.949,827.927 894.402,826.333 892.949,825.13 C891.308,823.771 888.855,823.13 885.652,823.13 C880.012,823.13 875.902,825.771 875.902,829.427 C875.902,831.271 877.058,832.474 878.808,832.474 C880.402,832.474 881.512,831.427 881.512,829.927 C881.512,829.271 881.262,828.583 880.762,827.88 C880.449,827.521 880.402,827.427 880.402,827.177 C880.402,826.177 882.402,825.271 884.808,825.271 C886.402,825.271 888.152,825.771 888.949,826.521 C889.902,827.333 890.262,828.521 890.262,830.771 L890.262,832.724 C885.058,833.63 883.402,834.021 880.949,834.974 C876.605,836.583 874.558,838.88 874.558,842.083 C874.558,845.677 877.355,847.927 881.808,847.927 C885.262,847.927 888.355,846.521 890.512,843.974 C891.308,846.521 892.558,847.521 894.902,847.521 C897.152,847.521 899.512,846.083 899.512,844.63 C899.512,844.271 899.308,844.021 899.012,844.021 C898.808,844.021 898.605,844.083 898.262,844.224 C897.558,844.521 897.262,844.583 896.855,844.583 C895.449,844.583 894.949,843.677 894.949,841.13 L894.949,831.083 M890.262,837.177 C890.262,840.177 890.105,840.88 889.262,842.177 C888.012,844.021 885.762,845.271 883.558,845.271 C881.262,845.271 879.605,843.63 879.605,841.38 C879.605,839.271 880.652,837.771 882.855,836.724 C884.402,836.021 886.355,835.521 890.262,834.88 L890.262,837.177 "/>
<path class="Lyrics" d="M1784.73,823.88 L1775.88,824.427 L1775.88,826.583 L1777.92,826.583 C1779.83,826.63 1780.08,826.927 1780.08,829.083 L1780.08,843.38 C1780.03,844.13 1779.98,844.427 1779.78,844.677 C1779.42,845.13 1778.42,845.333 1776.28,845.38 L1776.08,845.38 L1776.08,847.177 L1789.42,847.177 L1789.42,845.38 L1788.53,845.38 C1785.17,845.271 1784.73,845.021 1784.73,843.224 L1784.73,840.521 C1784.78,832.13 1787.78,825.724 1791.67,825.521 C1790.98,826.333 1790.78,826.833 1790.78,827.771 C1790.78,829.38 1791.92,830.521 1793.53,830.521 C1795.38,830.521 1796.58,829.177 1796.58,827.177 C1796.58,824.724 1794.88,823.13 1792.23,823.13 C1789.08,823.13 1786.38,825.63 1784.73,830.083 L1784.73,823.88 M1820.08,835.927 C1820.13,828.427 1815.88,823.13 1809.78,823.13 C1803.38,823.13 1798.58,828.677 1798.58,836.177 C1798.58,843.224 1803.13,847.927 1809.88,847.927 C1814.67,847.927 1818.03,845.583 1820.08,840.833 L1818.33,839.88 C1816.28,843.724 1814.17,845.224 1810.83,845.224 C1808.28,845.224 1806.42,844.177 1805.13,841.927 C1804.23,840.427 1803.83,838.677 1803.88,835.927 L1820.08,835.927 M1803.92,833.771 C1803.92,830.271 1805.53,825.271 1809.73,825.271 C1812.73,825.271 1814.73,827.927 1814.73,831.974 C1814.73,833.38 1814.28,833.771 1812.67,833.771 L1803.92,833.771 "/>
<path class="Lyrics" d="M1095.35,823.333 L1093.6,823.333 L1092.15,825.13 C1090.35,823.724 1088.55,823.13 1086.05,823.13 C1081.65,823.13 1078.75,825.974 1078.75,830.38 C1078.75,835.083 1081.8,836.271 1085.8,837.224 L1088.44,837.833 C1092.4,838.771 1093.8,839.771 1093.8,841.771 C1093.8,844.13 1091.75,845.771 1088.85,845.771 C1084.6,845.771 1081.6,843.083 1080.4,838.083 L1078.4,838.083 L1078.4,847.521 L1080.15,847.521 L1081.9,845.474 C1083.94,847.13 1086.19,847.927 1088.75,847.927 C1093.65,847.927 1096.9,844.88 1096.9,840.224 C1096.9,838.021 1096.19,836.333 1094.8,835.177 C1093.6,834.13 1092.6,833.724 1089.55,833.083 L1087.05,832.521 C1084.3,831.927 1084.3,831.927 1083.4,831.427 C1082.3,830.927 1081.65,829.88 1081.65,828.771 C1081.65,826.724 1083.55,825.333 1086.3,825.333 C1090.4,825.333 1092.4,828.224 1093.6,831.724 L1095.35,831.724 L1095.35,823.333 M1111.44,823.13 C1105.3,823.13 1100.55,828.583 1100.55,835.583 C1100.55,842.427 1105.35,847.927 1111.35,847.927 C1117.35,847.927 1122.15,842.427 1122.15,835.521 C1122.15,828.677 1117.35,823.13 1111.44,823.13 M1111.44,825.271 C1114.94,825.271 1116.9,828.927 1116.9,835.521 C1116.9,842.177 1114.94,845.771 1111.35,845.771 C1107.75,845.771 1105.8,842.177 1105.8,835.583 C1105.8,828.771 1107.69,825.271 1111.44,825.271 M1134.05,810.318 L1124.8,810.88 L1124.8,813.021 L1127.25,813.021 C1129.1,813.068 1129.35,813.38 1129.35,815.521 L1129.35,843.38 C1129.3,844.13 1129.25,844.427 1129.05,844.677 C1128.69,845.13 1127.75,845.333 1125.6,845.38 L1125.25,845.38 L1125.25,847.177 L1138.19,847.177 L1138.19,845.38 L1137.85,845.38 C1134.5,845.271 1134.05,845.021 1134.05,843.224 L1134.05,810.318 "/>
<path class="Lyrics" d="M409.869,847.521 L418.572,847.177 L418.572,845.021 L417.666,845.021 C414.822,844.88 414.572,844.583 414.572,841.38 L414.572,810.318 L404.775,810.88 L404.775,813.021 L407.713,813.021 C409.619,813.068 409.869,813.38 409.869,815.521 L409.869,826.833 C408.025,824.271 405.869,823.13 402.963,823.13 C397.322,823.13 393.025,828.583 393.025,835.771 C393.025,842.88 397.166,847.927 402.963,847.927 C406.119,847.927 408.275,846.583 409.869,843.583 L409.869,847.521 M403.963,825.833 C406.025,825.833 407.963,827.333 408.869,829.63 C409.525,831.13 409.822,833.177 409.822,835.63 C409.822,841.474 407.525,845.224 403.916,845.224 C400.369,845.224 398.275,841.927 398.275,836.38 C398.275,833.38 398.572,831.13 399.213,829.474 C400.072,827.224 401.916,825.833 403.963,825.833 M432.463,823.13 C426.322,823.13 421.572,828.583 421.572,835.583 C421.572,842.427 426.369,847.927 432.369,847.927 C438.369,847.927 443.166,842.427 443.166,835.521 C443.166,828.677 438.369,823.13 432.463,823.13 M432.463,825.271 C435.963,825.271 437.916,828.927 437.916,835.521 C437.916,842.177 435.963,845.771 432.369,845.771 C428.775,845.771 426.822,842.177 426.822,835.583 C426.822,828.771 428.713,825.271 432.463,825.271"/>
<path class="Lyrics" d="M2019.82,847.521 L2028.52,847.177 L2028.52,845.021 L2027.62,845.021 C2024.77,844.88 2024.52,844.583 2024.52,841.38 L2024.52,810.318 L2014.73,810.88 L2014.73,813.021 L2017.67,813.021 C2019.57,813.068 2019.82,813.38 2019.82,815.521 L2019.82,826.833 C2017.98,824.271 2015.82,823.13 2012.92,823.13 C2007.27,823.13 2002.98,828.583 2002.98,835.771 C2002.98,842.88 2007.12,847.927 2012.92,847.927 C2016.07,847.927 2018.23,846.583 2019.82,843.583 L2019.82,847.521 M2013.92,825.833 C2015.98,825.833 2017.92,827.333 2018.82,829.63 C2019.48,831.13 2019.77,833.177 2019.77,835.63 C2019.77,841.474 2017.48,845.224 2013.87,845.224 C2010.32,845.224 2008.23,841.927 2008.23,836.38 C2008.23,833.38 2008.52,831.13 2009.17,829.474 C2010.02,827.224 2011.87,825.833 2013.92,825.833 M2042.42,823.13 C2036.27,823.13 2031.52,828.583 2031.52,835.583 C2031.52,842.427 2036.32,847.927 2042.32,847.927 C2048.32,847.927 2053.12,842.427 2053.12,835.521 C2053.12,828.677 2048.32,823.13 2042.42,823.13 M2042.42,825.271 C2045.92,825.271 2047.87,828.927 2047.87,835.521 C2047.87,842.177 2045.92,845.771 2042.32,845.771 C2038.73,845.771 2036.77,842.177 2036.77,835.583 C2036.77,828.771 2038.67,825.271 2042.42,825.271"/>
<path class="Lyrics" d="M647.862,823.333 L646.112,823.333 L644.659,825.13 C642.862,823.724 641.065,823.13 638.565,823.13 C634.159,823.13 631.268,825.974 631.268,830.38 C631.268,835.083 634.315,836.271 638.315,837.224 L640.956,837.833 C644.909,838.771 646.315,839.771 646.315,841.771 C646.315,844.13 644.268,845.771 641.362,845.771 C637.112,845.771 634.112,843.083 632.909,838.083 L630.909,838.083 L630.909,847.521 L632.659,847.521 L634.409,845.474 C636.456,847.13 638.706,847.927 641.268,847.927 C646.159,847.927 649.409,844.88 649.409,840.224 C649.409,838.021 648.706,836.333 647.315,835.177 C646.112,834.13 645.112,833.724 642.065,833.083 L639.565,832.521 C636.815,831.927 636.815,831.927 635.909,831.427 C634.815,830.927 634.159,829.88 634.159,828.771 C634.159,826.724 636.065,825.333 638.815,825.333 C642.909,825.333 644.909,828.224 646.112,831.724 L647.862,831.724 L647.862,823.333 M659.315,811.427 C657.706,811.427 656.409,812.724 656.409,814.318 C656.409,815.927 657.706,817.224 659.268,817.224 C660.909,817.224 662.206,815.927 662.206,814.318 C662.206,812.724 660.909,811.427 659.315,811.427 M661.659,823.88 L652.268,824.427 L652.268,826.583 L654.815,826.583 C656.706,826.63 656.956,826.927 656.956,829.083 L656.956,843.38 C656.909,844.13 656.862,844.427 656.659,844.677 C656.315,845.13 655.362,845.333 653.206,845.38 L652.862,845.38 L652.862,847.177 L665.815,847.177 L665.815,845.38 L665.456,845.38 C662.112,845.271 661.659,845.021 661.659,843.224 L661.659,823.88 "/>
<path class="Lyrics" d="M1325.89,823.88 L1325.89,821.021 C1325.89,818.521 1326.04,816.88 1326.44,815.88 C1327.25,813.677 1329,812.318 1331,812.318 C1332.04,812.318 1332.69,812.63 1332.69,813.177 C1332.69,813.38 1332.69,813.427 1332.39,813.818 C1332.09,814.271 1331.94,814.88 1331.94,815.427 C1331.94,816.927 1333.14,818.068 1334.69,818.068 C1336.34,818.068 1337.5,816.818 1337.5,815.021 C1337.5,812.13 1335,810.318 1330.94,810.318 C1327.5,810.318 1324.94,811.521 1323.19,814.021 C1321.69,816.13 1321.19,818.271 1321.19,822.333 L1321.19,823.88 L1316.79,823.88 L1316.79,826.021 L1321.19,826.021 L1321.19,843.38 C1321.14,844.083 1321.09,844.38 1320.89,844.677 C1320.54,845.13 1319.59,845.333 1317.44,845.38 L1317.25,845.38 L1317.25,847.177 L1330.59,847.177 L1330.59,845.38 L1329.69,845.38 C1326.34,845.271 1325.89,845.021 1325.89,843.224 L1325.89,826.021 L1331.39,826.021 L1331.39,823.88 L1325.89,823.88 M1354.44,831.083 C1354.44,827.927 1353.89,826.333 1352.44,825.13 C1350.79,823.771 1348.34,823.13 1345.14,823.13 C1339.5,823.13 1335.39,825.771 1335.39,829.427 C1335.39,831.271 1336.54,832.474 1338.29,832.474 C1339.89,832.474 1341,831.427 1341,829.927 C1341,829.271 1340.75,828.583 1340.25,827.88 C1339.94,827.521 1339.89,827.427 1339.89,827.177 C1339.89,826.177 1341.89,825.271 1344.29,825.271 C1345.89,825.271 1347.64,825.771 1348.44,826.521 C1349.39,827.333 1349.75,828.521 1349.75,830.771 L1349.75,832.724 C1344.54,833.63 1342.89,834.021 1340.44,834.974 C1336.09,836.583 1334.04,838.88 1334.04,842.083 C1334.04,845.677 1336.84,847.927 1341.29,847.927 C1344.75,847.927 1347.84,846.521 1350,843.974 C1350.79,846.521 1352.04,847.521 1354.39,847.521 C1356.64,847.521 1359,846.083 1359,844.63 C1359,844.271 1358.79,844.021 1358.5,844.021 C1358.29,844.021 1358.09,844.083 1357.75,844.224 C1357.04,844.521 1356.75,844.583 1356.34,844.583 C1354.94,844.583 1354.44,843.677 1354.44,841.13 L1354.44,831.083 M1349.75,837.177 C1349.75,840.177 1349.59,840.88 1348.75,842.177 C1347.5,844.021 1345.25,845.271 1343.04,845.271 C1340.75,845.271 1339.09,843.63 1339.09,841.38 C1339.09,839.271 1340.14,837.771 1342.34,836.724 C1343.89,836.021 1345.84,835.521 1349.75,834.88 L1349.75,837.177 "/>
<path class="Lyrics" d="M1548.38,823.88 L1539.49,824.427 L1539.49,826.583 L1541.54,826.583 C1543.43,826.63 1543.68,826.927 1543.68,829.083 L1543.68,843.38 C1543.63,844.13 1543.58,844.427 1543.38,844.677 C1543.04,845.13 1542.08,845.333 1539.93,845.38 L1539.74,845.38 L1539.74,847.177 L1552.33,847.177 L1552.33,845.38 L1552.13,845.38 C1548.83,845.271 1548.38,845.021 1548.38,843.177 L1548.38,833.927 C1548.38,829.474 1550.83,826.177 1554.08,826.177 C1556.93,826.177 1558.38,828.224 1558.38,832.271 L1558.38,843.427 C1558.33,844.083 1558.29,844.427 1558.04,844.677 C1557.74,845.13 1556.74,845.333 1554.58,845.38 L1554.38,845.38 L1554.38,847.177 L1567.04,847.177 L1567.04,845.38 L1566.83,845.38 C1563.54,845.271 1563.08,845.021 1563.08,843.224 L1563.08,834.38 C1563.08,829.38 1565.33,826.177 1568.83,826.177 C1571.69,826.177 1573.08,828.333 1573.08,832.833 L1573.08,843.38 C1573.04,844.083 1572.99,844.427 1572.74,844.677 C1572.44,845.13 1571.44,845.333 1569.29,845.38 L1569.08,845.38 L1569.08,847.177 L1581.74,847.177 L1581.74,845.38 L1581.54,845.38 C1578.24,845.271 1577.79,845.021 1577.79,843.177 L1577.79,831.833 C1577.79,828.724 1577.49,827.677 1576.19,825.974 C1574.74,824.13 1572.69,823.13 1570.29,823.13 C1567.04,823.13 1564.63,824.677 1562.49,828.13 C1561.63,825.13 1558.93,823.13 1555.58,823.13 C1552.54,823.13 1550.33,824.583 1548.38,827.724 L1548.38,823.88 M1590.29,811.427 C1588.68,811.427 1587.38,812.724 1587.38,814.318 C1587.38,815.927 1588.68,817.224 1590.24,817.224 C1591.88,817.224 1593.18,815.927 1593.18,814.318 C1593.18,812.724 1591.88,811.427 1590.29,811.427 M1592.63,823.88 L1583.24,824.427 L1583.24,826.583 L1585.79,826.583 C1587.68,826.63 1587.93,826.927 1587.93,829.083 L1587.93,843.38 C1587.88,844.13 1587.83,844.427 1587.63,844.677 C1587.29,845.13 1586.33,845.333 1584.18,845.38 L1583.83,845.38 L1583.83,847.177 L1596.79,847.177 L1596.79,845.38 L1596.43,845.38 C1593.08,845.271 1592.63,845.021 1592.63,843.224 L1592.63,823.88 "/>
<path class="StaffText" d="M413.35,326.195 C411.663,328.242 407.053,329.789 402.46,329.899 L402.46,332.039 L406.85,332.039 C409.757,332.102 410.053,332.399 409.96,335.195 L409.96,355.242 C409.96,357.805 409.96,357.899 409.663,358.352 C409.257,358.852 408.303,359.055 405.507,359.055 L402.257,359.055 L402.257,361.399 L422.053,361.399 L422.053,359.055 L419.303,359.055 C416.507,359.055 415.553,358.852 415.163,358.352 C414.803,357.899 414.803,357.852 414.803,355.242 L414.803,334.602 C414.803,331.789 414.913,329.445 415.163,326.195 L413.35,326.195 M441.803,345.695 L467.007,345.695 L467.007,341.695 L441.803,341.695 L441.803,345.695 M441.803,355.805 L467.007,355.805 L467.007,351.805 L441.803,351.805 L441.803,355.805 M514.46,325.289 L484.71,325.289 L484.71,327.649 L485.6,327.649 C488.46,327.695 489.413,327.852 489.803,328.352 C490.1,328.789 490.1,328.899 490.1,331.445 L490.1,355.242 C490.1,357.805 490.1,357.899 489.803,358.352 C489.413,358.852 488.46,359.055 485.6,359.055 L484.71,359.055 L484.71,361.399 L501.85,361.399 L501.85,359.055 L500.21,359.055 C497.35,359.055 496.413,358.852 496.007,358.352 C495.71,357.899 495.71,357.742 495.71,355.242 L495.71,343.899 L496.71,343.899 C501.85,343.695 503.71,345.555 503.913,351.102 L506.257,351.102 L506.257,334.695 L503.913,334.695 C503.6,339.602 501.663,341.492 496.913,341.555 L495.71,341.555 L495.71,330.149 C495.663,328.039 496.163,327.695 498.85,327.649 L501.163,327.649 C509.366,327.602 511.413,329.445 512.96,338.055 L515.163,338.055 L514.46,325.289 "/>
<path class="Page" d="M2297.09,231.364 C2301.78,230.145 2305.95,228.067 2305.95,222.395 C2305.95,216.567 2300.78,212.661 2292.97,212.661 C2288.95,212.661 2285.72,213.708 2283.41,215.739 C2281.59,217.333 2280.48,219.645 2280.48,221.739 C2280.48,224.598 2282.64,226.739 2285.44,226.739 C2288.08,226.739 2289.89,224.989 2289.89,222.395 C2289.89,220.911 2289.3,219.755 2287.75,218.27 C2287.47,218.005 2287.36,217.833 2287.36,217.614 C2287.36,216.567 2289.41,215.52 2291.55,215.52 C2295.02,215.52 2297.05,218.051 2297.05,222.348 C2297.05,227.13 2295.45,230.036 2292.75,230.036 C2292.31,230.036 2291.77,229.989 2290.89,229.77 C2289.67,229.489 2289.3,229.442 2288.69,229.442 C2287.31,229.442 2286.66,230.036 2286.66,231.255 C2286.66,232.52 2287.47,233.348 2288.63,233.348 C2289.02,233.348 2289.34,233.286 2290.28,233.176 C2291.55,233.067 2291.88,233.005 2292.27,233.005 C2295.67,233.005 2297.38,235.645 2297.38,240.817 C2297.38,246.38 2295.06,249.505 2291,249.505 C2288.69,249.505 2286.27,248.348 2286.27,247.192 C2286.27,246.864 2286.44,246.536 2286.77,246.208 C2288.41,244.676 2288.8,243.958 2288.8,242.364 C2288.8,239.77 2286.77,237.801 2284.06,237.801 C2281.09,237.801 2279.11,239.942 2279.11,243.02 C2279.11,248.567 2284.5,252.364 2292.42,252.364 C2299.69,252.364 2306.94,249.348 2306.94,240.989 C2306.94,237.52 2305.41,234.489 2302.88,233.005 C2301.28,232.13 2300.02,231.739 2297.09,231.364"/>
<path class="Bracket" transform="matrix(3.596,0,0,3.86578,181.331,772.777)" d="M0.90625,-50 C2.70313,-51.9063 6.20313,-55.7969 6.20313,-63 C6.20313,-72.1094 2.29688,-81.3125 2.29688,-87 C2.29688,-93.1094 5.79688,-98.8125 6,-99 C6,-99.1094 6,-99.1094 6,-99.2031 C6,-99.3125 6,-99.4063 5.90625,-99.5 C5.79688,-99.5 5.59375,-99.5 5.5,-99.3125 C5.40625,-99.2031 0,-93.8125 0,-85.6094 C0,-76.8125 3.5,-70.6094 3.5,-59.1094 C3.5,-56.9063 2.59375,-53.4063 0.09375,-50.2969 C0,-50.2969 0,-50.1094 -0.09375,-50 C-0.09375,-49.9063 0,-49.7969 0.09375,-49.7031 C2.59375,-46.6094 3.5,-43.1094 3.5,-40.9063 C3.5,-29.4063 0,-23.2031 0,-14.4063 C0,-6.29688 5.40625,-0.796875 5.5,-0.703125 C5.59375,-0.5 5.79688,-0.40625 5.90625,-0.5 C6,-0.59375 6.09375,-0.703125 6,-0.796875 C6,-0.796875 6,-0.90625 6,-1 C5.79688,-1.20313 2.29688,-6.90625 2.29688,-13 C2.29688,-18.7031 6.20313,-27.9063 6.20313,-37 C6.20313,-44.2969 2.70313,-48.1094 0.90625,-50"/>
</svg>
