<?xml version="1.0" encoding="UTF-8" standalone="no"?>
<svg width="2520px" height="1008px" viewBox="0 0 2520 1008"
 xmlns="http://www.w3.org/2000/svg" xmlns:xlink="http://www.w3.org/1999/xlink" version="1.2" baseProfile="tiny">
<title>大调调性 (1)</title>
<desc>Generated by MuseScore Studio 4.4.4</desc>
<path class="" fill="#ffffff" fill-rule="evenodd" d="M0,0 L2520,0 L2520,1008 L0,1008 L0,0 "/>
<polyline class="StaffLines" fill="none" stroke="#000000" stroke-width="2.73" stroke-linejoin="bevel" points="212.598,386.199 2307.8,386.199"/>
<polyline class="StaffLines" fill="none" stroke="#000000" stroke-width="2.73" stroke-linejoin="bevel" points="212.598,410.999 2307.8,410.999"/>
<polyline class="StaffLines" fill="none" stroke="#000000" stroke-width="2.73" stroke-linejoin="bevel" points="212.598,435.799 2307.8,435.799"/>
<polyline class="StaffLines" fill="none" stroke="#000000" stroke-width="2.73" stroke-linejoin="bevel" points="212.598,460.599 2307.8,460.599"/>
<polyline class="StaffLines" fill="none" stroke="#000000" stroke-width="2.73" stroke-linejoin="bevel" points="212.598,485.399 2307.8,485.399"/>
<polyline class="StaffLines" fill="none" stroke="#000000" stroke-width="2.73" stroke-linejoin="bevel" points="212.598,661.969 2307.8,661.969"/>
<polyline class="StaffLines" fill="none" stroke="#000000" stroke-width="2.73" stroke-linejoin="bevel" points="212.598,686.769 2307.8,686.769"/>
<polyline class="StaffLines" fill="none" stroke="#000000" stroke-width="2.73" stroke-linejoin="bevel" points="212.598,711.569 2307.8,711.569"/>
<polyline class="StaffLines" fill="none" stroke="#000000" stroke-width="2.73" stroke-linejoin="bevel" points="212.598,736.369 2307.8,736.369"/>
<polyline class="StaffLines" fill="none" stroke="#000000" stroke-width="2.73" stroke-linejoin="bevel" points="212.598,761.169 2307.8,761.169"/>
<polyline class="BarLine" fill="none" stroke="#000000" stroke-width="4.46" stroke-linejoin="bevel" points="214.83,384.835 214.83,661.969"/>
<polyline class="BarLine" fill="none" stroke="#000000" stroke-width="4.46" stroke-linejoin="bevel" points="1771.01,384.835 1771.01,661.969"/>
<polyline class="BarLine" fill="none" stroke="#000000" stroke-width="4.46" stroke-linejoin="bevel" points="1539.63,384.835 1539.63,661.969"/>
<polyline class="BarLine" fill="none" stroke="#000000" stroke-width="4.46" stroke-linejoin="bevel" points="1076.88,384.835 1076.88,661.969"/>
<polyline class="BarLine" fill="none" stroke="#000000" stroke-width="4.46" stroke-linejoin="bevel" points="1308.26,384.835 1308.26,661.969"/>
<polyline class="BarLine" fill="none" stroke="#000000" stroke-width="4.46" stroke-linejoin="bevel" points="2233.75,384.835 2233.75,661.969"/>
<polyline class="BarLine" fill="none" stroke="#000000" stroke-width="13.64" stroke-linejoin="bevel" points="2251.98,384.835 2251.98,661.969"/>
<polyline class="BarLine" fill="none" stroke="#000000" stroke-width="4.46" stroke-linejoin="bevel" points="614.132,384.835 614.132,661.969"/>
<polyline class="BarLine" fill="none" stroke="#000000" stroke-width="4.46" stroke-linejoin="bevel" points="2002.38,384.835 2002.38,661.969"/>
<polyline class="BarLine" fill="none" stroke="#000000" stroke-width="4.46" stroke-linejoin="bevel" points="845.507,384.835 845.507,661.969"/>
<polyline class="BarLine" fill="none" stroke="#000000" stroke-width="4.46" stroke-linejoin="bevel" points="845.507,660.605 845.507,762.533"/>
<polyline class="BarLine" fill="none" stroke="#000000" stroke-width="4.46" stroke-linejoin="bevel" points="214.83,660.605 214.83,762.533"/>
<polyline class="BarLine" fill="none" stroke="#000000" stroke-width="4.46" stroke-linejoin="bevel" points="1308.26,660.605 1308.26,762.533"/>
<polyline class="BarLine" fill="none" stroke="#000000" stroke-width="4.46" stroke-linejoin="bevel" points="1539.63,660.605 1539.63,762.533"/>
<polyline class="BarLine" fill="none" stroke="#000000" stroke-width="4.46" stroke-linejoin="bevel" points="1076.88,660.605 1076.88,762.533"/>
<polyline class="BarLine" fill="none" stroke="#000000" stroke-width="4.46" stroke-linejoin="bevel" points="2233.75,660.605 2233.75,762.533"/>
<polyline class="BarLine" fill="none" stroke="#000000" stroke-width="13.64" stroke-linejoin="bevel" points="2251.98,660.605 2251.98,762.533"/>
<polyline class="BarLine" fill="none" stroke="#000000" stroke-width="4.46" stroke-linejoin="bevel" points="614.132,660.605 614.132,762.533"/>
<polyline class="BarLine" fill="none" stroke="#000000" stroke-width="4.46" stroke-linejoin="bevel" points="2002.38,660.605 2002.38,762.533"/>
<polyline class="BarLine" fill="none" stroke="#000000" stroke-width="4.46" stroke-linejoin="bevel" points="1771.01,660.605 1771.01,762.533"/>
<polyline class="LedgerLine" fill="none" stroke="#000000" stroke-width="3.97" stroke-linejoin="bevel" points="407.806,510.199 461.172,510.199"/>
<polyline class="LedgerLine" fill="none" stroke="#000000" stroke-width="3.97" stroke-linejoin="bevel" points="407.806,637.169 461.172,637.169"/>
<path class="Note" transform="matrix(0.992001,0,0,0.992001,415.99,510.199)" d="M18.7031,-13.5938 C4.90625,-13.5938 0,-6.59375 0,-0.09375 C0,6.40625 4.90625,13.4063 18.7031,13.4063 C32.5,13.4063 37.2969,6.40625 37.2969,-0.09375 C37.2969,-6.59375 32.5,-13.5938 18.7031,-13.5938 M19.5,10.2031 C16.7031,10.2031 14.7969,9.40625 13.5,6.90625 C12.2031,4.40625 10.4063,-2.09375 10.2969,-4.70313 C10.0938,-7.40625 11.0938,-9 13.5,-9.79688 C14.7031,-10.2031 16.2969,-10.4063 17.9063,-10.4063 C20.5938,-10.4063 22.4063,-9.79688 23.7969,-7.09375 C25.2031,-4.5 27.1094,2 27.1094,4.5 C27.1094,9.40625 23.5,10.2031 19.5,10.2031"/>
<path class="Note" transform="matrix(0.992001,0,0,0.992001,1341.49,460.599)" d="M18.7031,-13.5938 C4.90625,-13.5938 0,-6.59375 0,-0.09375 C0,6.40625 4.90625,13.4063 18.7031,13.4063 C32.5,13.4063 37.2969,6.40625 37.2969,-0.09375 C37.2969,-6.59375 32.5,-13.5938 18.7031,-13.5938 M19.5,10.2031 C16.7031,10.2031 14.7969,9.40625 13.5,6.90625 C12.2031,4.40625 10.4063,-2.09375 10.2969,-4.70313 C10.0938,-7.40625 11.0938,-9 13.5,-9.79688 C14.7031,-10.2031 16.2969,-10.4063 17.9063,-10.4063 C20.5938,-10.4063 22.4063,-9.79688 23.7969,-7.09375 C25.2031,-4.5 27.1094,2 27.1094,4.5 C27.1094,9.40625 23.5,10.2031 19.5,10.2031"/>
<path class="Note" transform="matrix(0.992001,0,0,0.992001,1804.24,435.799)" d="M18.7031,-13.5938 C4.90625,-13.5938 0,-6.59375 0,-0.09375 C0,6.40625 4.90625,13.4063 18.7031,13.4063 C32.5,13.4063 37.2969,6.40625 37.2969,-0.09375 C37.2969,-6.59375 32.5,-13.5938 18.7031,-13.5938 M19.5,10.2031 C16.7031,10.2031 14.7969,9.40625 13.5,6.90625 C12.2031,4.40625 10.4063,-2.09375 10.2969,-4.70313 C10.0938,-7.40625 11.0938,-9 13.5,-9.79688 C14.7031,-10.2031 16.2969,-10.4063 17.9063,-10.4063 C20.5938,-10.4063 22.4063,-9.79688 23.7969,-7.09375 C25.2031,-4.5 27.1094,2 27.1094,4.5 C27.1094,9.40625 23.5,10.2031 19.5,10.2031"/>
<path class="Note" transform="matrix(0.992001,0,0,0.992001,1110.11,472.999)" d="M18.7031,-13.5938 C4.90625,-13.5938 0,-6.59375 0,-0.09375 C0,6.40625 4.90625,13.4063 18.7031,13.4063 C32.5,13.4063 37.2969,6.40625 37.2969,-0.09375 C37.2969,-6.59375 32.5,-13.5938 18.7031,-13.5938 M19.5,10.2031 C16.7031,10.2031 14.7969,9.40625 13.5,6.90625 C12.2031,4.40625 10.4063,-2.09375 10.2969,-4.70313 C10.0938,-7.40625 11.0938,-9 13.5,-9.79688 C14.7031,-10.2031 16.2969,-10.4063 17.9063,-10.4063 C20.5938,-10.4063 22.4063,-9.79688 23.7969,-7.09375 C25.2031,-4.5 27.1094,2 27.1094,4.5 C27.1094,9.40625 23.5,10.2031 19.5,10.2031"/>
<path class="Note" transform="matrix(0.992001,0,0,0.992001,878.739,485.399)" d="M18.7031,-13.5938 C4.90625,-13.5938 0,-6.59375 0,-0.09375 C0,6.40625 4.90625,13.4063 18.7031,13.4063 C32.5,13.4063 37.2969,6.40625 37.2969,-0.09375 C37.2969,-6.59375 32.5,-13.5938 18.7031,-13.5938 M19.5,10.2031 C16.7031,10.2031 14.7969,9.40625 13.5,6.90625 C12.2031,4.40625 10.4063,-2.09375 10.2969,-4.70313 C10.0938,-7.40625 11.0938,-9 13.5,-9.79688 C14.7031,-10.2031 16.2969,-10.4063 17.9063,-10.4063 C20.5938,-10.4063 22.4063,-9.79688 23.7969,-7.09375 C25.2031,-4.5 27.1094,2 27.1094,4.5 C27.1094,9.40625 23.5,10.2031 19.5,10.2031"/>
<path class="Note" transform="matrix(0.992001,0,0,0.992001,1572.86,448.199)" d="M18.7031,-13.5938 C4.90625,-13.5938 0,-6.59375 0,-0.09375 C0,6.40625 4.90625,13.4063 18.7031,13.4063 C32.5,13.4063 37.2969,6.40625 37.2969,-0.09375 C37.2969,-6.59375 32.5,-13.5938 18.7031,-13.5938 M19.5,10.2031 C16.7031,10.2031 14.7969,9.40625 13.5,6.90625 C12.2031,4.40625 10.4063,-2.09375 10.2969,-4.70313 C10.0938,-7.40625 11.0938,-9 13.5,-9.79688 C14.7031,-10.2031 16.2969,-10.4063 17.9063,-10.4063 C20.5938,-10.4063 22.4063,-9.79688 23.7969,-7.09375 C25.2031,-4.5 27.1094,2 27.1094,4.5 C27.1094,9.40625 23.5,10.2031 19.5,10.2031"/>
<path class="Note" transform="matrix(0.992001,0,0,0.992001,647.364,497.799)" d="M18.7031,-13.5938 C4.90625,-13.5938 0,-6.59375 0,-0.09375 C0,6.40625 4.90625,13.4063 18.7031,13.4063 C32.5,13.4063 37.2969,6.40625 37.2969,-0.09375 C37.2969,-6.59375 32.5,-13.5938 18.7031,-13.5938 M19.5,10.2031 C16.7031,10.2031 14.7969,9.40625 13.5,6.90625 C12.2031,4.40625 10.4063,-2.09375 10.2969,-4.70313 C10.0938,-7.40625 11.0938,-9 13.5,-9.79688 C14.7031,-10.2031 16.2969,-10.4063 17.9063,-10.4063 C20.5938,-10.4063 22.4063,-9.79688 23.7969,-7.09375 C25.2031,-4.5 27.1094,2 27.1094,4.5 C27.1094,9.40625 23.5,10.2031 19.5,10.2031"/>
<path class="Note" transform="matrix(0.992001,0,0,0.992001,2035.61,423.399)" d="M18.7031,-13.5938 C4.90625,-13.5938 0,-6.59375 0,-0.09375 C0,6.40625 4.90625,13.4063 18.7031,13.4063 C32.5,13.4063 37.2969,6.40625 37.2969,-0.09375 C37.2969,-6.59375 32.5,-13.5938 18.7031,-13.5938 M19.5,10.2031 C16.7031,10.2031 14.7969,9.40625 13.5,6.90625 C12.2031,4.40625 10.4063,-2.09375 10.2969,-4.70313 C10.0938,-7.40625 11.0938,-9 13.5,-9.79688 C14.7031,-10.2031 16.2969,-10.4063 17.9063,-10.4063 C20.5938,-10.4063 22.4063,-9.79688 23.7969,-7.09375 C25.2031,-4.5 27.1094,2 27.1094,4.5 C27.1094,9.40625 23.5,10.2031 19.5,10.2031"/>
<path class="Note" transform="matrix(0.992001,0,0,0.992001,1110.11,674.369)" d="M18.7031,-13.5938 C4.90625,-13.5938 0,-6.59375 0,-0.09375 C0,6.40625 4.90625,13.4063 18.7031,13.4063 C32.5,13.4063 37.2969,6.40625 37.2969,-0.09375 C37.2969,-6.59375 32.5,-13.5938 18.7031,-13.5938 M19.5,10.2031 C16.7031,10.2031 14.7969,9.40625 13.5,6.90625 C12.2031,4.40625 10.4063,-2.09375 10.2969,-4.70313 C10.0938,-7.40625 11.0938,-9 13.5,-9.79688 C14.7031,-10.2031 16.2969,-10.4063 17.9063,-10.4063 C20.5938,-10.4063 22.4063,-9.79688 23.7969,-7.09375 C25.2031,-4.5 27.1094,2 27.1094,4.5 C27.1094,9.40625 23.5,10.2031 19.5,10.2031"/>
<path class="Note" transform="matrix(0.992001,0,0,0.992001,647.364,649.569)" d="M18.7031,-13.5938 C4.90625,-13.5938 0,-6.59375 0,-0.09375 C0,6.40625 4.90625,13.4063 18.7031,13.4063 C32.5,13.4063 37.2969,6.40625 37.2969,-0.09375 C37.2969,-6.59375 32.5,-13.5938 18.7031,-13.5938 M19.5,10.2031 C16.7031,10.2031 14.7969,9.40625 13.5,6.90625 C12.2031,4.40625 10.4063,-2.09375 10.2969,-4.70313 C10.0938,-7.40625 11.0938,-9 13.5,-9.79688 C14.7031,-10.2031 16.2969,-10.4063 17.9063,-10.4063 C20.5938,-10.4063 22.4063,-9.79688 23.7969,-7.09375 C25.2031,-4.5 27.1094,2 27.1094,4.5 C27.1094,9.40625 23.5,10.2031 19.5,10.2031"/>
<path class="Note" transform="matrix(0.992001,0,0,0.992001,415.99,637.169)" d="M18.7031,-13.5938 C4.90625,-13.5938 0,-6.59375 0,-0.09375 C0,6.40625 4.90625,13.4063 18.7031,13.4063 C32.5,13.4063 37.2969,6.40625 37.2969,-0.09375 C37.2969,-6.59375 32.5,-13.5938 18.7031,-13.5938 M19.5,10.2031 C16.7031,10.2031 14.7969,9.40625 13.5,6.90625 C12.2031,4.40625 10.4063,-2.09375 10.2969,-4.70313 C10.0938,-7.40625 11.0938,-9 13.5,-9.79688 C14.7031,-10.2031 16.2969,-10.4063 17.9063,-10.4063 C20.5938,-10.4063 22.4063,-9.79688 23.7969,-7.09375 C25.2031,-4.5 27.1094,2 27.1094,4.5 C27.1094,9.40625 23.5,10.2031 19.5,10.2031"/>
<path class="Note" transform="matrix(0.992001,0,0,0.992001,1572.86,699.169)" d="M18.7031,-13.5938 C4.90625,-13.5938 0,-6.59375 0,-0.09375 C0,6.40625 4.90625,13.4063 18.7031,13.4063 C32.5,13.4063 37.2969,6.40625 37.2969,-0.09375 C37.2969,-6.59375 32.5,-13.5938 18.7031,-13.5938 M19.5,10.2031 C16.7031,10.2031 14.7969,9.40625 13.5,6.90625 C12.2031,4.40625 10.4063,-2.09375 10.2969,-4.70313 C10.0938,-7.40625 11.0938,-9 13.5,-9.79688 C14.7031,-10.2031 16.2969,-10.4063 17.9063,-10.4063 C20.5938,-10.4063 22.4063,-9.79688 23.7969,-7.09375 C25.2031,-4.5 27.1094,2 27.1094,4.5 C27.1094,9.40625 23.5,10.2031 19.5,10.2031"/>
<path class="Note" transform="matrix(0.992001,0,0,0.992001,1341.49,686.769)" d="M18.7031,-13.5938 C4.90625,-13.5938 0,-6.59375 0,-0.09375 C0,6.40625 4.90625,13.4063 18.7031,13.4063 C32.5,13.4063 37.2969,6.40625 37.2969,-0.09375 C37.2969,-6.59375 32.5,-13.5938 18.7031,-13.5938 M19.5,10.2031 C16.7031,10.2031 14.7969,9.40625 13.5,6.90625 C12.2031,4.40625 10.4063,-2.09375 10.2969,-4.70313 C10.0938,-7.40625 11.0938,-9 13.5,-9.79688 C14.7031,-10.2031 16.2969,-10.4063 17.9063,-10.4063 C20.5938,-10.4063 22.4063,-9.79688 23.7969,-7.09375 C25.2031,-4.5 27.1094,2 27.1094,4.5 C27.1094,9.40625 23.5,10.2031 19.5,10.2031"/>
<path class="Note" transform="matrix(0.992001,0,0,0.992001,1804.24,711.569)" d="M18.7031,-13.5938 C4.90625,-13.5938 0,-6.59375 0,-0.09375 C0,6.40625 4.90625,13.4063 18.7031,13.4063 C32.5,13.4063 37.2969,6.40625 37.2969,-0.09375 C37.2969,-6.59375 32.5,-13.5938 18.7031,-13.5938 M19.5,10.2031 C16.7031,10.2031 14.7969,9.40625 13.5,6.90625 C12.2031,4.40625 10.4063,-2.09375 10.2969,-4.70313 C10.0938,-7.40625 11.0938,-9 13.5,-9.79688 C14.7031,-10.2031 16.2969,-10.4063 17.9063,-10.4063 C20.5938,-10.4063 22.4063,-9.79688 23.7969,-7.09375 C25.2031,-4.5 27.1094,2 27.1094,4.5 C27.1094,9.40625 23.5,10.2031 19.5,10.2031"/>
<path class="Note" transform="matrix(0.992001,0,0,0.992001,878.739,661.969)" d="M18.7031,-13.5938 C4.90625,-13.5938 0,-6.59375 0,-0.09375 C0,6.40625 4.90625,13.4063 18.7031,13.4063 C32.5,13.4063 37.2969,6.40625 37.2969,-0.09375 C37.2969,-6.59375 32.5,-13.5938 18.7031,-13.5938 M19.5,10.2031 C16.7031,10.2031 14.7969,9.40625 13.5,6.90625 C12.2031,4.40625 10.4063,-2.09375 10.2969,-4.70313 C10.0938,-7.40625 11.0938,-9 13.5,-9.79688 C14.7031,-10.2031 16.2969,-10.4063 17.9063,-10.4063 C20.5938,-10.4063 22.4063,-9.79688 23.7969,-7.09375 C25.2031,-4.5 27.1094,2 27.1094,4.5 C27.1094,9.40625 23.5,10.2031 19.5,10.2031"/>
<path class="Note" transform="matrix(0.992001,0,0,0.992001,2035.61,723.969)" d="M18.7031,-13.5938 C4.90625,-13.5938 0,-6.59375 0,-0.09375 C0,6.40625 4.90625,13.4063 18.7031,13.4063 C32.5,13.4063 37.2969,6.40625 37.2969,-0.09375 C37.2969,-6.59375 32.5,-13.5938 18.7031,-13.5938 M19.5,10.2031 C16.7031,10.2031 14.7969,9.40625 13.5,6.90625 C12.2031,4.40625 10.4063,-2.09375 10.2969,-4.70313 C10.0938,-7.40625 11.0938,-9 13.5,-9.79688 C14.7031,-10.2031 16.2969,-10.4063 17.9063,-10.4063 C20.5938,-10.4063 22.4063,-9.79688 23.7969,-7.09375 C25.2031,-4.5 27.1094,2 27.1094,4.5 C27.1094,9.40625 23.5,10.2031 19.5,10.2031"/>
<path class="Clef" transform="matrix(0.992001,0,0,0.992001,235.662,460.599)" d="M12.2969,51.2969 C12.2969,57.9063 17.2969,66.6094 30.7969,66.6094 C35.5,66.6094 39.6094,65.4063 43.2031,63.2031 C48.6094,59.4063 50,52.7969 50,46.5 C50,42.6094 49.4063,38.1094 48.4063,32.4063 C48.1094,30.4063 47.5,27.4063 46.9063,23.5 C56.7031,20.2969 64,10.0938 64,-0.203125 C64,-15.2969 53.2969,-25.5 38.7031,-25.5 C37.7031,-31.5 36.7031,-37.4063 35.9063,-43 C46.4063,-54.1094 53.7031,-66.6094 53.7031,-82.5 C53.7031,-91.6094 50.9063,-99 49.2969,-102.609 C46.9063,-107.703 44,-111.203 42.2031,-111.203 C41.5,-111.203 38.4063,-110 35.1094,-106.109 C28.7031,-98.5 26.9063,-85.7031 26.9063,-77.3125 C26.9063,-71.9063 27.4063,-67 29.1094,-55.7969 C29,-55.7031 23.7969,-50.4063 21.7031,-48.7031 C12.5938,-40.2969 0,-28.1094 0,-8.09375 C0,10.5938 16.2969,25.2969 34.9063,25.2969 C37.7969,25.2969 40.5,25 42.7969,24.5938 C44.7031,34.2031 45.9063,41.2031 45.9063,46.5 C45.9063,56.9063 40.5,62.4063 30.4063,62.4063 C28,62.4063 25.9063,61.9063 25.7031,61.9063 C25.6094,61.7969 25.4063,61.7031 25.4063,61.6094 C25.4063,61.4063 25.6094,61.2969 25.9063,61.2969 C30.6094,60.5 35.2969,56.5 35.2969,50.1094 C35.2969,44.7031 31.2031,39 23.7031,39 C16.7031,39 12.2969,44.7031 12.2969,51.2969 M33.2031,-82.2031 C34.1094,-86.2031 38.7031,-96.7031 43.9063,-96.7031 C45.4063,-96.7031 47.7969,-91.9063 47.7969,-84.9063 C47.7969,-74.5 40.1094,-66.7031 33.2031,-59.9063 C32.6094,-63.9063 32.1094,-67.7969 32.1094,-72 C32.1094,-75.7031 32.4063,-79.1094 33.2031,-82.2031 M42,20.5938 C40,21 38.1094,21.2031 36.2031,21.2031 C21.9063,21.2031 9.70313,11.2031 9.70313,-3.90625 C9.70313,-16.0938 18.2969,-27 27.1094,-34.6094 C28.7969,-36.1094 30.4063,-37.5 31.9063,-39 C32.7969,-33.6094 33.5,-28.9063 34.2031,-24.7969 C25.0938,-22.0938 18.9063,-12.5 18.9063,-3.09375 C18.9063,3.90625 24.4063,13.5 32.4063,13.5 C33.2031,13.5 34.1094,13.0938 34.1094,12.2031 C34.1094,11.2969 33.1094,10.7969 31.9063,10 C28,7.59375 25.7969,5 25.7969,0.09375 C25.7969,-6 30.4063,-10.9063 36.2031,-12.2969 L42,20.5938 M56.2031,2.09375 C56.2031,9.20313 53.2969,16.5 46.2031,19.4063 C44.1094,7.40625 41.4063,-8.5 40.7031,-12.9063 C49.7031,-12.9063 56.2031,-6.79688 56.2031,2.09375"/>
<path class="Clef" transform="matrix(0.992001,0,0,0.992001,235.662,686.769)" d="M25.4063,-25.0938 C17.7969,-25.0938 11.7031,-20.7031 11.5938,-20.7031 C5.70313,-16.4063 1.90625,-9.79688 1.90625,-2.5 C1.90625,4.79688 6.09375,10.2031 13.5,10.2031 C19.9063,10.2031 24.9063,5.90625 24.9063,-0.703125 C24.9063,-6.40625 19.9063,-11.0938 14.2969,-11.0938 C13.0938,-11.0938 12,-10.9063 11.0938,-10.5938 C10.0938,-10.2031 8.40625,-9.20313 7.59375,-8.5 C8.29688,-12.9063 11.2969,-17.2969 15.2031,-19.4063 C17.7031,-20.7969 20.9063,-21.4063 24.4063,-21.4063 C34.6094,-21.4063 39.6094,-13.2031 39.6094,3.59375 C39.6094,16.5938 31.2969,35.2969 21.5,44.1094 C11.0938,53.6094 1.29688,58.1094 1.20313,58.1094 C1.20313,58.1094 0,58.7969 0,60 C0,60.2031 0.09375,60.2969 0.09375,60.5 C0.40625,61.5 1.29688,61.7031 2,61.7031 L2.29688,61.6094 C2.5,61.6094 13.9063,56.9063 23,49.7969 C37,39.7031 52.7969,21.9063 52.7969,3.5 C52.7969,-13.9063 43.4063,-25.0938 25.4063,-25.0938 M56.7969,-12.4063 C56.7969,-9.59375 59,-7.40625 61.6094,-7.40625 C64.2031,-7.40625 66.4063,-9.59375 66.4063,-12.4063 C66.4063,-15.2031 64.2031,-17.5 61.6094,-17.5 C59,-17.5 56.7969,-15.2031 56.7969,-12.4063 M56.7969,12.2969 C56.7969,15.0938 59,17.4063 61.6094,17.4063 C64.2031,17.4063 66.4063,15.0938 66.4063,12.2969 C66.4063,9.5 64.2031,7.20313 61.6094,7.20313 C59,7.20313 56.7969,9.5 56.7969,12.2969"/>
<path class="KeySig" transform="matrix(0.992001,0,0,0.992001,2271.2,386.199)" d="M23.2969,-10.5 C23.9063,-10.5938 24.4063,-11.2969 24.4063,-11.9063 L24.4063,-17.7969 C24.4063,-18.7969 23.7031,-19.2031 22.7969,-19.2031 L19.5,-18.5 L19.5,-33.4063 L16.7031,-33.4063 L16.7031,-17.9063 L7.79688,-16.0938 L7.79688,-30.2031 L5,-30.2031 L5,-15.5 L1.09375,-14.7031 C0.5,-14.5938 0,-13.9063 0,-13.2969 L0,-7.5 C0,-6.40625 0.796875,-6.09375 1.70313,-6.09375 L5,-6.79688 L5,9.70313 L1.09375,10.5 C0.5,10.5938 0,11.2969 0,11.9063 L0,17.7031 C0,18.7969 0.796875,19.0938 1.70313,19.0938 L5,18.4063 L5,33.2969 L7.79688,33.2969 L7.79688,17.7969 L16.7031,16 L16.7031,30.1094 L19.5,30.1094 L19.5,15.4063 L23.2969,14.7031 C23.9063,14.5938 24.4063,13.9063 24.4063,13.2969 L24.4063,7.40625 C24.4063,6.40625 23.7031,6 22.7969,6 L19.5,6.70313 L19.5,-9.79688 L23.2969,-10.5 M7.79688,-7.40625 L16.7031,-9.20313 L16.7031,7.29688 L7.79688,9.20313 L7.79688,-7.40625 "/>
<path class="KeySig" transform="matrix(0.992001,0,0,0.992001,2271.2,686.769)" d="M23.2969,-10.5 C23.9063,-10.5938 24.4063,-11.2969 24.4063,-11.9063 L24.4063,-17.7969 C24.4063,-18.7969 23.7031,-19.2031 22.7969,-19.2031 L19.5,-18.5 L19.5,-33.4063 L16.7031,-33.4063 L16.7031,-17.9063 L7.79688,-16.0938 L7.79688,-30.2031 L5,-30.2031 L5,-15.5 L1.09375,-14.7031 C0.5,-14.5938 0,-13.9063 0,-13.2969 L0,-7.5 C0,-6.40625 0.796875,-6.09375 1.70313,-6.09375 L5,-6.79688 L5,9.70313 L1.09375,10.5 C0.5,10.5938 0,11.2969 0,11.9063 L0,17.7031 C0,18.7969 0.796875,19.0938 1.70313,19.0938 L5,18.4063 L5,33.2969 L7.79688,33.2969 L7.79688,17.7969 L16.7031,16 L16.7031,30.1094 L19.5,30.1094 L19.5,15.4063 L23.2969,14.7031 C23.9063,14.5938 24.4063,13.9063 24.4063,13.2969 L24.4063,7.40625 C24.4063,6.40625 23.7031,6 22.7969,6 L19.5,6.70313 L19.5,-9.79688 L23.2969,-10.5 M7.79688,-7.40625 L16.7031,-9.20313 L16.7031,7.29688 L7.79688,9.20313 L7.79688,-7.40625 "/>
<path class="TimeSig" transform="matrix(0.992001,0,0,0.992001,324.943,410.999)" d="M20.7969,12.7031 L20.7969,20.0938 L12.5,20.0938 C11.7969,20.0938 11.0938,20.7031 11.0938,21.5 L11.0938,23.4063 C11.0938,24.2031 11.7969,24.7969 12.5,24.7969 L42.7969,24.7969 C43.6094,24.7969 44.2031,24.2031 44.2031,23.4063 L44.2031,21.5 C44.2031,20.7031 43.6094,20.0938 42.7969,20.0938 L33.9063,20.0938 L33.9063,12.7031 L42.7969,12.7031 C43.6094,12.7031 44.2031,12 44.2031,11.2031 L44.2031,9.29688 C44.2031,8.59375 43.6094,7.90625 42.7969,7.90625 L33.9063,7.90625 L33.9063,-8 C33.9063,-8.59375 33.6094,-9.09375 33.1094,-9.29688 L31.9063,-9.90625 C31.7031,-10 31.4063,-10.0938 31.2031,-10.0938 C30.9063,-10 30.5,-9.90625 30.2969,-9.70313 L21.2031,-1.40625 C20.9063,-1.09375 20.7969,-0.703125 20.7969,-0.296875 L20.7969,7.90625 L9.29688,7.90625 C9.29688,7.90625 20.4063,-4.09375 32.2031,-19.9063 C32.6094,-20.4063 32.7031,-20.9063 32.7031,-21.2969 C32.7031,-21.7969 32.5,-22.2031 32.4063,-22.2969 L30.2031,-24.5 C30,-24.7031 29.6094,-24.9063 29.2031,-24.9063 C28.6094,-24.9063 15.0938,-24.9063 14.4063,-24.9063 C13.5938,-24.9063 13.0938,-24.2969 13,-23.7031 C13,-23.7031 12.5,-16.2969 9.90625,-8.20313 C7.29688,-0.09375 4.29688,4.90625 1.70313,8.59375 C1.70313,8.59375 1.40625,9.09375 1.40625,9.70313 C1.40625,9.90625 1.40625,10.0938 1.5,10.2969 C1.90625,11 2.5,12.0938 2.5,12.0938 C2.5,12.0938 2.70313,12.7031 3.59375,12.7031 L20.7969,12.7031 "/>
<path class="TimeSig" transform="matrix(0.992001,0,0,0.992001,324.943,460.599)" d="M20.7969,12.7031 L20.7969,20.0938 L12.5,20.0938 C11.7969,20.0938 11.0938,20.7031 11.0938,21.5 L11.0938,23.4063 C11.0938,24.2031 11.7969,24.7969 12.5,24.7969 L42.7969,24.7969 C43.6094,24.7969 44.2031,24.2031 44.2031,23.4063 L44.2031,21.5 C44.2031,20.7031 43.6094,20.0938 42.7969,20.0938 L33.9063,20.0938 L33.9063,12.7031 L42.7969,12.7031 C43.6094,12.7031 44.2031,12 44.2031,11.2031 L44.2031,9.29688 C44.2031,8.59375 43.6094,7.90625 42.7969,7.90625 L33.9063,7.90625 L33.9063,-8 C33.9063,-8.59375 33.6094,-9.09375 33.1094,-9.29688 L31.9063,-9.90625 C31.7031,-10 31.4063,-10.0938 31.2031,-10.0938 C30.9063,-10 30.5,-9.90625 30.2969,-9.70313 L21.2031,-1.40625 C20.9063,-1.09375 20.7969,-0.703125 20.7969,-0.296875 L20.7969,7.90625 L9.29688,7.90625 C9.29688,7.90625 20.4063,-4.09375 32.2031,-19.9063 C32.6094,-20.4063 32.7031,-20.9063 32.7031,-21.2969 C32.7031,-21.7969 32.5,-22.2031 32.4063,-22.2969 L30.2031,-24.5 C30,-24.7031 29.6094,-24.9063 29.2031,-24.9063 C28.6094,-24.9063 15.0938,-24.9063 14.4063,-24.9063 C13.5938,-24.9063 13.0938,-24.2969 13,-23.7031 C13,-23.7031 12.5,-16.2969 9.90625,-8.20313 C7.29688,-0.09375 4.29688,4.90625 1.70313,8.59375 C1.70313,8.59375 1.40625,9.09375 1.40625,9.70313 C1.40625,9.90625 1.40625,10.0938 1.5,10.2969 C1.90625,11 2.5,12.0938 2.5,12.0938 C2.5,12.0938 2.70313,12.7031 3.59375,12.7031 L20.7969,12.7031 "/>
<path class="TimeSig" transform="matrix(0.992001,0,0,0.992001,324.943,686.769)" d="M20.7969,12.7031 L20.7969,20.0938 L12.5,20.0938 C11.7969,20.0938 11.0938,20.7031 11.0938,21.5 L11.0938,23.4063 C11.0938,24.2031 11.7969,24.7969 12.5,24.7969 L42.7969,24.7969 C43.6094,24.7969 44.2031,24.2031 44.2031,23.4063 L44.2031,21.5 C44.2031,20.7031 43.6094,20.0938 42.7969,20.0938 L33.9063,20.0938 L33.9063,12.7031 L42.7969,12.7031 C43.6094,12.7031 44.2031,12 44.2031,11.2031 L44.2031,9.29688 C44.2031,8.59375 43.6094,7.90625 42.7969,7.90625 L33.9063,7.90625 L33.9063,-8 C33.9063,-8.59375 33.6094,-9.09375 33.1094,-9.29688 L31.9063,-9.90625 C31.7031,-10 31.4063,-10.0938 31.2031,-10.0938 C30.9063,-10 30.5,-9.90625 30.2969,-9.70313 L21.2031,-1.40625 C20.9063,-1.09375 20.7969,-0.703125 20.7969,-0.296875 L20.7969,7.90625 L9.29688,7.90625 C9.29688,7.90625 20.4063,-4.09375 32.2031,-19.9063 C32.6094,-20.4063 32.7031,-20.9063 32.7031,-21.2969 C32.7031,-21.7969 32.5,-22.2031 32.4063,-22.2969 L30.2031,-24.5 C30,-24.7031 29.6094,-24.9063 29.2031,-24.9063 C28.6094,-24.9063 15.0938,-24.9063 14.4063,-24.9063 C13.5938,-24.9063 13.0938,-24.2969 13,-23.7031 C13,-23.7031 12.5,-16.2969 9.90625,-8.20313 C7.29688,-0.09375 4.29688,4.90625 1.70313,8.59375 C1.70313,8.59375 1.40625,9.09375 1.40625,9.70313 C1.40625,9.90625 1.40625,10.0938 1.5,10.2969 C1.90625,11 2.5,12.0938 2.5,12.0938 C2.5,12.0938 2.70313,12.7031 3.59375,12.7031 L20.7969,12.7031 "/>
<path class="TimeSig" transform="matrix(0.992001,0,0,0.992001,324.943,736.369)" d="M20.7969,12.7031 L20.7969,20.0938 L12.5,20.0938 C11.7969,20.0938 11.0938,20.7031 11.0938,21.5 L11.0938,23.4063 C11.0938,24.2031 11.7969,24.7969 12.5,24.7969 L42.7969,24.7969 C43.6094,24.7969 44.2031,24.2031 44.2031,23.4063 L44.2031,21.5 C44.2031,20.7031 43.6094,20.0938 42.7969,20.0938 L33.9063,20.0938 L33.9063,12.7031 L42.7969,12.7031 C43.6094,12.7031 44.2031,12 44.2031,11.2031 L44.2031,9.29688 C44.2031,8.59375 43.6094,7.90625 42.7969,7.90625 L33.9063,7.90625 L33.9063,-8 C33.9063,-8.59375 33.6094,-9.09375 33.1094,-9.29688 L31.9063,-9.90625 C31.7031,-10 31.4063,-10.0938 31.2031,-10.0938 C30.9063,-10 30.5,-9.90625 30.2969,-9.70313 L21.2031,-1.40625 C20.9063,-1.09375 20.7969,-0.703125 20.7969,-0.296875 L20.7969,7.90625 L9.29688,7.90625 C9.29688,7.90625 20.4063,-4.09375 32.2031,-19.9063 C32.6094,-20.4063 32.7031,-20.9063 32.7031,-21.2969 C32.7031,-21.7969 32.5,-22.2031 32.4063,-22.2969 L30.2031,-24.5 C30,-24.7031 29.6094,-24.9063 29.2031,-24.9063 C28.6094,-24.9063 15.0938,-24.9063 14.4063,-24.9063 C13.5938,-24.9063 13.0938,-24.2969 13,-23.7031 C13,-23.7031 12.5,-16.2969 9.90625,-8.20313 C7.29688,-0.09375 4.29688,4.90625 1.70313,8.59375 C1.70313,8.59375 1.40625,9.09375 1.40625,9.70313 C1.40625,9.90625 1.40625,10.0938 1.5,10.2969 C1.90625,11 2.5,12.0938 2.5,12.0938 C2.5,12.0938 2.70313,12.7031 3.59375,12.7031 L20.7969,12.7031 "/>
<path class="Lyrics" d="M425.989,585.735 L434.692,585.391 L434.692,583.235 L433.786,583.235 C430.942,583.094 430.692,582.797 430.692,579.594 L430.692,548.531 L420.895,549.094 L420.895,551.235 L423.833,551.235 C425.739,551.281 425.989,551.594 425.989,553.735 L425.989,565.047 C424.145,562.485 421.989,561.344 419.083,561.344 C413.442,561.344 409.145,566.797 409.145,573.985 C409.145,581.094 413.286,586.141 419.083,586.141 C422.239,586.141 424.395,584.797 425.989,581.797 L425.989,585.735 M420.083,564.047 C422.145,564.047 424.083,565.547 424.989,567.844 C425.645,569.344 425.942,571.391 425.942,573.844 C425.942,579.688 423.645,583.438 420.036,583.438 C416.489,583.438 414.395,580.141 414.395,574.594 C414.395,571.594 414.692,569.344 415.333,567.688 C416.192,565.438 418.036,564.047 420.083,564.047 M448.583,561.344 C442.442,561.344 437.692,566.797 437.692,573.797 C437.692,580.641 442.489,586.141 448.489,586.141 C454.489,586.141 459.286,580.641 459.286,573.735 C459.286,566.891 454.489,561.344 448.583,561.344 M448.583,563.485 C452.083,563.485 454.036,567.141 454.036,573.735 C454.036,580.391 452.083,583.985 448.489,583.985 C444.895,583.985 442.942,580.391 442.942,573.797 C442.942,566.985 444.833,563.485 448.583,563.485"/>
<path class="Lyrics" d="M1346.99,561.547 L1345.24,561.547 L1343.78,563.344 C1341.99,561.938 1340.19,561.344 1337.69,561.344 C1333.28,561.344 1330.39,564.188 1330.39,568.594 C1330.39,573.297 1333.44,574.485 1337.44,575.438 L1340.08,576.047 C1344.03,576.985 1345.44,577.985 1345.44,579.985 C1345.44,582.344 1343.39,583.985 1340.49,583.985 C1336.24,583.985 1333.24,581.297 1332.03,576.297 L1330.03,576.297 L1330.03,585.735 L1331.78,585.735 L1333.53,583.688 C1335.58,585.344 1337.83,586.141 1340.39,586.141 C1345.28,586.141 1348.53,583.094 1348.53,578.438 C1348.53,576.235 1347.83,574.547 1346.44,573.391 C1345.24,572.344 1344.24,571.938 1341.19,571.297 L1338.69,570.735 C1335.94,570.141 1335.94,570.141 1335.03,569.641 C1333.94,569.141 1333.28,568.094 1333.28,566.985 C1333.28,564.938 1335.19,563.547 1337.94,563.547 C1342.03,563.547 1344.03,566.438 1345.24,569.938 L1346.99,569.938 L1346.99,561.547 M1363.08,561.344 C1356.94,561.344 1352.19,566.797 1352.19,573.797 C1352.19,580.641 1356.99,586.141 1362.99,586.141 C1368.99,586.141 1373.78,580.641 1373.78,573.735 C1373.78,566.891 1368.99,561.344 1363.08,561.344 M1363.08,563.485 C1366.58,563.485 1368.53,567.141 1368.53,573.735 C1368.53,580.391 1366.58,583.985 1362.99,583.985 C1359.39,583.985 1357.44,580.391 1357.44,573.797 C1357.44,566.985 1359.33,563.485 1363.08,563.485 M1385.69,548.531 L1376.44,549.094 L1376.44,551.235 L1378.89,551.235 C1380.74,551.281 1380.99,551.594 1380.99,553.735 L1380.99,581.594 C1380.94,582.344 1380.89,582.641 1380.69,582.891 C1380.33,583.344 1379.39,583.547 1377.24,583.594 L1376.89,583.594 L1376.89,585.391 L1389.83,585.391 L1389.83,583.594 L1389.49,583.594 C1386.14,583.485 1385.69,583.235 1385.69,581.438 L1385.69,548.531 "/>
<path class="Lyrics" d="M877.285,562.094 L868.394,562.641 L868.394,564.797 L870.441,564.797 C872.332,564.844 872.582,565.141 872.582,567.297 L872.582,581.594 C872.535,582.344 872.488,582.641 872.285,582.891 C871.941,583.344 870.988,583.547 868.832,583.594 L868.644,583.594 L868.644,585.391 L881.238,585.391 L881.238,583.594 L881.035,583.594 C877.738,583.485 877.285,583.235 877.285,581.391 L877.285,572.141 C877.285,567.688 879.738,564.391 882.988,564.391 C885.832,564.391 887.285,566.438 887.285,570.485 L887.285,581.641 C887.238,582.297 887.191,582.641 886.941,582.891 C886.644,583.344 885.644,583.547 883.488,583.594 L883.285,583.594 L883.285,585.391 L895.941,585.391 L895.941,583.594 L895.738,583.594 C892.441,583.485 891.988,583.235 891.988,581.438 L891.988,572.594 C891.988,567.594 894.238,564.391 897.738,564.391 C900.598,564.391 901.988,566.547 901.988,571.047 L901.988,581.594 C901.941,582.297 901.894,582.641 901.644,582.891 C901.348,583.344 900.348,583.547 898.191,583.594 L897.988,583.594 L897.988,585.391 L910.644,585.391 L910.644,583.594 L910.441,583.594 C907.144,583.485 906.691,583.235 906.691,581.391 L906.691,570.047 C906.691,566.938 906.394,565.891 905.098,564.188 C903.644,562.344 901.598,561.344 899.191,561.344 C895.941,561.344 893.535,562.891 891.394,566.344 C890.535,563.344 887.832,561.344 884.488,561.344 C881.441,561.344 879.238,562.797 877.285,565.938 L877.285,562.094 M919.191,549.641 C917.582,549.641 916.285,550.938 916.285,552.531 C916.285,554.141 917.582,555.438 919.144,555.438 C920.785,555.438 922.082,554.141 922.082,552.531 C922.082,550.938 920.785,549.641 919.191,549.641 M921.535,562.094 L912.144,562.641 L912.144,564.797 L914.691,564.797 C916.582,564.844 916.832,565.141 916.832,567.297 L916.832,581.594 C916.785,582.344 916.738,582.641 916.535,582.891 C916.191,583.344 915.238,583.547 913.082,583.594 L912.738,583.594 L912.738,585.391 L925.691,585.391 L925.691,583.594 L925.332,583.594 C921.988,583.485 921.535,583.235 921.535,581.438 L921.535,562.094 "/>
<path class="Lyrics" d="M1579.57,548.531 L1570.32,549.094 L1570.32,551.235 L1572.77,551.235 C1574.61,551.281 1574.86,551.594 1574.86,553.735 L1574.86,581.594 C1574.82,582.344 1574.77,582.641 1574.57,582.891 C1574.21,583.344 1573.27,583.547 1571.11,583.594 L1570.77,583.594 L1570.77,585.391 L1583.71,585.391 L1583.71,583.594 L1583.36,583.594 C1580.02,583.485 1579.57,583.235 1579.57,581.438 L1579.57,548.531 M1607.96,569.297 C1607.96,566.141 1607.41,564.547 1605.96,563.344 C1604.32,561.985 1601.86,561.344 1598.66,561.344 C1593.02,561.344 1588.91,563.985 1588.91,567.641 C1588.91,569.485 1590.07,570.688 1591.82,570.688 C1593.41,570.688 1594.52,569.641 1594.52,568.141 C1594.52,567.485 1594.27,566.797 1593.77,566.094 C1593.46,565.735 1593.41,565.641 1593.41,565.391 C1593.41,564.391 1595.41,563.485 1597.82,563.485 C1599.41,563.485 1601.16,563.985 1601.96,564.735 C1602.91,565.547 1603.27,566.735 1603.27,568.985 L1603.27,570.938 C1598.07,571.844 1596.41,572.235 1593.96,573.188 C1589.61,574.797 1587.57,577.094 1587.57,580.297 C1587.57,583.891 1590.36,586.141 1594.82,586.141 C1598.27,586.141 1601.36,584.735 1603.52,582.188 C1604.32,584.735 1605.57,585.735 1607.91,585.735 C1610.16,585.735 1612.52,584.297 1612.52,582.844 C1612.52,582.485 1612.32,582.235 1612.02,582.235 C1611.82,582.235 1611.61,582.297 1611.27,582.438 C1610.57,582.735 1610.27,582.797 1609.86,582.797 C1608.46,582.797 1607.96,581.891 1607.96,579.344 L1607.96,569.297 M1603.27,575.391 C1603.27,578.391 1603.11,579.094 1602.27,580.391 C1601.02,582.235 1598.77,583.485 1596.57,583.485 C1594.27,583.485 1592.61,581.844 1592.61,579.594 C1592.61,577.485 1593.66,575.985 1595.86,574.938 C1597.41,574.235 1599.36,573.735 1603.27,573.094 L1603.27,575.391 "/>
<path class="Lyrics" d="M2045.61,585.735 L2054.31,585.391 L2054.31,583.235 L2053.41,583.235 C2050.56,583.094 2050.31,582.797 2050.31,579.594 L2050.31,548.531 L2040.52,549.094 L2040.52,551.235 L2043.46,551.235 C2045.36,551.281 2045.61,551.594 2045.61,553.735 L2045.61,565.047 C2043.77,562.485 2041.61,561.344 2038.71,561.344 C2033.06,561.344 2028.77,566.797 2028.77,573.985 C2028.77,581.094 2032.91,586.141 2038.71,586.141 C2041.86,586.141 2044.02,584.797 2045.61,581.797 L2045.61,585.735 M2039.71,564.047 C2041.77,564.047 2043.71,565.547 2044.61,567.844 C2045.27,569.344 2045.56,571.391 2045.56,573.844 C2045.56,579.688 2043.27,583.438 2039.66,583.438 C2036.11,583.438 2034.02,580.141 2034.02,574.594 C2034.02,571.594 2034.31,569.344 2034.96,567.688 C2035.81,565.438 2037.66,564.047 2039.71,564.047 M2068.21,561.344 C2062.06,561.344 2057.31,566.797 2057.31,573.797 C2057.31,580.641 2062.11,586.141 2068.11,586.141 C2074.11,586.141 2078.91,580.641 2078.91,573.735 C2078.91,566.891 2074.11,561.344 2068.21,561.344 M2068.21,563.485 C2071.71,563.485 2073.66,567.141 2073.66,573.735 C2073.66,580.391 2071.71,583.985 2068.11,583.985 C2064.52,583.985 2062.56,580.391 2062.56,573.797 C2062.56,566.985 2064.46,563.485 2068.21,563.485"/>
<path class="Lyrics" d="M1116.16,562.094 L1116.16,559.235 C1116.16,556.735 1116.32,555.094 1116.71,554.094 C1117.52,551.891 1119.27,550.531 1121.27,550.531 C1122.32,550.531 1122.96,550.844 1122.96,551.391 C1122.96,551.594 1122.96,551.641 1122.66,552.031 C1122.36,552.485 1122.21,553.094 1122.21,553.641 C1122.21,555.141 1123.41,556.281 1124.96,556.281 C1126.61,556.281 1127.77,555.031 1127.77,553.235 C1127.77,550.344 1125.27,548.531 1121.21,548.531 C1117.77,548.531 1115.21,549.735 1113.46,552.235 C1111.96,554.344 1111.46,556.485 1111.46,560.547 L1111.46,562.094 L1107.07,562.094 L1107.07,564.235 L1111.46,564.235 L1111.46,581.594 C1111.41,582.297 1111.36,582.594 1111.16,582.891 C1110.82,583.344 1109.86,583.547 1107.71,583.594 L1107.52,583.594 L1107.52,585.391 L1120.86,585.391 L1120.86,583.594 L1119.96,583.594 C1116.61,583.485 1116.16,583.235 1116.16,581.438 L1116.16,564.235 L1121.66,564.235 L1121.66,562.094 L1116.16,562.094 M1144.71,569.297 C1144.71,566.141 1144.16,564.547 1142.71,563.344 C1141.07,561.985 1138.61,561.344 1135.41,561.344 C1129.77,561.344 1125.66,563.985 1125.66,567.641 C1125.66,569.485 1126.82,570.688 1128.57,570.688 C1130.16,570.688 1131.27,569.641 1131.27,568.141 C1131.27,567.485 1131.02,566.797 1130.52,566.094 C1130.21,565.735 1130.16,565.641 1130.16,565.391 C1130.16,564.391 1132.16,563.485 1134.57,563.485 C1136.16,563.485 1137.91,563.985 1138.71,564.735 C1139.66,565.547 1140.02,566.735 1140.02,568.985 L1140.02,570.938 C1134.82,571.844 1133.16,572.235 1130.71,573.188 C1126.36,574.797 1124.32,577.094 1124.32,580.297 C1124.32,583.891 1127.11,586.141 1131.57,586.141 C1135.02,586.141 1138.11,584.735 1140.27,582.188 C1141.07,584.735 1142.32,585.735 1144.66,585.735 C1146.91,585.735 1149.27,584.297 1149.27,582.844 C1149.27,582.485 1149.07,582.235 1148.77,582.235 C1148.57,582.235 1148.36,582.297 1148.02,582.438 C1147.32,582.735 1147.02,582.797 1146.61,582.797 C1145.21,582.797 1144.71,581.891 1144.71,579.344 L1144.71,569.297 M1140.02,575.391 C1140.02,578.391 1139.86,579.094 1139.02,580.391 C1137.77,582.235 1135.52,583.485 1133.32,583.485 C1131.02,583.485 1129.36,581.844 1129.36,579.594 C1129.36,577.485 1130.41,575.985 1132.61,574.938 C1134.16,574.235 1136.11,573.735 1140.02,573.094 L1140.02,575.391 "/>
<path class="Lyrics" d="M1822.24,561.547 L1820.49,561.547 L1819.03,563.344 C1817.24,561.938 1815.44,561.344 1812.94,561.344 C1808.53,561.344 1805.64,564.188 1805.64,568.594 C1805.64,573.297 1808.69,574.485 1812.69,575.438 L1815.33,576.047 C1819.28,576.985 1820.69,577.985 1820.69,579.985 C1820.69,582.344 1818.64,583.985 1815.74,583.985 C1811.49,583.985 1808.49,581.297 1807.28,576.297 L1805.28,576.297 L1805.28,585.735 L1807.03,585.735 L1808.78,583.688 C1810.83,585.344 1813.08,586.141 1815.64,586.141 C1820.53,586.141 1823.78,583.094 1823.78,578.438 C1823.78,576.235 1823.08,574.547 1821.69,573.391 C1820.49,572.344 1819.49,571.938 1816.44,571.297 L1813.94,570.735 C1811.19,570.141 1811.19,570.141 1810.28,569.641 C1809.19,569.141 1808.53,568.094 1808.53,566.985 C1808.53,564.938 1810.44,563.547 1813.19,563.547 C1817.28,563.547 1819.28,566.438 1820.49,569.938 L1822.24,569.938 L1822.24,561.547 M1833.69,549.641 C1832.08,549.641 1830.78,550.938 1830.78,552.531 C1830.78,554.141 1832.08,555.438 1833.64,555.438 C1835.28,555.438 1836.58,554.141 1836.58,552.531 C1836.58,550.938 1835.28,549.641 1833.69,549.641 M1836.03,562.094 L1826.64,562.641 L1826.64,564.797 L1829.19,564.797 C1831.08,564.844 1831.33,565.141 1831.33,567.297 L1831.33,581.594 C1831.28,582.344 1831.24,582.641 1831.03,582.891 C1830.69,583.344 1829.74,583.547 1827.58,583.594 L1827.24,583.594 L1827.24,585.391 L1840.19,585.391 L1840.19,583.594 L1839.83,583.594 C1836.49,583.485 1836.03,583.235 1836.03,581.438 L1836.03,562.094 "/>
<path class="Lyrics" d="M652.27,562.094 L643.41,562.641 L643.41,564.797 L645.457,564.797 C647.364,564.844 647.614,565.141 647.614,567.297 L647.614,581.594 C647.567,582.344 647.52,582.641 647.317,582.891 C646.957,583.344 645.957,583.547 643.817,583.594 L643.614,583.594 L643.614,585.391 L656.957,585.391 L656.957,583.594 L656.067,583.594 C652.707,583.485 652.27,583.235 652.27,581.438 L652.27,578.735 C652.317,570.344 655.317,563.938 659.207,563.735 C658.52,564.547 658.317,565.047 658.317,565.985 C658.317,567.594 659.457,568.735 661.067,568.735 C662.91,568.735 664.114,567.391 664.114,565.391 C664.114,562.938 662.41,561.344 659.77,561.344 C656.614,561.344 653.91,563.844 652.27,568.297 L652.27,562.094 M687.614,574.141 C687.66,566.641 683.41,561.344 677.317,561.344 C670.91,561.344 666.114,566.891 666.114,574.391 C666.114,581.438 670.66,586.141 677.41,586.141 C682.207,586.141 685.567,583.797 687.614,579.047 L685.864,578.094 C683.817,581.938 681.707,583.438 678.364,583.438 C675.817,583.438 673.957,582.391 672.66,580.141 C671.77,578.641 671.364,576.891 671.41,574.141 L687.614,574.141 M671.457,571.985 C671.457,568.485 673.067,563.485 677.27,563.485 C680.27,563.485 682.27,566.141 682.27,570.188 C682.27,571.594 681.817,571.985 680.207,571.985 L671.457,571.985 "/>
<path class="Lyrics" d="M885.441,798.71 L876.191,799.272 L876.191,801.413 L878.644,801.413 C880.488,801.46 880.738,801.772 880.738,803.913 L880.738,831.772 C880.691,832.522 880.644,832.819 880.441,833.069 C880.082,833.522 879.144,833.725 876.988,833.772 L876.644,833.772 L876.644,835.569 L889.582,835.569 L889.582,833.772 L889.238,833.772 C885.894,833.663 885.441,833.413 885.441,831.616 L885.441,798.71 M913.832,819.475 C913.832,816.319 913.285,814.725 911.832,813.522 C910.191,812.163 907.738,811.522 904.535,811.522 C898.894,811.522 894.785,814.163 894.785,817.819 C894.785,819.663 895.941,820.866 897.691,820.866 C899.285,820.866 900.394,819.819 900.394,818.319 C900.394,817.663 900.144,816.975 899.644,816.272 C899.332,815.913 899.285,815.819 899.285,815.569 C899.285,814.569 901.285,813.663 903.691,813.663 C905.285,813.663 907.035,814.163 907.832,814.913 C908.785,815.725 909.144,816.913 909.144,819.163 L909.144,821.116 C903.941,822.022 902.285,822.413 899.832,823.366 C895.488,824.975 893.441,827.272 893.441,830.475 C893.441,834.069 896.238,836.319 900.691,836.319 C904.144,836.319 907.238,834.913 909.394,832.366 C910.191,834.913 911.441,835.913 913.785,835.913 C916.035,835.913 918.394,834.475 918.394,833.022 C918.394,832.663 918.191,832.413 917.894,832.413 C917.691,832.413 917.488,832.475 917.144,832.616 C916.441,832.913 916.144,832.975 915.738,832.975 C914.332,832.975 913.832,832.069 913.832,829.522 L913.832,819.475 M909.144,825.569 C909.144,828.569 908.988,829.272 908.144,830.569 C906.894,832.413 904.644,833.663 902.441,833.663 C900.144,833.663 898.488,832.022 898.488,829.772 C898.488,827.663 899.535,826.163 901.738,825.116 C903.285,824.413 905.238,823.913 909.144,823.272 L909.144,825.569 "/>
<path class="Lyrics" d="M665.364,811.725 L663.614,811.725 L662.16,813.522 C660.364,812.116 658.567,811.522 656.067,811.522 C651.66,811.522 648.77,814.366 648.77,818.772 C648.77,823.475 651.817,824.663 655.817,825.616 L658.457,826.225 C662.41,827.163 663.817,828.163 663.817,830.163 C663.817,832.522 661.77,834.163 658.864,834.163 C654.614,834.163 651.614,831.475 650.41,826.475 L648.41,826.475 L648.41,835.913 L650.16,835.913 L651.91,833.866 C653.957,835.522 656.207,836.319 658.77,836.319 C663.66,836.319 666.91,833.272 666.91,828.616 C666.91,826.413 666.207,824.725 664.817,823.569 C663.614,822.522 662.614,822.116 659.567,821.475 L657.067,820.913 C654.317,820.319 654.317,820.319 653.41,819.819 C652.317,819.319 651.66,818.272 651.66,817.163 C651.66,815.116 653.567,813.725 656.317,813.725 C660.41,813.725 662.41,816.616 663.614,820.116 L665.364,820.116 L665.364,811.725 M676.817,799.819 C675.207,799.819 673.91,801.116 673.91,802.71 C673.91,804.319 675.207,805.616 676.77,805.616 C678.41,805.616 679.707,804.319 679.707,802.71 C679.707,801.116 678.41,799.819 676.817,799.819 M679.16,812.272 L669.77,812.819 L669.77,814.975 L672.317,814.975 C674.207,815.022 674.457,815.319 674.457,817.475 L674.457,831.772 C674.41,832.522 674.364,832.819 674.16,833.069 C673.817,833.522 672.864,833.725 670.707,833.772 L670.364,833.772 L670.364,835.569 L683.317,835.569 L683.317,833.772 L682.957,833.772 C679.614,833.663 679.16,833.413 679.16,831.616 L679.16,812.272 "/>
<path class="Lyrics" d="M1347.53,812.272 L1347.53,809.413 C1347.53,806.913 1347.69,805.272 1348.08,804.272 C1348.89,802.069 1350.64,800.71 1352.64,800.71 C1353.69,800.71 1354.33,801.022 1354.33,801.569 C1354.33,801.772 1354.33,801.819 1354.03,802.21 C1353.74,802.663 1353.58,803.272 1353.58,803.819 C1353.58,805.319 1354.78,806.46 1356.33,806.46 C1357.99,806.46 1359.14,805.21 1359.14,803.413 C1359.14,800.522 1356.64,798.71 1352.58,798.71 C1349.14,798.71 1346.58,799.913 1344.83,802.413 C1343.33,804.522 1342.83,806.663 1342.83,810.725 L1342.83,812.272 L1338.44,812.272 L1338.44,814.413 L1342.83,814.413 L1342.83,831.772 C1342.78,832.475 1342.74,832.772 1342.53,833.069 C1342.19,833.522 1341.24,833.725 1339.08,833.772 L1338.89,833.772 L1338.89,835.569 L1352.24,835.569 L1352.24,833.772 L1351.33,833.772 C1347.99,833.663 1347.53,833.413 1347.53,831.616 L1347.53,814.413 L1353.03,814.413 L1353.03,812.272 L1347.53,812.272 M1376.08,819.475 C1376.08,816.319 1375.53,814.725 1374.08,813.522 C1372.44,812.163 1369.99,811.522 1366.78,811.522 C1361.14,811.522 1357.03,814.163 1357.03,817.819 C1357.03,819.663 1358.19,820.866 1359.94,820.866 C1361.53,820.866 1362.64,819.819 1362.64,818.319 C1362.64,817.663 1362.39,816.975 1361.89,816.272 C1361.58,815.913 1361.53,815.819 1361.53,815.569 C1361.53,814.569 1363.53,813.663 1365.94,813.663 C1367.53,813.663 1369.28,814.163 1370.08,814.913 C1371.03,815.725 1371.39,816.913 1371.39,819.163 L1371.39,821.116 C1366.19,822.022 1364.53,822.413 1362.08,823.366 C1357.74,824.975 1355.69,827.272 1355.69,830.475 C1355.69,834.069 1358.49,836.319 1362.94,836.319 C1366.39,836.319 1369.49,834.913 1371.64,832.366 C1372.44,834.913 1373.69,835.913 1376.03,835.913 C1378.28,835.913 1380.64,834.475 1380.64,833.022 C1380.64,832.663 1380.44,832.413 1380.14,832.413 C1379.94,832.413 1379.74,832.475 1379.39,832.616 C1378.69,832.913 1378.39,832.975 1377.99,832.975 C1376.58,832.975 1376.08,832.069 1376.08,829.522 L1376.08,819.475 M1371.39,825.569 C1371.39,828.569 1371.24,829.272 1370.39,830.569 C1369.14,832.413 1366.89,833.663 1364.69,833.663 C1362.39,833.663 1360.74,832.022 1360.74,829.772 C1360.74,827.663 1361.78,826.163 1363.99,825.116 C1365.53,824.413 1367.49,823.913 1371.39,823.272 L1371.39,825.569 "/>
<path class="Lyrics" d="M1809.14,812.272 L1800.28,812.819 L1800.28,814.975 L1802.33,814.975 C1804.24,815.022 1804.49,815.319 1804.49,817.475 L1804.49,831.772 C1804.44,832.522 1804.39,832.819 1804.19,833.069 C1803.83,833.522 1802.83,833.725 1800.69,833.772 L1800.49,833.772 L1800.49,835.569 L1813.83,835.569 L1813.83,833.772 L1812.94,833.772 C1809.58,833.663 1809.14,833.413 1809.14,831.616 L1809.14,828.913 C1809.19,820.522 1812.19,814.116 1816.08,813.913 C1815.39,814.725 1815.19,815.225 1815.19,816.163 C1815.19,817.772 1816.33,818.913 1817.94,818.913 C1819.78,818.913 1820.99,817.569 1820.99,815.569 C1820.99,813.116 1819.28,811.522 1816.64,811.522 C1813.49,811.522 1810.78,814.022 1809.14,818.475 L1809.14,812.272 M1844.49,824.319 C1844.53,816.819 1840.28,811.522 1834.19,811.522 C1827.78,811.522 1822.99,817.069 1822.99,824.569 C1822.99,831.616 1827.53,836.319 1834.28,836.319 C1839.08,836.319 1842.44,833.975 1844.49,829.225 L1842.74,828.272 C1840.69,832.116 1838.58,833.616 1835.24,833.616 C1832.69,833.616 1830.83,832.569 1829.53,830.319 C1828.64,828.819 1828.24,827.069 1828.28,824.319 L1844.49,824.319 M1828.33,822.163 C1828.33,818.663 1829.94,813.663 1834.14,813.663 C1837.14,813.663 1839.14,816.319 1839.14,820.366 C1839.14,821.772 1838.69,822.163 1837.08,822.163 L1828.33,822.163 "/>
<path class="Lyrics" d="M1571.41,812.272 L1562.52,812.819 L1562.52,814.975 L1564.57,814.975 C1566.46,815.022 1566.71,815.319 1566.71,817.475 L1566.71,831.772 C1566.66,832.522 1566.61,832.819 1566.41,833.069 C1566.07,833.522 1565.11,833.725 1562.96,833.772 L1562.77,833.772 L1562.77,835.569 L1575.36,835.569 L1575.36,833.772 L1575.16,833.772 C1571.86,833.663 1571.41,833.413 1571.41,831.569 L1571.41,822.319 C1571.41,817.866 1573.86,814.569 1577.11,814.569 C1579.96,814.569 1581.41,816.616 1581.41,820.663 L1581.41,831.819 C1581.36,832.475 1581.32,832.819 1581.07,833.069 C1580.77,833.522 1579.77,833.725 1577.61,833.772 L1577.41,833.772 L1577.41,835.569 L1590.07,835.569 L1590.07,833.772 L1589.86,833.772 C1586.57,833.663 1586.11,833.413 1586.11,831.616 L1586.11,822.772 C1586.11,817.772 1588.36,814.569 1591.86,814.569 C1594.72,814.569 1596.11,816.725 1596.11,821.225 L1596.11,831.772 C1596.07,832.475 1596.02,832.819 1595.77,833.069 C1595.47,833.522 1594.47,833.725 1592.32,833.772 L1592.11,833.772 L1592.11,835.569 L1604.77,835.569 L1604.77,833.772 L1604.57,833.772 C1601.27,833.663 1600.82,833.413 1600.82,831.569 L1600.82,820.225 C1600.82,817.116 1600.52,816.069 1599.22,814.366 C1597.77,812.522 1595.72,811.522 1593.32,811.522 C1590.07,811.522 1587.66,813.069 1585.52,816.522 C1584.66,813.522 1581.96,811.522 1578.61,811.522 C1575.57,811.522 1573.36,812.975 1571.41,816.116 L1571.41,812.272 M1613.32,799.819 C1611.71,799.819 1610.41,801.116 1610.41,802.71 C1610.41,804.319 1611.71,805.616 1613.27,805.616 C1614.91,805.616 1616.21,804.319 1616.21,802.71 C1616.21,801.116 1614.91,799.819 1613.32,799.819 M1615.66,812.272 L1606.27,812.819 L1606.27,814.975 L1608.82,814.975 C1610.71,815.022 1610.96,815.319 1610.96,817.475 L1610.96,831.772 C1610.91,832.522 1610.86,832.819 1610.66,833.069 C1610.32,833.522 1609.36,833.725 1607.21,833.772 L1606.86,833.772 L1606.86,835.569 L1619.82,835.569 L1619.82,833.772 L1619.46,833.772 C1616.11,833.663 1615.66,833.413 1615.66,831.616 L1615.66,812.272 "/>
<path class="Lyrics" d="M2045.61,835.913 L2054.31,835.569 L2054.31,833.413 L2053.41,833.413 C2050.56,833.272 2050.31,832.975 2050.31,829.772 L2050.31,798.71 L2040.52,799.272 L2040.52,801.413 L2043.46,801.413 C2045.36,801.46 2045.61,801.772 2045.61,803.913 L2045.61,815.225 C2043.77,812.663 2041.61,811.522 2038.71,811.522 C2033.06,811.522 2028.77,816.975 2028.77,824.163 C2028.77,831.272 2032.91,836.319 2038.71,836.319 C2041.86,836.319 2044.02,834.975 2045.61,831.975 L2045.61,835.913 M2039.71,814.225 C2041.77,814.225 2043.71,815.725 2044.61,818.022 C2045.27,819.522 2045.56,821.569 2045.56,824.022 C2045.56,829.866 2043.27,833.616 2039.66,833.616 C2036.11,833.616 2034.02,830.319 2034.02,824.772 C2034.02,821.772 2034.31,819.522 2034.96,817.866 C2035.81,815.616 2037.66,814.225 2039.71,814.225 M2068.21,811.522 C2062.06,811.522 2057.31,816.975 2057.31,823.975 C2057.31,830.819 2062.11,836.319 2068.11,836.319 C2074.11,836.319 2078.91,830.819 2078.91,823.913 C2078.91,817.069 2074.11,811.522 2068.21,811.522 M2068.21,813.663 C2071.71,813.663 2073.66,817.319 2073.66,823.913 C2073.66,830.569 2071.71,834.163 2068.11,834.163 C2064.52,834.163 2062.56,830.569 2062.56,823.975 C2062.56,817.163 2064.46,813.663 2068.21,813.663"/>
<path class="Lyrics" d="M425.989,835.913 L434.692,835.569 L434.692,833.413 L433.786,833.413 C430.942,833.272 430.692,832.975 430.692,829.772 L430.692,798.71 L420.895,799.272 L420.895,801.413 L423.833,801.413 C425.739,801.46 425.989,801.772 425.989,803.913 L425.989,815.225 C424.145,812.663 421.989,811.522 419.083,811.522 C413.442,811.522 409.145,816.975 409.145,824.163 C409.145,831.272 413.286,836.319 419.083,836.319 C422.239,836.319 424.395,834.975 425.989,831.975 L425.989,835.913 M420.083,814.225 C422.145,814.225 424.083,815.725 424.989,818.022 C425.645,819.522 425.942,821.569 425.942,824.022 C425.942,829.866 423.645,833.616 420.036,833.616 C416.489,833.616 414.395,830.319 414.395,824.772 C414.395,821.772 414.692,819.522 415.333,817.866 C416.192,815.616 418.036,814.225 420.083,814.225 M448.583,811.522 C442.442,811.522 437.692,816.975 437.692,823.975 C437.692,830.819 442.489,836.319 448.489,836.319 C454.489,836.319 459.286,830.819 459.286,823.913 C459.286,817.069 454.489,811.522 448.583,811.522 M448.583,813.663 C452.083,813.663 454.036,817.319 454.036,823.913 C454.036,830.569 452.083,834.163 448.489,834.163 C444.895,834.163 442.942,830.569 442.942,823.975 C442.942,817.163 444.833,813.663 448.583,813.663"/>
<path class="Lyrics" d="M1115.61,811.725 L1113.86,811.725 L1112.41,813.522 C1110.61,812.116 1108.82,811.522 1106.32,811.522 C1101.91,811.522 1099.02,814.366 1099.02,818.772 C1099.02,823.475 1102.07,824.663 1106.07,825.616 L1108.71,826.225 C1112.66,827.163 1114.07,828.163 1114.07,830.163 C1114.07,832.522 1112.02,834.163 1109.11,834.163 C1104.86,834.163 1101.86,831.475 1100.66,826.475 L1098.66,826.475 L1098.66,835.913 L1100.41,835.913 L1102.16,833.866 C1104.21,835.522 1106.46,836.319 1109.02,836.319 C1113.91,836.319 1117.16,833.272 1117.16,828.616 C1117.16,826.413 1116.46,824.725 1115.07,823.569 C1113.86,822.522 1112.86,822.116 1109.82,821.475 L1107.32,820.913 C1104.57,820.319 1104.57,820.319 1103.66,819.819 C1102.57,819.319 1101.91,818.272 1101.91,817.163 C1101.91,815.116 1103.82,813.725 1106.57,813.725 C1110.66,813.725 1112.66,816.616 1113.86,820.116 L1115.61,820.116 L1115.61,811.725 M1131.71,811.522 C1125.57,811.522 1120.82,816.975 1120.82,823.975 C1120.82,830.819 1125.61,836.319 1131.61,836.319 C1137.61,836.319 1142.41,830.819 1142.41,823.913 C1142.41,817.069 1137.61,811.522 1131.71,811.522 M1131.71,813.663 C1135.21,813.663 1137.16,817.319 1137.16,823.913 C1137.16,830.569 1135.21,834.163 1131.61,834.163 C1128.02,834.163 1126.07,830.569 1126.07,823.975 C1126.07,817.163 1127.96,813.663 1131.71,813.663 M1154.32,798.71 L1145.07,799.272 L1145.07,801.413 L1147.52,801.413 C1149.36,801.46 1149.61,801.772 1149.61,803.913 L1149.61,831.772 C1149.57,832.522 1149.52,832.819 1149.32,833.069 C1148.96,833.522 1148.02,833.725 1145.86,833.772 L1145.52,833.772 L1145.52,835.569 L1158.46,835.569 L1158.46,833.772 L1158.11,833.772 C1154.77,833.663 1154.32,833.413 1154.32,831.616 L1154.32,798.71 "/>
<path class="StaffText" d="M429.47,326.195 C427.783,328.242 423.173,329.789 418.58,329.899 L418.58,332.039 L422.97,332.039 C425.877,332.102 426.173,332.399 426.08,335.195 L426.08,355.242 C426.08,357.805 426.08,357.899 425.783,358.352 C425.377,358.852 424.423,359.055 421.627,359.055 L418.377,359.055 L418.377,361.399 L438.173,361.399 L438.173,359.055 L435.423,359.055 C432.627,359.055 431.673,358.852 431.283,358.352 C430.923,357.899 430.923,357.852 430.923,355.242 L430.923,334.602 C430.923,331.789 431.033,329.445 431.283,326.195 L429.47,326.195 M457.923,345.695 L483.127,345.695 L483.127,341.695 L457.923,341.695 L457.923,345.695 M457.923,355.805 L483.127,355.805 L483.127,351.805 L457.923,351.805 L457.923,355.805 M531.33,324.945 L529.423,324.945 L527.423,327.899 C523.783,325.242 521.923,324.539 518.47,324.539 C513.72,324.539 509.673,326.539 506.33,330.539 C503.127,334.352 501.627,338.555 501.627,343.695 C501.627,354.492 508.673,362.149 518.533,362.149 C526.533,362.149 531.627,357.445 532.783,349.055 L530.423,348.649 C529.08,356.102 525.283,359.805 519.127,359.805 C511.72,359.805 508.22,354.695 508.22,343.899 C508.22,338.195 508.97,334.445 510.673,331.445 C512.22,328.649 515.283,326.899 518.533,326.899 C522.033,326.899 525.127,328.742 527.033,331.945 C527.986,333.602 528.673,335.445 529.877,339.399 L532.08,339.399 L531.33,324.945 "/>
<path class="Bracket" transform="matrix(3.596,0,0,3.7497,181.331,761.169)" d="M0.90625,-50 C2.70313,-51.9063 6.20313,-55.7969 6.20313,-63 C6.20313,-72.1094 2.29688,-81.3125 2.29688,-87 C2.29688,-93.1094 5.79688,-98.8125 6,-99 C6,-99.1094 6,-99.1094 6,-99.2031 C6,-99.3125 6,-99.4063 5.90625,-99.5 C5.79688,-99.5 5.59375,-99.5 5.5,-99.3125 C5.40625,-99.2031 0,-93.8125 0,-85.6094 C0,-76.8125 3.5,-70.6094 3.5,-59.1094 C3.5,-56.9063 2.59375,-53.4063 0.09375,-50.2969 C0,-50.2969 0,-50.1094 -0.09375,-50 C-0.09375,-49.9063 0,-49.7969 0.09375,-49.7031 C2.59375,-46.6094 3.5,-43.1094 3.5,-40.9063 C3.5,-29.4063 0,-23.2031 0,-14.4063 C0,-6.29688 5.40625,-0.796875 5.5,-0.703125 C5.59375,-0.5 5.79688,-0.40625 5.90625,-0.5 C6,-0.59375 6.09375,-0.703125 6,-0.796875 C6,-0.796875 6,-0.90625 6,-1 C5.79688,-1.20313 2.29688,-6.90625 2.29688,-13 C2.29688,-18.7031 6.20313,-27.9063 6.20313,-37 C6.20313,-44.2969 2.70313,-48.1094 0.90625,-50"/>
</svg>
