<?xml version="1.0" encoding="UTF-8" standalone="no"?>
<svg width="2520px" height="1008px" viewBox="0 0 2520 1008"
 xmlns="http://www.w3.org/2000/svg" xmlns:xlink="http://www.w3.org/1999/xlink" version="1.2" baseProfile="tiny">
<title>大调调性 (7)</title>
<desc>Generated by MuseScore Studio 4.4.4</desc>
<path class="" fill="#ffffff" fill-rule="evenodd" d="M0,0 L2520,0 L2520,1008 L0,1008 L0,0 "/>
<polyline class="StaffLines" fill="none" stroke="#000000" stroke-width="2.73" stroke-linejoin="bevel" points="212.598,386.199 2307.8,386.199"/>
<polyline class="StaffLines" fill="none" stroke="#000000" stroke-width="2.73" stroke-linejoin="bevel" points="212.598,410.999 2307.8,410.999"/>
<polyline class="StaffLines" fill="none" stroke="#000000" stroke-width="2.73" stroke-linejoin="bevel" points="212.598,435.799 2307.8,435.799"/>
<polyline class="StaffLines" fill="none" stroke="#000000" stroke-width="2.73" stroke-linejoin="bevel" points="212.598,460.599 2307.8,460.599"/>
<polyline class="StaffLines" fill="none" stroke="#000000" stroke-width="2.73" stroke-linejoin="bevel" points="212.598,485.399 2307.8,485.399"/>
<polyline class="StaffLines" fill="none" stroke="#000000" stroke-width="2.73" stroke-linejoin="bevel" points="212.598,661.969 2307.8,661.969"/>
<polyline class="StaffLines" fill="none" stroke="#000000" stroke-width="2.73" stroke-linejoin="bevel" points="212.598,686.769 2307.8,686.769"/>
<polyline class="StaffLines" fill="none" stroke="#000000" stroke-width="2.73" stroke-linejoin="bevel" points="212.598,711.569 2307.8,711.569"/>
<polyline class="StaffLines" fill="none" stroke="#000000" stroke-width="2.73" stroke-linejoin="bevel" points="212.598,736.369 2307.8,736.369"/>
<polyline class="StaffLines" fill="none" stroke="#000000" stroke-width="2.73" stroke-linejoin="bevel" points="212.598,761.169 2307.8,761.169"/>
<path class="MeasureNumber" d="M234.083,308.286 L231.911,308.286 L213.286,327.567 L213.286,329.239 L224.551,329.239 L223.911,331.677 C223.114,334.724 223.114,334.724 219.63,334.724 L218.911,334.724 L218.676,336.599 L231.114,336.599 L231.317,334.724 L230.598,334.724 C227.958,334.724 227.395,334.52 227.395,333.645 C227.395,333.317 227.473,332.927 227.801,331.677 L228.473,329.239 L233.036,329.239 L233.63,327.083 L229.036,327.083 L234.083,308.286 M225.161,327.083 L216.192,327.083 L228.551,314.364 L225.161,327.083 M251.317,322.927 C250.317,327.567 247.63,335.52 241.911,335.52 C240.755,335.52 240.005,335.036 240.005,334.317 C240.005,334.036 240.083,333.927 240.395,333.442 C240.801,332.927 241.005,332.442 241.005,331.88 C241.005,330.567 239.958,329.567 238.598,329.567 C237.005,329.567 235.88,330.755 235.88,332.52 C235.88,335.239 238.442,337.192 242.005,337.192 C250.755,337.192 256.348,326.005 256.348,318.395 C256.348,312.161 253.348,308.442 248.395,308.442 C242.442,308.442 238.005,313.927 238.005,319.645 C238.005,323.442 240.911,326.317 244.801,326.317 C247.442,326.317 249.473,325.239 251.317,322.927 M248.364,310.13 C250.911,310.13 252.551,312.161 252.551,315.364 C252.551,320.317 249.833,323.958 246.161,323.958 C243.63,323.958 242.239,322.239 242.239,319.239 C242.239,315.645 243.958,310.13 248.364,310.13"/>
<polyline class="BarLine" fill="none" stroke="#000000" stroke-width="4.46" stroke-linejoin="bevel" points="214.83,384.835 214.83,661.969"/>
<polyline class="BarLine" fill="none" stroke="#000000" stroke-width="4.46" stroke-linejoin="bevel" points="638.093,384.835 638.093,661.969"/>
<polyline class="BarLine" fill="none" stroke="#000000" stroke-width="4.46" stroke-linejoin="bevel" points="1935.93,384.835 1935.93,661.969"/>
<polyline class="BarLine" fill="none" stroke="#000000" stroke-width="4.46" stroke-linejoin="bevel" points="1503.32,384.835 1503.32,661.969"/>
<polyline class="BarLine" fill="none" stroke="#000000" stroke-width="4.46" stroke-linejoin="bevel" points="1287.01,384.835 1287.01,661.969"/>
<polyline class="BarLine" fill="none" stroke="#000000" stroke-width="4.46" stroke-linejoin="bevel" points="854.4,384.835 854.4,661.969"/>
<polyline class="BarLine" fill="none" stroke="#000000" stroke-width="4.46" stroke-linejoin="bevel" points="1719.63,384.835 1719.63,661.969"/>
<polyline class="BarLine" fill="none" stroke="#000000" stroke-width="4.46" stroke-linejoin="bevel" points="1070.71,384.835 1070.71,661.969"/>
<polyline class="BarLine" fill="none" stroke="#000000" stroke-width="4.46" stroke-linejoin="bevel" points="2152.24,384.835 2152.24,661.969"/>
<polyline class="BarLine" fill="none" stroke="#000000" stroke-width="13.64" stroke-linejoin="bevel" points="2170.47,384.835 2170.47,661.969"/>
<polyline class="BarLine" fill="none" stroke="#000000" stroke-width="4.46" stroke-linejoin="bevel" points="2152.24,660.605 2152.24,762.533"/>
<polyline class="BarLine" fill="none" stroke="#000000" stroke-width="13.64" stroke-linejoin="bevel" points="2170.47,660.605 2170.47,762.533"/>
<polyline class="BarLine" fill="none" stroke="#000000" stroke-width="4.46" stroke-linejoin="bevel" points="1287.01,660.605 1287.01,762.533"/>
<polyline class="BarLine" fill="none" stroke="#000000" stroke-width="4.46" stroke-linejoin="bevel" points="214.83,660.605 214.83,762.533"/>
<polyline class="BarLine" fill="none" stroke="#000000" stroke-width="4.46" stroke-linejoin="bevel" points="1935.93,660.605 1935.93,762.533"/>
<polyline class="BarLine" fill="none" stroke="#000000" stroke-width="4.46" stroke-linejoin="bevel" points="854.4,660.605 854.4,762.533"/>
<polyline class="BarLine" fill="none" stroke="#000000" stroke-width="4.46" stroke-linejoin="bevel" points="1503.32,660.605 1503.32,762.533"/>
<polyline class="BarLine" fill="none" stroke="#000000" stroke-width="4.46" stroke-linejoin="bevel" points="638.093,660.605 638.093,762.533"/>
<polyline class="BarLine" fill="none" stroke="#000000" stroke-width="4.46" stroke-linejoin="bevel" points="1719.63,660.605 1719.63,762.533"/>
<polyline class="BarLine" fill="none" stroke="#000000" stroke-width="4.46" stroke-linejoin="bevel" points="1070.71,660.605 1070.71,762.533"/>
<polyline class="LedgerLine" fill="none" stroke="#000000" stroke-width="3.97" stroke-linejoin="bevel" points="879.448,637.169 932.815,637.169"/>
<polyline class="LedgerLine" fill="none" stroke="#000000" stroke-width="3.97" stroke-linejoin="bevel" points="663.141,637.169 716.508,637.169"/>
<polyline class="LedgerLine" fill="none" stroke="#000000" stroke-width="3.97" stroke-linejoin="bevel" points="446.835,637.169 500.201,637.169"/>
<polyline class="LedgerLine" fill="none" stroke="#000000" stroke-width="3.97" stroke-linejoin="bevel" points="446.835,612.369 500.201,612.369"/>
<path class="Note" transform="matrix(0.992001,0,0,0.992001,1103.94,448.199)" d="M18.7031,-13.5938 C4.90625,-13.5938 0,-6.59375 0,-0.09375 C0,6.40625 4.90625,13.4063 18.7031,13.4063 C32.5,13.4063 37.2969,6.40625 37.2969,-0.09375 C37.2969,-6.59375 32.5,-13.5938 18.7031,-13.5938 M19.5,10.2031 C16.7031,10.2031 14.7969,9.40625 13.5,6.90625 C12.2031,4.40625 10.4063,-2.09375 10.2969,-4.70313 C10.0938,-7.40625 11.0938,-9 13.5,-9.79688 C14.7031,-10.2031 16.2969,-10.4063 17.9063,-10.4063 C20.5938,-10.4063 22.4063,-9.79688 23.7969,-7.09375 C25.2031,-4.5 27.1094,2 27.1094,4.5 C27.1094,9.40625 23.5,10.2031 19.5,10.2031"/>
<path class="Note" transform="matrix(0.992001,0,0,0.992001,671.325,472.999)" d="M18.7031,-13.5938 C4.90625,-13.5938 0,-6.59375 0,-0.09375 C0,6.40625 4.90625,13.4063 18.7031,13.4063 C32.5,13.4063 37.2969,6.40625 37.2969,-0.09375 C37.2969,-6.59375 32.5,-13.5938 18.7031,-13.5938 M19.5,10.2031 C16.7031,10.2031 14.7969,9.40625 13.5,6.90625 C12.2031,4.40625 10.4063,-2.09375 10.2969,-4.70313 C10.0938,-7.40625 11.0938,-9 13.5,-9.79688 C14.7031,-10.2031 16.2969,-10.4063 17.9063,-10.4063 C20.5938,-10.4063 22.4063,-9.79688 23.7969,-7.09375 C25.2031,-4.5 27.1094,2 27.1094,4.5 C27.1094,9.40625 23.5,10.2031 19.5,10.2031"/>
<path class="Note" transform="matrix(0.992001,0,0,0.992001,1320.25,435.799)" d="M18.7031,-13.5938 C4.90625,-13.5938 0,-6.59375 0,-0.09375 C0,6.40625 4.90625,13.4063 18.7031,13.4063 C32.5,13.4063 37.2969,6.40625 37.2969,-0.09375 C37.2969,-6.59375 32.5,-13.5938 18.7031,-13.5938 M19.5,10.2031 C16.7031,10.2031 14.7969,9.40625 13.5,6.90625 C12.2031,4.40625 10.4063,-2.09375 10.2969,-4.70313 C10.0938,-7.40625 11.0938,-9 13.5,-9.79688 C14.7031,-10.2031 16.2969,-10.4063 17.9063,-10.4063 C20.5938,-10.4063 22.4063,-9.79688 23.7969,-7.09375 C25.2031,-4.5 27.1094,2 27.1094,4.5 C27.1094,9.40625 23.5,10.2031 19.5,10.2031"/>
<path class="Note" transform="matrix(0.992001,0,0,0.992001,1536.55,423.399)" d="M18.7031,-13.5938 C4.90625,-13.5938 0,-6.59375 0,-0.09375 C0,6.40625 4.90625,13.4063 18.7031,13.4063 C32.5,13.4063 37.2969,6.40625 37.2969,-0.09375 C37.2969,-6.59375 32.5,-13.5938 18.7031,-13.5938 M19.5,10.2031 C16.7031,10.2031 14.7969,9.40625 13.5,6.90625 C12.2031,4.40625 10.4063,-2.09375 10.2969,-4.70313 C10.0938,-7.40625 11.0938,-9 13.5,-9.79688 C14.7031,-10.2031 16.2969,-10.4063 17.9063,-10.4063 C20.5938,-10.4063 22.4063,-9.79688 23.7969,-7.09375 C25.2031,-4.5 27.1094,2 27.1094,4.5 C27.1094,9.40625 23.5,10.2031 19.5,10.2031"/>
<path class="Note" transform="matrix(0.992001,0,0,0.992001,1752.86,410.999)" d="M18.7031,-13.5938 C4.90625,-13.5938 0,-6.59375 0,-0.09375 C0,6.40625 4.90625,13.4063 18.7031,13.4063 C32.5,13.4063 37.2969,6.40625 37.2969,-0.09375 C37.2969,-6.59375 32.5,-13.5938 18.7031,-13.5938 M19.5,10.2031 C16.7031,10.2031 14.7969,9.40625 13.5,6.90625 C12.2031,4.40625 10.4063,-2.09375 10.2969,-4.70313 C10.0938,-7.40625 11.0938,-9 13.5,-9.79688 C14.7031,-10.2031 16.2969,-10.4063 17.9063,-10.4063 C20.5938,-10.4063 22.4063,-9.79688 23.7969,-7.09375 C25.2031,-4.5 27.1094,2 27.1094,4.5 C27.1094,9.40625 23.5,10.2031 19.5,10.2031"/>
<path class="Note" transform="matrix(0.992001,0,0,0.992001,1969.17,398.599)" d="M18.7031,-13.5938 C4.90625,-13.5938 0,-6.59375 0,-0.09375 C0,6.40625 4.90625,13.4063 18.7031,13.4063 C32.5,13.4063 37.2969,6.40625 37.2969,-0.09375 C37.2969,-6.59375 32.5,-13.5938 18.7031,-13.5938 M19.5,10.2031 C16.7031,10.2031 14.7969,9.40625 13.5,6.90625 C12.2031,4.40625 10.4063,-2.09375 10.2969,-4.70313 C10.0938,-7.40625 11.0938,-9 13.5,-9.79688 C14.7031,-10.2031 16.2969,-10.4063 17.9063,-10.4063 C20.5938,-10.4063 22.4063,-9.79688 23.7969,-7.09375 C25.2031,-4.5 27.1094,2 27.1094,4.5 C27.1094,9.40625 23.5,10.2031 19.5,10.2031"/>
<path class="Note" transform="matrix(0.992001,0,0,0.992001,455.019,485.399)" d="M18.7031,-13.5938 C4.90625,-13.5938 0,-6.59375 0,-0.09375 C0,6.40625 4.90625,13.4063 18.7031,13.4063 C32.5,13.4063 37.2969,6.40625 37.2969,-0.09375 C37.2969,-6.59375 32.5,-13.5938 18.7031,-13.5938 M19.5,10.2031 C16.7031,10.2031 14.7969,9.40625 13.5,6.90625 C12.2031,4.40625 10.4063,-2.09375 10.2969,-4.70313 C10.0938,-7.40625 11.0938,-9 13.5,-9.79688 C14.7031,-10.2031 16.2969,-10.4063 17.9063,-10.4063 C20.5938,-10.4063 22.4063,-9.79688 23.7969,-7.09375 C25.2031,-4.5 27.1094,2 27.1094,4.5 C27.1094,9.40625 23.5,10.2031 19.5,10.2031"/>
<path class="Note" transform="matrix(0.992001,0,0,0.992001,887.632,460.599)" d="M18.7031,-13.5938 C4.90625,-13.5938 0,-6.59375 0,-0.09375 C0,6.40625 4.90625,13.4063 18.7031,13.4063 C32.5,13.4063 37.2969,6.40625 37.2969,-0.09375 C37.2969,-6.59375 32.5,-13.5938 18.7031,-13.5938 M19.5,10.2031 C16.7031,10.2031 14.7969,9.40625 13.5,6.90625 C12.2031,4.40625 10.4063,-2.09375 10.2969,-4.70313 C10.0938,-7.40625 11.0938,-9 13.5,-9.79688 C14.7031,-10.2031 16.2969,-10.4063 17.9063,-10.4063 C20.5938,-10.4063 22.4063,-9.79688 23.7969,-7.09375 C25.2031,-4.5 27.1094,2 27.1094,4.5 C27.1094,9.40625 23.5,10.2031 19.5,10.2031"/>
<path class="Note" transform="matrix(0.992001,0,0,0.992001,1752.86,686.769)" d="M18.7031,-13.5938 C4.90625,-13.5938 0,-6.59375 0,-0.09375 C0,6.40625 4.90625,13.4063 18.7031,13.4063 C32.5,13.4063 37.2969,6.40625 37.2969,-0.09375 C37.2969,-6.59375 32.5,-13.5938 18.7031,-13.5938 M19.5,10.2031 C16.7031,10.2031 14.7969,9.40625 13.5,6.90625 C12.2031,4.40625 10.4063,-2.09375 10.2969,-4.70313 C10.0938,-7.40625 11.0938,-9 13.5,-9.79688 C14.7031,-10.2031 16.2969,-10.4063 17.9063,-10.4063 C20.5938,-10.4063 22.4063,-9.79688 23.7969,-7.09375 C25.2031,-4.5 27.1094,2 27.1094,4.5 C27.1094,9.40625 23.5,10.2031 19.5,10.2031"/>
<path class="Note" transform="matrix(0.992001,0,0,0.992001,1320.25,661.969)" d="M18.7031,-13.5938 C4.90625,-13.5938 0,-6.59375 0,-0.09375 C0,6.40625 4.90625,13.4063 18.7031,13.4063 C32.5,13.4063 37.2969,6.40625 37.2969,-0.09375 C37.2969,-6.59375 32.5,-13.5938 18.7031,-13.5938 M19.5,10.2031 C16.7031,10.2031 14.7969,9.40625 13.5,6.90625 C12.2031,4.40625 10.4063,-2.09375 10.2969,-4.70313 C10.0938,-7.40625 11.0938,-9 13.5,-9.79688 C14.7031,-10.2031 16.2969,-10.4063 17.9063,-10.4063 C20.5938,-10.4063 22.4063,-9.79688 23.7969,-7.09375 C25.2031,-4.5 27.1094,2 27.1094,4.5 C27.1094,9.40625 23.5,10.2031 19.5,10.2031"/>
<path class="Note" transform="matrix(0.992001,0,0,0.992001,887.632,637.169)" d="M18.7031,-13.5938 C4.90625,-13.5938 0,-6.59375 0,-0.09375 C0,6.40625 4.90625,13.4063 18.7031,13.4063 C32.5,13.4063 37.2969,6.40625 37.2969,-0.09375 C37.2969,-6.59375 32.5,-13.5938 18.7031,-13.5938 M19.5,10.2031 C16.7031,10.2031 14.7969,9.40625 13.5,6.90625 C12.2031,4.40625 10.4063,-2.09375 10.2969,-4.70313 C10.0938,-7.40625 11.0938,-9 13.5,-9.79688 C14.7031,-10.2031 16.2969,-10.4063 17.9063,-10.4063 C20.5938,-10.4063 22.4063,-9.79688 23.7969,-7.09375 C25.2031,-4.5 27.1094,2 27.1094,4.5 C27.1094,9.40625 23.5,10.2031 19.5,10.2031"/>
<path class="Note" transform="matrix(0.992001,0,0,0.992001,671.325,624.769)" d="M18.7031,-13.5938 C4.90625,-13.5938 0,-6.59375 0,-0.09375 C0,6.40625 4.90625,13.4063 18.7031,13.4063 C32.5,13.4063 37.2969,6.40625 37.2969,-0.09375 C37.2969,-6.59375 32.5,-13.5938 18.7031,-13.5938 M19.5,10.2031 C16.7031,10.2031 14.7969,9.40625 13.5,6.90625 C12.2031,4.40625 10.4063,-2.09375 10.2969,-4.70313 C10.0938,-7.40625 11.0938,-9 13.5,-9.79688 C14.7031,-10.2031 16.2969,-10.4063 17.9063,-10.4063 C20.5938,-10.4063 22.4063,-9.79688 23.7969,-7.09375 C25.2031,-4.5 27.1094,2 27.1094,4.5 C27.1094,9.40625 23.5,10.2031 19.5,10.2031"/>
<path class="Note" transform="matrix(0.992001,0,0,0.992001,455.019,612.369)" d="M18.7031,-13.5938 C4.90625,-13.5938 0,-6.59375 0,-0.09375 C0,6.40625 4.90625,13.4063 18.7031,13.4063 C32.5,13.4063 37.2969,6.40625 37.2969,-0.09375 C37.2969,-6.59375 32.5,-13.5938 18.7031,-13.5938 M19.5,10.2031 C16.7031,10.2031 14.7969,9.40625 13.5,6.90625 C12.2031,4.40625 10.4063,-2.09375 10.2969,-4.70313 C10.0938,-7.40625 11.0938,-9 13.5,-9.79688 C14.7031,-10.2031 16.2969,-10.4063 17.9063,-10.4063 C20.5938,-10.4063 22.4063,-9.79688 23.7969,-7.09375 C25.2031,-4.5 27.1094,2 27.1094,4.5 C27.1094,9.40625 23.5,10.2031 19.5,10.2031"/>
<path class="Note" transform="matrix(0.992001,0,0,0.992001,1536.55,674.369)" d="M18.7031,-13.5938 C4.90625,-13.5938 0,-6.59375 0,-0.09375 C0,6.40625 4.90625,13.4063 18.7031,13.4063 C32.5,13.4063 37.2969,6.40625 37.2969,-0.09375 C37.2969,-6.59375 32.5,-13.5938 18.7031,-13.5938 M19.5,10.2031 C16.7031,10.2031 14.7969,9.40625 13.5,6.90625 C12.2031,4.40625 10.4063,-2.09375 10.2969,-4.70313 C10.0938,-7.40625 11.0938,-9 13.5,-9.79688 C14.7031,-10.2031 16.2969,-10.4063 17.9063,-10.4063 C20.5938,-10.4063 22.4063,-9.79688 23.7969,-7.09375 C25.2031,-4.5 27.1094,2 27.1094,4.5 C27.1094,9.40625 23.5,10.2031 19.5,10.2031"/>
<path class="Note" transform="matrix(0.992001,0,0,0.992001,1103.94,649.569)" d="M18.7031,-13.5938 C4.90625,-13.5938 0,-6.59375 0,-0.09375 C0,6.40625 4.90625,13.4063 18.7031,13.4063 C32.5,13.4063 37.2969,6.40625 37.2969,-0.09375 C37.2969,-6.59375 32.5,-13.5938 18.7031,-13.5938 M19.5,10.2031 C16.7031,10.2031 14.7969,9.40625 13.5,6.90625 C12.2031,4.40625 10.4063,-2.09375 10.2969,-4.70313 C10.0938,-7.40625 11.0938,-9 13.5,-9.79688 C14.7031,-10.2031 16.2969,-10.4063 17.9063,-10.4063 C20.5938,-10.4063 22.4063,-9.79688 23.7969,-7.09375 C25.2031,-4.5 27.1094,2 27.1094,4.5 C27.1094,9.40625 23.5,10.2031 19.5,10.2031"/>
<path class="Note" transform="matrix(0.992001,0,0,0.992001,1969.17,699.169)" d="M18.7031,-13.5938 C4.90625,-13.5938 0,-6.59375 0,-0.09375 C0,6.40625 4.90625,13.4063 18.7031,13.4063 C32.5,13.4063 37.2969,6.40625 37.2969,-0.09375 C37.2969,-6.59375 32.5,-13.5938 18.7031,-13.5938 M19.5,10.2031 C16.7031,10.2031 14.7969,9.40625 13.5,6.90625 C12.2031,4.40625 10.4063,-2.09375 10.2969,-4.70313 C10.0938,-7.40625 11.0938,-9 13.5,-9.79688 C14.7031,-10.2031 16.2969,-10.4063 17.9063,-10.4063 C20.5938,-10.4063 22.4063,-9.79688 23.7969,-7.09375 C25.2031,-4.5 27.1094,2 27.1094,4.5 C27.1094,9.40625 23.5,10.2031 19.5,10.2031"/>
<path class="Clef" transform="matrix(0.992001,0,0,0.992001,235.662,460.599)" d="M12.2969,51.2969 C12.2969,57.9063 17.2969,66.6094 30.7969,66.6094 C35.5,66.6094 39.6094,65.4063 43.2031,63.2031 C48.6094,59.4063 50,52.7969 50,46.5 C50,42.6094 49.4063,38.1094 48.4063,32.4063 C48.1094,30.4063 47.5,27.4063 46.9063,23.5 C56.7031,20.2969 64,10.0938 64,-0.203125 C64,-15.2969 53.2969,-25.5 38.7031,-25.5 C37.7031,-31.5 36.7031,-37.4063 35.9063,-43 C46.4063,-54.1094 53.7031,-66.6094 53.7031,-82.5 C53.7031,-91.6094 50.9063,-99 49.2969,-102.609 C46.9063,-107.703 44,-111.203 42.2031,-111.203 C41.5,-111.203 38.4063,-110 35.1094,-106.109 C28.7031,-98.5 26.9063,-85.7031 26.9063,-77.3125 C26.9063,-71.9063 27.4063,-67 29.1094,-55.7969 C29,-55.7031 23.7969,-50.4063 21.7031,-48.7031 C12.5938,-40.2969 0,-28.1094 0,-8.09375 C0,10.5938 16.2969,25.2969 34.9063,25.2969 C37.7969,25.2969 40.5,25 42.7969,24.5938 C44.7031,34.2031 45.9063,41.2031 45.9063,46.5 C45.9063,56.9063 40.5,62.4063 30.4063,62.4063 C28,62.4063 25.9063,61.9063 25.7031,61.9063 C25.6094,61.7969 25.4063,61.7031 25.4063,61.6094 C25.4063,61.4063 25.6094,61.2969 25.9063,61.2969 C30.6094,60.5 35.2969,56.5 35.2969,50.1094 C35.2969,44.7031 31.2031,39 23.7031,39 C16.7031,39 12.2969,44.7031 12.2969,51.2969 M33.2031,-82.2031 C34.1094,-86.2031 38.7031,-96.7031 43.9063,-96.7031 C45.4063,-96.7031 47.7969,-91.9063 47.7969,-84.9063 C47.7969,-74.5 40.1094,-66.7031 33.2031,-59.9063 C32.6094,-63.9063 32.1094,-67.7969 32.1094,-72 C32.1094,-75.7031 32.4063,-79.1094 33.2031,-82.2031 M42,20.5938 C40,21 38.1094,21.2031 36.2031,21.2031 C21.9063,21.2031 9.70313,11.2031 9.70313,-3.90625 C9.70313,-16.0938 18.2969,-27 27.1094,-34.6094 C28.7969,-36.1094 30.4063,-37.5 31.9063,-39 C32.7969,-33.6094 33.5,-28.9063 34.2031,-24.7969 C25.0938,-22.0938 18.9063,-12.5 18.9063,-3.09375 C18.9063,3.90625 24.4063,13.5 32.4063,13.5 C33.2031,13.5 34.1094,13.0938 34.1094,12.2031 C34.1094,11.2969 33.1094,10.7969 31.9063,10 C28,7.59375 25.7969,5 25.7969,0.09375 C25.7969,-6 30.4063,-10.9063 36.2031,-12.2969 L42,20.5938 M56.2031,2.09375 C56.2031,9.20313 53.2969,16.5 46.2031,19.4063 C44.1094,7.40625 41.4063,-8.5 40.7031,-12.9063 C49.7031,-12.9063 56.2031,-6.79688 56.2031,2.09375"/>
<path class="Clef" transform="matrix(0.992001,0,0,0.992001,235.662,686.769)" d="M25.4063,-25.0938 C17.7969,-25.0938 11.7031,-20.7031 11.5938,-20.7031 C5.70313,-16.4063 1.90625,-9.79688 1.90625,-2.5 C1.90625,4.79688 6.09375,10.2031 13.5,10.2031 C19.9063,10.2031 24.9063,5.90625 24.9063,-0.703125 C24.9063,-6.40625 19.9063,-11.0938 14.2969,-11.0938 C13.0938,-11.0938 12,-10.9063 11.0938,-10.5938 C10.0938,-10.2031 8.40625,-9.20313 7.59375,-8.5 C8.29688,-12.9063 11.2969,-17.2969 15.2031,-19.4063 C17.7031,-20.7969 20.9063,-21.4063 24.4063,-21.4063 C34.6094,-21.4063 39.6094,-13.2031 39.6094,3.59375 C39.6094,16.5938 31.2969,35.2969 21.5,44.1094 C11.0938,53.6094 1.29688,58.1094 1.20313,58.1094 C1.20313,58.1094 0,58.7969 0,60 C0,60.2031 0.09375,60.2969 0.09375,60.5 C0.40625,61.5 1.29688,61.7031 2,61.7031 L2.29688,61.6094 C2.5,61.6094 13.9063,56.9063 23,49.7969 C37,39.7031 52.7969,21.9063 52.7969,3.5 C52.7969,-13.9063 43.4063,-25.0938 25.4063,-25.0938 M56.7969,-12.4063 C56.7969,-9.59375 59,-7.40625 61.6094,-7.40625 C64.2031,-7.40625 66.4063,-9.59375 66.4063,-12.4063 C66.4063,-15.2031 64.2031,-17.5 61.6094,-17.5 C59,-17.5 56.7969,-15.2031 56.7969,-12.4063 M56.7969,12.2969 C56.7969,15.0938 59,17.4063 61.6094,17.4063 C64.2031,17.4063 66.4063,15.0938 66.4063,12.2969 C66.4063,9.5 64.2031,7.20313 61.6094,7.20313 C59,7.20313 56.7969,9.5 56.7969,12.2969"/>
<path class="KeySig" transform="matrix(0.992001,0,0,0.992001,320.122,435.799)" d="M12,-15.5 C7,-15.5 4.09375,-12.4063 3.59375,-11.7969 L4,-43.9063 C4,-44.7031 3.40625,-45.2969 2.59375,-45.2969 L1.40625,-45.2969 C0.59375,-45.2969 0,-44.7031 0,-43.9063 L0.5,16.2031 C0.5,17 1.09375,17.5938 1.90625,17.5938 C2.09375,17.5938 2.5,17.5 2.70313,17.4063 C11.2969,13.0938 20.2969,4.90625 20.2969,-5.40625 C20.2969,-10.5938 17.9063,-15.5 12,-15.5 M3.29688,12.7031 L3.59375,-6.79688 C3.79688,-7.70313 5.29688,-10.5938 9.29688,-10.5938 C12.9063,-10.5938 13.2031,-7.20313 13.2031,-5.09375 C13.2031,3.79688 9.90625,7.5 3.29688,12.7031"/>
<path class="KeySig" transform="matrix(0.992001,0,0,0.992001,347.697,398.599)" d="M12,-15.5 C7,-15.5 4.09375,-12.4063 3.59375,-11.7969 L4,-43.9063 C4,-44.7031 3.40625,-45.2969 2.59375,-45.2969 L1.40625,-45.2969 C0.59375,-45.2969 0,-44.7031 0,-43.9063 L0.5,16.2031 C0.5,17 1.09375,17.5938 1.90625,17.5938 C2.09375,17.5938 2.5,17.5 2.70313,17.4063 C11.2969,13.0938 20.2969,4.90625 20.2969,-5.40625 C20.2969,-10.5938 17.9063,-15.5 12,-15.5 M3.29688,12.7031 L3.59375,-6.79688 C3.79688,-7.70313 5.29688,-10.5938 9.29688,-10.5938 C12.9063,-10.5938 13.2031,-7.20313 13.2031,-5.09375 C13.2031,3.79688 9.90625,7.5 3.29688,12.7031"/>
<path class="KeySig" transform="matrix(0.992001,0,0,0.992001,375.271,448.199)" d="M12,-15.5 C7,-15.5 4.09375,-12.4063 3.59375,-11.7969 L4,-43.9063 C4,-44.7031 3.40625,-45.2969 2.59375,-45.2969 L1.40625,-45.2969 C0.59375,-45.2969 0,-44.7031 0,-43.9063 L0.5,16.2031 C0.5,17 1.09375,17.5938 1.90625,17.5938 C2.09375,17.5938 2.5,17.5 2.70313,17.4063 C11.2969,13.0938 20.2969,4.90625 20.2969,-5.40625 C20.2969,-10.5938 17.9063,-15.5 12,-15.5 M3.29688,12.7031 L3.59375,-6.79688 C3.79688,-7.70313 5.29688,-10.5938 9.29688,-10.5938 C12.9063,-10.5938 13.2031,-7.20313 13.2031,-5.09375 C13.2031,3.79688 9.90625,7.5 3.29688,12.7031"/>
<path class="KeySig" transform="matrix(0.992001,0,0,0.992001,2189.69,386.199)" d="M23.2969,-10.5 C23.9063,-10.5938 24.4063,-11.2969 24.4063,-11.9063 L24.4063,-17.7969 C24.4063,-18.7969 23.7031,-19.2031 22.7969,-19.2031 L19.5,-18.5 L19.5,-33.4063 L16.7031,-33.4063 L16.7031,-17.9063 L7.79688,-16.0938 L7.79688,-30.2031 L5,-30.2031 L5,-15.5 L1.09375,-14.7031 C0.5,-14.5938 0,-13.9063 0,-13.2969 L0,-7.5 C0,-6.40625 0.796875,-6.09375 1.70313,-6.09375 L5,-6.79688 L5,9.70313 L1.09375,10.5 C0.5,10.5938 0,11.2969 0,11.9063 L0,17.7031 C0,18.7969 0.796875,19.0938 1.70313,19.0938 L5,18.4063 L5,33.2969 L7.79688,33.2969 L7.79688,17.7969 L16.7031,16 L16.7031,30.1094 L19.5,30.1094 L19.5,15.4063 L23.2969,14.7031 C23.9063,14.5938 24.4063,13.9063 24.4063,13.2969 L24.4063,7.40625 C24.4063,6.40625 23.7031,6 22.7969,6 L19.5,6.70313 L19.5,-9.79688 L23.2969,-10.5 M7.79688,-7.40625 L16.7031,-9.20313 L16.7031,7.29688 L7.79688,9.20313 L7.79688,-7.40625 "/>
<path class="KeySig" transform="matrix(0.992001,0,0,0.992001,2216.86,423.399)" d="M23.2969,-10.5 C23.9063,-10.5938 24.4063,-11.2969 24.4063,-11.9063 L24.4063,-17.7969 C24.4063,-18.7969 23.7031,-19.2031 22.7969,-19.2031 L19.5,-18.5 L19.5,-33.4063 L16.7031,-33.4063 L16.7031,-17.9063 L7.79688,-16.0938 L7.79688,-30.2031 L5,-30.2031 L5,-15.5 L1.09375,-14.7031 C0.5,-14.5938 0,-13.9063 0,-13.2969 L0,-7.5 C0,-6.40625 0.796875,-6.09375 1.70313,-6.09375 L5,-6.79688 L5,9.70313 L1.09375,10.5 C0.5,10.5938 0,11.2969 0,11.9063 L0,17.7031 C0,18.7969 0.796875,19.0938 1.70313,19.0938 L5,18.4063 L5,33.2969 L7.79688,33.2969 L7.79688,17.7969 L16.7031,16 L16.7031,30.1094 L19.5,30.1094 L19.5,15.4063 L23.2969,14.7031 C23.9063,14.5938 24.4063,13.9063 24.4063,13.2969 L24.4063,7.40625 C24.4063,6.40625 23.7031,6 22.7969,6 L19.5,6.70313 L19.5,-9.79688 L23.2969,-10.5 M7.79688,-7.40625 L16.7031,-9.20313 L16.7031,7.29688 L7.79688,9.20313 L7.79688,-7.40625 "/>
<path class="KeySig" transform="matrix(0.992001,0,0,0.992001,2244.02,373.799)" d="M23.2969,-10.5 C23.9063,-10.5938 24.4063,-11.2969 24.4063,-11.9063 L24.4063,-17.7969 C24.4063,-18.7969 23.7031,-19.2031 22.7969,-19.2031 L19.5,-18.5 L19.5,-33.4063 L16.7031,-33.4063 L16.7031,-17.9063 L7.79688,-16.0938 L7.79688,-30.2031 L5,-30.2031 L5,-15.5 L1.09375,-14.7031 C0.5,-14.5938 0,-13.9063 0,-13.2969 L0,-7.5 C0,-6.40625 0.796875,-6.09375 1.70313,-6.09375 L5,-6.79688 L5,9.70313 L1.09375,10.5 C0.5,10.5938 0,11.2969 0,11.9063 L0,17.7031 C0,18.7969 0.796875,19.0938 1.70313,19.0938 L5,18.4063 L5,33.2969 L7.79688,33.2969 L7.79688,17.7969 L16.7031,16 L16.7031,30.1094 L19.5,30.1094 L19.5,15.4063 L23.2969,14.7031 C23.9063,14.5938 24.4063,13.9063 24.4063,13.2969 L24.4063,7.40625 C24.4063,6.40625 23.7031,6 22.7969,6 L19.5,6.70313 L19.5,-9.79688 L23.2969,-10.5 M7.79688,-7.40625 L16.7031,-9.20313 L16.7031,7.29688 L7.79688,9.20313 L7.79688,-7.40625 "/>
<path class="KeySig" transform="matrix(0.992001,0,0,0.992001,2271.19,410.999)" d="M23.2969,-10.5 C23.9063,-10.5938 24.4063,-11.2969 24.4063,-11.9063 L24.4063,-17.7969 C24.4063,-18.7969 23.7031,-19.2031 22.7969,-19.2031 L19.5,-18.5 L19.5,-33.4063 L16.7031,-33.4063 L16.7031,-17.9063 L7.79688,-16.0938 L7.79688,-30.2031 L5,-30.2031 L5,-15.5 L1.09375,-14.7031 C0.5,-14.5938 0,-13.9063 0,-13.2969 L0,-7.5 C0,-6.40625 0.796875,-6.09375 1.70313,-6.09375 L5,-6.79688 L5,9.70313 L1.09375,10.5 C0.5,10.5938 0,11.2969 0,11.9063 L0,17.7031 C0,18.7969 0.796875,19.0938 1.70313,19.0938 L5,18.4063 L5,33.2969 L7.79688,33.2969 L7.79688,17.7969 L16.7031,16 L16.7031,30.1094 L19.5,30.1094 L19.5,15.4063 L23.2969,14.7031 C23.9063,14.5938 24.4063,13.9063 24.4063,13.2969 L24.4063,7.40625 C24.4063,6.40625 23.7031,6 22.7969,6 L19.5,6.70313 L19.5,-9.79688 L23.2969,-10.5 M7.79688,-7.40625 L16.7031,-9.20313 L16.7031,7.29688 L7.79688,9.20313 L7.79688,-7.40625 "/>
<path class="KeySig" transform="matrix(0.992001,0,0,0.992001,320.122,736.369)" d="M12,-15.5 C7,-15.5 4.09375,-12.4063 3.59375,-11.7969 L4,-43.9063 C4,-44.7031 3.40625,-45.2969 2.59375,-45.2969 L1.40625,-45.2969 C0.59375,-45.2969 0,-44.7031 0,-43.9063 L0.5,16.2031 C0.5,17 1.09375,17.5938 1.90625,17.5938 C2.09375,17.5938 2.5,17.5 2.70313,17.4063 C11.2969,13.0938 20.2969,4.90625 20.2969,-5.40625 C20.2969,-10.5938 17.9063,-15.5 12,-15.5 M3.29688,12.7031 L3.59375,-6.79688 C3.79688,-7.70313 5.29688,-10.5938 9.29688,-10.5938 C12.9063,-10.5938 13.2031,-7.20313 13.2031,-5.09375 C13.2031,3.79688 9.90625,7.5 3.29688,12.7031"/>
<path class="KeySig" transform="matrix(0.992001,0,0,0.992001,347.697,699.169)" d="M12,-15.5 C7,-15.5 4.09375,-12.4063 3.59375,-11.7969 L4,-43.9063 C4,-44.7031 3.40625,-45.2969 2.59375,-45.2969 L1.40625,-45.2969 C0.59375,-45.2969 0,-44.7031 0,-43.9063 L0.5,16.2031 C0.5,17 1.09375,17.5938 1.90625,17.5938 C2.09375,17.5938 2.5,17.5 2.70313,17.4063 C11.2969,13.0938 20.2969,4.90625 20.2969,-5.40625 C20.2969,-10.5938 17.9063,-15.5 12,-15.5 M3.29688,12.7031 L3.59375,-6.79688 C3.79688,-7.70313 5.29688,-10.5938 9.29688,-10.5938 C12.9063,-10.5938 13.2031,-7.20313 13.2031,-5.09375 C13.2031,3.79688 9.90625,7.5 3.29688,12.7031"/>
<path class="KeySig" transform="matrix(0.992001,0,0,0.992001,375.271,748.769)" d="M12,-15.5 C7,-15.5 4.09375,-12.4063 3.59375,-11.7969 L4,-43.9063 C4,-44.7031 3.40625,-45.2969 2.59375,-45.2969 L1.40625,-45.2969 C0.59375,-45.2969 0,-44.7031 0,-43.9063 L0.5,16.2031 C0.5,17 1.09375,17.5938 1.90625,17.5938 C2.09375,17.5938 2.5,17.5 2.70313,17.4063 C11.2969,13.0938 20.2969,4.90625 20.2969,-5.40625 C20.2969,-10.5938 17.9063,-15.5 12,-15.5 M3.29688,12.7031 L3.59375,-6.79688 C3.79688,-7.70313 5.29688,-10.5938 9.29688,-10.5938 C12.9063,-10.5938 13.2031,-7.20313 13.2031,-5.09375 C13.2031,3.79688 9.90625,7.5 3.29688,12.7031"/>
<path class="KeySig" transform="matrix(0.992001,0,0,0.992001,2189.69,686.769)" d="M23.2969,-10.5 C23.9063,-10.5938 24.4063,-11.2969 24.4063,-11.9063 L24.4063,-17.7969 C24.4063,-18.7969 23.7031,-19.2031 22.7969,-19.2031 L19.5,-18.5 L19.5,-33.4063 L16.7031,-33.4063 L16.7031,-17.9063 L7.79688,-16.0938 L7.79688,-30.2031 L5,-30.2031 L5,-15.5 L1.09375,-14.7031 C0.5,-14.5938 0,-13.9063 0,-13.2969 L0,-7.5 C0,-6.40625 0.796875,-6.09375 1.70313,-6.09375 L5,-6.79688 L5,9.70313 L1.09375,10.5 C0.5,10.5938 0,11.2969 0,11.9063 L0,17.7031 C0,18.7969 0.796875,19.0938 1.70313,19.0938 L5,18.4063 L5,33.2969 L7.79688,33.2969 L7.79688,17.7969 L16.7031,16 L16.7031,30.1094 L19.5,30.1094 L19.5,15.4063 L23.2969,14.7031 C23.9063,14.5938 24.4063,13.9063 24.4063,13.2969 L24.4063,7.40625 C24.4063,6.40625 23.7031,6 22.7969,6 L19.5,6.70313 L19.5,-9.79688 L23.2969,-10.5 M7.79688,-7.40625 L16.7031,-9.20313 L16.7031,7.29688 L7.79688,9.20313 L7.79688,-7.40625 "/>
<path class="KeySig" transform="matrix(0.992001,0,0,0.992001,2216.86,723.969)" d="M23.2969,-10.5 C23.9063,-10.5938 24.4063,-11.2969 24.4063,-11.9063 L24.4063,-17.7969 C24.4063,-18.7969 23.7031,-19.2031 22.7969,-19.2031 L19.5,-18.5 L19.5,-33.4063 L16.7031,-33.4063 L16.7031,-17.9063 L7.79688,-16.0938 L7.79688,-30.2031 L5,-30.2031 L5,-15.5 L1.09375,-14.7031 C0.5,-14.5938 0,-13.9063 0,-13.2969 L0,-7.5 C0,-6.40625 0.796875,-6.09375 1.70313,-6.09375 L5,-6.79688 L5,9.70313 L1.09375,10.5 C0.5,10.5938 0,11.2969 0,11.9063 L0,17.7031 C0,18.7969 0.796875,19.0938 1.70313,19.0938 L5,18.4063 L5,33.2969 L7.79688,33.2969 L7.79688,17.7969 L16.7031,16 L16.7031,30.1094 L19.5,30.1094 L19.5,15.4063 L23.2969,14.7031 C23.9063,14.5938 24.4063,13.9063 24.4063,13.2969 L24.4063,7.40625 C24.4063,6.40625 23.7031,6 22.7969,6 L19.5,6.70313 L19.5,-9.79688 L23.2969,-10.5 M7.79688,-7.40625 L16.7031,-9.20313 L16.7031,7.29688 L7.79688,9.20313 L7.79688,-7.40625 "/>
<path class="KeySig" transform="matrix(0.992001,0,0,0.992001,2244.02,674.369)" d="M23.2969,-10.5 C23.9063,-10.5938 24.4063,-11.2969 24.4063,-11.9063 L24.4063,-17.7969 C24.4063,-18.7969 23.7031,-19.2031 22.7969,-19.2031 L19.5,-18.5 L19.5,-33.4063 L16.7031,-33.4063 L16.7031,-17.9063 L7.79688,-16.0938 L7.79688,-30.2031 L5,-30.2031 L5,-15.5 L1.09375,-14.7031 C0.5,-14.5938 0,-13.9063 0,-13.2969 L0,-7.5 C0,-6.40625 0.796875,-6.09375 1.70313,-6.09375 L5,-6.79688 L5,9.70313 L1.09375,10.5 C0.5,10.5938 0,11.2969 0,11.9063 L0,17.7031 C0,18.7969 0.796875,19.0938 1.70313,19.0938 L5,18.4063 L5,33.2969 L7.79688,33.2969 L7.79688,17.7969 L16.7031,16 L16.7031,30.1094 L19.5,30.1094 L19.5,15.4063 L23.2969,14.7031 C23.9063,14.5938 24.4063,13.9063 24.4063,13.2969 L24.4063,7.40625 C24.4063,6.40625 23.7031,6 22.7969,6 L19.5,6.70313 L19.5,-9.79688 L23.2969,-10.5 M7.79688,-7.40625 L16.7031,-9.20313 L16.7031,7.29688 L7.79688,9.20313 L7.79688,-7.40625 "/>
<path class="KeySig" transform="matrix(0.992001,0,0,0.992001,2271.19,711.569)" d="M23.2969,-10.5 C23.9063,-10.5938 24.4063,-11.2969 24.4063,-11.9063 L24.4063,-17.7969 C24.4063,-18.7969 23.7031,-19.2031 22.7969,-19.2031 L19.5,-18.5 L19.5,-33.4063 L16.7031,-33.4063 L16.7031,-17.9063 L7.79688,-16.0938 L7.79688,-30.2031 L5,-30.2031 L5,-15.5 L1.09375,-14.7031 C0.5,-14.5938 0,-13.9063 0,-13.2969 L0,-7.5 C0,-6.40625 0.796875,-6.09375 1.70313,-6.09375 L5,-6.79688 L5,9.70313 L1.09375,10.5 C0.5,10.5938 0,11.2969 0,11.9063 L0,17.7031 C0,18.7969 0.796875,19.0938 1.70313,19.0938 L5,18.4063 L5,33.2969 L7.79688,33.2969 L7.79688,17.7969 L16.7031,16 L16.7031,30.1094 L19.5,30.1094 L19.5,15.4063 L23.2969,14.7031 C23.9063,14.5938 24.4063,13.9063 24.4063,13.2969 L24.4063,7.40625 C24.4063,6.40625 23.7031,6 22.7969,6 L19.5,6.70313 L19.5,-9.79688 L23.2969,-10.5 M7.79688,-7.40625 L16.7031,-9.20313 L16.7031,7.29688 L7.79688,9.20313 L7.79688,-7.40625 "/>
<path class="Lyrics" d="M1109.98,537.294 L1109.98,534.435 C1109.98,531.935 1110.14,530.294 1110.53,529.294 C1111.34,527.091 1113.09,525.731 1115.09,525.731 C1116.14,525.731 1116.78,526.044 1116.78,526.591 C1116.78,526.794 1116.78,526.841 1116.48,527.231 C1116.19,527.685 1116.03,528.294 1116.03,528.841 C1116.03,530.341 1117.23,531.481 1118.78,531.481 C1120.44,531.481 1121.59,530.231 1121.59,528.435 C1121.59,525.544 1119.09,523.731 1115.03,523.731 C1111.59,523.731 1109.03,524.935 1107.28,527.435 C1105.78,529.544 1105.28,531.685 1105.28,535.747 L1105.28,537.294 L1100.89,537.294 L1100.89,539.435 L1105.28,539.435 L1105.28,556.794 C1105.23,557.497 1105.19,557.794 1104.98,558.091 C1104.64,558.544 1103.69,558.747 1101.53,558.794 L1101.34,558.794 L1101.34,560.591 L1114.69,560.591 L1114.69,558.794 L1113.78,558.794 C1110.44,558.685 1109.98,558.435 1109.98,556.638 L1109.98,539.435 L1115.48,539.435 L1115.48,537.294 L1109.98,537.294 M1138.53,544.497 C1138.53,541.341 1137.98,539.747 1136.53,538.544 C1134.89,537.185 1132.44,536.544 1129.23,536.544 C1123.59,536.544 1119.48,539.185 1119.48,542.841 C1119.48,544.685 1120.64,545.888 1122.39,545.888 C1123.98,545.888 1125.09,544.841 1125.09,543.341 C1125.09,542.685 1124.84,541.997 1124.34,541.294 C1124.03,540.935 1123.98,540.841 1123.98,540.591 C1123.98,539.591 1125.98,538.685 1128.39,538.685 C1129.98,538.685 1131.73,539.185 1132.53,539.935 C1133.48,540.747 1133.84,541.935 1133.84,544.185 L1133.84,546.138 C1128.64,547.044 1126.98,547.435 1124.53,548.388 C1120.19,549.997 1118.14,552.294 1118.14,555.497 C1118.14,559.091 1120.94,561.341 1125.39,561.341 C1128.84,561.341 1131.94,559.935 1134.09,557.388 C1134.89,559.935 1136.14,560.935 1138.48,560.935 C1140.73,560.935 1143.09,559.497 1143.09,558.044 C1143.09,557.685 1142.89,557.435 1142.59,557.435 C1142.39,557.435 1142.19,557.497 1141.84,557.638 C1141.14,557.935 1140.84,557.997 1140.44,557.997 C1139.03,557.997 1138.53,557.091 1138.53,554.544 L1138.53,544.497 M1133.84,550.591 C1133.84,553.591 1133.69,554.294 1132.84,555.591 C1131.59,557.435 1129.34,558.685 1127.14,558.685 C1124.84,558.685 1123.19,557.044 1123.19,554.794 C1123.19,552.685 1124.23,551.185 1126.44,550.138 C1127.98,549.435 1129.94,548.935 1133.84,548.294 L1133.84,550.591 "/>
<path class="Lyrics" d="M1543.25,523.731 L1534,524.294 L1534,526.435 L1536.46,526.435 C1538.3,526.481 1538.55,526.794 1538.55,528.935 L1538.55,556.794 C1538.5,557.544 1538.46,557.841 1538.25,558.091 C1537.9,558.544 1536.96,558.747 1534.8,558.794 L1534.46,558.794 L1534.46,560.591 L1547.4,560.591 L1547.4,558.794 L1547.05,558.794 C1543.71,558.685 1543.25,558.435 1543.25,556.638 L1543.25,523.731 M1571.65,544.497 C1571.65,541.341 1571.1,539.747 1569.65,538.544 C1568,537.185 1565.55,536.544 1562.35,536.544 C1556.71,536.544 1552.6,539.185 1552.6,542.841 C1552.6,544.685 1553.75,545.888 1555.5,545.888 C1557.1,545.888 1558.21,544.841 1558.21,543.341 C1558.21,542.685 1557.96,541.997 1557.46,541.294 C1557.15,540.935 1557.1,540.841 1557.1,540.591 C1557.1,539.591 1559.1,538.685 1561.5,538.685 C1563.1,538.685 1564.85,539.185 1565.65,539.935 C1566.6,540.747 1566.96,541.935 1566.96,544.185 L1566.96,546.138 C1561.75,547.044 1560.1,547.435 1557.65,548.388 C1553.3,549.997 1551.25,552.294 1551.25,555.497 C1551.25,559.091 1554.05,561.341 1558.5,561.341 C1561.96,561.341 1565.05,559.935 1567.21,557.388 C1568,559.935 1569.25,560.935 1571.6,560.935 C1573.85,560.935 1576.21,559.497 1576.21,558.044 C1576.21,557.685 1576,557.435 1575.71,557.435 C1575.5,557.435 1575.3,557.497 1574.96,557.638 C1574.25,557.935 1573.96,557.997 1573.55,557.997 C1572.15,557.997 1571.65,557.091 1571.65,554.544 L1571.65,544.497 M1566.96,550.591 C1566.96,553.591 1566.8,554.294 1565.96,555.591 C1564.71,557.435 1562.46,558.685 1560.25,558.685 C1557.96,558.685 1556.3,557.044 1556.3,554.794 C1556.3,552.685 1557.35,551.185 1559.55,550.138 C1561.1,549.435 1563.05,548.935 1566.96,548.294 L1566.96,550.591 "/>
<path class="Lyrics" d="M1770.86,536.747 L1769.11,536.747 L1767.65,538.544 C1765.86,537.138 1764.06,536.544 1761.56,536.544 C1757.15,536.544 1754.26,539.388 1754.26,543.794 C1754.26,548.497 1757.31,549.685 1761.31,550.638 L1763.95,551.247 C1767.9,552.185 1769.31,553.185 1769.31,555.185 C1769.31,557.544 1767.26,559.185 1764.36,559.185 C1760.11,559.185 1757.11,556.497 1755.9,551.497 L1753.9,551.497 L1753.9,560.935 L1755.65,560.935 L1757.4,558.888 C1759.45,560.544 1761.7,561.341 1764.26,561.341 C1769.15,561.341 1772.4,558.294 1772.4,553.638 C1772.4,551.435 1771.7,549.747 1770.31,548.591 C1769.11,547.544 1768.11,547.138 1765.06,546.497 L1762.56,545.935 C1759.81,545.341 1759.81,545.341 1758.9,544.841 C1757.81,544.341 1757.15,543.294 1757.15,542.185 C1757.15,540.138 1759.06,538.747 1761.81,538.747 C1765.9,538.747 1767.9,541.638 1769.11,545.138 L1770.86,545.138 L1770.86,536.747 M1782.31,524.841 C1780.7,524.841 1779.4,526.138 1779.4,527.731 C1779.4,529.341 1780.7,530.638 1782.26,530.638 C1783.9,530.638 1785.2,529.341 1785.2,527.731 C1785.2,526.138 1783.9,524.841 1782.31,524.841 M1784.65,537.294 L1775.26,537.841 L1775.26,539.997 L1777.81,539.997 C1779.7,540.044 1779.95,540.341 1779.95,542.497 L1779.95,556.794 C1779.9,557.544 1779.86,557.841 1779.65,558.091 C1779.31,558.544 1778.36,558.747 1776.2,558.794 L1775.86,558.794 L1775.86,560.591 L1788.81,560.591 L1788.81,558.794 L1788.45,558.794 C1785.11,558.685 1784.65,558.435 1784.65,556.638 L1784.65,537.294 "/>
<path class="Lyrics" d="M1325.74,536.747 L1323.99,536.747 L1322.54,538.544 C1320.74,537.138 1318.95,536.544 1316.45,536.544 C1312.04,536.544 1309.15,539.388 1309.15,543.794 C1309.15,548.497 1312.2,549.685 1316.2,550.638 L1318.84,551.247 C1322.79,552.185 1324.2,553.185 1324.2,555.185 C1324.2,557.544 1322.15,559.185 1319.24,559.185 C1314.99,559.185 1311.99,556.497 1310.79,551.497 L1308.79,551.497 L1308.79,560.935 L1310.54,560.935 L1312.29,558.888 C1314.34,560.544 1316.59,561.341 1319.15,561.341 C1324.04,561.341 1327.29,558.294 1327.29,553.638 C1327.29,551.435 1326.59,549.747 1325.2,548.591 C1323.99,547.544 1322.99,547.138 1319.95,546.497 L1317.45,545.935 C1314.7,545.341 1314.7,545.341 1313.79,544.841 C1312.7,544.341 1312.04,543.294 1312.04,542.185 C1312.04,540.138 1313.95,538.747 1316.7,538.747 C1320.79,538.747 1322.79,541.638 1323.99,545.138 L1325.74,545.138 L1325.74,536.747 M1341.84,536.544 C1335.7,536.544 1330.95,541.997 1330.95,548.997 C1330.95,555.841 1335.74,561.341 1341.74,561.341 C1347.74,561.341 1352.54,555.841 1352.54,548.935 C1352.54,542.091 1347.74,536.544 1341.84,536.544 M1341.84,538.685 C1345.34,538.685 1347.29,542.341 1347.29,548.935 C1347.29,555.591 1345.34,559.185 1341.74,559.185 C1338.15,559.185 1336.2,555.591 1336.2,548.997 C1336.2,542.185 1338.09,538.685 1341.84,538.685 M1364.45,523.731 L1355.2,524.294 L1355.2,526.435 L1357.65,526.435 C1359.49,526.481 1359.74,526.794 1359.74,528.935 L1359.74,556.794 C1359.7,557.544 1359.65,557.841 1359.45,558.091 C1359.09,558.544 1358.15,558.747 1355.99,558.794 L1355.65,558.794 L1355.65,560.591 L1368.59,560.591 L1368.59,558.794 L1368.24,558.794 C1364.9,558.685 1364.45,558.435 1364.45,556.638 L1364.45,523.731 "/>
<path class="Lyrics" d="M1979.16,560.935 L1987.87,560.591 L1987.87,558.435 L1986.96,558.435 C1984.12,558.294 1983.87,557.997 1983.87,554.794 L1983.87,523.731 L1974.07,524.294 L1974.07,526.435 L1977.01,526.435 C1978.91,526.481 1979.16,526.794 1979.16,528.935 L1979.16,540.247 C1977.32,537.685 1975.16,536.544 1972.26,536.544 C1966.62,536.544 1962.32,541.997 1962.32,549.185 C1962.32,556.294 1966.46,561.341 1972.26,561.341 C1975.41,561.341 1977.57,559.997 1979.16,556.997 L1979.16,560.935 M1973.26,539.247 C1975.32,539.247 1977.26,540.747 1978.16,543.044 C1978.82,544.544 1979.12,546.591 1979.12,549.044 C1979.12,554.888 1976.82,558.638 1973.21,558.638 C1969.66,558.638 1967.57,555.341 1967.57,549.794 C1967.57,546.794 1967.87,544.544 1968.51,542.888 C1969.37,540.638 1971.21,539.247 1973.26,539.247 M2001.76,536.544 C1995.62,536.544 1990.87,541.997 1990.87,548.997 C1990.87,555.841 1995.66,561.341 2001.66,561.341 C2007.66,561.341 2012.46,555.841 2012.46,548.935 C2012.46,542.091 2007.66,536.544 2001.76,536.544 M2001.76,538.685 C2005.26,538.685 2007.21,542.341 2007.21,548.935 C2007.21,555.591 2005.26,559.185 2001.66,559.185 C1998.07,559.185 1996.12,555.591 1996.12,548.997 C1996.12,542.185 1998.01,538.685 2001.76,538.685"/>
<path class="Lyrics" d="M886.178,537.294 L877.288,537.841 L877.288,539.997 L879.334,539.997 C881.225,540.044 881.475,540.341 881.475,542.497 L881.475,556.794 C881.428,557.544 881.381,557.841 881.178,558.091 C880.834,558.544 879.881,558.747 877.725,558.794 L877.538,558.794 L877.538,560.591 L890.131,560.591 L890.131,558.794 L889.928,558.794 C886.631,558.685 886.178,558.435 886.178,556.591 L886.178,547.341 C886.178,542.888 888.631,539.591 891.881,539.591 C894.725,539.591 896.178,541.638 896.178,545.685 L896.178,556.841 C896.131,557.497 896.084,557.841 895.834,558.091 C895.538,558.544 894.538,558.747 892.381,558.794 L892.178,558.794 L892.178,560.591 L904.834,560.591 L904.834,558.794 L904.631,558.794 C901.334,558.685 900.881,558.435 900.881,556.638 L900.881,547.794 C900.881,542.794 903.131,539.591 906.631,539.591 C909.491,539.591 910.881,541.747 910.881,546.247 L910.881,556.794 C910.834,557.497 910.788,557.841 910.538,558.091 C910.241,558.544 909.241,558.747 907.084,558.794 L906.881,558.794 L906.881,560.591 L919.538,560.591 L919.538,558.794 L919.334,558.794 C916.038,558.685 915.584,558.435 915.584,556.591 L915.584,545.247 C915.584,542.138 915.288,541.091 913.991,539.388 C912.538,537.544 910.491,536.544 908.084,536.544 C904.834,536.544 902.428,538.091 900.288,541.544 C899.428,538.544 896.725,536.544 893.381,536.544 C890.334,536.544 888.131,537.997 886.178,541.138 L886.178,537.294 M928.084,524.841 C926.475,524.841 925.178,526.138 925.178,527.731 C925.178,529.341 926.475,530.638 928.038,530.638 C929.678,530.638 930.975,529.341 930.975,527.731 C930.975,526.138 929.678,524.841 928.084,524.841 M930.428,537.294 L921.038,537.841 L921.038,539.997 L923.584,539.997 C925.475,540.044 925.725,540.341 925.725,542.497 L925.725,556.794 C925.678,557.544 925.631,557.841 925.428,558.091 C925.084,558.544 924.131,558.747 921.975,558.794 L921.631,558.794 L921.631,560.591 L934.584,560.591 L934.584,558.794 L934.225,558.794 C930.881,558.685 930.428,558.435 930.428,556.638 L930.428,537.294 "/>
<path class="Lyrics" d="M676.231,537.294 L667.372,537.841 L667.372,539.997 L669.418,539.997 C671.325,540.044 671.575,540.341 671.575,542.497 L671.575,556.794 C671.528,557.544 671.481,557.841 671.278,558.091 C670.918,558.544 669.918,558.747 667.778,558.794 L667.575,558.794 L667.575,560.591 L680.918,560.591 L680.918,558.794 L680.028,558.794 C676.668,558.685 676.231,558.435 676.231,556.638 L676.231,553.935 C676.278,545.544 679.278,539.138 683.168,538.935 C682.481,539.747 682.278,540.247 682.278,541.185 C682.278,542.794 683.418,543.935 685.028,543.935 C686.872,543.935 688.075,542.591 688.075,540.591 C688.075,538.138 686.372,536.544 683.731,536.544 C680.575,536.544 677.872,539.044 676.231,543.497 L676.231,537.294 M711.575,549.341 C711.622,541.841 707.372,536.544 701.278,536.544 C694.872,536.544 690.075,542.091 690.075,549.591 C690.075,556.638 694.622,561.341 701.372,561.341 C706.168,561.341 709.528,558.997 711.575,554.247 L709.825,553.294 C707.778,557.138 705.668,558.638 702.325,558.638 C699.778,558.638 697.918,557.591 696.622,555.341 C695.731,553.841 695.325,552.091 695.372,549.341 L711.575,549.341 M695.418,547.185 C695.418,543.685 697.028,538.685 701.231,538.685 C704.231,538.685 706.231,541.341 706.231,545.388 C706.231,546.794 705.778,547.185 704.168,547.185 L695.418,547.185 "/>
<path class="Lyrics" d="M465.018,560.935 L473.721,560.591 L473.721,558.435 L472.815,558.435 C469.971,558.294 469.721,557.997 469.721,554.794 L469.721,523.731 L459.924,524.294 L459.924,526.435 L462.862,526.435 C464.768,526.481 465.018,526.794 465.018,528.935 L465.018,540.247 C463.174,537.685 461.018,536.544 458.112,536.544 C452.471,536.544 448.174,541.997 448.174,549.185 C448.174,556.294 452.315,561.341 458.112,561.341 C461.268,561.341 463.424,559.997 465.018,556.997 L465.018,560.935 M459.112,539.247 C461.174,539.247 463.112,540.747 464.018,543.044 C464.674,544.544 464.971,546.591 464.971,549.044 C464.971,554.888 462.674,558.638 459.065,558.638 C455.518,558.638 453.424,555.341 453.424,549.794 C453.424,546.794 453.721,544.544 454.362,542.888 C455.221,540.638 457.065,539.247 459.112,539.247 M487.612,536.544 C481.471,536.544 476.721,541.997 476.721,548.997 C476.721,555.841 481.518,561.341 487.518,561.341 C493.518,561.341 498.315,555.841 498.315,548.935 C498.315,542.091 493.518,536.544 487.612,536.544 M487.612,538.685 C491.112,538.685 493.065,542.341 493.065,548.935 C493.065,555.591 491.112,559.185 487.518,559.185 C483.924,559.185 481.971,555.591 481.971,548.997 C481.971,542.185 483.862,538.685 487.612,538.685"/>
<path class="Lyrics" d="M1535.1,812.272 L1526.21,812.819 L1526.21,814.975 L1528.25,814.975 C1530.15,815.022 1530.4,815.319 1530.4,817.475 L1530.4,831.772 C1530.35,832.522 1530.3,832.819 1530.1,833.069 C1529.75,833.522 1528.8,833.725 1526.65,833.772 L1526.46,833.772 L1526.46,835.569 L1539.05,835.569 L1539.05,833.772 L1538.85,833.772 C1535.55,833.663 1535.1,833.413 1535.1,831.569 L1535.1,822.319 C1535.1,817.866 1537.55,814.569 1540.8,814.569 C1543.65,814.569 1545.1,816.616 1545.1,820.663 L1545.1,831.819 C1545.05,832.475 1545,832.819 1544.75,833.069 C1544.46,833.522 1543.46,833.725 1541.3,833.772 L1541.1,833.772 L1541.1,835.569 L1553.75,835.569 L1553.75,833.772 L1553.55,833.772 C1550.25,833.663 1549.8,833.413 1549.8,831.616 L1549.8,822.772 C1549.8,817.772 1552.05,814.569 1555.55,814.569 C1558.41,814.569 1559.8,816.725 1559.8,821.225 L1559.8,831.772 C1559.75,832.475 1559.71,832.819 1559.46,833.069 C1559.16,833.522 1558.16,833.725 1556,833.772 L1555.8,833.772 L1555.8,835.569 L1568.46,835.569 L1568.46,833.772 L1568.25,833.772 C1564.96,833.663 1564.5,833.413 1564.5,831.569 L1564.5,820.225 C1564.5,817.116 1564.21,816.069 1562.91,814.366 C1561.46,812.522 1559.41,811.522 1557,811.522 C1553.75,811.522 1551.35,813.069 1549.21,816.522 C1548.35,813.522 1545.65,811.522 1542.3,811.522 C1539.25,811.522 1537.05,812.975 1535.1,816.116 L1535.1,812.272 M1577,799.819 C1575.4,799.819 1574.1,801.116 1574.1,802.71 C1574.1,804.319 1575.4,805.616 1576.96,805.616 C1578.6,805.616 1579.9,804.319 1579.9,802.71 C1579.9,801.116 1578.6,799.819 1577,799.819 M1579.35,812.272 L1569.96,812.819 L1569.96,814.975 L1572.5,814.975 C1574.4,815.022 1574.65,815.319 1574.65,817.475 L1574.65,831.772 C1574.6,832.522 1574.55,832.819 1574.35,833.069 C1574,833.522 1573.05,833.725 1570.9,833.772 L1570.55,833.772 L1570.55,835.569 L1583.5,835.569 L1583.5,833.772 L1583.15,833.772 C1579.8,833.663 1579.35,833.413 1579.35,831.616 L1579.35,812.272 "/>
<path class="Lyrics" d="M1326.29,812.272 L1326.29,809.413 C1326.29,806.913 1326.45,805.272 1326.84,804.272 C1327.65,802.069 1329.4,800.71 1331.4,800.71 C1332.45,800.71 1333.09,801.022 1333.09,801.569 C1333.09,801.772 1333.09,801.819 1332.79,802.21 C1332.49,802.663 1332.34,803.272 1332.34,803.819 C1332.34,805.319 1333.54,806.46 1335.09,806.46 C1336.74,806.46 1337.9,805.21 1337.9,803.413 C1337.9,800.522 1335.4,798.71 1331.34,798.71 C1327.9,798.71 1325.34,799.913 1323.59,802.413 C1322.09,804.522 1321.59,806.663 1321.59,810.725 L1321.59,812.272 L1317.2,812.272 L1317.2,814.413 L1321.59,814.413 L1321.59,831.772 C1321.54,832.475 1321.49,832.772 1321.29,833.069 C1320.95,833.522 1319.99,833.725 1317.84,833.772 L1317.65,833.772 L1317.65,835.569 L1330.99,835.569 L1330.99,833.772 L1330.09,833.772 C1326.74,833.663 1326.29,833.413 1326.29,831.616 L1326.29,814.413 L1331.79,814.413 L1331.79,812.272 L1326.29,812.272 M1354.84,819.475 C1354.84,816.319 1354.29,814.725 1352.84,813.522 C1351.2,812.163 1348.74,811.522 1345.54,811.522 C1339.9,811.522 1335.79,814.163 1335.79,817.819 C1335.79,819.663 1336.95,820.866 1338.7,820.866 C1340.29,820.866 1341.4,819.819 1341.4,818.319 C1341.4,817.663 1341.15,816.975 1340.65,816.272 C1340.34,815.913 1340.29,815.819 1340.29,815.569 C1340.29,814.569 1342.29,813.663 1344.7,813.663 C1346.29,813.663 1348.04,814.163 1348.84,814.913 C1349.79,815.725 1350.15,816.913 1350.15,819.163 L1350.15,821.116 C1344.95,822.022 1343.29,822.413 1340.84,823.366 C1336.49,824.975 1334.45,827.272 1334.45,830.475 C1334.45,834.069 1337.24,836.319 1341.7,836.319 C1345.15,836.319 1348.24,834.913 1350.4,832.366 C1351.2,834.913 1352.45,835.913 1354.79,835.913 C1357.04,835.913 1359.4,834.475 1359.4,833.022 C1359.4,832.663 1359.2,832.413 1358.9,832.413 C1358.7,832.413 1358.49,832.475 1358.15,832.616 C1357.45,832.913 1357.15,832.975 1356.74,832.975 C1355.34,832.975 1354.84,832.069 1354.84,829.522 L1354.84,819.475 M1350.15,825.569 C1350.15,828.569 1349.99,829.272 1349.15,830.569 C1347.9,832.413 1345.65,833.663 1343.45,833.663 C1341.15,833.663 1339.49,832.022 1339.49,829.772 C1339.49,827.663 1340.54,826.163 1342.74,825.116 C1344.29,824.413 1346.24,823.913 1350.15,823.272 L1350.15,825.569 "/>
<path class="Lyrics" d="M1757.76,812.272 L1748.9,812.819 L1748.9,814.975 L1750.95,814.975 C1752.86,815.022 1753.11,815.319 1753.11,817.475 L1753.11,831.772 C1753.06,832.522 1753.01,832.819 1752.81,833.069 C1752.45,833.522 1751.45,833.725 1749.31,833.772 L1749.11,833.772 L1749.11,835.569 L1762.45,835.569 L1762.45,833.772 L1761.56,833.772 C1758.2,833.663 1757.76,833.413 1757.76,831.616 L1757.76,828.913 C1757.81,820.522 1760.81,814.116 1764.7,813.913 C1764.01,814.725 1763.81,815.225 1763.81,816.163 C1763.81,817.772 1764.95,818.913 1766.56,818.913 C1768.4,818.913 1769.61,817.569 1769.61,815.569 C1769.61,813.116 1767.9,811.522 1765.26,811.522 C1762.11,811.522 1759.4,814.022 1757.76,818.475 L1757.76,812.272 M1793.11,824.319 C1793.15,816.819 1788.9,811.522 1782.81,811.522 C1776.4,811.522 1771.61,817.069 1771.61,824.569 C1771.61,831.616 1776.15,836.319 1782.9,836.319 C1787.7,836.319 1791.06,833.975 1793.11,829.225 L1791.36,828.272 C1789.31,832.116 1787.2,833.616 1783.86,833.616 C1781.31,833.616 1779.45,832.569 1778.15,830.319 C1777.26,828.819 1776.86,827.069 1776.9,824.319 L1793.11,824.319 M1776.95,822.163 C1776.95,818.663 1778.56,813.663 1782.76,813.663 C1785.76,813.663 1787.76,816.319 1787.76,820.366 C1787.76,821.772 1787.31,822.163 1785.7,822.163 L1776.95,822.163 "/>
<path class="Lyrics" d="M894.334,798.71 L885.084,799.272 L885.084,801.413 L887.538,801.413 C889.381,801.46 889.631,801.772 889.631,803.913 L889.631,831.772 C889.584,832.522 889.538,832.819 889.334,833.069 C888.975,833.522 888.038,833.725 885.881,833.772 L885.538,833.772 L885.538,835.569 L898.475,835.569 L898.475,833.772 L898.131,833.772 C894.788,833.663 894.334,833.413 894.334,831.616 L894.334,798.71 M922.725,819.475 C922.725,816.319 922.178,814.725 920.725,813.522 C919.084,812.163 916.631,811.522 913.428,811.522 C907.788,811.522 903.678,814.163 903.678,817.819 C903.678,819.663 904.834,820.866 906.584,820.866 C908.178,820.866 909.288,819.819 909.288,818.319 C909.288,817.663 909.038,816.975 908.538,816.272 C908.225,815.913 908.178,815.819 908.178,815.569 C908.178,814.569 910.178,813.663 912.584,813.663 C914.178,813.663 915.928,814.163 916.725,814.913 C917.678,815.725 918.038,816.913 918.038,819.163 L918.038,821.116 C912.834,822.022 911.178,822.413 908.725,823.366 C904.381,824.975 902.334,827.272 902.334,830.475 C902.334,834.069 905.131,836.319 909.584,836.319 C913.038,836.319 916.131,834.913 918.288,832.366 C919.084,834.913 920.334,835.913 922.678,835.913 C924.928,835.913 927.288,834.475 927.288,833.022 C927.288,832.663 927.084,832.413 926.788,832.413 C926.584,832.413 926.381,832.475 926.038,832.616 C925.334,832.913 925.038,832.975 924.631,832.975 C923.225,832.975 922.725,832.069 922.725,829.522 L922.725,819.475 M918.038,825.569 C918.038,828.569 917.881,829.272 917.038,830.569 C915.788,832.413 913.538,833.663 911.334,833.663 C909.038,833.663 907.381,832.022 907.381,829.772 C907.381,827.663 908.428,826.163 910.631,825.116 C912.178,824.413 914.131,823.913 918.038,823.272 L918.038,825.569 "/>
<path class="Lyrics" d="M1979.16,835.913 L1987.87,835.569 L1987.87,833.413 L1986.96,833.413 C1984.12,833.272 1983.87,832.975 1983.87,829.772 L1983.87,798.71 L1974.07,799.272 L1974.07,801.413 L1977.01,801.413 C1978.91,801.46 1979.16,801.772 1979.16,803.913 L1979.16,815.225 C1977.32,812.663 1975.16,811.522 1972.26,811.522 C1966.62,811.522 1962.32,816.975 1962.32,824.163 C1962.32,831.272 1966.46,836.319 1972.26,836.319 C1975.41,836.319 1977.57,834.975 1979.16,831.975 L1979.16,835.913 M1973.26,814.225 C1975.32,814.225 1977.26,815.725 1978.16,818.022 C1978.82,819.522 1979.12,821.569 1979.12,824.022 C1979.12,829.866 1976.82,833.616 1973.21,833.616 C1969.66,833.616 1967.57,830.319 1967.57,824.772 C1967.57,821.772 1967.87,819.522 1968.51,817.866 C1969.37,815.616 1971.21,814.225 1973.26,814.225 M2001.76,811.522 C1995.62,811.522 1990.87,816.975 1990.87,823.975 C1990.87,830.819 1995.66,836.319 2001.66,836.319 C2007.66,836.319 2012.46,830.819 2012.46,823.913 C2012.46,817.069 2007.66,811.522 2001.76,811.522 M2001.76,813.663 C2005.26,813.663 2007.21,817.319 2007.21,823.913 C2007.21,830.569 2005.26,834.163 2001.66,834.163 C1998.07,834.163 1996.12,830.569 1996.12,823.975 C1996.12,817.163 1998.01,813.663 2001.76,813.663"/>
<path class="Lyrics" d="M689.325,811.725 L687.575,811.725 L686.122,813.522 C684.325,812.116 682.528,811.522 680.028,811.522 C675.622,811.522 672.731,814.366 672.731,818.772 C672.731,823.475 675.778,824.663 679.778,825.616 L682.418,826.225 C686.372,827.163 687.778,828.163 687.778,830.163 C687.778,832.522 685.731,834.163 682.825,834.163 C678.575,834.163 675.575,831.475 674.372,826.475 L672.372,826.475 L672.372,835.913 L674.122,835.913 L675.872,833.866 C677.918,835.522 680.168,836.319 682.731,836.319 C687.622,836.319 690.872,833.272 690.872,828.616 C690.872,826.413 690.168,824.725 688.778,823.569 C687.575,822.522 686.575,822.116 683.528,821.475 L681.028,820.913 C678.278,820.319 678.278,820.319 677.372,819.819 C676.278,819.319 675.622,818.272 675.622,817.163 C675.622,815.116 677.528,813.725 680.278,813.725 C684.372,813.725 686.372,816.616 687.575,820.116 L689.325,820.116 L689.325,811.725 M700.778,799.819 C699.168,799.819 697.872,801.116 697.872,802.71 C697.872,804.319 699.168,805.616 700.731,805.616 C702.372,805.616 703.668,804.319 703.668,802.71 C703.668,801.116 702.372,799.819 700.778,799.819 M703.122,812.272 L693.731,812.819 L693.731,814.975 L696.278,814.975 C698.168,815.022 698.418,815.319 698.418,817.475 L698.418,831.772 C698.372,832.522 698.325,832.819 698.122,833.069 C697.778,833.522 696.825,833.725 694.668,833.772 L694.325,833.772 L694.325,835.569 L707.278,835.569 L707.278,833.772 L706.918,833.772 C703.575,833.663 703.122,833.413 703.122,831.616 L703.122,812.272 "/>
<path class="Lyrics" d="M1109.44,811.725 L1107.69,811.725 L1106.23,813.522 C1104.44,812.116 1102.64,811.522 1100.14,811.522 C1095.73,811.522 1092.84,814.366 1092.84,818.772 C1092.84,823.475 1095.89,824.663 1099.89,825.616 L1102.53,826.225 C1106.48,827.163 1107.89,828.163 1107.89,830.163 C1107.89,832.522 1105.84,834.163 1102.94,834.163 C1098.69,834.163 1095.69,831.475 1094.48,826.475 L1092.48,826.475 L1092.48,835.913 L1094.23,835.913 L1095.98,833.866 C1098.03,835.522 1100.28,836.319 1102.84,836.319 C1107.73,836.319 1110.98,833.272 1110.98,828.616 C1110.98,826.413 1110.28,824.725 1108.89,823.569 C1107.69,822.522 1106.69,822.116 1103.64,821.475 L1101.14,820.913 C1098.39,820.319 1098.39,820.319 1097.48,819.819 C1096.39,819.319 1095.73,818.272 1095.73,817.163 C1095.73,815.116 1097.64,813.725 1100.39,813.725 C1104.48,813.725 1106.48,816.616 1107.69,820.116 L1109.44,820.116 L1109.44,811.725 M1125.53,811.522 C1119.39,811.522 1114.64,816.975 1114.64,823.975 C1114.64,830.819 1119.44,836.319 1125.44,836.319 C1131.44,836.319 1136.23,830.819 1136.23,823.913 C1136.23,817.069 1131.44,811.522 1125.53,811.522 M1125.53,813.663 C1129.03,813.663 1130.98,817.319 1130.98,823.913 C1130.98,830.569 1129.03,834.163 1125.44,834.163 C1121.84,834.163 1119.89,830.569 1119.89,823.975 C1119.89,817.163 1121.78,813.663 1125.53,813.663 M1148.14,798.71 L1138.89,799.272 L1138.89,801.413 L1141.34,801.413 C1143.19,801.46 1143.44,801.772 1143.44,803.913 L1143.44,831.772 C1143.39,832.522 1143.34,832.819 1143.14,833.069 C1142.78,833.522 1141.84,833.725 1139.69,833.772 L1139.34,833.772 L1139.34,835.569 L1152.28,835.569 L1152.28,833.772 L1151.94,833.772 C1148.59,833.663 1148.14,833.413 1148.14,831.616 L1148.14,798.71 "/>
<path class="Lyrics" d="M465.018,835.913 L473.721,835.569 L473.721,833.413 L472.815,833.413 C469.971,833.272 469.721,832.975 469.721,829.772 L469.721,798.71 L459.924,799.272 L459.924,801.413 L462.862,801.413 C464.768,801.46 465.018,801.772 465.018,803.913 L465.018,815.225 C463.174,812.663 461.018,811.522 458.112,811.522 C452.471,811.522 448.174,816.975 448.174,824.163 C448.174,831.272 452.315,836.319 458.112,836.319 C461.268,836.319 463.424,834.975 465.018,831.975 L465.018,835.913 M459.112,814.225 C461.174,814.225 463.112,815.725 464.018,818.022 C464.674,819.522 464.971,821.569 464.971,824.022 C464.971,829.866 462.674,833.616 459.065,833.616 C455.518,833.616 453.424,830.319 453.424,824.772 C453.424,821.772 453.721,819.522 454.362,817.866 C455.221,815.616 457.065,814.225 459.112,814.225 M487.612,811.522 C481.471,811.522 476.721,816.975 476.721,823.975 C476.721,830.819 481.518,836.319 487.518,836.319 C493.518,836.319 498.315,830.819 498.315,823.913 C498.315,817.069 493.518,811.522 487.612,811.522 M487.612,813.663 C491.112,813.663 493.065,817.319 493.065,823.913 C493.065,830.569 491.112,834.163 487.518,834.163 C483.924,834.163 481.971,830.569 481.971,823.975 C481.971,817.163 483.862,813.663 487.612,813.663"/>
<path class="StaffText" d="M468.499,326.195 C466.812,328.242 462.203,329.789 457.609,329.899 L457.609,332.039 L461.999,332.039 C464.906,332.102 465.203,332.399 465.109,335.195 L465.109,355.242 C465.109,357.805 465.109,357.899 464.812,358.352 C464.406,358.852 463.453,359.055 460.656,359.055 L457.406,359.055 L457.406,361.399 L477.203,361.399 L477.203,359.055 L474.453,359.055 C471.656,359.055 470.703,358.852 470.312,358.352 C469.953,357.899 469.953,357.852 469.953,355.242 L469.953,334.602 C469.953,331.789 470.062,329.445 470.312,326.195 L468.499,326.195 M496.953,345.695 L522.156,345.695 L522.156,341.695 L496.953,341.695 L496.953,345.695 M496.953,355.805 L522.156,355.805 L522.156,351.805 L496.953,351.805 L496.953,355.805 M569.906,325.289 L539.859,325.289 L539.859,327.649 L540.749,327.649 C543.609,327.695 544.562,327.852 544.953,328.352 C545.249,328.789 545.249,328.899 545.249,331.445 L545.249,355.242 C545.249,357.805 545.249,357.899 544.953,358.352 C544.562,358.852 543.609,359.055 540.749,359.055 L539.859,359.055 L539.859,361.399 L570.562,361.399 L571.562,348.055 L569.359,348.055 C567.453,356.945 565.406,358.852 557.749,359.055 L554.453,359.055 C551.453,358.945 550.703,358.445 550.859,356.649 L550.859,343.899 L551.859,343.899 C556.999,343.695 558.859,345.555 559.062,351.102 L561.406,351.102 L561.406,334.695 L559.062,334.695 C558.749,339.602 556.812,341.555 552.062,341.555 L550.859,341.555 L550.859,330.149 C550.812,328.039 551.312,327.695 553.999,327.649 L556.609,327.649 C564.812,327.602 566.859,329.399 568.453,338.055 L570.609,338.055 L569.906,325.289 M583.406,324.539 L574.812,325.102 L574.812,327.242 L576.562,327.242 C578.453,327.289 578.703,327.602 578.703,329.742 L578.703,349.195 C578.703,356.149 578.406,359.945 577.812,362.102 L579.703,362.102 L582.156,358.195 C584.203,360.899 586.562,362.149 589.656,362.149 C595.859,362.149 600.406,356.852 600.406,349.602 C600.406,342.399 596.203,337.352 590.203,337.352 C587.156,337.352 585.312,338.399 583.406,341.242 L583.406,324.539 M589.312,339.899 C593.062,339.899 595.156,343.555 595.156,350.102 C595.156,356.445 593.109,359.992 589.453,359.992 C585.499,359.992 583.156,356.352 583.156,350.195 C583.156,343.492 585.312,339.899 589.312,339.899"/>
<path class="Page" d="M2306.83,212.661 C2303.14,213.27 2300.06,213.426 2294.34,213.426 C2289.11,213.426 2287.08,213.317 2281.14,212.661 L2279.27,229.114 L2282.3,229.442 L2282.84,226.958 C2283.89,222.13 2284.28,221.411 2286.25,221.411 C2286.47,221.411 2286.81,221.411 2287.19,221.458 C2288.73,221.52 2292.14,221.63 2293.45,221.63 C2294.02,221.63 2295.83,221.567 2298.58,221.52 L2300.72,221.458 L2296.98,227.02 L2294.23,231.301 C2289.94,238.02 2289.94,238.02 2288.63,241.036 C2287.52,243.458 2287.08,245.27 2287.08,246.973 C2287.08,250.286 2289.06,252.364 2292.14,252.364 C2295.61,252.364 2297.58,250.223 2297.58,246.317 C2297.53,236.145 2298.63,232.411 2306.83,214.973 L2306.83,212.661 "/>
<path class="Bracket" transform="matrix(3.596,0,0,3.7497,181.331,761.169)" d="M0.90625,-50 C2.70313,-51.9063 6.20313,-55.7969 6.20313,-63 C6.20313,-72.1094 2.29688,-81.3125 2.29688,-87 C2.29688,-93.1094 5.79688,-98.8125 6,-99 C6,-99.1094 6,-99.1094 6,-99.2031 C6,-99.3125 6,-99.4063 5.90625,-99.5 C5.79688,-99.5 5.59375,-99.5 5.5,-99.3125 C5.40625,-99.2031 0,-93.8125 0,-85.6094 C0,-76.8125 3.5,-70.6094 3.5,-59.1094 C3.5,-56.9063 2.59375,-53.4063 0.09375,-50.2969 C0,-50.2969 0,-50.1094 -0.09375,-50 C-0.09375,-49.9063 0,-49.7969 0.09375,-49.7031 C2.59375,-46.6094 3.5,-43.1094 3.5,-40.9063 C3.5,-29.4063 0,-23.2031 0,-14.4063 C0,-6.29688 5.40625,-0.796875 5.5,-0.703125 C5.59375,-0.5 5.79688,-0.40625 5.90625,-0.5 C6,-0.59375 6.09375,-0.703125 6,-0.796875 C6,-0.796875 6,-0.90625 6,-1 C5.79688,-1.20313 2.29688,-6.90625 2.29688,-13 C2.29688,-18.7031 6.20313,-27.9063 6.20313,-37 C6.20313,-44.2969 2.70313,-48.1094 0.90625,-50"/>
</svg>
