<?xml version="1.0" encoding="UTF-8" standalone="no"?>
<svg width="2520px" height="1008px" viewBox="0 0 2520 1008"
 xmlns="http://www.w3.org/2000/svg" xmlns:xlink="http://www.w3.org/1999/xlink" version="1.2" baseProfile="tiny">
<title>大调调性 (4)</title>
<desc>Generated by MuseScore Studio 4.4.4</desc>
<path class="" fill="#ffffff" fill-rule="evenodd" d="M0,0 L2520,0 L2520,1008 L0,1008 L0,0 "/>
<polyline class="StaffLines" fill="none" stroke="#000000" stroke-width="2.73" stroke-linejoin="bevel" points="212.598,386.199 2307.8,386.199"/>
<polyline class="StaffLines" fill="none" stroke="#000000" stroke-width="2.73" stroke-linejoin="bevel" points="212.598,410.999 2307.8,410.999"/>
<polyline class="StaffLines" fill="none" stroke="#000000" stroke-width="2.73" stroke-linejoin="bevel" points="212.598,435.799 2307.8,435.799"/>
<polyline class="StaffLines" fill="none" stroke="#000000" stroke-width="2.73" stroke-linejoin="bevel" points="212.598,460.599 2307.8,460.599"/>
<polyline class="StaffLines" fill="none" stroke="#000000" stroke-width="2.73" stroke-linejoin="bevel" points="212.598,485.399 2307.8,485.399"/>
<polyline class="StaffLines" fill="none" stroke="#000000" stroke-width="2.73" stroke-linejoin="bevel" points="212.598,661.969 2307.8,661.969"/>
<polyline class="StaffLines" fill="none" stroke="#000000" stroke-width="2.73" stroke-linejoin="bevel" points="212.598,686.769 2307.8,686.769"/>
<polyline class="StaffLines" fill="none" stroke="#000000" stroke-width="2.73" stroke-linejoin="bevel" points="212.598,711.569 2307.8,711.569"/>
<polyline class="StaffLines" fill="none" stroke="#000000" stroke-width="2.73" stroke-linejoin="bevel" points="212.598,736.369 2307.8,736.369"/>
<polyline class="StaffLines" fill="none" stroke="#000000" stroke-width="2.73" stroke-linejoin="bevel" points="212.598,761.169 2307.8,761.169"/>
<path class="MeasureNumber" d="M231.989,328.317 L230.958,330.161 C229.348,332.927 229.036,333.161 226.989,333.192 L217.723,333.192 C218.676,331.927 220.442,330.442 223.63,328.192 C228.911,324.567 229.27,324.317 230.395,323.442 C233.598,320.958 234.911,318.599 234.911,315.442 C234.911,311.239 231.801,308.442 227.192,308.442 C222.083,308.442 217.645,312.208 217.645,316.567 C217.645,318.802 218.833,320.239 220.755,320.239 C222.192,320.239 223.317,319.161 223.317,317.677 C223.317,316.645 222.801,315.958 221.473,315.239 C220.52,314.755 220.364,314.567 220.364,314.083 C220.364,312.364 223.317,310.442 226.036,310.442 C228.833,310.442 230.723,312.317 230.723,315.13 C230.723,318.114 229.395,320.317 225.801,323.442 C215.161,332.677 213.551,334.364 213.192,336.599 L230.348,336.599 L233.442,328.88 L231.989,328.317 M241.083,321.286 C239.833,322.036 239.473,322.52 239.473,323.317 C239.473,324.083 240.114,324.645 240.911,324.645 C241.958,324.645 242.551,323.88 242.676,322.395 C243.911,321.395 245.239,320.958 246.833,320.958 C249.801,320.958 251.442,322.802 251.442,326.114 C251.442,331.317 248.083,335.552 243.958,335.552 C241.598,335.552 239.676,334.442 239.676,333.114 C239.676,332.88 239.723,332.802 239.911,332.677 C241.192,332.083 242.239,331.645 242.239,329.958 C242.239,328.677 241.239,327.724 239.833,327.724 C238.083,327.724 236.755,329.192 236.755,331.114 C236.755,334.645 239.801,337.192 244.083,337.192 C250.551,337.192 255.801,332.036 255.801,325.645 C255.801,321.599 252.723,318.755 248.364,318.755 C246.63,318.755 245.239,319.114 243.317,320.083 L245.551,312.52 C247.676,312.958 249.364,313.161 250.801,313.161 C253.442,313.161 255.801,312.317 257.114,310.927 C257.801,310.13 258.192,309.442 258.192,308.927 C258.192,308.677 258.067,308.442 257.911,308.442 C257.801,308.442 257.708,308.489 257.473,308.599 C256.161,309.239 254.473,309.599 252.911,309.599 C250.52,309.599 247.676,309.208 244.723,308.442 L241.083,321.286 "/>
<polyline class="BarLine" fill="none" stroke="#000000" stroke-width="4.46" stroke-linejoin="bevel" points="214.83,384.835 214.83,661.969"/>
<polyline class="BarLine" fill="none" stroke="#000000" stroke-width="4.46" stroke-linejoin="bevel" points="624.416,384.835 624.416,661.969"/>
<polyline class="BarLine" fill="none" stroke="#000000" stroke-width="4.46" stroke-linejoin="bevel" points="1983.69,384.835 1983.69,661.969"/>
<polyline class="BarLine" fill="none" stroke="#000000" stroke-width="4.46" stroke-linejoin="bevel" points="850.963,384.835 850.963,661.969"/>
<polyline class="BarLine" fill="none" stroke="#000000" stroke-width="4.46" stroke-linejoin="bevel" points="1304.06,384.835 1304.06,661.969"/>
<polyline class="BarLine" fill="none" stroke="#000000" stroke-width="4.46" stroke-linejoin="bevel" points="1757.15,384.835 1757.15,661.969"/>
<polyline class="BarLine" fill="none" stroke="#000000" stroke-width="4.46" stroke-linejoin="bevel" points="1530.6,384.835 1530.6,661.969"/>
<polyline class="BarLine" fill="none" stroke="#000000" stroke-width="4.46" stroke-linejoin="bevel" points="1077.51,384.835 1077.51,661.969"/>
<polyline class="BarLine" fill="none" stroke="#000000" stroke-width="4.46" stroke-linejoin="bevel" points="2210.24,384.835 2210.24,661.969"/>
<polyline class="BarLine" fill="none" stroke="#000000" stroke-width="13.64" stroke-linejoin="bevel" points="2228.47,384.835 2228.47,661.969"/>
<polyline class="BarLine" fill="none" stroke="#000000" stroke-width="4.46" stroke-linejoin="bevel" points="2210.24,660.605 2210.24,762.533"/>
<polyline class="BarLine" fill="none" stroke="#000000" stroke-width="13.64" stroke-linejoin="bevel" points="2228.47,660.605 2228.47,762.533"/>
<polyline class="BarLine" fill="none" stroke="#000000" stroke-width="4.46" stroke-linejoin="bevel" points="1304.06,660.605 1304.06,762.533"/>
<polyline class="BarLine" fill="none" stroke="#000000" stroke-width="4.46" stroke-linejoin="bevel" points="214.83,660.605 214.83,762.533"/>
<polyline class="BarLine" fill="none" stroke="#000000" stroke-width="4.46" stroke-linejoin="bevel" points="850.963,660.605 850.963,762.533"/>
<polyline class="BarLine" fill="none" stroke="#000000" stroke-width="4.46" stroke-linejoin="bevel" points="1983.69,660.605 1983.69,762.533"/>
<polyline class="BarLine" fill="none" stroke="#000000" stroke-width="4.46" stroke-linejoin="bevel" points="1530.6,660.605 1530.6,762.533"/>
<polyline class="BarLine" fill="none" stroke="#000000" stroke-width="4.46" stroke-linejoin="bevel" points="624.416,660.605 624.416,762.533"/>
<polyline class="BarLine" fill="none" stroke="#000000" stroke-width="4.46" stroke-linejoin="bevel" points="1757.15,660.605 1757.15,762.533"/>
<polyline class="BarLine" fill="none" stroke="#000000" stroke-width="4.46" stroke-linejoin="bevel" points="1077.51,660.605 1077.51,762.533"/>
<polyline class="LedgerLine" fill="none" stroke="#000000" stroke-width="3.97" stroke-linejoin="bevel" points="649.465,637.169 702.831,637.169"/>
<polyline class="LedgerLine" fill="none" stroke="#000000" stroke-width="3.97" stroke-linejoin="bevel" points="422.918,637.169 476.285,637.169"/>
<path class="Note" transform="matrix(0.992001,0,0,0.992001,884.195,472.999)" d="M18.7031,-13.5938 C4.90625,-13.5938 0,-6.59375 0,-0.09375 C0,6.40625 4.90625,13.4063 18.7031,13.4063 C32.5,13.4063 37.2969,6.40625 37.2969,-0.09375 C37.2969,-6.59375 32.5,-13.5938 18.7031,-13.5938 M19.5,10.2031 C16.7031,10.2031 14.7969,9.40625 13.5,6.90625 C12.2031,4.40625 10.4063,-2.09375 10.2969,-4.70313 C10.0938,-7.40625 11.0938,-9 13.5,-9.79688 C14.7031,-10.2031 16.2969,-10.4063 17.9063,-10.4063 C20.5938,-10.4063 22.4063,-9.79688 23.7969,-7.09375 C25.2031,-4.5 27.1094,2 27.1094,4.5 C27.1094,9.40625 23.5,10.2031 19.5,10.2031"/>
<path class="Note" transform="matrix(0.992001,0,0,0.992001,1110.74,460.599)" d="M18.7031,-13.5938 C4.90625,-13.5938 0,-6.59375 0,-0.09375 C0,6.40625 4.90625,13.4063 18.7031,13.4063 C32.5,13.4063 37.2969,6.40625 37.2969,-0.09375 C37.2969,-6.59375 32.5,-13.5938 18.7031,-13.5938 M19.5,10.2031 C16.7031,10.2031 14.7969,9.40625 13.5,6.90625 C12.2031,4.40625 10.4063,-2.09375 10.2969,-4.70313 C10.0938,-7.40625 11.0938,-9 13.5,-9.79688 C14.7031,-10.2031 16.2969,-10.4063 17.9063,-10.4063 C20.5938,-10.4063 22.4063,-9.79688 23.7969,-7.09375 C25.2031,-4.5 27.1094,2 27.1094,4.5 C27.1094,9.40625 23.5,10.2031 19.5,10.2031"/>
<path class="Note" transform="matrix(0.992001,0,0,0.992001,2016.93,410.999)" d="M18.7031,-13.5938 C4.90625,-13.5938 0,-6.59375 0,-0.09375 C0,6.40625 4.90625,13.4063 18.7031,13.4063 C32.5,13.4063 37.2969,6.40625 37.2969,-0.09375 C37.2969,-6.59375 32.5,-13.5938 18.7031,-13.5938 M19.5,10.2031 C16.7031,10.2031 14.7969,9.40625 13.5,6.90625 C12.2031,4.40625 10.4063,-2.09375 10.2969,-4.70313 C10.0938,-7.40625 11.0938,-9 13.5,-9.79688 C14.7031,-10.2031 16.2969,-10.4063 17.9063,-10.4063 C20.5938,-10.4063 22.4063,-9.79688 23.7969,-7.09375 C25.2031,-4.5 27.1094,2 27.1094,4.5 C27.1094,9.40625 23.5,10.2031 19.5,10.2031"/>
<path class="Note" transform="matrix(0.992001,0,0,0.992001,1337.29,448.199)" d="M18.7031,-13.5938 C4.90625,-13.5938 0,-6.59375 0,-0.09375 C0,6.40625 4.90625,13.4063 18.7031,13.4063 C32.5,13.4063 37.2969,6.40625 37.2969,-0.09375 C37.2969,-6.59375 32.5,-13.5938 18.7031,-13.5938 M19.5,10.2031 C16.7031,10.2031 14.7969,9.40625 13.5,6.90625 C12.2031,4.40625 10.4063,-2.09375 10.2969,-4.70313 C10.0938,-7.40625 11.0938,-9 13.5,-9.79688 C14.7031,-10.2031 16.2969,-10.4063 17.9063,-10.4063 C20.5938,-10.4063 22.4063,-9.79688 23.7969,-7.09375 C25.2031,-4.5 27.1094,2 27.1094,4.5 C27.1094,9.40625 23.5,10.2031 19.5,10.2031"/>
<path class="Note" transform="matrix(0.992001,0,0,0.992001,1563.83,435.799)" d="M18.7031,-13.5938 C4.90625,-13.5938 0,-6.59375 0,-0.09375 C0,6.40625 4.90625,13.4063 18.7031,13.4063 C32.5,13.4063 37.2969,6.40625 37.2969,-0.09375 C37.2969,-6.59375 32.5,-13.5938 18.7031,-13.5938 M19.5,10.2031 C16.7031,10.2031 14.7969,9.40625 13.5,6.90625 C12.2031,4.40625 10.4063,-2.09375 10.2969,-4.70313 C10.0938,-7.40625 11.0938,-9 13.5,-9.79688 C14.7031,-10.2031 16.2969,-10.4063 17.9063,-10.4063 C20.5938,-10.4063 22.4063,-9.79688 23.7969,-7.09375 C25.2031,-4.5 27.1094,2 27.1094,4.5 C27.1094,9.40625 23.5,10.2031 19.5,10.2031"/>
<path class="Note" transform="matrix(0.992001,0,0,0.992001,1790.38,423.399)" d="M18.7031,-13.5938 C4.90625,-13.5938 0,-6.59375 0,-0.09375 C0,6.40625 4.90625,13.4063 18.7031,13.4063 C32.5,13.4063 37.2969,6.40625 37.2969,-0.09375 C37.2969,-6.59375 32.5,-13.5938 18.7031,-13.5938 M19.5,10.2031 C16.7031,10.2031 14.7969,9.40625 13.5,6.90625 C12.2031,4.40625 10.4063,-2.09375 10.2969,-4.70313 C10.0938,-7.40625 11.0938,-9 13.5,-9.79688 C14.7031,-10.2031 16.2969,-10.4063 17.9063,-10.4063 C20.5938,-10.4063 22.4063,-9.79688 23.7969,-7.09375 C25.2031,-4.5 27.1094,2 27.1094,4.5 C27.1094,9.40625 23.5,10.2031 19.5,10.2031"/>
<path class="Note" transform="matrix(0.992001,0,0,0.992001,431.102,497.799)" d="M18.7031,-13.5938 C4.90625,-13.5938 0,-6.59375 0,-0.09375 C0,6.40625 4.90625,13.4063 18.7031,13.4063 C32.5,13.4063 37.2969,6.40625 37.2969,-0.09375 C37.2969,-6.59375 32.5,-13.5938 18.7031,-13.5938 M19.5,10.2031 C16.7031,10.2031 14.7969,9.40625 13.5,6.90625 C12.2031,4.40625 10.4063,-2.09375 10.2969,-4.70313 C10.0938,-7.40625 11.0938,-9 13.5,-9.79688 C14.7031,-10.2031 16.2969,-10.4063 17.9063,-10.4063 C20.5938,-10.4063 22.4063,-9.79688 23.7969,-7.09375 C25.2031,-4.5 27.1094,2 27.1094,4.5 C27.1094,9.40625 23.5,10.2031 19.5,10.2031"/>
<path class="Note" transform="matrix(0.992001,0,0,0.992001,657.649,485.399)" d="M18.7031,-13.5938 C4.90625,-13.5938 0,-6.59375 0,-0.09375 C0,6.40625 4.90625,13.4063 18.7031,13.4063 C32.5,13.4063 37.2969,6.40625 37.2969,-0.09375 C37.2969,-6.59375 32.5,-13.5938 18.7031,-13.5938 M19.5,10.2031 C16.7031,10.2031 14.7969,9.40625 13.5,6.90625 C12.2031,4.40625 10.4063,-2.09375 10.2969,-4.70313 C10.0938,-7.40625 11.0938,-9 13.5,-9.79688 C14.7031,-10.2031 16.2969,-10.4063 17.9063,-10.4063 C20.5938,-10.4063 22.4063,-9.79688 23.7969,-7.09375 C25.2031,-4.5 27.1094,2 27.1094,4.5 C27.1094,9.40625 23.5,10.2031 19.5,10.2031"/>
<path class="Note" transform="matrix(0.992001,0,0,0.992001,1790.38,699.169)" d="M18.7031,-13.5938 C4.90625,-13.5938 0,-6.59375 0,-0.09375 C0,6.40625 4.90625,13.4063 18.7031,13.4063 C32.5,13.4063 37.2969,6.40625 37.2969,-0.09375 C37.2969,-6.59375 32.5,-13.5938 18.7031,-13.5938 M19.5,10.2031 C16.7031,10.2031 14.7969,9.40625 13.5,6.90625 C12.2031,4.40625 10.4063,-2.09375 10.2969,-4.70313 C10.0938,-7.40625 11.0938,-9 13.5,-9.79688 C14.7031,-10.2031 16.2969,-10.4063 17.9063,-10.4063 C20.5938,-10.4063 22.4063,-9.79688 23.7969,-7.09375 C25.2031,-4.5 27.1094,2 27.1094,4.5 C27.1094,9.40625 23.5,10.2031 19.5,10.2031"/>
<path class="Note" transform="matrix(0.992001,0,0,0.992001,1337.29,674.369)" d="M18.7031,-13.5938 C4.90625,-13.5938 0,-6.59375 0,-0.09375 C0,6.40625 4.90625,13.4063 18.7031,13.4063 C32.5,13.4063 37.2969,6.40625 37.2969,-0.09375 C37.2969,-6.59375 32.5,-13.5938 18.7031,-13.5938 M19.5,10.2031 C16.7031,10.2031 14.7969,9.40625 13.5,6.90625 C12.2031,4.40625 10.4063,-2.09375 10.2969,-4.70313 C10.0938,-7.40625 11.0938,-9 13.5,-9.79688 C14.7031,-10.2031 16.2969,-10.4063 17.9063,-10.4063 C20.5938,-10.4063 22.4063,-9.79688 23.7969,-7.09375 C25.2031,-4.5 27.1094,2 27.1094,4.5 C27.1094,9.40625 23.5,10.2031 19.5,10.2031"/>
<path class="Note" transform="matrix(0.992001,0,0,0.992001,1110.74,661.969)" d="M18.7031,-13.5938 C4.90625,-13.5938 0,-6.59375 0,-0.09375 C0,6.40625 4.90625,13.4063 18.7031,13.4063 C32.5,13.4063 37.2969,6.40625 37.2969,-0.09375 C37.2969,-6.59375 32.5,-13.5938 18.7031,-13.5938 M19.5,10.2031 C16.7031,10.2031 14.7969,9.40625 13.5,6.90625 C12.2031,4.40625 10.4063,-2.09375 10.2969,-4.70313 C10.0938,-7.40625 11.0938,-9 13.5,-9.79688 C14.7031,-10.2031 16.2969,-10.4063 17.9063,-10.4063 C20.5938,-10.4063 22.4063,-9.79688 23.7969,-7.09375 C25.2031,-4.5 27.1094,2 27.1094,4.5 C27.1094,9.40625 23.5,10.2031 19.5,10.2031"/>
<path class="Note" transform="matrix(0.992001,0,0,0.992001,2016.93,711.569)" d="M18.7031,-13.5938 C4.90625,-13.5938 0,-6.59375 0,-0.09375 C0,6.40625 4.90625,13.4063 18.7031,13.4063 C32.5,13.4063 37.2969,6.40625 37.2969,-0.09375 C37.2969,-6.59375 32.5,-13.5938 18.7031,-13.5938 M19.5,10.2031 C16.7031,10.2031 14.7969,9.40625 13.5,6.90625 C12.2031,4.40625 10.4063,-2.09375 10.2969,-4.70313 C10.0938,-7.40625 11.0938,-9 13.5,-9.79688 C14.7031,-10.2031 16.2969,-10.4063 17.9063,-10.4063 C20.5938,-10.4063 22.4063,-9.79688 23.7969,-7.09375 C25.2031,-4.5 27.1094,2 27.1094,4.5 C27.1094,9.40625 23.5,10.2031 19.5,10.2031"/>
<path class="Note" transform="matrix(0.992001,0,0,0.992001,884.195,649.569)" d="M18.7031,-13.5938 C4.90625,-13.5938 0,-6.59375 0,-0.09375 C0,6.40625 4.90625,13.4063 18.7031,13.4063 C32.5,13.4063 37.2969,6.40625 37.2969,-0.09375 C37.2969,-6.59375 32.5,-13.5938 18.7031,-13.5938 M19.5,10.2031 C16.7031,10.2031 14.7969,9.40625 13.5,6.90625 C12.2031,4.40625 10.4063,-2.09375 10.2969,-4.70313 C10.0938,-7.40625 11.0938,-9 13.5,-9.79688 C14.7031,-10.2031 16.2969,-10.4063 17.9063,-10.4063 C20.5938,-10.4063 22.4063,-9.79688 23.7969,-7.09375 C25.2031,-4.5 27.1094,2 27.1094,4.5 C27.1094,9.40625 23.5,10.2031 19.5,10.2031"/>
<path class="Note" transform="matrix(0.992001,0,0,0.992001,657.649,637.169)" d="M18.7031,-13.5938 C4.90625,-13.5938 0,-6.59375 0,-0.09375 C0,6.40625 4.90625,13.4063 18.7031,13.4063 C32.5,13.4063 37.2969,6.40625 37.2969,-0.09375 C37.2969,-6.59375 32.5,-13.5938 18.7031,-13.5938 M19.5,10.2031 C16.7031,10.2031 14.7969,9.40625 13.5,6.90625 C12.2031,4.40625 10.4063,-2.09375 10.2969,-4.70313 C10.0938,-7.40625 11.0938,-9 13.5,-9.79688 C14.7031,-10.2031 16.2969,-10.4063 17.9063,-10.4063 C20.5938,-10.4063 22.4063,-9.79688 23.7969,-7.09375 C25.2031,-4.5 27.1094,2 27.1094,4.5 C27.1094,9.40625 23.5,10.2031 19.5,10.2031"/>
<path class="Note" transform="matrix(0.992001,0,0,0.992001,431.102,624.769)" d="M18.7031,-13.5938 C4.90625,-13.5938 0,-6.59375 0,-0.09375 C0,6.40625 4.90625,13.4063 18.7031,13.4063 C32.5,13.4063 37.2969,6.40625 37.2969,-0.09375 C37.2969,-6.59375 32.5,-13.5938 18.7031,-13.5938 M19.5,10.2031 C16.7031,10.2031 14.7969,9.40625 13.5,6.90625 C12.2031,4.40625 10.4063,-2.09375 10.2969,-4.70313 C10.0938,-7.40625 11.0938,-9 13.5,-9.79688 C14.7031,-10.2031 16.2969,-10.4063 17.9063,-10.4063 C20.5938,-10.4063 22.4063,-9.79688 23.7969,-7.09375 C25.2031,-4.5 27.1094,2 27.1094,4.5 C27.1094,9.40625 23.5,10.2031 19.5,10.2031"/>
<path class="Note" transform="matrix(0.992001,0,0,0.992001,1563.83,686.769)" d="M18.7031,-13.5938 C4.90625,-13.5938 0,-6.59375 0,-0.09375 C0,6.40625 4.90625,13.4063 18.7031,13.4063 C32.5,13.4063 37.2969,6.40625 37.2969,-0.09375 C37.2969,-6.59375 32.5,-13.5938 18.7031,-13.5938 M19.5,10.2031 C16.7031,10.2031 14.7969,9.40625 13.5,6.90625 C12.2031,4.40625 10.4063,-2.09375 10.2969,-4.70313 C10.0938,-7.40625 11.0938,-9 13.5,-9.79688 C14.7031,-10.2031 16.2969,-10.4063 17.9063,-10.4063 C20.5938,-10.4063 22.4063,-9.79688 23.7969,-7.09375 C25.2031,-4.5 27.1094,2 27.1094,4.5 C27.1094,9.40625 23.5,10.2031 19.5,10.2031"/>
<path class="Clef" transform="matrix(0.992001,0,0,0.992001,235.662,460.599)" d="M12.2969,51.2969 C12.2969,57.9063 17.2969,66.6094 30.7969,66.6094 C35.5,66.6094 39.6094,65.4063 43.2031,63.2031 C48.6094,59.4063 50,52.7969 50,46.5 C50,42.6094 49.4063,38.1094 48.4063,32.4063 C48.1094,30.4063 47.5,27.4063 46.9063,23.5 C56.7031,20.2969 64,10.0938 64,-0.203125 C64,-15.2969 53.2969,-25.5 38.7031,-25.5 C37.7031,-31.5 36.7031,-37.4063 35.9063,-43 C46.4063,-54.1094 53.7031,-66.6094 53.7031,-82.5 C53.7031,-91.6094 50.9063,-99 49.2969,-102.609 C46.9063,-107.703 44,-111.203 42.2031,-111.203 C41.5,-111.203 38.4063,-110 35.1094,-106.109 C28.7031,-98.5 26.9063,-85.7031 26.9063,-77.3125 C26.9063,-71.9063 27.4063,-67 29.1094,-55.7969 C29,-55.7031 23.7969,-50.4063 21.7031,-48.7031 C12.5938,-40.2969 0,-28.1094 0,-8.09375 C0,10.5938 16.2969,25.2969 34.9063,25.2969 C37.7969,25.2969 40.5,25 42.7969,24.5938 C44.7031,34.2031 45.9063,41.2031 45.9063,46.5 C45.9063,56.9063 40.5,62.4063 30.4063,62.4063 C28,62.4063 25.9063,61.9063 25.7031,61.9063 C25.6094,61.7969 25.4063,61.7031 25.4063,61.6094 C25.4063,61.4063 25.6094,61.2969 25.9063,61.2969 C30.6094,60.5 35.2969,56.5 35.2969,50.1094 C35.2969,44.7031 31.2031,39 23.7031,39 C16.7031,39 12.2969,44.7031 12.2969,51.2969 M33.2031,-82.2031 C34.1094,-86.2031 38.7031,-96.7031 43.9063,-96.7031 C45.4063,-96.7031 47.7969,-91.9063 47.7969,-84.9063 C47.7969,-74.5 40.1094,-66.7031 33.2031,-59.9063 C32.6094,-63.9063 32.1094,-67.7969 32.1094,-72 C32.1094,-75.7031 32.4063,-79.1094 33.2031,-82.2031 M42,20.5938 C40,21 38.1094,21.2031 36.2031,21.2031 C21.9063,21.2031 9.70313,11.2031 9.70313,-3.90625 C9.70313,-16.0938 18.2969,-27 27.1094,-34.6094 C28.7969,-36.1094 30.4063,-37.5 31.9063,-39 C32.7969,-33.6094 33.5,-28.9063 34.2031,-24.7969 C25.0938,-22.0938 18.9063,-12.5 18.9063,-3.09375 C18.9063,3.90625 24.4063,13.5 32.4063,13.5 C33.2031,13.5 34.1094,13.0938 34.1094,12.2031 C34.1094,11.2969 33.1094,10.7969 31.9063,10 C28,7.59375 25.7969,5 25.7969,0.09375 C25.7969,-6 30.4063,-10.9063 36.2031,-12.2969 L42,20.5938 M56.2031,2.09375 C56.2031,9.20313 53.2969,16.5 46.2031,19.4063 C44.1094,7.40625 41.4063,-8.5 40.7031,-12.9063 C49.7031,-12.9063 56.2031,-6.79688 56.2031,2.09375"/>
<path class="Clef" transform="matrix(0.992001,0,0,0.992001,235.662,686.769)" d="M25.4063,-25.0938 C17.7969,-25.0938 11.7031,-20.7031 11.5938,-20.7031 C5.70313,-16.4063 1.90625,-9.79688 1.90625,-2.5 C1.90625,4.79688 6.09375,10.2031 13.5,10.2031 C19.9063,10.2031 24.9063,5.90625 24.9063,-0.703125 C24.9063,-6.40625 19.9063,-11.0938 14.2969,-11.0938 C13.0938,-11.0938 12,-10.9063 11.0938,-10.5938 C10.0938,-10.2031 8.40625,-9.20313 7.59375,-8.5 C8.29688,-12.9063 11.2969,-17.2969 15.2031,-19.4063 C17.7031,-20.7969 20.9063,-21.4063 24.4063,-21.4063 C34.6094,-21.4063 39.6094,-13.2031 39.6094,3.59375 C39.6094,16.5938 31.2969,35.2969 21.5,44.1094 C11.0938,53.6094 1.29688,58.1094 1.20313,58.1094 C1.20313,58.1094 0,58.7969 0,60 C0,60.2031 0.09375,60.2969 0.09375,60.5 C0.40625,61.5 1.29688,61.7031 2,61.7031 L2.29688,61.6094 C2.5,61.6094 13.9063,56.9063 23,49.7969 C37,39.7031 52.7969,21.9063 52.7969,3.5 C52.7969,-13.9063 43.4063,-25.0938 25.4063,-25.0938 M56.7969,-12.4063 C56.7969,-9.59375 59,-7.40625 61.6094,-7.40625 C64.2031,-7.40625 66.4063,-9.59375 66.4063,-12.4063 C66.4063,-15.2031 64.2031,-17.5 61.6094,-17.5 C59,-17.5 56.7969,-15.2031 56.7969,-12.4063 M56.7969,12.2969 C56.7969,15.0938 59,17.4063 61.6094,17.4063 C64.2031,17.4063 66.4063,15.0938 66.4063,12.2969 C66.4063,9.5 64.2031,7.20313 61.6094,7.20313 C59,7.20313 56.7969,9.5 56.7969,12.2969"/>
<path class="KeySig" transform="matrix(0.992001,0,0,0.992001,320.122,386.199)" d="M23.2969,-10.5 C23.9063,-10.5938 24.4063,-11.2969 24.4063,-11.9063 L24.4063,-17.7969 C24.4063,-18.7969 23.7031,-19.2031 22.7969,-19.2031 L19.5,-18.5 L19.5,-33.4063 L16.7031,-33.4063 L16.7031,-17.9063 L7.79688,-16.0938 L7.79688,-30.2031 L5,-30.2031 L5,-15.5 L1.09375,-14.7031 C0.5,-14.5938 0,-13.9063 0,-13.2969 L0,-7.5 C0,-6.40625 0.796875,-6.09375 1.70313,-6.09375 L5,-6.79688 L5,9.70313 L1.09375,10.5 C0.5,10.5938 0,11.2969 0,11.9063 L0,17.7031 C0,18.7969 0.796875,19.0938 1.70313,19.0938 L5,18.4063 L5,33.2969 L7.79688,33.2969 L7.79688,17.7969 L16.7031,16 L16.7031,30.1094 L19.5,30.1094 L19.5,15.4063 L23.2969,14.7031 C23.9063,14.5938 24.4063,13.9063 24.4063,13.2969 L24.4063,7.40625 C24.4063,6.40625 23.7031,6 22.7969,6 L19.5,6.70313 L19.5,-9.79688 L23.2969,-10.5 M7.79688,-7.40625 L16.7031,-9.20313 L16.7031,7.29688 L7.79688,9.20313 L7.79688,-7.40625 "/>
<path class="KeySig" transform="matrix(0.992001,0,0,0.992001,347.294,423.399)" d="M23.2969,-10.5 C23.9063,-10.5938 24.4063,-11.2969 24.4063,-11.9063 L24.4063,-17.7969 C24.4063,-18.7969 23.7031,-19.2031 22.7969,-19.2031 L19.5,-18.5 L19.5,-33.4063 L16.7031,-33.4063 L16.7031,-17.9063 L7.79688,-16.0938 L7.79688,-30.2031 L5,-30.2031 L5,-15.5 L1.09375,-14.7031 C0.5,-14.5938 0,-13.9063 0,-13.2969 L0,-7.5 C0,-6.40625 0.796875,-6.09375 1.70313,-6.09375 L5,-6.79688 L5,9.70313 L1.09375,10.5 C0.5,10.5938 0,11.2969 0,11.9063 L0,17.7031 C0,18.7969 0.796875,19.0938 1.70313,19.0938 L5,18.4063 L5,33.2969 L7.79688,33.2969 L7.79688,17.7969 L16.7031,16 L16.7031,30.1094 L19.5,30.1094 L19.5,15.4063 L23.2969,14.7031 C23.9063,14.5938 24.4063,13.9063 24.4063,13.2969 L24.4063,7.40625 C24.4063,6.40625 23.7031,6 22.7969,6 L19.5,6.70313 L19.5,-9.79688 L23.2969,-10.5 M7.79688,-7.40625 L16.7031,-9.20313 L16.7031,7.29688 L7.79688,9.20313 L7.79688,-7.40625 "/>
<path class="KeySig" transform="matrix(0.992001,0,0,0.992001,2247.69,435.799)" d="M12,-15.5 C7,-15.5 4.09375,-12.4063 3.59375,-11.7969 L4,-43.9063 C4,-44.7031 3.40625,-45.2969 2.59375,-45.2969 L1.40625,-45.2969 C0.59375,-45.2969 0,-44.7031 0,-43.9063 L0.5,16.2031 C0.5,17 1.09375,17.5938 1.90625,17.5938 C2.09375,17.5938 2.5,17.5 2.70313,17.4063 C11.2969,13.0938 20.2969,4.90625 20.2969,-5.40625 C20.2969,-10.5938 17.9063,-15.5 12,-15.5 M3.29688,12.7031 L3.59375,-6.79688 C3.79688,-7.70313 5.29688,-10.5938 9.29688,-10.5938 C12.9063,-10.5938 13.2031,-7.20313 13.2031,-5.09375 C13.2031,3.79688 9.90625,7.5 3.29688,12.7031"/>
<path class="KeySig" transform="matrix(0.992001,0,0,0.992001,2275.26,398.599)" d="M12,-15.5 C7,-15.5 4.09375,-12.4063 3.59375,-11.7969 L4,-43.9063 C4,-44.7031 3.40625,-45.2969 2.59375,-45.2969 L1.40625,-45.2969 C0.59375,-45.2969 0,-44.7031 0,-43.9063 L0.5,16.2031 C0.5,17 1.09375,17.5938 1.90625,17.5938 C2.09375,17.5938 2.5,17.5 2.70313,17.4063 C11.2969,13.0938 20.2969,4.90625 20.2969,-5.40625 C20.2969,-10.5938 17.9063,-15.5 12,-15.5 M3.29688,12.7031 L3.59375,-6.79688 C3.79688,-7.70313 5.29688,-10.5938 9.29688,-10.5938 C12.9063,-10.5938 13.2031,-7.20313 13.2031,-5.09375 C13.2031,3.79688 9.90625,7.5 3.29688,12.7031"/>
<path class="KeySig" transform="matrix(0.992001,0,0,0.992001,320.122,686.769)" d="M23.2969,-10.5 C23.9063,-10.5938 24.4063,-11.2969 24.4063,-11.9063 L24.4063,-17.7969 C24.4063,-18.7969 23.7031,-19.2031 22.7969,-19.2031 L19.5,-18.5 L19.5,-33.4063 L16.7031,-33.4063 L16.7031,-17.9063 L7.79688,-16.0938 L7.79688,-30.2031 L5,-30.2031 L5,-15.5 L1.09375,-14.7031 C0.5,-14.5938 0,-13.9063 0,-13.2969 L0,-7.5 C0,-6.40625 0.796875,-6.09375 1.70313,-6.09375 L5,-6.79688 L5,9.70313 L1.09375,10.5 C0.5,10.5938 0,11.2969 0,11.9063 L0,17.7031 C0,18.7969 0.796875,19.0938 1.70313,19.0938 L5,18.4063 L5,33.2969 L7.79688,33.2969 L7.79688,17.7969 L16.7031,16 L16.7031,30.1094 L19.5,30.1094 L19.5,15.4063 L23.2969,14.7031 C23.9063,14.5938 24.4063,13.9063 24.4063,13.2969 L24.4063,7.40625 C24.4063,6.40625 23.7031,6 22.7969,6 L19.5,6.70313 L19.5,-9.79688 L23.2969,-10.5 M7.79688,-7.40625 L16.7031,-9.20313 L16.7031,7.29688 L7.79688,9.20313 L7.79688,-7.40625 "/>
<path class="KeySig" transform="matrix(0.992001,0,0,0.992001,347.294,723.969)" d="M23.2969,-10.5 C23.9063,-10.5938 24.4063,-11.2969 24.4063,-11.9063 L24.4063,-17.7969 C24.4063,-18.7969 23.7031,-19.2031 22.7969,-19.2031 L19.5,-18.5 L19.5,-33.4063 L16.7031,-33.4063 L16.7031,-17.9063 L7.79688,-16.0938 L7.79688,-30.2031 L5,-30.2031 L5,-15.5 L1.09375,-14.7031 C0.5,-14.5938 0,-13.9063 0,-13.2969 L0,-7.5 C0,-6.40625 0.796875,-6.09375 1.70313,-6.09375 L5,-6.79688 L5,9.70313 L1.09375,10.5 C0.5,10.5938 0,11.2969 0,11.9063 L0,17.7031 C0,18.7969 0.796875,19.0938 1.70313,19.0938 L5,18.4063 L5,33.2969 L7.79688,33.2969 L7.79688,17.7969 L16.7031,16 L16.7031,30.1094 L19.5,30.1094 L19.5,15.4063 L23.2969,14.7031 C23.9063,14.5938 24.4063,13.9063 24.4063,13.2969 L24.4063,7.40625 C24.4063,6.40625 23.7031,6 22.7969,6 L19.5,6.70313 L19.5,-9.79688 L23.2969,-10.5 M7.79688,-7.40625 L16.7031,-9.20313 L16.7031,7.29688 L7.79688,9.20313 L7.79688,-7.40625 "/>
<path class="KeySig" transform="matrix(0.992001,0,0,0.992001,2247.69,736.369)" d="M12,-15.5 C7,-15.5 4.09375,-12.4063 3.59375,-11.7969 L4,-43.9063 C4,-44.7031 3.40625,-45.2969 2.59375,-45.2969 L1.40625,-45.2969 C0.59375,-45.2969 0,-44.7031 0,-43.9063 L0.5,16.2031 C0.5,17 1.09375,17.5938 1.90625,17.5938 C2.09375,17.5938 2.5,17.5 2.70313,17.4063 C11.2969,13.0938 20.2969,4.90625 20.2969,-5.40625 C20.2969,-10.5938 17.9063,-15.5 12,-15.5 M3.29688,12.7031 L3.59375,-6.79688 C3.79688,-7.70313 5.29688,-10.5938 9.29688,-10.5938 C12.9063,-10.5938 13.2031,-7.20313 13.2031,-5.09375 C13.2031,3.79688 9.90625,7.5 3.29688,12.7031"/>
<path class="KeySig" transform="matrix(0.992001,0,0,0.992001,2275.26,699.169)" d="M12,-15.5 C7,-15.5 4.09375,-12.4063 3.59375,-11.7969 L4,-43.9063 C4,-44.7031 3.40625,-45.2969 2.59375,-45.2969 L1.40625,-45.2969 C0.59375,-45.2969 0,-44.7031 0,-43.9063 L0.5,16.2031 C0.5,17 1.09375,17.5938 1.90625,17.5938 C2.09375,17.5938 2.5,17.5 2.70313,17.4063 C11.2969,13.0938 20.2969,4.90625 20.2969,-5.40625 C20.2969,-10.5938 17.9063,-15.5 12,-15.5 M3.29688,12.7031 L3.59375,-6.79688 C3.79688,-7.70313 5.29688,-10.5938 9.29688,-10.5938 C12.9063,-10.5938 13.2031,-7.20313 13.2031,-5.09375 C13.2031,3.79688 9.90625,7.5 3.29688,12.7031"/>
<path class="Lyrics" d="M1570.54,536.131 L1561.29,536.694 L1561.29,538.835 L1563.74,538.835 C1565.58,538.881 1565.83,539.194 1565.83,541.335 L1565.83,569.194 C1565.79,569.944 1565.74,570.241 1565.54,570.491 C1565.18,570.944 1564.24,571.147 1562.08,571.194 L1561.74,571.194 L1561.74,572.991 L1574.68,572.991 L1574.68,571.194 L1574.33,571.194 C1570.99,571.085 1570.54,570.835 1570.54,569.038 L1570.54,536.131 M1598.93,556.897 C1598.93,553.741 1598.38,552.147 1596.93,550.944 C1595.29,549.585 1592.83,548.944 1589.63,548.944 C1583.99,548.944 1579.88,551.585 1579.88,555.241 C1579.88,557.085 1581.04,558.288 1582.79,558.288 C1584.38,558.288 1585.49,557.241 1585.49,555.741 C1585.49,555.085 1585.24,554.397 1584.74,553.694 C1584.43,553.335 1584.38,553.241 1584.38,552.991 C1584.38,551.991 1586.38,551.085 1588.79,551.085 C1590.38,551.085 1592.13,551.585 1592.93,552.335 C1593.88,553.147 1594.24,554.335 1594.24,556.585 L1594.24,558.538 C1589.04,559.444 1587.38,559.835 1584.93,560.788 C1580.58,562.397 1578.54,564.694 1578.54,567.897 C1578.54,571.491 1581.33,573.741 1585.79,573.741 C1589.24,573.741 1592.33,572.335 1594.49,569.788 C1595.29,572.335 1596.54,573.335 1598.88,573.335 C1601.13,573.335 1603.49,571.897 1603.49,570.444 C1603.49,570.085 1603.29,569.835 1602.99,569.835 C1602.79,569.835 1602.58,569.897 1602.24,570.038 C1601.54,570.335 1601.24,570.397 1600.83,570.397 C1599.43,570.397 1598.93,569.491 1598.93,566.944 L1598.93,556.897 M1594.24,562.991 C1594.24,565.991 1594.08,566.694 1593.24,567.991 C1591.99,569.835 1589.74,571.085 1587.54,571.085 C1585.24,571.085 1583.58,569.444 1583.58,567.194 C1583.58,565.085 1584.63,563.585 1586.83,562.538 C1588.38,561.835 1590.33,561.335 1594.24,560.694 L1594.24,562.991 "/>
<path class="Lyrics" d="M441.101,573.335 L449.805,572.991 L449.805,570.835 L448.898,570.835 C446.055,570.694 445.805,570.397 445.805,567.194 L445.805,536.131 L436.008,536.694 L436.008,538.835 L438.945,538.835 C440.851,538.881 441.101,539.194 441.101,541.335 L441.101,552.647 C439.258,550.085 437.101,548.944 434.195,548.944 C428.555,548.944 424.258,554.397 424.258,561.585 C424.258,568.694 428.398,573.741 434.195,573.741 C437.351,573.741 439.508,572.397 441.101,569.397 L441.101,573.335 M435.195,551.647 C437.258,551.647 439.195,553.147 440.101,555.444 C440.758,556.944 441.055,558.991 441.055,561.444 C441.055,567.288 438.758,571.038 435.148,571.038 C431.601,571.038 429.508,567.741 429.508,562.194 C429.508,559.194 429.805,556.944 430.445,555.288 C431.305,553.038 433.148,551.647 435.195,551.647 M463.695,548.944 C457.555,548.944 452.805,554.397 452.805,561.397 C452.805,568.241 457.601,573.741 463.601,573.741 C469.601,573.741 474.398,568.241 474.398,561.335 C474.398,554.491 469.601,548.944 463.695,548.944 M463.695,551.085 C467.195,551.085 469.148,554.741 469.148,561.335 C469.148,567.991 467.195,571.585 463.601,571.585 C460.008,571.585 458.055,567.991 458.055,561.397 C458.055,554.585 459.945,551.085 463.695,551.085"/>
<path class="Lyrics" d="M1808.38,549.147 L1806.63,549.147 L1805.18,550.944 C1803.38,549.538 1801.58,548.944 1799.08,548.944 C1794.68,548.944 1791.79,551.788 1791.79,556.194 C1791.79,560.897 1794.83,562.085 1798.83,563.038 L1801.47,563.647 C1805.43,564.585 1806.83,565.585 1806.83,567.585 C1806.83,569.944 1804.79,571.585 1801.88,571.585 C1797.63,571.585 1794.63,568.897 1793.43,563.897 L1791.43,563.897 L1791.43,573.335 L1793.18,573.335 L1794.93,571.288 C1796.97,572.944 1799.22,573.741 1801.79,573.741 C1806.68,573.741 1809.93,570.694 1809.93,566.038 C1809.93,563.835 1809.22,562.147 1807.83,560.991 C1806.63,559.944 1805.63,559.538 1802.58,558.897 L1800.08,558.335 C1797.33,557.741 1797.33,557.741 1796.43,557.241 C1795.33,556.741 1794.68,555.694 1794.68,554.585 C1794.68,552.538 1796.58,551.147 1799.33,551.147 C1803.43,551.147 1805.43,554.038 1806.63,557.538 L1808.38,557.538 L1808.38,549.147 M1819.83,537.241 C1818.22,537.241 1816.93,538.538 1816.93,540.131 C1816.93,541.741 1818.22,543.038 1819.79,543.038 C1821.43,543.038 1822.72,541.741 1822.72,540.131 C1822.72,538.538 1821.43,537.241 1819.83,537.241 M1822.18,549.694 L1812.79,550.241 L1812.79,552.397 L1815.33,552.397 C1817.22,552.444 1817.47,552.741 1817.47,554.897 L1817.47,569.194 C1817.43,569.944 1817.38,570.241 1817.18,570.491 C1816.83,570.944 1815.88,571.147 1813.72,571.194 L1813.38,571.194 L1813.38,572.991 L1826.33,572.991 L1826.33,571.194 L1825.97,571.194 C1822.63,571.085 1822.18,570.835 1822.18,569.038 L1822.18,549.694 "/>
<path class="Lyrics" d="M1342.79,549.147 L1341.04,549.147 L1339.58,550.944 C1337.79,549.538 1335.99,548.944 1333.49,548.944 C1329.08,548.944 1326.19,551.788 1326.19,556.194 C1326.19,560.897 1329.24,562.085 1333.24,563.038 L1335.88,563.647 C1339.83,564.585 1341.24,565.585 1341.24,567.585 C1341.24,569.944 1339.19,571.585 1336.29,571.585 C1332.04,571.585 1329.04,568.897 1327.83,563.897 L1325.83,563.897 L1325.83,573.335 L1327.58,573.335 L1329.33,571.288 C1331.38,572.944 1333.63,573.741 1336.19,573.741 C1341.08,573.741 1344.33,570.694 1344.33,566.038 C1344.33,563.835 1343.63,562.147 1342.24,560.991 C1341.04,559.944 1340.04,559.538 1336.99,558.897 L1334.49,558.335 C1331.74,557.741 1331.74,557.741 1330.83,557.241 C1329.74,556.741 1329.08,555.694 1329.08,554.585 C1329.08,552.538 1330.99,551.147 1333.74,551.147 C1337.83,551.147 1339.83,554.038 1341.04,557.538 L1342.79,557.538 L1342.79,549.147 M1358.88,548.944 C1352.74,548.944 1347.99,554.397 1347.99,561.397 C1347.99,568.241 1352.79,573.741 1358.79,573.741 C1364.79,573.741 1369.58,568.241 1369.58,561.335 C1369.58,554.491 1364.79,548.944 1358.88,548.944 M1358.88,551.085 C1362.38,551.085 1364.33,554.741 1364.33,561.335 C1364.33,567.991 1362.38,571.585 1358.79,571.585 C1355.19,571.585 1353.24,567.991 1353.24,561.397 C1353.24,554.585 1355.13,551.085 1358.88,551.085 M1381.49,536.131 L1372.24,536.694 L1372.24,538.835 L1374.69,538.835 C1376.54,538.881 1376.79,539.194 1376.79,541.335 L1376.79,569.194 C1376.74,569.944 1376.69,570.241 1376.49,570.491 C1376.13,570.944 1375.19,571.147 1373.04,571.194 L1372.69,571.194 L1372.69,572.991 L1385.63,572.991 L1385.63,571.194 L1385.29,571.194 C1381.94,571.085 1381.49,570.835 1381.49,569.038 L1381.49,536.131 "/>
<path class="Lyrics" d="M2026.93,573.335 L2035.63,572.991 L2035.63,570.835 L2034.72,570.835 C2031.88,570.694 2031.63,570.397 2031.63,567.194 L2031.63,536.131 L2021.83,536.694 L2021.83,538.835 L2024.77,538.835 C2026.68,538.881 2026.93,539.194 2026.93,541.335 L2026.93,552.647 C2025.08,550.085 2022.93,548.944 2020.02,548.944 C2014.38,548.944 2010.08,554.397 2010.08,561.585 C2010.08,568.694 2014.22,573.741 2020.02,573.741 C2023.18,573.741 2025.33,572.397 2026.93,569.397 L2026.93,573.335 M2021.02,551.647 C2023.08,551.647 2025.02,553.147 2025.93,555.444 C2026.58,556.944 2026.88,558.991 2026.88,561.444 C2026.88,567.288 2024.58,571.038 2020.97,571.038 C2017.43,571.038 2015.33,567.741 2015.33,562.194 C2015.33,559.194 2015.63,556.944 2016.27,555.288 C2017.13,553.038 2018.97,551.647 2021.02,551.647 M2049.52,548.944 C2043.38,548.944 2038.63,554.397 2038.63,561.397 C2038.63,568.241 2043.43,573.741 2049.43,573.741 C2055.43,573.741 2060.22,568.241 2060.22,561.335 C2060.22,554.491 2055.43,548.944 2049.52,548.944 M2049.52,551.085 C2053.02,551.085 2054.97,554.741 2054.97,561.335 C2054.97,567.991 2053.02,571.585 2049.43,571.585 C2045.83,571.585 2043.88,567.991 2043.88,561.397 C2043.88,554.585 2045.77,551.085 2049.52,551.085"/>
<path class="Lyrics" d="M882.741,549.694 L873.85,550.241 L873.85,552.397 L875.897,552.397 C877.788,552.444 878.038,552.741 878.038,554.897 L878.038,569.194 C877.991,569.944 877.944,570.241 877.741,570.491 C877.397,570.944 876.444,571.147 874.288,571.194 L874.1,571.194 L874.1,572.991 L886.694,572.991 L886.694,571.194 L886.491,571.194 C883.194,571.085 882.741,570.835 882.741,568.991 L882.741,559.741 C882.741,555.288 885.194,551.991 888.444,551.991 C891.288,551.991 892.741,554.038 892.741,558.085 L892.741,569.241 C892.694,569.897 892.647,570.241 892.397,570.491 C892.1,570.944 891.1,571.147 888.944,571.194 L888.741,571.194 L888.741,572.991 L901.397,572.991 L901.397,571.194 L901.194,571.194 C897.897,571.085 897.444,570.835 897.444,569.038 L897.444,560.194 C897.444,555.194 899.694,551.991 903.194,551.991 C906.054,551.991 907.444,554.147 907.444,558.647 L907.444,569.194 C907.397,569.897 907.35,570.241 907.1,570.491 C906.804,570.944 905.804,571.147 903.647,571.194 L903.444,571.194 L903.444,572.991 L916.1,572.991 L916.1,571.194 L915.897,571.194 C912.6,571.085 912.147,570.835 912.147,568.991 L912.147,557.647 C912.147,554.538 911.85,553.491 910.554,551.788 C909.1,549.944 907.054,548.944 904.647,548.944 C901.397,548.944 898.991,550.491 896.85,553.944 C895.991,550.944 893.288,548.944 889.944,548.944 C886.897,548.944 884.694,550.397 882.741,553.538 L882.741,549.694 M924.647,537.241 C923.038,537.241 921.741,538.538 921.741,540.131 C921.741,541.741 923.038,543.038 924.6,543.038 C926.241,543.038 927.538,541.741 927.538,540.131 C927.538,538.538 926.241,537.241 924.647,537.241 M926.991,549.694 L917.6,550.241 L917.6,552.397 L920.147,552.397 C922.038,552.444 922.288,552.741 922.288,554.897 L922.288,569.194 C922.241,569.944 922.194,570.241 921.991,570.491 C921.647,570.944 920.694,571.147 918.538,571.194 L918.194,571.194 L918.194,572.991 L931.147,572.991 L931.147,571.194 L930.788,571.194 C927.444,571.085 926.991,570.835 926.991,569.038 L926.991,549.694 "/>
<path class="Lyrics" d="M662.554,549.694 L653.695,550.241 L653.695,552.397 L655.742,552.397 C657.648,552.444 657.898,552.741 657.898,554.897 L657.898,569.194 C657.851,569.944 657.804,570.241 657.601,570.491 C657.242,570.944 656.242,571.147 654.101,571.194 L653.898,571.194 L653.898,572.991 L667.242,572.991 L667.242,571.194 L666.351,571.194 C662.992,571.085 662.554,570.835 662.554,569.038 L662.554,566.335 C662.601,557.944 665.601,551.538 669.492,551.335 C668.804,552.147 668.601,552.647 668.601,553.585 C668.601,555.194 669.742,556.335 671.351,556.335 C673.195,556.335 674.398,554.991 674.398,552.991 C674.398,550.538 672.695,548.944 670.054,548.944 C666.898,548.944 664.195,551.444 662.554,555.897 L662.554,549.694 M697.898,561.741 C697.945,554.241 693.695,548.944 687.601,548.944 C681.195,548.944 676.398,554.491 676.398,561.991 C676.398,569.038 680.945,573.741 687.695,573.741 C692.492,573.741 695.851,571.397 697.898,566.647 L696.148,565.694 C694.101,569.538 691.992,571.038 688.648,571.038 C686.101,571.038 684.242,569.991 682.945,567.741 C682.054,566.241 681.648,564.491 681.695,561.741 L697.898,561.741 M681.742,559.585 C681.742,556.085 683.351,551.085 687.554,551.085 C690.554,551.085 692.554,553.741 692.554,557.788 C692.554,559.194 692.101,559.585 690.492,559.585 L681.742,559.585 "/>
<path class="Lyrics" d="M1116.79,549.694 L1116.79,546.835 C1116.79,544.335 1116.94,542.694 1117.33,541.694 C1118.15,539.491 1119.9,538.131 1121.9,538.131 C1122.94,538.131 1123.58,538.444 1123.58,538.991 C1123.58,539.194 1123.58,539.241 1123.29,539.631 C1122.99,540.085 1122.83,540.694 1122.83,541.241 C1122.83,542.741 1124.04,543.881 1125.58,543.881 C1127.24,543.881 1128.4,542.631 1128.4,540.835 C1128.4,537.944 1125.9,536.131 1121.83,536.131 C1118.4,536.131 1115.83,537.335 1114.08,539.835 C1112.58,541.944 1112.08,544.085 1112.08,548.147 L1112.08,549.694 L1107.69,549.694 L1107.69,551.835 L1112.08,551.835 L1112.08,569.194 C1112.04,569.897 1111.99,570.194 1111.79,570.491 C1111.44,570.944 1110.49,571.147 1108.33,571.194 L1108.15,571.194 L1108.15,572.991 L1121.49,572.991 L1121.49,571.194 L1120.58,571.194 C1117.24,571.085 1116.79,570.835 1116.79,569.038 L1116.79,551.835 L1122.29,551.835 L1122.29,549.694 L1116.79,549.694 M1145.33,556.897 C1145.33,553.741 1144.79,552.147 1143.33,550.944 C1141.69,549.585 1139.24,548.944 1136.04,548.944 C1130.4,548.944 1126.29,551.585 1126.29,555.241 C1126.29,557.085 1127.44,558.288 1129.19,558.288 C1130.79,558.288 1131.9,557.241 1131.9,555.741 C1131.9,555.085 1131.65,554.397 1131.15,553.694 C1130.83,553.335 1130.79,553.241 1130.79,552.991 C1130.79,551.991 1132.79,551.085 1135.19,551.085 C1136.79,551.085 1138.54,551.585 1139.33,552.335 C1140.29,553.147 1140.65,554.335 1140.65,556.585 L1140.65,558.538 C1135.44,559.444 1133.79,559.835 1131.33,560.788 C1126.99,562.397 1124.94,564.694 1124.94,567.897 C1124.94,571.491 1127.74,573.741 1132.19,573.741 C1135.65,573.741 1138.74,572.335 1140.9,569.788 C1141.69,572.335 1142.94,573.335 1145.29,573.335 C1147.54,573.335 1149.9,571.897 1149.9,570.444 C1149.9,570.085 1149.69,569.835 1149.4,569.835 C1149.19,569.835 1148.99,569.897 1148.65,570.038 C1147.94,570.335 1147.65,570.397 1147.24,570.397 C1145.83,570.397 1145.33,569.491 1145.33,566.944 L1145.33,556.897 M1140.65,562.991 C1140.65,565.991 1140.49,566.694 1139.65,567.991 C1138.4,569.835 1136.15,571.085 1133.94,571.085 C1131.65,571.085 1129.99,569.444 1129.99,567.194 C1129.99,565.085 1131.04,563.585 1133.24,562.538 C1134.79,561.835 1136.74,561.335 1140.65,560.694 L1140.65,562.991 "/>
<path class="Lyrics" d="M1562.38,812.272 L1553.49,812.819 L1553.49,814.975 L1555.54,814.975 C1557.43,815.022 1557.68,815.319 1557.68,817.475 L1557.68,831.772 C1557.63,832.522 1557.58,832.819 1557.38,833.069 C1557.04,833.522 1556.08,833.725 1553.93,833.772 L1553.74,833.772 L1553.74,835.569 L1566.33,835.569 L1566.33,833.772 L1566.13,833.772 C1562.83,833.663 1562.38,833.413 1562.38,831.569 L1562.38,822.319 C1562.38,817.866 1564.83,814.569 1568.08,814.569 C1570.93,814.569 1572.38,816.616 1572.38,820.663 L1572.38,831.819 C1572.33,832.475 1572.29,832.819 1572.04,833.069 C1571.74,833.522 1570.74,833.725 1568.58,833.772 L1568.38,833.772 L1568.38,835.569 L1581.04,835.569 L1581.04,833.772 L1580.83,833.772 C1577.54,833.663 1577.08,833.413 1577.08,831.616 L1577.08,822.772 C1577.08,817.772 1579.33,814.569 1582.83,814.569 C1585.69,814.569 1587.08,816.725 1587.08,821.225 L1587.08,831.772 C1587.04,832.475 1586.99,832.819 1586.74,833.069 C1586.44,833.522 1585.44,833.725 1583.29,833.772 L1583.08,833.772 L1583.08,835.569 L1595.74,835.569 L1595.74,833.772 L1595.54,833.772 C1592.24,833.663 1591.79,833.413 1591.79,831.569 L1591.79,820.225 C1591.79,817.116 1591.49,816.069 1590.19,814.366 C1588.74,812.522 1586.69,811.522 1584.29,811.522 C1581.04,811.522 1578.63,813.069 1576.49,816.522 C1575.63,813.522 1572.93,811.522 1569.58,811.522 C1566.54,811.522 1564.33,812.975 1562.38,816.116 L1562.38,812.272 M1604.29,799.819 C1602.68,799.819 1601.38,801.116 1601.38,802.71 C1601.38,804.319 1602.68,805.616 1604.24,805.616 C1605.88,805.616 1607.18,804.319 1607.18,802.71 C1607.18,801.116 1605.88,799.819 1604.29,799.819 M1606.63,812.272 L1597.24,812.819 L1597.24,814.975 L1599.79,814.975 C1601.68,815.022 1601.93,815.319 1601.93,817.475 L1601.93,831.772 C1601.88,832.522 1601.83,832.819 1601.63,833.069 C1601.29,833.522 1600.33,833.725 1598.18,833.772 L1597.83,833.772 L1597.83,835.569 L1610.79,835.569 L1610.79,833.772 L1610.43,833.772 C1607.08,833.663 1606.63,833.413 1606.63,831.616 L1606.63,812.272 "/>
<path class="Lyrics" d="M675.648,811.725 L673.898,811.725 L672.445,813.522 C670.648,812.116 668.851,811.522 666.351,811.522 C661.945,811.522 659.054,814.366 659.054,818.772 C659.054,823.475 662.101,824.663 666.101,825.616 L668.742,826.225 C672.695,827.163 674.101,828.163 674.101,830.163 C674.101,832.522 672.054,834.163 669.148,834.163 C664.898,834.163 661.898,831.475 660.695,826.475 L658.695,826.475 L658.695,835.913 L660.445,835.913 L662.195,833.866 C664.242,835.522 666.492,836.319 669.054,836.319 C673.945,836.319 677.195,833.272 677.195,828.616 C677.195,826.413 676.492,824.725 675.101,823.569 C673.898,822.522 672.898,822.116 669.851,821.475 L667.351,820.913 C664.601,820.319 664.601,820.319 663.695,819.819 C662.601,819.319 661.945,818.272 661.945,817.163 C661.945,815.116 663.851,813.725 666.601,813.725 C670.695,813.725 672.695,816.616 673.898,820.116 L675.648,820.116 L675.648,811.725 M687.101,799.819 C685.492,799.819 684.195,801.116 684.195,802.71 C684.195,804.319 685.492,805.616 687.054,805.616 C688.695,805.616 689.992,804.319 689.992,802.71 C689.992,801.116 688.695,799.819 687.101,799.819 M689.445,812.272 L680.054,812.819 L680.054,814.975 L682.601,814.975 C684.492,815.022 684.742,815.319 684.742,817.475 L684.742,831.772 C684.695,832.522 684.648,832.819 684.445,833.069 C684.101,833.522 683.148,833.725 680.992,833.772 L680.648,833.772 L680.648,835.569 L693.601,835.569 L693.601,833.772 L693.242,833.772 C689.898,833.663 689.445,833.413 689.445,831.616 L689.445,812.272 "/>
<path class="Lyrics" d="M1795.29,812.272 L1786.43,812.819 L1786.43,814.975 L1788.47,814.975 C1790.38,815.022 1790.63,815.319 1790.63,817.475 L1790.63,831.772 C1790.58,832.522 1790.54,832.819 1790.33,833.069 C1789.97,833.522 1788.97,833.725 1786.83,833.772 L1786.63,833.772 L1786.63,835.569 L1799.97,835.569 L1799.97,833.772 L1799.08,833.772 C1795.72,833.663 1795.29,833.413 1795.29,831.616 L1795.29,828.913 C1795.33,820.522 1798.33,814.116 1802.22,813.913 C1801.54,814.725 1801.33,815.225 1801.33,816.163 C1801.33,817.772 1802.47,818.913 1804.08,818.913 C1805.93,818.913 1807.13,817.569 1807.13,815.569 C1807.13,813.116 1805.43,811.522 1802.79,811.522 C1799.63,811.522 1796.93,814.022 1795.29,818.475 L1795.29,812.272 M1830.63,824.319 C1830.68,816.819 1826.43,811.522 1820.33,811.522 C1813.93,811.522 1809.13,817.069 1809.13,824.569 C1809.13,831.616 1813.68,836.319 1820.43,836.319 C1825.22,836.319 1828.58,833.975 1830.63,829.225 L1828.88,828.272 C1826.83,832.116 1824.72,833.616 1821.38,833.616 C1818.83,833.616 1816.97,832.569 1815.68,830.319 C1814.79,828.819 1814.38,827.069 1814.43,824.319 L1830.63,824.319 M1814.47,822.163 C1814.47,818.663 1816.08,813.663 1820.29,813.663 C1823.29,813.663 1825.29,816.319 1825.29,820.366 C1825.29,821.772 1824.83,822.163 1823.22,822.163 L1814.47,822.163 "/>
<path class="Lyrics" d="M1116.24,811.725 L1114.49,811.725 L1113.04,813.522 C1111.24,812.116 1109.44,811.522 1106.94,811.522 C1102.54,811.522 1099.65,814.366 1099.65,818.772 C1099.65,823.475 1102.69,824.663 1106.69,825.616 L1109.33,826.225 C1113.29,827.163 1114.69,828.163 1114.69,830.163 C1114.69,832.522 1112.65,834.163 1109.74,834.163 C1105.49,834.163 1102.49,831.475 1101.29,826.475 L1099.29,826.475 L1099.29,835.913 L1101.04,835.913 L1102.79,833.866 C1104.83,835.522 1107.08,836.319 1109.65,836.319 C1114.54,836.319 1117.79,833.272 1117.79,828.616 C1117.79,826.413 1117.08,824.725 1115.69,823.569 C1114.49,822.522 1113.49,822.116 1110.44,821.475 L1107.94,820.913 C1105.19,820.319 1105.19,820.319 1104.29,819.819 C1103.19,819.319 1102.54,818.272 1102.54,817.163 C1102.54,815.116 1104.44,813.725 1107.19,813.725 C1111.29,813.725 1113.29,816.616 1114.49,820.116 L1116.24,820.116 L1116.24,811.725 M1132.33,811.522 C1126.19,811.522 1121.44,816.975 1121.44,823.975 C1121.44,830.819 1126.24,836.319 1132.24,836.319 C1138.24,836.319 1143.04,830.819 1143.04,823.913 C1143.04,817.069 1138.24,811.522 1132.33,811.522 M1132.33,813.663 C1135.83,813.663 1137.79,817.319 1137.79,823.913 C1137.79,830.569 1135.83,834.163 1132.24,834.163 C1128.65,834.163 1126.69,830.569 1126.69,823.975 C1126.69,817.163 1128.58,813.663 1132.33,813.663 M1154.94,798.71 L1145.69,799.272 L1145.69,801.413 L1148.15,801.413 C1149.99,801.46 1150.24,801.772 1150.24,803.913 L1150.24,831.772 C1150.19,832.522 1150.15,832.819 1149.94,833.069 C1149.58,833.522 1148.65,833.725 1146.49,833.772 L1146.15,833.772 L1146.15,835.569 L1159.08,835.569 L1159.08,833.772 L1158.74,833.772 C1155.4,833.663 1154.94,833.413 1154.94,831.616 L1154.94,798.71 "/>
<path class="Lyrics" d="M2026.93,835.913 L2035.63,835.569 L2035.63,833.413 L2034.72,833.413 C2031.88,833.272 2031.63,832.975 2031.63,829.772 L2031.63,798.71 L2021.83,799.272 L2021.83,801.413 L2024.77,801.413 C2026.68,801.46 2026.93,801.772 2026.93,803.913 L2026.93,815.225 C2025.08,812.663 2022.93,811.522 2020.02,811.522 C2014.38,811.522 2010.08,816.975 2010.08,824.163 C2010.08,831.272 2014.22,836.319 2020.02,836.319 C2023.18,836.319 2025.33,834.975 2026.93,831.975 L2026.93,835.913 M2021.02,814.225 C2023.08,814.225 2025.02,815.725 2025.93,818.022 C2026.58,819.522 2026.88,821.569 2026.88,824.022 C2026.88,829.866 2024.58,833.616 2020.97,833.616 C2017.43,833.616 2015.33,830.319 2015.33,824.772 C2015.33,821.772 2015.63,819.522 2016.27,817.866 C2017.13,815.616 2018.97,814.225 2021.02,814.225 M2049.52,811.522 C2043.38,811.522 2038.63,816.975 2038.63,823.975 C2038.63,830.819 2043.43,836.319 2049.43,836.319 C2055.43,836.319 2060.22,830.819 2060.22,823.913 C2060.22,817.069 2055.43,811.522 2049.52,811.522 M2049.52,813.663 C2053.02,813.663 2054.97,817.319 2054.97,823.913 C2054.97,830.569 2053.02,834.163 2049.43,834.163 C2045.83,834.163 2043.88,830.569 2043.88,823.975 C2043.88,817.163 2045.77,813.663 2049.52,813.663"/>
<path class="Lyrics" d="M890.897,798.71 L881.647,799.272 L881.647,801.413 L884.1,801.413 C885.944,801.46 886.194,801.772 886.194,803.913 L886.194,831.772 C886.147,832.522 886.1,832.819 885.897,833.069 C885.538,833.522 884.6,833.725 882.444,833.772 L882.1,833.772 L882.1,835.569 L895.038,835.569 L895.038,833.772 L894.694,833.772 C891.35,833.663 890.897,833.413 890.897,831.616 L890.897,798.71 M919.288,819.475 C919.288,816.319 918.741,814.725 917.288,813.522 C915.647,812.163 913.194,811.522 909.991,811.522 C904.35,811.522 900.241,814.163 900.241,817.819 C900.241,819.663 901.397,820.866 903.147,820.866 C904.741,820.866 905.85,819.819 905.85,818.319 C905.85,817.663 905.6,816.975 905.1,816.272 C904.788,815.913 904.741,815.819 904.741,815.569 C904.741,814.569 906.741,813.663 909.147,813.663 C910.741,813.663 912.491,814.163 913.288,814.913 C914.241,815.725 914.6,816.913 914.6,819.163 L914.6,821.116 C909.397,822.022 907.741,822.413 905.288,823.366 C900.944,824.975 898.897,827.272 898.897,830.475 C898.897,834.069 901.694,836.319 906.147,836.319 C909.6,836.319 912.694,834.913 914.85,832.366 C915.647,834.913 916.897,835.913 919.241,835.913 C921.491,835.913 923.85,834.475 923.85,833.022 C923.85,832.663 923.647,832.413 923.35,832.413 C923.147,832.413 922.944,832.475 922.6,832.616 C921.897,832.913 921.6,832.975 921.194,832.975 C919.788,832.975 919.288,832.069 919.288,829.522 L919.288,819.475 M914.6,825.569 C914.6,828.569 914.444,829.272 913.6,830.569 C912.35,832.413 910.1,833.663 907.897,833.663 C905.6,833.663 903.944,832.022 903.944,829.772 C903.944,827.663 904.991,826.163 907.194,825.116 C908.741,824.413 910.694,823.913 914.6,823.272 L914.6,825.569 "/>
<path class="Lyrics" d="M1343.33,812.272 L1343.33,809.413 C1343.33,806.913 1343.49,805.272 1343.88,804.272 C1344.69,802.069 1346.44,800.71 1348.44,800.71 C1349.49,800.71 1350.13,801.022 1350.13,801.569 C1350.13,801.772 1350.13,801.819 1349.83,802.21 C1349.54,802.663 1349.38,803.272 1349.38,803.819 C1349.38,805.319 1350.58,806.46 1352.13,806.46 C1353.79,806.46 1354.94,805.21 1354.94,803.413 C1354.94,800.522 1352.44,798.71 1348.38,798.71 C1344.94,798.71 1342.38,799.913 1340.63,802.413 C1339.13,804.522 1338.63,806.663 1338.63,810.725 L1338.63,812.272 L1334.24,812.272 L1334.24,814.413 L1338.63,814.413 L1338.63,831.772 C1338.58,832.475 1338.54,832.772 1338.33,833.069 C1337.99,833.522 1337.04,833.725 1334.88,833.772 L1334.69,833.772 L1334.69,835.569 L1348.04,835.569 L1348.04,833.772 L1347.13,833.772 C1343.79,833.663 1343.33,833.413 1343.33,831.616 L1343.33,814.413 L1348.83,814.413 L1348.83,812.272 L1343.33,812.272 M1371.88,819.475 C1371.88,816.319 1371.33,814.725 1369.88,813.522 C1368.24,812.163 1365.79,811.522 1362.58,811.522 C1356.94,811.522 1352.83,814.163 1352.83,817.819 C1352.83,819.663 1353.99,820.866 1355.74,820.866 C1357.33,820.866 1358.44,819.819 1358.44,818.319 C1358.44,817.663 1358.19,816.975 1357.69,816.272 C1357.38,815.913 1357.33,815.819 1357.33,815.569 C1357.33,814.569 1359.33,813.663 1361.74,813.663 C1363.33,813.663 1365.08,814.163 1365.88,814.913 C1366.83,815.725 1367.19,816.913 1367.19,819.163 L1367.19,821.116 C1361.99,822.022 1360.33,822.413 1357.88,823.366 C1353.54,824.975 1351.49,827.272 1351.49,830.475 C1351.49,834.069 1354.29,836.319 1358.74,836.319 C1362.19,836.319 1365.29,834.913 1367.44,832.366 C1368.24,834.913 1369.49,835.913 1371.83,835.913 C1374.08,835.913 1376.44,834.475 1376.44,833.022 C1376.44,832.663 1376.24,832.413 1375.94,832.413 C1375.74,832.413 1375.54,832.475 1375.19,832.616 C1374.49,832.913 1374.19,832.975 1373.79,832.975 C1372.38,832.975 1371.88,832.069 1371.88,829.522 L1371.88,819.475 M1367.19,825.569 C1367.19,828.569 1367.04,829.272 1366.19,830.569 C1364.94,832.413 1362.69,833.663 1360.49,833.663 C1358.19,833.663 1356.54,832.022 1356.54,829.772 C1356.54,827.663 1357.58,826.163 1359.79,825.116 C1361.33,824.413 1363.29,823.913 1367.19,823.272 L1367.19,825.569 "/>
<path class="Lyrics" d="M441.101,835.913 L449.805,835.569 L449.805,833.413 L448.898,833.413 C446.055,833.272 445.805,832.975 445.805,829.772 L445.805,798.71 L436.008,799.272 L436.008,801.413 L438.945,801.413 C440.851,801.46 441.101,801.772 441.101,803.913 L441.101,815.225 C439.258,812.663 437.101,811.522 434.195,811.522 C428.555,811.522 424.258,816.975 424.258,824.163 C424.258,831.272 428.398,836.319 434.195,836.319 C437.351,836.319 439.508,834.975 441.101,831.975 L441.101,835.913 M435.195,814.225 C437.258,814.225 439.195,815.725 440.101,818.022 C440.758,819.522 441.055,821.569 441.055,824.022 C441.055,829.866 438.758,833.616 435.148,833.616 C431.601,833.616 429.508,830.319 429.508,824.772 C429.508,821.772 429.805,819.522 430.445,817.866 C431.305,815.616 433.148,814.225 435.195,814.225 M463.695,811.522 C457.555,811.522 452.805,816.975 452.805,823.975 C452.805,830.819 457.601,836.319 463.601,836.319 C469.601,836.319 474.398,830.819 474.398,823.913 C474.398,817.069 469.601,811.522 463.695,811.522 M463.695,813.663 C467.195,813.663 469.148,817.319 469.148,823.913 C469.148,830.569 467.195,834.163 463.601,834.163 C460.008,834.163 458.055,830.569 458.055,823.975 C458.055,817.163 459.945,813.663 463.695,813.663"/>
<path class="StaffText" d="M444.583,326.195 C442.895,328.242 438.286,329.789 433.692,329.899 L433.692,332.039 L438.083,332.039 C440.989,332.102 441.286,332.399 441.192,335.195 L441.192,355.242 C441.192,357.805 441.192,357.899 440.895,358.352 C440.489,358.852 439.536,359.055 436.739,359.055 L433.489,359.055 L433.489,361.399 L453.286,361.399 L453.286,359.055 L450.536,359.055 C447.739,359.055 446.786,358.852 446.395,358.352 C446.036,357.899 446.036,357.852 446.036,355.242 L446.036,334.602 C446.036,331.789 446.145,329.445 446.395,326.195 L444.583,326.195 M473.036,345.695 L498.239,345.695 L498.239,341.695 L473.036,341.695 L473.036,345.695 M473.036,355.805 L498.239,355.805 L498.239,351.805 L473.036,351.805 L473.036,355.805 M515.942,361.399 L532.739,361.399 C537.192,361.399 540.599,360.695 543.239,359.195 C548.286,356.352 551.099,350.649 551.099,343.149 C551.099,336.242 548.599,330.852 543.989,327.852 C541.239,326.102 537.536,325.289 531.833,325.289 L515.942,325.289 L515.942,327.649 L516.895,327.649 C519.692,327.695 520.645,327.852 521.036,328.352 C521.333,328.789 521.333,328.899 521.333,331.445 L521.333,355.242 C521.333,357.805 521.333,357.899 521.036,358.352 C520.645,358.852 519.692,358.992 516.895,359.055 L515.942,359.055 L515.942,361.399 M529.786,359.055 C527.239,359.055 526.942,358.742 526.942,356.305 L526.942,330.445 C526.942,327.992 527.286,327.649 529.786,327.649 L532.395,327.649 C540.942,327.649 544.489,332.289 544.489,343.352 C544.489,354.555 541.286,359.055 533.192,359.055 L529.786,359.055 "/>
<path class="Page" d="M236.125,237.958 L236.125,221.02 C236.125,220.192 236.234,216.63 236.453,212.661 L232.656,212.661 L212.641,237.583 L212.641,241.645 L227.484,241.645 L227.484,243.676 C227.484,247.083 227.484,247.301 227.109,247.864 C226.656,248.411 225.5,248.63 222.922,248.63 L222.313,248.63 L222.313,251.598 L241.063,251.598 L241.063,248.63 L240.469,248.63 C238.047,248.567 236.891,248.348 236.5,247.864 C236.125,247.255 236.125,247.083 236.125,243.676 L236.125,241.645 L241.625,241.645 L241.625,237.958 L236.125,237.958 M227.484,237.958 L216.656,237.958 L227.484,224.208 L227.484,237.958 "/>
<path class="Bracket" transform="matrix(3.596,0,0,3.7497,181.331,761.169)" d="M0.90625,-50 C2.70313,-51.9063 6.20313,-55.7969 6.20313,-63 C6.20313,-72.1094 2.29688,-81.3125 2.29688,-87 C2.29688,-93.1094 5.79688,-98.8125 6,-99 C6,-99.1094 6,-99.1094 6,-99.2031 C6,-99.3125 6,-99.4063 5.90625,-99.5 C5.79688,-99.5 5.59375,-99.5 5.5,-99.3125 C5.40625,-99.2031 0,-93.8125 0,-85.6094 C0,-76.8125 3.5,-70.6094 3.5,-59.1094 C3.5,-56.9063 2.59375,-53.4063 0.09375,-50.2969 C0,-50.2969 0,-50.1094 -0.09375,-50 C-0.09375,-49.9063 0,-49.7969 0.09375,-49.7031 C2.59375,-46.6094 3.5,-43.1094 3.5,-40.9063 C3.5,-29.4063 0,-23.2031 0,-14.4063 C0,-6.29688 5.40625,-0.796875 5.5,-0.703125 C5.59375,-0.5 5.79688,-0.40625 5.90625,-0.5 C6,-0.59375 6.09375,-0.703125 6,-0.796875 C6,-0.796875 6,-0.90625 6,-1 C5.79688,-1.20313 2.29688,-6.90625 2.29688,-13 C2.29688,-18.7031 6.20313,-27.9063 6.20313,-37 C6.20313,-44.2969 2.70313,-48.1094 0.90625,-50"/>
</svg>
