<?xml version="1.0" encoding="UTF-8" standalone="no"?>
<!DOCTYPE svg PUBLIC "-//W3C//DTD SVG 1.1//EN" "http://www.w3.org/Graphics/SVG/1.1/DTD/svg11.dtd">
<!-- 由 Microsoft Visio, SVG Export 生成 劳动二重性决定商品二因素.svg Page-2 -->
<svg xmlns="http://www.w3.org/2000/svg" xmlns:xlink="http://www.w3.org/1999/xlink" xmlns:ev="http://www.w3.org/2001/xml-events"
		xmlns:v="http://schemas.microsoft.com/visio/2003/SVGExtensions/" width="3.73641in" height="1.86633in"
		viewBox="0 0 269.021 134.376" xml:space="preserve" color-interpolation-filters="sRGB" class="st10">
	<v:documentProperties v:langID="2052" v:metric="true" v:viewMarkup="false">
		<v:userDefs>
			<v:ud v:nameU="msvSubprocessMaster" v:prompt="" v:val="VT4(Rectangle)"/>
			<v:ud v:nameU="msvNoAutoConnect" v:val="VT0(1):26"/>
		</v:userDefs>
	</v:documentProperties>

	<style type="text/css">
	<![CDATA[
		.st1 {visibility:visible}
		.st2 {fill:#5b9bd5;fill-opacity:0.22;filter:url(#filter_2);stroke:#5b9bd5;stroke-opacity:0.22}
		.st3 {fill:#70ad47;stroke:#c7c8c8;stroke-width:0.25}
		.st4 {fill:#feffff;font-family:黑体;font-size:0.833336em}
		.st5 {fill:none;stroke:none;stroke-width:0.25}
		.st6 {fill:#ffc000;font-family:黑体;font-size:1.00001em}
		.st7 {fill:#5b9bd5;stroke:#c7c8c8;stroke-width:0.25}
		.st8 {fill:#5b9bd5;fill-opacity:0.25;filter:url(#filter_2);stroke:none}
		.st9 {fill:#fec000;stroke:none;stroke-width:0.75}
		.st10 {fill:none;fill-rule:evenodd;font-size:12px;overflow:visible;stroke-linecap:square;stroke-miterlimit:3}
	]]>
	</style>

	<defs id="Filters">
		<filter id="filter_2">
			<feGaussianBlur stdDeviation="2"/>
		</filter>
	</defs>
	<g v:mID="4" v:index="2" v:groupContext="foregroundPage">
		<v:userDefs>
			<v:ud v:nameU="msvThemeOrder" v:val="VT0(0):26"/>
		</v:userDefs>
		<title>页-2</title>
		<v:pageProperties v:drawingScale="0.0393701" v:pageScale="0.0393701" v:drawingUnits="24" v:shadowOffsetX="8.50394"
				v:shadowOffsetY="-8.50394"/>
		<v:layer v:name="连接线" v:index="0"/>
		<g id="shape22-1" v:mID="22" v:groupContext="shape" transform="translate(148.338,-23.0978)">
			<title>圆角矩形.22</title>
			<desc>商品二重性</desc>
			<v:userDefs>
				<v:ud v:nameU="CTypeTopLeftSnip" v:prompt="" v:val="VT0(0):5"/>
				<v:ud v:nameU="CTypeTopRightSnip" v:prompt="" v:val="VT0(0):5"/>
				<v:ud v:nameU="CTypeBotLeftSnip" v:prompt="" v:val="VT0(0):5"/>
				<v:ud v:nameU="CTypeBotRightSnip" v:prompt="" v:val="VT0(0):5"/>
				<v:ud v:nameU="CornerLockHoriz" v:prompt="" v:val="VT0(1):5"/>
				<v:ud v:nameU="CornerLockVert" v:prompt="" v:val="VT0(1):5"/>
				<v:ud v:nameU="CornerLockDiag" v:prompt="" v:val="VT0(0):5"/>
				<v:ud v:nameU="TopLeftOffset" v:prompt="" v:val="VT0(0.15748031496063):24"/>
				<v:ud v:nameU="TopRightOffset" v:prompt="" v:val="VT0(0.15748031496063):24"/>
				<v:ud v:nameU="BotLeftOffset" v:prompt="" v:val="VT0(0.15748031496063):24"/>
				<v:ud v:nameU="BotRightOffset" v:prompt="" v:val="VT0(0.15748031496063):24"/>
				<v:ud v:nameU="visVersion" v:prompt="" v:val="VT0(15):26"/>
				<v:ud v:nameU="TopLeftOffset" v:prompt="" v:val="VT0(0.086122085723433):1"/>
				<v:ud v:nameU="TopRightOffset" v:prompt="" v:val="VT0(0.086122085723433):1"/>
				<v:ud v:nameU="BotLeftOffset" v:prompt="" v:val="VT0(0.086122085723433):1"/>
				<v:ud v:nameU="BotRightOffset" v:prompt="" v:val="VT0(0.086122085723433):1"/>
			</v:userDefs>
			<v:textBlock v:margins="rect(4,4,4,4)" v:tabSpace="42.5197"/>
			<v:textRect cx="49.6063" cy="88.313" width="99.22" height="92.126"/>
			<g id="shadow22-2" v:groupContext="shadow" v:shadowOffsetX="0.345598" v:shadowOffsetY="-1.97279" v:shadowType="1"
					transform="matrix(1,0,0,1,0.345598,1.97279)" class="st1">
				<path d="M6.2 134.38 L93.01 134.38 A6.20069 6.20069 -180 0 0 99.21 128.18 L99.21 48.45 A6.20069 6.20069 -180 0 0
							 93.01 42.25 L6.2 42.25 A6.20069 6.20069 -180 0 0 -0 48.45 L0 128.18 A6.20069 6.20069 -180 0 0 6.2 134.38
							 Z" class="st2"/>
			</g>
			<path d="M6.2 134.38 L93.01 134.38 A6.20069 6.20069 -180 0 0 99.21 128.18 L99.21 48.45 A6.20069 6.20069 -180 0 0 93.01
						 42.25 L6.2 42.25 A6.20069 6.20069 -180 0 0 -0 48.45 L0 128.18 A6.20069 6.20069 -180 0 0 6.2 134.38 Z"
					class="st3"/>
			<text x="24.61" y="91.64" class="st4" v:langID="2052"><v:paragraph v:horizAlign="1"/><v:tabList/>商品二重性</text>		</g>
		<g id="shape21-7" v:mID="21" v:groupContext="shape" transform="translate(20.7793,-23.0978)">
			<title>圆角矩形</title>
			<desc>劳动二因素</desc>
			<v:userDefs>
				<v:ud v:nameU="CTypeTopLeftSnip" v:prompt="" v:val="VT0(0):5"/>
				<v:ud v:nameU="CTypeTopRightSnip" v:prompt="" v:val="VT0(0):5"/>
				<v:ud v:nameU="CTypeBotLeftSnip" v:prompt="" v:val="VT0(0):5"/>
				<v:ud v:nameU="CTypeBotRightSnip" v:prompt="" v:val="VT0(0):5"/>
				<v:ud v:nameU="CornerLockHoriz" v:prompt="" v:val="VT0(1):5"/>
				<v:ud v:nameU="CornerLockVert" v:prompt="" v:val="VT0(1):5"/>
				<v:ud v:nameU="CornerLockDiag" v:prompt="" v:val="VT0(0):5"/>
				<v:ud v:nameU="TopLeftOffset" v:prompt="" v:val="VT0(0.15748031496063):24"/>
				<v:ud v:nameU="TopRightOffset" v:prompt="" v:val="VT0(0.15748031496063):24"/>
				<v:ud v:nameU="BotLeftOffset" v:prompt="" v:val="VT0(0.15748031496063):24"/>
				<v:ud v:nameU="BotRightOffset" v:prompt="" v:val="VT0(0.15748031496063):24"/>
				<v:ud v:nameU="visVersion" v:prompt="" v:val="VT0(15):26"/>
				<v:ud v:nameU="TopLeftOffset" v:prompt="" v:val="VT0(0.086122085723433):1"/>
				<v:ud v:nameU="TopRightOffset" v:prompt="" v:val="VT0(0.086122085723433):1"/>
				<v:ud v:nameU="BotLeftOffset" v:prompt="" v:val="VT0(0.086122085723433):1"/>
				<v:ud v:nameU="BotRightOffset" v:prompt="" v:val="VT0(0.086122085723433):1"/>
			</v:userDefs>
			<v:textBlock v:margins="rect(4,4,4,4)" v:tabSpace="42.5197"/>
			<v:textRect cx="49.6063" cy="88.313" width="99.22" height="92.126"/>
			<g id="shadow21-8" v:groupContext="shadow" v:shadowOffsetX="0.345598" v:shadowOffsetY="-1.97279" v:shadowType="1"
					transform="matrix(1,0,0,1,0.345598,1.97279)" class="st1">
				<path d="M6.2 134.38 L93.01 134.38 A6.20069 6.20069 -180 0 0 99.21 128.18 L99.21 48.45 A6.20069 6.20069 -180 0 0
							 93.01 42.25 L6.2 42.25 A6.20069 6.20069 -180 0 0 -0 48.45 L0 128.18 A6.20069 6.20069 -180 0 0 6.2 134.38
							 Z" class="st2"/>
			</g>
			<path d="M6.2 134.38 L93.01 134.38 A6.20069 6.20069 -180 0 0 99.21 128.18 L99.21 48.45 A6.20069 6.20069 -180 0 0 93.01
						 42.25 L6.2 42.25 A6.20069 6.20069 -180 0 0 -0 48.45 L0 128.18 A6.20069 6.20069 -180 0 0 6.2 134.38 Z"
					class="st3"/>
			<text x="24.61" y="91.64" class="st4" v:langID="2052"><v:paragraph v:horizAlign="1"/><v:tabList/>劳动二因素</text>		</g>
		<g id="shape9-13" v:mID="9" v:groupContext="shape" transform="translate(112.905,-61.3655)">
			<title>工作表.9</title>
			<desc>决定</desc>
			<v:textBlock v:margins="rect(4,4,4,4)" v:tabSpace="42.5197"/>
			<v:textRect cx="21.2598" cy="127.289" width="42.52" height="14.1732"/>
			<rect x="0" y="120.203" width="42.5197" height="14.1732" class="st5"/>
			<text x="9.26" y="131.28" class="st6" v:langID="2052"><v:paragraph v:horizAlign="1"/><v:tabList/>决定</text>		</g>
		<g id="shape17-16" v:mID="17" v:groupContext="shape" transform="translate(155.425,-30.1844)">
			<title>圆角矩形.17</title>
			<desc>价值</desc>
			<v:userDefs>
				<v:ud v:nameU="CTypeTopLeftSnip" v:prompt="" v:val="VT0(0):5"/>
				<v:ud v:nameU="CTypeTopRightSnip" v:prompt="" v:val="VT0(0):5"/>
				<v:ud v:nameU="CTypeBotLeftSnip" v:prompt="" v:val="VT0(0):5"/>
				<v:ud v:nameU="CTypeBotRightSnip" v:prompt="" v:val="VT0(0):5"/>
				<v:ud v:nameU="CornerLockHoriz" v:prompt="" v:val="VT0(1):5"/>
				<v:ud v:nameU="CornerLockVert" v:prompt="" v:val="VT0(1):5"/>
				<v:ud v:nameU="CornerLockDiag" v:prompt="" v:val="VT0(0):5"/>
				<v:ud v:nameU="TopLeftOffset" v:prompt="" v:val="VT0(0.15748031496063):24"/>
				<v:ud v:nameU="TopRightOffset" v:prompt="" v:val="VT0(0.15748031496063):24"/>
				<v:ud v:nameU="BotLeftOffset" v:prompt="" v:val="VT0(0.15748031496063):24"/>
				<v:ud v:nameU="BotRightOffset" v:prompt="" v:val="VT0(0.15748031496063):24"/>
				<v:ud v:nameU="visVersion" v:prompt="" v:val="VT0(15):26"/>
				<v:ud v:nameU="TopLeftOffset" v:prompt="" v:val="VT0(0.073818930620089):1"/>
				<v:ud v:nameU="TopRightOffset" v:prompt="" v:val="VT0(0.073818930620089):1"/>
				<v:ud v:nameU="BotLeftOffset" v:prompt="" v:val="VT0(0.073818930620089):1"/>
				<v:ud v:nameU="BotRightOffset" v:prompt="" v:val="VT0(0.073818930620089):1"/>
			</v:userDefs>
			<v:textBlock v:margins="rect(4,4,4,4)" v:tabSpace="42.5197"/>
			<v:textRect cx="42.5197" cy="120.203" width="85.04" height="28.3465"/>
			<g id="shadow17-17" v:groupContext="shadow" v:shadowOffsetX="0.345598" v:shadowOffsetY="-1.97279" v:shadowType="1"
					transform="matrix(1,0,0,1,0.345598,1.97279)" class="st1">
				<path d="M5.31 134.38 L79.72 134.38 A5.31488 5.31488 -180 0 0 85.04 129.06 L85.04 111.34 A5.31488 5.31488 -180 0
							 0 79.72 106.03 L5.31 106.03 A5.31488 5.31488 -180 0 0 0 111.34 L0 129.06 A5.31488 5.31488 -180 0 0 5.31
							 134.38 Z" class="st2"/>
			</g>
			<path d="M5.31 134.38 L79.72 134.38 A5.31488 5.31488 -180 0 0 85.04 129.06 L85.04 111.34 A5.31488 5.31488 -180 0 0 79.72
						 106.03 L5.31 106.03 A5.31488 5.31488 -180 0 0 0 111.34 L0 129.06 A5.31488 5.31488 -180 0 0 5.31 134.38 Z"
					class="st7"/>
			<text x="32.52" y="123.53" class="st4" v:langID="2052"><v:paragraph v:horizAlign="1"/><v:tabList/>价值</text>		</g>
		<g id="shape18-22" v:mID="18" v:groupContext="shape" transform="translate(155.425,-79.7907)">
			<title>圆角矩形.18</title>
			<desc>使用价值</desc>
			<v:userDefs>
				<v:ud v:nameU="CTypeTopLeftSnip" v:prompt="" v:val="VT0(0):5"/>
				<v:ud v:nameU="CTypeTopRightSnip" v:prompt="" v:val="VT0(0):5"/>
				<v:ud v:nameU="CTypeBotLeftSnip" v:prompt="" v:val="VT0(0):5"/>
				<v:ud v:nameU="CTypeBotRightSnip" v:prompt="" v:val="VT0(0):5"/>
				<v:ud v:nameU="CornerLockHoriz" v:prompt="" v:val="VT0(1):5"/>
				<v:ud v:nameU="CornerLockVert" v:prompt="" v:val="VT0(1):5"/>
				<v:ud v:nameU="CornerLockDiag" v:prompt="" v:val="VT0(0):5"/>
				<v:ud v:nameU="TopLeftOffset" v:prompt="" v:val="VT0(0.15748031496063):24"/>
				<v:ud v:nameU="TopRightOffset" v:prompt="" v:val="VT0(0.15748031496063):24"/>
				<v:ud v:nameU="BotLeftOffset" v:prompt="" v:val="VT0(0.15748031496063):24"/>
				<v:ud v:nameU="BotRightOffset" v:prompt="" v:val="VT0(0.15748031496063):24"/>
				<v:ud v:nameU="visVersion" v:prompt="" v:val="VT0(15):26"/>
				<v:ud v:nameU="TopLeftOffset" v:prompt="" v:val="VT0(0.073818930620089):1"/>
				<v:ud v:nameU="TopRightOffset" v:prompt="" v:val="VT0(0.073818930620089):1"/>
				<v:ud v:nameU="BotLeftOffset" v:prompt="" v:val="VT0(0.073818930620089):1"/>
				<v:ud v:nameU="BotRightOffset" v:prompt="" v:val="VT0(0.073818930620089):1"/>
			</v:userDefs>
			<v:textBlock v:margins="rect(4,4,4,4)" v:tabSpace="42.5197"/>
			<v:textRect cx="42.5197" cy="120.203" width="85.04" height="28.3465"/>
			<g id="shadow18-23" v:groupContext="shadow" v:shadowOffsetX="0.345598" v:shadowOffsetY="-1.97279" v:shadowType="1"
					transform="matrix(1,0,0,1,0.345598,1.97279)" class="st1">
				<path d="M5.31 134.38 L79.72 134.38 A5.31488 5.31488 -180 0 0 85.04 129.06 L85.04 111.34 A5.31488 5.31488 -180 0
							 0 79.72 106.03 L5.31 106.03 A5.31488 5.31488 -180 0 0 0 111.34 L0 129.06 A5.31488 5.31488 -180 0 0 5.31
							 134.38 Z" class="st2"/>
			</g>
			<path d="M5.31 134.38 L79.72 134.38 A5.31488 5.31488 -180 0 0 85.04 129.06 L85.04 111.34 A5.31488 5.31488 -180 0 0 79.72
						 106.03 L5.31 106.03 A5.31488 5.31488 -180 0 0 0 111.34 L0 129.06 A5.31488 5.31488 -180 0 0 5.31 134.38 Z"
					class="st7"/>
			<text x="22.52" y="123.53" class="st4" v:langID="2052"><v:paragraph v:horizAlign="1"/><v:tabList/>使用价值</text>		</g>
		<g id="shape19-28" v:mID="19" v:groupContext="shape" transform="translate(27.8659,-79.7907)">
			<title>圆角矩形.19</title>
			<desc>具体劳动</desc>
			<v:userDefs>
				<v:ud v:nameU="CTypeTopLeftSnip" v:prompt="" v:val="VT0(0):5"/>
				<v:ud v:nameU="CTypeTopRightSnip" v:prompt="" v:val="VT0(0):5"/>
				<v:ud v:nameU="CTypeBotLeftSnip" v:prompt="" v:val="VT0(0):5"/>
				<v:ud v:nameU="CTypeBotRightSnip" v:prompt="" v:val="VT0(0):5"/>
				<v:ud v:nameU="CornerLockHoriz" v:prompt="" v:val="VT0(1):5"/>
				<v:ud v:nameU="CornerLockVert" v:prompt="" v:val="VT0(1):5"/>
				<v:ud v:nameU="CornerLockDiag" v:prompt="" v:val="VT0(0):5"/>
				<v:ud v:nameU="TopLeftOffset" v:prompt="" v:val="VT0(0.15748031496063):24"/>
				<v:ud v:nameU="TopRightOffset" v:prompt="" v:val="VT0(0.15748031496063):24"/>
				<v:ud v:nameU="BotLeftOffset" v:prompt="" v:val="VT0(0.15748031496063):24"/>
				<v:ud v:nameU="BotRightOffset" v:prompt="" v:val="VT0(0.15748031496063):24"/>
				<v:ud v:nameU="visVersion" v:prompt="" v:val="VT0(15):26"/>
				<v:ud v:nameU="TopLeftOffset" v:prompt="" v:val="VT0(0.073818930620089):1"/>
				<v:ud v:nameU="TopRightOffset" v:prompt="" v:val="VT0(0.073818930620089):1"/>
				<v:ud v:nameU="BotLeftOffset" v:prompt="" v:val="VT0(0.073818930620089):1"/>
				<v:ud v:nameU="BotRightOffset" v:prompt="" v:val="VT0(0.073818930620089):1"/>
			</v:userDefs>
			<v:textBlock v:margins="rect(4,4,4,4)" v:tabSpace="42.5197"/>
			<v:textRect cx="42.5197" cy="120.203" width="85.04" height="28.3465"/>
			<g id="shadow19-29" v:groupContext="shadow" v:shadowOffsetX="0.345598" v:shadowOffsetY="-1.97279" v:shadowType="1"
					transform="matrix(1,0,0,1,0.345598,1.97279)" class="st1">
				<path d="M5.31 134.38 L79.72 134.38 A5.31488 5.31488 -180 0 0 85.04 129.06 L85.04 111.34 A5.31488 5.31488 -180 0
							 0 79.72 106.03 L5.31 106.03 A5.31488 5.31488 -180 0 0 0 111.34 L0 129.06 A5.31488 5.31488 -180 0 0 5.31
							 134.38 Z" class="st2"/>
			</g>
			<path d="M5.31 134.38 L79.72 134.38 A5.31488 5.31488 -180 0 0 85.04 129.06 L85.04 111.34 A5.31488 5.31488 -180 0 0 79.72
						 106.03 L5.31 106.03 A5.31488 5.31488 -180 0 0 0 111.34 L0 129.06 A5.31488 5.31488 -180 0 0 5.31 134.38 Z"
					class="st7"/>
			<text x="22.52" y="123.53" class="st4" v:langID="2052"><v:paragraph v:horizAlign="1"/><v:tabList/>具体劳动</text>		</g>
		<g id="shape20-34" v:mID="20" v:groupContext="shape" transform="translate(27.8659,-30.1844)">
			<title>圆角矩形.20</title>
			<desc>抽象劳动</desc>
			<v:userDefs>
				<v:ud v:nameU="CTypeTopLeftSnip" v:prompt="" v:val="VT0(0):5"/>
				<v:ud v:nameU="CTypeTopRightSnip" v:prompt="" v:val="VT0(0):5"/>
				<v:ud v:nameU="CTypeBotLeftSnip" v:prompt="" v:val="VT0(0):5"/>
				<v:ud v:nameU="CTypeBotRightSnip" v:prompt="" v:val="VT0(0):5"/>
				<v:ud v:nameU="CornerLockHoriz" v:prompt="" v:val="VT0(1):5"/>
				<v:ud v:nameU="CornerLockVert" v:prompt="" v:val="VT0(1):5"/>
				<v:ud v:nameU="CornerLockDiag" v:prompt="" v:val="VT0(0):5"/>
				<v:ud v:nameU="TopLeftOffset" v:prompt="" v:val="VT0(0.15748031496063):24"/>
				<v:ud v:nameU="TopRightOffset" v:prompt="" v:val="VT0(0.15748031496063):24"/>
				<v:ud v:nameU="BotLeftOffset" v:prompt="" v:val="VT0(0.15748031496063):24"/>
				<v:ud v:nameU="BotRightOffset" v:prompt="" v:val="VT0(0.15748031496063):24"/>
				<v:ud v:nameU="visVersion" v:prompt="" v:val="VT0(15):26"/>
				<v:ud v:nameU="TopLeftOffset" v:prompt="" v:val="VT0(0.073818930620089):1"/>
				<v:ud v:nameU="TopRightOffset" v:prompt="" v:val="VT0(0.073818930620089):1"/>
				<v:ud v:nameU="BotLeftOffset" v:prompt="" v:val="VT0(0.073818930620089):1"/>
				<v:ud v:nameU="BotRightOffset" v:prompt="" v:val="VT0(0.073818930620089):1"/>
			</v:userDefs>
			<v:textBlock v:margins="rect(4,4,4,4)" v:tabSpace="42.5197"/>
			<v:textRect cx="42.5197" cy="120.203" width="85.04" height="28.3465"/>
			<g id="shadow20-35" v:groupContext="shadow" v:shadowOffsetX="0.345598" v:shadowOffsetY="-1.97279" v:shadowType="1"
					transform="matrix(1,0,0,1,0.345598,1.97279)" class="st1">
				<path d="M5.31 134.38 L79.72 134.38 A5.31488 5.31488 -180 0 0 85.04 129.06 L85.04 111.34 A5.31488 5.31488 -180 0
							 0 79.72 106.03 L5.31 106.03 A5.31488 5.31488 -180 0 0 0 111.34 L0 129.06 A5.31488 5.31488 -180 0 0 5.31
							 134.38 Z" class="st2"/>
			</g>
			<path d="M5.31 134.38 L79.72 134.38 A5.31488 5.31488 -180 0 0 85.04 129.06 L85.04 111.34 A5.31488 5.31488 -180 0 0 79.72
						 106.03 L5.31 106.03 A5.31488 5.31488 -180 0 0 0 111.34 L0 129.06 A5.31488 5.31488 -180 0 0 5.31 134.38 Z"
					class="st7"/>
			<text x="22.52" y="123.53" class="st4" v:langID="2052"><v:paragraph v:horizAlign="1"/><v:tabList/>抽象劳动</text>		</g>
		<g id="shape23-40" v:mID="23" v:groupContext="shape" transform="translate(145.504,174.788) rotate(180)">
			<title>普通箭头</title>
			<v:userDefs>
				<v:ud v:nameU="visVersion" v:val="VT0(15):26"/>
				<v:ud v:nameU="ArrowType" v:prompt="" v:val="VT0(2):26"/>
			</v:userDefs>
			<g id="shadow23-41" v:groupContext="shadow" v:shadowOffsetX="0.345598" v:shadowOffsetY="-1.97279" v:shadowType="1"
					transform="matrix(1,0,0,1,-0.345598,-1.97279)" class="st1">
				<path d="M0 134.38 L11.34 123.04 L11.34 128.71 L22.68 128.71 L22.68 134.38 L22.68 140.05 L11.34 140.05 L11.34 145.71
							 L0 134.38 Z" class="st8"/>
			</g>
			<path d="M0 134.38 L11.34 123.04 L11.34 128.71 L22.68 128.71 L22.68 134.38 L22.68 140.05 L11.34 140.05 L11.34 145.71
						 L0 134.38 Z" class="st9"/>
		</g>
		<g id="shape24-45" v:mID="24" v:groupContext="shape" transform="translate(145.504,224.394) rotate(180)">
			<title>普通箭头.24</title>
			<v:userDefs>
				<v:ud v:nameU="visVersion" v:val="VT0(15):26"/>
				<v:ud v:nameU="ArrowType" v:prompt="" v:val="VT0(2):26"/>
			</v:userDefs>
			<g id="shadow24-46" v:groupContext="shadow" v:shadowOffsetX="0.345598" v:shadowOffsetY="-1.97279" v:shadowType="1"
					transform="matrix(1,0,0,1,-0.345598,-1.97279)" class="st1">
				<path d="M0 134.38 L11.34 123.04 L11.34 128.71 L22.68 128.71 L22.68 134.38 L22.68 140.05 L11.34 140.05 L11.34 145.71
							 L0 134.38 Z" class="st8"/>
			</g>
			<path d="M0 134.38 L11.34 123.04 L11.34 128.71 L22.68 128.71 L22.68 134.38 L22.68 140.05 L11.34 140.05 L11.34 145.71
						 L0 134.38 Z" class="st9"/>
		</g>
	</g>
</svg>
